<svg xmlns="http://www.w3.org/2000/svg" xmlns:xlink="http://www.w3.org/1999/xlink" width="517" height="329.56" viewBox="0 0 517 329.56">
  <defs>
    <linearGradient id="linear-gradient" y1="0.5" x2="1" y2="0.5" gradientUnits="objectBoundingBox">
      <stop offset="0" stop-color="#dae3fe"/>
      <stop offset="1" stop-color="#e9effd"/>
    </linearGradient>
    <linearGradient id="linear-gradient-2" x1="214.204" y1="-32.653" x2="202.972" y2="-32.262" gradientUnits="objectBoundingBox">
      <stop offset="0" stop-color="#09005d"/>
      <stop offset="1" stop-color="#1a0f91"/>
    </linearGradient>
    <linearGradient id="linear-gradient-3" x1="51.033" y1="-127.784" x2="50.646" y2="-128.761" xlink:href="#linear-gradient-2"/>
    <linearGradient id="linear-gradient-4" x1="261.511" y1="-47.995" x2="252.997" y2="-47.603" xlink:href="#linear-gradient-2"/>
    <linearGradient id="linear-gradient-5" x1="62.1" y1="-141.037" x2="61.713" y2="-142.013" xlink:href="#linear-gradient-2"/>
    <linearGradient id="linear-gradient-6" x1="220.833" y1="16.973" x2="216.434" y2="20.09" xlink:href="#linear-gradient-2"/>
    <linearGradient id="linear-gradient-7" x1="53.789" y1="60.929" x2="52.753" y2="72.649" xlink:href="#linear-gradient-2"/>
    <linearGradient id="linear-gradient-8" x1="0.53" y1="-2.281" x2="0.484" y2="1.946" xlink:href="#linear-gradient-2"/>
    <linearGradient id="linear-gradient-23" x1="-13.587" y1="11.174" x2="-16.37" y2="14.481" gradientUnits="objectBoundingBox">
      <stop offset="0" stop-color="#2b3582"/>
      <stop offset="1" stop-color="#150e42"/>
    </linearGradient>
    <linearGradient id="linear-gradient-24" x1="-11.735" y1="86.583" x2="-12.853" y2="89.185" xlink:href="#linear-gradient-23"/>
    <linearGradient id="linear-gradient-25" x1="-7.016" y1="62.68" x2="-7.488" y2="64.493" xlink:href="#linear-gradient-23"/>
    <linearGradient id="linear-gradient-26" x1="-15.942" y1="0.954" x2="-13.781" y2="-0.303" gradientUnits="objectBoundingBox">
      <stop offset="0" stop-color="#4042e2"/>
      <stop offset="1" stop-color="#4f52ff"/>
    </linearGradient>
    <linearGradient id="linear-gradient-27" x1="-1.278" y1="0.128" x2="-1.032" y2="-20.758" xlink:href="#linear-gradient-26"/>
    <linearGradient id="linear-gradient-28" x1="-1.05" y1="4.039" x2="-0.854" y2="-0.315" xlink:href="#linear-gradient-26"/>
    <linearGradient id="linear-gradient-29" x1="0.213" y1="0.685" x2="-1.031" y2="1.322" gradientUnits="objectBoundingBox">
      <stop offset="0" stop-color="#ff928e"/>
      <stop offset="1" stop-color="#feb3b1"/>
    </linearGradient>
    <linearGradient id="linear-gradient-30" x1="-5.148" y1="0.006" x2="-5.352" y2="3.202" xlink:href="#linear-gradient-26"/>
    <linearGradient id="linear-gradient-31" x1="0.515" y1="-1.056" x2="0.505" y2="0.094" xlink:href="#linear-gradient-29"/>
    <linearGradient id="linear-gradient-32" x1="-6.997" y1="-2.158" x2="-7.156" y2="6.275" xlink:href="#linear-gradient-26"/>
    <linearGradient id="linear-gradient-33" x1="-0.195" y1="0.121" x2="-0.736" y2="0.568" xlink:href="#linear-gradient-2"/>
    <linearGradient id="linear-gradient-34" x1="0.391" y1="0.873" x2="-0.612" y2="3.58" xlink:href="#linear-gradient-29"/>
    <linearGradient id="linear-gradient-35" x1="1.243" y1="0.364" x2="0.109" y2="0.598" xlink:href="#linear-gradient-29"/>
    <linearGradient id="linear-gradient-36" x1="-13.797" y1="-14.844" x2="-14.595" y2="-13.714" xlink:href="#linear-gradient-2"/>
    <linearGradient id="linear-gradient-37" x1="5.216" y1="-0.252" x2="0.325" y2="0.499" xlink:href="#linear-gradient-29"/>
    <linearGradient id="linear-gradient-38" x1="0.024" y1="3.934" x2="0.584" y2="-0.109" xlink:href="#linear-gradient-29"/>
    <linearGradient id="linear-gradient-39" x1="-1.558" y1="5.839" x2="-2.297" y2="8.275" xlink:href="#linear-gradient-2"/>
    <linearGradient id="linear-gradient-40" x1="-1.981" y1="0.134" x2="-2.381" y2="0.8" xlink:href="#linear-gradient-2"/>
    <linearGradient id="linear-gradient-41" x1="0.531" y1="0.127" x2="0.328" y2="1.542" xlink:href="#linear-gradient-2"/>
    <linearGradient id="linear-gradient-42" x1="0.457" y1="1.875" x2="-0.174" y2="23.66" xlink:href="#linear-gradient-26"/>
    <linearGradient id="linear-gradient-43" x1="0.416" y1="2.736" x2="-0.105" y2="17.47" xlink:href="#linear-gradient-26"/>
    <linearGradient id="linear-gradient-44" x1="0.379" y1="3.815" x2="-0.133" y2="18.537" xlink:href="#linear-gradient-26"/>
    <linearGradient id="linear-gradient-45" x1="0.332" y1="5.009" x2="-0.21" y2="19.869" xlink:href="#linear-gradient-26"/>
    <linearGradient id="linear-gradient-46" x1="0.512" y1="-0.059" x2="0.404" y2="9.254" xlink:href="#linear-gradient-2"/>
    <linearGradient id="linear-gradient-47" x1="0.535" y1="0.243" x2="0.018" y2="4.062" xlink:href="#linear-gradient-2"/>
    <linearGradient id="linear-gradient-48" x1="1.404" y1="0.244" x2="-12.033" y2="4.048" xlink:href="#linear-gradient-2"/>
    <linearGradient id="linear-gradient-49" x1="-47.535" y1="-0.346" x2="-47.172" y2="0.297" gradientUnits="objectBoundingBox">
      <stop offset="0" stop-color="#020039"/>
      <stop offset="1" stop-color="#090056"/>
    </linearGradient>
    <linearGradient id="linear-gradient-50" x1="-41.38" y1="-3.46" x2="-40.828" y2="-2.383" xlink:href="#linear-gradient-29"/>
    <linearGradient id="linear-gradient-51" x1="-112.325" y1="1.602" x2="-111.291" y2="-1.187" xlink:href="#linear-gradient-29"/>
    <linearGradient id="linear-gradient-52" x1="-48.124" y1="1.698" x2="-47.66" y2="-1.193" xlink:href="#linear-gradient-29"/>
    <linearGradient id="linear-gradient-53" x1="0.83" y1="-0.484" x2="0.3" y2="1.294" xlink:href="#linear-gradient-29"/>
    <linearGradient id="linear-gradient-54" x1="-85.572" y1="0.5" x2="-84.572" y2="0.5" xlink:href="#linear-gradient-29"/>
    <linearGradient id="linear-gradient-55" x1="-63.792" y1="-21.39" x2="-64.814" y2="-21.045" xlink:href="#linear-gradient-29"/>
    <linearGradient id="linear-gradient-56" x1="-85.355" y1="-7.709" x2="-84.724" y2="-6.306" xlink:href="#linear-gradient-49"/>
    <linearGradient id="linear-gradient-57" x1="-240.502" y1="-68.426" x2="-244.364" y2="-67.332" xlink:href="#linear-gradient-29"/>
    <linearGradient id="linear-gradient-58" x1="-122.152" y1="-8.918" x2="-120.561" y2="-5.911" xlink:href="#linear-gradient-29"/>
    <linearGradient id="linear-gradient-59" x1="0.046" y1="-4.646" x2="0.413" y2="-0.611" xlink:href="#linear-gradient-29"/>
    <linearGradient id="linear-gradient-70" x1="0" y1="0.5" x2="1" y2="0.5" xlink:href="#linear-gradient"/>
    <linearGradient id="linear-gradient-71" x1="0.352" y1="-7.703" x2="0.524" y2="1.783" xlink:href="#linear-gradient-29"/>
    <linearGradient id="linear-gradient-72" x1="0.071" y1="-3.365" x2="0.357" y2="-0.698" xlink:href="#linear-gradient-29"/>
  </defs>
  <g id="Grupo_56222" data-name="Grupo 56222" transform="translate(-888 -633)">
    <g id="Grupo_55453" data-name="Grupo 55453" transform="translate(772.444 523.179)">
      <path id="Trazado_101100" data-name="Trazado 101100" d="M147.191,295.264c13.58-20.084,42.362-30.845,43.114-60.941.285-11.4-7.848-20.554-4.188-31.729,24.555-74.963,140.548-23.588,190.646-7.745,20.861,6.6,45.817,13.945,68.247,12.982,25.821-1.109,49.811-14.089,75.371-16.525a61.48,61.48,0,0,1,22.111,1.76c25.791,7,48.563,33.277,57.139,62.471,6.951,23.666-1.93,47.029,8.985,70.2,11.634,24.7,34.544,41.859,40.316,70.377,6.928,34.228-19.541,63.993-47.974,64.924-18.1.593-51.644-2.47-67.019-14.3-18.721-14.4-37.12-15.349-58.945-14.8-41.534,1.05-83.066,10.95-124.064,18-35.13,6.04-69.755,14.984-105.359,16.119-26.147.834-48.337,1.209-62.485-28.873C166.177,401.237,118.7,337.394,147.191,295.264Z" transform="translate(-17.492 -40.865)" fill="#f1eaff"/>
      <g id="Grupo_55415" data-name="Grupo 55415" transform="translate(246.584 109.821)">
        <path id="Trazado_101107" data-name="Trazado 101107" d="M936.318,113.14a11.565,11.565,0,0,0-8.15-3.319l-232.577.131a11.565,11.565,0,0,0-8.148,3.33,10.738,10.738,0,0,0-3.194,7.958l9.219,286.437c.19,5.912,5.215,10.439,11.349,10.439h214.63c6.141,0,11.169-4.538,11.349-10.458l8.728-286.654A10.55,10.55,0,0,0,936.318,113.14Z" transform="translate(-684.243 -109.821)" fill="#392a8d"/>
        <path id="Trazado_101108" data-name="Trazado 101108" d="M964.06,171.326a10.571,10.571,0,0,0-7.449-3.033l-212.576.12a10.569,10.569,0,0,0-7.447,3.043,9.812,9.812,0,0,0-2.92,7.273L742.094,440.5a10.071,10.071,0,0,0,10.373,9.526H948.639a10.07,10.07,0,0,0,10.373-9.543l7.977-261.972A9.626,9.626,0,0,0,964.06,171.326Z" transform="translate(-722.276 -154.821)" fill="url(#linear-gradient)"/>
        <g id="Grupo_55413" data-name="Grupo 55413" transform="translate(32.143 20.032)">
          <g id="Grupo_55403" data-name="Grupo 55403" transform="translate(72.505)">
            <ellipse id="Elipse_1382" data-name="Elipse 1382" cx="22.995" cy="22.173" rx="22.995" ry="22.173" fill="#392a8d"/>
            <ellipse id="Elipse_1383" data-name="Elipse 1383" cx="21.365" cy="20.602" rx="21.365" ry="20.602" transform="translate(2.173 1.571)" fill="#392a8d"/>
          </g>
          <g id="Grupo_55404" data-name="Grupo 55404" transform="translate(72.505 218.941)">
            <ellipse id="Elipse_1384" data-name="Elipse 1384" cx="22.995" cy="22.173" rx="22.995" ry="22.173" fill="#392a8d"/>
            <ellipse id="Elipse_1385" data-name="Elipse 1385" cx="21.365" cy="20.602" rx="21.365" ry="20.602" transform="translate(2.173 1.571)" fill="#392a8d"/>
          </g>
          <path id="Trazado_101109" data-name="Trazado 101109" d="M1149.629,514.167,1123.015,539.7l26.483,25.663,26.614-25.537Z" transform="translate(-1054.063 -441.036)" fill="#392a8d"/>
          <path id="Trazado_101110" data-name="Trazado 101110" d="M1156.881,523.26l-24.436,23.447,24.316,23.563,24.436-23.447Z" transform="translate(-1061.321 -448.034)" fill="aqua"/>
          <g id="Grupo_55405" data-name="Grupo 55405" transform="translate(141.772 146.843)">
            <path id="Trazado_101111" data-name="Trazado 101111" d="M1487.415,848.235a14.411,14.411,0,0,1-14.666,14.142h-19.012a14.411,14.411,0,0,1-14.666-14.142h0a14.411,14.411,0,0,1,14.666-14.142h19.012a14.411,14.411,0,0,1,14.666,14.142Z" transform="translate(-1439.071 -834.093)" fill="#392a8d"/>
            <path id="Trazado_101112" data-name="Trazado 101112" d="M1491.123,851.735a13.252,13.252,0,0,1-13.493,13.094h-17.645a13.252,13.252,0,0,1-13.493-13.094h0a13.252,13.252,0,0,1,13.493-13.095h17.645a13.252,13.252,0,0,1,13.493,13.095Z" transform="translate(-1444.781 -837.592)" fill="aqua"/>
          </g>
          <g id="Grupo_55406" data-name="Grupo 55406" transform="translate(71.701 146.843)">
            <path id="Trazado_101113" data-name="Trazado 101113" d="M1183.291,848.235a14.411,14.411,0,0,1-14.666,14.142h-19.012a14.411,14.411,0,0,1-14.666-14.142h0a14.411,14.411,0,0,1,14.666-14.142h19.012a14.411,14.411,0,0,1,14.666,14.142Z" transform="translate(-1134.947 -834.093)" fill="#392a8d"/>
            <path id="Trazado_101114" data-name="Trazado 101114" d="M1187,851.735a13.252,13.252,0,0,1-13.493,13.094H1155.86a13.252,13.252,0,0,1-13.493-13.094h0a13.252,13.252,0,0,1,13.493-13.095h17.645A13.252,13.252,0,0,1,1187,851.735Z" transform="translate(-1140.657 -837.592)" fill="aqua"/>
          </g>
          <g id="Grupo_55407" data-name="Grupo 55407" transform="translate(0 146.843)">
            <path id="Trazado_101115" data-name="Trazado 101115" d="M872.094,848.235a14.411,14.411,0,0,1-14.666,14.142H838.416a14.411,14.411,0,0,1-14.666-14.142h0a14.411,14.411,0,0,1,14.666-14.142h19.011a14.411,14.411,0,0,1,14.666,14.142Z" transform="translate(-823.75 -834.093)" fill="#392a8d"/>
            <path id="Trazado_101116" data-name="Trazado 101116" d="M875.8,851.735a13.252,13.252,0,0,1-13.493,13.094H844.663a13.252,13.252,0,0,1-13.493-13.094h0a13.252,13.252,0,0,1,13.493-13.095h17.645A13.252,13.252,0,0,1,875.8,851.735Z" transform="translate(-829.46 -837.592)" fill="aqua"/>
          </g>
          <g id="Grupo_55408" data-name="Grupo 55408" transform="translate(92.164 46.539)">
            <path id="Trazado_101117" data-name="Trazado 101117" d="M1237.844,420.227a.786.786,0,0,1-.786-.786v-19.9a.786.786,0,1,1,1.571,0v19.9A.786.786,0,0,1,1237.844,420.227Z" transform="translate(-1233.994 -398.752)" fill="url(#linear-gradient-2)"/>
            <path id="Trazado_101118" data-name="Trazado 101118" d="M1230.432,474.908l-3.337,5.573-3.337-5.573Z" transform="translate(-1223.759 -457.361)" fill="url(#linear-gradient-3)"/>
          </g>
          <g id="Grupo_55409" data-name="Grupo 55409" transform="translate(92.164 125.63)">
            <path id="Trazado_101119" data-name="Trazado 101119" d="M1237.844,758.261a.786.786,0,0,1-.786-.786V742.81a.786.786,0,1,1,1.571,0v14.666A.786.786,0,0,1,1237.844,758.261Z" transform="translate(-1233.994 -742.024)" fill="url(#linear-gradient-4)"/>
            <path id="Trazado_101120" data-name="Trazado 101120" d="M1230.432,795.447l-3.337,5.573-3.337-5.573Z" transform="translate(-1223.759 -783.138)" fill="url(#linear-gradient-5)"/>
          </g>
          <g id="Grupo_55410" data-name="Grupo 55410" transform="translate(91.328 191.626)">
            <path id="Trazado_101121" data-name="Trazado 101121" d="M1233.3,1049.414a.786.786,0,0,1-.786-.786v-19.38a.786.786,0,1,1,1.571,0v19.38A.786.786,0,0,1,1233.3,1049.414Z" transform="translate(-1229.659 -1028.463)" fill="url(#linear-gradient-6)"/>
            <path id="Trazado_101122" data-name="Trazado 101122" d="M1226.807,1102.346l-3.336,5.573-3.337-5.573Z" transform="translate(-1220.134 -1085.323)" fill="url(#linear-gradient-7)"/>
          </g>
          <g id="Grupo_55411" data-name="Grupo 55411" transform="translate(17.747 97.607)">
            <path id="Trazado_101123" data-name="Trazado 101123" d="M915.032,659.423a.786.786,0,0,1-.786-.786V621.187a.786.786,0,0,1,.786-.786h44.783a.786.786,0,1,1,0,1.571h-44v36.665A.786.786,0,0,1,915.032,659.423Z" transform="translate(-911.142 -620.401)" fill="#392a8d"/>
            <path id="Trazado_101124" data-name="Trazado 101124" d="M907.448,784.08l-3.337,5.573-3.337-5.573Z" transform="translate(-900.775 -746.368)" fill="#392a8d"/>
          </g>
          <g id="Grupo_55412" data-name="Grupo 55412" transform="translate(125.345 97.607)">
            <path id="Trazado_101125" data-name="Trazado 101125" d="M1413.343,659.423a.786.786,0,0,1-.786-.786V621.972h-44a.786.786,0,0,1,0-1.571h44.783a.786.786,0,0,1,.786.786v37.451A.786.786,0,0,1,1413.343,659.423Z" transform="translate(-1367.774 -620.401)" fill="#392a8d"/>
            <path id="Trazado_101126" data-name="Trazado 101126" d="M1551.122,784.08l3.337,5.573,3.337-5.573Z" transform="translate(-1508.878 -746.368)" fill="#392a8d"/>
          </g>
          <path id="Trazado_101127" data-name="Trazado 101127" d="M1062.036,982.535H912.758a.786.786,0,0,1-.786-.786v-13.88a.786.786,0,1,1,1.571,0v13.095H1061.25V967.869a.786.786,0,1,1,1.571,0v13.88A.786.786,0,0,1,1062.036,982.535Z" transform="translate(-891.645 -789.599)" fill="url(#linear-gradient-8)"/>
        </g>
        <g id="Grupo_55414" data-name="Grupo 55414" transform="translate(24.709 26.501)" opacity="0.8">
          <path id="Trazado_101128" data-name="Trazado 101128" d="M854.34,228.417a3.326,3.326,0,0,1-3.455,3.234h-56.13a3.166,3.166,0,0,1-3.269-3.234v-.175a3.305,3.305,0,0,1,3.269-3.4h56.13a3.464,3.464,0,0,1,3.455,3.4Z" transform="translate(-791.486 -224.842)" fill="#392a8d"/>
          <path id="Trazado_101129" data-name="Trazado 101129" d="M854.34,294.344a3.326,3.326,0,0,1-3.455,3.234h-56.13a3.166,3.166,0,0,1-3.269-3.234v-.175a3.305,3.305,0,0,1,3.269-3.4h56.13a3.464,3.464,0,0,1,3.455,3.4Z" transform="translate(-791.486 -275.579)" fill="#392a8d"/>
        </g>
      </g>
      <g id="Grupo_55418" data-name="Grupo 55418" transform="translate(140.117 173.539)">
        <g id="Grupo_55416" data-name="Grupo 55416" transform="translate(0)">
          <path id="Trazado_101130" data-name="Trazado 101130" d="M306.656,386.816l-80.256-.447a4.213,4.213,0,0,0-3.635,6.381l.4.671a4.213,4.213,0,0,0,3.612,2.044h79.853a4.213,4.213,0,0,0,4.213-4.213v-.224A4.213,4.213,0,0,0,306.656,386.816Z" transform="translate(-222.158 -386.369)" fill="#d7c8f2"/>
          <path id="Trazado_101131" data-name="Trazado 101131" d="M637.556,392.928v.131a4.213,4.213,0,0,0,4.212,4.213h17.816a4.213,4.213,0,0,0,4.07-3.125h0a4.213,4.213,0,0,0-4.039-5.3l-17.816-.131A4.213,4.213,0,0,0,637.556,392.928Z" transform="translate(-541.847 -388.175)" fill="#d7c8f2"/>
        </g>
        <g id="Grupo_55417" data-name="Grupo 55417" transform="translate(0 15.122)">
          <path id="Trazado_101132" data-name="Trazado 101132" d="M287.351,452.449,226.4,452a4.213,4.213,0,0,0-3.635,6.381l.4.671a4.213,4.213,0,0,0,3.612,2.044h60.547a4.213,4.213,0,0,0,4.213-4.213v-.224A4.213,4.213,0,0,0,287.351,452.449Z" transform="translate(-222.158 -452.002)" fill="#d7c8f2"/>
          <path id="Trazado_101133" data-name="Trazado 101133" d="M553.766,458.561v.131a4.213,4.213,0,0,0,4.213,4.213h17.816a4.213,4.213,0,0,0,4.07-3.125h0a4.213,4.213,0,0,0-4.039-5.3l-17.816-.13A4.213,4.213,0,0,0,553.766,458.561Z" transform="translate(-477.362 -453.808)" fill="#d7c8f2"/>
        </g>
      </g>
      <g id="Grupo_55428" data-name="Grupo 55428" transform="translate(508.156 148.107)">
        <g id="Grupo_55424" data-name="Grupo 55424" transform="translate(22.9 21.388)">
          <g id="Grupo_55419" data-name="Grupo 55419" transform="translate(0 26.821)">
            <path id="Trazado_101134" data-name="Trazado 101134" d="M2207.552,767.683a.524.524,0,0,1-.2-1.007c.641-.265,1.279-.546,1.9-.834a.524.524,0,1,1,.443.949c-.63.294-1.282.58-1.937.852A.521.521,0,0,1,2207.552,767.683Z" transform="translate(-2140.646 -701.149)" fill="#7d97f4"/>
            <path id="Trazado_101135" data-name="Trazado 101135" d="M1967.39,582.756c-.863,0-1.735-.024-2.594-.069a.524.524,0,0,1-.5-.552.533.533,0,0,1,.551-.5c1.339.072,2.692.087,4.045.044a.524.524,0,0,1,.033,1.048Q1968.157,582.756,1967.39,582.756Zm8.132-.685a.524.524,0,0,1-.087-1.04c1.325-.225,2.656-.509,3.956-.845a.524.524,0,1,1,.262,1.014c-1.329.344-2.689.635-4.043.865A.567.567,0,0,1,1975.522,582.071Zm-17.288-.2a.522.522,0,0,1-.1-.01c-1.347-.262-2.7-.587-4.02-.964a.524.524,0,0,1,.288-1.007c1.291.369,2.614.686,3.932.943a.524.524,0,0,1-.1,1.038Zm-10.223-3.219a.522.522,0,0,1-.212-.045c-1.256-.558-2.5-1.176-3.7-1.836a.524.524,0,0,1,.5-.918c1.176.647,2.395,1.251,3.624,1.8a.524.524,0,0,1-.213,1Zm-9.25-5.411a.521.521,0,0,1-.312-.1c-1.1-.82-2.178-1.7-3.206-2.609a.524.524,0,0,1,.7-.784c1.005.891,2.061,1.75,3.137,2.553a.524.524,0,0,1-.313.944Zm-7.824-7.319a.523.523,0,0,1-.4-.183c-.893-1.044-1.751-2.139-2.551-3.253a.524.524,0,1,1,.851-.611c.782,1.09,1.622,2.161,2.5,3.182a.524.524,0,0,1-.4.864Zm-6.01-8.865a.523.523,0,0,1-.464-.28c-.638-1.214-1.231-2.471-1.763-3.737a.524.524,0,1,1,.965-.406c.521,1.238,1.1,2.468,1.725,3.656a.523.523,0,0,1-.463.767Zm-3.885-9.982a.524.524,0,0,1-.506-.39c-.35-1.323-.647-2.681-.885-4.037a.524.524,0,1,1,1.032-.181c.232,1.327.524,2.656.866,3.95a.524.524,0,0,1-.372.641A.531.531,0,0,1,1921.042,547.078Zm-1.57-10.6a.524.524,0,0,1-.523-.5q-.033-.9-.033-1.8c0-.773.019-1.558.056-2.334a.524.524,0,1,1,1.047.05c-.036.76-.055,1.528-.055,2.284q0,.879.033,1.762a.524.524,0,0,1-.5.543Zm.8-10.688a.531.531,0,0,1-.1-.009.524.524,0,0,1-.417-.612c.256-1.35.573-2.7.943-4.025a.524.524,0,1,1,1.009.282c-.362,1.292-.672,2.617-.923,3.938A.523.523,0,0,1,1920.273,525.792Z" transform="translate(-1918.915 -512.574)" fill="#7d97f4"/>
            <path id="Trazado_101136" data-name="Trazado 101136" d="M1936.856,488.172a.524.524,0,0,1-.48-.734c.282-.644.583-1.29.892-1.92a.524.524,0,1,1,.94.462c-.3.617-.6,1.249-.873,1.879A.524.524,0,0,1,1936.856,488.172Z" transform="translate(-1932.319 -485.225)" fill="#7d97f4"/>
          </g>
          <g id="Grupo_55420" data-name="Grupo 55420" transform="translate(31.457)">
            <path id="Trazado_101137" data-name="Trazado 101137" d="M2055.97,380.1a.524.524,0,0,1-.18-1.016c.665-.243,1.339-.474,2-.684a.524.524,0,1,1,.316,1c-.65.206-1.31.432-1.96.67A.527.527,0,0,1,2055.97,380.1Z" transform="translate(-2055.445 -376.17)" fill="#7d97f4"/>
            <path id="Trazado_101138" data-name="Trazado 101138" d="M2145.9,432.993a.524.524,0,0,1-.5-.69c.419-1.256.789-2.543,1.1-3.826a.524.524,0,1,1,1.018.247c-.317,1.311-.7,2.627-1.124,3.911A.524.524,0,0,1,2145.9,432.993Zm2.211-10.312-.053,0a.524.524,0,0,1-.469-.574c.133-1.313.211-2.65.232-3.974a.536.536,0,0,1,.532-.515.524.524,0,0,1,.515.532c-.022,1.352-.1,2.719-.237,4.061A.525.525,0,0,1,2148.111,422.681Zm-.1-10.545a.524.524,0,0,1-.519-.462c-.156-1.314-.368-2.636-.632-3.929a.524.524,0,0,1,1.027-.208c.269,1.321.487,2.672.646,4.014a.524.524,0,0,1-.458.582A.533.533,0,0,1,2148.012,412.136Zm-2.377-10.268a.524.524,0,0,1-.494-.35c-.438-1.247-.935-2.49-1.476-3.7a.524.524,0,0,1,.956-.43c.553,1.232,1.061,2.5,1.509,3.777a.524.524,0,0,1-.321.668A.515.515,0,0,1,2145.634,401.868Zm-4.57-9.494a.523.523,0,0,1-.444-.246c-.7-1.118-1.457-2.221-2.251-3.28a.524.524,0,1,1,.838-.628c.811,1.082,1.585,2.21,2.3,3.353a.524.524,0,0,1-.444.8Zm-6.54-8.266a.521.521,0,0,1-.373-.156c-.928-.94-1.908-1.853-2.912-2.713a.524.524,0,0,1,.682-.8c1.025.879,2.026,1.811,2.975,2.773a.524.524,0,0,1-.373.891Zm-8.183-6.65a.523.523,0,0,1-.283-.083c-1.113-.718-2.268-1.4-3.432-2.016a.524.524,0,1,1,.493-.925c1.189.634,2.37,1.327,3.507,2.06a.524.524,0,0,1-.284.964Zm-9.435-4.71a.517.517,0,0,1-.181-.032c-1.242-.457-2.517-.866-3.79-1.216a.524.524,0,1,1,.278-1.01c1.3.358,2.6.776,3.874,1.243a.524.524,0,0,1-.181,1.015Zm-24.772-2.228a.524.524,0,0,1-.088-1.04c1.324-.229,2.681-.4,4.033-.524a.518.518,0,0,1,.568.476.524.524,0,0,1-.476.568c-1.323.117-2.651.289-3.947.513A.547.547,0,0,1,2092.134,370.52Zm14.532-.3a.54.54,0,0,1-.069,0c-1.308-.172-2.642-.291-3.963-.353a.525.525,0,0,1-.5-.548.53.53,0,0,1,.548-.5c1.351.064,2.713.185,4.05.361a.524.524,0,0,1-.067,1.043Z" transform="translate(-2083.278 -368.818)" fill="#7d97f4"/>
            <path id="Trazado_101139" data-name="Trazado 101139" d="M2310.423,672.057a.524.524,0,0,1-.458-.776c.328-.6.651-1.214.959-1.835a.524.524,0,1,1,.939.464c-.314.635-.644,1.266-.98,1.876A.524.524,0,0,1,2310.423,672.057Z" transform="translate(-2251.273 -599.955)" fill="#7d97f4"/>
          </g>
          <g id="Grupo_55423" data-name="Grupo 55423" transform="translate(11.054 11.406)">
            <g id="Grupo_55421" data-name="Grupo 55421">
              <path id="Trazado_101140" data-name="Trazado 101140" d="M2034.195,477.07a.577.577,0,0,0,.078-.664l-3.383-6.142a30.544,30.544,0,0,0,3.328-9.32l6.5-2.613a.576.576,0,0,0,.36-.563l-.421-8.4a.577.577,0,0,0-.415-.524l-6.73-1.95a30.554,30.554,0,0,0-4.243-8.94l2.752-6.449a.576.576,0,0,0-.143-.653l-6.238-5.642a.576.576,0,0,0-.664-.077l-6.142,3.383a30.537,30.537,0,0,0-9.32-3.328l-2.613-6.5a.576.576,0,0,0-.563-.361l-8.4.421a.576.576,0,0,0-.524.415l-1.95,6.731a30.536,30.536,0,0,0-8.94,4.243l-6.449-2.752a.576.576,0,0,0-.653.144l-5.642,6.238a.576.576,0,0,0-.077.664l3.383,6.142a30.544,30.544,0,0,0-3.328,9.32l-6.5,2.613a.576.576,0,0,0-.361.563l.421,8.4a.576.576,0,0,0,.415.524l6.731,1.95a30.535,30.535,0,0,0,4.243,8.94l-2.752,6.449a.576.576,0,0,0,.143.653l6.238,5.642a.576.576,0,0,0,.664.077l6.142-3.383a30.551,30.551,0,0,0,9.32,3.328l2.613,6.5a.576.576,0,0,0,.563.36l8.4-.421a.576.576,0,0,0,.525-.415l1.95-6.731a30.545,30.545,0,0,0,8.94-4.243l6.449,2.752a.576.576,0,0,0,.653-.143Z" transform="translate(-1966.893 -418.321)" fill="#91b3fa"/>
            </g>
            <g id="Grupo_55422" data-name="Grupo 55422" transform="translate(28.839 28.84)">
              <path id="Trazado_101141" data-name="Trazado 101141" d="M2100.305,560a8.279,8.279,0,1,1,2.429-.366A8.3,8.3,0,0,1,2100.305,560Zm.007-14.942a6.684,6.684,0,1,0,6.393,4.726A6.65,6.65,0,0,0,2100.312,545.062Z" transform="translate(-2092.061 -543.491)" fill="#bdd0fb"/>
            </g>
            <path id="Trazado_101142" data-name="Trazado 101142" d="M2056.832,529.513a21.081,21.081,0,0,1-21.029-20.026q-.027-.535-.027-1.066a21.081,21.081,0,1,1,41.925,3.187c-.013.083-.026.167-.039.25l-1.552-.254a19.542,19.542,0,0,0,.256-3.162q0-.494-.025-.986h0q-.016-.331-.044-.661a19.352,19.352,0,0,0-5.319-11.825c-.077-.08-.154-.16-.233-.239q-.389-.393-.8-.767a19.51,19.51,0,0,0-32.6,14.458q0,.491.025.987a19.513,19.513,0,0,0,30.327,15.246l.875,1.305a21.054,21.054,0,0,1-10.662,3.526C2057.551,529.5,2057.19,529.513,2056.832,529.513Z" transform="translate(-2019.905 -471.447)" fill="#bdd0fb"/>
          </g>
        </g>
        <g id="Grupo_55425" data-name="Grupo 55425" transform="translate(4.895 4.873)">
          <path id="Trazado_101143" data-name="Trazado 101143" d="M1879.442,328.343l-2.162-3.28a17.119,17.119,0,0,0,1.445-5.353l3.515-1.748a.323.323,0,0,0,.176-.331l-.608-4.673a.322.322,0,0,0-.255-.274l-3.846-.79a17.115,17.115,0,0,0-2.767-4.805l1.25-3.724a.323.323,0,0,0-.109-.359l-3.734-2.875a.323.323,0,0,0-.375-.014l-3.28,2.162a17.113,17.113,0,0,0-5.353-1.445l-1.748-3.516a.322.322,0,0,0-.33-.176l-4.673.608a.323.323,0,0,0-.275.255l-.79,3.846a17.112,17.112,0,0,0-4.8,2.767l-3.725-1.251a.323.323,0,0,0-.358.109l-2.874,3.734a.323.323,0,0,0-.014.375l2.162,3.28a17.109,17.109,0,0,0-1.445,5.353l-3.516,1.748a.323.323,0,0,0-.176.331l.608,4.673a.323.323,0,0,0,.255.275l3.846.79a17.114,17.114,0,0,0,2.767,4.805L1847,332.565a.323.323,0,0,0,.109.359l3.734,2.874a.323.323,0,0,0,.375.014l3.28-2.162a17.115,17.115,0,0,0,5.353,1.445l1.748,3.516a.323.323,0,0,0,.331.176l4.673-.608a.322.322,0,0,0,.274-.255l.79-3.846a17.117,17.117,0,0,0,4.805-2.767l3.724,1.251a.323.323,0,0,0,.359-.109l2.874-3.734A.324.324,0,0,0,1879.442,328.343Z" transform="translate(-1840.769 -297.139)" fill="#bdd0fb"/>
        </g>
        <path id="Trazado_101144" data-name="Trazado 101144" d="M1914.55,375.892a4.971,4.971,0,1,1,4.623-6.8h0a4.977,4.977,0,0,1-4.623,6.8Zm0-8.372a3.4,3.4,0,1,0,3.165,2.149A3.387,3.387,0,0,0,1914.548,367.521Z" transform="translate(-1888.832 -345.222)" fill="url(#linear-gradient)"/>
        <g id="Grupo_55426" data-name="Grupo 55426" transform="translate(0 21.12)">
          <path id="Trazado_101145" data-name="Trazado 101145" d="M1995.6,469.265a.524.524,0,0,1-.317-.941c.543-.412,1.076-.851,1.583-1.3a.524.524,0,0,1,.7.781c-.528.473-1.083.93-1.65,1.359A.52.52,0,0,1,1995.6,469.265Z" transform="translate(-1954.63 -444.023)" fill="#91b3fa"/>
          <path id="Trazado_101146" data-name="Trazado 101146" d="M1845.945,426.321h-.008a25.827,25.827,0,0,1-3.994-.369.524.524,0,1,1,.177-1.032,24.835,24.835,0,0,0,3.832.353.524.524,0,0,1-.008,1.047Zm6.333-.722a.524.524,0,0,1-.125-1.032,25.077,25.077,0,0,0,3.231-1.032c.143-.056.285-.114.425-.172a.524.524,0,1,1,.4.967q-.22.092-.443.18a26.168,26.168,0,0,1-3.366,1.074A.5.5,0,0,1,1852.279,425.6Zm-16.343-1.5a.524.524,0,0,1-.214-.046,26,26,0,0,1-3.52-1.92.524.524,0,1,1,.571-.878,25.089,25.089,0,0,0,3.378,1.843.524.524,0,0,1-.215,1Zm-8.308-6a.522.522,0,0,1-.387-.171,25.753,25.753,0,0,1-2.465-3.164.524.524,0,1,1,.874-.577,24.673,24.673,0,0,0,2.364,3.034.524.524,0,0,1-.386.877Zm-5.229-8.819a.524.524,0,0,1-.5-.353,25.926,25.926,0,0,1-1.011-3.881.524.524,0,1,1,1.031-.184,24.942,24.942,0,0,0,.97,3.724.524.524,0,0,1-.5.695Z" transform="translate(-1820.571 -395.955)" fill="#91b3fa"/>
          <path id="Trazado_101147" data-name="Trazado 101147" d="M1820.048,370.785h-.042a.524.524,0,0,1-.481-.564c.056-.709.143-1.423.257-2.122a.524.524,0,1,1,1.034.169c-.11.67-.193,1.355-.246,2.036A.524.524,0,0,1,1820.048,370.785Z" transform="translate(-1819.524 -367.657)" fill="#91b3fa"/>
        </g>
        <g id="Grupo_55427" data-name="Grupo 55427" transform="translate(9.968 0)">
          <path id="Trazado_101148" data-name="Trazado 101148" d="M1863.312,294.78a.524.524,0,0,1-.316-.942c.565-.425,1.157-.834,1.76-1.214a.524.524,0,0,1,.559.886c-.579.365-1.147.757-1.688,1.165A.522.522,0,0,1,1863.312,294.78Z" transform="translate(-1862.787 -288.729)" fill="#91b3fa"/>
          <path id="Trazado_101149" data-name="Trazado 101149" d="M1928.328,299.055a.524.524,0,0,1-.519-.458,24.7,24.7,0,0,0-.762-3.707.524.524,0,0,1,1.007-.288,25.8,25.8,0,0,1,.794,3.863.524.524,0,0,1-.454.586A.586.586,0,0,1,1928.328,299.055ZM1925.1,289.5a.524.524,0,0,1-.453-.261,24.575,24.575,0,0,0-2.145-3.116.524.524,0,0,1,.815-.659,25.634,25.634,0,0,1,2.236,3.249.524.524,0,0,1-.452.787Zm-6.708-7.526a.521.521,0,0,1-.313-.1,24.9,24.9,0,0,0-3.2-2.025.524.524,0,1,1,.491-.925,25.916,25.916,0,0,1,3.331,2.11.524.524,0,0,1-.314.944Zm-22.95-3.788a.524.524,0,0,1-.163-1.022,25.79,25.79,0,0,1,3.832-.935.524.524,0,1,1,.17,1.033,24.777,24.777,0,0,0-3.676.9A.52.52,0,0,1,1895.437,278.188Zm13.831-.517a.5.5,0,0,1-.126-.015,24.805,24.805,0,0,0-3.733-.62.524.524,0,0,1,.092-1.043,25.859,25.859,0,0,1,3.891.647.524.524,0,0,1-.125,1.032Z" transform="translate(-1887.511 -275.991)" fill="#91b3fa"/>
          <path id="Trazado_101150" data-name="Trazado 101150" d="M2036.69,401.975a.534.534,0,0,1-.109-.011.524.524,0,0,1-.4-.621c.141-.667.256-1.347.34-2.022a.524.524,0,0,1,1.039.131c-.089.7-.208,1.412-.355,2.107A.524.524,0,0,1,2036.69,401.975Z" transform="translate(-1996.219 -370.553)" fill="#91b3fa"/>
        </g>
        <path id="Trazado_101151" data-name="Trazado 101151" d="M1890.171,358.835a12.157,12.157,0,1,1,12.063-13.727h0a12.232,12.232,0,0,1,.061,2.587l-1.566-.13q.036-.435.036-.874a10.746,10.746,0,0,0-.089-1.38l0-.035A10.6,10.6,0,0,0,1889.8,336.1a.033.033,0,0,0-.011,0q-.484.018-.973.082a10.586,10.586,0,1,0,7.928,18.806l.975,1.232a12.188,12.188,0,0,1-7.546,2.618Z" transform="translate(-1864.544 -321.034)" fill="url(#linear-gradient)"/>
      </g>
      <g id="Grupo_55430" data-name="Grupo 55430" transform="translate(224.225 241.015)">
        <path id="Trazado_101152" data-name="Trazado 101152" d="M613.583,682.747,649,696.714a3.944,3.944,0,0,1,2.291,4.927l-17.635,52.377a2.908,2.908,0,0,1-3.774,1.8L589,740.545a2.76,2.76,0,0,1-1.6-3.6l20.379-51.676A4.477,4.477,0,0,1,613.583,682.747Z" transform="translate(-587.204 -681.696)" fill="#392a8d"/>
        <path id="Trazado_101153" data-name="Trazado 101153" d="M600.886,898.737h0l-4.519-1.85A3.021,3.021,0,0,1,594.7,893l2.7-6.858a.116.116,0,0,1,.149-.065.115.115,0,0,1,.065.149l-2.7,6.858a2.791,2.791,0,0,0,1.533,3.593l4.519,1.85a.115.115,0,0,1-.084.214Z" transform="translate(-592.815 -838.411)" fill="#fff"/>
        <path id="Trazado_101154" data-name="Trazado 101154" d="M610.813,873.35h0a.115.115,0,0,1-.065-.149l.438-1.11a.111.111,0,0,1,.149-.065.115.115,0,0,1,.065.149l-.438,1.11A.115.115,0,0,1,610.813,873.35Z" transform="translate(-605.316 -827.597)" fill="#fff"/>
        <g id="Grupo_55429" data-name="Grupo 55429" transform="translate(4.541 2.06)">
          <path id="Trazado_101156" data-name="Trazado 101156" d="M629.014,688.333c4.405,2.467,19.64,10.73,33.273,14.933a1.157,1.157,0,0,1,.759,1.472L646.11,755.411a1.331,1.331,0,0,1-1.678.844c-5.7-1.865-29.117-9.631-36.954-13.711a1.054,1.054,0,0,1-.5-1.317l20.253-52.253A1.251,1.251,0,0,1,629.014,688.333Z" transform="translate(-606.911 -688.173)" fill="#bdd0fb"/>
          <path id="Trazado_101157" data-name="Trazado 101157" d="M737.74,729.3c.472.186.91.173.975-.028s-.267-.521-.737-.711l-28.949-11.681c-.47-.19-.768-.062-.663.283a1.914,1.914,0,0,0,1.049.967Z" transform="translate(-684.974 -710.201)" fill="url(#linear-gradient)"/>
          <path id="Trazado_101158" data-name="Trazado 101158" d="M705.633,725.493c-.47-.19-.768-.062-.662.283a1.914,1.914,0,0,0,1.049.967l28.324,11.17c.472.186.91.173.975-.028s-.267-.522-.737-.711Z" transform="translate(-682.361 -716.827)" fill="url(#linear-gradient)"/>
          <path id="Trazado_101159" data-name="Trazado 101159" d="M681.164,788.806l-.011,0-4.021-1.481a1.162,1.162,0,0,1-.783-1.33l.855-3.512a.792.792,0,0,1,.376-.5.951.951,0,0,1,.734-.085h0c.349.1.832.226,1.363.367,1.157.306,2.469.652,3.22.91l.017.006a1.205,1.205,0,0,1,.838,1.2,17.979,17.979,0,0,1-1.213,3.872A1.07,1.07,0,0,1,681.164,788.806Zm-2.945-6.573a.6.6,0,0,0-.463.05.445.445,0,0,0-.213.278l-.855,3.512a.814.814,0,0,0,.565.919l4.021,1.481.008,0a.72.72,0,0,0,.931-.353,17.869,17.869,0,0,0,1.19-3.774.865.865,0,0,0-.619-.846c-.739-.254-2.1-.614-3.2-.9-.534-.141-1.019-.269-1.369-.368Z" transform="translate(-660.328 -760.274)" fill="#fff"/>
          <path id="Trazado_101160" data-name="Trazado 101160" d="M681.188,785.546c.868.245,2.777.716,3.655,1.018a.829.829,0,0,1,.589.819,14.587,14.587,0,0,1-.96,3.055.713.713,0,0,1-.929.36l-3.213-1.183a.791.791,0,0,1-.539-.9l.683-2.806A.556.556,0,0,1,681.188,785.546Z" transform="translate(-662.985 -763.092)" fill="url(#linear-gradient)"/>
          <path id="Trazado_101161" data-name="Trazado 101161" d="M717.22,802.953a.656.656,0,0,0-.939.588l-.032.37a1.264,1.264,0,0,0,.789,1.228l19.241,6.877a.847.847,0,0,0,1.12-.448.919.919,0,0,0-.608-1.089Z" transform="translate(-691.055 -776.463)" fill="url(#linear-gradient)"/>
          <path id="Trazado_101162" data-name="Trazado 101162" d="M683.97,783.517h0a.658.658,0,0,1,.771.538l.286,1.711a.211.211,0,0,0,.361.112l3.544-3.689a.234.234,0,0,1,.387.246,9.211,9.211,0,0,1-4.682,5.135,5.009,5.009,0,0,1-1.224-3.316A.69.69,0,0,1,683.97,783.517Z" transform="translate(-665.785 -760.47)" fill="#392a8d"/>
          <path id="Trazado_101163" data-name="Trazado 101163" d="M696.836,750.094l-.011,0-4.021-1.481a1.161,1.161,0,0,1-.783-1.33l.855-3.512a.791.791,0,0,1,.376-.5.95.95,0,0,1,.734-.085h0c.349.1.832.226,1.363.366,1.157.306,2.468.652,3.22.91l.017.006a1.2,1.2,0,0,1,.838,1.2,17.963,17.963,0,0,1-1.212,3.872A1.069,1.069,0,0,1,696.836,750.094Zm-2.945-6.573a.6.6,0,0,0-.463.05.444.444,0,0,0-.213.278l-.855,3.512a.813.813,0,0,0,.565.919l4.021,1.481.008,0a.72.72,0,0,0,.931-.353,17.887,17.887,0,0,0,1.19-3.774.866.866,0,0,0-.619-.846c-.739-.254-2.1-.614-3.2-.9-.534-.141-1.019-.269-1.369-.368Z" transform="translate(-672.389 -730.481)" fill="#fff"/>
          <path id="Trazado_101164" data-name="Trazado 101164" d="M696.86,746.833c.868.245,2.777.716,3.655,1.018a.83.83,0,0,1,.589.82,14.561,14.561,0,0,1-.96,3.055.713.713,0,0,1-.929.36L696,750.9a.791.791,0,0,1-.539-.9l.683-2.806A.556.556,0,0,1,696.86,746.833Z" transform="translate(-675.046 -733.299)" fill="url(#linear-gradient)"/>
          <path id="Trazado_101165" data-name="Trazado 101165" d="M732.892,764.241a.657.657,0,0,0-.939.588l-.031.37a1.264,1.264,0,0,0,.789,1.228l19.241,6.877a.847.847,0,0,0,1.12-.448.919.919,0,0,0-.607-1.089Z" transform="translate(-703.116 -746.67)" fill="url(#linear-gradient)"/>
          <path id="Trazado_101166" data-name="Trazado 101166" d="M699.642,744.8h0a.658.658,0,0,1,.771.538l.286,1.711a.211.211,0,0,0,.36.111l3.544-3.689a.234.234,0,0,1,.387.246,9.212,9.212,0,0,1-4.682,5.135,5.01,5.01,0,0,1-1.224-3.317A.69.69,0,0,1,699.642,744.8Z" transform="translate(-677.846 -730.677)" fill="#392a8d"/>
          <path id="Trazado_101167" data-name="Trazado 101167" d="M667.75,826.336l-.011,0-4.02-1.481a1.162,1.162,0,0,1-.784-1.33l.855-3.512a.793.793,0,0,1,.377-.5.95.95,0,0,1,.734-.085h0c.349.1.832.226,1.363.366,1.157.306,2.469.652,3.22.91l.016.006a1.2,1.2,0,0,1,.838,1.2,17.946,17.946,0,0,1-1.212,3.872A1.069,1.069,0,0,1,667.75,826.336Zm-2.945-6.573a.6.6,0,0,0-.463.05.445.445,0,0,0-.213.278l-.855,3.512a.814.814,0,0,0,.565.919L667.86,826l.008,0a.72.72,0,0,0,.931-.353,17.868,17.868,0,0,0,1.19-3.773.87.87,0,0,0-.619-.846c-.739-.254-2.1-.614-3.2-.9-.534-.141-1.019-.269-1.369-.368Z" transform="translate(-650.005 -789.156)" fill="#fff"/>
          <path id="Trazado_101168" data-name="Trazado 101168" d="M667.774,823.076c.868.245,2.777.716,3.655,1.018a.83.83,0,0,1,.589.82,14.552,14.552,0,0,1-.96,3.055.713.713,0,0,1-.929.361l-3.213-1.184a.791.791,0,0,1-.539-.9l.683-2.807A.556.556,0,0,1,667.774,823.076Z" transform="translate(-652.661 -791.974)" fill="url(#linear-gradient)"/>
          <path id="Trazado_101169" data-name="Trazado 101169" d="M703.806,840.483a.656.656,0,0,0-.939.588l-.032.37a1.265,1.265,0,0,0,.789,1.229l19.241,6.877a.847.847,0,0,0,1.12-.448.919.919,0,0,0-.608-1.089Z" transform="translate(-680.731 -805.346)" fill="url(#linear-gradient)"/>
          <path id="Trazado_101170" data-name="Trazado 101170" d="M670.557,821.046h0a.657.657,0,0,1,.771.538l.286,1.711a.211.211,0,0,0,.361.111l3.544-3.689a.234.234,0,0,1,.387.246,9.213,9.213,0,0,1-4.682,5.135A5.011,5.011,0,0,1,670,821.782.69.69,0,0,1,670.557,821.046Z" transform="translate(-655.462 -789.353)" fill="#392a8d"/>
          <path id="Trazado_101171" data-name="Trazado 101171" d="M653.231,861.787l-.011,0L649.2,860.3a1.162,1.162,0,0,1-.784-1.33l.855-3.512a.79.79,0,0,1,.376-.5.951.951,0,0,1,.734-.085h0c.348.1.831.226,1.362.366,1.1.291,2.47.652,3.221.911a1.222,1.222,0,0,1,.854,1.2,17.966,17.966,0,0,1-1.213,3.872A1.07,1.07,0,0,1,653.231,861.787Zm-2.944-6.573a.6.6,0,0,0-.463.051.444.444,0,0,0-.213.278l-.855,3.512a.814.814,0,0,0,.565.919l4.021,1.481a.735.735,0,0,0,.939-.35,17.872,17.872,0,0,0,1.19-3.774.876.876,0,0,0-.619-.846c-.739-.254-2.1-.614-3.2-.9-.533-.141-1.017-.269-1.367-.368Z" transform="translate(-638.831 -816.44)" fill="#fff"/>
          <path id="Trazado_101172" data-name="Trazado 101172" d="M653.255,858.528c.868.245,2.777.716,3.655,1.018a.83.83,0,0,1,.589.82,14.568,14.568,0,0,1-.96,3.055.713.713,0,0,1-.929.36L652.4,862.6a.791.791,0,0,1-.539-.9l.683-2.806A.556.556,0,0,1,653.255,858.528Z" transform="translate(-641.488 -819.258)" fill="url(#linear-gradient)"/>
          <path id="Trazado_101173" data-name="Trazado 101173" d="M689.287,875.935a.656.656,0,0,0-.939.587l-.032.37a1.265,1.265,0,0,0,.789,1.228L708.346,885a.847.847,0,0,0,1.12-.448.919.919,0,0,0-.608-1.089Z" transform="translate(-669.558 -832.63)" fill="url(#linear-gradient)"/>
          <path id="Trazado_101174" data-name="Trazado 101174" d="M656.037,856.5h0a.658.658,0,0,1,.771.538l.286,1.711a.211.211,0,0,0,.361.111L661,855.169a.234.234,0,0,1,.387.246,9.213,9.213,0,0,1-4.682,5.135,5.01,5.01,0,0,1-1.224-3.317A.69.69,0,0,1,656.037,856.5Z" transform="translate(-644.288 -816.636)" fill="#392a8d"/>
          <path id="Trazado_101175" data-name="Trazado 101175" d="M637.959,898.24l-.011,0-4.021-1.481a1.162,1.162,0,0,1-.783-1.33l.855-3.512a.792.792,0,0,1,.376-.5.952.952,0,0,1,.734-.085h0c.349.1.832.226,1.363.367,1.157.306,2.469.652,3.22.91a1.219,1.219,0,0,1,.854,1.2,17.961,17.961,0,0,1-1.213,3.872A1.069,1.069,0,0,1,637.959,898.24Zm-2.945-6.573a.6.6,0,0,0-.463.05.445.445,0,0,0-.213.278l-.855,3.512a.814.814,0,0,0,.565.919l4.021,1.481.008,0a.72.72,0,0,0,.931-.353,17.87,17.87,0,0,0,1.19-3.774.88.88,0,0,0-.619-.846c-.739-.254-2.1-.614-3.2-.9-.534-.141-1.019-.269-1.369-.368Z" transform="translate(-627.078 -844.494)" fill="#fff"/>
          <path id="Trazado_101176" data-name="Trazado 101176" d="M637.983,894.98c.868.245,2.777.717,3.655,1.018a.829.829,0,0,1,.589.819,14.565,14.565,0,0,1-.96,3.055.713.713,0,0,1-.929.36l-3.213-1.183a.791.791,0,0,1-.539-.9l.683-2.806A.556.556,0,0,1,637.983,894.98Z" transform="translate(-629.734 -847.311)" fill="url(#linear-gradient)"/>
          <path id="Trazado_101177" data-name="Trazado 101177" d="M674.015,912.387a.656.656,0,0,0-.939.588l-.032.37a1.264,1.264,0,0,0,.789,1.228l19.241,6.877A.847.847,0,0,0,694.2,921a.919.919,0,0,0-.608-1.089Z" transform="translate(-657.804 -860.683)" fill="url(#linear-gradient)"/>
          <path id="Trazado_101178" data-name="Trazado 101178" d="M640.765,892.951h0a.658.658,0,0,1,.771.538l.286,1.711a.211.211,0,0,0,.361.112l3.544-3.689a.234.234,0,0,1,.387.246A9.213,9.213,0,0,1,641.432,897a5.008,5.008,0,0,1-1.224-3.316A.69.69,0,0,1,640.765,892.951Z" transform="translate(-632.534 -844.69)" fill="#392a8d"/>
        </g>
        <path id="Trazado_101179" data-name="Trazado 101179" d="M780.714,681.132a3.868,3.868,0,0,0-2.922-1.893,1.679,1.679,0,0,0-1.757,1.2l-1.116,3.819L778.8,686.2S782.534,683.867,780.714,681.132Zm-2.94,2.277a1.077,1.077,0,1,1,1.4-.607A1.077,1.077,0,0,1,777.774,683.409Z" transform="translate(-731.669 -679.232)" fill="url(#linear-gradient-23)"/>
        <path id="Trazado_101180" data-name="Trazado 101180" d="M778.625,684.92a.214.214,0,0,1-.063-.22l.178-.608a.214.214,0,1,1,.411.12l-.178.608a.214.214,0,0,1-.347.1Zm.348-1.192a.214.214,0,0,1-.063-.22l.135-.462a1.713,1.713,0,0,1,1.789-1.226,3.34,3.34,0,0,1,1.542.536.214.214,0,1,1-.234.359,2.914,2.914,0,0,0-1.347-.469,1.284,1.284,0,0,0-1.341.92l-.135.462a.214.214,0,0,1-.265.145A.211.211,0,0,1,778.973,683.729Z" transform="translate(-734.465 -681.219)" fill="#fff"/>
        <path id="Trazado_101181" data-name="Trazado 101181" d="M747.039,693.254l.731-1.853a1.215,1.215,0,0,1,1.615-.669l12.6,5.476a1.182,1.182,0,0,1,.653,1.451l-.6,1.823Z" transform="translate(-710.212 -688.005)" fill="url(#linear-gradient-24)"/>
        <path id="Trazado_101182" data-name="Trazado 101182" d="M769.534,698.832h0l-.549-.217a.115.115,0,0,1,.082-.214h0l.549.217a.115.115,0,0,1-.082.214Z" transform="translate(-727.044 -693.978)" fill="#fff"/>
        <path id="Trazado_101183" data-name="Trazado 101183" d="M750.346,695.024a.214.214,0,0,1-.057-.238l.3-.75a1.239,1.239,0,0,1,1.607-.7l2.02.8a.214.214,0,1,1-.157.4l-2.02-.8a.812.812,0,0,0-1.052.457l-.3.75a.214.214,0,0,1-.277.121A.209.209,0,0,1,750.346,695.024Z" transform="translate(-712.702 -690.021)" fill="#fff"/>
        <path id="Trazado_101184" data-name="Trazado 101184" d="M723.489,691.917l22.342,8.81a1.775,1.775,0,0,1,1.087,2.011l-.024.117a1.524,1.524,0,0,1-2.052,1.109l-22.922-9.039a.992.992,0,0,1-.54-1.33l.454-1.006A1.294,1.294,0,0,1,723.489,691.917Z" transform="translate(-690.398 -688.925)" fill="url(#linear-gradient-25)"/>
      </g>
      <g id="Grupo_55438" data-name="Grupo 55438" transform="translate(166.093 317.444)">
        <g id="Grupo_55431" data-name="Grupo 55431" transform="translate(4.426 80.747)">
          <rect id="Rect치ngulo_5283" data-name="Rect치ngulo 5283" width="2.893" height="31.281" transform="translate(17.874 38.29) rotate(180)" fill="url(#linear-gradient-26)"/>
          <path id="Trazado_101185" data-name="Trazado 101185" d="M370.426,1523.923h25.335a1.883,1.883,0,0,0-1.883-1.883H372.309a1.883,1.883,0,0,0-1.883,1.883Z" transform="translate(-366.666 -1485.029)" fill="url(#linear-gradient-27)"/>
          <rect id="Rect치ngulo_5284" data-name="Rect치ngulo 5284" width="31.854" height="9.034" rx="4.517" fill="url(#linear-gradient-28)"/>
        </g>
        <g id="Grupo_55432" data-name="Grupo 55432" transform="translate(1.169 61.024)">
          <path id="Trazado_101186" data-name="Trazado 101186" d="M483.5,1301.3a25.179,25.179,0,0,1,9.131,3.9,2.409,2.409,0,0,1,1.063,2.3,102.129,102.129,0,0,1-10.8,33.91,3.647,3.647,0,0,0-.35,2.5l1.363,6.344,2.528,2.37h-6.511l-4.335-11.732,1.854-.586a3.507,3.507,0,0,0,2.449-3.283l.217-12.585a14.32,14.32,0,0,1,3.438-9.475l-10.4-.506Z" transform="translate(-442.462 -1295.426)" fill="url(#linear-gradient-29)"/>
          <path id="Trazado_101187" data-name="Trazado 101187" d="M492.44,1483.966c.593.776-6.382,1.8-9.906.1,0,0-4.885-8.5-4.885-12.875,0,0,.388-.892,3.256-.69,0,0,1.64,10.063,3.372,11.19s4.846.114,4.846.114A10.2,10.2,0,0,1,492.44,1483.966Z" transform="translate(-445.927 -1425.621)" fill="url(#linear-gradient-30)"/>
          <path id="Trazado_101188" data-name="Trazado 101188" d="M478.857,1320.546c.055-.1,11.2-1.339,11.2-1.339a25.746,25.746,0,0,0,.775,8.05c1.14,4.662,17.5,24.864,17.5,24.864l-1.715,5.436a27.585,27.585,0,0,0,15.651.941l-10.628-6.378s-9.947-33.9-16.039-39.944l-11.166-3.863Z" transform="translate(-446.857 -1300.823)" fill="url(#linear-gradient-31)"/>
          <path id="Trazado_101189" data-name="Trazado 101189" d="M346.986,1275.8s-6.418,9.546-6.945,13.9,1.758,6.124,8.492,6.416,24.712.287,24.712.287l15.344-13.114s-11.182-3.99-14.089-5.118S346.986,1275.8,346.986,1275.8Z" transform="translate(-339.968 -1275.803)" fill="#392a8d"/>
          <path id="Trazado_101190" data-name="Trazado 101190" d="M598.666,1514.094s-1.846,1.788-.6,3.778c0,0,14.626,2.592,18.6,1.416,0,0-.825-1.882-5.3-4.024l.33.253a.534.534,0,0,1-.353.958C608.4,1516.307,602.3,1515.768,598.666,1514.094Z" transform="translate(-538.267 -1459.191)" fill="url(#linear-gradient-32)"/>
        </g>
        <g id="Grupo_55434" data-name="Grupo 55434">
          <path id="Trazado_101191" data-name="Trazado 101191" d="M356.45,1035.889c-.687.748-4.466,1.557-4.014,3.805a.412.412,0,0,1-.515.472c-1.506-.406-4.834-.917-6.9,1.668-1.821,2.282-.46,4.435.649,5.617a.414.414,0,0,1-.346.7c-2.769-.349-8.787-.434-9.771,5.2-.918,5.256,2.741,6.739,4.911,7.157a.412.412,0,0,1,.137.753c-1.083.687-2.337,2.106-1.83,4.907.794,4.389,9.4,4.03,10.406,3.973a.407.407,0,0,0,.179-.054l13.785-7.862a.414.414,0,0,0,.2-.289l2.783-16.072a.414.414,0,0,0-.11-.358l-2.719-9.554C363.194,1035.844,360.867,1031.086,356.45,1035.889Z" transform="translate(-335.293 -1028.493)" fill="url(#linear-gradient-33)"/>
          <path id="Trazado_101192" data-name="Trazado 101192" d="M366.07,1154.734a146.561,146.561,0,0,0,11.153-11.831,10,10,0,0,0,1.693-9c-1.68-5.659-4.664-11.52-4.937-12.432-.417-1.4-8.8-1.34-8.8-1.34s-16.491,10.7-22.97,28.832l7.277,2.265a85.039,85.039,0,0,1,8.56-11.816s-7.362,9.725-7.621,13.706Z" transform="translate(-340.526 -1094.973)" fill="#5e448f"/>
          <path id="Trazado_101193" data-name="Trazado 101193" d="M453.024,1088.259c-.088.291-2.275,7.542-2.446,7.692s-4.8.4-6.974-1.089l3.694-7.733Z" transform="translate(-418.557 -1069.577)" fill="url(#linear-gradient-34)"/>
          <g id="Grupo_55433" data-name="Grupo 55433" transform="translate(24.581)">
            <path id="Trazado_101194" data-name="Trazado 101194" d="M469.685,1036.088s1.71,3.931-.281,9.915-5.259,6.509-7.333,5.034a11.789,11.789,0,0,1-5.106-9.529C456.623,1036.091,467.331,1031.117,469.685,1036.088Z" transform="translate(-453.416 -1028.72)" fill="url(#linear-gradient-35)"/>
            <path id="Trazado_101195" data-name="Trazado 101195" d="M449.175,1023.375s3.6-8.1,9.027-3.067l.422,2.083s5.159-1.479,3.454-6.153-6.741-6.95-12.255-3.909-8.522,5.728-8.218,9.985,3.492,2.795,3.492,2.795.609-3.131,2.107-3.69,1.47,1.81,1.47,1.81Z" transform="translate(-441.585 -1010.946)" fill="url(#linear-gradient-36)"/>
            <path id="Trazado_101196" data-name="Trazado 101196" d="M458.023,1060.075s1.875-4.153-.762-4.3-1.557,4-1.029,5.516Z" transform="translate(-452.341 -1045.445)" fill="url(#linear-gradient-37)"/>
          </g>
          <path id="Trazado_101197" data-name="Trazado 101197" d="M375.666,1251.569l-5.491-5.293-7.6,3.209s-7.562,1.172-11.889,0l-4.328-1.172-9.78-3.045-1.536,4.341a2.614,2.614,0,0,0,.955,3,17.252,17.252,0,0,0,2.47,1.538c1.288.563,31.748-.39,31.748-.39Z" transform="translate(-334.896 -1191.28)" fill="url(#linear-gradient-38)"/>
        </g>
        <g id="Grupo_55435" data-name="Grupo 55435" transform="translate(18.635 33.862)">
          <path id="Trazado_101198" data-name="Trazado 101198" d="M417.129,1273.806l.073,0,31.854-.035a1.426,1.426,0,0,0,0-2.852l-31.854.035a1.426,1.426,0,0,0-.07,2.85Z" transform="translate(-415.775 -1244.884)" fill="url(#linear-gradient-39)"/>
          <path id="Trazado_101199" data-name="Trazado 101199" d="M539.658,1157.916H513.13a5.056,5.056,0,0,0-4.573,2.9l-12.264,26.005H529.26a3.073,3.073,0,0,0,2.858-1.943l9.51-24.064A2.119,2.119,0,0,0,539.658,1157.916Z" transform="translate(-477.741 -1157.916)" fill="url(#linear-gradient-40)"/>
        </g>
        <g id="Grupo_55437" data-name="Grupo 55437" transform="translate(13.869 61.047)">
          <g id="Grupo_55436" data-name="Grupo 55436" transform="translate(5.728 1.406)">
            <path id="Trazado_101200" data-name="Trazado 101200" d="M758.974,1288.23c.122.507,11.822,44.385,14.788,55.509a2.011,2.011,0,0,1-1.925,2.541h0a2,2,0,0,1-1.934-1.529L756.916,1292.1Z" transform="translate(-679.278 -1286.795)" fill="#7d97f4"/>
            <path id="Trazado_101201" data-name="Trazado 101201" d="M688.414,1287.674c-.123.509-11.822,44.483-14.788,55.632a2.014,2.014,0,0,0,1.925,2.547h0a2,2,0,0,0,1.934-1.532l12.987-52.771Z" transform="translate(-615.125 -1286.367)" fill="#7d97f4"/>
            <path id="Trazado_101202" data-name="Trazado 101202" d="M735.927,1282h7.286v5.852a1.514,1.514,0,0,1-1.5,1.523h-1v13.143a1.146,1.146,0,0,1-1.139,1.153h0a1.146,1.146,0,0,1-1.139-1.153v-13.143h-.507a2.009,2.009,0,0,1-2-2.021Z" transform="translate(-663.125 -1282.003)" fill="#7d97f4"/>
            <path id="Trazado_101203" data-name="Trazado 101203" d="M505.369,1288.23c.123.507,11.822,44.385,14.788,55.509a2.011,2.011,0,0,1-1.925,2.541h0a2,2,0,0,1-1.934-1.529L503.311,1292.1Z" transform="translate(-484.104 -1286.795)" fill="#7d97f4"/>
            <path id="Trazado_101204" data-name="Trazado 101204" d="M434.809,1288.23c-.123.507-11.822,44.385-14.788,55.509a2.011,2.011,0,0,0,1.925,2.541h0a2,2,0,0,0,1.934-1.529l12.987-52.655Z" transform="translate(-419.951 -1286.795)" fill="#7d97f4"/>
            <path id="Trazado_101205" data-name="Trazado 101205" d="M482.321,1282h7.286v5.852a1.514,1.514,0,0,1-1.5,1.523h-1v13.143a1.146,1.146,0,0,1-1.139,1.153h0a1.146,1.146,0,0,1-1.139-1.153v-13.143h-.507a2.009,2.009,0,0,1-2-2.021Z" transform="translate(-467.951 -1282.003)" fill="#7d97f4"/>
          </g>
          <path id="Trazado_101206" data-name="Trazado 101206" d="M499.359,1275.9H396.907a1.25,1.25,0,0,0-1.207.947l-.568,2.228a1.259,1.259,0,0,0,1.214,1.577l103.514-.243a1.259,1.259,0,0,0,1.2-1.57l-.494-1.985A1.25,1.25,0,0,0,499.359,1275.9Z" transform="translate(-395.092 -1275.902)" fill="#7d97f4"/>
        </g>
      </g>
      <g id="Grupo_55440" data-name="Grupo 55440" transform="translate(181.147 218.726)">
        <path id="Trazado_101207" data-name="Trazado 101207" d="M462.573,772.484c-.024-.3-.33-.558-.847-.766.562-.31.874-.643.847-.969-.08-.987-3.2-1.54-6.979-1.235s-6.77,1.351-6.691,2.338c.024.3.33.558.847.766-.562.31-.874.643-.847.969.024.3.33.558.847.766-.562.31-.874.643-.847.969.024.3.33.558.847.766-.562.31-.874.643-.847.969.035.436.667.788,1.686,1.018a8.751,8.751,0,0,0,.026,1.066c.148,1.818,2.193,3.244,4.9,3.244s5.046-1.944,5.073-3.768a9.21,9.21,0,0,0-.053-1.19c1.294-.432,2.082-.96,2.041-1.472-.024-.3-.33-.558-.847-.766.562-.31.874-.643.847-.969-.024-.3-.33-.558-.847-.766C462.288,773.143,462.6,772.81,462.573,772.484Z" transform="translate(-437.688 -726.359)" fill="url(#linear-gradient-41)"/>
        <g id="Grupo_55439" data-name="Grupo 55439" transform="translate(12.221 45.45)">
          <path id="Trazado_101208" data-name="Trazado 101208" d="M460.119,805.339a16.324,16.324,0,0,1-2.994-.245.091.091,0,0,1,.034-.178,19.519,19.519,0,0,0,4.988.157,21.435,21.435,0,0,0,4.183-.721.091.091,0,0,1,.051.174,21.618,21.618,0,0,1-4.219.728C461.459,805.311,460.773,805.339,460.119,805.339Z" transform="translate(-456.182 -798.682)" fill="url(#linear-gradient-42)"/>
          <path id="Trazado_101209" data-name="Trazado 101209" d="M457.948,796.22a14.243,14.243,0,0,1-3.677-.4.091.091,0,1,1,.05-.174,20.972,20.972,0,0,0,11.115-.883.091.091,0,0,1,.076.165,17.9,17.9,0,0,1-5.541,1.208C459.28,796.193,458.6,796.22,457.948,796.22Z" transform="translate(-453.992 -791.299)" fill="url(#linear-gradient-43)"/>
          <path id="Trazado_101210" data-name="Trazado 101210" d="M457.215,788.692a13.241,13.241,0,0,1-3.875-.466.091.091,0,0,1,.057-.172,16.569,16.569,0,0,0,5.846.373,17.707,17.707,0,0,0,5.479-1.192.091.091,0,0,1,.076.165,17.885,17.885,0,0,1-5.541,1.208C458.555,788.665,457.868,788.692,457.215,788.692Z" transform="translate(-453.278 -785.505)" fill="url(#linear-gradient-44)"/>
          <path id="Trazado_101211" data-name="Trazado 101211" d="M459.279,781.206a15.628,15.628,0,0,1-3.264-.3.091.091,0,1,1,.039-.177,18.912,18.912,0,0,0,5.24.21,17.856,17.856,0,0,0,5.452-1.179.091.091,0,0,1,.075.165,18.029,18.029,0,0,1-5.512,1.2C460.615,781.178,459.932,781.206,459.279,781.206Z" transform="translate(-455.329 -779.754)" fill="url(#linear-gradient-45)"/>
        </g>
        <path id="Trazado_101212" data-name="Trazado 101212" d="M408.915,619.86a12.761,12.761,0,0,0-2.286-4.463,29.543,29.543,0,0,1-6.365-16.453c-.656-11.435,9.485-17.159,18.739-16.382s18.385,7.667,17.386,18.3c-.615,6.545-4.279,11.51-7.006,14.361a15.148,15.148,0,0,0-3.636,6.443c-.819,2.956-2.767,6.639-7.4,6.863C412.358,628.825,409.87,623.24,408.915,619.86Z" transform="translate(-400.235 -582.492)" fill="aqua"/>
        <path id="Trazado_101213" data-name="Trazado 101213" d="M485.475,699.864l3.238-21.06c.067-.435.281-.727.478-.653s.3.488.236.923c0,.012,0,.026-.006.037l-3.688,20.864c-.028.157-.107.256-.178.221S485.452,700.016,485.475,699.864Z" transform="translate(-465.83 -656.102)" fill="#d8ffff"/>
        <path id="Trazado_101214" data-name="Trazado 101214" d="M457.643,700.59l-3.238-21.06c-.067-.435-.281-.727-.478-.653s-.3.488-.236.923c0,.012,0,.026.006.037l3.688,20.864c.028.157.107.256.178.221S457.666,700.742,457.643,700.59Z" transform="translate(-441.359 -656.661)" fill="#d8ffff"/>
        <path id="Trazado_101215" data-name="Trazado 101215" d="M467.717,664.666a.339.339,0,0,0-.425-.11l-1.8.842-.626-1.783a.383.383,0,0,0-.219-.221.446.446,0,0,0-.554.171l0,.006-1.483,2.7-1.376-3.848,0-.006a.44.44,0,0,0-.208-.235.54.54,0,0,0-.681.134l-2.073,2.854a.25.25,0,0,0,.073.36.347.347,0,0,0,.441-.048l1.825-2.036,1.643,3.661v0a.289.289,0,0,0,.145.142.343.343,0,0,0,.43-.111l1.586-2.545.6,1.287.005.012a.273.273,0,0,0,.015.027.339.339,0,0,0,.425.11l2.14-1A.254.254,0,0,0,467.717,664.666Z" transform="translate(-444.857 -643.772)" fill="#d8ffff"/>
        <path id="Trazado_101216" data-name="Trazado 101216" d="M524.426,701.413a.786.786,0,0,1-.63-1.254,23.5,23.5,0,0,0,1.479-2.245.786.786,0,1,1,1.361.786,25.145,25.145,0,0,1-1.577,2.4A.784.784,0,0,1,524.426,701.413Z" transform="translate(-495.208 -671.017)" fill="#d8ffff"/>
        <path id="Trazado_101217" data-name="Trazado 101217" d="M535.986,639.574a.786.786,0,0,1-.72-1.1,18.873,18.873,0,0,0,.443-14.255.786.786,0,0,1,1.429-.654,20.1,20.1,0,0,1-.431,15.535A.785.785,0,0,1,535.986,639.574Z" transform="translate(-504.104 -613.75)" fill="#d8ffff"/>
      </g>
      <g id="Grupo_55444" data-name="Grupo 55444" transform="translate(481.144 184.603)">
        <path id="Trazado_101218" data-name="Trazado 101218" d="M1932.93,1486.538h-56.408a5.65,5.65,0,0,0-5.477,5.762h67.362A5.65,5.65,0,0,0,1932.93,1486.538Z" transform="translate(-1832.162 -1244.12)" fill="url(#linear-gradient-46)"/>
        <circle id="Elipse_1386" data-name="Elipse 1386" cx="9.028" cy="9.028" r="9.028" transform="translate(60.84 17.918) rotate(-82.914)" fill="url(#linear-gradient-47)"/>
        <path id="Trazado_101219" data-name="Trazado 101219" d="M2089.22,846.914l-9.862-9.385a4.063,4.063,0,0,0-2.74-1.161h-52.989v23.57h52.9a3.934,3.934,0,0,0,2.853-1.139l9.879-10.067a1.259,1.259,0,0,0-.037-1.817Z" transform="translate(-1949.589 -743.751)" fill="aqua"/>
        <g id="Grupo_55441" data-name="Grupo 55441" transform="translate(79.277 96.283)">
          <path id="Trazado_101220" data-name="Trazado 101220" d="M2088.787,854.637a2.357,2.357,0,0,1-2.357,2.357h-37.712a2.357,2.357,0,0,1-2.357-2.357h0a2.357,2.357,0,0,1,2.357-2.357h37.712a2.357,2.357,0,0,1,2.357,2.357Z" transform="translate(-2046.361 -852.28)" fill="#fff" opacity="0.6"/>
          <path id="Trazado_101221" data-name="Trazado 101221" d="M2075.169,891.01a2.357,2.357,0,0,1-2.357,2.357h-24.094a2.357,2.357,0,0,1-2.357-2.357h0a2.357,2.357,0,0,1,2.357-2.357h24.094a2.357,2.357,0,0,1,2.357,2.357Z" transform="translate(-2046.361 -880.273)" fill="#fff" opacity="0.6"/>
        </g>
        <path id="Trazado_101222" data-name="Trazado 101222" d="M2089.22,585.474l-9.862-9.382a4.06,4.06,0,0,0-2.74-1.158h-52.989V598.5h52.9a3.937,3.937,0,0,0,2.853-1.143l9.879-10.069a1.261,1.261,0,0,0-.037-1.818Z" transform="translate(-1949.589 -542.553)" fill="aqua"/>
        <g id="Grupo_55442" data-name="Grupo 55442" transform="translate(79.277 36.048)">
          <path id="Trazado_101223" data-name="Trazado 101223" d="M2088.787,593.2a2.357,2.357,0,0,1-2.357,2.357h-37.712a2.357,2.357,0,0,1-2.357-2.357h0a2.357,2.357,0,0,1,2.357-2.357h37.712a2.357,2.357,0,0,1,2.357,2.357Z" transform="translate(-2046.361 -590.847)" fill="#fff" opacity="0.6"/>
          <path id="Trazado_101224" data-name="Trazado 101224" d="M2075.169,629.578a2.357,2.357,0,0,1-2.357,2.357h-24.094a2.357,2.357,0,0,1-2.357-2.357h0a2.357,2.357,0,0,1,2.357-2.357h24.094a2.357,2.357,0,0,1,2.357,2.357Z" transform="translate(-2046.361 -618.84)" fill="#fff" opacity="0.6"/>
        </g>
        <path id="Trazado_101225" data-name="Trazado 101225" d="M1702.689,703.833l9.862-9.455a4.138,4.138,0,0,1,2.74-1.231h53.7v23.57h-53.605a3.875,3.875,0,0,1-2.853-1.07l-9.878-10.033a1.219,1.219,0,0,1,.037-1.782Z" transform="translate(-1702.283 -633.529)" fill="#a397e3"/>
        <g id="Grupo_55443" data-name="Grupo 55443" transform="translate(19.566 63.808)">
          <path id="Trazado_101226" data-name="Trazado 101226" d="M1829.629,713.691a2.357,2.357,0,0,0-2.357-2.357h-37.712a2.357,2.357,0,0,0-2.357,2.357h0a2.357,2.357,0,0,0,2.357,2.357h37.712a2.357,2.357,0,0,0,2.357-2.357Z" transform="translate(-1787.202 -711.334)" fill="#fff" opacity="0.6"/>
          <path id="Trazado_101227" data-name="Trazado 101227" d="M1872.844,747.791a2.357,2.357,0,0,0-2.357-2.357h-24.094a2.357,2.357,0,0,0-2.357,2.357h0a2.357,2.357,0,0,0,2.357,2.357h24.094a2.357,2.357,0,0,0,2.357-2.357Z" transform="translate(-1830.941 -737.577)" fill="#fff" opacity="0.6"/>
        </g>
        <rect id="Rect치ngulo_5285" data-name="Rect치ngulo 5285" width="8.904" height="232.559" transform="translate(66.706 11.43)" fill="url(#linear-gradient-48)"/>
      </g>
      <g id="Grupo_55447" data-name="Grupo 55447" transform="translate(443.641 271.943)">
        <path id="Trazado_101228" data-name="Trazado 101228" d="M1636.473,876.16s-3.417,1.662-4.045,3.571c-.5,1.532-4.282,1.729-4.656,4.742a3.457,3.457,0,0,1-2.893,3.039c-3.859.591-9.806,2.6-10.757,9.295-.726,5.114,1.881,7.053,4.617,7.724a3.876,3.876,0,0,1,2.938,4.476c-.39,1.946.191,4.2,3.563,5.974,7.554,3.986,15.1-9.444,15.1-9.444l1.546-23.449Z" transform="translate(-1596.838 -861.714)" fill="url(#linear-gradient-49)"/>
        <path id="Trazado_101229" data-name="Trazado 101229" d="M1779.655,852.033s-15.083,23.857-33.019,28.465c0,0,3.495,9.954,6.192,11.093,0,0,22.066-18.411,27.736-36.168Z" transform="translate(-1698.915 -843.146)" fill="url(#linear-gradient-50)"/>
        <path id="Trazado_101230" data-name="Trazado 101230" d="M1548.1,1509.166l-.489,4.019a1.66,1.66,0,0,1-1.456,1.452,25.688,25.688,0,0,1-5.379.084,1.422,1.422,0,0,1-1.194-1.844,14.641,14.641,0,0,1,2.7-5.25h4.458A1.373,1.373,0,0,1,1548.1,1509.166Z" transform="translate(-1539.516 -1347.689)" fill="#392a8d"/>
        <path id="Trazado_101231" data-name="Trazado 101231" d="M1699.583,1309.987l.752,4.426s-2.52,25.523-2.968,35.732a8,8,0,0,0,1.184,4.547l4.381,7.115-11.135-6.571-.222-1.359,1.823-2.506-2.388-28.592a8.774,8.774,0,0,1,1-4.852l2.3-4.327Z" transform="translate(-1656.082 -1195.586)" fill="url(#linear-gradient-51)"/>
        <path id="Trazado_101232" data-name="Trazado 101232" d="M1702.726,1504.081h-3.553a2.139,2.139,0,0,1-1.7-.833c-1.108-1.439-3.4-4.248-4.5-4.321-1.477-.1-1.288,5.153-1.288,5.153h-.828l-1.049-6.526a3.863,3.863,0,0,1,2.027-4.038h0a5.463,5.463,0,0,0,2.169,3.6c1.831,1.1,7.452,5.061,7.452,5.061a5.072,5.072,0,0,1,1.444.038A.94.94,0,0,1,1702.726,1504.081Z" transform="translate(-1655.143 -1336.829)" fill="#392a8d"/>
        <path id="Trazado_101233" data-name="Trazado 101233" d="M1572.979,1312.967s-14.761,28-17.108,34.394a61.408,61.408,0,0,0-3.2,12.231c-.049.789-1.031,1.546-3.736,1.546a2.6,2.6,0,0,1-2.415-1.1,1.577,1.577,0,0,1-.06-1.528c.854-1.728,3.564-7.25,4.567-9.755,1.2-2.99,3.776-16.543,5.189-21.255s3.011-9.823,9.167-14.532C1565.383,1312.967,1569.609,1308.828,1572.979,1312.967Z" transform="translate(-1544.73 -1196.464)" fill="url(#linear-gradient-52)"/>
        <path id="Trazado_101234" data-name="Trazado 101234" d="M1683.092,1007.206c3.808-16.135-5.839-25.261-5.839-25.261,6.087-5.842,17.177-8.5,17.177-8.5s10.582,7.736,9.327,13.792c-.736,3.549-7.438,21.258-7.438,21.258A14.725,14.725,0,0,1,1683.092,1007.206Z" transform="translate(-1645.518 -936.584)" fill="#d8ffff"/>
        <path id="Trazado_101235" data-name="Trazado 101235" d="M1636.067,1127.966c1.549-4.668,8.442-7.988,8.442-7.988a14.726,14.726,0,0,0,13.226,1.288,26.533,26.533,0,0,1,.431,10.25c-.959,4.937-6.978,36.666-6.978,36.666-9.484,1.922-24.068-1.933-24.068-1.933C1633.161,1155.525,1634.517,1132.634,1636.067,1127.966Z" transform="translate(-1606.936 -1049.356)" fill="#392a8d"/>
        <path id="Trazado_101236" data-name="Trazado 101236" d="M1711.275,922.737l-3.1,13.906c-.3,1.225.82,1.024,2.059.791,2.028-.382,4.642-1.17,5.515-2.748a1.489,1.489,0,0,0,.159-.524l1.33-9.643a1.733,1.733,0,0,0-1.014-1.821l-2.567-1.138A1.733,1.733,0,0,0,1711.275,922.737Z" transform="translate(-1669.281 -896.539)" fill="url(#linear-gradient-53)"/>
        <path id="Trazado_101237" data-name="Trazado 101237" d="M1642.256,1010.34s-21.607,15.459-2.763,31.7a4.869,4.869,0,0,0,2.132,1.235,23.482,23.482,0,0,1,3.9,2.643.733.733,0,0,0,1.073-.193h0a1,1,0,0,0,.056-.96l-2.675-5.657a2.064,2.064,0,0,0-2.68-.116h0a1.018,1.018,0,0,1-1.543-.349c-1.457-2.967-4.208-11.693,7.051-21.552a1.22,1.22,0,0,0,.271-1.483C1646.281,1014.092,1644.472,1011.074,1642.256,1010.34Z" transform="translate(-1610.521 -964.979)" fill="url(#linear-gradient-54)"/>
        <g id="Grupo_55445" data-name="Grupo 55445" transform="translate(35.863 8.16)">
          <path id="Trazado_101238" data-name="Trazado 101238" d="M1720.54,870.492s3.3,2.231,4.712,7.913-.885,7.72-3.245,7.595a10.946,10.946,0,0,1-8.743-4.93C1710.3,876.993,1716.221,867.766,1720.54,870.492Z" transform="translate(-1708.48 -865.132)" fill="url(#linear-gradient-55)"/>
          <path id="Trazado_101239" data-name="Trazado 101239" d="M1702.943,862.526s-1.208-8.141,5.552-6.9l1.367,1.423s3.309-3.726-.353-6.542-8.742-2.1-11.553,3.032-3.831,8.73-1.475,11.916,4.128.453,4.128.453-1.081-2.758-.184-3.941,2.053.688,2.053.688Z" transform="translate(-1695.17 -848.88)" fill="url(#linear-gradient-56)"/>
          <path id="Trazado_101240" data-name="Trazado 101240" d="M1714.91,903.387s-.6-4.188-2.736-2.991.771,3.913,1.938,4.837Z" transform="translate(-1707.668 -888.361)" fill="url(#linear-gradient-57)"/>
        </g>
        <g id="Grupo_55446" data-name="Grupo 55446" transform="translate(78.27 0)">
          <path id="Trazado_101241" data-name="Trazado 101241" d="M1881.589,827.261c.045.492-1.785.832-2.367-1.266.16-.911.444-4.9,1.143-5.519a73.748,73.748,0,0,1,10.352-7.013,1.357,1.357,0,0,1-.231,1.878l-3.311,2.234a13.394,13.394,0,0,1,.906,3.461,3.877,3.877,0,0,1-.979,2.707c-.659.753-1.546,1.725-2.346,2.463A3.827,3.827,0,0,1,1881.589,827.261Z" transform="translate(-1879.222 -813.463)" fill="url(#linear-gradient-58)"/>
          <path id="Trazado_101242" data-name="Trazado 101242" d="M1890.124,843.576l-.484-.2c.067-.164,1.655-4.023,2.422-4.824a1.174,1.174,0,0,0,.423-.785.574.574,0,0,0-.179-.355l-2.69,1.438-1.185,1.856-.442-.283,1.259-1.971,3.128-1.672.135.11a1.18,1.18,0,0,1,.5.844,1.618,1.618,0,0,1-.568,1.18A27,27,0,0,0,1890.124,843.576Z" transform="translate(-1885.969 -831.409)" fill="url(#linear-gradient-59)"/>
        </g>
      </g>
      <g id="Grupo_55449" data-name="Grupo 55449" transform="translate(115.556 252.356)">
        <path id="Trazado_101243" data-name="Trazado 101243" d="M115.556,764.92a26.612,26.612,0,0,0,26.612,26.612c14.7,0,27.27-12.435,27.27-27.132s-12.573-26.091-27.27-26.091A26.612,26.612,0,0,0,115.556,764.92Z" transform="translate(-115.556 -736.037)" fill="#392a8d"/>
        <g id="Grupo_55448" data-name="Grupo 55448" transform="translate(16.239 3.36)">
          <path id="Trazado_101244" data-name="Trazado 101244" d="M336.129,813.99a.177.177,0,0,0,.047-.006.184.184,0,0,0,.131-.225,24.065,24.065,0,0,0-1.087-3.17.184.184,0,1,0-.338.144,23.59,23.59,0,0,1,1.07,3.122A.184.184,0,0,0,336.129,813.99Z" transform="translate(-300.575 -794.938)" fill="#bdd0fb"/>
          <path id="Trazado_101245" data-name="Trazado 101245" d="M217.523,753.771a.184.184,0,0,0,.147-.294,26.673,26.673,0,0,0-21.245-10.442,25.343,25.343,0,0,0-10.279,2.154.184.184,0,0,0,.148.337,24.971,24.971,0,0,1,10.131-2.123A26.3,26.3,0,0,1,217.376,753.7.183.183,0,0,0,217.523,753.771Z" transform="translate(-186.036 -743.035)" fill="#bdd0fb"/>
        </g>
        <path id="Trazado_101246" data-name="Trazado 101246" d="M131.27,776.865A23.035,23.035,0,0,0,154.306,799.9c12.722,0,23.605-10.764,23.605-23.486s-10.883-22.585-23.605-22.585A23.035,23.035,0,0,0,131.27,776.865Z" transform="translate(-127.649 -747.983)" fill="#d7c8f2"/>
        <path id="Trazado_101247" data-name="Trazado 101247" d="M131.27,776.865a23.035,23.035,0,0,1,23.036-23.035,24.157,24.157,0,0,1,17.612,7.565L154.173,776.16l-3.648,23.431A23.04,23.04,0,0,1,131.27,776.865Z" transform="translate(-127.649 -747.983)" fill="#a397e3"/>
        <path id="Trazado_101248" data-name="Trazado 101248" d="M144.878,777.418A21.008,21.008,0,0,0,166.1,798.207c11.72,0,21.746-9.714,21.746-21.2s-10.026-20.382-21.746-20.382A21.008,21.008,0,0,0,144.878,777.418Z" transform="translate(-138.122 -750.137)" fill="#d7c8f2"/>
        <path id="Trazado_101249" data-name="Trazado 101249" d="M308.14,842.355a1.774,1.774,0,1,0,1.667-1.873A1.774,1.774,0,0,0,308.14,842.355Z" transform="translate(-263.765 -814.667)" fill="url(#linear-gradient)"/>
        <path id="Trazado_101250" data-name="Trazado 101250" d="M141.845,852.034a1.774,1.774,0,1,0,1.667-1.873A1.773,1.773,0,0,0,141.845,852.034Z" transform="translate(-135.785 -822.116)" fill="url(#linear-gradient)"/>
        <path id="Trazado_101251" data-name="Trazado 101251" d="M241.408,927.278a1.774,1.774,0,1,0,2.063,1.426A1.774,1.774,0,0,0,241.408,927.278Z" transform="translate(-211.292 -881.445)" fill="url(#linear-gradient)"/>
        <path id="Trazado_101252" data-name="Trazado 101252" d="M211.478,763.413a1.773,1.773,0,1,0,2.063,1.426A1.774,1.774,0,0,0,211.478,763.413Z" transform="translate(-188.258 -755.335)" fill="url(#linear-gradient)"/>
        <path id="Trazado_101253" data-name="Trazado 101253" d="M191.177,929.419c-.18.455-.135.88.1.951s.573-.241.753-.7.135-.881-.1-.951S191.357,928.964,191.177,929.419Z" transform="translate(-173.669 -882.572)" fill="url(#linear-gradient)"/>
        <path id="Trazado_101254" data-name="Trazado 101254" d="M258.077,773.992c-.18.455-.135.881.1.951s.573-.241.753-.7.135-.881-.1-.951S258.258,773.538,258.077,773.992Z" transform="translate(-225.155 -762.957)" fill="url(#linear-gradient)"/>
        <path id="Trazado_101255" data-name="Trazado 101255" d="M155.05,901.235c-.39.3-.573.682-.408.865s.615.092,1.005-.2.573-.682.408-.865S155.44,900.94,155.05,901.235Z" transform="translate(-145.59 -861.196)" fill="url(#linear-gradient)"/>
        <path id="Trazado_101256" data-name="Trazado 101256" d="M292.927,803.138c-.39.3-.573.682-.408.865s.615.092,1.005-.2.573-.682.408-.865S293.317,802.843,292.927,803.138Z" transform="translate(-251.699 -785.701)" fill="url(#linear-gradient)"/>
        <path id="Trazado_101257" data-name="Trazado 101257" d="M148.985,813.732c-.442-.21-.87-.194-.956.037s.2.588.644.8.869.194.955-.037S149.426,813.942,148.985,813.732Z" transform="translate(-140.535 -793.969)" fill="url(#linear-gradient)"/>
        <path id="Trazado_101258" data-name="Trazado 101258" d="M299.582,890.892c-.441-.21-.869-.194-.955.037s.2.588.644.8.869.194.956-.037S300.023,891.1,299.582,890.892Z" transform="translate(-256.434 -853.352)" fill="#fff" opacity="0.78"/>
        <path id="Trazado_101259" data-name="Trazado 101259" d="M180.878,779.632c-.268-.409-.642-.617-.836-.465s-.132.607.136,1.016.643.617.836.465S181.146,780.041,180.878,779.632Z" transform="translate(-165.097 -767.444)" fill="url(#linear-gradient)"/>
        <path id="Trazado_101260" data-name="Trazado 101260" d="M269.521,923.769c-.268-.409-.643-.617-.836-.465s-.132.607.136,1.016.643.617.836.465S269.789,924.178,269.521,923.769Z" transform="translate(-233.317 -878.371)" fill="url(#linear-gradient-70)"/>
        <path id="Trazado_101261" data-name="Trazado 101261" d="M232.391,850.567l14.247,7.105a.408.408,0,0,0,.59-.377l-.056-1.834a.408.408,0,0,1,.677-.319l10.3,9.07a.408.408,0,0,1-.355.705l-13.267-2.833a.408.408,0,0,1-.2-.689l1.553-1.532a.408.408,0,0,0-.083-.644l-13.792-7.934a.408.408,0,0,1-.155-.549h0A.408.408,0,0,1,232.391,850.567Z" transform="translate(-205.018 -822.398)" fill="aqua"/>
        <path id="Trazado_101262" data-name="Trazado 101262" d="M304.47,901.15a.352.352,0,0,0,.22-.624l-2.254-1.863a.184.184,0,0,0-.234.283l2.254,1.863c-3-.686-10.038-2.219-10.184-2.234a.184.184,0,0,0-.041.365c.211.034,5.6,1.206,10.161,2.2A.363.363,0,0,0,304.47,901.15Z" transform="translate(-252.94 -859.378)" fill="url(#linear-gradient-71)"/>
        <path id="Trazado_101263" data-name="Trazado 101263" d="M218.6,755.92l.028-13.93a.408.408,0,0,0-.606-.35l-1.6.893a.408.408,0,0,1-.594-.455l3.315-13.318a.408.408,0,0,1,.789-.009l3.588,13.083a.408.408,0,0,1-.52.5l-2.074-.674a.408.408,0,0,0-.534.37l-.974,13.907a.408.408,0,0,1-.416.39h0A.408.408,0,0,1,218.6,755.92Z" transform="translate(-192.713 -728.451)" fill="aqua"/>
        <path id="Trazado_101264" data-name="Trazado 101264" d="M231.6,745.782a.181.181,0,0,0,.067-.013.184.184,0,0,0,.105-.235c-.067-.2-1.506-5.527-2.721-10.034a.351.351,0,0,0-.683.017l-.618,2.859a.184.184,0,0,0,.359.078l.618-2.859c.773,2.983,2.648,9.933,2.7,10.07A.183.183,0,0,0,231.6,745.782Z" transform="translate(-201.898 -733.676)" fill="url(#linear-gradient-72)"/>
        <path id="Trazado_101265" data-name="Trazado 101265" d="M223.544,844.588a1.894,1.894,0,1,0,1.894-1.894A1.894,1.894,0,0,0,223.544,844.588Z" transform="translate(-198.663 -816.372)" fill="aqua"/>
      </g>
      <g id="Grupo_55452" data-name="Grupo 55452" transform="translate(246.981 125.653)">
        <g id="Grupo_55450" data-name="Grupo 55450" transform="translate(0 28.527)">
          <path id="Trazado_101266" data-name="Trazado 101266" d="M1873.427,302.451l1.685,1.245a.523.523,0,1,1-.622.841l-1.685-1.242a.524.524,0,0,1,.62-.844Z" transform="translate(-1599.189 -302.348)" fill="#7d97f4"/>
          <path id="Trazado_101267" data-name="Trazado 101267" d="M1893.522,317.343l1.679,1.255a.521.521,0,1,1-.625.834l-1.678-1.253a.522.522,0,1,1,.622-.837Z" transform="translate(-1614.656 -313.808)" fill="#7d97f4"/>
          <path id="Trazado_101268" data-name="Trazado 101268" d="M1913.525,332.368l1.67,1.269a.519.519,0,1,1-.629.825L1912.9,333.2a.52.52,0,0,1,.626-.83Z" transform="translate(-1630.05 -325.37)" fill="#7d97f4"/>
          <path id="Trazado_101269" data-name="Trazado 101269" d="M1933.407,347.558l1.657,1.283a.517.517,0,1,1-.634.816l-1.655-1.28a.517.517,0,1,1,.63-.821Z" transform="translate(-1645.351 -337.058)" fill="#7d97f4"/>
          <path id="Trazado_101270" data-name="Trazado 101270" d="M1953.136,362.936l1.644,1.3a.514.514,0,1,1-.64.805l-1.642-1.3a.515.515,0,1,1,.635-.811Z" transform="translate(-1660.534 -348.891)" fill="#7d97f4"/>
          <path id="Trazado_101271" data-name="Trazado 101271" d="M1972.7,378.539l1.63,1.324a.512.512,0,1,1-.647.794l-1.627-1.319a.513.513,0,1,1,.643-.8Z" transform="translate(-1675.586 -360.896)" fill="#7d97f4"/>
          <path id="Trazado_101272" data-name="Trazado 101272" d="M1992.067,394.4l1.61,1.345a.51.51,0,0,1-.654.783h0l-1.607-1.34h0a.511.511,0,0,1,.654-.785Z" transform="translate(-1690.492 -373.097)" fill="#7d97f4"/>
          <path id="Trazado_101273" data-name="Trazado 101273" d="M2011.2,410.522l1.59,1.369a.508.508,0,0,1-.663.77l0,0-1.586-1.364,0,0a.509.509,0,1,1,.663-.771Z" transform="translate(-1705.216 -385.504)" fill="#7d97f4"/>
          <path id="Trazado_101274" data-name="Trazado 101274" d="M2030.081,426.947l1.566,1.4a.506.506,0,1,1-.673.755l0,0-1.563-1.391,0,0a.507.507,0,0,1,.674-.757Z" transform="translate(-1719.743 -398.141)" fill="#7d97f4"/>
          <path id="Trazado_101275" data-name="Trazado 101275" d="M2048.672,443.7l1.541,1.425a.5.5,0,1,1-.684.739l0,0-1.536-1.419,0,0a.5.5,0,1,1,.684-.741Z" transform="translate(-1734.049 -411.028)" fill="#7d97f4"/>
          <path id="Trazado_101276" data-name="Trazado 101276" d="M2066.941,460.8l1.511,1.456a.5.5,0,1,1-.7.722l0,0-1.507-1.45,0,0a.5.5,0,1,1,.7-.724Z" transform="translate(-1748.105 -424.186)" fill="#7d97f4"/>
          <path id="Trazado_101277" data-name="Trazado 101277" d="M2084.849,478.286l1.479,1.49a.5.5,0,0,1-.709.7l0,0-1.474-1.483,0,0a.5.5,0,1,1,.709-.7Z" transform="translate(-1761.884 -437.636)" fill="#7d97f4"/>
          <path id="Trazado_101278" data-name="Trazado 101278" d="M2102.352,496.175l1.443,1.526a.5.5,0,0,1-.722.683l0,0-1.437-1.518,0,0a.5.5,0,1,1,.723-.685Z" transform="translate(-1775.351 -451.397)" fill="#7d97f4"/>
          <path id="Trazado_101279" data-name="Trazado 101279" d="M2119.4,514.5l1.4,1.563a.495.495,0,0,1-.737.661l0,0-1.4-1.555,0,0a.5.5,0,1,1,.738-.662Z" transform="translate(-1788.469 -465.491)" fill="#7d97f4"/>
          <path id="Trazado_101280" data-name="Trazado 101280" d="M2135.948,533.281l1.356,1.6a.493.493,0,0,1-.752.636l0,0-1.351-1.595,0,0a.494.494,0,0,1,.753-.638Z" transform="translate(-1801.198 -479.938)" fill="#7d97f4"/>
          <path id="Trazado_101281" data-name="Trazado 101281" d="M2151.926,552.548l1.3,1.647a.491.491,0,1,1-.769.609l0,0-1.3-1.636,0,0a.491.491,0,0,1,.77-.611Z" transform="translate(-1813.49 -494.758)" fill="#7d97f4"/>
          <path id="Trazado_101282" data-name="Trazado 101282" d="M2167.269,572.327l1.248,1.691a.489.489,0,0,1-.786.58l0,0-1.241-1.68,0-.005a.489.489,0,1,1,.787-.581Z" transform="translate(-1825.293 -509.97)" fill="#7d97f4"/>
          <path id="Trazado_101283" data-name="Trazado 101283" d="M2181.9,592.64l1.183,1.737a.486.486,0,1,1-.8.547l0-.005-1.177-1.725,0-.005a.487.487,0,1,1,.8-.549Z" transform="translate(-1836.548 -525.592)" fill="#7d97f4"/>
          <path id="Trazado_101284" data-name="Trazado 101284" d="M2195.736,613.5l1.111,1.784a.484.484,0,0,1-.822.512l0-.006-1.1-1.771,0-.006a.485.485,0,0,1,.823-.513Z" transform="translate(-1847.191 -541.636)" fill="#7d97f4"/>
          <path id="Trazado_101285" data-name="Trazado 101285" d="M2208.679,634.93l1.031,1.833a.482.482,0,0,1-.84.472l0-.007-1.024-1.818,0-.007a.483.483,0,1,1,.841-.474Z" transform="translate(-1857.146 -558.113)" fill="#7d97f4"/>
          <path id="Trazado_101286" data-name="Trazado 101286" d="M2220.63,656.927l.941,1.881a.48.48,0,0,1-.858.429l0-.008-.935-1.864,0-.008a.481.481,0,0,1,.859-.431Z" transform="translate(-1866.338 -575.027)" fill="#7d97f4"/>
          <path id="Trazado_101287" data-name="Trazado 101287" d="M2231.476,679.485l.842,1.928a.478.478,0,0,1-.875.382l0-.008-.836-1.909,0-.009a.478.478,0,1,1,.876-.384Z" transform="translate(-1874.68 -592.37)" fill="#7d97f4"/>
          <path id="Trazado_101288" data-name="Trazado 101288" d="M2241.106,702.592l.733,1.971a.475.475,0,0,1-.891.332l0-.009-.727-1.952,0-.009a.476.476,0,0,1,.893-.333Z" transform="translate(-1882.087 -610.136)" fill="#7d97f4"/>
          <path id="Trazado_101289" data-name="Trazado 101289" d="M2249.4,726.21l.614,2.012a.473.473,0,0,1-.905.276l0-.01-.609-1.991,0-.01a.474.474,0,1,1,.906-.278Z" transform="translate(-1888.467 -628.292)" fill="#7d97f4"/>
          <path id="Trazado_101290" data-name="Trazado 101290" d="M2256.247,750.285l.487,2.049a.471.471,0,1,1-.917.218l0-.01-.483-2.027,0-.011a.472.472,0,1,1,.918-.219Z" transform="translate(-1893.733 -646.799)" fill="#7d97f4"/>
          <path id="Trazado_101291" data-name="Trazado 101291" d="M2261.547,774.759l.351,2.077a.469.469,0,1,1-.924.156l0-.011-.35-2.054,0-.011a.47.47,0,0,1,.927-.157Z" transform="translate(-1897.81 -665.612)" fill="#7d97f4"/>
          <path id="Trazado_101292" data-name="Trazado 101292" d="M2265.21,799.53l.21,2.1a.467.467,0,0,1-.929.093v-.011l-.209-2.073,0-.012a.468.468,0,1,1,.93-.094Z" transform="translate(-1900.63 -684.653)" fill="#7d97f4"/>
          <path id="Trazado_101293" data-name="Trazado 101293" d="M2267.178,824.494l.065,2.106a.465.465,0,1,1-.929.029v-.011l-.066-2.082v-.012a.465.465,0,1,1,.93-.029Z" transform="translate(-1902.146 -703.843)" fill="#7d97f4"/>
          <path id="Trazado_101294" data-name="Trazado 101294" d="M2267.156,849.534l-.08,2.1a.462.462,0,1,1-.924-.035v-.011l.077-2.08V849.5a.463.463,0,0,1,.926.035Z" transform="translate(-1902.072 -723.091)" fill="#7d97f4"/>
          <path id="Trazado_101295" data-name="Trazado 101295" d="M2265.2,874.512l-.223,2.093a.46.46,0,1,1-.916-.1V876.5l.22-2.071v-.011a.461.461,0,0,1,.917.1Z" transform="translate(-1900.458 -742.291)" fill="#7d97f4"/>
          <path id="Trazado_101296" data-name="Trazado 101296" d="M2261.563,899.342l-.362,2.074a.458.458,0,0,1-.9-.158l0-.01.357-2.053,0-.011a.459.459,0,1,1,.9.157Z" transform="translate(-1897.562 -761.379)" fill="#7d97f4"/>
          <path id="Trazado_101297" data-name="Trazado 101297" d="M2256.329,923.922c-.163.683-.321,1.367-.495,2.049a.456.456,0,1,1-.884-.224c.171-.673.327-1.352.488-2.028l0-.008a.457.457,0,0,1,.889.212Z" transform="translate(-1893.441 -780.276)" fill="#7d97f4"/>
          <path id="Trazado_101298" data-name="Trazado 101298" d="M2249.477,948.135l-.633,2.009a.454.454,0,0,1-.866-.273l0-.01.625-1.988,0-.011a.455.455,0,0,1,.867.272Z" transform="translate(-1888.069 -798.889)" fill="#7d97f4"/>
          <path id="Trazado_101299" data-name="Trazado 101299" d="M2241.006,971.852l-.768,1.961a.452.452,0,1,1-.841-.329l0-.01.758-1.941,0-.01a.453.453,0,0,1,.843.329Z" transform="translate(-1881.458 -817.12)" fill="#7d97f4"/>
          <path id="Trazado_101300" data-name="Trazado 101300" d="M2230.983,994.969l-.9,1.905a.449.449,0,0,1-.813-.382l0-.01.884-1.886.005-.01a.45.45,0,0,1,.815.382Z" transform="translate(-1873.658 -834.893)" fill="#7d97f4"/>
          <path id="Trazado_101301" data-name="Trazado 101301" d="M2219.495,1017.4l-1.015,1.844a.447.447,0,0,1-.784-.431l0-.009,1-1.826,0-.009a.448.448,0,0,1,.786.431Z" transform="translate(-1864.738 -852.142)" fill="#7d97f4"/>
          <path id="Trazado_101302" data-name="Trazado 101302" d="M2206.644,1039.094l-1.125,1.778a.445.445,0,0,1-.752-.476l.005-.008,1.114-1.762.005-.008a.446.446,0,1,1,.754.476Z" transform="translate(-1854.777 -868.818)" fill="#7d97f4"/>
          <path id="Trazado_101303" data-name="Trazado 101303" d="M2192.536,1059.988l-1.227,1.708a.443.443,0,0,1-.72-.517l.005-.007,1.216-1.695,0-.008a.444.444,0,0,1,.722.518Z" transform="translate(-1843.856 -884.884)" fill="#7d97f4"/>
          <path id="Trazado_101304" data-name="Trazado 101304" d="M2177.282,1080.059l-1.32,1.637a.441.441,0,1,1-.686-.553l.005-.006,1.308-1.625.005-.007a.442.442,0,1,1,.688.554Z" transform="translate(-1832.059 -900.318)" fill="#7d97f4"/>
          <path id="Trazado_101305" data-name="Trazado 101305" d="M2160.988,1099.288l-1.4,1.566a.439.439,0,0,1-.654-.585l.005-.006,1.392-1.555.005-.006a.439.439,0,1,1,.655.586Z" transform="translate(-1819.469 -915.106)" fill="#7d97f4"/>
          <path id="Trazado_101306" data-name="Trazado 101306" d="M2143.754,1117.67l-1.479,1.495a.437.437,0,0,1-.621-.614l.005-.005,1.467-1.485.005-.005a.437.437,0,1,1,.622.615Z" transform="translate(-1806.162 -929.244)" fill="#7d97f4"/>
          <path id="Trazado_101307" data-name="Trazado 101307" d="M2125.677,1135.21l-1.547,1.425a.434.434,0,0,1-.588-.639l0,0,1.535-1.416.006,0a.435.435,0,1,1,.59.64Z" transform="translate(-1792.212 -942.734)" fill="#7d97f4"/>
          <path id="Trazado_101308" data-name="Trazado 101308" d="M2106.844,1151.917l-1.606,1.355a.432.432,0,1,1-.558-.661l0,0,1.6-1.348,0,0a.433.433,0,1,1,.559.662Z" transform="translate(-1777.686 -955.586)" fill="#7d97f4"/>
          <path id="Trazado_101309" data-name="Trazado 101309" d="M2087.333,1167.808l-1.661,1.287a.43.43,0,0,1-.527-.68l0,0,1.65-1.281,0,0a.431.431,0,1,1,.528.68Z" transform="translate(-1762.642 -967.809)" fill="#7d97f4"/>
          <path id="Trazado_101310" data-name="Trazado 101310" d="M2067.214,1182.9l-1.71,1.221a.428.428,0,0,1-.5-.7l0,0,1.7-1.216,0,0a.429.429,0,0,1,.5.7Z" transform="translate(-1747.134 -979.42)" fill="#7d97f4"/>
          <path id="Trazado_101311" data-name="Trazado 101311" d="M2046.548,1197.216l-1.753,1.157a.426.426,0,0,1-.469-.711l0,0,1.744-1.153,0,0a.427.427,0,1,1,.47.712Z" transform="translate(-1731.208 -990.433)" fill="#7d97f4"/>
          <path id="Trazado_101312" data-name="Trazado 101312" d="M2025.39,1210.773l-1.793,1.094a.424.424,0,0,1-.442-.723l0,0,1.783-1.09,0,0a.424.424,0,0,1,.443.724Z" transform="translate(-1714.907 -1000.864)" fill="#7d97f4"/>
          <path id="Trazado_101313" data-name="Trazado 101313" d="M2003.787,1223.593l-1.828,1.033a.421.421,0,1,1-.415-.733l0,0,1.819-1.03,0,0a.422.422,0,0,1,.416.735Z" transform="translate(-1698.266 -1010.727)" fill="#7d97f4"/>
          <path id="Trazado_101314" data-name="Trazado 101314" d="M1981.784,1235.694l-1.86.974a.419.419,0,0,1-.389-.743l0,0,1.851-.971,0,0a.42.42,0,1,1,.39.744Z" transform="translate(-1681.32 -1020.038)" fill="#7d97f4"/>
          <path id="Trazado_101315" data-name="Trazado 101315" d="M1959.416,1247.09l-1.89.915a.417.417,0,1,1-.364-.75l0,0,1.881-.913,0,0a.418.418,0,1,1,.365.752Z" transform="translate(-1664.094 -1028.807)" fill="#7d97f4"/>
          <path id="Trazado_101316" data-name="Trazado 101316" d="M1936.718,1257.8l-1.917.858a.415.415,0,0,1-.339-.757l0,0,1.907-.856,0,0a.416.416,0,1,1,.341.758Z" transform="translate(-1646.617 -1037.045)" fill="#7d97f4"/>
          <path id="Trazado_101317" data-name="Trazado 101317" d="M1913.718,1267.821l-1.94.8a.413.413,0,0,1-.315-.763h0l1.932-.8,0,0a.413.413,0,1,1,.316.764Z" transform="translate(-1628.908 -1044.76)" fill="#7d97f4"/>
          <path id="Trazado_101318" data-name="Trazado 101318" d="M1890.443,1277.175l-1.963.745a.41.41,0,1,1-.292-.767h0l1.954-.744,0,0a.411.411,0,0,1,.293.769Z" transform="translate(-1610.989 -1051.958)" fill="#7d97f4"/>
          <path id="Trazado_101319" data-name="Trazado 101319" d="M1866.916,1285.861l-1.983.689a.408.408,0,0,1-.268-.772h0l1.974-.688h0a.409.409,0,1,1,.269.773Z" transform="translate(-1592.878 -1058.643)" fill="#7d97f4"/>
          <path id="Trazado_101320" data-name="Trazado 101320" d="M1843.157,1293.877l-2,.633a.406.406,0,1,1-.245-.775h0l1.993-.632h0a.407.407,0,0,1,.246.776Z" transform="translate(-1574.589 -1064.813)" fill="#7d97f4"/>
          <path id="Trazado_101321" data-name="Trazado 101321" d="M1819.187,1301.222l-2.019.576a.4.4,0,0,1-.222-.777h0l2.01-.576h0a.4.4,0,1,1,.223.778Z" transform="translate(-1556.139 -1070.466)" fill="#7d97f4"/>
          <path id="Trazado_101322" data-name="Trazado 101322" d="M1795.023,1307.884l-2.035.518a.4.4,0,1,1-.2-.779h0l2.026-.517h0a.4.4,0,1,1,.2.78Z" transform="translate(-1537.541 -1075.594)" fill="#7d97f4"/>
          <path id="Trazado_101323" data-name="Trazado 101323" d="M1770.682,1313.849l-2.049.458a.4.4,0,1,1-.175-.78h0l2.04-.458h0a.4.4,0,0,1,.176.781Z" transform="translate(-1518.808 -1080.186)" fill="#7d97f4"/>
          <path id="Trazado_101324" data-name="Trazado 101324" d="M1746.18,1319.093l-2.062.4a.4.4,0,1,1-.15-.781h0l2.053-.4h0a.4.4,0,0,1,.151.782Z" transform="translate(-1499.953 -1084.224)" fill="#7d97f4"/>
          <path id="Trazado_101325" data-name="Trazado 101325" d="M1721.535,1323.587l-2.073.331a.4.4,0,1,1-.125-.781h0l2.064-.331h0a.4.4,0,1,1,.125.782Z" transform="translate(-1480.989 -1087.684)" fill="#7d97f4"/>
          <path id="Trazado_101326" data-name="Trazado 101326" d="M1696.79,1327.357l-2.079.284a.393.393,0,1,1-.107-.779h0l2.073-.285h0a.394.394,0,1,1,.107.781Z" transform="translate(-1461.95 -1090.588)" fill="#7d97f4"/>
          <path id="Trazado_101327" data-name="Trazado 101327" d="M1671.971,1330.587l-2.085.239a.391.391,0,1,1-.089-.777h0l2.078-.24h0a.392.392,0,1,1,.09.779Z" transform="translate(-1442.853 -1093.076)" fill="#7d97f4"/>
          <path id="Trazado_101328" data-name="Trazado 101328" d="M1647.091,1333.274l-2.09.193a.389.389,0,0,1-.071-.775h0l2.083-.193h0a.39.39,0,0,1,.072.776Z" transform="translate(-1423.71 -1095.147)" fill="#7d97f4"/>
          <path id="Trazado_101329" data-name="Trazado 101329" d="M1622.16,1335.4l-2.093.144a.387.387,0,0,1-.054-.772h0l2.087-.146h0a.388.388,0,0,1,.054.773Z" transform="translate(-1404.529 -1096.787)" fill="#7d97f4"/>
          <path id="Trazado_101330" data-name="Trazado 101330" d="M1597.19,1336.954l-2.1.1a.385.385,0,1,1-.035-.768h0l2.089-.1h0a.385.385,0,1,1,.036.77Z" transform="translate(-1385.319 -1097.985)" fill="#7d97f4"/>
          <path id="Trazado_101331" data-name="Trazado 101331" d="M1572.2,1337.913l-2.1.044a.382.382,0,1,1-.016-.765h0l2.089-.046h0a.383.383,0,0,1,.017.767Z" transform="translate(-1366.097 -1098.725)" fill="#7d97f4"/>
          <path id="Trazado_101332" data-name="Trazado 101332" d="M1547.2,1338.246l-2.1-.007a.38.38,0,0,1,0-.761h0l2.092.005h0a.381.381,0,0,1,0,.762Z" transform="translate(-1346.86 -1098.98)" fill="#7d97f4"/>
          <path id="Trazado_101333" data-name="Trazado 101333" d="M1522.193,1337.8l-2.1-.06a.378.378,0,1,1,.022-.756h0l2.091.058h0a.379.379,0,1,1-.021.757Z" transform="translate(-1327.627 -1098.598)" fill="#7d97f4"/>
          <path id="Trazado_101334" data-name="Trazado 101334" d="M1497.211,1336.708l-2.1-.114a.376.376,0,0,1,.041-.751h0l2.088.113h0a.377.377,0,0,1-.041.753Z" transform="translate(-1308.411 -1097.722)" fill="#7d97f4"/>
          <path id="Trazado_101335" data-name="Trazado 101335" d="M1472.265,1334.967l-2.092-.169a.374.374,0,1,1,.06-.745h0l2.085.167h0a.375.375,0,1,1-.06.747Z" transform="translate(-1289.225 -1096.344)" fill="#7d97f4"/>
          <path id="Trazado_101336" data-name="Trazado 101336" d="M1447.376,1332.562l-2.087-.226a.372.372,0,0,1,.08-.739h0l2.079.223h0a.372.372,0,1,1-.079.741Z" transform="translate(-1270.084 -1094.453)" fill="#7d97f4"/>
          <path id="Trazado_101337" data-name="Trazado 101337" d="M1422.561,1329.485l-2.079-.282a.369.369,0,0,1,.1-.732h0l2.072.28h0a.37.37,0,0,1-.1.734Z" transform="translate(-1251.002 -1092.045)" fill="#7d97f4"/>
          <path id="Trazado_101338" data-name="Trazado 101338" d="M1397.841,1325.727l-2.071-.34a.367.367,0,0,1,.119-.725h0l2.064.337h0a.368.368,0,0,1-.119.727Z" transform="translate(-1231.993 -1089.114)" fill="#7d97f4"/>
          <path id="Trazado_101339" data-name="Trazado 101339" d="M1373.235,1321.283l-2.061-.4a.365.365,0,0,1,.138-.717h0l2.054.394h0a.366.366,0,1,1-.138.719Z" transform="translate(-1213.073 -1085.654)" fill="#7d97f4"/>
          <path id="Trazado_101340" data-name="Trazado 101340" d="M1348.763,1316.151l-2.049-.455a.363.363,0,0,1,.157-.709h0l2.042.452h0a.364.364,0,0,1-.157.711Z" transform="translate(-1194.258 -1081.664)" fill="#7d97f4"/>
          <path id="Trazado_101341" data-name="Trazado 101341" d="M1324.446,1310.329l-2.035-.513a.361.361,0,1,1,.176-.7h0l2.028.51h0a.362.362,0,0,1-.176.7Z" transform="translate(-1175.563 -1077.145)" fill="#7d97f4"/>
          <path id="Trazado_101342" data-name="Trazado 101342" d="M1300.3,1303.817l-2.02-.571a.359.359,0,1,1,.2-.69h0l2.013.567h0a.36.36,0,0,1-.2.692Z" transform="translate(-1157.003 -1072.094)" fill="#7d97f4"/>
          <path id="Trazado_101343" data-name="Trazado 101343" d="M1276.356,1296.62l-2-.628a.357.357,0,1,1,.214-.68h0l2,.624,0,0a.357.357,0,1,1-.213.682Z" transform="translate(-1138.595 -1066.517)" fill="#7d97f4"/>
          <path id="Trazado_101344" data-name="Trazado 101344" d="M1252.624,1288.742l-1.984-.685a.354.354,0,0,1,.231-.67h0l1.978.681h0a.355.355,0,0,1-.231.671Z" transform="translate(-1120.354 -1060.416)" fill="#7d97f4"/>
          <path id="Trazado_101345" data-name="Trazado 101345" d="M1229.124,1280.193l-1.963-.741a.352.352,0,0,1,.249-.659h0l1.957.737h0a.353.353,0,1,1-.249.661Z" transform="translate(-1102.293 -1053.799)" fill="#7d97f4"/>
          <path id="Trazado_101346" data-name="Trazado 101346" d="M1205.876,1271.025l-1.942-.785a.35.35,0,1,1,.264-.649l1.939.782a.351.351,0,1,1-.259.652Z" transform="translate(-1084.424 -1046.715)" fill="#7d97f4"/>
          <path id="Trazado_101347" data-name="Trazado 101347" d="M1182.775,1261.48l-1.932-.811a.348.348,0,1,1,.27-.641l1.93.808a.349.349,0,0,1-.266.645Z" transform="translate(-1066.658 -1039.355)" fill="#7d97f4"/>
          <path id="Trazado_101348" data-name="Trazado 101348" d="M1159.792,1251.67l-1.924-.832a.346.346,0,1,1,.275-.634l1.922.829a.346.346,0,1,1-.272.637Z" transform="translate(-1048.98 -1031.793)" fill="#7d97f4"/>
          <path id="Trazado_101349" data-name="Trazado 101349" d="M1136.89,1241.647l-1.917-.847a.344.344,0,1,1,.278-.628l1.916.845a.344.344,0,1,1-.276.631Z" transform="translate(-1031.363 -1024.071)" fill="#7d97f4"/>
          <path id="Trazado_101350" data-name="Trazado 101350" d="M1114.047,1231.474l-1.913-.858a.341.341,0,1,1,.279-.623l1.913.855a.342.342,0,0,1-.279.625Z" transform="translate(-1013.788 -1016.237)" fill="#7d97f4"/>
          <path id="Trazado_101351" data-name="Trazado 101351" d="M1091.237,1221.208l-1.911-.863a.339.339,0,1,1,.279-.618l1.911.862a.34.34,0,0,1-.279.62Z" transform="translate(-996.238 -1008.337)" fill="#7d97f4"/>
          <path id="Trazado_101352" data-name="Trazado 101352" d="M1068.449,1210.918l-1.911-.863a.337.337,0,0,1,.277-.615l1.911.862a.338.338,0,1,1-.278.616Z" transform="translate(-978.701 -1000.42)" fill="#7d97f4"/>
          <path id="Trazado_101353" data-name="Trazado 101353" d="M1045.648,1200.656l-1.912-.859a.335.335,0,1,1,.274-.611l1.914.858a.336.336,0,1,1-.275.613Z" transform="translate(-961.153 -992.528)" fill="#7d97f4"/>
          <path id="Trazado_101354" data-name="Trazado 101354" d="M1022.8,1190.478l-1.916-.849a.333.333,0,1,1,.269-.609l1.918.849a.333.333,0,0,1-.27.61Z" transform="translate(-943.566 -984.706)" fill="#7d97f4"/>
          <path id="Trazado_101355" data-name="Trazado 101355" d="M999.892,1180.45l-1.921-.835a.331.331,0,1,1,.262-.607l1.924.834a.331.331,0,0,1-.264.608Z" transform="translate(-925.931 -977.002)" fill="#7d97f4"/>
          <path id="Trazado_101356" data-name="Trazado 101356" d="M976.9,1170.633l-1.929-.815a.328.328,0,1,1,.254-.605l1.931.814a.329.329,0,1,1-.256.607Z" transform="translate(-908.232 -969.464)" fill="#7d97f4"/>
          <path id="Trazado_101357" data-name="Trazado 101357" d="M953.814,1161.087l-1.938-.79a.326.326,0,1,1,.244-.605l1.941.79a.327.327,0,1,1-.246.606Z" transform="translate(-890.453 -962.138)" fill="#7d97f4"/>
          <path id="Trazado_101358" data-name="Trazado 101358" d="M930.6,1151.873l-1.949-.76a.324.324,0,1,1,.234-.6l1.953.76a.325.325,0,0,1-.236.606Z" transform="translate(-872.575 -955.073)" fill="#7d97f4"/>
          <path id="Trazado_101359" data-name="Trazado 101359" d="M907.225,1143.049l-1.961-.725a.322.322,0,1,1,.221-.6l1.966.725a.323.323,0,0,1-.223.605Z" transform="translate(-854.574 -948.31)" fill="#7d97f4"/>
          <path id="Trazado_101360" data-name="Trazado 101360" d="M883.687,1134.678l-1.975-.685a.32.32,0,1,1,.207-.605l1.981.685a.32.32,0,1,1-.209.606Z" transform="translate(-836.445 -941.901)" fill="#7d97f4"/>
          <path id="Trazado_101361" data-name="Trazado 101361" d="M859.97,1126.824l-1.991-.639h0a.318.318,0,0,1,.194-.6l2,.64a.318.318,0,1,1-.194.606h0Z" transform="translate(-818.175 -935.892)" fill="#7d97f4"/>
          <path id="Trazado_101362" data-name="Trazado 101362" d="M836.062,1119.557l-2.007-.588h0a.315.315,0,0,1,.177-.605l2.015.588a.316.316,0,1,1-.177.607h0Z" transform="translate(-799.758 -930.34)" fill="#7d97f4"/>
          <path id="Trazado_101363" data-name="Trazado 101363" d="M811.922,1113.116l-2.028-.507h0a.313.313,0,0,1,.152-.608l2.037.508a.314.314,0,1,1-.152.609h0Z" transform="translate(-781.155 -925.446)" fill="#7d97f4"/>
          <path id="Trazado_101364" data-name="Trazado 101364" d="M787.539,1107.667l-2.047-.423h0a.311.311,0,0,1,.126-.609l2.057.423a.312.312,0,0,1-.126.611h0Z" transform="translate(-762.367 -921.319)" fill="#7d97f4"/>
          <path id="Trazado_101365" data-name="Trazado 101365" d="M762.951,1103.241l-2.063-.336h0a.309.309,0,0,1,.1-.61l2.073.336a.31.31,0,0,1-.1.612h0Z" transform="translate(-743.423 -917.981)" fill="#7d97f4"/>
          <path id="Trazado_101366" data-name="Trazado 101366" d="M738.2,1099.866l-2.076-.247h0a.307.307,0,0,1,.072-.609l2.086.247a.308.308,0,0,1-.073.611H738.2Z" transform="translate(-724.354 -915.453)" fill="#7d97f4"/>
          <path id="Trazado_101367" data-name="Trazado 101367" d="M713.318,1097.569l-2.084-.157h-.005a.3.3,0,0,1,.045-.608l2.094.156a.305.305,0,1,1-.045.609h-.005Z" transform="translate(-705.192 -913.759)" fill="#7d97f4"/>
          <path id="Trazado_101368" data-name="Trazado 101368" d="M688.358,1096.378l-2.09-.063h-.005a.3.3,0,0,1,.018-.6l2.1.062a.3.3,0,1,1-.018.606h-.005Z" transform="translate(-685.969 -912.916)" fill="#7d97f4"/>
        </g>
        <g id="Grupo_55451" data-name="Grupo 55451" transform="translate(233.54 0)">
          <path id="Trazado_101369" data-name="Trazado 101369" d="M1840.223,260.222l-3.046,8.927-4.736-5.9Z" transform="translate(-1801.83 -241.401)" fill="#7d97f4"/>
          <path id="Trazado_101370" data-name="Trazado 101370" d="M1699.584,178.536l16.892,29.371a2.387,2.387,0,0,0,3.337.833l28.85-18.07a.957.957,0,0,0-.308-1.747Z" transform="translate(-1699.584 -178.536)" fill="#91b3fa"/>
          <path id="Trazado_101371" data-name="Trazado 101371" d="M1737.974,197.356l-38.389-18.821,33.742,21.752-.739,2.511Z" transform="translate(-1699.584 -178.536)" fill="#7d97f4"/>
          <path id="Trazado_101372" data-name="Trazado 101372" d="M1834.019,274.659l4.372,4.279-1.6-6Z" transform="translate(-1803.045 -251.19)" fill="#7d97f4"/>
        </g>
      </g>
    </g>
  </g>
</svg>
