<svg xmlns="http://www.w3.org/2000/svg" xmlns:xlink="http://www.w3.org/1999/xlink" width="944.031" height="200.227" viewBox="0 0 944.031 200.227">
  <defs>
    <linearGradient id="linear-gradient" y1="0.5" x2="1" y2="0.5" gradientUnits="objectBoundingBox">
      <stop offset="0" stop-color="#dae3fe"/>
      <stop offset="1" stop-color="#e9effd"/>
    </linearGradient>
    <linearGradient id="linear-gradient-2" x1="0" y1="0.5" x2="1" y2="0.5" xlink:href="#linear-gradient"/>
    <linearGradient id="linear-gradient-21" x1="1.519" y1="-0.775" x2="-1.484" y2="2.907" gradientUnits="objectBoundingBox">
      <stop offset="0" stop-color="#09005d"/>
      <stop offset="1" stop-color="#1a0f91"/>
    </linearGradient>
    <linearGradient id="linear-gradient-23" x1="1.004" y1="-2.464" x2="-0.074" y2="4.125" xlink:href="#linear-gradient-21"/>
    <linearGradient id="linear-gradient-26" x1="-0.281" y1="0.954" x2="1.881" y2="-0.303" gradientUnits="objectBoundingBox">
      <stop offset="0" stop-color="#4042e2"/>
      <stop offset="1" stop-color="#4f52ff"/>
    </linearGradient>
    <linearGradient id="linear-gradient-27" x1="0.507" y1="0.068" x2="0.761" y2="-21.397" xlink:href="#linear-gradient-26"/>
    <linearGradient id="linear-gradient-28" x1="0.34" y1="4.039" x2="0.537" y2="-0.315" xlink:href="#linear-gradient-26"/>
    <linearGradient id="linear-gradient-29" x1="0.712" y1="0.715" x2="0.854" y2="1.061" gradientUnits="objectBoundingBox">
      <stop offset="0" stop-color="#ff928e"/>
      <stop offset="1" stop-color="#feb3b1"/>
    </linearGradient>
    <linearGradient id="linear-gradient-30" x1="0.532" y1="0.006" x2="0.327" y2="3.202" xlink:href="#linear-gradient-21"/>
    <linearGradient id="linear-gradient-31" x1="0.258" y1="0.704" x2="0.871" y2="0.217" xlink:href="#linear-gradient-29"/>
    <linearGradient id="linear-gradient-32" x1="0" y1="0.5" x2="1" y2="0.5" xlink:href="#linear-gradient-21"/>
    <linearGradient id="linear-gradient-33" x1="0.554" y1="-2.158" x2="0.395" y2="6.275" xlink:href="#linear-gradient-21"/>
    <linearGradient id="linear-gradient-34" x1="0.958" y1="0.108" x2="0.417" y2="0.574" xlink:href="#linear-gradient-21"/>
    <linearGradient id="linear-gradient-35" x1="0.268" y1="-0.098" x2="0.725" y2="1.234" xlink:href="#linear-gradient-29"/>
    <linearGradient id="linear-gradient-36" x1="-0.006" y1="0.333" x2="0.924" y2="0.733" xlink:href="#linear-gradient-29"/>
    <linearGradient id="linear-gradient-37" x1="-4.903" y1="2.288" x2="-5.834" y2="3.144" xlink:href="#linear-gradient-21"/>
    <linearGradient id="linear-gradient-38" x1="-2.645" y1="-0.595" x2="0.947" y2="0.669" xlink:href="#linear-gradient-29"/>
    <linearGradient id="linear-gradient-39" x1="1.121" y1="0.08" x2="0.233" y2="0.773" xlink:href="#linear-gradient-29"/>
    <linearGradient id="linear-gradient-40" x1="1.73" y1="-0.13" x2="-1.657" y2="1.467" xlink:href="#linear-gradient-26"/>
    <linearGradient id="linear-gradient-41" x1="1.289" y1="0.127" x2="-2.098" y2="1.724" xlink:href="#linear-gradient-26"/>
    <linearGradient id="linear-gradient-42" x1="0.484" y1="1.179" x2="0.561" y2="-2.195" gradientUnits="objectBoundingBox">
      <stop offset="0" stop-color="#fe7062"/>
      <stop offset="1" stop-color="#ff928e"/>
    </linearGradient>
    <linearGradient id="linear-gradient-43" x1="-11.7" y1="1.564" x2="-12.039" y2="2.918" xlink:href="#linear-gradient-29"/>
    <linearGradient id="linear-gradient-44" x1="0" y1="0.5" x2="1" y2="0.5" xlink:href="#linear-gradient-42"/>
    <linearGradient id="linear-gradient-45" x1="0.772" y1="-6.693" x2="0.499" y2="0.843" gradientUnits="objectBoundingBox">
      <stop offset="0" stop-color="#020039"/>
      <stop offset="1" stop-color="#090056"/>
    </linearGradient>
    <linearGradient id="linear-gradient-46" x1="0" y1="0.5" x2="1" y2="0.5" xlink:href="#linear-gradient-29"/>
    <linearGradient id="linear-gradient-48" x1="0.734" y1="-1.867" x2="0.424" y2="1.1" xlink:href="#linear-gradient-45"/>
    <linearGradient id="linear-gradient-49" x1="0.5" y1="-1.229" x2="0.5" y2="-0.49" xlink:href="#linear-gradient-45"/>
    <linearGradient id="linear-gradient-51" x1="-0.095" y1="2.406" x2="0.49" y2="0.529" xlink:href="#linear-gradient-21"/>
    <linearGradient id="linear-gradient-52" x1="0.635" y1="0.392" x2="0.098" y2="1.51" xlink:href="#linear-gradient-29"/>
    <linearGradient id="linear-gradient-53" x1="0" y1="0.5" x2="1" y2="0.5" xlink:href="#linear-gradient-26"/>
    <linearGradient id="linear-gradient-54" x1="-13.162" y1="18.226" x2="-14.749" y2="19.599" xlink:href="#linear-gradient-29"/>
    <linearGradient id="linear-gradient-55" x1="-7.917" y1="11.511" x2="-6.838" y2="11.511" xlink:href="#linear-gradient-21"/>
    <linearGradient id="linear-gradient-56" x1="-37.347" y1="53.511" x2="-34.193" y2="51.086" xlink:href="#linear-gradient-29"/>
    <linearGradient id="linear-gradient-59" x1="-1.218" y1="1.584" x2="0.954" y2="0.207" xlink:href="#linear-gradient-29"/>
    <linearGradient id="linear-gradient-60" x1="0.506" y1="-1.243" x2="0.427" y2="24.46" xlink:href="#linear-gradient-26"/>
  </defs>
  <g id="Grupo_55753" data-name="Grupo 55753" transform="translate(-321.5 -2295.313)">
    <path id="Trazado_102648" data-name="Trazado 102648" d="M-7390.5-9204.46v-91h942.031v91" transform="translate(7713 11700)" fill="none" stroke="#5e448f" stroke-width="2" stroke-dasharray="3"/>
    <g id="Grupo_55752" data-name="Grupo 55752" transform="translate(471.274 2211.409)">
      <path id="Trazado_102450" data-name="Trazado 102450" d="M372.662,98.251c17.154,19.931,76.685-2.211,76.059,34.535-.733,43.027-25.8,64.546-12.092,97.492,12.788,30.732-30.18,52.571-106.31,51.933s-198.6-38.592-169.1-79.813,9.847-43.336,8.407-61.554,13.488-58.179,72.45-24.854S329.223,47.781,372.662,98.251Z" transform="translate(0 0)" fill="#f1eaff"/>
      <g id="Grupo_55724" data-name="Grupo 55724" transform="translate(351.249 143.625)">
        <path id="Trazado_102463" data-name="Trazado 102463" d="M1688.126,527.358c1.275,17.379,4.566,118.818-90.068,139,0,0-19.357-66.223,87.764-140.114A1.474,1.474,0,0,1,1688.126,527.358Z" transform="translate(-1596.693 -525.987)" fill="#bdd0fb"/>
        <path id="Trazado_102464" data-name="Trazado 102464" d="M1820.655,643.546s-2.659,7.919-7.114,19.626l-1.75,4.56-1.91,4.866c-1.327,3.333-2.736,6.845-4.243,10.458s-3.087,7.336-4.726,11.106l-2.515,5.674c-.866,1.891-1.714,3.8-2.6,5.69s-1.757,3.789-2.668,5.659l-1.349,2.806c-.45.932-.916,1.853-1.37,2.775l-1.367,2.75-1.387,2.706c-.909,1.8-1.849,3.554-2.769,5.284-1.843,3.457-3.692,6.763-5.5,9.868s-3.576,6.007-5.273,8.645c-.827,1.333-1.675,2.576-2.472,3.763l-1.164,1.735c-.384.558-.774,1.089-1.142,1.61-.747,1.034-1.423,2.019-2.089,2.9l-1.845,2.411-.792,1.031-.732.884-1.154,1.395-.961,1.161a.55.55,0,0,1-.848-.7l0,0,.015-.018.957-1.145,1.149-1.375.729-.872.791-1.019,1.842-2.383c.665-.871,1.342-1.846,2.088-2.87.369-.516.758-1.041,1.142-1.594l1.166-1.72c.8-1.177,1.647-2.409,2.477-3.732,1.7-2.618,3.474-5.5,5.293-8.585s3.675-6.374,5.529-9.813c.926-1.72,1.872-3.467,2.788-5.258l1.4-2.693,1.377-2.738c.458-.918.927-1.835,1.381-2.763l1.36-2.795c.918-1.863,1.8-3.754,2.691-5.637s1.75-3.785,2.624-5.669l2.539-5.655c1.655-3.757,3.264-7.464,4.774-11.071s2.948-7.1,4.289-10.428l1.931-4.852,1.77-4.548c1.125-2.919,2.142-5.6,3.026-7.985s1.645-4.465,2.265-6.181c1.236-3.435,1.908-5.407,1.908-5.407a.233.233,0,0,1,.442.15Z" transform="translate(-1738.619 -627.399)" fill="#dce5fe"/>
      </g>
      <g id="Grupo_55725" data-name="Grupo 55725" transform="translate(164.885 220.187)">
        <path id="Trazado_102465" data-name="Trazado 102465" d="M217.222,1093.943a.81.81,0,0,1,1.166-1.052c6.738,4.563,24.78,15.976,39.286,17.861,23.62,3.069,50.227,17.988,51.93,35.928C309.6,1146.68,260.355,1174.876,217.222,1093.943Z" transform="translate(-217.123 -1092.747)" fill="#bdd0fb"/>
        <path id="Trazado_102466" data-name="Trazado 102466" d="M280.04,1155.735l.183.165.544.454c.484.4,1.211.978,2.134,1.71s2.055,1.608,3.367,2.6,2.8,2.085,4.43,3.283,3.413,2.463,5.319,3.776,3.931,2.675,6.034,4.071,4.3,2.8,6.562,4.184l1.7,1.045,1.723,1.027c1.147.694,2.319,1.356,3.484,2.029s2.352,1.308,3.518,1.969l3.522,1.9c1.18.6,2.34,1.217,3.505,1.79l1.737.85c.574.284,1.146.561,1.721.821,2.283,1.07,4.515,2.052,6.647,2.944s4.175,1.669,6.07,2.36l2.737.94c.873.287,1.708.538,2.49.785l1.136.352,1.067.291,1.881.513c1.141.287,2.045.484,2.658.633l.942.221h.006a.138.138,0,0,1-.058.269l-.952-.189c-.62-.13-1.535-.291-2.688-.553l-1.9-.467-1.08-.265-1.15-.325c-.791-.229-1.639-.455-2.521-.728l-2.766-.9c-1.915-.665-3.982-1.409-6.138-2.276s-4.407-1.834-6.707-2.9c-.579-.258-1.155-.533-1.733-.816l-1.75-.845c-1.173-.568-2.342-1.181-3.53-1.779l-3.546-1.885c-1.175-.656-2.36-1.306-3.527-1.986s-2.34-1.351-3.488-2.052l-1.725-1.039-1.7-1.056c-2.261-1.4-4.451-2.831-6.563-4.226-2.1-1.415-4.113-2.806-6-4.156s-3.656-2.647-5.28-3.856c-3.236-2.435-5.865-4.55-7.689-6.051-.91-.754-1.616-1.356-2.092-1.774-.238-.2-.426-.378-.55-.488l-.179-.172a.137.137,0,0,1,.187-.2Z" transform="translate(-271.333 -1147.187)" fill="#dce5fe"/>
      </g>
      <g id="Grupo_55726" data-name="Grupo 55726" transform="translate(168.802 171.578)">
        <rect id="Rectángulo_5329" data-name="Rectángulo 5329" width="4.461" height="32.765" transform="translate(0 26.543)" fill="#7d97f4"/>
        <rect id="Rectángulo_5330" data-name="Rectángulo 5330" width="4.461" height="21.504" transform="translate(7.455 37.804)" fill="#7d97f4"/>
        <rect id="Rectángulo_5331" data-name="Rectángulo 5331" width="4.461" height="49.334" transform="translate(14.909 9.974)" fill="#7d97f4"/>
        <rect id="Rectángulo_5332" data-name="Rectángulo 5332" width="4.461" height="11.852" transform="translate(22.364 47.456)" fill="#7d97f4"/>
        <rect id="Rectángulo_5333" data-name="Rectángulo 5333" width="4.461" height="42.738" transform="translate(29.818 16.569)" fill="#7d97f4"/>
        <rect id="Rectángulo_5334" data-name="Rectángulo 5334" width="4.461" height="35.339" transform="translate(37.273 23.969)" fill="#7d97f4"/>
        <rect id="Rectángulo_5335" data-name="Rectángulo 5335" width="4.461" height="27.295" transform="translate(44.727 32.012)" fill="#7d97f4"/>
        <rect id="Rectángulo_5336" data-name="Rectángulo 5336" width="4.461" height="59.308" transform="translate(52.182 0)" fill="#7d97f4"/>
        <rect id="Rectángulo_5337" data-name="Rectángulo 5337" width="4.461" height="53.034" transform="translate(59.637 6.274)" fill="#7d97f4"/>
        <rect id="Rectángulo_5338" data-name="Rectángulo 5338" width="4.461" height="43.543" transform="translate(67.091 15.765)" fill="#7d97f4"/>
        <rect id="Rectángulo_5339" data-name="Rectángulo 5339" width="4.461" height="10.752" transform="translate(74.546 48.556)" fill="#7d97f4"/>
      </g>
      <g id="Grupo_55727" data-name="Grupo 55727" transform="translate(360.507 144.801)">
        <path id="Trazado_102467" data-name="Trazado 102467" d="M1697.69,535.229a.7.7,0,0,0-1.367.008c-1.653,6.884-6.554,24.8-14.771,34.519-13.378,15.825-21.727,41.017-12.3,53.544C1669.253,623.3,1717.438,612.535,1697.69,535.229Z" transform="translate(-1665.223 -534.699)" fill="#91b3fa"/>
        <path id="Trazado_102468" data-name="Trazado 102468" d="M1740.333,610.08l-.014.216-.066.638c-.06.548-.158,1.35-.3,2.368-.289,2.035-.732,4.938-1.38,8.4-.333,1.73-.7,3.6-1.126,5.576s-.894,4.051-1.412,6.192c-.538,2.136-1.106,4.341-1.737,6.567l-.473,1.676-.5,1.679c-.326,1.125-.687,2.243-1.037,3.366s-.73,2.235-1.1,3.346l-1.175,3.292c-.414,1.081-.806,2.161-1.227,3.214s-.825,2.1-1.266,3.11c-.855,2.033-1.724,3.981-2.615,5.8s-1.774,3.512-2.616,5.062l-1.252,2.2c-.408.693-.823,1.334-1.2,1.945l-.551.882-.54.8-.951,1.414c-.589.844-1.085,1.484-1.408,1.929l-.5.679a.137.137,0,0,1-.224-.159l0-.005.474-.7c.305-.456.768-1.114,1.332-1.968l.9-1.434.513-.814.521-.893c.356-.618.744-1.269,1.136-1.966l1.2-2.21c.81-1.556,1.668-3.252,2.51-5.078s1.7-3.763,2.54-5.79c.432-1.008.82-2.054,1.241-3.1s.8-2.127,1.2-3.205l1.15-3.283c.361-1.109.754-2.211,1.106-3.327s.719-2.228,1.049-3.346l.505-1.67.48-1.667c.64-2.214,1.217-4.409,1.765-6.535s1.051-4.189,1.5-6.152.85-3.823,1.209-5.544.671-3.3.928-4.706.477-2.63.647-3.641.3-1.806.373-2.349l.085-.609.021-.214v-.015a.137.137,0,0,1,.273.022Z" transform="translate(-1708.828 -599.771)" fill="#dce5fe"/>
      </g>
      <g id="Grupo_55750" data-name="Grupo 55750" transform="translate(196.045 103.9)">
        <g id="Grupo_55730" data-name="Grupo 55730" transform="translate(53.435 0)">
          <path id="Trazado_102469" data-name="Trazado 102469" d="M854.383,384.612h93.936a9.732,9.732,0,0,1,9.719,9.237l6.934,136.189a7.177,7.177,0,0,1-7.037,7.54l-107.662,1.957a6.812,6.812,0,0,1-6.936-6.811V395.658A11.046,11.046,0,0,1,854.383,384.612Z" transform="translate(-843.337 -363.986)" fill="#392a8d"/>
          <path id="Trazado_102470" data-name="Trazado 102470" d="M887.234,1347.823h0l-12.047-.156a7.43,7.43,0,0,1-7.305-7.4v-18.188a.257.257,0,1,1,.514,0v18.188a6.913,6.913,0,0,0,6.8,6.886l12.047.156a.257.257,0,0,1,0,.514Z" transform="translate(-864.564 -1174.589)" fill="url(#linear-gradient)"/>
          <path id="Trazado_102471" data-name="Trazado 102471" d="M868.136,1261.771a.257.257,0,0,1-.257-.257v-2.945a.257.257,0,1,1,.514,0v2.945A.257.257,0,0,1,868.136,1261.771Z" transform="translate(-864.564 -1119.658)" fill="url(#linear-gradient-2)"/>
          <g id="Grupo_55729" data-name="Grupo 55729" transform="translate(7.696 19.493)">
            <path id="Trazado_102472" data-name="Trazado 102472" d="M903.944,376.25c12.828,1.74,56.939,7.12,93.41,4.32a2.967,2.967,0,0,1,3.2,2.8l7.27,136.8a3.414,3.414,0,0,1-3.208,3.591c-15.339.908-78.509,4.417-101.041,2.057a2.705,2.705,0,0,1-2.42-2.677L900.3,379.45A3.209,3.209,0,0,1,903.944,376.25Z" transform="translate(-900.305 -376.221)" fill="#392a8d"/>
            <path id="Trazado_102473" data-name="Trazado 102473" d="M914.992,402.526c12.345,1.674,54.795,6.852,89.892,4.157a2.855,2.855,0,0,1,3.075,2.693l7,131.645a3.286,3.286,0,0,1-3.087,3.455c-14.761.873-75.553,4.25-97.236,1.979a2.6,2.6,0,0,1-2.329-2.576l-.814-138.274A3.088,3.088,0,0,1,914.992,402.526Z" transform="translate(-909.979 -398.948)" fill="#bdd0fb"/>
            <path id="Trazado_102474" data-name="Trazado 102474" d="M996.072,487.857l1.311,28.223a1.794,1.794,0,0,0,1.741,1.712c5.227.147,21.515.545,30.711.065a2,2,0,0,0,1.9-1.937c.175-5.293.559-20.7-.647-27.138a2.261,2.261,0,0,0-2.147-1.839l-30.9-1.081A1.908,1.908,0,0,0,996.072,487.857Z" transform="translate(-983.133 -471.05)" fill="url(#linear-gradient)"/>
            <circle id="Elipse_1408" data-name="Elipse 1408" cx="6.067" cy="6.067" r="6.067" transform="translate(23.953 32.178) rotate(-82.982)" fill="aqua"/>
            <path id="Trazado_102475" data-name="Trazado 102475" d="M1049.439,652.867h19.329a1.5,1.5,0,0,0,1.257-2.307A12.474,12.474,0,0,0,1059,644.387a13.475,13.475,0,0,0-10.841,6.018A1.564,1.564,0,0,0,1049.439,652.867Z" transform="translate(-1027.938 -608.156)" fill="aqua"/>
            <path id="Trazado_102476" data-name="Trazado 102476" d="M1345.48,502.646a.523.523,0,0,0,.524-.54l-.024-.813a.574.574,0,0,0-.556-.55l-35-.624a.351.351,0,0,0-.361.5l.534,1.517a.819.819,0,0,0,.72.51Z" transform="translate(-1254.686 -483.382)" fill="url(#linear-gradient)"/>
            <path id="Trazado_102477" data-name="Trazado 102477" d="M1310.426,539.068a.351.351,0,0,0-.361.5l.534,1.517a.819.819,0,0,0,.72.51h34.161a.523.523,0,0,0,.524-.54l-.024-.813a.573.573,0,0,0-.556-.55Z" transform="translate(-1254.686 -517.069)" fill="url(#linear-gradient)"/>
            <path id="Trazado_102478" data-name="Trazado 102478" d="M1310.426,578.582a.351.351,0,0,0-.361.5l.534,1.517a.819.819,0,0,0,.72.51h34.161a.523.523,0,0,0,.524-.54l-.024-.813a.574.574,0,0,0-.556-.55Z" transform="translate(-1254.686 -551.246)" fill="url(#linear-gradient)"/>
            <path id="Trazado_102479" data-name="Trazado 102479" d="M1078.714,771.636a.5.5,0,0,0,.5-.539l-.054-.815a.592.592,0,0,0-.576-.543L998.1,769.1c-.3,0-.389.186-.2.419l1.346,1.691a1.272,1.272,0,0,0,.877.423Z" transform="translate(-984.63 -716.03)" fill="url(#linear-gradient)"/>
            <path id="Trazado_102480" data-name="Trazado 102480" d="M998.1,808.053c-.3,0-.389.186-.2.419l1.346,1.691a1.273,1.273,0,0,0,.877.423h78.6a.5.5,0,0,0,.5-.539l-.054-.815a.593.593,0,0,0-.576-.543Z" transform="translate(-984.63 -749.717)" fill="url(#linear-gradient)"/>
            <path id="Trazado_102481" data-name="Trazado 102481" d="M994.016,871.568c1.908-.146,5.482-.214,7.449-.242a1.783,1.783,0,0,1,1.76,1.363,29.056,29.056,0,0,1,.837,7.2,1.583,1.583,0,0,1-1.6,1.55l-7.259-.078a1.743,1.743,0,0,1-1.717-1.581l-.638-6.829A1.27,1.27,0,0,1,994.016,871.568Z" transform="translate(-980.344 -804.444)" fill="url(#linear-gradient)"/>
            <path id="Trazado_102482" data-name="Trazado 102482" d="M1093.765,893.7a.43.43,0,0,0-.46.512l.342,2.279a.649.649,0,0,0,.621.534h18.751a.534.534,0,0,0,.534-.54l-.018-1.418a.579.579,0,0,0-.547-.563Z" transform="translate(-1067.228 -823.793)" fill="url(#linear-gradient)"/>
            <path id="Trazado_102483" data-name="Trazado 102483" d="M1286.774,871.568c1.908-.146,5.482-.214,7.449-.242a1.783,1.783,0,0,1,1.76,1.363,29.065,29.065,0,0,1,.837,7.2,1.583,1.583,0,0,1-1.6,1.55l-7.26-.078a1.743,1.743,0,0,1-1.717-1.581l-.638-6.829A1.27,1.27,0,0,1,1286.774,871.568Z" transform="translate(-1233.554 -804.444)" fill="url(#linear-gradient)"/>
            <path id="Trazado_102484" data-name="Trazado 102484" d="M1386.523,893.7a.43.43,0,0,0-.46.512l.342,2.279a.649.649,0,0,0,.62.534h18.752a.534.534,0,0,0,.533-.54l-.018-1.418a.579.579,0,0,0-.547-.563Z" transform="translate(-1320.438 -823.793)" fill="url(#linear-gradient)"/>
            <g id="Grupo_55728" data-name="Grupo 55728" transform="translate(14.765 82.771)">
              <path id="Trazado_102485" data-name="Trazado 102485" d="M1018.75,1014.963h-.018l-6.7-.064a1.8,1.8,0,0,1-1.838-1.532l-.589-5.62a1.221,1.221,0,0,1,.288-.918,1.471,1.471,0,0,1,1.025-.506h0c.564-.038,1.359-.106,2.2-.178,1.772-.151,3.977-.339,5.217-.354a1.872,1.872,0,0,1,1.876,1.312,28.087,28.087,0,0,1,.252,6.334A1.655,1.655,0,0,1,1018.75,1014.963Zm-7.795-8.127a.951.951,0,0,0-.666.323.71.71,0,0,0-.171.534l.589,5.62a1.289,1.289,0,0,0,1.331,1.071l6.7.064h.013a1.141,1.141,0,0,0,1.2-1.025,27.957,27.957,0,0,0-.234-6.187,1.382,1.382,0,0,0-1.373-.932c-1.222.016-3.417.2-5.18.353-.844.072-1.641.14-2.209.179Z" transform="translate(-1009.6 -1003.514)" fill="#fff"/>
              <path id="Trazado_102486" data-name="Trazado 102486" d="M1019.438,1015.1c1.407-.1,4.466-.407,5.916-.425a1.3,1.3,0,0,1,1.3.9,22.782,22.782,0,0,1,.194,5,1.115,1.115,0,0,1-1.178,1.019l-5.353-.052a1.237,1.237,0,0,1-1.266-1.04l-.471-4.491A.869.869,0,0,1,1019.438,1015.1Z" transform="translate(-1017.362 -1011.2)" fill="url(#linear-gradient)"/>
              <path id="Trazado_102487" data-name="Trazado 102487" d="M1120.53,1032.7a1.663,1.663,0,0,0,1.623,1.239l61.979-.528a1.258,1.258,0,0,0-.005-2.515l-61.98-.283A1.664,1.664,0,0,0,1120.53,1032.7Z" transform="translate(-1105.497 -1024.982)" fill="url(#linear-gradient)"/>
              <path id="Trazado_102488" data-name="Trazado 102488" d="M1023.68,993.719h0a1.028,1.028,0,0,1,1.418.386l1.321,2.369a.33.33,0,0,0,.589-.026l3.277-7.3a.366.366,0,0,1,.7.158,14.406,14.406,0,0,1-4.191,10.024s-1.965-.764-3.548-4.239A1.079,1.079,0,0,1,1023.68,993.719Z" transform="translate(-1021.319 -988.936)" fill="#392a8d"/>
              <path id="Trazado_102489" data-name="Trazado 102489" d="M1018.75,1121.24h-.018l-6.7-.064a1.8,1.8,0,0,1-1.838-1.531l-.589-5.621a1.221,1.221,0,0,1,.288-.918,1.47,1.47,0,0,1,1.025-.506h0c.564-.038,1.359-.106,2.2-.178,1.772-.151,3.977-.339,5.217-.354h.027a1.868,1.868,0,0,1,1.849,1.312,28.087,28.087,0,0,1,.252,6.334A1.655,1.655,0,0,1,1018.75,1121.24Zm-7.795-8.127a.953.953,0,0,0-.666.323.71.71,0,0,0-.171.534l.589,5.62a1.289,1.289,0,0,0,1.331,1.071l6.7.064h.013a1.141,1.141,0,0,0,1.2-1.025,27.956,27.956,0,0,0-.234-6.187,1.375,1.375,0,0,0-1.373-.932c-1.222.015-3.417.2-5.18.353-.844.072-1.641.14-2.209.179Z" transform="translate(-1009.6 -1095.433)" fill="#fff"/>
              <path id="Trazado_102490" data-name="Trazado 102490" d="M1019.438,1121.38c1.407-.1,4.466-.407,5.916-.425a1.3,1.3,0,0,1,1.3.9,22.782,22.782,0,0,1,.194,5,1.115,1.115,0,0,1-1.178,1.02l-5.353-.052a1.237,1.237,0,0,1-1.266-1.04l-.471-4.491A.87.87,0,0,1,1019.438,1121.38Z" transform="translate(-1017.362 -1103.121)" fill="url(#linear-gradient)"/>
              <path id="Trazado_102491" data-name="Trazado 102491" d="M1120.53,1138.977a1.664,1.664,0,0,0,1.623,1.239l61.979-.528a1.258,1.258,0,0,0-.005-2.515l-61.98-.283A1.664,1.664,0,0,0,1120.53,1138.977Z" transform="translate(-1105.497 -1116.903)" fill="url(#linear-gradient)"/>
              <path id="Trazado_102492" data-name="Trazado 102492" d="M1023.68,1100h0a1.028,1.028,0,0,1,1.418.386l1.321,2.368a.33.33,0,0,0,.589-.026l3.277-7.3a.366.366,0,0,1,.7.158,14.406,14.406,0,0,1-4.191,10.025s-1.965-.764-3.548-4.239A1.079,1.079,0,0,1,1023.68,1100Z" transform="translate(-1021.319 -1080.857)" fill="#392a8d"/>
              <path id="Trazado_102493" data-name="Trazado 102493" d="M1018.75,1227.518h-.018l-6.7-.064a1.8,1.8,0,0,1-1.838-1.531l-.589-5.62a1.221,1.221,0,0,1,.289-.919,1.47,1.47,0,0,1,1.025-.506h0c.564-.038,1.359-.106,2.2-.178,1.772-.151,3.977-.339,5.217-.354h.027a1.868,1.868,0,0,1,1.849,1.312,28.089,28.089,0,0,1,.252,6.334A1.655,1.655,0,0,1,1018.75,1227.518Zm-7.795-8.127a.952.952,0,0,0-.666.324.71.71,0,0,0-.171.534l.589,5.62a1.289,1.289,0,0,0,1.331,1.071l6.7.064h.013a1.141,1.141,0,0,0,1.2-1.025,27.957,27.957,0,0,0-.234-6.187,1.372,1.372,0,0,0-1.373-.932c-1.222.015-3.417.2-5.18.352-.844.072-1.641.14-2.209.178Z" transform="translate(-1009.6 -1187.354)" fill="#fff"/>
              <path id="Trazado_102494" data-name="Trazado 102494" d="M1019.438,1227.658c1.407-.1,4.466-.407,5.916-.425a1.3,1.3,0,0,1,1.3.9,22.781,22.781,0,0,1,.194,5,1.115,1.115,0,0,1-1.178,1.02l-5.353-.051a1.237,1.237,0,0,1-1.266-1.04l-.471-4.491A.87.87,0,0,1,1019.438,1227.658Z" transform="translate(-1017.362 -1195.042)" fill="url(#linear-gradient)"/>
              <path id="Trazado_102495" data-name="Trazado 102495" d="M1120.53,1245.255a1.663,1.663,0,0,0,1.623,1.239l61.979-.529a1.258,1.258,0,0,0-.005-2.515l-61.98-.283A1.663,1.663,0,0,0,1120.53,1245.255Z" transform="translate(-1105.497 -1208.824)" fill="url(#linear-gradient)"/>
              <path id="Trazado_102496" data-name="Trazado 102496" d="M1023.68,1206.275h0a1.028,1.028,0,0,1,1.418.386l1.321,2.368a.33.33,0,0,0,.589-.026l3.277-7.3a.366.366,0,0,1,.7.158,14.406,14.406,0,0,1-4.191,10.025s-1.965-.764-3.548-4.239A1.079,1.079,0,0,1,1023.68,1206.275Z" transform="translate(-1021.319 -1172.778)" fill="#392a8d"/>
              <path id="Trazado_102497" data-name="Trazado 102497" d="M1018.75,1333.8h-.018l-6.7-.064a1.8,1.8,0,0,1-1.838-1.531l-.589-5.62a1.221,1.221,0,0,1,.289-.919,1.47,1.47,0,0,1,1.025-.506h0c.564-.038,1.359-.106,2.2-.178,1.772-.151,3.977-.338,5.217-.354h.027a1.868,1.868,0,0,1,1.849,1.312,28.087,28.087,0,0,1,.252,6.334A1.655,1.655,0,0,1,1018.75,1333.8Zm-7.795-8.127a.952.952,0,0,0-.666.323.711.711,0,0,0-.171.534l.589,5.62a1.288,1.288,0,0,0,1.331,1.071l6.7.064h.013a1.141,1.141,0,0,0,1.2-1.025,27.955,27.955,0,0,0-.234-6.187,1.37,1.37,0,0,0-1.373-.932c-1.222.016-3.417.2-5.18.352-.844.072-1.641.14-2.209.179Z" transform="translate(-1009.6 -1279.276)" fill="#fff"/>
              <path id="Trazado_102498" data-name="Trazado 102498" d="M1019.438,1333.937c1.407-.1,4.466-.407,5.916-.425a1.3,1.3,0,0,1,1.3.9,22.781,22.781,0,0,1,.194,5,1.115,1.115,0,0,1-1.178,1.02l-5.353-.051a1.237,1.237,0,0,1-1.266-1.04l-.471-4.491A.87.87,0,0,1,1019.438,1333.937Z" transform="translate(-1017.362 -1286.964)" fill="url(#linear-gradient)"/>
              <path id="Trazado_102499" data-name="Trazado 102499" d="M1120.53,1351.534h0a1.663,1.663,0,0,0,1.623,1.239l61.979-.528a1.258,1.258,0,0,0-.005-2.516l-61.98-.283A1.663,1.663,0,0,0,1120.53,1351.534Z" transform="translate(-1105.497 -1300.746)" fill="url(#linear-gradient)"/>
              <path id="Trazado_102500" data-name="Trazado 102500" d="M1023.68,1312.553h0a1.028,1.028,0,0,1,1.418.386l1.321,2.368a.33.33,0,0,0,.589-.026l3.277-7.3a.366.366,0,0,1,.7.158,14.406,14.406,0,0,1-4.191,10.025s-1.965-.764-3.548-4.239A1.079,1.079,0,0,1,1023.68,1312.553Z" transform="translate(-1021.319 -1264.699)" fill="#392a8d"/>
            </g>
          </g>
          <path id="Trazado_102501" data-name="Trazado 102501" d="M1243.053,233.983c-3.393-2.361-6.344-2.314-8.42-1.7a4.143,4.143,0,0,0-2.942,4.355l.9,9.776,10.658.946S1249.707,238.613,1243.053,233.983Zm-4.687,7.887a2.658,2.658,0,1,1,2.658-2.658A2.657,2.657,0,0,1,1238.366,241.87Z" transform="translate(-1179.213 -231.926)" fill="url(#linear-gradient-21)"/>
          <path id="Trazado_102502" data-name="Trazado 102502" d="M1242.086,251.467a.257.257,0,0,1-.256-.234l-.143-1.557a.257.257,0,1,1,.512-.047l.143,1.557a.257.257,0,0,1-.233.28Zm-.28-3.051a.257.257,0,0,1-.256-.234l-.108-1.182a3.954,3.954,0,0,1,2.8-4.149,7.965,7.965,0,0,1,3.9-.16.257.257,0,0,1-.1.5,7.466,7.466,0,0,0-3.647.149,3.439,3.439,0,0,0-2.437,3.609l.108,1.182a.257.257,0,0,1-.233.279Z" transform="translate(-1187.649 -241.091)" fill="url(#linear-gradient)"/>
          <path id="Trazado_102503" data-name="Trazado 102503" d="M1130.752,335.27v-4.915a3,3,0,0,1,3.1-3l33.888,1.161a2.917,2.917,0,0,1,2.812,2.741l.283,4.723Z" transform="translate(-1091.926 -314.464)" fill="url(#linear-gradient-23)"/>
          <path id="Trazado_102504" data-name="Trazado 102504" d="M1213.313,337.785h-1.457a.257.257,0,0,1,0-.514h1.457a.257.257,0,0,1,0,.514Z" transform="translate(-1161.851 -323.04)" fill="url(#linear-gradient)"/>
          <path id="Trazado_102505" data-name="Trazado 102505" d="M1142.683,342.3a.257.257,0,0,1-.257-.257v-1.989a2.789,2.789,0,0,1,2.786-2.786h5.358a.257.257,0,0,1,0,.514h-5.358a2.274,2.274,0,0,0-2.272,2.272v1.989A.257.257,0,0,1,1142.683,342.3Z" transform="translate(-1102.023 -323.04)" fill="url(#linear-gradient)"/>
          <path id="Trazado_102506" data-name="Trazado 102506" d="M1030.871,372.617l59.26,0a4.38,4.38,0,0,1,4.316,3.633l.05.29a3.762,3.762,0,0,1-3.707,4.4h-60.8a2.446,2.446,0,0,1-2.443-2.563l.131-2.721A3.193,3.193,0,0,1,1030.871,372.617Z" transform="translate(-1002.663 -353.61)" fill="#392a8d"/>
        </g>
        <g id="Grupo_55731" data-name="Grupo 55731" transform="translate(183.825 147.016)">
          <rect id="Rectángulo_5340" data-name="Rectángulo 5340" width="2.24" height="24.22" transform="translate(10.824 5.427)" fill="url(#linear-gradient-26)"/>
          <path id="Rectángulo_5341" data-name="Rectángulo 5341" d="M1.353,0H18.158a1.458,1.458,0,0,1,1.458,1.458v0a0,0,0,0,1,0,0H0a0,0,0,0,1,0,0V1.353A1.353,1.353,0,0,1,1.353,0Z" transform="translate(2.136 28.656)" fill="url(#linear-gradient-27)"/>
          <rect id="Rectángulo_5342" data-name="Rectángulo 5342" width="24.663" height="6.995" rx="3.497" fill="url(#linear-gradient-28)"/>
        </g>
        <g id="Grupo_55735" data-name="Grupo 55735" transform="translate(150.311 80.112)">
          <g id="Grupo_55732" data-name="Grupo 55732" transform="translate(0 51.634)">
            <path id="Trazado_102507" data-name="Trazado 102507" d="M1723.958,1240.852a19.494,19.494,0,0,0-7.069,3.017,1.865,1.865,0,0,0-.823,1.783,79.076,79.076,0,0,0,8.365,26.255,2.825,2.825,0,0,1,.271,1.938l-1.056,4.911-1.957,1.835h5.041l3.357-9.083-1.435-.454a2.715,2.715,0,0,1-1.9-2.542l-.168-9.744a11.086,11.086,0,0,0-2.662-7.336l8.051-.392Z" transform="translate(-1695.034 -1236.304)" fill="url(#linear-gradient-29)"/>
            <path id="Trazado_102508" data-name="Trazado 102508" d="M1743.038,1474.7c-.459.6,4.941,1.394,7.67.08,0,0,3.782-6.58,3.782-9.969,0,0-.3-.691-2.521-.534,0,0-1.27,7.791-2.611,8.664s-3.752.088-3.752.088A7.9,7.9,0,0,0,1743.038,1474.7Z" transform="translate(-1718.351 -1429.526)" fill="url(#linear-gradient-30)"/>
            <path id="Trazado_102509" data-name="Trazado 102509" d="M1611.243,1259.583c-.043-.074-8.668-1.037-8.668-1.037a19.933,19.933,0,0,1-.6,6.233c-.882,3.61-13.546,19.251-13.546,19.251l1.328,4.209a21.359,21.359,0,0,1-12.118.729l8.229-4.938s7.7-26.245,12.419-30.927l8.646-2.991Z" transform="translate(-1575.321 -1244.312)" fill="url(#linear-gradient-31)"/>
            <path id="Trazado_102510" data-name="Trazado 102510" d="M1763.34,1207.181s4.969,7.391,5.377,10.763-1.361,4.742-6.575,4.967-19.134.222-19.134.222l-11.88-10.153s8.658-3.089,10.909-3.963S1763.34,1207.181,1763.34,1207.181Z" transform="translate(-1708.074 -1207.181)" fill="url(#linear-gradient-32)"/>
            <path id="Trazado_102511" data-name="Trazado 102511" d="M1574.406,1521.857a2.431,2.431,0,0,1,.464,2.925s-11.324,2.007-14.4,1.1c0,0,.639-1.457,4.1-3.116l-.255.2a.413.413,0,0,0,.273.742C1566.871,1523.571,1571.592,1523.153,1574.406,1521.857Z" transform="translate(-1560.471 -1479.348)" fill="url(#linear-gradient-33)"/>
          </g>
          <g id="Grupo_55734" data-name="Grupo 55734" transform="translate(29.691)">
            <path id="Trazado_102512" data-name="Trazado 102512" d="M1844.649,882.579c.751.234,3.458,1.206,3.108,2.946a.318.318,0,0,0,.4.365c1.166-.314,3.743-.71,5.339,1.292,1.41,1.767.356,3.434-.5,4.349a.321.321,0,0,0,.268.542c2.144-.271,6.8-.335,7.565,4.029.711,4.07-2.122,5.218-3.8,5.541a.319.319,0,0,0-.106.583,3.393,3.393,0,0,1,1.417,3.8c-.615,3.4-7.278,3.12-8.057,3.076a.314.314,0,0,1-.139-.042l-10.673-6.087a.322.322,0,0,1-.157-.224l-2.155-12.444a.321.321,0,0,1,.085-.277l5.346-7.683C1841.365,881.681,1844.534,882.543,1844.649,882.579Z" transform="translate(-1829.464 -874.376)" fill="url(#linear-gradient-34)"/>
            <path id="Trazado_102513" data-name="Trazado 102513" d="M1801.784,1014.268a113.431,113.431,0,0,1-8.635-9.16,7.743,7.743,0,0,1-1.311-6.969,96.109,96.109,0,0,1,3.823-9.626c.323-1.082,6.811-1.037,6.811-1.037s12.768,8.287,17.785,22.324l-5.634,1.754a65.83,65.83,0,0,0-6.628-9.149s5.7,7.53,5.9,10.612Z" transform="translate(-1789.995 -965.521)" fill="#a397e3"/>
            <path id="Trazado_102514" data-name="Trazado 102514" d="M1816.385,936.254c.068.225,1.761,5.839,1.894,5.956s3.714.309,5.4-.843l-3.218-7.318Z" transform="translate(-1811.505 -919.312)" fill="url(#linear-gradient-35)"/>
            <g id="Grupo_55733" data-name="Grupo 55733" transform="translate(0.688)">
              <path id="Trazado_102515" data-name="Trazado 102515" d="M1789.012,855.762s-2.612,2.047-3.462,6.855,1.183,6.37,3.138,6.13a9.127,9.127,0,0,0,6.988-4.607C1797.906,860.577,1792.447,853.244,1789.012,855.762Z" transform="translate(-1785.352 -851.155)" fill="url(#linear-gradient-36)"/>
              <path id="Trazado_102516" data-name="Trazado 102516" d="M1794.914,836.211s.533-6.842-5.017-5.415l-1.054,1.263s-2.968-2.908-.085-5.463,7.151-2.249,9.786,1.854,3.692,7.041,1.917,9.828-3.408.616-3.408.616.739-2.356-.075-3.289-1.668.691-1.668.691Z" transform="translate(-1787.208 -824.96)" fill="url(#linear-gradient-37)"/>
              <path id="Trazado_102517" data-name="Trazado 102517" d="M1843.381,904.015s.254-3.519,2.1-2.646-.415,3.3-1.332,4.135Z" transform="translate(-1835.542 -890.926)" fill="url(#linear-gradient-38)"/>
            </g>
            <path id="Trazado_102518" data-name="Trazado 102518" d="M1780.259,1157.607l4.252-4.1,5.881,2.485s5.854.907,9.205,0l3.351-.907,7.572-2.357,1.189,3.361a2.023,2.023,0,0,1-.739,2.325,13.344,13.344,0,0,1-1.912,1.191c-1,.436-24.581-.3-24.581-.3Z" transform="translate(-1780.259 -1108.451)" fill="url(#linear-gradient-39)"/>
          </g>
        </g>
        <g id="Grupo_55736" data-name="Grupo 55736" transform="translate(0 144.056)">
          <path id="Trazado_102519" data-name="Trazado 102519" d="M453.37,1333.377c-.643.951-3.2,22.494-3.6,30.451a.941.941,0,0,0,.942.987h0a.943.943,0,0,0,.932-.8l4.674-29.955Z" transform="translate(-449.502 -1328.64)" fill="url(#linear-gradient-40)"/>
          <path id="Trazado_102520" data-name="Trazado 102520" d="M609.635,1333.377c.643.951,3.2,22.494,3.6,30.451a.941.941,0,0,1-.942.987h0a.943.943,0,0,1-.932-.8l-4.674-29.955Z" transform="translate(-585.22 -1328.64)" fill="url(#linear-gradient-41)"/>
          <path id="Trazado_102521" data-name="Trazado 102521" d="M447.785,1301.365l0,.235a3.2,3.2,0,0,0,3.264,3.107l21.606.367a3.23,3.23,0,0,0,3.382-2.932l.011-.215a3.19,3.19,0,0,0-3.257-3.231l-21.615-.387A3.218,3.218,0,0,0,447.785,1301.365Z" transform="translate(-447.783 -1298.31)" fill="url(#linear-gradient-42)"/>
        </g>
        <g id="Grupo_55741" data-name="Grupo 55741" transform="translate(2.936 76.108)">
          <g id="Grupo_55737" data-name="Grupo 55737" transform="translate(19.089 14.365)">
            <path id="Trazado_102522" data-name="Trazado 102522" d="M737.288,907.84l-.563-.916a2.035,2.035,0,0,0-1.484-.954l-5.991-.743s-.266-.673.835-1.469a1.685,1.685,0,0,0,.45-2.093s-1.472,1.208-3.6,3.068a5.936,5.936,0,0,0-1.854,3.527l-.959,2.1a2.784,2.784,0,0,0,2.62.971l.218-1.609A25.627,25.627,0,0,0,737.288,907.84Z" transform="translate(-708.816 -901.665)" fill="url(#linear-gradient-43)"/>
            <path id="Trazado_102523" data-name="Trazado 102523" d="M626.129,966.049l-3.559,7.8a3.415,3.415,0,0,1-4.291,1.786l-7.294-6.483-.162,13.015,7.6,1.522a7.519,7.519,0,0,0,8.927-6.363l1.4-10.308A2.784,2.784,0,0,1,626.129,966.049Z" transform="translate(-610.824 -957.352)" fill="#392a8d"/>
          </g>
          <g id="Grupo_55738" data-name="Grupo 55738" transform="translate(32.761 98.429)">
            <path id="Trazado_102524" data-name="Trazado 102524" d="M718.614,1548.965c-3.841,0-5.54-.329-6.3-.63a1.457,1.457,0,0,0,1.419,1.129h13.588a.661.661,0,0,0,.637-.834C726.409,1548.754,723.12,1548.965,718.614,1548.965Z" transform="translate(-712.275 -1545.041)" fill="url(#linear-gradient-44)"/>
            <path id="Trazado_102525" data-name="Trazado 102525" d="M727.71,1527.536a.641.641,0,0,0-.111-.231c-1.035-1.322-3.114-3.4-5.942-3.357-4.143.058-5.588.508-8.808.025l-.76,2.518a1.445,1.445,0,0,0-.023.751c.76.3,2.459.63,6.3.63C722.871,1527.872,726.161,1527.66,727.71,1527.536Z" transform="translate(-712.027 -1523.947)" fill="url(#linear-gradient-45)"/>
          </g>
          <path id="Trazado_102526" data-name="Trazado 102526" d="M719.04,1504.055l-.932,3.171a5.482,5.482,0,0,0,3.882.185l.357-2.747Z" transform="translate(-684.526 -1408.314)" fill="url(#linear-gradient-46)"/>
          <g id="Grupo_55739" data-name="Grupo 55739" transform="translate(55.945 93.845)">
            <path id="Trazado_102527" data-name="Trazado 102527" d="M899.521,1499.076c-2.994,2.406-4.524,3.214-5.3,3.457a1.456,1.456,0,0,0,1.81-.013l10.592-8.511a.658.658,0,0,0-.024-1.047C905.466,1494.03,903.033,1496.254,899.521,1499.076Z" transform="translate(-892.789 -1492.565)" fill="url(#linear-gradient-44)"/>
            <path id="Trazado_102528" data-name="Trazado 102528" d="M897.455,1490.413a.64.64,0,0,0-.231-.11c-1.63-.377-4.545-.685-6.725,1.118-3.193,2.64-4.039,3.894-6.85,5.536l.977,2.429a1.432,1.432,0,0,0,.45.6c.78-.243,2.31-1.052,5.3-3.457C893.893,1493.7,896.325,1491.48,897.455,1490.413Z" transform="translate(-883.649 -1490.015)" fill="url(#linear-gradient-48)"/>
          </g>
          <path id="Trazado_102529" data-name="Trazado 102529" d="M549.021,1236.612s22.995,1.877,27.712,4.1-3.85,33.344-3.85,33.344-1.284.618-4.142-.27c0,0,2.93-22.968.75-27.948l-24.9-4.072Z" transform="translate(-534.452 -1176.999)" fill="url(#linear-gradient-49)"/>
          <path id="Trazado_102530" data-name="Trazado 102530" d="M866.736,1500.359c.214.195,2.285,4.372,2.285,4.372s2.306-.5,2.776-1.958l-2.075-3.77Z" transform="translate(-813.076 -1403.943)" fill="url(#linear-gradient-46)"/>
          <path id="Trazado_102531" data-name="Trazado 102531" d="M470.234,1235.189a11.645,11.645,0,0,0-.719,4.2,6.3,6.3,0,0,0,6.016,6.168l27.184,1.24a1.3,1.3,0,0,1,1.2.98c.639,2.471,3.761,10.058,19.024,25.2a1.231,1.231,0,0,0,1.522.166l2.173-1.372a.5.5,0,0,0,.165-.676l-15.828-27.028a6.125,6.125,0,0,0-3.722-2.76l-23.169-5.922Z" transform="translate(-469.514 -1175.768)" fill="url(#linear-gradient-51)"/>
          <path id="Trazado_102532" data-name="Trazado 102532" d="M474.25,985.021a131.931,131.931,0,0,1,2.424-26.153,20.47,20.47,0,0,1,7.343-11.837l1.258-.991,6.3,2.559,4.089,6.208a14.6,14.6,0,0,1,.686,11.454c-2.248,6.273-5.583,15.763-6.35,18.956C490,985.218,479.566,986.6,474.25,985.021Z" transform="translate(-473.604 -925.68)" fill="#392a8d"/>
          <path id="Trazado_102533" data-name="Trazado 102533" d="M556.461,871.714l-4.922,11.419s1.575,3.544,7.087,2.166l1.969-7.875Z" transform="translate(-540.458 -861.395)" fill="url(#linear-gradient-52)"/>
          <path id="Trazado_102534" data-name="Trazado 102534" d="M708.935,1012.2c0-.2,6.3-21.262,6.3-21.262l6.891-1.181-8.269,23.034Z" transform="translate(-676.592 -963.495)" fill="url(#linear-gradient-53)"/>
          <path id="Trazado_102535" data-name="Trazado 102535" d="M706.02,1009.014c.394.394,4.331.394,4.331.394l8.269-24.019-6.5,1.378Z" transform="translate(-674.071 -959.713)" fill="aqua"/>
          <g id="Grupo_55740" data-name="Grupo 55740" transform="translate(13.96)">
            <path id="Trazado_102536" data-name="Trazado 102536" d="M609.321,826.581c.059.159.19,11.409.19,11.409l-6.425-.062-1.708-10.644S608.328,823.911,609.321,826.581Z" transform="translate(-597.525 -821.469)" fill="url(#linear-gradient-54)"/>
            <path id="Trazado_102537" data-name="Trazado 102537" d="M578.591,803.185l.46,5.674a.787.787,0,0,0,.046.211c.155.419.795,1.821,2.19,1.079a7.15,7.15,0,0,1,3.341-1.192.8.8,0,0,1,.729.783,34.381,34.381,0,0,1-.325,5.325.793.793,0,0,1-.842.662,25.615,25.615,0,0,1-5.877-1.042.8.8,0,0,1-.53-.617c-.242-1.4-.994-5.673-1.388-6.83-.369-1.086-1.88-1.457-2.526-1.568a.781.781,0,0,1-.517-.335,2.061,2.061,0,0,1,.721-3.23.8.8,0,0,0,.275-1.113,2.065,2.065,0,0,1,.528-3.034,2.913,2.913,0,0,1,3.574.084.8.8,0,0,0,1.016-.1.629.629,0,0,1,.7-.128.783.783,0,0,0,1.013-.563,2.374,2.374,0,0,1,2.406-1.927c2.846-.123,3.815,2.851,3.476,4.79s-3.432,1.9-5.1,1.318c-1.272-.44-2.575.591-3.127,1.111A.789.789,0,0,0,578.591,803.185Z" transform="translate(-572.853 -795.324)" fill="url(#linear-gradient-55)"/>
            <path id="Trazado_102538" data-name="Trazado 102538" d="M579.91,872.645s.445-3.4-.881-3.927-2.957.25-2.084,2.457C578.03,873.921,579.91,872.645,579.91,872.645Z" transform="translate(-576.179 -858.667)" fill="url(#linear-gradient-56)"/>
          </g>
          <path id="Trazado_102539" data-name="Trazado 102539" d="M545.376,1016.4c-13.987,9.673-19.931-12.393-20.079-12.516-9.056-7.481-8.624,6.1-7.481,7.678,11.57,18.036,25,12.8,29.153,7.261A4.5,4.5,0,0,1,545.376,1016.4Z" transform="translate(-510.772 -973.775)" fill="#392a8d"/>
          <path id="Trazado_102540" data-name="Trazado 102540" d="M583.408,1036.167a.412.412,0,0,1-.266-.1c-3.483-2.93-5.724-7.809-6.99-11.386a.413.413,0,1,1,.778-.275c1.008,2.849,3.225,8.07,6.743,11.029a.413.413,0,0,1-.266.729Z" transform="translate(-561.727 -993.224)" fill="url(#linear-gradient-32)"/>
          <path id="Trazado_102541" data-name="Trazado 102541" d="M529.607,1082.573a.414.414,0,0,1-.159-.032c-4.462-1.869-8.578-5.7-12.232-11.4a.413.413,0,1,1,.695-.446c3.562,5.552,7.551,9.282,11.856,11.085a.413.413,0,0,1-.16.794Z" transform="translate(-510.715 -1033.331)" fill="url(#linear-gradient-32)"/>
          <path id="Trazado_102542" data-name="Trazado 102542" d="M733.385,1056.162a11.749,11.749,0,0,1-1.505,2.449c-1.378,1.969-2.953,3.347-2.166.984s-.2-3.15-1.134-.578a15.27,15.27,0,0,1-1.819,3.727q-.551.433-1.085.8a4.5,4.5,0,0,0,1.593,2.423c.563-.4.87-.666.87-.666s4.528-2.362,4.922-4.725A24.939,24.939,0,0,0,733.385,1056.162Z" transform="translate(-691.072 -1020.926)" fill="url(#linear-gradient-59)"/>
        </g>
        <g id="Grupo_55749" data-name="Grupo 55749" transform="translate(27.843 129.545)">
          <g id="Grupo_55748" data-name="Grupo 55748" transform="translate(4.768 1.17)">
            <g id="Grupo_55742" data-name="Grupo 55742" transform="translate(0 1.194)">
              <path id="Trazado_102543" data-name="Trazado 102543" d="M701.551,1208.391c-.1.422-9.841,36.947-12.31,46.207a1.674,1.674,0,0,0,1.6,2.115h0a1.663,1.663,0,0,0,1.61-1.272l10.811-43.831Z" transform="translate(-689.183 -1208.391)" fill="#7d97f4"/>
            </g>
            <g id="Grupo_55743" data-name="Grupo 55743" transform="translate(15.988 1.088)">
              <path id="Trazado_102544" data-name="Trazado 102544" d="M809.247,1207.6c.1.423,9.841,37.029,12.31,46.309a1.677,1.677,0,0,1-1.6,2.119h0a1.664,1.664,0,0,1-1.61-1.275l-10.811-43.928Z" transform="translate(-807.534 -1207.601)" fill="#7d97f4"/>
            </g>
            <g id="Grupo_55744" data-name="Grupo 55744" transform="translate(12.041)">
              <path id="Trazado_102545" data-name="Trazado 102545" d="M784.384,1199.55h-6.065v4.871a1.26,1.26,0,0,0,1.253,1.268h.832v10.941a.954.954,0,0,0,.948.96h0a.954.954,0,0,0,.948-.96v-10.941h.422a1.672,1.672,0,0,0,1.662-1.682Z" transform="translate(-778.319 -1199.55)" fill="#7d97f4"/>
            </g>
            <g id="Grupo_55745" data-name="Grupo 55745" transform="translate(133.664 1.194)">
              <path id="Trazado_102546" data-name="Trazado 102546" d="M1691.009,1208.391c-.1.422-9.841,36.947-12.31,46.207a1.674,1.674,0,0,0,1.6,2.115h0a1.663,1.663,0,0,0,1.61-1.272l10.811-43.831Z" transform="translate(-1678.641 -1208.391)" fill="#7d97f4"/>
            </g>
            <g id="Grupo_55746" data-name="Grupo 55746" transform="translate(149.652 1.194)">
              <path id="Trazado_102547" data-name="Trazado 102547" d="M1798.705,1208.391c.1.422,9.841,36.947,12.31,46.207a1.674,1.674,0,0,1-1.6,2.115h0a1.663,1.663,0,0,1-1.61-1.272l-10.811-43.831Z" transform="translate(-1796.992 -1208.391)" fill="#7d97f4"/>
            </g>
            <g id="Grupo_55747" data-name="Grupo 55747" transform="translate(145.706)">
              <path id="Trazado_102548" data-name="Trazado 102548" d="M1773.843,1199.55h-6.065v4.871a1.26,1.26,0,0,0,1.252,1.268h.832v10.941a.954.954,0,0,0,.948.96h0a.954.954,0,0,0,.948-.96v-10.941h.422a1.673,1.673,0,0,0,1.662-1.682Z" transform="translate(-1767.778 -1199.55)" fill="#7d97f4"/>
            </g>
          </g>
          <path id="Trazado_102549" data-name="Trazado 102549" d="M655.339,1190.889H825.647a1.04,1.04,0,0,1,1,.788l.473,1.854a1.048,1.048,0,0,1-1.011,1.313l-171.192-.2a1.048,1.048,0,0,1-1-1.307l.411-1.652A1.04,1.04,0,0,1,655.339,1190.889Z" transform="translate(-653.889 -1190.889)" fill="url(#linear-gradient-60)"/>
        </g>
      </g>
      <g id="Grupo_55751" data-name="Grupo 55751" transform="translate(197.344 136.746)">
        <path id="Trazado_102550" data-name="Trazado 102550" d="M508.764,956.265l-.511-.648a.417.417,0,0,1,.656-.517l0,0,.5.654a.413.413,0,0,1-.651.507Z" transform="translate(-501.306 -890.116)" fill="#7d97f4"/>
        <path id="Trazado_102551" data-name="Trazado 102551" d="M497.006,939.424l-.451-.691a.433.433,0,0,1,.725-.473l0,0,.444.7a.428.428,0,0,1-.72.464Z" transform="translate(-491.205 -875.518)" fill="#7d97f4"/>
        <path id="Trazado_102552" data-name="Trazado 102552" d="M486.76,921.626l-.39-.728a.448.448,0,0,1,.791-.424l0,0,.382.732a.444.444,0,0,1-.785.415Z" transform="translate(-482.411 -860.101)" fill="#7d97f4"/>
        <path id="Trazado_102553" data-name="Trazado 102553" d="M478.058,903.03l-.327-.758a.464.464,0,1,1,.852-.368l0,0,.318.761a.459.459,0,0,1-.845.359Z" transform="translate(-474.951 -844.002)" fill="#7d97f4"/>
        <path id="Trazado_102554" data-name="Trazado 102554" d="M470.906,883.789l-.265-.782a.479.479,0,1,1,.908-.307l0,.005.256.785a.475.475,0,0,1-.9.3Z" transform="translate(-468.831 -827.352)" fill="#7d97f4"/>
        <path id="Trazado_102555" data-name="Trazado 102555" d="M465.294,864.049l-.2-.8a.495.495,0,0,1,.959-.243v.005l.194.8a.49.49,0,0,1-.952.236Z" transform="translate(-464.039 -810.277)" fill="#7d97f4"/>
        <path id="Trazado_102556" data-name="Trazado 102556" d="M461.2,843.944l-.142-.813a.51.51,0,1,1,1.005-.176v.005l.133.815a.506.506,0,0,1-1,.168Z" transform="translate(-460.555 -792.893)" fill="#7d97f4"/>
        <path id="Trazado_102557" data-name="Trazado 102557" d="M458.586,823.6l-.083-.821a.526.526,0,0,1,1.046-.105v.006l.073.822a.521.521,0,0,1-1.038.1Z" transform="translate(-458.353 -775.306)" fill="#7d97f4"/>
        <path id="Trazado_102558" data-name="Trazado 102558" d="M457.426,803.125l-.024-.825a.541.541,0,1,1,1.082-.032v.006l.015.825a.537.537,0,0,1-1.073.026Z" transform="translate(-457.401 -757.612)" fill="#7d97f4"/>
        <path id="Trazado_102559" data-name="Trazado 102559" d="M457.474,782.626l.032-.825a.557.557,0,1,1,1.113.044v.006l-.042.824a.552.552,0,0,1-1.1-.049Z" transform="translate(-457.464 -739.902)" fill="#7d97f4"/>
        <path id="Trazado_102560" data-name="Trazado 102560" d="M458.761,762.2l.088-.82a.572.572,0,1,1,1.138.122v.006l-.1.819a.568.568,0,0,1-1.128-.127Z" transform="translate(-458.575 -722.26)" fill="#7d97f4"/>
        <path id="Trazado_102561" data-name="Trazado 102561" d="M461.412,741.93l.143-.814a.588.588,0,1,1,1.157.2v.006l-.152.812a.583.583,0,0,1-1.148-.208Z" transform="translate(-460.863 -704.756)" fill="#7d97f4"/>
        <path id="Trazado_102562" data-name="Trazado 102562" d="M465.446,721.971l.2-.8a.6.6,0,0,1,1.156.287v0l-.2.8a.593.593,0,0,1-1.151-.289Z" transform="translate(-464.344 -687.533)" fill="#7d97f4"/>
        <path id="Trazado_102563" data-name="Trazado 102563" d="M470.819,702.344l.252-.786a.6.6,0,0,1,1.15.368v0l-.257.785a.6.6,0,0,1-1.144-.37Z" transform="translate(-468.981 -670.599)" fill="#7d97f4"/>
        <path id="Trazado_102564" data-name="Trazado 102564" d="M477.5,683.149l.3-.767a.612.612,0,1,1,1.137.451v0l-.309.766a.609.609,0,0,1-1.131-.453Z" transform="translate(-474.747 -654.041)" fill="#7d97f4"/>
        <path id="Trazado_102565" data-name="Trazado 102565" d="M485.475,664.473l.357-.746a.62.62,0,1,1,1.118.535v0l-.361.744a.617.617,0,0,1-1.112-.537Z" transform="translate(-481.63 -637.937)" fill="#7d97f4"/>
        <path id="Trazado_102566" data-name="Trazado 102566" d="M494.739,646.427l.409-.718a.628.628,0,0,1,1.092.621l0,0-.413.716a.626.626,0,0,1-1.086-.622Z" transform="translate(-489.625 -622.383)" fill="#7d97f4"/>
        <path id="Trazado_102567" data-name="Trazado 102567" d="M505.274,629.118l.459-.686a.636.636,0,0,1,1.057.707l0,0-.463.683a.634.634,0,0,1-1.051-.708Z" transform="translate(-498.714 -607.47)" fill="#7d97f4"/>
        <path id="Trazado_102568" data-name="Trazado 102568" d="M517.041,612.642l.505-.653a.644.644,0,1,1,1.018.789l0,0-.509.65a.642.642,0,0,1-1.012-.789Z" transform="translate(-508.868 -593.277)" fill="#7d97f4"/>
        <path id="Trazado_102569" data-name="Trazado 102569" d="M529.892,597l.547-.619a.652.652,0,0,1,.977.864l0,0-.55.615a.65.65,0,0,1-.971-.863Z" transform="translate(-519.959 -579.8)" fill="#7d97f4"/>
        <path id="Trazado_102570" data-name="Trazado 102570" d="M543.731,582.225l.584-.583a.66.66,0,0,1,.932.935l0,0-.588.579a.658.658,0,0,1-.926-.935Z" transform="translate(-531.901 -567.079)" fill="#7d97f4"/>
        <path id="Trazado_102571" data-name="Trazado 102571" d="M558.476,568.359l.619-.546a.668.668,0,0,1,.884,1l0,0-.623.542a.666.666,0,0,1-.878-1Z" transform="translate(-544.627 -555.14)" fill="#7d97f4"/>
        <path id="Trazado_102572" data-name="Trazado 102572" d="M574.049,555.424l.651-.508a.676.676,0,0,1,.832,1.066l0,0-.654.5a.674.674,0,0,1-.826-1.065Z" transform="translate(-558.067 -544.006)" fill="#7d97f4"/>
        <path id="Trazado_102573" data-name="Trazado 102573" d="M590.366,543.438l.679-.469a.685.685,0,0,1,.779,1.126l0,0-.682.465a.682.682,0,0,1-.772-1.124Z" transform="translate(-572.15 -533.691)" fill="#7d97f4"/>
        <path id="Trazado_102574" data-name="Trazado 102574" d="M607.353,532.409l.7-.431a.693.693,0,0,1,.723,1.182l0,0-.707.426a.69.69,0,0,1-.717-1.18Z" transform="translate(-586.811 -524.202)" fill="#7d97f4"/>
        <path id="Trazado_102575" data-name="Trazado 102575" d="M624.927,522.356l.727-.39a.7.7,0,1,1,.661,1.232h0l-.728.389a.7.7,0,0,1-.659-1.231Z" transform="translate(-601.977 -515.558)" fill="#7d97f4"/>
        <path id="Trazado_102576" data-name="Trazado 102576" d="M643.076,513.3l.747-.351a.7.7,0,0,1,.6,1.268h0l-.748.35a.7.7,0,0,1-.595-1.268Z" transform="translate(-617.645 -507.773)" fill="#7d97f4"/>
        <path id="Trazado_102577" data-name="Trazado 102577" d="M661.689,505.2l.764-.312a.7.7,0,0,1,.531,1.3h0l-.765.311a.7.7,0,0,1-.53-1.3Z" transform="translate(-633.714 -500.818)" fill="#7d97f4"/>
        <path id="Trazado_102578" data-name="Trazado 102578" d="M680.7,498.071l.778-.273a.7.7,0,1,1,.466,1.329h0l-.779.272a.7.7,0,0,1-.465-1.328Z" transform="translate(-650.13 -494.693)" fill="#7d97f4"/>
        <path id="Trazado_102579" data-name="Trazado 102579" d="M700.051,491.9l.792-.235a.706.706,0,0,1,.4,1.354h0l-.792.234a.705.705,0,0,1-.4-1.353Z" transform="translate(-666.835 -489.395)" fill="#7d97f4"/>
        <path id="Trazado_102580" data-name="Trazado 102580" d="M719.7,486.678l.8-.2a.708.708,0,1,1,.336,1.375h0l-.8.2a.707.707,0,0,1-.335-1.374Z" transform="translate(-683.801 -484.922)" fill="#7d97f4"/>
        <path id="Trazado_102581" data-name="Trazado 102581" d="M739.6,482.42l.81-.157a.709.709,0,0,1,.27,1.393h0l-.811.156a.709.709,0,0,1-.269-1.392Z" transform="translate(-700.982 -481.28)" fill="#7d97f4"/>
        <path id="Trazado_102582" data-name="Trazado 102582" d="M759.683,479.125l.817-.118a.711.711,0,0,1,.2,1.408h0l-.817.117a.711.711,0,0,1-.2-1.407Z" transform="translate(-718.322 -478.468)" fill="#7d97f4"/>
        <path id="Trazado_102583" data-name="Trazado 102583" d="M779.911,476.8l.822-.079a.713.713,0,1,1,.136,1.419h0l-.822.078a.712.712,0,0,1-.135-1.418Z" transform="translate(-735.787 -476.491)" fill="#7d97f4"/>
        <path id="Trazado_102584" data-name="Trazado 102584" d="M800.24,475.441l.826-.039a.714.714,0,1,1,.068,1.427h0l-.826.038a.714.714,0,0,1-.067-1.426Z" transform="translate(-753.339 -475.356)" fill="#7d97f4"/>
        <path id="Trazado_102585" data-name="Trazado 102585" d="M820.621,475.068h.831a.716.716,0,1,1,0,1.432h-.007l-.82,0h0a.716.716,0,0,1,0-1.431Z" transform="translate(-770.935 -475.068)" fill="#7d97f4"/>
        <path id="Trazado_102586" data-name="Trazado 102586" d="M841.02,475.4l.825.037a.718.718,0,1,1-.065,1.434h0l-.825-.038a.717.717,0,0,1,.065-1.433Z" transform="translate(-788.549 -475.359)" fill="#7d97f4"/>
        <path id="Trazado_102587" data-name="Trazado 102587" d="M861.37,476.632l.822.073a.72.72,0,1,1-.126,1.434h0l-.822-.074a.719.719,0,0,1,.127-1.432Z" transform="translate(-806.122 -476.419)" fill="#7d97f4"/>
        <path id="Trazado_102588" data-name="Trazado 102588" d="M881.648,478.722l.818.107a.721.721,0,1,1-.186,1.431h0l-.818-.108a.721.721,0,0,1,.187-1.429Z" transform="translate(-823.633 -478.223)" fill="#7d97f4"/>
        <path id="Trazado_102589" data-name="Trazado 102589" d="M901.821,481.646l.814.14a.723.723,0,1,1-.245,1.425h0l-.813-.141a.722.722,0,0,1,.245-1.424Z" transform="translate(-841.054 -480.749)" fill="#7d97f4"/>
        <path id="Trazado_102590" data-name="Trazado 102590" d="M921.859,485.375l.807.171a.725.725,0,1,1-.3,1.418h0l-.807-.172a.724.724,0,0,1,.3-1.417Z" transform="translate(-858.36 -483.968)" fill="#7d97f4"/>
        <path id="Trazado_102591" data-name="Trazado 102591" d="M941.738,489.875l.8.2a.726.726,0,0,1-.355,1.409h0l-.8-.2a.726.726,0,0,1,.356-1.408Z" transform="translate(-875.528 -487.855)" fill="#7d97f4"/>
        <path id="Trazado_102592" data-name="Trazado 102592" d="M961.434,495.114l.792.231a.728.728,0,1,1-.407,1.4h0l-.792-.232a.728.728,0,0,1,.408-1.4Z" transform="translate(-892.539 -492.381)" fill="#7d97f4"/>
        <path id="Trazado_102593" data-name="Trazado 102593" d="M980.927,501.06l.784.259a.73.73,0,0,1-.457,1.386h0l-.783-.26a.729.729,0,0,1,.458-1.385Z" transform="translate(-909.376 -497.517)" fill="#7d97f4"/>
        <path id="Trazado_102594" data-name="Trazado 102594" d="M1000.192,507.679l.774.287a.73.73,0,0,1-.5,1.37l-.775-.284a.731.731,0,1,1,.5-1.373Z" transform="translate(-926.015 -503.234)" fill="#7d97f4"/>
        <path id="Trazado_102595" data-name="Trazado 102595" d="M1019.266,514.984l.763.311a.726.726,0,0,1-.547,1.345l-.764-.309a.727.727,0,1,1,.546-1.348Z" transform="translate(-942.499 -509.545)" fill="#7d97f4"/>
        <path id="Trazado_102596" data-name="Trazado 102596" d="M1038.086,522.9l.754.336a.722.722,0,0,1-.585,1.32l-.755-.333a.723.723,0,1,1,.584-1.323Z" transform="translate(-958.763 -516.381)" fill="#7d97f4"/>
        <path id="Trazado_102597" data-name="Trazado 102597" d="M1056.656,531.4l.744.359a.718.718,0,0,1-.622,1.294l-.745-.357a.719.719,0,1,1,.621-1.3Z" transform="translate(-974.811 -523.724)" fill="#7d97f4"/>
        <path id="Trazado_102598" data-name="Trazado 102598" d="M1074.966,540.452l.733.381a.714.714,0,0,1-.656,1.268l-.735-.379a.715.715,0,0,1,.656-1.271Z" transform="translate(-990.637 -531.549)" fill="#7d97f4"/>
        <path id="Trazado_102599" data-name="Trazado 102599" d="M1093.006,550.041l.722.4a.71.71,0,0,1-.688,1.241l-.724-.4a.711.711,0,1,1,.688-1.245Z" transform="translate(-1006.229 -539.835)" fill="#7d97f4"/>
        <path id="Trazado_102600" data-name="Trazado 102600" d="M1110.771,560.138l.711.422a.706.706,0,0,1-.719,1.215l-.712-.42a.707.707,0,0,1,.718-1.218Z" transform="translate(-1021.585 -548.56)" fill="#7d97f4"/>
        <path id="Trazado_102601" data-name="Trazado 102601" d="M1128.25,570.719l.7.441a.7.7,0,0,1-.747,1.188l-.7-.439a.7.7,0,0,1,.747-1.192Z" transform="translate(-1036.694 -557.704)" fill="#7d97f4"/>
        <path id="Trazado_102602" data-name="Trazado 102602" d="M1145.439,581.763l.687.459a.7.7,0,0,1-.774,1.161l-.688-.457a.7.7,0,0,1,.773-1.165Z" transform="translate(-1051.553 -567.248)" fill="#7d97f4"/>
        <path id="Trazado_102603" data-name="Trazado 102603" d="M1162.329,593.249l.675.476a.694.694,0,0,1-.8,1.135l-.676-.474a.7.7,0,1,1,.8-1.138Z" transform="translate(-1066.154 -577.174)" fill="#7d97f4"/>
        <path id="Trazado_102604" data-name="Trazado 102604" d="M1178.929,605.125l.664.49a.69.69,0,0,1-.817,1.112l-.665-.488a.691.691,0,1,1,.817-1.115Z" transform="translate(-1080.507 -587.439)" fill="#7d97f4"/>
        <path id="Trazado_102605" data-name="Trazado 102605" d="M1195.291,617.331l.655.5a.686.686,0,0,1-.832,1.091l-.657-.5a.687.687,0,0,1,.832-1.094Z" transform="translate(-1094.655 -597.991)" fill="#7d97f4"/>
        <path id="Trazado_102606" data-name="Trazado 102606" d="M1211.44,629.8l.648.51a.682.682,0,0,1-.842,1.072l-.65-.509a.683.683,0,0,1,.842-1.076Z" transform="translate(-1108.622 -608.767)" fill="#7d97f4"/>
        <path id="Trazado_102607" data-name="Trazado 102607" d="M1227.43,642.467l.643.517a.678.678,0,0,1-.849,1.057l-.644-.516a.679.679,0,1,1,.848-1.06Z" transform="translate(-1122.453 -619.724)" fill="#7d97f4"/>
        <path id="Trazado_102608" data-name="Trazado 102608" d="M1243.306,655.287l.64.522a.674.674,0,0,1-.851,1.045l-.641-.52a.675.675,0,1,1,.851-1.048Z" transform="translate(-1136.187 -630.81)" fill="#7d97f4"/>
        <path id="Trazado_102609" data-name="Trazado 102609" d="M1259.112,668.2l.638.524a.67.67,0,0,1-.849,1.036l-.639-.522a.671.671,0,1,1,.849-1.039Z" transform="translate(-1149.861 -641.976)" fill="#7d97f4"/>
        <path id="Trazado_102610" data-name="Trazado 102610" d="M1274.892,681.139l.638.524a.666.666,0,0,1-.843,1.03l-.64-.522a.667.667,0,0,1,.844-1.034Z" transform="translate(-1163.516 -653.17)" fill="#7d97f4"/>
        <path id="Trazado_102611" data-name="Trazado 102611" d="M1290.693,694.056l.64.521a.662.662,0,0,1-.834,1.027l-.642-.52a.663.663,0,1,1,.834-1.031Z" transform="translate(-1177.189 -664.344)" fill="#7d97f4"/>
        <path id="Trazado_102612" data-name="Trazado 102612" d="M1306.557,706.888l.644.517a.658.658,0,0,1-.822,1.027l-.646-.515a.659.659,0,1,1,.822-1.03Z" transform="translate(-1190.919 -675.447)" fill="#7d97f4"/>
        <path id="Trazado_102613" data-name="Trazado 102613" d="M1322.53,719.579l.65.509a.654.654,0,0,1-.805,1.03l-.651-.508a.655.655,0,1,1,.805-1.033Z" transform="translate(-1204.745 -686.428)" fill="#7d97f4"/>
        <path id="Trazado_102614" data-name="Trazado 102614" d="M1338.65,732.066l.656.5h0a.65.65,0,0,1-.785,1.036l-.66-.5a.651.651,0,1,1,.785-1.039h0Z" transform="translate(-1218.699 -697.233)" fill="#7d97f4"/>
        <path id="Trazado_102615" data-name="Trazado 102615" d="M1354.977,744.293l.666.487a.646.646,0,0,1-.761,1.044l-.668-.485a.647.647,0,0,1,.761-1.047Z" transform="translate(-1232.835 -707.816)" fill="#7d97f4"/>
        <path id="Trazado_102616" data-name="Trazado 102616" d="M1371.54,756.186l.677.472a.642.642,0,0,1-.733,1.054l-.679-.47a.643.643,0,0,1,.733-1.057Z" transform="translate(-1247.176 -718.11)" fill="#7d97f4"/>
        <path id="Trazado_102617" data-name="Trazado 102617" d="M1388.37,767.69l.689.455a.637.637,0,0,1-.7,1.065l-.691-.453a.639.639,0,0,1,.7-1.069Z" transform="translate(-1261.75 -728.068)" fill="#7d97f4"/>
        <path id="Trazado_102618" data-name="Trazado 102618" d="M1405.518,778.769l.7.436a.628.628,0,0,1-.661,1.069l-.7-.432a.631.631,0,1,1,.66-1.076Z" transform="translate(-1276.604 -737.66)" fill="#7d97f4"/>
        <path id="Trazado_102619" data-name="Trazado 102619" d="M1423,789.342l.714.414a.619.619,0,0,1-.616,1.074l-.717-.409a.622.622,0,0,1,.616-1.081Z" transform="translate(-1291.75 -746.815)" fill="#7d97f4"/>
        <path id="Trazado_102620" data-name="Trazado 102620" d="M1440.82,799.324l.729.388a.61.61,0,0,1-.569,1.079l-.731-.383a.613.613,0,1,1,.568-1.086Z" transform="translate(-1307.193 -755.459)" fill="#7d97f4"/>
        <path id="Trazado_102621" data-name="Trazado 102621" d="M1459,808.638l.745.359a.6.6,0,0,1-.518,1.084l-.747-.354a.6.6,0,1,1,.516-1.091Z" transform="translate(-1322.943 -763.525)" fill="#7d97f4"/>
        <path id="Trazado_102622" data-name="Trazado 102622" d="M1477.545,817.206l.758.326a.592.592,0,0,1-.463,1.089l-.76-.32a.594.594,0,0,1,.461-1.1Z" transform="translate(-1339.019 -770.945)" fill="#7d97f4"/>
        <path id="Trazado_102623" data-name="Trazado 102623" d="M1496.442,824.93l.772.289a.582.582,0,0,1-.4,1.092l-.774-.284a.585.585,0,0,1,.4-1.1Z" transform="translate(-1355.396 -777.636)" fill="#7d97f4"/>
        <path id="Trazado_102624" data-name="Trazado 102624" d="M1515.683,831.728l.786.249a.573.573,0,0,1-.343,1.094l-.787-.244a.576.576,0,1,1,.341-1.1Z" transform="translate(-1372.073 -783.524)" fill="#7d97f4"/>
        <path id="Trazado_102625" data-name="Trazado 102625" d="M1535.249,837.514l.8.206a.564.564,0,0,1-.278,1.093l-.8-.2a.567.567,0,0,1,.276-1.1Z" transform="translate(-1389.032 -788.536)" fill="#7d97f4"/>
        <path id="Trazado_102626" data-name="Trazado 102626" d="M1555.108,842.187l.81.157a.555.555,0,0,1-.207,1.09l-.812-.151a.558.558,0,1,1,.2-1.1Z" transform="translate(-1406.247 -792.584)" fill="#7d97f4"/>
        <path id="Trazado_102627" data-name="Trazado 102627" d="M1575.22,845.6l.819.1a.546.546,0,0,1-.135,1.083l-.82-.1a.548.548,0,0,1,.132-1.089Z" transform="translate(-1423.681 -795.545)" fill="#7d97f4"/>
        <path id="Trazado_102628" data-name="Trazado 102628" d="M1595.505,847.727l.824.051a.536.536,0,0,1-.063,1.071l-.824-.046a.539.539,0,1,1,.06-1.077Z" transform="translate(-1441.266 -797.384)" fill="#7d97f4"/>
        <path id="Trazado_102629" data-name="Trazado 102629" d="M1615.882,848.495l.826,0a.527.527,0,0,1,.009,1.054l-.825.009a.53.53,0,1,1-.012-1.06Z" transform="translate(-1458.929 -798.046)" fill="#7d97f4"/>
        <path id="Trazado_102630" data-name="Trazado 102630" d="M1636.261,847.542l.823-.061a.518.518,0,0,1,.08,1.033l-.823.067a.521.521,0,1,1-.084-1.038Z" transform="translate(-1476.594 -797.171)" fill="#7d97f4"/>
        <path id="Trazado_102631" data-name="Trazado 102631" d="M1656.542,845.139l.816-.121a.509.509,0,0,1,.153,1.006l-.816.127a.512.512,0,0,1-.157-1.011Z" transform="translate(-1494.175 -795.037)" fill="#7d97f4"/>
        <path id="Trazado_102632" data-name="Trazado 102632" d="M1676.611,841.22l.8-.184a.5.5,0,0,1,.226.973l-.8.189a.5.5,0,0,1-.23-.978Z" transform="translate(-1511.572 -791.587)" fill="#7d97f4"/>
        <path id="Trazado_102633" data-name="Trazado 102633" d="M1696.333,835.719l.787-.249a.49.49,0,0,1,.3.934l-.785.254a.493.493,0,1,1-.3-.938Z" transform="translate(-1528.67 -786.764)" fill="#7d97f4"/>
        <path id="Trazado_102634" data-name="Trazado 102634" d="M1715.553,828.589l.763-.316a.48.48,0,0,1,.371.886l-.76.323a.484.484,0,0,1-.378-.891Z" transform="translate(-1545.333 -780.527)" fill="#7d97f4"/>
        <path id="Trazado_102635" data-name="Trazado 102635" d="M1734.133,819.818l.731-.383a.465.465,0,0,1,.437.821l-.727.392a.47.47,0,1,1-.446-.827Z" transform="translate(-1561.444 -772.868)" fill="#7d97f4"/>
        <path id="Trazado_102636" data-name="Trazado 102636" d="M1751.852,809.364l.69-.451a.45.45,0,0,1,.5.75l-.685.459a.454.454,0,1,1-.506-.755Z" transform="translate(-1576.809 -763.75)" fill="#7d97f4"/>
        <path id="Trazado_102637" data-name="Trazado 102637" d="M1768.482,797.219l.639-.523a.435.435,0,0,1,.554.67l-.633.53a.439.439,0,1,1-.563-.674Z" transform="translate(-1591.231 -753.163)" fill="#7d97f4"/>
        <path id="Trazado_102638" data-name="Trazado 102638" d="M1783.721,783.339l.577-.591a.419.419,0,0,1,.6.583l-.57.6a.424.424,0,0,1-.613-.586Z" transform="translate(-1604.446 -741.075)" fill="#7d97f4"/>
        <path id="Trazado_102639" data-name="Trazado 102639" d="M1797.383,767.937l.51-.649a.4.4,0,0,1,.638.5l-.5.655a.409.409,0,1,1-.648-.5Z" transform="translate(-1616.292 -727.679)" fill="#7d97f4"/>
        <path id="Trazado_102640" data-name="Trazado 102640" d="M1809.362,751.231l.439-.7a.389.389,0,0,1,.661.41l-.431.7a.393.393,0,1,1-.671-.411Z" transform="translate(-1626.676 -713.162)" fill="#7d97f4"/>
        <path id="Trazado_102641" data-name="Trazado 102641" d="M1819.551,733.42l.364-.741a.374.374,0,0,1,.673.325l-.355.745a.378.378,0,0,1-.683-.326Z" transform="translate(-1635.507 -697.698)" fill="#7d97f4"/>
        <path id="Trazado_102642" data-name="Trazado 102642" d="M1827.829,714.693l.282-.776a.358.358,0,0,1,.675.242l-.274.779a.363.363,0,0,1-.685-.241Z" transform="translate(-1642.682 -681.447)" fill="#7d97f4"/>
        <path id="Trazado_102643" data-name="Trazado 102643" d="M1834.05,695.244l.195-.8a.343.343,0,0,1,.668.158l-.186.8a.348.348,0,1,1-.678-.157Z" transform="translate(-1648.073 -664.58)" fill="#7d97f4"/>
        <path id="Trazado_102644" data-name="Trazado 102644" d="M1838.045,675.289l.1-.82a.328.328,0,0,1,.651.076l-.091.821a.333.333,0,1,1-.661-.073Z" transform="translate(-1651.534 -647.283)" fill="#7d97f4"/>
        <path id="Trazado_102645" data-name="Trazado 102645" d="M1839.605,655.085l0-.826a.313.313,0,0,1,.626-.006l.012.825a.317.317,0,0,1-.635.01Z" transform="translate(-1652.883 -629.781)" fill="#7d97f4"/>
        <path id="Trazado_102646" data-name="Trazado 102646" d="M1837.883,634.952l-.114-.818a.3.3,0,0,1,.589-.085l.123.816a.3.3,0,0,1-.6.09Z" transform="translate(-1651.296 -612.354)" fill="#7d97f4"/>
        <path id="Trazado_102647" data-name="Trazado 102647" d="M1833.385,615.266l-.228-.794a.282.282,0,0,1,.542-.159l.236.791a.287.287,0,0,1-.55.164Z" transform="translate(-1647.299 -595.329)" fill="#7d97f4"/>
      </g>
    </g>
  </g>
</svg>
