<svg xmlns="http://www.w3.org/2000/svg" width="96.217" height="102.433" viewBox="0 0 96.217 102.433">
  <g id="Grupo_56222" data-name="Grupo 56222" transform="translate(-239.783 -3402)">
    <g id="obediente" transform="translate(224.25 3402)">
      <path id="Trazado_102649" data-name="Trazado 102649" d="M178.763,0H113.13A1.03,1.03,0,0,0,112.1,1.031v86.6l.273.2h13.95a1.861,1.861,0,0,1,1.861,1.861V94h1.77a1.861,1.861,0,0,1,1.861,1.861v6.373l.2.2h46.749a1.03,1.03,0,0,0,1.03-1.03V1.03A1.03,1.03,0,0,0,178.763,0Z" transform="translate(-77.247 0)" fill="#d8ffff"/>
      <g id="Grupo_55755" data-name="Grupo 55755" transform="translate(34.852 0)">
        <path id="Trazado_102650" data-name="Trazado 102650" d="M118.858,29.6c.062,0,.123,0,.184,0V1.031A1.03,1.03,0,0,1,120.072,0H113.13A1.03,1.03,0,0,0,112.1,1.031V29.6Z" transform="translate(-112.099 0)" fill="aqua"/>
        <path id="Trazado_102651" data-name="Trazado 102651" d="M118.858,395.725H112.1v8.458h6.943V395.72C118.98,395.722,118.919,395.725,118.858,395.725Z" transform="translate(-112.099 -316.551)" fill="aqua"/>
      </g>
      <g id="Grupo_55772" data-name="Grupo 55772" transform="translate(15.533 29.602)">
        <g id="Grupo_55756" data-name="Grupo 55756" transform="translate(27.978 21.262)">
          <path id="Trazado_102652" data-name="Trazado 102652" d="M155.378,254.239h9.94v7.048h-9.94Z" transform="translate(-155.378 -254.239)" fill="#d7c8f2"/>
          <path id="Trazado_102653" data-name="Trazado 102653" d="M235.944,254.239H249.97v7.048H235.944Z" transform="translate(-219.826 -254.239)" fill="#d7c8f2"/>
        </g>
        <g id="Grupo_55757" data-name="Grupo 55757" transform="translate(27.978 24.912)">
          <path id="Trazado_102654" data-name="Trazado 102654" d="M155.378,272.483h9.94v3.4h-9.94Z" transform="translate(-155.378 -272.483)" fill="#5e448f"/>
          <path id="Trazado_102655" data-name="Trazado 102655" d="M235.944,272.483H249.97v3.4H235.944Z" transform="translate(-219.826 -272.483)" fill="#5e448f"/>
        </g>
        <g id="Grupo_55758" data-name="Grupo 55758" transform="translate(57.923 19.617)">
          <path id="Trazado_102656" data-name="Trazado 102656" d="M343.349,251.187a5.169,5.169,0,0,1-5.169,5.169H306.229a1.175,1.175,0,0,1-1.175-1.175v-7.988a1.175,1.175,0,0,1,1.175-1.175H338.18A5.169,5.169,0,0,1,343.349,251.187Z" transform="translate(-305.054 -246.018)" fill="#5e448f"/>
        </g>
        <g id="Grupo_55759" data-name="Grupo 55759" transform="translate(57.923 19.617)">
          <path id="Trazado_102657" data-name="Trazado 102657" d="M312.078,251.93a1.175,1.175,0,0,1-1.175-1.175v-4.738h-4.675a1.175,1.175,0,0,0-1.175,1.175v7.988a1.175,1.175,0,0,0,1.175,1.175H338.18a5.169,5.169,0,0,0,5.114-4.424Z" transform="translate(-305.054 -246.017)" fill="#d7c8f2"/>
        </g>
        <g id="Grupo_55760" data-name="Grupo 55760" transform="translate(37.718 19.617)">
          <path id="Trazado_102658" data-name="Trazado 102658" d="M210.641,247.049v8.276a1.03,1.03,0,0,1-1.031,1.031h-4.517a1.03,1.03,0,0,1-1.031-1.031v-8.276a1.03,1.03,0,0,1,1.031-1.031h4.517a1.03,1.03,0,0,1,1.031,1.031Z" transform="translate(-204.063 -246.018)" fill="#d7c8f2"/>
        </g>
        <g id="Grupo_55761" data-name="Grupo 55761" transform="translate(37.718 19.617)">
          <path id="Trazado_102659" data-name="Trazado 102659" d="M207.051,255.325v-8.276a1.03,1.03,0,0,1,1.031-1.031h-2.988a1.03,1.03,0,0,0-1.031,1.031v8.276a1.03,1.03,0,0,0,1.031,1.031h2.988A1.031,1.031,0,0,1,207.051,255.325Z" transform="translate(-204.063 -246.018)" fill="#a397e3"/>
        </g>
        <g id="Grupo_55762" data-name="Grupo 55762" transform="translate(12.804 9.888)">
          <path id="Trazado_102660" data-name="Trazado 102660" d="M92.847,313.014h-13a1.843,1.843,0,0,1-.314-.029v6.669c.117-.008.234-.014.353-.014H92.808c.119,0,.236.006.352.014v-6.669A1.847,1.847,0,0,1,92.847,313.014Z" transform="translate(-79.534 -289.858)" fill="#d7c8f2"/>
          <path id="Trazado_102661" data-name="Trazado 102661" d="M79.847,313.014a1.843,1.843,0,0,1-.313-.029v6.669c.117-.008.234-.014.353-.014h4.838v-6.626Z" transform="translate(-79.534 -289.858)" fill="#d7c8f2"/>
          <path id="Trazado_102662" data-name="Trazado 102662" d="M79.847,204.028h13a1.839,1.839,0,0,1,.313.029v-6.669c-.117.008-.234.014-.352.014H79.886c-.119,0-.236-.006-.353-.014v6.669A1.861,1.861,0,0,1,79.847,204.028Z" transform="translate(-79.533 -197.388)" fill="#d7c8f2"/>
          <path id="Trazado_102663" data-name="Trazado 102663" d="M79.847,204.027h4.877V197.4H79.887c-.119,0-.236-.006-.353-.014v6.669A1.879,1.879,0,0,1,79.847,204.027Z" transform="translate(-79.534 -197.387)" fill="#d7c8f2"/>
        </g>
        <g id="Grupo_55763" data-name="Grupo 55763" transform="translate(11.057 16.328)">
          <path id="Trazado_102664" data-name="Trazado 102664" d="M87.92,231.639v12.793a2.061,2.061,0,0,1-2.061,2.061h-13a2.061,2.061,0,0,1-2.061-2.061V231.639a2.061,2.061,0,0,1,2.061-2.061h13A2.061,2.061,0,0,1,87.92,231.639Z" transform="translate(-70.799 -229.578)" fill="#5e448f"/>
        </g>
        <g id="Grupo_55764" data-name="Grupo 55764" transform="translate(11.057 16.328)">
          <path id="Trazado_102665" data-name="Trazado 102665" d="M77.76,244.433V231.639a2.061,2.061,0,0,1,2.061-2.061H72.86a2.061,2.061,0,0,0-2.061,2.061v12.793a2.061,2.061,0,0,0,2.061,2.061h6.961A2.061,2.061,0,0,1,77.76,244.433Z" transform="translate(-70.799 -229.578)" fill="#a397e3"/>
        </g>
        <path id="Trazado_102666" data-name="Trazado 102666" d="M65.655,444.385v-4.306a2.061,2.061,0,0,0-2.061-2.061H35.743a2.061,2.061,0,0,0-2.061,2.061v4.306Z" transform="translate(-30.051 -379.989)" fill="#5e448f"/>
        <path id="Trazado_102667" data-name="Trazado 102667" d="M40.66,444.385c-.007-.068-.01-.136-.01-.205v-4.1a2.061,2.061,0,0,1,2.061-2.061H35.743a2.061,2.061,0,0,0-2.061,2.061v4.306Z" transform="translate(-30.051 -379.988)" fill="#a397e3"/>
        <g id="Grupo_55765" data-name="Grupo 55765" transform="translate(0 64.197)">
          <path id="Trazado_102668" data-name="Trazado 102668" d="M54.767,477.478h-38.2a1.03,1.03,0,0,1-1.031-1.031v-5.542a2.061,2.061,0,0,1,2.061-2.061H52.706a2.061,2.061,0,0,1,2.061,2.061Z" transform="translate(-15.533 -468.844)" fill="#5e448f"/>
        </g>
        <g id="Grupo_55766" data-name="Grupo 55766" transform="translate(0 64.197)">
          <path id="Trazado_102669" data-name="Trazado 102669" d="M22.421,476.447v-5.542a2.061,2.061,0,0,1,2.061-2.061H17.594a2.061,2.061,0,0,0-2.061,2.061v5.542a1.03,1.03,0,0,0,1.031,1.031h6.888A1.03,1.03,0,0,1,22.421,476.447Z" transform="translate(-15.533 -468.844)" fill="#5e448f"/>
        </g>
        <g id="Grupo_55771" data-name="Grupo 55771" transform="translate(8.105)">
          <g id="Grupo_55767" data-name="Grupo 55767" transform="translate(0 39.469)">
            <path id="Trazado_102670" data-name="Trazado 102670" d="M79.071,350.3a5.051,5.051,0,0,1-5.051,5.051H61.1a5.051,5.051,0,0,1,0-10.1H74.02A5.051,5.051,0,0,1,79.071,350.3Z" transform="translate(-56.047 -345.247)" fill="#5e448f"/>
          </g>
          <g id="Grupo_55768" data-name="Grupo 55768" transform="translate(0 39.469)">
            <path id="Trazado_102671" data-name="Trazado 102671" d="M62.928,350.3a5.051,5.051,0,0,1,5.051-5.051H61.1a5.051,5.051,0,0,0,0,10.1h6.881A5.051,5.051,0,0,1,62.928,350.3Z" transform="translate(-56.047 -345.247)" fill="#a397e3"/>
          </g>
          <g id="Grupo_55769" data-name="Grupo 55769">
            <path id="Trazado_102672" data-name="Trazado 102672" d="M79.071,153.014a5.051,5.051,0,0,1-5.051,5.051H61.1a5.051,5.051,0,0,1,0-10.1H74.02A5.051,5.051,0,0,1,79.071,153.014Z" transform="translate(-56.047 -147.963)" fill="#5e448f"/>
          </g>
          <g id="Grupo_55770" data-name="Grupo 55770">
            <path id="Trazado_102673" data-name="Trazado 102673" d="M62.928,153.014a5.051,5.051,0,0,1,5.051-5.051H61.1a5.051,5.051,0,0,0,0,10.1h6.881A5.051,5.051,0,0,1,62.928,153.014Z" transform="translate(-56.047 -147.963)" fill="#a397e3"/>
          </g>
        </g>
      </g>
      <g id="Grupo_55777" data-name="Grupo 55777" transform="translate(52.737 8.105)">
        <g id="Grupo_55773" data-name="Grupo 55773" transform="translate(1.5 1.5)">
          <circle id="Elipse_1409" data-name="Elipse 1409" cx="14.462" cy="14.462" r="14.462" fill="aqua"/>
        </g>
        <g id="Grupo_55774" data-name="Grupo 55774" transform="translate(1.5 1.5)">
          <path id="Trazado_102674" data-name="Trazado 102674" d="M215.926,62.475a14.466,14.466,0,0,1,11-14.041,14.462,14.462,0,1,0,0,28.082A14.466,14.466,0,0,1,215.926,62.475Z" transform="translate(-208.995 -48.013)" fill="#40d3d3"/>
        </g>
        <g id="Grupo_55775" data-name="Grupo 55775">
          <path id="Trazado_102675" data-name="Trazado 102675" d="M217.457,72.438A15.962,15.962,0,1,1,233.42,56.475,15.98,15.98,0,0,1,217.457,72.438Zm0-28.924a12.962,12.962,0,1,0,12.962,12.962A12.976,12.976,0,0,0,217.457,43.514Z" transform="translate(-201.495 -40.513)" fill="#39afaf"/>
        </g>
        <g id="Grupo_55776" data-name="Grupo 55776" transform="translate(8.959 11.243)">
          <path id="Trazado_102676" data-name="Trazado 102676" d="M252.533,107.083a1.5,1.5,0,0,1-1.061-.44l-4.755-4.755a1.5,1.5,0,1,1,2.122-2.122l3.694,3.694,6.309-6.309a1.5,1.5,0,1,1,2.122,2.122l-7.37,7.37A1.494,1.494,0,0,1,252.533,107.083Z" transform="translate(-246.277 -96.712)" fill="#fff"/>
        </g>
      </g>
      <g id="Grupo_55784" data-name="Grupo 55784" transform="translate(61.148 65.909)">
        <g id="Grupo_55778" data-name="Grupo 55778" transform="translate(0)">
          <path id="Trazado_102677" data-name="Trazado 102677" d="M273.463,332.441H245.036a1.5,1.5,0,1,1,0-3h28.427a1.5,1.5,0,0,1,0,3Z" transform="translate(-243.535 -329.44)" fill="#5e448f"/>
        </g>
        <g id="Grupo_55779" data-name="Grupo 55779" transform="translate(13.772 7.518)">
          <path id="Trazado_102678" data-name="Trazado 102678" d="M328.527,370.019H313.872a1.5,1.5,0,0,1,0-3h14.656a1.5,1.5,0,0,1,0,3Z" transform="translate(-312.371 -367.018)" fill="#5e448f"/>
        </g>
        <g id="Grupo_55780" data-name="Grupo 55780" transform="translate(0 7.518)">
          <path id="Trazado_102679" data-name="Trazado 102679" d="M253.449,370.019h-8.413a1.5,1.5,0,0,1,0-3h8.413a1.5,1.5,0,0,1,0,3Z" transform="translate(-243.535 -367.018)" fill="#5e448f"/>
        </g>
        <g id="Grupo_55781" data-name="Grupo 55781" transform="translate(0 15.036)">
          <path id="Trazado_102680" data-name="Trazado 102680" d="M273.463,407.6H245.036a1.5,1.5,0,1,1,0-3h28.427a1.5,1.5,0,0,1,0,3Z" transform="translate(-243.535 -404.596)" fill="#5e448f"/>
        </g>
        <g id="Grupo_55782" data-name="Grupo 55782" transform="translate(20.985 22.554)">
          <path id="Trazado_102681" data-name="Trazado 102681" d="M357.371,445.175h-7.442a1.5,1.5,0,0,1,0-3h7.442a1.5,1.5,0,0,1,0,3Z" transform="translate(-348.428 -442.174)" fill="#5e448f"/>
        </g>
        <g id="Grupo_55783" data-name="Grupo 55783" transform="translate(0 22.554)">
          <path id="Trazado_102682" data-name="Trazado 102682" d="M261.28,445.175H245.035a1.5,1.5,0,0,1,0-3H261.28a1.5,1.5,0,0,1,0,3Z" transform="translate(-243.535 -442.174)" fill="#5e448f"/>
        </g>
      </g>
    </g>
  </g>
</svg>
