<svg xmlns="http://www.w3.org/2000/svg" width="268" height="208.223" viewBox="0 0 268 208.223">
  <g id="Grupo_56214" data-name="Grupo 56214" transform="translate(-236 -6151.811)">
    <rect id="Rectángulo_5441" data-name="Rectángulo 5441" width="268" height="79" rx="15" transform="translate(236 6235)" fill="#d8ffff"/>
    <g id="Grupo_56152" data-name="Grupo 56152" transform="translate(45.289 6013.385)">
      <path id="Trazado_103083" data-name="Trazado 103083" d="M432.3,1542.021c0,5.506-48.933,9.97-109.295,9.97s-109.294-4.464-109.294-9.97,48.932-9.97,109.294-9.97S432.3,1536.514,432.3,1542.021Z" transform="translate(0 -1219.842)" fill="#d8ffff"/>
      <path id="Trazado_103084" data-name="Trazado 103084" d="M734.543,1671.754c0,5.013-26.452,9.076-59.082,9.076s-59.082-4.064-59.082-9.076,26.453-9.074,59.082-9.074S734.543,1666.743,734.543,1671.754Z" transform="translate(-352.456 -1334.182)" fill="#d8ffff"/>
      <g id="Grupo_56059" data-name="Grupo 56059" transform="translate(347.7 146.818)">
        <g id="Grupo_56058" data-name="Grupo 56058" transform="translate(0 0)">
          <path id="Trazado_103085" data-name="Trazado 103085" d="M1686.775,229.579c.614,1.524-.117,3.529.53,4.885.657,1.374,2.407,1.444,3.056,2.714,2.2,4.315-.292,5.215-.016,8.492.312,3.661,4.109,5.541.885,9.37-2.655,3.153-8.03,2.65-9.238-1.522.088-.12.09-.118.006.006-6.249,4.114-11.116-6.9-3.619-9.091-2.746-1.944-3.955-6.1-.837-8.5a4.706,4.706,0,0,1,.159-7.985c.474-.3-1.485-4.215,2.438-4.554C1682.965,223.148,1685.915,227.446,1686.775,229.579Z" transform="translate(-1626.398 -221.18)" fill="#12263f"/>
          <g id="Grupo_56039" data-name="Grupo 56039" transform="translate(54.662 28.315)">
            <g id="Grupo_56038" data-name="Grupo 56038" transform="translate(0.19 0.148)">
              <path id="Trazado_103086" data-name="Trazado 103086" d="M1733.239,433.989a5.513,5.513,0,0,1,5.665,5.357c.085,3.043-1.573,10.9-3.892,8.921-4.557-3.881-6.83-6.215-6.916-9.259S1730.195,434.073,1733.239,433.989Z" transform="translate(-1728.094 -433.987)" fill="#e28262"/>
              <path id="Trazado_103087" data-name="Trazado 103087" d="M1757.27,459.469l-5.277,1.754-.953,5.632s11.61,14.115,15.392,16.082c4.03,2.1,2.949-1.573,2.685-3.088C1769.116,479.849,1760.253,461.393,1757.27,459.469Z" transform="translate(-1748.178 -456.291)" fill="#e28262"/>
              <path id="Trazado_103088" data-name="Trazado 103088" d="M1868.241,567.553s9.845-4.9,16.191-10.4c0,0,.6-1.918-1.077-1.49-1.605.41-17.5,4.538-18.521,5.849S1868.241,567.553,1868.241,567.553Z" transform="translate(-1847.649 -540.438)" fill="#e28262"/>
              <path id="Trazado_103089" data-name="Trazado 103089" d="M2022.112,521.174l-1.527.7s3.1-.653,3.542-1.983c0,0,.157-.253-.353-.4a23.386,23.386,0,0,1-3.693,1.341,17.085,17.085,0,0,0,4.321-1.627s.454-.773-.468-.815c.441-.481-.2-.61-.2-.61a10.7,10.7,0,0,0-1.949.178,43.435,43.435,0,0,1-4.476.392s1.074-1.822.066-2.365l-1.81,2.5-1.51,2.519.446,1.643,3.1.462a15.95,15.95,0,0,0,3.973-.79S2025.138,520.4,2022.112,521.174Z" transform="translate(-1978.393 -505.763)" fill="#e28262"/>
            </g>
            <path id="Trazado_103090" data-name="Trazado 103090" d="M1733.157,432.947s4.248.758,4.8,4.906c0,0,12.344,17.379,10.069,22.3-.967.378-5.766,3.163-20.653-18.109C1727.378,442.049,1723.39,431.434,1733.157,432.947Z" transform="translate(-1726.572 -432.8)" fill="#5e448f"/>
            <path id="Trazado_103091" data-name="Trazado 103091" d="M1863.51,556.246a105.792,105.792,0,0,1,18.1-5.219s2,2.006,1.805,3.339c0,0-14.04,9.514-16.1,9.343C1867.317,563.709,1862.644,560.4,1863.51,556.246Z" transform="translate(-1846.34 -536.284)" fill="#5e448f"/>
          </g>
          <g id="Grupo_56042" data-name="Grupo 56042" transform="translate(44.472 116.797)">
            <g id="Grupo_56041" data-name="Grupo 56041" transform="translate(0 41.196)">
              <g id="Grupo_56040" data-name="Grupo 56040" transform="translate(0.58)">
                <path id="Trazado_103092" data-name="Trazado 103092" d="M1654.438,1484.707a12.889,12.889,0,0,0,5.489,1.048l-2.391-2.451a42.849,42.849,0,0,1-2.282-6.085,17.351,17.351,0,0,1,.51-3.742l-3.576-.75-.545,1.969-2.1,2.646s-.5,1.38,1.978,2.362A52.934,52.934,0,0,0,1654.438,1484.707Z" transform="translate(-1649.503 -1472.727)" fill="#e28262"/>
              </g>
              <path id="Trazado_103093" data-name="Trazado 103093" d="M1653.465,1497.128a3.459,3.459,0,0,1-3.4-1.261c-2.53-4.46-2.5-7.347-2.5-7.347-2.294,1.458-2.269,3.205-2.269,3.205l-.051.7-.4,5.432.368.078,2.162-3.989,1.37,4.618c5.641,2.362,7.468,1.156,7.468,1.156Z" transform="translate(-1644.852 -1486.551)" fill="#161615"/>
            </g>
            <path id="Trazado_103094" data-name="Trazado 103094" d="M1684.649,1144.967s-14.443,40-15.3,41.642c0,0-4.262-.675-3.956-1.664.736-2.39,2.123-20.153,2.923-24,1.288-6.171,2.433-9.991,7.813-17.291C1676.126,1143.658,1684.3,1140.009,1684.649,1144.967Z" transform="translate(-1662.815 -1142.364)" fill="#0f1114"/>
          </g>
          <path id="Trazado_103095" data-name="Trazado 103095" d="M1664.39,778.77s2.218,7.81,3.209,12.753c1.754,8.744,2.46,31.271,2.46,31.271s-7.339,3.974-8.36,2.115c-4.931-8.973-5.509-6.513-12.355-36.9Z" transform="translate(-1604.312 -707.313)" fill="#f39672"/>
          <path id="Trazado_103096" data-name="Trazado 103096" d="M1650.694,780.823s2.78,23.024,11.668,36.071c0,0,2.684,7.1,9.194,1.667,0,0,.81-37.493-5.513-49.089C1666.043,769.472,1647.977,768.58,1650.694,780.823Z" transform="translate(-1605.25 -699.162)" fill="#0f1114"/>
          <path id="Trazado_103097" data-name="Trazado 103097" d="M1593.465,644.658c.7-.127,3.578,1.36,3.578,1.36s3.6,11.561,3.752,13.32-11.935,10.857-25.44,5.675c0,0,6.252-16.28,6.635-20.29S1593.465,644.658,1593.465,644.658Z" transform="translate(-1539.549 -588.406)" fill="#e38865"/>
          <path id="Trazado_103098" data-name="Trazado 103098" d="M1590.9,658.647s3.448,10.427,3.752,13.32c1.077,10.242-12.782,14.538-26.288,9.356,0,0-.876-14.082,7.483-23.971C1575.85,657.352,1578.071,659.378,1590.9,658.647Z" transform="translate(-1533.409 -601.035)" fill="#121418"/>
          <path id="Trazado_103099" data-name="Trazado 103099" d="M1578.319,872.885l-9.768-5.362s1.584,30.9,2.822,39.582c0,0,5.464,1.521,7.156.4,5.067-11.884,8-37.686,8-37.686Z" transform="translate(-1533.594 -784.998)" fill="#121418"/>
          <path id="Trazado_103100" data-name="Trazado 103100" d="M1572.4,786.4s-4.687,1.353-3.718,10.038c.948,8.482,16.547,9.288,18,.59C1588.257,787.672,1580.665,782.713,1572.4,786.4Z" transform="translate(-1533.596 -712.92)" fill="#121418"/>
          <path id="Trazado_103101" data-name="Trazado 103101" d="M1651.966,333.946h9.4c-.427-1.37-1.313-4.912.058-7.323l-9.5-6.236S1653.615,330.852,1651.966,333.946Z" transform="translate(-1606.572 -306.089)" fill="#f39672"/>
          <path id="Trazado_103102" data-name="Trazado 103102" d="M1660.692,329.836a6.123,6.123,0,0,1,.732-3.213l-9.5-6.236a67.172,67.172,0,0,1,.759,8.155C1656.114,329.632,1657.525,330.055,1660.692,329.836Z" transform="translate(-1606.572 -306.089)" fill="#db765e"/>
          <path id="Trazado_103103" data-name="Trazado 103103" d="M1582.687,425.495c-4.232,2.069-1.88,7.041-1.88,7.041l5.719,20.813s5.343,2.184,14.719,1.09c1.3-1.864,3.978-9.671,4.875-15.633.738-4.91,3.031-9.748.534-12.486-.958-1.05-8.254-2.1-8.291-2.268h-8.781Z" transform="translate(-1543.751 -396.827)" fill="#f39672"/>
          <g id="Grupo_56052" data-name="Grupo 56052" transform="translate(40.423)">
            <path id="Trazado_103104" data-name="Trazado 103104" d="M1646.266,231.405l.569-1.386,1.427-4.093a4.187,4.187,0,0,0,.133-2.2,6.686,6.686,0,0,1-.018-3.457c.966-3.741-.612-5.8-.612-5.8-2.03-3.589-7.238-3.836-7.238-3.836-6.455.007-7.3,6.214-7.3,6.214-1.246,4.1,1.886,7.706,1.892,7.713a4.58,4.58,0,0,1,.58,1.715,5.188,5.188,0,0,0,.865,1.623,11.6,11.6,0,0,0,3.165,2.818,12.756,12.756,0,0,0,4.9,1.422C1645.3,232.161,1645.94,232.2,1646.266,231.405Z" transform="translate(-1630.376 -210.018)" fill="#f39672"/>
            <path id="Trazado_103105" data-name="Trazado 103105" d="M1617.73,222.706a12.114,12.114,0,0,1,.181-2.758c.113-.855,1.7,1.082,1.726-.039.1-5.13,2.085-7.475,2.834-7.831a9.022,9.022,0,0,1,5.768-.793c2.569.592,2.293,4.035,2.293,4.035,2.848-12.513-11.436-9.194-11.436-9.194a7.813,7.813,0,0,0-6.569,7.95c-1.193,6.895,5.436,11.238,5.436,11.238Z" transform="translate(-1612.383 -205.728)" fill="#12263f"/>
            <g id="Grupo_56051" data-name="Grupo 56051" transform="translate(3.197 12.11)">
              <g id="Grupo_56047" data-name="Grupo 56047">
                <g id="Grupo_56046" data-name="Grupo 56046">
                  <g id="Grupo_56045" data-name="Grupo 56045">
                    <g id="Grupo_56044" data-name="Grupo 56044">
                      <g id="Grupo_56043" data-name="Grupo 56043">
                        <path id="Trazado_103106" data-name="Trazado 103106" d="M1640.67,306.734a1.383,1.383,0,0,1-.907.227,2.031,2.031,0,0,1-1.743-2.176,1.864,1.864,0,0,1,1.864-1.938,1.75,1.75,0,0,1,1.206.626,2.53,2.53,0,0,1,.276,2.08A1.91,1.91,0,0,1,1640.67,306.734Z" transform="translate(-1638.018 -302.844)" fill="#f3906b"/>
                      </g>
                    </g>
                  </g>
                </g>
              </g>
              <g id="Grupo_56050" data-name="Grupo 56050" transform="translate(0.958 0.645)">
                <g id="Grupo_56048" data-name="Grupo 56048">
                  <path id="Trazado_103107" data-name="Trazado 103107" d="M1646.954,308.448c-.028-.6-1.263-.091-1.1.254a1.844,1.844,0,0,0,.459.494.871.871,0,0,1,.337.67c0,.034.005.138-.031.161-.161.1-.644-.508-.749-.636a1,1,0,0,1-.1-.959.594.594,0,0,1,.682-.413c.271.029.546.062.512.4,0,.007-.016.061-.017.031Z" transform="translate(-1645.697 -308.013)" fill="#e47a5d"/>
                </g>
                <g id="Grupo_56049" data-name="Grupo 56049" transform="translate(0.09 0.982)">
                  <path id="Trazado_103108" data-name="Trazado 103108" d="M1647.167,315.941c.133-.119.248-.008.37.09a.573.573,0,0,1,.2.362,1.4,1.4,0,0,1-.2.987.752.752,0,0,1-.663.311c-.363-.029-.455-.354-.453-.662,0-.082,0-.277.086-.323s.146.087.2.148a.516.516,0,0,0,.3.132.657.657,0,0,0,.551-.213.283.283,0,0,0,.06-.091c-.01.2-.023.244-.038.134a.526.526,0,0,0-.062-.146c-.076-.142-.213-.245-.3-.383-.042-.063-.115-.283-.049-.344Z" transform="translate(-1646.418 -315.889)" fill="#e47a5d"/>
                </g>
              </g>
            </g>
            <path id="Trazado_103109" data-name="Trazado 103109" d="M1651,331.218a.611.611,0,1,1-.58-.642A.612.612,0,0,1,1651,331.218Z" transform="translate(-1645.119 -315.007)" fill="#fff"/>
          </g>
          <path id="Trazado_103110" data-name="Trazado 103110" d="M1746.848,428.145l4.057.728s2.956.648,3.055,3.178c0,0,.165,4.795-2.444,13.464C1751.515,445.515,1747.2,432.212,1746.848,428.145Z" transform="translate(-1689.657 -400.41)" fill="#a397e3"/>
          <path id="Trazado_103111" data-name="Trazado 103111" d="M1617.1,424.4l1.828.282a47.014,47.014,0,0,1,4.385,14.122c-.9,5.962-2.7,14.988-4.875,15.633-7.391,2.186-15.106-1.25-15.106-1.25l-3.535-14.113c9.494-3.7,4.7-14.546,4.7-14.546l1.995-.478,8.39,8.482,2.223-8.131" transform="translate(-1560.94 -396.827)" fill="#684d9b"/>
          <path id="Trazado_103112" data-name="Trazado 103112" d="M1757.1,464.406s3.71,5.138,4.356,7.785c.426,1.739-2.607,5.657-5.056,6.348C1755.066,478.917,1755.034,464.753,1757.1,464.406Z" transform="translate(-1697.198 -432.149)" fill="#5e448f"/>
          <g id="Grupo_56053" data-name="Grupo 56053" transform="translate(43.549 25.135)">
            <path id="Trazado_103113" data-name="Trazado 103113" d="M1697.554,443l-.106,4.76-1.753-1.714Z" transform="translate(-1688.432 -438.545)" fill="#392a8d"/>
            <path id="Trazado_103114" data-name="Trazado 103114" d="M1646.571,411.642s-5.317-2.177-6.636-4.345l-2.486,2.567,6.451,6.256,2.671-4.372" transform="translate(-1637.449 -407.297)" fill="#d7c8f2"/>
          </g>
          <path id="Trazado_103115" data-name="Trazado 103115" d="M1727.206,418.264a7.127,7.127,0,0,0-3.042-3.678l.33,6.872S1725.9,417.943,1727.206,418.264Z" transform="translate(-1669.802 -388.542)" fill="#d7c8f2"/>
          <path id="Trazado_103116" data-name="Trazado 103116" d="M1734.582,447.12l-.23-3.194c-.772-.189-1.461.891-2.024,1.776Z" transform="translate(-1676.948 -414.204)" fill="#392a8d"/>
          <g id="Grupo_56055" data-name="Grupo 56055" transform="translate(36.577 160.631)">
            <g id="Grupo_56054" data-name="Grupo 56054" transform="translate(0.08)">
              <path id="Trazado_103117" data-name="Trazado 103117" d="M1588.486,1505.146a12.9,12.9,0,0,0,5.587-.1l-2.843-1.907a42.844,42.844,0,0,1-3.483-5.488,17.369,17.369,0,0,1-.268-3.767h-3.653l-.13,2.039-1.51,3.02s-.21,1.455,2.419,1.906A53.1,53.1,0,0,0,1588.486,1505.146Z" transform="translate(-1582.183 -1493.883)" fill="#f39672"/>
            </g>
            <path id="Trazado_103118" data-name="Trazado 103118" d="M1590.667,1517.45a3.464,3.464,0,0,1-3.583-.537c-3.39-3.847-3.95-6.679-3.95-6.679-1.946,1.9-1.563,3.6-1.563,3.6l.094.7.724,5.4h.375l1.3-4.348,2.288,4.24c6,1.154,7.547-.4,7.547-.4Z" transform="translate(-1581.54 -1508.195)" fill="#161615"/>
          </g>
          <path id="Trazado_103119" data-name="Trazado 103119" d="M1564.843,1159.086l7.982,2.362s-2.745,38.289-3.1,40.109c0,0-4.275.577-4.266-.459.019-2.5-2.916-18.124-3.2-22.039C1561.777,1172.331,1559.949,1167.818,1564.843,1159.086Z" transform="translate(-1527.444 -1040.204)" fill="#121418"/>
          <g id="Grupo_56057" data-name="Grupo 56057" transform="translate(0 27.702)">
            <g id="Grupo_56056" data-name="Grupo 56056" transform="translate(0 0.761)">
              <path id="Trazado_103120" data-name="Trazado 103120" d="M1577.018,433.989a5.512,5.512,0,0,0-5.665,5.357c-.085,3.043,1.573,10.9,3.892,8.921,4.556-3.881,6.83-6.215,6.916-9.259S1580.062,434.073,1577.018,433.989Z" transform="translate(-1536.044 -433.987)" fill="#a397e3"/>
              <path id="Trazado_103121" data-name="Trazado 103121" d="M1499.685,459.469l5.277,1.754.954,5.632s-11.609,14.115-15.392,16.082c-4.03,2.1-2.949-1.573-2.685-3.088C1487.839,479.849,1496.7,461.393,1499.685,459.469Z" transform="translate(-1462.657 -456.291)" fill="#a397e3"/>
              <path id="Trazado_103122" data-name="Trazado 103122" d="M1378.548,567.553s-9.845-4.9-16.191-10.4c0,0-.6-1.918,1.077-1.49,1.606.41,17.5,4.538,18.521,5.849S1378.548,567.553,1378.548,567.553Z" transform="translate(-1353.02 -540.438)" fill="#a397e3"/>
              <path id="Trazado_103123" data-name="Trazado 103123" d="M1290.615,521.174l1.527.7s-3.1-.653-3.543-1.983c0,0-.157-.253.354-.4a23.382,23.382,0,0,0,3.693,1.341,17.09,17.09,0,0,1-4.321-1.627s-.453-.773.467-.815c-.441-.481.2-.61.2-.61a10.7,10.7,0,0,1,1.949.178,43.439,43.439,0,0,0,4.476.392s-1.074-1.822-.066-2.365l1.81,2.5,1.51,2.519-.446,1.643-3.1.462a15.941,15.941,0,0,1-3.972-.79S1287.588,520.4,1290.615,521.174Z" transform="translate(-1288.214 -505.763)" fill="#e28262"/>
            </g>
            <path id="Trazado_103124" data-name="Trazado 103124" d="M1506.13,437.745c-14.887,21.272-19.686,18.487-20.653,18.109-2.275-4.926,9.636-22.757,9.636-22.757,1.918-4.138,5.237-4.453,5.237-4.453l3.825-.761,2.454,3.128A7.6,7.6,0,0,1,1506.13,437.745Z" transform="translate(-1460.626 -427.883)" fill="#5e448f"/>
            <path id="Trazado_103125" data-name="Trazado 103125" d="M1382.06,556.246a105.792,105.792,0,0,0-18.1-5.219s-2,2.006-1.806,3.339c0,0,14.04,9.514,16.1,9.343C1378.253,563.709,1382.927,560.4,1382.06,556.246Z" transform="translate(-1352.92 -535.671)" fill="#5e448f"/>
          </g>
          <path id="Trazado_103126" data-name="Trazado 103126" d="M1552.595,229.579c-.613,1.524.117,3.529-.53,4.885-.656,1.374-2.406,1.444-3.056,2.714-2.2,4.315.293,5.215.016,8.492-.312,3.661-4.11,5.541-.885,9.37,2.655,3.153,8.03,2.65,9.238-1.522-.088-.12-.09-.118-.006.006,6.249,4.114,11.116-6.9,3.619-9.091,2.746-1.944,3.956-6.1.837-8.5a4.706,4.706,0,0,0-.159-7.985c-.473-.3,1.485-4.215-2.437-4.554C1556.406,223.148,1553.456,227.446,1552.595,229.579Z" transform="translate(-1514.599 -221.18)" fill="#12263f"/>
          <path id="Trazado_103127" data-name="Trazado 103127" d="M1577.808,603.516s-.841,15.589,5.436,23.776c0,0-17.234,7.538-33.431.223,1.509-4.749,1.167-4.743,6.232-15.681,0,0,2.538-5.541,1.842-8.318Z" transform="translate(-1517.192 -553.913)" fill="#5e448f"/>
        </g>
      </g>
      <g id="Grupo_56084" data-name="Grupo 56084" transform="translate(233.875 138.426)">
        <path id="Trazado_103128" data-name="Trazado 103128" d="M486.332,189.716s-5.544.005-4.58-6.3c0,0,3.339,3.153,6.914,1.848C488.666,185.262,488.937,189.5,486.332,189.716Z" transform="translate(-468.394 -177.804)" fill="#12263f"/>
        <g id="Grupo_56083" data-name="Grupo 56083" transform="translate(0 0)">
          <g id="Grupo_56082" data-name="Grupo 56082">
            <g id="Grupo_56060" data-name="Grupo 56060" transform="translate(1.736 36.591)">
              <path id="Trazado_103129" data-name="Trazado 103129" d="M402.37,472.4l-1.763.384s-4.82,20.74-3.006,25.664,4.728.049,5.639-.4,8.968-23.269,8.968-23.269Z" transform="translate(-396.213 -467.347)" fill="#e28262"/>
              <path id="Trazado_103130" data-name="Trazado 103130" d="M389.419,460.369l3.169-24.087c1.887-6.338,8.851-4,8.851-4,5.223,1.937,4.392,6.047,4.392,6.047l-7.153,24.749s-1.355,3.758-6.318,3.258C392.359,466.339,388.746,465.476,389.419,460.369Z" transform="translate(-389.335 -431.862)" fill="#00172f"/>
            </g>
            <path id="Trazado_103131" data-name="Trazado 103131" d="M385.771,1508.291s-.936,3.642-2.086,4.63-5.537,2.441-5.537,2.441l-2.431.349s-1.689,1.211,2.948,2.485,12.774-2.571,12.774-2.571l-1.835-7.445Z" transform="translate(-375.417 -1337.374)" fill="#251110"/>
            <path id="Trazado_103132" data-name="Trazado 103132" d="M651.312,1514.106c.818-1.275,2.534-8.225,2.534-8.225l3.788-.115,2.371,7.652s.38,1.281-.394,1.76c0,0-4.724,1.64-8.759-.078A2.8,2.8,0,0,1,651.312,1514.106Z" transform="translate(-616.506 -1335.261)" fill="#251110"/>
            <path id="Trazado_103133" data-name="Trazado 103133" d="M429.309,430.148l-4.838-29.565s-1.666-4.444,1.667-6.665l12.705-5.972H447.8l15.275,9.028-10.012,33.176Z" transform="translate(-417.99 -356.83)" fill="#f39672"/>
            <path id="Trazado_103134" data-name="Trazado 103134" d="M489.949,726.387s2.744,6.265,3.406,20.666c0,0-20.65,6.477-27.127,0l-.037-20.666Z" transform="translate(-454.872 -653.069)" fill="#001f3d"/>
            <g id="Grupo_56061" data-name="Grupo 56061" transform="translate(21.539 85.233)">
              <path id="Trazado_103135" data-name="Trazado 103135" d="M548.146,830.631a8.476,8.476,0,1,0,8.536-8.687A8.615,8.615,0,0,0,548.146,830.631Z" transform="translate(-548.146 -821.943)" fill="#001f3d"/>
              <path id="Trazado_103136" data-name="Trazado 103136" d="M568.745,873.838l2.246,41.157s-3.976,5.216-11.016-.668l-7.644-37.858S556.042,863.746,568.745,873.838Z" transform="translate(-551.81 -863.96)" fill="#001f3d"/>
            </g>
            <path id="Trazado_103137" data-name="Trazado 103137" d="M623.16,1172.329s3.869,7.36,3.24,19.393l.629,22.5-6.385.19-6.711-37.825S617.489,1163.884,623.16,1172.329Z" transform="translate(-584.191 -1040.866)" fill="#001f3d"/>
            <g id="Grupo_56062" data-name="Grupo 56062" transform="translate(9.732 85.951)">
              <path id="Trazado_103138" data-name="Trazado 103138" d="M466.227,835.755c-.49,4.808,1.227,8.921,5.882,9.4a8.755,8.755,0,0,0,1.776-17.41C469.231,827.265,466.718,830.947,466.227,835.755Z" transform="translate(-464.565 -827.699)" fill="#001f3d"/>
              <path id="Trazado_103139" data-name="Trazado 103139" d="M468.338,889.474l-4.776,37.618s-8.451,1.124-10.1-4.628c0,0-.106-26.554,1.661-39.32C455.126,883.145,466.574,877.568,468.338,889.474Z" transform="translate(-453.463 -875.089)" fill="#001f3d"/>
            </g>
            <path id="Trazado_103140" data-name="Trazado 103140" d="M458.716,1193.583s1.528,5.635.122,14.715l-3.468,25.409-6.835-.483.616-40.936S452.912,1186.6,458.716,1193.583Z" transform="translate(-439.417 -1058.961)" fill="#001f3d"/>
            <g id="Grupo_56063" data-name="Grupo 56063" transform="translate(33.369 38.557)">
              <path id="Trazado_103141" data-name="Trazado 103141" d="M656.54,489.488l1.741.465s2.718,20.847.678,25.682-3.954.039-4.843-.448-7.514-23.772-7.514-23.772Z" transform="translate(-646.154 -484.268)" fill="#f39672"/>
              <path id="Trazado_103142" data-name="Trazado 103142" d="M648.72,478.36l-5.708-24.553a7.14,7.14,0,0,1,7.5-6.173c5.549.5,5.821,4.688,5.821,4.688l.367,24.971s.366,4.268-2.851,4.041C653.848,481.335,649.245,480.616,648.72,478.36Z" transform="translate(-643.012 -447.627)" fill="#00172f"/>
            </g>
            <path id="Trazado_103143" data-name="Trazado 103143" d="M543.776,335.578v9.577H533.648a13.3,13.3,0,0,0,1.245-9.577Z" transform="translate(-513.917 -310.994)" fill="#f39672"/>
            <path id="Trazado_103144" data-name="Trazado 103144" d="M542.5,343.711c-.914.587-2.852,1.837-3.961,1.106a1.045,1.045,0,0,1-.48-.743,14.033,14.033,0,0,0,.7-8.5h8.883v.868C546.528,339.25,545.106,342.03,542.5,343.711Z" transform="translate(-517.778 -310.994)" fill="#db765e"/>
            <g id="Grupo_56064" data-name="Grupo 56064" transform="translate(17.022 5.204)">
              <path id="Trazado_103145" data-name="Trazado 103145" d="M578.238,199.676s1.724-.748,3.675-5.014c0,0,4.238-5.045,1.234-10.772,0,0-1.774-4.843-10.373-3.488C572.774,180.4,572,193.382,578.238,199.676Z" transform="translate(-565.159 -180.161)" fill="#f3906b"/>
              <path id="Trazado_103146" data-name="Trazado 103146" d="M514.415,202.261l-.574-1.5-1.583-5.589a5.774,5.774,0,0,1-.083-2.365,5.805,5.805,0,0,0,.023-2.435,7.052,7.052,0,0,1,1.061-6.3c2.269-3.79,7.855-3.916,7.855-3.916,6.916.18,7.653,6.851,7.653,6.851,1.224,4.42-2.227,8.2-2.234,8.213-.276.3-.1,1.762-.172,2.18-.324,1.782-2,2.913-3.483,3.7a16.584,16.584,0,0,1-5.458,2C516.722,203.18,514.743,203.122,514.415,202.261Z" transform="translate(-511.926 -180.156)" fill="#f39672"/>
            </g>
            <path id="Trazado_103147" data-name="Trazado 103147" d="M454.711,429.345c-.021.984,1.475,11.29.847,11.421,0,0-17.1,3.94-26.212,0l-.036-10.618-4.838-29.565s-1.666-4.444,1.667-6.665l12.705-5.972-.858,2.576,1.838,5.224,7.981-7.8,15.275,9.028q-1.281,4.244-2.556,8.487c-1.575,5.215-3.107,10.445-4.729,15.645C455.794,421.1,454.451,426.744,454.711,429.345Z" transform="translate(-417.99 -356.83)" fill="#fff"/>
            <path id="Trazado_103148" data-name="Trazado 103148" d="M559.34,402.856l.107,4.76L561.2,405.9Z" transform="translate(-536.405 -369.882)" fill="#a7c3c5"/>
            <g id="Grupo_56065" data-name="Grupo 56065" transform="translate(20.703 39.971)">
              <path id="Trazado_103149" data-name="Trazado 103149" d="M541.445,459.644a.679.679,0,1,0,.68-.678A.679.679,0,0,0,541.445,459.644Z" transform="translate(-541.445 -458.965)" fill="#d2eae6"/>
            </g>
            <g id="Grupo_56066" data-name="Grupo 56066" transform="translate(20.703 52.304)">
              <path id="Trazado_103150" data-name="Trazado 103150" d="M541.445,558.551a.679.679,0,1,0,.68-.68A.679.679,0,0,0,541.445,558.551Z" transform="translate(-541.445 -557.871)" fill="#d2eae6"/>
            </g>
            <g id="Grupo_56067" data-name="Grupo 56067" transform="translate(20.703 64.637)">
              <path id="Trazado_103151" data-name="Trazado 103151" d="M541.445,657.452a.679.679,0,1,0,.68-.679A.68.68,0,0,0,541.445,657.452Z" transform="translate(-541.445 -656.773)" fill="#d2eae6"/>
            </g>
            <g id="Grupo_56068" data-name="Grupo 56068" transform="translate(20.703 76.97)">
              <path id="Trazado_103152" data-name="Trazado 103152" d="M541.445,756.356a.679.679,0,1,0,.68-.68A.68.68,0,0,0,541.445,756.356Z" transform="translate(-541.445 -755.676)" fill="#d2eae6"/>
            </g>
            <line id="Línea_189" data-name="Línea 189" y2="46.807" transform="translate(22.935 38.276)" fill="none" stroke="#d2eae6" stroke-miterlimit="10" stroke-width="2.948"/>
            <path id="Trazado_103155" data-name="Trazado 103155" d="M559.34,371.5s5.606-2.177,6.925-4.344l1.656,3.157-5.908,5.666-2.672-4.371" transform="translate(-536.405 -338.634)" fill="#c2e3e5"/>
            <path id="Trazado_103156" data-name="Trazado 103156" d="M495.993,147.833c.252-1.825,6.2-.85,7.756-.566a3.4,3.4,0,0,1,2.545,1.379c.188.34.94,2.718.015,3.908a24.294,24.294,0,0,1,1.01,4.539l.472.026A20.534,20.534,0,0,1,508.9,162.4s3.469-1.5,5.878-7.829c2.439-8.064-3.555-11.618-3.555-11.618a23.653,23.653,0,0,0-10.984-1.733s-5.53.506-6.779-2.795C493.462,138.426,489.959,146,495.993,147.833Z" transform="translate(-477.857 -138.426)" fill="#12263f"/>
            <g id="Grupo_56079" data-name="Grupo 56079" transform="translate(29.921 16.729)">
              <g id="Grupo_56075" data-name="Grupo 56075">
                <g id="Grupo_56074" data-name="Grupo 56074">
                  <g id="Grupo_56073" data-name="Grupo 56073">
                    <g id="Grupo_56072" data-name="Grupo 56072">
                      <g id="Grupo_56071" data-name="Grupo 56071">
                        <path id="Trazado_103157" data-name="Trazado 103157" d="M616.039,276.772a1.538,1.538,0,0,0,.973.348,2.244,2.244,0,0,0,2.149-2.207,2.057,2.057,0,0,0-1.841-2.33,1.936,1.936,0,0,0-1.394.56,2.8,2.8,0,0,0-.527,2.258A2.1,2.1,0,0,0,616.039,276.772Z" transform="translate(-615.365 -272.583)" fill="#f39672"/>
                      </g>
                    </g>
                  </g>
                </g>
              </g>
              <g id="Grupo_56078" data-name="Grupo 56078" transform="translate(1.125 0.728)">
                <g id="Grupo_56076" data-name="Grupo 56076" transform="translate(0.316)">
                  <path id="Trazado_103158" data-name="Trazado 103158" d="M626.934,278.84c.1-.655,1.4.036,1.178.4a2.012,2.012,0,0,1-.557.494.97.97,0,0,0-.442.7c-.007.038-.019.152.017.181.167.128.761-.49.892-.619a1.1,1.1,0,0,0,.208-1.046.659.659,0,0,0-.708-.527c-.3,0-.6.009-.6.381,0,.009.01.071.016.038Z" transform="translate(-626.918 -278.421)" fill="#e47a5d"/>
                </g>
                <g id="Grupo_56077" data-name="Grupo 56077" transform="translate(0 1.051)">
                  <path id="Trazado_103159" data-name="Trazado 103159" d="M625.112,286.92c-.131-.146-.269-.037-.416.06a.626.626,0,0,0-.256.377,1.544,1.544,0,0,0,.115,1.1.83.83,0,0,0,.7.414c.4.006.536-.342.568-.681.008-.09.025-.306-.062-.365s-.168.08-.235.142a.556.556,0,0,1-.345.112.722.722,0,0,1-.584-.294.358.358,0,0,1-.056-.106c-.009.222,0,.273.028.152a.575.575,0,0,1,.084-.153c.1-.15.261-.248.371-.389.053-.066.156-.3.09-.374Z" transform="translate(-624.388 -286.849)" fill="#e47a5d"/>
                </g>
              </g>
            </g>
            <path id="Trazado_103160" data-name="Trazado 103160" d="M587.17,399.977l-6.795,23.866,1.009,43.363s11.659.869,16.272-3.305L593.3,437.057l6.606-29.553Z" transform="translate(-554.817 -367.362)" fill="#12263f"/>
            <path id="Trazado_103161" data-name="Trazado 103161" d="M423.55,401.32l-7.737,3.636s-4.4,1.163-3.5,5.725l2.546,25.274-4.218,29.121s3.619,4.344,10.823,1.792l3.172-42.494Z" transform="translate(-406.245 -368.538)" fill="#00172f"/>
            <path id="Trazado_103162" data-name="Trazado 103162" d="M521.391,378.119a7.124,7.124,0,0,1,3.042-3.678l-.33,6.872S522.7,377.8,521.391,378.119Z" transform="translate(-503.188 -345.01)" fill="#c2e3e5"/>
            <path id="Trazado_103163" data-name="Trazado 103163" d="M519.547,406.978l.23-3.194c.772-.19,1.461.891,2.023,1.776Z" transform="translate(-501.574 -370.676)" fill="#a7c3c5"/>
            <g id="Grupo_56080" data-name="Grupo 56080" transform="translate(19.1 34.28)">
              <path id="Trazado_103164" data-name="Trazado 103164" d="M563.769,413.941l.207-.386,1.409,2.163-1.211.432Z" transform="translate(-559.382 -413.526)" fill="aqua"/>
              <path id="Trazado_103165" data-name="Trazado 103165" d="M530.3,413.934l-.395-.606a1.626,1.626,0,0,0,.075,2.623A7.034,7.034,0,0,1,530.3,413.934Z" transform="translate(-529.17 -413.328)" fill="aqua"/>
              <path id="Trazado_103166" data-name="Trazado 103166" d="M538.1,416.652a3.105,3.105,0,0,1-3.262.191,2.444,2.444,0,0,0-.32,2.017l1.071,2.208h1.5l1.419-2.208A4.74,4.74,0,0,0,538.1,416.652Z" transform="translate(-533.71 -416.238)" fill="aqua"/>
              <path id="Trazado_103167" data-name="Trazado 103167" d="M531.958,452.066l1.207,31.591-2.521,4.908-2.058-4.882,1.876-31.616Z" transform="translate(-528.586 -447.236)" fill="aqua"/>
            </g>
            <path id="Trazado_103168" data-name="Trazado 103168" d="M622.617,592.137l3.106-2.454a36.464,36.464,0,0,1,7.012-.391s.771,1.074-5.127,1.238a28.917,28.917,0,0,1,5.465,2.3s.212,1.224-3.57-.554l-1.721-.127,4,2s-.156.762-3.8-.228l-3.655.4Z" transform="translate(-591.792 -533.006)" fill="#f39672"/>
            <path id="Trazado_103169" data-name="Trazado 103169" d="M397.908,599.472l20.016-2.394a7.385,7.385,0,0,1,1.537,5.764l-25.568,8.109s-6.755,1.2-4.974-6.937A12.16,12.16,0,0,1,397.908,599.472Z" transform="translate(-386.974 -539.885)" fill="#00152c"/>
            <path id="Trazado_103170" data-name="Trazado 103170" d="M450.082,588.991s3.6,1.939,4.946,2.093l2.093-3.611-2.859-1.854-1.96-.452s-3.225-.832-4.075,3.593Z" transform="translate(-439.148 -529.404)" fill="#f39672"/>
            <g id="Grupo_56081" data-name="Grupo 56081" transform="translate(15.489 57.436)">
              <path id="Trazado_103171" data-name="Trazado 103171" d="M530.861,608.178c1.208,7.314-4.11,5.466-4.11,5.466l-27.122-9.761c.764-4.2,2.484-4.86,2.484-4.86l23.2,4.426S529.674,604.821,530.861,608.178Z" transform="translate(-499.629 -599.023)" fill="#002141"/>
            </g>
          </g>
        </g>
      </g>
      <g id="Grupo_56151" data-name="Grupo 56151" transform="translate(295.459 164.309)">
        <path id="Trazado_103245" data-name="Trazado 103245" d="M997.749,385.988a6.281,6.281,0,0,1,1.169,2.4c2.345-3.095,4.072-9.172.731-11.958C994.626,372.247,994.526,382.779,997.749,385.988Z" transform="translate(-979.814 -371.789)" fill="#12263f"/>
        <g id="Grupo_56150" data-name="Grupo 56150" transform="translate(0 1.164)">
          <g id="Grupo_56128" data-name="Grupo 56128" transform="translate(3.446 33.062)">
            <g id="Grupo_56126" data-name="Grupo 56126" transform="translate(0 29.741)">
              <g id="Grupo_56125" data-name="Grupo 56125" transform="translate(0 27.777)">
                <path id="Trazado_103246" data-name="Trazado 103246" d="M915.68,1125.241l-.388,2.615,1.522,3.468s-.644.576-1.356-.561L914.1,1127.9l.19-2.946Z" transform="translate(-911.958 -1119.565)" fill="#c67357"/>
                <path id="Trazado_103247" data-name="Trazado 103247" d="M909.063,1131.794l-.532,2.589,1.324,3.549s-.673.538-1.32-.637l-1.195-2.931.355-2.929Z" transform="translate(-906.04 -1125.235)" fill="#c67357"/>
                <path id="Trazado_103248" data-name="Trazado 103248" d="M897.012,1088.858l.473-3.041.522-3.773,2.361-.326.811,3.978.2,2.089.237,2.853.127.922s-.74.238-1.314-1.228l-.6-2.691-1.023,2.115.867,3.713s-.222,1.938-.8,1.207l-1.953-5.211Z" transform="translate(-896.91 -1081.719)" fill="#e28262"/>
              </g>
              <path id="Trazado_103249" data-name="Trazado 103249" d="M912.237,861.373s-5.225,20.588-5.726,25.37c0,0-2.029,2.409-2.361.326-.664-4.157.279-25.92,1.342-27.643S912.237,861.373,912.237,861.373Z" transform="translate(-903.054 -858.966)" fill="#e28262"/>
            </g>
            <g id="Grupo_56127" data-name="Grupo 56127" transform="translate(1.247)">
              <path id="Trazado_103250" data-name="Trazado 103250" d="M915.106,679.352l-1.715.559s-2.716,21.118-.418,25.835,4.942-.023,5.8-.557,6.356-24.452,6.356-24.452Z" transform="translate(-911.41 -672.009)" fill="#392a8d"/>
              <path id="Trazado_103251" data-name="Trazado 103251" d="M906.919,651.748l1.1-26.456c1.242-6.494,7.89-4.561,7.89-4.561,5.392,1.4,5.134,7.446,5.134,7.446L916.4,653.518s-.971,3.875-5.96,3.875C910.443,657.393,906.762,656.9,906.919,651.748Z" transform="translate(-906.914 -620.462)" fill="#392a8d"/>
            </g>
            <rect id="Rectángulo_5440" data-name="Rectángulo 5440" width="2.409" height="4.191" transform="matrix(0.034, -0.999, 0.999, 0.034, 0.166, 60.439)" fill="#fff"/>
            <path id="Trazado_103252" data-name="Trazado 103252" d="M908.373,860.466s-2.313,15.552-5.631,25.078a16.959,16.959,0,0,1-4.468-.155s-.247-22.3,1.589-29.514C899.863,855.875,909.033,856.066,908.373,860.466Z" transform="translate(-898.095 -826.519)" fill="#392a8d"/>
          </g>
          <path id="Trazado_103253" data-name="Trazado 103253" d="M879.631,1680.842s-.936,3.643-2.085,4.63-5.537,2.441-5.537,2.441l-2.431.349s-1.689,1.212,2.948,2.486,12.774-2.571,12.774-2.571l-1.834-7.445Z" transform="translate(-869.277 -1515.455)" fill="#251110"/>
          <path id="Trazado_103254" data-name="Trazado 103254" d="M1147.746,1703.409c.818-1.275,2.532-8.225,2.532-8.225l3.789-.115,2.371,7.652s.38,1.281-.393,1.761c0,0-4.725,1.64-8.76-.078A2.8,2.8,0,0,1,1147.746,1703.409Z" transform="translate(-1112.618 -1528.006)" fill="#251110"/>
          <path id="Trazado_103255" data-name="Trazado 103255" d="M925.746,619.453l-4.837-29.565s-1.667-4.445,1.666-6.666l12.705-5.972h8.961l15.275,9.028L949.5,619.453Z" transform="translate(-914.106 -549.576)" fill="#f39672"/>
          <path id="Trazado_103256" data-name="Trazado 103256" d="M986.384,915.688s2.743,6.265,3.4,20.666c0,0-20.65,6.477-27.127,0l-.036-20.666Z" transform="translate(-950.985 -845.812)" fill="#0d0f12"/>
          <g id="Grupo_56129" data-name="Grupo 56129" transform="translate(21.86 81.793)">
            <path id="Trazado_103257" data-name="Trazado 103257" d="M1044.584,1019.936a8.476,8.476,0,1,0,8.536-8.687A8.616,8.616,0,0,0,1044.584,1019.936Z" transform="translate(-1044.584 -1011.248)" fill="#392a8d"/>
            <path id="Trazado_103258" data-name="Trazado 103258" d="M1065.189,1063.144l2.247,36.8s-3.977,9.571-11.016,3.687l-7.643-37.858S1052.487,1053.051,1065.189,1063.144Z" transform="translate(-1048.254 -1053.265)" fill="#392a8d"/>
          </g>
          <path id="Trazado_103259" data-name="Trazado 103259" d="M1121.345,1364.741s2.118,6.91,1.489,18.943l.629,22.5-7.8.155-5.3-37.79S1115.674,1356.3,1121.345,1364.741Z" transform="translate(-1080.303 -1236.269)" fill="#392a8d"/>
          <g id="Grupo_56130" data-name="Grupo 56130" transform="translate(9.733 82.51)">
            <path id="Trazado_103260" data-name="Trazado 103260" d="M962.661,1025.057c-.49,4.807,1.229,8.921,5.882,9.4a8.755,8.755,0,0,0,1.777-17.41C965.666,1016.567,963.152,1020.249,962.661,1025.057Z" transform="translate(-960.679 -1017.001)" fill="#392a8d"/>
            <path id="Trazado_103261" data-name="Trazado 103261" d="M962.526,1078.781l-4.276,33.906s-9.272,4.111-10.918-1.642c0,0,.216-25.828,1.982-38.594C949.314,1072.451,960.763,1066.875,962.526,1078.781Z" transform="translate(-947.332 -1064.395)" fill="#392a8d"/>
          </g>
          <path id="Trazado_103262" data-name="Trazado 103262" d="M953.928,1367.982s1.3,4.973-.1,14.053l-3.217,25.7-8.213-.435.616-40.936S948.123,1361,953.928,1367.982Z" transform="translate(-933.277 -1238.565)" fill="#392a8d"/>
          <g id="Grupo_56131" data-name="Grupo 56131" transform="translate(34.911 35.753)">
            <path id="Trazado_103263" data-name="Trazado 103263" d="M1217.652,887.023c1.746,17.509,1.03,18.669.848,25.691,0,0,.932,2.472,2.519,1.083s4.119-24.7,3.322-26.565C1223.155,884.472,1217.652,887.023,1217.652,887.023Z" transform="translate(-1209.121 -855.534)" fill="#f39672"/>
            <path id="Trazado_103264" data-name="Trazado 103264" d="M1194.544,1094.992l-2.463,2.462-2.093,3.066c1.036.7,2.121-1.019,2.121-1.019a24.087,24.087,0,0,1-1.991,5.088c-.318.969.6.9.6.9a19.07,19.07,0,0,0,2.329-4.143,46.928,46.928,0,0,1-1.741,4.78c-.117.843.728.6.728.6,1.737-1.028,2.314-4.781,2.314-4.781a27.047,27.047,0,0,1-1.3,4.348c.2.579.484.381.484.381,1.5-.6,2.045-4.217,2.045-4.217l-.239,1.347c-.49,1.816.635,1.347.635,1.347l.405-.911a10.977,10.977,0,0,0,.829-5.309l-.007-3.268Z" transform="translate(-1184.906 -1038.509)" fill="#f39672"/>
            <path id="Trazado_103265" data-name="Trazado 103265" d="M1160.787,652.5a6.715,6.715,0,0,1,7.911,4.108s2.962,18.143,2.925,25.918c-.025,5.247-6.426,1.021-6.846.1-.927-2.035-7.655-23.888-7.655-23.888S1156.772,653.6,1160.787,652.5Z" transform="translate(-1156.132 -651.011)" fill="#f39672"/>
            <path id="Trazado_103266" data-name="Trazado 103266" d="M1156.886,673.957l-7.648-24.794c.172-6.164,6.2-7.083,6.2-7.083a6.179,6.179,0,0,1,6.914,4.337l2.744,24.822s.93,5.58-2.293,5.66C1162.806,676.9,1157.4,677.485,1156.886,673.957Z" transform="translate(-1149.238 -642.037)" fill="#392a8d"/>
            <path id="Trazado_103267" data-name="Trazado 103267" d="M1222.234,1083.045l-.473,2.361-4.109-.821.472-2.362Z" transform="translate(-1209.121 -1027.332)" fill="#fff"/>
            <path id="Trazado_103268" data-name="Trazado 103268" d="M1206.848,869.215s.99,20.829,1.348,25.089l4.65.978s4.2-20.875,2.68-27.281C1215.525,868,1209.45,864.686,1206.848,869.215Z" transform="translate(-1199.664 -838.799)" fill="#392a8d"/>
          </g>
          <path id="Trazado_103269" data-name="Trazado 103269" d="M1040.21,524.883v9.578h-10.128a13.3,13.3,0,0,0,1.245-9.578Z" transform="translate(-1010.03 -503.739)" fill="#f39672"/>
          <path id="Trazado_103270" data-name="Trazado 103270" d="M1038.932,533.016c-.912.587-2.852,1.837-3.959,1.106a1.048,1.048,0,0,1-.481-.743,14.031,14.031,0,0,0,.7-8.5h8.883v.868C1042.962,528.555,1041.541,531.335,1038.932,533.016Z" transform="translate(-1013.89 -503.739)" fill="#db765e"/>
          <g id="Grupo_56132" data-name="Grupo 56132" transform="translate(17.343 1.762)">
            <path id="Trazado_103271" data-name="Trazado 103271" d="M1074.675,388.98s1.724-.749,3.676-5.015c0,0,4.238-5.044,1.234-10.772,0,0-1.775-4.844-10.374-3.488C1069.211,369.705,1068.437,382.685,1074.675,388.98Z" transform="translate(-1061.597 -369.465)" fill="#f3906b"/>
            <path id="Trazado_103272" data-name="Trazado 103272" d="M1010.849,391.563l-.574-1.5s-1.583-5.588-1.583-5.589a5.774,5.774,0,0,1-.082-2.364,5.816,5.816,0,0,0,.023-2.436,7.053,7.053,0,0,1,1.061-6.3c2.269-3.789,7.856-3.916,7.856-3.916,6.916.18,7.652,6.851,7.652,6.851,1.225,4.421-2.227,8.205-2.234,8.214-.275.3-.1,1.761-.171,2.179-.323,1.783-2,2.913-3.483,3.7a16.589,16.589,0,0,1-5.457,2C1013.156,392.482,1011.177,392.424,1010.849,391.563Z" transform="translate(-1008.36 -369.457)" fill="#f39672"/>
          </g>
          <path id="Trazado_103273" data-name="Trazado 103273" d="M951.149,618.65c-.021.985,1.474,11.289.847,11.422,0,0-17.1,3.939-26.213,0l-.036-10.619-4.837-29.565s-1.667-4.445,1.666-6.666l12.705-5.972-.857,2.575,1.837,5.225,7.981-7.8,15.275,9.028q-1.279,4.243-2.556,8.487c-1.574,5.215-3.107,10.445-4.729,15.645C952.231,610.409,950.889,616.049,951.149,618.65Z" transform="translate(-914.106 -549.576)" fill="#fff"/>
          <path id="Trazado_103274" data-name="Trazado 103274" d="M1055.785,592.16l.106,4.76,1.753-1.714Z" transform="translate(-1032.528 -562.627)" fill="#d2d1d1"/>
          <g id="Grupo_56137" data-name="Grupo 56137" transform="translate(20.816 36.53)">
            <g id="Grupo_56133" data-name="Grupo 56133" transform="translate(0.208)">
              <path id="Trazado_103275" data-name="Trazado 103275" d="M1037.879,648.949a.68.68,0,1,0,.68-.679A.679.679,0,0,0,1037.879,648.949Z" transform="translate(-1037.879 -648.27)" fill="#e8e8e8"/>
            </g>
            <g id="Grupo_56134" data-name="Grupo 56134" transform="translate(0.208 12.333)">
              <path id="Trazado_103276" data-name="Trazado 103276" d="M1037.879,747.852a.68.68,0,1,0,.68-.679A.679.679,0,0,0,1037.879,747.852Z" transform="translate(-1037.879 -747.172)" fill="#e8e8e8"/>
            </g>
            <g id="Grupo_56135" data-name="Grupo 56135" transform="translate(0.208 24.666)">
              <path id="Trazado_103277" data-name="Trazado 103277" d="M1037.879,846.753a.68.68,0,1,0,.68-.679A.68.68,0,0,0,1037.879,846.753Z" transform="translate(-1037.879 -846.074)" fill="#e8e8e8"/>
            </g>
            <g id="Grupo_56136" data-name="Grupo 56136" transform="translate(0 36.79)">
              <circle id="Elipse_1412" data-name="Elipse 1412" cx="0.68" cy="0.68" r="0.68" transform="translate(0 0.52) rotate(-22.5)" fill="#e8e8e8"/>
            </g>
          </g>
          <line id="Línea_191" data-name="Línea 191" y2="46.807" transform="translate(23.257 34.835)" fill="none" stroke="#e8e8e8" stroke-miterlimit="10" stroke-width="2.948"/>
          <path id="Trazado_103280" data-name="Trazado 103280" d="M1055.785,560.8s5.6-2.177,6.923-4.345l1.656,3.157-5.909,5.667-2.671-4.371" transform="translate(-1032.528 -531.376)" fill="#e8e8e8"/>
          <path id="Trazado_103281" data-name="Trazado 103281" d="M1099.9,384.554c.188.34.941,2.718.015,3.908,1.952,1.5,1.01,4.539,1.01,4.539l.474.027c2.738-.709,1.819,4.472,1.819,4.474.021-.119.477-.409.567-.5A19.414,19.414,0,0,0,1105.8,394a15.756,15.756,0,0,0,2.264-5.8c.353-1.425.2-5.285-1.873-7.225C1106.189,380.973,1103.771,380.972,1099.9,384.554Z" transform="translate(-1071.137 -377.775)" fill="#12263f"/>
          <path id="Trazado_103282" data-name="Trazado 103282" d="M1089.4,355.324" transform="translate(-1061.953 -355.324)" fill="#d27736"/>
          <g id="Grupo_56148" data-name="Grupo 56148" transform="translate(30.242 13.289)">
            <g id="Grupo_56144" data-name="Grupo 56144">
              <g id="Grupo_56143" data-name="Grupo 56143">
                <g id="Grupo_56142" data-name="Grupo 56142">
                  <g id="Grupo_56141" data-name="Grupo 56141">
                    <g id="Grupo_56140" data-name="Grupo 56140">
                      <path id="Trazado_103283" data-name="Trazado 103283" d="M1112.474,466.08a1.54,1.54,0,0,0,.974.348,2.244,2.244,0,0,0,2.148-2.207,2.055,2.055,0,0,0-1.84-2.329,1.934,1.934,0,0,0-1.394.559,2.8,2.8,0,0,0-.527,2.258A2.107,2.107,0,0,0,1112.474,466.08Z" transform="translate(-1111.801 -461.891)" fill="#f39672"/>
                    </g>
                  </g>
                </g>
              </g>
            </g>
            <g id="Grupo_56147" data-name="Grupo 56147" transform="translate(1.125 0.727)">
              <g id="Grupo_56145" data-name="Grupo 56145" transform="translate(0.315)">
                <path id="Trazado_103284" data-name="Trazado 103284" d="M1123.368,468.142c.1-.656,1.4.036,1.179.4a2.024,2.024,0,0,1-.558.494.976.976,0,0,0-.442.7c-.006.038-.019.152.018.181.167.128.761-.49.891-.619a1.1,1.1,0,0,0,.21-1.045.661.661,0,0,0-.709-.527c-.3,0-.605.009-.6.382,0,.009.011.071.016.038Z" transform="translate(-1123.352 -467.722)" fill="#e47a5d"/>
              </g>
              <g id="Grupo_56146" data-name="Grupo 56146" transform="translate(0 1.051)">
                <path id="Trazado_103285" data-name="Trazado 103285" d="M1121.549,476.224c-.131-.146-.269-.037-.416.059a.623.623,0,0,0-.257.377,1.543,1.543,0,0,0,.116,1.105.827.827,0,0,0,.7.414c.4.006.536-.342.569-.681.008-.09.025-.305-.062-.365s-.168.081-.234.142a.559.559,0,0,1-.345.112.724.724,0,0,1-.586-.294.385.385,0,0,1-.056-.105c-.009.222,0,.273.028.151a.585.585,0,0,1,.084-.153c.1-.15.261-.247.371-.389.053-.065.157-.3.091-.374Z" transform="translate(-1120.824 -476.153)" fill="#e47a5d"/>
              </g>
            </g>
          </g>
          <path id="Trazado_103286" data-name="Trazado 103286" d="M1083.61,589.281l-6.794,23.866,1.008,43.364s10.557-.646,15.17-4.82l-3.253-25.329,6.605-29.553Z" transform="translate(-1050.936 -560.107)" fill="#392a8d"/>
          <path id="Trazado_103287" data-name="Trazado 103287" d="M1083.61,589.281l-6.794,23.866.028,1.133,8.558-8.758s.9-1.52-.319-2.419l-2.021-1.934,1.441-1.035s2.023-.98,1.777-2.818l-.579-6.911Z" transform="translate(-1050.936 -560.107)" fill="#23166c"/>
          <path id="Trazado_103288" data-name="Trazado 103288" d="M930.88,590.625l-7.737,3.636s-4.4,1.163-3.5,5.725l2.544,25.274-1.274,26.779s-1.09,4.976,7.88,4.133l3.174-42.493Z" transform="translate(-913.254 -561.283)" fill="#392a8d"/>
          <path id="Trazado_103289" data-name="Trazado 103289" d="M1017.828,567.421a7.127,7.127,0,0,1,3.042-3.679l-.331,6.872S1019.138,567.1,1017.828,567.421Z" transform="translate(-999.304 -537.753)" fill="#e8e8e8"/>
          <path id="Trazado_103290" data-name="Trazado 103290" d="M1015.98,596.282l.231-3.194c.771-.189,1.461.89,2.023,1.776Z" transform="translate(-997.686 -563.421)" fill="#d2d1d1"/>
          <path id="Trazado_103291" data-name="Trazado 103291" d="M977.657,590.625l-1.995.938-1.44,6.654s-.722,1.722.323,2.173l1.881,1.1-2.65,1.677a1.532,1.532,0,0,0-.536,2.16l5.316,10.378.167-1.775Z" transform="translate(-960.031 -561.283)" fill="#23166c"/>
          <path id="Trazado_103292" data-name="Trazado 103292" d="M1025.185,480.686l-.74-3.229-.473-.027a3.533,3.533,0,0,1-3.037,2.518s-1.107.168-1.578.23c-.062.009-.743-.665-.831-.722a5.353,5.353,0,0,0-2.551-.7,6.319,6.319,0,0,0-2.732.172c-.115.044-1.221.6-1.258.447,0,0,1.171,5.174,1.993,6.653,0,0,.36,1.138,3.02.86a15.117,15.117,0,0,0,8.111-3.709C1025.7,482.739,1025.185,480.686,1025.185,480.686Zm-11.918-.222c.1-.538.126-.877.586-.962a9.366,9.366,0,0,1,2.813.1c.734.093,1.642.188,1.942.989a3.118,3.118,0,0,1-.3,2.376,2.973,2.973,0,0,1-3.684.943A4.2,4.2,0,0,1,1013.267,480.464Z" transform="translate(-994.189 -462.204)" fill="#a96c53"/>
          <g id="Grupo_56149" data-name="Grupo 56149" transform="translate(19.421 30.839)">
            <path id="Trazado_103293" data-name="Trazado 103293" d="M1060.2,603.25l.207-.386,1.409,2.162-1.212.432Z" transform="translate(-1055.816 -602.835)" fill="aqua"/>
            <path id="Trazado_103294" data-name="Trazado 103294" d="M1026.735,603.238l-.4-.6a1.626,1.626,0,0,0,.076,2.623A7.01,7.01,0,0,1,1026.735,603.238Z" transform="translate(-1025.608 -602.633)" fill="aqua"/>
            <path id="Trazado_103295" data-name="Trazado 103295" d="M1034.537,605.961a3.105,3.105,0,0,1-3.261.19,2.44,2.44,0,0,0-.32,2.018l1.07,2.208h1.5l1.419-2.208A4.737,4.737,0,0,0,1034.537,605.961Z" transform="translate(-1030.15 -605.546)" fill="aqua"/>
            <path id="Trazado_103296" data-name="Trazado 103296" d="M1028.392,641.367l1.207,31.591-2.521,4.908-2.059-4.883,1.877-31.616Z" transform="translate(-1025.02 -636.537)" fill="aqua"/>
          </g>
        </g>
        <path id="Trazado_103297" data-name="Trazado 103297" d="M1000.91,353.5l2.307-1.147,4.384-2s0-3.006-5.532-4.166c0,0-6.781-1.07-12.177,1.784a2.92,2.92,0,0,1-2.63.089S989.135,355.91,1000.91,353.5Z" transform="translate(-972.55 -345.99)" fill="#12263f"/>
      </g>
    </g>
  </g>
</svg>
