<svg xmlns="http://www.w3.org/2000/svg" width="268" height="208.222" viewBox="0 0 268 208.222">
  <g id="Grupo_56215" data-name="Grupo 56215" transform="translate(-659 -6151.811)">
    <path id="Trazado_103355" data-name="Trazado 103355" d="M424.367,1541.659c0,5.306-47.157,9.609-105.328,9.609s-105.328-4.3-105.328-9.609,47.157-9.608,105.328-9.608S424.367,1536.352,424.367,1541.659Z" transform="translate(477.072 4794.792)" fill="#897dc7"/>
    <path id="Trazado_103356" data-name="Trazado 103356" d="M730.255,1671.425c0,4.831-25.492,8.747-56.938,8.747s-56.938-3.917-56.938-8.747,25.493-8.745,56.938-8.745S730.255,1666.595,730.255,1671.425Z" transform="translate(122.794 4679.861)" fill="#897dc7"/>
    <rect id="Rectángulo_5448" data-name="Rectángulo 5448" width="268" height="79" rx="15" transform="translate(659 6235)" fill="#7c64aa"/>
    <g id="Grupo_56195" data-name="Grupo 56195" transform="translate(627.447 6119.198)">
      <g id="Grupo_56158" data-name="Grupo 56158" transform="translate(159.225 71.378)">
        <g id="Grupo_56153" data-name="Grupo 56153" transform="translate(67.195 97.752)">
          <path id="Trazado_103298" data-name="Trazado 103298" d="M511.67,457.679l-7.6-50.561,1.464-.226,7.6,50.561Z" transform="translate(-504.068 -406.892)" fill="#392a8d"/>
        </g>
        <g id="Grupo_56154" data-name="Grupo 56154" transform="translate(57.911 97.752)">
          <path id="Trazado_103299" data-name="Trazado 103299" d="M486.218,457.679l-7.6-50.561,1.464-.226,7.6,50.561Z" transform="translate(-478.616 -406.892)" fill="#392a8d"/>
        </g>
        <g id="Grupo_56155" data-name="Grupo 56155" transform="translate(18.323 97.752)">
          <path id="Trazado_103300" data-name="Trazado 103300" d="M371.544,457.679l-1.464-.226,7.6-50.561,1.464.226Z" transform="translate(-370.08 -406.892)" fill="#392a8d"/>
        </g>
        <path id="Trazado_103301" data-name="Trazado 103301" d="M475.385,297.918l5.955-62.656s-10.416-1.363-16.71-1.027l-9.459,63.683Z" transform="translate(-405.811 -199.425)" fill="#d7c8f2"/>
        <rect id="Rectángulo_5442" data-name="Rectángulo 5442" width="20.214" height="3.184" transform="translate(49.36 95.309)" fill="#d7c8f2"/>
        <path id="Trazado_103302" data-name="Trazado 103302" d="M413.412,295.5l-3.159-59.708s26.361-2.863,42.553-.395Z" transform="translate(-377.277 -199.56)" fill="#d7c8f2"/>
        <path id="Trazado_103303" data-name="Trazado 103303" d="M432.054,155.79s4.071-11.937-3.7-15.638-14.363,1.648-15.609,4.543-.916,8.159.147,11.828.908,9.259-1.4,11.127-5.171,4.972-5.029,11.29c.088,3.919,15.423-10.026,15.423-10.026Z" transform="translate(-374.868 -138.893)" fill="#12263f"/>
        <path id="Trazado_103304" data-name="Trazado 103304" d="M442.821,513.935s-.242,8.435.963,8.943,5.764-2.426,7.775-5.327-2.52-9.653-3.263-13.378c-.311-1.56-3.854-4.366-5.582-3.561a8.446,8.446,0,0,0-2.989,2.863S444.121,506.488,442.821,513.935Z" transform="translate(-395.999 -368.586)" fill="#d4c3bd"/>
        <g id="Grupo_56156" data-name="Grupo 56156" transform="translate(43.726 132.027)">
          <path id="Trazado_103305" data-name="Trazado 103305" d="M439.725,503.723a46.5,46.5,0,0,1,2.265,5.113c.769,2.234.913,8.419,1.4,8.848s4.3-1.5,4.815-3.81-1.039-6.936-2.515-9.367a15.1,15.1,0,0,0-2.975-3.646S440.109,501.367,439.725,503.723Z" transform="translate(-439.725 -500.86)" fill="#de9673"/>
        </g>
        <path id="Trazado_103306" data-name="Trazado 103306" d="M463.222,510.624l4.1,5.991-.778.533-3.173-4.631Z" transform="translate(-410.926 -375.036)" fill="#d4c3bd"/>
        <path id="Trazado_103307" data-name="Trazado 103307" d="M395.872,325.079s2.007,3.39,0,5.859-15.506,9.247-15.407,13.164,2.572,10.046,3.46,11.6,4.167,8.007,5.87,11.784,11.551,21.843,13.476,25.915.74-16.289.74-16.289l-9.848-28.878,23.009-22.416S414.388,319.62,395.872,325.079Z" transform="translate(-358.354 -255.74)" fill="#de9673"/>
        <path id="Trazado_103308" data-name="Trazado 103308" d="M416.958,223.588s-6.385,1.416-8.919,2.9-8.161,8.294-8.161,11.223,24.611,5.666,24.611,5.666l4.665,17.03s12.439-3.035,13.92-5.553-4.9-20.437-5.787-24.213-5.542-6.322-10.725-7.049A35.621,35.621,0,0,0,416.958,223.588Z" transform="translate(-370.686 -192.491)" fill="#2f4563"/>
        <path id="Trazado_103309" data-name="Trazado 103309" d="M439.6,330.529s-.445,2.913.74,4.147,6.641,8.43,3.752,15.5c-2.654,6.492-7.8,6.368-7.8,6.368h-7.964s2.313,11.685,1.565,19.387-4.259,25.285-4.334,26.173-3.367,3.667-4.33,2.26c0,0-.089-10.588-.608-14.587s-2.724-19.992-3.391-22.362-4.591-9.551-4.591-10.292-3.833-12.331,4.534-15.294S428.5,330.59,439.6,330.529Z" transform="translate(-378.236 -260.63)" fill="#eea886"/>
        <path id="Trazado_103310" data-name="Trazado 103310" d="M418.266,536.94s-5.493,6.407-4.875,7.559,6.007,1.739,9.395.747,4.111-9.09,5.876-12.454c.739-1.408-.252-5.817-2.1-6.279a8.438,8.438,0,0,0-4.125.347S423.96,531.967,418.266,536.94Z" transform="translate(-379.239 -385.039)" fill="#e6d3cc"/>
        <g id="Grupo_56157" data-name="Grupo 56157" transform="translate(37.263 141.011)">
          <path id="Trazado_103311" data-name="Trazado 103311" d="M427.941,526.3a46.581,46.581,0,0,1-1.454,5.4c-.807,2.22-4.584,7.12-4.478,7.759s4.289,1.543,6.14.065,3.554-6.046,3.935-8.864a15.1,15.1,0,0,0-.019-4.707S429.722,524.711,427.941,526.3Z" transform="translate(-422.007 -525.492)" fill="#eea886"/>
        </g>
        <path id="Trazado_103312" data-name="Trazado 103312" d="M452.7,543.975l-.576,7.241-.94-.075.445-5.6Z" transform="translate(-403.28 -396.222)" fill="#e6d3cc"/>
        <path id="Trazado_103313" data-name="Trazado 103313" d="M424.148,345.286c-2.505,6.578-7.8,6.368-7.8,6.368h-7.964s-3.322-5.264-11.457-6.169a24.08,24.08,0,0,0-6.135.146l-.082.012c-10.809,1.6-8.722,5.569-8.689,5.672-.9-2.193-1.842-5.681-1.614-7.559,1.037-8.557,13.4-10.351,15.407-12.818s0-5.858,0-5.858c18.516-5.459,21.3.739,21.3.739.812-.112,2.892-1.311,3.777-1.315,0,0,.927,2.024,1.58,3.85C423.046,329.965,426.867,338.148,424.148,345.286Z" transform="translate(-358.295 -255.74)" fill="#2f4563"/>
        <path id="Trazado_103314" data-name="Trazado 103314" d="M416.526,255.251l2.74,25.471h-36.06l-2.74-25.471Z" transform="translate(-358.355 -212.81)" fill="#ded1c5"/>
        <rect id="Rectángulo_5443" data-name="Rectángulo 5443" width="6.023" height="2.291" transform="translate(57.757 65.621)" fill="#ded1c5"/>
        <rect id="Rectángulo_5444" data-name="Rectángulo 5444" width="99.323" height="3.468" transform="translate(0 67.912)" fill="#392a8d"/>
        <path id="Trazado_103315" data-name="Trazado 103315" d="M442,147.645s8.079,2.391,6.924,13.6-6.43,10.634-6.924,10.716-6.76.495-8.739-13.107S442,147.645,442,147.645Z" transform="translate(-391.738 -144.35)" fill="#eea886"/>
        <path id="Trazado_103316" data-name="Trazado 103316" d="M452.321,204.512a18.481,18.481,0,0,0,.287,6.02c.715,2.309-9.41,2.373-9.4.474.007-2.156,1.036-3.957.066-7.653S452.321,204.512,452.321,204.512Z" transform="translate(-398.208 -178.96)" fill="#eea886"/>
        <path id="Trazado_103317" data-name="Trazado 103317" d="M438.894,151.443s4.39,6.983,9.01,8.6c0,0,2.523-11.718-7.9-14.173s-8.787,11.835-8.009,15.645A30.98,30.98,0,0,1,438.894,151.443Z" transform="translate(-390.717 -143.148)" fill="#12263f"/>
        <path id="Trazado_103318" data-name="Trazado 103318" d="M446.668,210.246a5.467,5.467,0,0,0,7.284.347s-.338,2.129-3.278,2.4S446.668,210.246,446.668,210.246Z" transform="translate(-400.41 -184.22)" fill="#a77860"/>
        <path id="Trazado_103319" data-name="Trazado 103319" d="M435.784,149.516s2.311-4.474,6.213-4.674,6.222,3.185,6.222,3.185A6.634,6.634,0,0,0,442,144.215C437.307,144.215,435.784,149.516,435.784,149.516Z" transform="translate(-393.496 -142.274)" fill="#23344a"/>
        <path id="Trazado_103320" data-name="Trazado 103320" d="M452.173,223.2s-.143,7.76-6.3,7.991S441,223.747,441,223.747A21.392,21.392,0,0,1,452.173,223.2Z" transform="translate(-396.74 -192.161)" fill="#eea886"/>
        <rect id="Rectángulo_5445" data-name="Rectángulo 5445" width="2.551" height="79.641" transform="translate(96.773 71.38)" fill="#392a8d"/>
        <rect id="Rectángulo_5446" data-name="Rectángulo 5446" width="2.551" height="79.641" transform="translate(0 71.38)" fill="#392a8d"/>
      </g>
      <g id="Grupo_56194" data-name="Grupo 56194" transform="translate(67.001 32.613)">
        <g id="Grupo_56159" data-name="Grupo 56159" transform="translate(73.005 33.352)">
          <path id="Trazado_103321" data-name="Trazado 103321" d="M268.192,127.735s1.5-2.107,1.975-2.558-.355-1.86-1.37-.636-1.644,2.012-1.644,2.012Z" transform="translate(-267.153 -124.052)" fill="#eea886"/>
        </g>
        <g id="Grupo_56160" data-name="Grupo 56160" transform="translate(66.361 25.964)">
          <path id="Trazado_103322" data-name="Trazado 103322" d="M255.092,116.991l5.58-9.289a1.192,1.192,0,0,0-.532-1.7l-4.652-2.1a1.192,1.192,0,0,0-1.557.554l-4.866,9.739a1.192,1.192,0,0,0,.607,1.633l3.939,1.649A1.192,1.192,0,0,0,255.092,116.991Z" transform="translate(-248.938 -103.796)" fill="aqua"/>
        </g>
        <g id="Grupo_56161" data-name="Grupo 56161" transform="translate(66.02 30.793)">
          <path id="Trazado_103323" data-name="Trazado 103323" d="M256.032,124.881s.613-.774-.472-2.563c-1.441-2.376-3.574-5.228-4.225-5.279-.936-.073-.925.683.115,1.989s1.385,1.733,1.385,1.733-2.431-1.948-3.216-2.019-1.288.624-.94,1.021a12.909,12.909,0,0,0,1.3,1.125s-1.127-.679-1.527-.309c-.3.273-.643.715.272,1.592,0,0-1.221.32-.491,1.516a2.889,2.889,0,0,1,.272,3.054,9.008,9.008,0,0,0-.1,3.425l4.055.336a18.841,18.841,0,0,1,1.847-3.706C254.966,126.134,256.032,124.881,256.032,124.881Z" transform="translate(-248.004 -117.035)" fill="#eea886"/>
        </g>
        <g id="Grupo_56162" data-name="Grupo 56162" transform="translate(71.789 26.935)">
          <path id="Trazado_103324" data-name="Trazado 103324" d="M263.837,106.809a.478.478,0,1,0,.589-.332A.479.479,0,0,0,263.837,106.809Z" transform="translate(-263.819 -106.459)" fill="#ede1db"/>
        </g>
        <g id="Grupo_56163" data-name="Grupo 56163" transform="translate(33.139 176.727)">
          <path id="Trazado_103325" data-name="Trazado 103325" d="M164.785,517.681s2.016,3.016,4.844,3.668,6.929,2.289,6.951,4.073-9.492,2.248-12.728.449c-4.83-2.686-5.321-1.876-5.856-3.217s.643-4.932.608-5.359C158.561,516.768,164.785,517.681,164.785,517.681Z" transform="translate(-157.856 -517.131)" fill="#353a3d"/>
        </g>
        <g id="Grupo_56164" data-name="Grupo 56164" transform="translate(33.883 174.912)">
          <path id="Trazado_103326" data-name="Trazado 103326" d="M165.768,513.034a12.87,12.87,0,0,1,.313,1.488c-.054.031-6.373.783-6.181-.386.155-.948.376-1.978.376-1.978Z" transform="translate(-159.895 -512.157)" fill="#81807e"/>
        </g>
        <g id="Grupo_56165" data-name="Grupo 56165" transform="translate(17.652 176.702)">
          <path id="Trazado_103327" data-name="Trazado 103327" d="M122.3,517.812a8.879,8.879,0,0,0,3.9,3.868c2.625,1.05,5.477,2.79,5.429,4.529s-7.164,2.969-11.8-.368c-2.929-2.109-3.857-2.119-4.327-3.446s.816-4.778.8-5.2C116.276,516.684,122.3,517.812,122.3,517.812Z" transform="translate(-115.395 -517.064)" fill="#353a3d"/>
        </g>
        <g id="Grupo_56166" data-name="Grupo 56166" transform="translate(18.551 174.831)">
          <path id="Trazado_103328" data-name="Trazado 103328" d="M123.94,513.054a14.071,14.071,0,0,1-.072,1.5c-.054.028-6.16.531-6-.613a9.373,9.373,0,0,1,.593-2.006Z" transform="translate(-117.86 -511.933)" fill="#81807e"/>
        </g>
        <g id="Grupo_56167" data-name="Grupo 56167" transform="translate(16.184 81.114)">
          <path id="Trazado_103329" data-name="Trazado 103329" d="M142.206,261.7s3.285,24.931,4.58,32.554c1.1,6.487,1.7,13.217,1.176,17.9-.654,5.8-11.795,35.963-11.451,37.662s-9.324.768-9.324.768,9.321-35.393,8.075-41.632c-.924-4.62-5.761-33.934-7-32.36s-2.778,28.967-3.7,33.515-3.738,40.477-3.738,40.477-6.3.929-7.988-.5c0,0-.766-30.679-.181-39.2.224-3.249-3.807-38.955,1.361-53.33C116.749,249.959,142.206,261.7,142.206,261.7Z" transform="translate(-111.371 -254.998)" fill="#392a8d"/>
        </g>
        <g id="Grupo_56168" data-name="Grupo 56168" transform="translate(19.297 29.668)">
          <path id="Trazado_103330" data-name="Trazado 103330" d="M145.873,120.223l.956,48h0l-26.917-3.786h0l.342-48.756,4.98-1.725,10.148.871h0l2.136.976Z" transform="translate(-119.906 -113.953)" fill="#d7c8f2"/>
        </g>
        <g id="Grupo_56169" data-name="Grupo 56169" transform="translate(18.823 80.15)">
          <path id="Trazado_103331" data-name="Trazado 103331" d="M146,256.141s.62.742.8,3.882c0,0-25.493-2.974-28.188-4.146,0,0-.105-3.461.466-3.521C119.709,252.291,146,256.141,146,256.141Z" transform="translate(-118.607 -252.356)" fill="#495055"/>
        </g>
        <g id="Grupo_56170" data-name="Grupo 56170" transform="translate(24.48 19.672)">
          <path id="Trazado_103332" data-name="Trazado 103332" d="M134.116,95.676c.078,4,7.825,6.19,7.825,6.19s3.24-4.062,2.466-4.451c-.3-.152-.427-.759-.465-1.439a14.148,14.148,0,0,1,.044-1.815c.023-.283.045-.465.045-.465s-1.106-1.168-2.515-2.559c-2.461-2.433-5.844-5.55-5.849-4.31a1.125,1.125,0,0,0,.028.235C136.291,89.853,134.116,95.676,134.116,95.676Z" transform="translate(-134.116 -86.546)" fill="#eea886"/>
        </g>
        <g id="Grupo_56171" data-name="Grupo 56171" transform="translate(23.339 80.618)">
          <path id="Trazado_103333" data-name="Trazado 103333" d="M132.77,253.784s-.556,3.508-.6,4.423l-1.179-.236s.324-3.712.515-4.335Z" transform="translate(-130.987 -253.637)" fill="#353a3d"/>
        </g>
        <g id="Grupo_56172" data-name="Grupo 56172" transform="translate(42.905 83.36)">
          <path id="Trazado_103334" data-name="Trazado 103334" d="M185.817,261.321s.447,3.189.457,4.395l-1.247-.163s-.256-3.983-.4-4.4Z" transform="translate(-184.629 -261.155)" fill="#353a3d"/>
        </g>
        <g id="Grupo_56173" data-name="Grupo 56173" transform="translate(27.463 22.94)">
          <path id="Trazado_103335" data-name="Trazado 103335" d="M142.294,95.507h0c.015.024.344.515.9,1.221,1.189,1.5,3.425,3.953,5.938,4.94a14.148,14.148,0,0,1,.044-1.815,4.025,4.025,0,0,0,.77-.093,23.853,23.853,0,0,0-1.684-2.466l-1.555-.465Z" transform="translate(-142.294 -95.507)" fill="#a77860"/>
        </g>
        <g id="Grupo_56174" data-name="Grupo 56174" transform="translate(23.339 6.562)">
          <path id="Trazado_103336" data-name="Trazado 103336" d="M133.624,64.049c.42.913,1.483,2.929,1.488,2.933a5.181,5.181,0,0,0,.9,1.221c1.277,1.375,3.65,3.189,5.982,3.126a4.025,4.025,0,0,0,.77-.093,3.662,3.662,0,0,0,2.666-1.842c4.833-9.462,1.334-17.2,1.334-17.2s-13.215-3.737-15.282.241C130.035,55.227,132.049,60.624,133.624,64.049Z" transform="translate(-130.986 -50.604)" fill="#eea886"/>
        </g>
        <g id="Grupo_56175" data-name="Grupo 56175" transform="translate(21.358)">
          <path id="Trazado_103337" data-name="Trazado 103337" d="M143.319,40.767s1.227-.068,1.53-2.395c.3-2.3-2.668-3.882-2.668-3.882a16.785,16.785,0,0,0-5.052-1.635c-1.962-.273-6.776-.582-7.906.709,0,0-2.743-.637-3.491,3.917-1.185,7.225,4.041,14.241,4.041,14.241s-.044-4.72,1-5.346,1.94.862,1.94.862l2.129.382s-3.018-5.834.862-6.093A61.362,61.362,0,0,0,143.319,40.767Z" transform="translate(-125.557 -32.613)" fill="#223247"/>
        </g>
        <g id="Grupo_56176" data-name="Grupo 56176" transform="translate(24.728 10.752)">
          <path id="Trazado_103338" data-name="Trazado 103338" d="M138.519,64.083c-.2-2.079-3.963-2.873-3.711-.694s2.1,4.274,2.959,4.2S138.674,65.668,138.519,64.083Z" transform="translate(-134.796 -62.091)" fill="#eea886"/>
        </g>
        <g id="Grupo_56177" data-name="Grupo 56177" transform="translate(2.349 30.654)">
          <path id="Trazado_103339" data-name="Trazado 103339" d="M75.163,155.566c1.638,3.125,4.223,7.723,6.775,12.182-.336.627-.664,1.249-.979,1.863a37.413,37.413,0,0,0-1.932,4.311c-.581,1.629-1.39,5.8.158,6.579l8.154,4.5c1.4-3.877,2.426-6.182,2.724-6.879,2.032-4.727,2.929-7.016,5.064-11.006,2.513-4.638,5.24-8.233,6.106-13.616.811-5.07,1.128-9.044,1.567-13.738.638-6.8-3.529-14.169-6.728-18.719a50.181,50.181,0,0,0-3.437-4.387c-.806.305-1.342.518-1.9.739-3.1,1.215-10.4,3.375-11.22,3.964-.473.339-.756,3.078-1.979,7a117.736,117.736,0,0,0-4.089,23.291c0,.048,0,.095,0,.138A18.614,18.614,0,0,0,75.163,155.566Zm12.392-1.519a14.5,14.5,0,0,1-1.31,5.245c-.72-1.537-3.47-7.372-3.551-8.851-.3-5.387,3.667-11.587,3.667-11.587S87.195,141.356,87.554,154.047Z" transform="translate(-73.44 -116.656)" fill="#392a8d"/>
        </g>
        <g id="Grupo_56178" data-name="Grupo 56178" transform="translate(36.907 31.516)">
          <path id="Trazado_103340" data-name="Trazado 103340" d="M168.186,119.017a151.071,151.071,0,0,1,3.05,16.077c.629,4.41,1.511,11.914,2.36,19.49v0c.67,5.971,2.2,12.1,2.682,16.672v.009c.269,2.488.968,4.286,3.939,18.318l1.594-1.19,2.287-2.112a1.854,1.854,0,0,0,.514-1.913c-1.269-4.094-5.582-18.579-6.371-28.765a.023.023,0,0,1,0-.009c-.248-3.2.686-6.208,1.229-9.063a.058.058,0,0,1,0-.008l1.229,4.6.027.07c1.34,3.55,1.706,5.95,3.653,5.724,5.965-.7,19.044-24.2,19.211-25.156l-6.831-2.137L186.52,143.1l-5.379-17.793C179.964,124.378,169.657,119.688,168.186,119.017Z" transform="translate(-168.186 -119.017)" fill="#392a8d"/>
        </g>
        <g id="Grupo_56179" data-name="Grupo 56179" transform="translate(19.933 30.654)">
          <path id="Trazado_103341" data-name="Trazado 103341" d="M125.411,126.584l3.769,2.126-1.61,1.642,4.288,23.148c.874-5.426,1.272-10.578,1.568-13.738.986-10.517-9.511-22.38-10.164-23.106-.5.191-1.049.4-1.611.625Z" transform="translate(-121.649 -116.654)" fill="#12263f"/>
        </g>
        <g id="Grupo_56180" data-name="Grupo 56180" transform="translate(36.907 31.516)">
          <path id="Trazado_103342" data-name="Trazado 103342" d="M168.186,119.017s1.408,4.6,3.049,16.077c.629,4.41,1.512,11.914,2.361,19.49l.877-21.679-1.795-1.945,1.6-2-3.415-8.719c-.933-.431-1.811-.835-2.554-1.176Z" transform="translate(-168.186 -119.017)" fill="#12263f"/>
        </g>
        <g id="Grupo_56181" data-name="Grupo 56181" transform="translate(31.697 34.992)">
          <path id="Trazado_103343" data-name="Trazado 103343" d="M154.5,128.548s-.832,3.325-.532,4.256a4.059,4.059,0,0,0,3.141-.166A14.593,14.593,0,0,0,154.5,128.548Z" transform="translate(-153.902 -128.548)" fill="#323657"/>
        </g>
        <g id="Grupo_56182" data-name="Grupo 56182" transform="translate(33.253 81.86)">
          <path id="Trazado_103344" data-name="Trazado 103344" d="M158.251,257.043s3.751.448,4.992.757l-.163,4.2-4.912-.524Z" transform="translate(-158.168 -257.043)" fill="#69737a"/>
        </g>
        <g id="Grupo_56183" data-name="Grupo 56183" transform="translate(47.092 46.777)">
          <path id="Trazado_103345" data-name="Trazado 103345" d="M197.09,167.91c.119,2.427.121,4.62.119,5.2a.056.056,0,0,1,0-.008l1.229,4.6.027.07c.124-1.528.382-3.5.349-4.787-.2-7.955-2.706-12.127-2.706-12.127C196.683,162.245,196.958,165.221,197.09,167.91Z" transform="translate(-196.109 -160.859)" fill="#2d3133"/>
        </g>
        <g id="Grupo_56184" data-name="Grupo 56184" transform="translate(9.868 81.746)">
          <path id="Trazado_103346" data-name="Trazado 103346" d="M94.054,258.594l6.826,8.244-5.847-10.108C94.7,257.358,94.369,257.98,94.054,258.594Z" transform="translate(-94.054 -256.731)" fill="#2d3133"/>
        </g>
        <g id="Grupo_56185" data-name="Grupo 56185" transform="translate(0 68.637)">
          <rect id="Rectángulo_5447" data-name="Rectángulo 5447" width="31.146" height="22.715" transform="translate(37.647 20.802) rotate(156.315)" fill="aqua"/>
        </g>
        <g id="Grupo_56186" data-name="Grupo 56186" transform="translate(26.121 93.735)">
          <path id="Trazado_103347" data-name="Trazado 103347" d="M138.648,289.6s.947,1.023,1.275,1.3-.541.667-1,.407S138.648,289.6,138.648,289.6Z" transform="translate(-138.614 -289.6)" fill="#c98462"/>
        </g>
        <g id="Grupo_56187" data-name="Grupo 56187" transform="translate(28.897 34.992)">
          <path id="Trazado_103348" data-name="Trazado 103348" d="M154.032,132.569s-2.59,2-7.807.348l3.409-4.369Z" transform="translate(-146.225 -128.548)" fill="#e6a563"/>
        </g>
        <g id="Grupo_56188" data-name="Grupo 56188" transform="translate(18.384 90.2)">
          <path id="Trazado_103349" data-name="Trazado 103349" d="M120.7,288.442a2.858,2.858,0,0,1-.659-.627s-.231-.506-.416-.856a2.521,2.521,0,0,0-.155-.264,5.233,5.233,0,0,1-.875-1.418c-.252-.7-1.2-3.858-1.2-3.858l1.856-.873,1.5-.637s4.047,2.717,4.357,3.339a1.829,1.829,0,0,1,.078.182,6.6,6.6,0,0,1,.213,1.353c.028.112.231,1.236.01,1.5a1.114,1.114,0,0,1-.986.451,2.672,2.672,0,0,1-1.248.77,1.659,1.659,0,0,1-1.361.538S121.185,288.633,120.7,288.442Z" transform="translate(-117.404 -279.909)" fill="#de9d7d"/>
        </g>
        <g id="Grupo_56189" data-name="Grupo 56189" transform="translate(30.236 34.992)">
          <path id="Trazado_103350" data-name="Trazado 103350" d="M155.025,131.873s-1.7,1.315-5.129.229l2.058-3.554Z" transform="translate(-149.896 -128.548)" fill="#d9c8c0"/>
        </g>
        <g id="Grupo_56190" data-name="Grupo 56190" transform="translate(17.137 88.844)">
          <path id="Trazado_103351" data-name="Trazado 103351" d="M119.033,276.191l.419.841s-4.014,2.937-5.1,3.123l-.371-1.122Z" transform="translate(-113.983 -276.191)" fill="#decbc4"/>
        </g>
        <g id="Grupo_56191" data-name="Grupo 56191" transform="translate(8.268 68.638)">
          <path id="Trazado_103352" data-name="Trazado 103352" d="M104.005,241.036a30.826,30.826,0,0,1-5.544,3.635l-8.793-15.307,4.686-8.571S103.806,239.54,104.005,241.036Z" transform="translate(-89.668 -220.793)" fill="#392a8d"/>
        </g>
        <g id="Grupo_56192" data-name="Grupo 56192" transform="translate(21.355 28.802)">
          <path id="Trazado_103353" data-name="Trazado 103353" d="M125.548,113.476l3.125-1.9s.087,1.714,7.825,6.19l-2.2,6.19Z" transform="translate(-125.548 -111.578)" fill="#392a8d"/>
        </g>
        <g id="Grupo_56193" data-name="Grupo 56193" transform="translate(32.305 29.666)">
          <path id="Trazado_103354" data-name="Trazado 103354" d="M157.629,113.947s-.122,1.849-2.059,5.326l4.289,5.591.313-9.068Z" transform="translate(-155.57 -113.947)" fill="#392a8d"/>
        </g>
      </g>
    </g>
  </g>
</svg>
