<svg xmlns="http://www.w3.org/2000/svg" width="292.619" height="208.222" viewBox="0 0 292.619 208.222">
  <g id="Grupo_56216" data-name="Grupo 56216" transform="translate(-1067.544 -6151.811)">
    <path id="Trazado_103357" data-name="Trazado 103357" d="M424.367,1541.659c0,5.306-47.157,9.609-105.328,9.609s-105.328-4.3-105.328-9.609,47.157-9.608,105.328-9.608S424.367,1536.352,424.367,1541.659Z" transform="translate(894.072 4794.792)" fill="#d8ffff"/>
    <path id="Trazado_103358" data-name="Trazado 103358" d="M730.255,1671.425c0,4.831-25.492,8.747-56.938,8.747s-56.938-3.917-56.938-8.747,25.493-8.745,56.938-8.745S730.255,1666.595,730.255,1671.425Z" transform="translate(539.794 4679.861)" fill="#d8ffff"/>
    <rect id="Rectángulo_5449" data-name="Rectángulo 5449" width="268" height="79" rx="15" transform="translate(1076 6235)" fill="#d8ffff"/>
    <g id="Grupo_56213" data-name="Grupo 56213" transform="translate(406.058 6127.313)">
      <g id="Grupo_56206" data-name="Grupo 56206" transform="translate(661.486 24.498)">
        <path id="Trazado_103359" data-name="Trazado 103359" d="M716.783,225.4s-4.227,5.387-5.718,8.951-3.978,11.374-3.647,17.425,2.321,17.4,1.741,19.973-1.16,7.873-1.782,9.7-3.108,7.127-3.357,12.6,3.481,29.5,3.315,31.742,4.227.912,4.227.912,1.492-21.714,2.321-25.443,1.823-16.41,2.569-17.321,2.786-10.36,2.47-11.851,8.138-23.868,8.635-28.344,9.638-17.728,9.638-17.728S729.629,221.233,716.783,225.4Z" transform="translate(-688.523 -151.151)" fill="#8e4f3a"/>
        <path id="Trazado_103360" data-name="Trazado 103360" d="M752.093,222.707a25.427,25.427,0,0,0,.464,3.087c.249.829,5.967,21.962,6.547,30.084a160.1,160.1,0,0,0,2.32,16.746,35.965,35.965,0,0,1-.746,9.028c-.5,1.492,2.486,36.714,2.735,37.543s-1.989,1.077-3.563.829-9.531-25.857-9.034-30.167.995-13.5-.415-17.233-14.089-30.752-14.171-32.41S730.744,210.006,752.093,222.707Z" transform="translate(-708.585 -148.46)" fill="#8e4f3a"/>
        <path id="Trazado_103361" data-name="Trazado 103361" d="M714.47,497.47a17.751,17.751,0,0,0,.855,3.642c.446.78,1.672,4.756,2.229,5.5s1.784,6.317,0,6.986-5.982,1.783-7.394-.446a9.168,9.168,0,0,1-1.375-6.168c.223-1.709,1.918-9.554,1.9-10.33S714.47,497.47,714.47,497.47Z" transform="translate(-691.51 -324.571)" fill="#8e4f3a"/>
        <path id="Trazado_103362" data-name="Trazado 103362" d="M716.571,520.13s.192,4.331-3.078,4.331-4.719-3.941-4.719-3.941-1.114,1.934,0,6.059,5.759,3.27,6.8,3.121S721.545,528.247,716.571,520.13Z" transform="translate(-691.238 -339.634)" fill="#16202e"/>
        <path id="Trazado_103363" data-name="Trazado 103363" d="M800.489,488.589s2.312,4.134,3.684,4.972c1.711,1.043,5.031,4.393,6.191,4.547s5.328.895,4.523,3.248c-.66,1.929-10.6,1.652-11.724.685s-4.475-4.435-5.827-4.358-.851,5-.851,5h-1.469s-.513-4.793-.575-5.617c-.184-2.439,1.556-4.233,1.633-5.625s.157-2.43.157-2.43Z" transform="translate(-746.013 -319.579)" fill="#16202e"/>
        <path id="Trazado_103364" data-name="Trazado 103364" d="M811.3,497.554s-3.277,1.132-5.8-.318-7.364-3.651-9.075-3.667c0,0,.933-2.854.953-3.174s.122-1.823.122-1.823l4.232-.678s2.745,4.03,3.955,4.978A68.391,68.391,0,0,1,811.3,497.554Z" transform="translate(-747.287 -319.138)" fill="#8e4f3a"/>
        <path id="Trazado_103365" data-name="Trazado 103365" d="M740.861,226.375s1.181,4.91,1.616,6.34.876,24.394,1.563,38.266c0,0-10.874,7.192-33.872,6.136,0,0-3.015-27.985-.9-35.2s4.9-13.093,7.788-15.173C719.623,224.9,740.861,226.375,740.861,226.375Z" transform="translate(-691.388 -152.501)" fill="#cbedff"/>
        <g id="Grupo_56197" data-name="Grupo 56197" transform="translate(5.644 91.177)">
          <g id="Grupo_56196" data-name="Grupo 56196">
            <path id="Trazado_103366" data-name="Trazado 103366" d="M676.984,280.4s.268-4.617,1.491-5.333.516.712.516.712-.687,3.351-.839,4.708A6.88,6.88,0,0,1,676.984,280.4Z" transform="translate(-676.984 -274.863)" fill="#1d3b54"/>
          </g>
        </g>
        <g id="Grupo_56199" data-name="Grupo 56199" transform="translate(5.82 83.197)">
          <g id="Grupo_56198" data-name="Grupo 56198">
            <path id="Trazado_103367" data-name="Trazado 103367" d="M682.949,256.073a33.912,33.912,0,0,0,.969,4.066c.627,2,1.2,2.631.953,3.775-.19.863-1.166,1.511-1.413,1.234s-.366-3.632-1.756-3.617.415,4.156-.412,3.852-4.013-2.049-3.813-3.74,1.475-2.914,1.393-5.44a5.437,5.437,0,0,1,.64-3.249Z" transform="translate(-677.468 -252.953)" fill="#8e4f3a"/>
          </g>
        </g>
        <g id="Grupo_56201" data-name="Grupo 56201" transform="translate(9.249 91.615)">
          <g id="Grupo_56200" data-name="Grupo 56200">
            <path id="Trazado_103368" data-name="Trazado 103368" d="M687.825,276.087s1.851.473,1.742,6.735l-2.1-.35a21.564,21.564,0,0,0-.588-5.347S686.99,275.9,687.825,276.087Z" transform="translate(-686.883 -276.068)" fill="#1d3b54"/>
          </g>
        </g>
        <g id="Grupo_56203" data-name="Grupo 56203" transform="translate(1.553 95.152)">
          <g id="Grupo_56202" data-name="Grupo 56202">
            <path id="Trazado_103369" data-name="Trazado 103369" d="M682.075,290.411l-16.326-4.631.048,20.106,16.247,9.737Z" transform="translate(-665.749 -285.78)" fill="#392a8d"/>
          </g>
        </g>
        <g id="Grupo_56204" data-name="Grupo 56204" transform="translate(0 95.152)">
          <path id="Trazado_103370" data-name="Trazado 103370" d="M679.334,315.623l-2.045.378-15.8-9.827.2-20.3,1.357-.092Z" transform="translate(-661.486 -285.78)" fill="#392a8d"/>
        </g>
        <path id="Trazado_103371" data-name="Trazado 103371" d="M769.164,33.494c3.125.438,8.889,2.652,5.895,14.586s-10.619,11.934-13.768,7.542-2.155-15.913-.912-17.9S765.02,32.914,769.164,33.494Z" transform="translate(-723.607 -30.169)" fill="#8e4f3a"/>
        <path id="Trazado_103372" data-name="Trazado 103372" d="M750.969,119.736c-.186,2.922-1.678,5.346-1.927,6.4s0,3.481-.311,5.905-1.243,13.985-.932,17.28-22.612,1.806-24.352.811c0,0,3.861-6.9,3.964-9.762.036-.982.621-4.04-.995-6.278-.853-1.181-2.726-4.368-4.306-7.117h0c-.613-1.067-1.182-2.068-1.63-2.858h0c-.584-1.033-.962-1.708-.962-1.708s-.746-13.861,2.051-15.291a14.246,14.246,0,0,1,7.023-1.8,19.882,19.882,0,0,0,4.538-.684l6.4.684a36.986,36.986,0,0,0,5.718,1.554c1.616.124,3.667,3.6,3.48,5.843S751.155,116.814,750.969,119.736Z" transform="translate(-698.326 -75.449)" fill="#70c7f5"/>
        <path id="Trazado_103373" data-name="Trazado 103373" d="M699.233,108.265s-5.083-.018-7.383,4.457-2.549,9.2-3.108,10.878-2.362,10.753-2.921,12.183a141.344,141.344,0,0,0-4.351,17.4c-.808,5.47-1.451,10.94-1.451,10.94l5.188.11s2.665-12.618,4.219-15.477,2.238-11.423,2.922-13.287,4.91-14.98,5.78-15.912S703.572,109.091,699.233,108.265Z" transform="translate(-673.27 -77.759)" fill="#70c7f5"/>
        <path id="Trazado_103374" data-name="Trazado 103374" d="M763.565,88.581a34.492,34.492,0,0,0-.358,4.8c.166.787-6.049,2.984-6.153-5.3,0,0,1.881-6.37,1.075-9.049s5.637,7.89,5.637,7.89S763.675,87.627,763.565,88.581Z" transform="translate(-722.251 -58.891)" fill="#8e4f3a"/>
        <path id="Trazado_103375" data-name="Trazado 103375" d="M772.856,47.844s-5.41-5.3-7.517-6.423c0,0-3.446,3.2-5.885,4.227a3.9,3.9,0,0,0-2.229,3.771s-3.924-9.7.917-14.213,11.555-2.735,14.082-.58S775.063,41.629,772.856,47.844Z" transform="translate(-721.405 -29.518)" fill="#12263f"/>
        <path id="Trazado_103376" data-name="Trazado 103376" d="M764.02,29.439a4.941,4.941,0,1,1-4.941-4.941A4.941,4.941,0,0,1,764.02,29.439Z" transform="translate(-720.396 -24.498)" fill="#16202e"/>
        <g id="Grupo_56205" data-name="Grupo 56205" transform="translate(45.422 58.002)">
          <path id="Trazado_103377" data-name="Trazado 103377" d="M796.972,183.854s-2.122.063-3.6.015c-1.146-.037-3.864.7-4.474,1.4s-2.2,5.169-2.58,5.487.349.8,1.047.387a1.839,1.839,0,0,0,2.547.749c1.578-.941,2.489-2.594,3.33-2.993s5.774-2.523,5.774-2.523S798.227,183.206,796.972,183.854Z" transform="translate(-786.211 -183.767)" fill="#8e4f3a"/>
        </g>
        <path id="Trazado_103378" data-name="Trazado 103378" d="M752,104.517s1.528,9.356,7.184,8.3,1.366-7.913,1.366-7.913S758.618,102.744,752,104.517Z" transform="translate(-719.04 -74.932)" fill="#8e4f3a"/>
        <path id="Trazado_103379" data-name="Trazado 103379" d="M812.53,135.722c-3.481,2.486-11.781,6.072-11.781,6.072s-.814-4.063-1.622-4.436l8.1-5.552s-6.21-4.227-9.906-6.807c-.912-.635-1.67-1.173-2.144-1.52-.151-.11-.272-.2-.362-.271-1.51-1.181-7.664-9.635-5.364-12.432a10.9,10.9,0,0,1,6.34,3.046,48.161,48.161,0,0,0,7.4,6.122c.932.652,11.375,8.671,11.81,9.914S816.01,133.236,812.53,135.722Z" transform="translate(-742.524 -79.356)" fill="#70c7f5"/>
        <path id="Trazado_103380" data-name="Trazado 103380" d="M802.529,136.182s.435-.889-2.023-5.427a18.991,18.991,0,0,1,4.167,6.947C803.761,137.067,803,136.53,802.529,136.182Z" transform="translate(-749.878 -92.059)" fill="#cbedff"/>
        <path id="Trazado_103381" data-name="Trazado 103381" d="M813.889,183.844A5.886,5.886,0,0,1,815.117,187a3.489,3.489,0,0,0,.9-.39,9.169,9.169,0,0,0-1.029-2.865S814.925,183.667,813.889,183.844Z" transform="translate(-758.388 -125.739)" fill="#eddad3"/>
        <path id="Trazado_103382" data-name="Trazado 103382" d="M815.5,183.847c0,.317-.388.575-.868.575s-.868-.258-.868-.575.389-.575.868-.575S815.5,183.529,815.5,183.847Z" transform="translate(-758.311 -125.451)" fill="#383432"/>
        <path id="Trazado_103383" data-name="Trazado 103383" d="M764.626,61.356a1.122,1.122,0,0,0-2.123.156c-.612,1.367.942,5.439,1.812,4.444S765.123,62.941,764.626,61.356Z" transform="translate(-725.627 -47.495)" fill="#8e4f3a"/>
        <path id="Trazado_103384" data-name="Trazado 103384" d="M724.463,142.247s-.242,5.59-.515,8.647h0c-.613-1.067-1.182-2.068-1.63-2.858h0Z" transform="translate(-700.164 -99.366)" fill="#d8ffff"/>
        <path id="Trazado_103385" data-name="Trazado 103385" d="M767.386,94.387s-.091.712-.2,1.666a7.892,7.892,0,0,1-4.438-5.711C764.7,94.047,767.386,94.387,767.386,94.387Z" transform="translate(-725.871 -66.363)" fill="#633029"/>
      </g>
      <g id="Grupo_56208" data-name="Grupo 56208" transform="translate(865.052 34.2)">
        <path id="Trazado_103386" data-name="Trazado 103386" d="M1236.177,517.129s-5.2,3.209-9.19,3.549-6.224.851-6.516,3.476,10.746,1.775,12.642,1.386,10.5.34,11.67-.389-.1-7.683-.583-8.7S1236.177,517.129,1236.177,517.129Z" transform="translate(-1220.467 -346.787)" fill="#353a3d"/>
        <path id="Trazado_103387" data-name="Trazado 103387" d="M1264.229,511.378l-.016,2.4s5.6.834,7.279-.661l.215-2.243Z" transform="translate(-1248.282 -343.452)" fill="#81807e"/>
        <path id="Trazado_103388" data-name="Trazado 103388" d="M1314.173,515.388s-3.184,3.764-6.5,4.627-7.012,2.487-6.978,4.594,10.916,2.315,14.854.414,6.218-2.392,6.805-3.994-.924-5.8-.9-6.3C1321.49,514.1,1314.173,515.388,1314.173,515.388Z" transform="translate(-1271.477 -345.791)" fill="#353a3d"/>
        <path id="Trazado_103389" data-name="Trazado 103389" d="M1337.522,510.066s.047,2.149.113,2.183,6.7.669,7.133-.662a8.568,8.568,0,0,0,.332-2.545Z" transform="translate(-1294.894 -342.286)" fill="#81807e"/>
        <path id="Trazado_103390" data-name="Trazado 103390" d="M1252.552,276.194s-16.7,24.92-20.231,31.614c-3.27,6.2,1.843,17.522,2.63,21.993.821,4.671,7.511,27.722,7.044,29.354s9.678-.565,9.678-.565-5.262-38.718-5.806-42.837,18.049-25.58,19.137-23.949,1.717,23.783,2.261,28.29,1.218,38.714,1.218,38.714,9.171,1.322,10.958-1.554c0,0,.467-35.984.545-39.171s4.317-29.328.388-43.754C1278.3,266.708,1252.552,276.194,1252.552,276.194Z" transform="translate(-1227.316 -191.165)" fill="#392a8d"/>
        <path id="Trazado_103391" data-name="Trazado 103391" d="M1307.288,85.653l10.189-9.6-5.8-5.192-9.19,10.113Z" transform="translate(-1272.615 -63.679)" fill="#514e58"/>
        <path id="Trazado_103392" data-name="Trazado 103392" d="M1309.193,86.379l8.818-8.308-5.022-4.493-7.953,8.752Z" transform="translate(-1274.238 -65.406)" fill="#3e3b42"/>
        <path id="Trazado_103393" data-name="Trazado 103393" d="M1299.583,104.11a1.652,1.652,0,0,0,1.082-2.206c-.452-1.838.255-2.26.255-2.26l5.346,5.182s-2.6,2.5-3.384,2.6S1298.791,105.112,1299.583,104.11Z" transform="translate(-1270.694 -81.979)" fill="#eea886"/>
        <path id="Trazado_103394" data-name="Trazado 103394" d="M1314.061,104.372s3.252-2.082,3.558-2.393a28.388,28.388,0,0,0,2.358-2.525c.6-.823-1.778-.621-2.467.234a3.809,3.809,0,0,1-1.783,1.286c-.477.189-3.359.359-3.93,1.2S1314.061,104.372,1314.061,104.372Z" transform="translate(-1278.488 -81.526)" fill="#eea886"/>
        <path id="Trazado_103395" data-name="Trazado 103395" d="M1305.853,93.521a.381.381,0,0,0,.7-.081c.312-.59.287-1.949-.5-1.622S1305.853,93.521,1305.853,93.521Z" transform="translate(-1274.62 -76.972)" fill="#eea886"/>
        <path id="Trazado_103396" data-name="Trazado 103396" d="M1308.974,88.951s.136,1.005.627.553.982-2.135.128-2.092S1308.974,88.951,1308.974,88.951Z" transform="translate(-1276.739 -74.202)" fill="#eea886"/>
        <path id="Trazado_103397" data-name="Trazado 103397" d="M1312.813,84.929s0,1.213.565.864c.429-.263,1.043-2.445.19-2.4S1312.813,84.929,1312.813,84.929Z" transform="translate(-1279.18 -71.645)" fill="#eea886"/>
        <path id="Trazado_103398" data-name="Trazado 103398" d="M1433.775,280.955s1.9,1.346,3.037,1.1a9.971,9.971,0,0,1,3.242.045c.668.12,2.955-.242,2.7.563s-3.761.762-4.516.891,1.578,2.126,1.652,2.839-4.2,4.526-5.607,2.963-1.678-4.223-1.99-4.445a11.486,11.486,0,0,1-1.078-1.094Z" transform="translate(-1354.466 -197.262)" fill="#eea886"/>
        <path id="Trazado_103399" data-name="Trazado 103399" d="M1445.142,294.657s3.927,5.091,3.854,5.669-.41.792-.8.334-3.962-4.8-3.962-4.8,3.455,6.876,3.506,7.349c.03.277-.6.727-.838.5s-4.107-6.81-4.107-6.81,3.212,6.426,3.126,6.848c-.076.369-.751.658-1.027.2s-3.643-6.225-3.643-6.225,2,4.85,1.7,5.191c-.182.209-.711.619-1.183-.652s-1.941-4.123-1.941-4.123Z" transform="translate(-1359.944 -205.974)" fill="#eea886"/>
        <path id="Trazado_103400" data-name="Trazado 103400" d="M1317.5,172.1s-3.937,3.11-5.491,2.7-14.508-18.239-15.545-21.349-2.176-12.332-2.176-12.332-3.344,9.263-3.786,13.72-2.262,12.618-2.262,12.618l-26.561,1.61s-1.037-1.624-.587-5.078,1.664-11.692.885-16.122-.1-12.049-.1-12.049-11.109,3.333-12.4,3.7-4.662-1.658-5.544-3.731,20.207-27.047,20.207-27.047l4.86,4.167L1263,123.142c.2-.137,1.464-.64,3.154-1.286,4.132-1.579,10.826-4.008,10.826-4.008s9.431-.155,10.156-.051,10.052,4.664,11.4,5.8,5.078,24.664,5.8,26.219S1317.5,172.1,1317.5,172.1Z" transform="translate(-1235.365 -87.757)" fill="#392a8d"/>
        <path id="Trazado_103401" data-name="Trazado 103401" d="M1290.843,271.573s-.662.676-1.081,3.726c0,0,25.1-.928,27.823-1.863,0,0,.371-3.369-.182-3.471C1316.795,269.852,1290.843,271.573,1290.843,271.573Z" transform="translate(-1264.526 -190.271)" fill="#495055"/>
        <path id="Trazado_103402" data-name="Trazado 103402" d="M1344.583,116.351c-.26,1.14-8.964,7.824-8.964,7.824s-1.978-7.452-1.192-7.773c.309-.125.476-.708.566-1.368a13.856,13.856,0,0,0,.1-1.774c0-.278-.007-.457-.007-.457s1.17-1.053,2.651-2.3c2.589-2.184,6.131-4.962,6.04-3.752a1.078,1.078,0,0,1-.046.227C1342.931,109.652,1344.583,116.351,1344.583,116.351Z" transform="translate(-1292.808 -86.311)" fill="#eea886"/>
        <path id="Trazado_103403" data-name="Trazado 103403" d="M1331.111,133.133l-2.468,1.112,1.084,9.949,2.332-3.057Z" transform="translate(-1289.248 -103.273)" fill="#5e448f"/>
        <path id="Trazado_103404" data-name="Trazado 103404" d="M1346.865,132.217l-8.844,8.338,1.142,3.385,10.6-10.055Z" transform="translate(-1295.211 -102.691)" fill="#5e448f"/>
        <path id="Trazado_103405" data-name="Trazado 103405" d="M1349.926,270.3s.271,3.467.247,4.362l1.169-.138s-.029-3.647-.168-4.269Z" transform="translate(-1302.78 -190.459)" fill="#5d676c"/>
        <path id="Trazado_103406" data-name="Trazado 103406" d="M1297.141,273.623s-.683,3.077-.787,4.251l1.23-.061s.558-3.866.729-4.261Z" transform="translate(-1268.718 -192.555)" fill="#5d676c"/>
        <g id="Grupo_56207" data-name="Grupo 56207" transform="translate(35.941 40.759)">
          <path id="Trazado_103407" data-name="Trazado 103407" d="M1319.16,202.784c-.005-.031-.016-1.1.1-5.557a64.53,64.53,0,0,1,.837-9.721,28.335,28.335,0,0,0,.667-10.21c-.57-6.348,4.353-14.151,4.375-14.236l.636.164c-.021.083-4.675,7.747-4.115,13.981a30.853,30.853,0,0,1-.727,10.739,60.285,60.285,0,0,0-.737,9.244c-.111,4.325-.165,5.469-.16,5.5Z" transform="translate(-1319.157 -163.061)" fill="#bea698"/>
        </g>
        <path id="Trazado_103408" data-name="Trazado 103408" d="M1281.047,163.554s-.665,12.094-8.489,13.856-18.239,8.549-21.3,12.332l-3.731,4.922v-5.492s1.554-9.03,24.715-12.78c0,0,6.645-.439,6.4-13.134C1278.649,163.259,1281.091,163.025,1281.047,163.554Z" transform="translate(-1237.675 -122.395)" fill="#cbedff"/>
        <path id="Trazado_103409" data-name="Trazado 103409" d="M1342.327,114.961h0c-.017.021-.375.476-.977,1.121-1.276,1.367-3.648,3.592-6.176,4.361a13.814,13.814,0,0,0,.1-1.774,3.969,3.969,0,0,1-.744-.15,23.418,23.418,0,0,1,1.835-2.276l1.553-.333Z" transform="translate(-1292.989 -91.719)" fill="#a77860"/>
        <path id="Trazado_103410" data-name="Trazado 103410" d="M1336.585,83.931c-.766,1.37-1.418,2.409-1.627,2.8h0a5.059,5.059,0,0,1-.977,1.121c-1.352,1.243-3.807,2.829-6.079,2.587a3.961,3.961,0,0,1-.744-.15,3.583,3.583,0,0,1-2.458-2c-3.983-9.606.029-16.884.029-16.884s13.183-2.624,14.892,1.418C1340.82,75.657,1338.387,80.71,1336.585,83.931Z" transform="translate(-1285.62 -63.492)" fill="#eea886"/>
        <path id="Trazado_103411" data-name="Trazado 103411" d="M1324.367,59.051a12.254,12.254,0,0,1-1.971-5.024,8.083,8.083,0,0,1,.147-2.889,22.094,22.094,0,0,0,5.7,1.024c1.934-.138,9.433-.394,10.435.952,0,0,2.726-.409,3.1,4.092.6,7.141-5.086,13.512-5.086,13.512s.45-4.533-.516-5.223-1.959.69-1.959.69l-2.107.208s3.7-6.563-.069-7.116S1326.5,59.618,1324.367,59.051Z" transform="translate(-1285.257 -51.139)" fill="#12263f"/>
        <path id="Trazado_103412" data-name="Trazado 103412" d="M1355.126,84.364c.358-2.014,4.089-2.5,3.675-.39s-2.383,4.007-3.212,3.869S1354.853,85.9,1355.126,84.364Z" transform="translate(-1305.963 -71.147)" fill="#eea886"/>
        <path id="Trazado_103413" data-name="Trazado 103413" d="M1332.07,157.937a2.77,2.77,0,0,0,3.19.226s-.643-2.954-1.031-3.057S1331.88,157.4,1332.07,157.937Z" transform="translate(-1291.419 -117.242)" fill="#e09a55"/>
        <path id="Trazado_103414" data-name="Trazado 103414" d="M1319.081,271.569s-3.7.146-4.929.352l.157,4.1,5-.3Z" transform="translate(-1280.034 -191.294)" fill="#12263f"/>
        <path id="Trazado_103415" data-name="Trazado 103415" d="M1290.454,144.774l-8.344,9.6,5.189-8.309C1287.5,145.923,1288.763,145.42,1290.454,144.774Z" transform="translate(-1259.661 -110.675)" fill="#d5bbaf"/>
      </g>
      <g id="Grupo_56212" data-name="Grupo 56212" transform="translate(742.76 67.533)">
        <path id="Trazado_103416" data-name="Trazado 103416" d="M1090.349,528.676a24.507,24.507,0,0,1,3.748,4.391c1.772,2.66,6.48,2.8,6.682,6.432s-6.4,3.742-9.866,2.561-3.99-4.729-6.085-5.616-3.184-1.6-3.023-3.335a21.072,21.072,0,0,1,1.321-4.541,14.277,14.277,0,0,0,2.068.5A17.115,17.115,0,0,0,1090.349,528.676Z" transform="translate(-1010 -388.034)" fill="#12263f"/>
        <path id="Trazado_103417" data-name="Trazado 103417" d="M1040.06,240.252s1.328,7.9,2.4,13.117h0a31.3,31.3,0,0,0,1.07,4.318,60.861,60.861,0,0,0,5.851,6.482c5.354,5.512,12.428,12.453,12.428,12.453l2.766-5.25s-6.283-7.366-10.542-12.281c-1.972-2.275-3.51-4.024-3.791-4.276-.891-.8-1.924-8.647-3.377-15.115a26.043,26.043,0,0,0-4.365-10.042Z" transform="translate(-983.467 -197.98)" fill="#5e448f"/>
        <path id="Trazado_103418" data-name="Trazado 103418" d="M1065.649,315.558c5.354,5.512,12.428,12.453,12.428,12.453l2.766-5.25s-6.283-7.366-10.542-12.281A8.933,8.933,0,0,0,1065.649,315.558Z" transform="translate(-999.738 -249.368)" fill="#eea886"/>
        <rect id="Rectángulo_5450" data-name="Rectángulo 5450" width="2.11" height="50.956" transform="translate(94.472 142.422) rotate(180)" fill="#5e448f"/>
        <rect id="Rectángulo_5451" data-name="Rectángulo 5451" width="2.11" height="50.956" transform="translate(11.277 142.422) rotate(180)" fill="#5e448f"/>
        <rect id="Rectángulo_5452" data-name="Rectángulo 5452" width="102.374" height="3.656" transform="translate(102.374 92.356) rotate(180)" fill="#5e448f"/>
        <g id="Grupo_56209" data-name="Grupo 56209" transform="translate(23.464 138.299)">
          <path id="Trazado_103419" data-name="Trazado 103419" d="M957.2,522.611s-1.819,2.011-2.894,3.229-5.194,3.4-5.216,7.018c-.024,3.925,3.038,3.581,5.763,3.439a7.532,7.532,0,0,0,6.086-4.249c1.147-2.223,4.2-2.807,4.414-4.6s-1.415-5.018-1.415-5.018Z" transform="translate(-949.092 -522.43)" fill="#12263f"/>
        </g>
        <path id="Trazado_103420" data-name="Trazado 103420" d="M977.749,513.253l.352,3.342s-5.687,2.477-6.738.181l.244-2.976Z" transform="translate(-939.787 -378.296)" fill="#5f8cc9"/>
        <path id="Trazado_103421" data-name="Trazado 103421" d="M1092.238,522.224l.31,2.418a11.92,11.92,0,0,1-7.224-.108l-.077-2.151Z" transform="translate(-1012.199 -384)" fill="#5f8cc9"/>
        <path id="Trazado_103422" data-name="Trazado 103422" d="M959.31,267.7c-.2.7,36.4,0,36.4,0s-10.124-7.369-10.78-9.337,2.578-13.78,3-17.623c.338-3.075,1.183-16.834-.844-18.935-2.119-2.2-9.749-4.5-9.749-4.5l-11.124.412a17.484,17.484,0,0,0-3.148.993c-1.312.609-8.817,3.283-10.036,7.032s7.488,15.805,7.488,15.805.017.542.043,1.43h0c.033,1.184.083,2.983.129,4.935.059,2.527.109,5.31.109,7.344A72.6,72.6,0,0,1,959.31,267.7Z" transform="translate(-928.057 -190.124)" fill="#5e448f"/>
        <path id="Trazado_103423" data-name="Trazado 103423" d="M961.662,352.378s-4.978,7.312-5.048,12.3,1.845,18.832,1.984,21.573,2.718,25.591,2.718,25.591,1.993,1.852,7.968-.469c0,0,1.319-21.669,1.46-23.989s.14-13.006,1.477-14.552,9.42-6.4,10.474-7.311,19.426,3.471,21.35,3.971c4.986,1.293,2.713,9.966,1.61,13.854-1.845,6.506-3.457,30-3.457,30s3.551,1.512,9.5.234c0,0,11.677-42.417,12.052-46.635s.559-11.174-28.217-16.461Z" transform="translate(-930.409 -274.803)" fill="#392a8d"/>
        <path id="Trazado_103424" data-name="Trazado 103424" d="M996.741,150.673s9.655-2.178,7.45,9.974-4.528,13.107-10.354,10.592-5.3-10.3-5.6-14.118S993.661,150.806,996.741,150.673Z" transform="translate(-950.513 -147.662)" fill="#eea886"/>
        <path id="Trazado_103425" data-name="Trazado 103425" d="M999.35,199.138s-4.277,4.534-11.036.414c0,0,1.512-9.826.716-14.611s8.818,7.415,8.818,7.415c-.127.066-.21.523-.23,1.173a13.079,13.079,0,0,0,.1,1.947C997.919,197.066,998.414,198.747,999.35,199.138Z" transform="translate(-950.566 -168.839)" fill="#eea886"/>
        <path id="Trazado_103426" data-name="Trazado 103426" d="M987.454,158.365s.249-3.829,1.648-3.948,1.614,1.422,1.614,1.422l1.412.267s-.447-3.356.95-3.942,9.047,1.847,10.168.862.594-7.792-1.434-8.723-7.625-3.019-11.727-.243c0,0-3.2-.365-3.672,2.216S986.584,156.446,987.454,158.365Z" transform="translate(-949.255 -142.67)" fill="#3a3f47"/>
        <path id="Trazado_103427" data-name="Trazado 103427" d="M1001.038,204.613c-6.973-2.15-7.5-6.349-7.506-6.414,2.3,3.945,7.4,4.467,7.4,4.467A13.1,13.1,0,0,0,1001.038,204.613Z" transform="translate(-953.884 -177.977)" fill="#a77860"/>
        <path id="Trazado_103428" data-name="Trazado 103428" d="M980.477,217.619s5.106,10.165,13.356,9.509,1.406-10.874,1.031-10.967C994.452,216.056,986.4,214.05,980.477,217.619Z" transform="translate(-945.583 -188.98)" fill="#eea886"/>
        <path id="Trazado_103429" data-name="Trazado 103429" d="M1011.067,348.789s-25.275,3.117-40.588.515l29.259-3.656S999.911,346.394,1011.067,348.789Z" transform="translate(-939.226 -271.729)" fill="#a397e3"/>
        <path id="Trazado_103430" data-name="Trazado 103430" d="M1027.071,342.487l1.882.953s-.428,2.991-1.459,3.9l-2.113-.539S1025.821,343.518,1027.071,342.487Z" transform="translate(-974.135 -269.719)" fill="#eea886"/>
        <path id="Trazado_103431" data-name="Trazado 103431" d="M948.576,269.82c.376.436,5.345,2.434,10.958,4.6h0c7.668,2.954,16.319,5.748,16.319,5.748l1.969-4.222s-9.059-4.922-15.18-8.374c-2.891-1.63-5.127-2.933-5.443-3.235-.984-.937-1.239-2.44-.516-5.062s2.39-14.67,2.578-16.076-.469-5.155-3.984-5.343a10.553,10.553,0,0,0-5.3.8s-.883.367-1.539,8.9S947.685,268.788,948.576,269.82Z" transform="translate(-924.885 -203.176)" fill="#5e448f"/>
        <path id="Trazado_103432" data-name="Trazado 103432" d="M973.916,269.82h0c.034,1.184.083,2.983.128,4.935a24.66,24.66,0,0,0,1.416-15.234C975.832,261.8,973.943,269.707,973.916,269.82Z" transform="translate(-941.411 -216.967)" fill="#a397e3"/>
        <path id="Trazado_103433" data-name="Trazado 103433" d="M1046.647,279.726h0a31.263,31.263,0,0,0,1.07,4.318c1.172-5.672.117-12.933.117-12.933A73.011,73.011,0,0,1,1046.647,279.726Z" transform="translate(-987.656 -224.337)" fill="#a397e3"/>
        <path id="Trazado_103434" data-name="Trazado 103434" d="M979.8,326.339h0c7.668,2.954,16.6,5.839,16.6,5.839l1.689-4.312s-9.059-4.922-15.18-8.374C982.911,319.493,980.684,320.577,979.8,326.339Z" transform="translate(-945.154 -255.099)" fill="#eea886"/>
        <path id="Trazado_103435" data-name="Trazado 103435" d="M1031.518,354.091l35.924-.529-18.137,9.21Z" transform="translate(-978.036 -276.761)" fill="#cbedff"/>
        <path id="Trazado_103436" data-name="Trazado 103436" d="M1049.3,363.7l-17.787-6.89v-1.791l19.192,6.923Z" transform="translate(-978.036 -277.684)" fill="#91887f"/>
        <g id="Grupo_56210" data-name="Grupo 56210" transform="translate(52.685 72.986)">
          <path id="Trazado_103437" data-name="Trazado 103437" d="M1031.058,343.887s2.244-.35,3.794-.711c1.2-.28,4.185.106,4.945.876s3.178,6.137,3.635,6.465-.234,1.085-1.037.7c0,0-.737,2.348-2.557,1.469s-3.054-2.8-4.007-3.137-6.5-2.044-6.5-2.044S1029.628,343.315,1031.058,343.887Z" transform="translate(-1029.33 -343.085)" fill="#eea886"/>
        </g>
        <g id="Grupo_56211" data-name="Grupo 56211" transform="translate(61.946 73.601)">
          <path id="Trazado_103438" data-name="Trazado 103438" d="M1055.419,344.775a15.623,15.623,0,0,1,1.818,1.006c.377.311,1.9,1.452,2.271,1.721s-.557,1.032-3.285-.149S1055.419,344.775,1055.419,344.775Z" transform="translate(-1054.761 -344.775)" fill="#eea886"/>
        </g>
        <path id="Trazado_103439" data-name="Trazado 103439" d="M1080.358,327.914l10.685-29.175,34.447.562-10.184,26.886Z" transform="translate(-1009.09 -241.903)" fill="aqua"/>
        <path id="Trazado_103440" data-name="Trazado 103440" d="M1138.883,329.436c-1.051,2.1-.734,4.389.709,5.111s3.464-.4,4.515-2.5.734-4.39-.709-5.112S1139.935,327.334,1138.883,329.436Z" transform="translate(-1045.908 -259.693)" fill="#d8ffff"/>
      </g>
    </g>
  </g>
</svg>
