<svg xmlns="http://www.w3.org/2000/svg" xmlns:xlink="http://www.w3.org/1999/xlink" width="934" height="391" viewBox="0 0 934 391">
  <defs>
    <linearGradient id="linear-gradient" x1="-0.281" y1="0.954" x2="1.881" y2="-0.303" gradientUnits="objectBoundingBox">
      <stop offset="0" stop-color="#4042e2"/>
      <stop offset="1" stop-color="#4f52ff"/>
    </linearGradient>
    <linearGradient id="linear-gradient-2" x1="0.507" y1="0.068" x2="0.761" y2="-21.397" xlink:href="#linear-gradient"/>
    <linearGradient id="linear-gradient-3" x1="0.34" y1="4.039" x2="0.537" y2="-0.315" xlink:href="#linear-gradient"/>
    <linearGradient id="linear-gradient-4" x1="0.712" y1="0.715" x2="0.854" y2="1.061" gradientUnits="objectBoundingBox">
      <stop offset="0" stop-color="#ff928e"/>
      <stop offset="1" stop-color="#feb3b1"/>
    </linearGradient>
    <linearGradient id="linear-gradient-5" x1="0.532" y1="0.006" x2="0.327" y2="3.202" gradientUnits="objectBoundingBox">
      <stop offset="0" stop-color="#09005d"/>
      <stop offset="1" stop-color="#1a0f91"/>
    </linearGradient>
    <linearGradient id="linear-gradient-6" x1="0.258" y1="0.704" x2="0.871" y2="0.217" xlink:href="#linear-gradient-4"/>
    <linearGradient id="linear-gradient-7" x1="0.554" y1="-2.158" x2="0.395" y2="6.275" xlink:href="#linear-gradient-5"/>
    <linearGradient id="linear-gradient-8" x1="0.958" y1="0.108" x2="0.417" y2="0.574" xlink:href="#linear-gradient-5"/>
    <linearGradient id="linear-gradient-9" x1="0.268" y1="-0.098" x2="0.725" y2="1.234" xlink:href="#linear-gradient-4"/>
    <linearGradient id="linear-gradient-10" x1="-0.006" y1="0.333" x2="0.924" y2="0.733" xlink:href="#linear-gradient-4"/>
    <linearGradient id="linear-gradient-11" x1="-5.238" y1="3.084" x2="-6.169" y2="3.939" xlink:href="#linear-gradient-5"/>
    <linearGradient id="linear-gradient-12" x1="-2.645" y1="-0.595" x2="0.947" y2="0.669" xlink:href="#linear-gradient-4"/>
    <linearGradient id="linear-gradient-13" x1="1.121" y1="0.08" x2="0.233" y2="0.773" xlink:href="#linear-gradient-4"/>
    <linearGradient id="linear-gradient-14" x1="1.73" y1="-0.13" x2="-1.657" y2="1.467" xlink:href="#linear-gradient"/>
    <linearGradient id="linear-gradient-15" x1="1.289" y1="0.127" x2="-2.098" y2="1.724" xlink:href="#linear-gradient"/>
    <linearGradient id="linear-gradient-16" x1="0.484" y1="1.179" x2="0.561" y2="-2.195" gradientUnits="objectBoundingBox">
      <stop offset="0" stop-color="#fe7062"/>
      <stop offset="1" stop-color="#ff928e"/>
    </linearGradient>
    <linearGradient id="linear-gradient-17" x1="-12.616" y1="3.8" x2="-12.955" y2="5.153" xlink:href="#linear-gradient-4"/>
    <linearGradient id="linear-gradient-18" x1="0" y1="0.5" x2="1" y2="0.5" xlink:href="#linear-gradient-16"/>
    <linearGradient id="linear-gradient-19" x1="0.772" y1="-6.693" x2="0.499" y2="0.843" gradientUnits="objectBoundingBox">
      <stop offset="0" stop-color="#020039"/>
      <stop offset="1" stop-color="#090056"/>
    </linearGradient>
    <linearGradient id="linear-gradient-20" x1="0" y1="0.5" x2="1" y2="0.5" xlink:href="#linear-gradient-4"/>
    <linearGradient id="linear-gradient-22" x1="0.734" y1="-1.867" x2="0.424" y2="1.1" xlink:href="#linear-gradient-19"/>
    <linearGradient id="linear-gradient-23" x1="0.5" y1="-1.229" x2="0.5" y2="-0.49" xlink:href="#linear-gradient-19"/>
    <linearGradient id="linear-gradient-25" x1="0.635" y1="0.392" x2="0.098" y2="1.51" xlink:href="#linear-gradient-4"/>
    <linearGradient id="linear-gradient-26" x1="0" y1="0.5" x2="1" y2="0.5" xlink:href="#linear-gradient"/>
    <linearGradient id="linear-gradient-27" x1="-14.014" y1="19.466" x2="-15.601" y2="20.839" xlink:href="#linear-gradient-4"/>
    <linearGradient id="linear-gradient-28" x1="-8.403" y1="12.267" x2="-7.323" y2="12.267" xlink:href="#linear-gradient-5"/>
    <linearGradient id="linear-gradient-29" x1="-39.46" y1="57.032" x2="-36.306" y2="54.607" xlink:href="#linear-gradient-4"/>
    <linearGradient id="linear-gradient-30" x1="0" y1="0.5" x2="1" y2="0.5" xlink:href="#linear-gradient-5"/>
    <linearGradient id="linear-gradient-32" x1="-1.218" y1="1.584" x2="0.954" y2="0.207" xlink:href="#linear-gradient-4"/>
  </defs>
  <g id="Grupo_56217" data-name="Grupo 56217" transform="translate(-320 -2602)">
    <rect id="Rectángulo_5316" data-name="Rectángulo 5316" width="934" height="144" rx="28" transform="translate(320 2849)" fill="#efefef"/>
    <g id="Grupo_55492" data-name="Grupo 55492" transform="translate(-33.074 2313.053)">
      <g id="Grupo_55460" data-name="Grupo 55460" transform="translate(1044.031 288.947)">
        <circle id="Elipse_1390" data-name="Elipse 1390" cx="25.128" cy="25.128" r="25.128" transform="translate(0 50.012) rotate(-84.345)" fill="#a397e3"/>
        <circle id="Elipse_1391" data-name="Elipse 1391" cx="25.128" cy="25.128" r="25.128" transform="matrix(0.081, -0.997, 0.997, 0.081, 62.845, 50.484)" fill="#a397e3"/>
        <circle id="Elipse_1392" data-name="Elipse 1392" cx="25.128" cy="25.128" r="25.128" transform="matrix(0.125, -0.992, 0.992, 0.125, 124.316, 50.1)" fill="#a397e3"/>
        <g id="Grupo_55458" data-name="Grupo 55458" transform="translate(7.253 8.075)">
          <path id="Trazado_101374" data-name="Trazado 101374" d="M1980.086,454.136a16.142,16.142,0,1,1-14.931-10.007q.409,0,.814.021v-4.092c-.271-.011-.542-.018-.814-.018a20.217,20.217,0,1,0,18.684,12.466Z" transform="translate(-1944.926 -440.04)" fill="aqua"/>
          <path id="Trazado_101375" data-name="Trazado 101375" d="M2190.67,473.925a16.14,16.14,0,1,1-8.6-29.8q.409,0,.814.021v-4.092c-.27-.011-.542-.018-.814-.018a20.229,20.229,0,1,0,10.628,37.443Z" transform="translate(-2099.664 -440.04)" fill="aqua"/>
          <path id="Trazado_101376" data-name="Trazado 101376" d="M2414.667,469.344a16.141,16.141,0,1,1-13.348-25.215q.409,0,.814.021v-4.092c-.27-.011-.542-.018-.814-.018a20.229,20.229,0,1,0,16.661,31.7Z" transform="translate(-2256.066 -440.04)" fill="aqua"/>
        </g>
        <g id="Grupo_55459" data-name="Grupo 55459" transform="translate(2.354 63.255)" opacity="0.64">
          <path id="Trazado_101377" data-name="Trazado 101377" d="M1973.437,632.542h-40.949a4.654,4.654,0,1,0,0,9.308h40.949a4.654,4.654,0,0,0,0-9.308Z" transform="translate(-1927.834 -632.542)" fill="#d7c8f2"/>
          <path id="Trazado_101378" data-name="Trazado 101378" d="M2191.309,632.542H2150.36a4.654,4.654,0,0,0,0,9.308h40.949a4.654,4.654,0,1,0,0-9.308Z" transform="translate(-2083.254 -632.542)" fill="#d7c8f2"/>
          <path id="Trazado_101379" data-name="Trazado 101379" d="M2368.23,641.85h40.949a4.654,4.654,0,1,0,0-9.308H2368.23a4.654,4.654,0,1,0,0,9.308Z" transform="translate(-2238.673 -632.542)" fill="#d7c8f2"/>
          <rect id="Rectángulo_5294" data-name="Rectángulo 5294" width="50.257" height="36.714" rx="16.236" transform="translate(0 14.479)" fill="#d7c8f2"/>
          <path id="Rectángulo_5295" data-name="Rectángulo 5295" d="M16.236,0H34.021A16.235,16.235,0,0,1,50.257,16.235v4.243A16.236,16.236,0,0,1,34.021,36.714H16.236A16.236,16.236,0,0,1,0,20.478V16.236A16.236,16.236,0,0,1,16.236,0Z" transform="translate(62.452 14.479)" fill="#d7c8f2"/>
          <rect id="Rectángulo_5296" data-name="Rectángulo 5296" width="50.257" height="36.714" rx="16.236" transform="translate(124.903 14.479)" fill="#d7c8f2"/>
        </g>
      </g>
      <g id="Grupo_55466" data-name="Grupo 55466" transform="translate(852.074 381.661)">
        <rect id="Rectángulo_5297" data-name="Rectángulo 5297" width="9.467" height="69.523" transform="translate(0 35.158)" fill="#d7c8f2"/>
        <rect id="Rectángulo_5298" data-name="Rectángulo 5298" width="9.467" height="45.629" transform="translate(15.818 59.052)" fill="#d7c8f2"/>
        <rect id="Rectángulo_5299" data-name="Rectángulo 5299" width="9.467" height="104.682" transform="translate(31.636 0)" fill="#d7c8f2"/>
        <rect id="Rectángulo_5300" data-name="Rectángulo 5300" width="9.467" height="25.149" transform="translate(47.454 79.533)" fill="#d7c8f2"/>
        <rect id="Rectángulo_5301" data-name="Rectángulo 5301" width="9.467" height="90.686" transform="translate(63.271 13.995)" fill="#d7c8f2"/>
        <rect id="Rectángulo_5303" data-name="Rectángulo 5303" width="9.467" height="57.918" transform="translate(94.907 46.764)" fill="#d7c8f2"/>
      </g>
      <g id="Grupo_55490" data-name="Grupo 55490" transform="translate(582.88 211.893)">
        <g id="Grupo_55471" data-name="Grupo 55471" transform="translate(390.059 311.954)">
          <rect id="Rectángulo_5308" data-name="Rectángulo 5308" width="4.752" height="51.392" transform="translate(22.968 11.515)" fill="url(#linear-gradient)"/>
          <path id="Rectángulo_5309" data-name="Rectángulo 5309" d="M2.87,0H38.529a3.093,3.093,0,0,1,3.093,3.093v0a0,0,0,0,1,0,0H0a0,0,0,0,1,0,0V2.87A2.87,2.87,0,0,1,2.87,0Z" transform="translate(4.533 60.805)" fill="url(#linear-gradient-2)"/>
          <rect id="Rectángulo_5310" data-name="Rectángulo 5310" width="52.332" height="14.842" rx="7.421" fill="url(#linear-gradient-3)"/>
        </g>
        <g id="Grupo_55475" data-name="Grupo 55475" transform="translate(318.945 169.99)">
          <g id="Grupo_55472" data-name="Grupo 55472" transform="translate(0 109.561)">
            <path id="Trazado_101430" data-name="Trazado 101430" d="M2075.554,1326.411a41.359,41.359,0,0,0-15,6.4,3.958,3.958,0,0,0-1.747,3.782c.951,7.53,4.86,31.9,17.749,55.71a6,6,0,0,1,.575,4.112l-2.239,10.421-4.153,3.894h10.7l7.123-19.274-3.046-.963a5.762,5.762,0,0,1-4.024-5.395l-.357-20.676a23.524,23.524,0,0,0-5.648-15.567l17.083-.831Z" transform="translate(-2014.18 -1316.759)" fill="url(#linear-gradient-4)"/>
            <path id="Trazado_101431" data-name="Trazado 101431" d="M2085.793,1571.979c-.974,1.275,10.485,2.957,16.274.169,0,0,8.025-13.963,8.025-21.152,0,0-.637-1.466-5.349-1.133,0,0-2.695,16.533-5.54,18.385s-7.96.187-7.96.187S2087.23,1570.1,2085.793,1571.979Z" transform="translate(-2033.411 -1476.124)" fill="url(#linear-gradient-5)"/>
            <path id="Trazado_101432" data-name="Trazado 101432" d="M1991.667,1355.768c-.091-.157-18.393-2.2-18.393-2.2a42.306,42.306,0,0,1-1.273,13.225c-1.872,7.66-28.743,40.849-28.743,40.849l2.818,8.932a45.32,45.32,0,0,1-25.713,1.547l17.461-10.479s16.341-55.689,26.351-65.623l18.345-6.347Z" transform="translate(-1915.443 -1323.364)" fill="url(#linear-gradient-6)"/>
            <path id="Trazado_101433" data-name="Trazado 101433" d="M2142.2,1292.739s10.544,15.684,11.409,22.838-2.888,10.061-13.952,10.54-40.6.472-40.6.472l-25.208-21.544s18.371-6.555,23.147-8.409S2142.2,1292.739,2142.2,1292.739Z" transform="translate(-2024.935 -1292.739)" fill="#392a8d"/>
            <path id="Trazado_101434" data-name="Trazado 101434" d="M1932.765,1607.416s3.033,2.938.984,6.207c0,0-24.029,4.259-30.553,2.327,0,0,1.355-3.092,8.7-6.612l-.542.416a.878.878,0,0,0,.58,1.574C1916.776,1611.053,1926.794,1610.166,1932.765,1607.416Z" transform="translate(-1903.196 -1517.216)" fill="url(#linear-gradient-7)"/>
          </g>
          <g id="Grupo_55474" data-name="Grupo 55474" transform="translate(63.001)">
            <path id="Trazado_101435" data-name="Trazado 101435" d="M2195.788,968.682c1.593.5,7.337,2.558,6.6,6.252a.675.675,0,0,0,.846.775c2.475-.666,7.942-1.506,11.33,2.741,2.992,3.749.756,7.287-1.067,9.229a.68.68,0,0,0,.568,1.15c4.55-.574,14.436-.712,16.053,8.549,1.508,8.636-4.5,11.071-8.068,11.758a.676.676,0,0,0-.226,1.238c1.779,1.128,3.839,3.46,3.007,8.061-1.305,7.211-15.444,6.621-17.1,6.527a.667.667,0,0,1-.295-.088l-22.646-12.916a.683.683,0,0,1-.334-.475l-4.572-26.4a.681.681,0,0,1,.18-.588l11.344-16.3C2188.82,966.775,2195.542,968.605,2195.788,968.682Z" transform="translate(-2163.566 -951.276)" fill="url(#linear-gradient-8)"/>
            <path id="Trazado_101436" data-name="Trazado 101436" d="M2156.028,1129.885s-12.279-11.692-18.323-19.436a16.431,16.431,0,0,1-2.782-14.788c2.76-9.3,7.664-18.926,8.111-20.425.686-2.3,14.454-2.2,14.454-2.2s27.093,17.583,37.738,47.368l-11.955,3.722s-7.074-11.868-14.063-19.413c0,0,12.094,15.977,12.52,22.518Z" transform="translate(-2131.013 -1026.45)" fill="#d7c8f2"/>
            <path id="Trazado_101437" data-name="Trazado 101437" d="M2159.11,1024.286c.144.478,3.737,12.391,4.018,12.638s7.881.656,11.458-1.789l-6.827-15.527Z" transform="translate(-2148.754 -988.338)" fill="url(#linear-gradient-9)"/>
            <g id="Grupo_55473" data-name="Grupo 55473" transform="translate(1.46)">
              <path id="Trazado_101438" data-name="Trazado 101438" d="M2135.844,941.9s-5.544,4.343-7.346,14.545,2.51,13.517,6.659,13.007,10.1-2.218,14.828-9.776S2143.132,936.557,2135.844,941.9Z" transform="translate(-2128.076 -932.124)" fill="url(#linear-gradient-10)"/>
              <path id="Trazado_101439" data-name="Trazado 101439" d="M2145.958,934.392s1.132-14.518-10.646-11.49l-2.238,2.68s-6.3-6.171-.18-11.591,15.173-4.771,20.764,3.934,7.834,14.94,4.067,20.853-7.231,1.307-7.231,1.307,1.569-5-.159-6.979-3.54,1.466-3.54,1.466Z" transform="translate(-2129.607 -910.519)" fill="url(#linear-gradient-11)"/>
              <path id="Trazado_101440" data-name="Trazado 101440" d="M2186.1,992.7s.538-7.466,4.461-5.616-.88,7-2.827,8.775Z" transform="translate(-2169.471 -964.926)" fill="url(#linear-gradient-12)"/>
            </g>
            <path id="Trazado_101441" data-name="Trazado 101441" d="M2122.983,1248.638l9.021-8.7,12.48,5.272s12.423,1.925,19.533,0l7.11-1.925,16.067-5,2.523,7.132a4.294,4.294,0,0,1-1.569,4.933,28.354,28.354,0,0,1-4.058,2.528c-2.116.926-52.159-.64-52.159-.64Z" transform="translate(-2122.983 -1144.335)" fill="url(#linear-gradient-13)"/>
          </g>
        </g>
        <g id="Grupo_55476" data-name="Grupo 55476" transform="translate(0 305.672)">
          <path id="Trazado_101442" data-name="Trazado 101442" d="M800.133,1418.935c-1.364,2.019-6.787,47.731-7.636,64.614a2,2,0,0,0,2,2.094h0a2,2,0,0,0,1.977-1.692l9.919-63.561Z" transform="translate(-791.925 -1408.883)" fill="url(#linear-gradient-14)"/>
          <path id="Trazado_101443" data-name="Trazado 101443" d="M955.669,1418.935c1.364,2.019,6.787,47.731,7.636,64.614a2,2,0,0,1-2,2.094h0a2,2,0,0,1-1.977-1.692l-9.919-63.561Z" transform="translate(-903.862 -1408.883)" fill="url(#linear-gradient-15)"/>
          <path id="Trazado_101444" data-name="Trazado 101444" d="M790.513,1390.353l0,.5a6.8,6.8,0,0,0,6.925,6.594l45.846.78a6.854,6.854,0,0,0,7.176-6.221l.024-.456a6.77,6.77,0,0,0-6.91-6.856l-45.865-.822A6.829,6.829,0,0,0,790.513,1390.353Z" transform="translate(-790.508 -1383.869)" fill="url(#linear-gradient-16)"/>
        </g>
        <g id="Grupo_55481" data-name="Grupo 55481" transform="translate(6.229 161.495)">
          <g id="Grupo_55477" data-name="Grupo 55477" transform="translate(40.506 30.482)">
            <path id="Trazado_101445" data-name="Trazado 101445" d="M1094.784,1000.326l-1.194-1.943a4.319,4.319,0,0,0-3.148-2.024l-12.712-1.576s-.563-1.427,1.772-3.117.956-4.442.956-4.442-3.124,2.562-7.644,6.511a12.592,12.592,0,0,0-3.934,7.484l-2.035,4.461a5.906,5.906,0,0,0,5.56,2.06l.463-3.414A54.37,54.37,0,0,0,1094.784,1000.326Z" transform="translate(-1034.369 -987.224)" fill="url(#linear-gradient-17)"/>
            <path id="Trazado_101446" data-name="Trazado 101446" d="M986.025,1051.608l-7.551,16.554a7.246,7.246,0,0,1-9.105,3.789L953.892,1058.2l-.343,27.616,16.13,3.23a15.954,15.954,0,0,0,18.943-13.5l2.963-21.872A5.906,5.906,0,0,1,986.025,1051.608Z" transform="translate(-953.549 -1033.153)" fill="#392a8d"/>
          </g>
          <g id="Grupo_55478" data-name="Grupo 55478" transform="translate(69.515 208.855)">
            <path id="Trazado_101447" data-name="Trazado 101447" d="M1068.407,1635.231c-8.15,0-11.756-.7-13.368-1.337a3.092,3.092,0,0,0,3.011,2.4h28.832a1.4,1.4,0,0,0,1.351-1.771C1084.947,1634.783,1077.967,1635.231,1068.407,1635.231Z" transform="translate(-1054.956 -1626.903)" fill="url(#linear-gradient-18)"/>
            <path id="Trazado_101448" data-name="Trazado 101448" d="M1088.028,1617.121a1.364,1.364,0,0,0-.236-.491c-2.2-2.8-6.608-7.207-12.609-7.123-8.791.124-11.857,1.078-18.688.053l-1.612,5.343a3.063,3.063,0,0,0-.049,1.594c1.612.638,5.218,1.337,13.368,1.337C1077.761,1617.833,1084.742,1617.385,1088.028,1617.121Z" transform="translate(-1054.751 -1609.506)" fill="url(#linear-gradient-19)"/>
          </g>
          <path id="Trazado_101449" data-name="Trazado 101449" d="M1062.811,1589.613l-1.979,6.729s4.383,2,8.238.394l.757-5.829Z" transform="translate(-989.574 -1386.46)" fill="url(#linear-gradient-20)"/>
          <g id="Grupo_55479" data-name="Grupo 55479" transform="translate(118.709 199.129)">
            <path id="Trazado_101450" data-name="Trazado 101450" d="M1248.2,1591.493c-6.353,5.1-9.6,6.821-11.254,7.336a3.088,3.088,0,0,0,3.841-.028l22.475-18.059a1.4,1.4,0,0,0-.05-2.221C1260.81,1580.786,1255.648,1585.505,1248.2,1591.493Z" transform="translate(-1233.912 -1577.677)" fill="url(#linear-gradient-18)"/>
            <path id="Trazado_101451" data-name="Trazado 101451" d="M1255.668,1576.419a1.358,1.358,0,0,0-.49-.233c-3.46-.8-9.644-1.453-14.27,2.371-6.776,5.6-8.571,8.263-14.535,11.748l2.074,5.154a3.039,3.039,0,0,0,.955,1.267c1.654-.515,4.9-2.231,11.254-7.336C1248.109,1583.4,1253.271,1578.683,1255.668,1576.419Z" transform="translate(-1226.373 -1575.574)" fill="url(#linear-gradient-22)"/>
          </g>
          <path id="Trazado_101452" data-name="Trazado 101452" d="M896.712,1322.171s48.793,3.984,58.8,8.7-8.168,70.752-8.168,70.752-2.725,1.312-8.788-.573c0,0,6.218-48.735,1.591-59.3l-52.83-8.641Z" transform="translate(-865.797 -1195.678)" fill="url(#linear-gradient-23)"/>
          <path id="Trazado_101453" data-name="Trazado 101453" d="M1209.46,1587.44c.453.413,4.848,9.277,4.848,9.277s4.893-1.059,5.891-4.155l-4.4-8Z" transform="translate(-1095.599 -1382.856)" fill="url(#linear-gradient-20)"/>
          <path id="Trazado_101454" data-name="Trazado 101454" d="M813.765,1320.748a24.711,24.711,0,0,0-1.525,8.91,13.378,13.378,0,0,0,12.766,13.088l57.681,2.63a2.767,2.767,0,0,1,2.554,2.079c1.355,5.243,7.981,21.343,40.367,53.469a2.611,2.611,0,0,0,3.23.352l4.61-2.912a1.062,1.062,0,0,0,.349-1.434l-33.585-57.351a13,13,0,0,0-7.9-5.857l-49.162-12.567Z" transform="translate(-812.238 -1194.663)" fill="#5e448f"/>
          <path id="Trazado_101455" data-name="Trazado 101455" d="M816.983,1114.313s-.572-28.589,5.143-55.494a43.437,43.437,0,0,1,15.581-25.116l2.669-2.1,13.368,5.431,8.676,13.173a30.974,30.974,0,0,1,1.456,24.3c-4.77,13.311-11.847,33.448-13.473,40.224C850.4,1114.73,828.263,1117.655,816.983,1114.313Z" transform="translate(-815.612 -988.397)" fill="#392a8d"/>
          <path id="Trazado_101456" data-name="Trazado 101456" d="M904.707,957.273,894.263,981.5s3.342,7.519,15.039,4.6l4.178-16.71Z" transform="translate(-870.751 -935.376)" fill="url(#linear-gradient-25)"/>
          <path id="Trazado_101457" data-name="Trazado 101457" d="M1051.659,1122.943c0-.418,13.368-45.117,13.368-45.117l14.621-2.506L1062.1,1124.2Z" transform="translate(-983.031 -1019.586)" fill="url(#linear-gradient-26)"/>
          <path id="Trazado_101458" data-name="Trazado 101458" d="M1048.744,1121.078c.836.835,9.19.835,9.19.835l17.546-50.965-13.786,2.924Z" transform="translate(-980.951 -1016.467)" fill="aqua"/>
          <g id="Grupo_55480" data-name="Grupo 55480" transform="translate(29.622)">
            <path id="Trazado_101459" data-name="Trazado 101459" d="M960.956,913.293c.126.339.4,24.209.4,24.209l-13.633-.132L944.1,914.785S958.848,907.628,960.956,913.293Z" transform="translate(-935.926 -902.446)" fill="url(#linear-gradient-27)"/>
            <path id="Trazado_101460" data-name="Trazado 101460" d="M927.753,897.564l.976,12.039a1.665,1.665,0,0,0,.1.448c.329.889,1.687,3.865,4.646,2.29,2.686-1.429,5.158-2.693,7.089-2.53a1.686,1.686,0,0,1,1.546,1.661,72.873,72.873,0,0,1-.689,11.3,1.682,1.682,0,0,1-1.787,1.4,54.363,54.363,0,0,1-12.471-2.211,1.688,1.688,0,0,1-1.124-1.31c-.514-2.981-2.11-12.037-2.945-14.492-.784-2.3-3.99-3.093-5.359-3.328a1.658,1.658,0,0,1-1.1-.711c-.9-1.336-2.435-4.545,1.529-6.854a1.689,1.689,0,0,0,.584-2.361c-1.011-1.621-1.858-4.247,1.121-6.438,3.028-2.227,5.918-.981,7.584.179a1.688,1.688,0,0,0,2.156-.206,1.335,1.335,0,0,1,1.5-.271,1.662,1.662,0,0,0,2.149-1.194,5.038,5.038,0,0,1,5.105-4.088c6.04-.261,8.095,6.05,7.376,10.164s-7.284,4.026-10.833,2.8c-2.7-.934-5.464,1.254-6.634,2.357A1.672,1.672,0,0,0,927.753,897.564Z" transform="translate(-915.578 -880.883)" fill="url(#linear-gradient-28)"/>
            <path id="Trazado_101461" data-name="Trazado 101461" d="M926.236,962.787s.945-7.223-1.87-8.333-6.274.53-4.422,5.214C922.248,965.493,926.236,962.787,926.236,962.787Z" transform="translate(-918.321 -933.127)" fill="url(#linear-gradient-29)"/>
          </g>
          <path id="Trazado_101462" data-name="Trazado 101462" d="M919.694,1118.5c-29.679,20.526-42.291-26.3-42.6-26.557-19.216-15.874-18.3,12.942-15.874,16.292,24.551,38.27,53.054,27.154,61.859,15.407A9.549,9.549,0,0,1,919.694,1118.5Z" transform="translate(-846.266 -1028.065)" fill="#392a8d"/>
          <path id="Trazado_101463" data-name="Trazado 101463" d="M934.3,1135.226a.872.872,0,0,1-.563-.206c-7.391-6.218-12.145-16.57-14.831-24.159a.876.876,0,1,1,1.651-.585c2.14,6.045,6.844,17.124,14.308,23.4a.876.876,0,0,1-.564,1.546Z" transform="translate(-888.293 -1044.105)" fill="url(#linear-gradient-30)"/>
          <path id="Trazado_101464" data-name="Trazado 101464" d="M886.306,1181.671a.876.876,0,0,1-.338-.068c-9.469-3.966-18.2-12.1-25.956-24.191a.876.876,0,1,1,1.475-.946c7.558,11.782,16.022,19.695,25.158,23.521a.876.876,0,0,1-.339,1.684Z" transform="translate(-846.22 -1077.185)" fill="url(#linear-gradient-30)"/>
          <path id="Trazado_101465" data-name="Trazado 101465" d="M1084.758,1141.721s-.269,1.018-3.193,5.2-6.266,7.1-4.6,2.089-.418-6.684-2.406-1.225a32.409,32.409,0,0,1-3.86,7.909q-1.168.919-2.3,1.7a9.55,9.55,0,0,0,3.38,5.142c1.2-.854,1.847-1.413,1.847-1.413s9.608-5.013,10.444-10.026A52.884,52.884,0,0,0,1084.758,1141.721Z" transform="translate(-994.974 -1066.953)" fill="url(#linear-gradient-32)"/>
        </g>
        <g id="Grupo_55489" data-name="Grupo 55489" transform="translate(59.079 274.881)">
          <g id="Grupo_55488" data-name="Grupo 55488" transform="translate(10.117 2.483)">
            <g id="Grupo_55482" data-name="Grupo 55482" transform="translate(0 2.534)">
              <path id="Trazado_101466" data-name="Trazado 101466" d="M1058.151,1293.95c-.217.9-20.881,78.4-26.12,98.046a3.552,3.552,0,0,0,3.4,4.488h0a3.529,3.529,0,0,0,3.416-2.7l22.939-93.005Z" transform="translate(-1031.907 -1293.95)" fill="#7d97f4"/>
            </g>
            <g id="Grupo_55483" data-name="Grupo 55483" transform="translate(33.925 2.308)">
              <path id="Trazado_101467" data-name="Trazado 101467" d="M1153.893,1293.16c.217.9,20.881,78.571,26.12,98.263a3.558,3.558,0,0,1-3.4,4.5h0a3.531,3.531,0,0,1-3.416-2.706L1150.258,1300Z" transform="translate(-1150.258 -1293.16)" fill="#7d97f4"/>
            </g>
            <g id="Grupo_55484" data-name="Grupo 55484" transform="translate(25.55)">
              <path id="Trazado_101468" data-name="Trazado 101468" d="M1133.914,1285.109h-12.87v10.335a2.673,2.673,0,0,0,2.657,2.69h1.765v23.215a2.024,2.024,0,0,0,2.012,2.036h0a2.024,2.024,0,0,0,2.012-2.036v-23.215h.9a3.549,3.549,0,0,0,3.527-3.57Z" transform="translate(-1121.044 -1285.109)" fill="#7d97f4"/>
            </g>
            <g id="Grupo_55485" data-name="Grupo 55485" transform="translate(283.622 2.534)">
              <path id="Trazado_101469" data-name="Trazado 101469" d="M2047.609,1293.95c-.216.9-20.881,78.4-26.12,98.046a3.552,3.552,0,0,0,3.4,4.488h0a3.529,3.529,0,0,0,3.416-2.7l22.939-93.005Z" transform="translate(-2021.366 -1293.95)" fill="#7d97f4"/>
            </g>
            <g id="Grupo_55486" data-name="Grupo 55486" transform="translate(317.547 2.534)">
              <path id="Trazado_101470" data-name="Trazado 101470" d="M2143.351,1293.95c.216.9,20.881,78.4,26.12,98.046a3.552,3.552,0,0,1-3.4,4.488h0a3.529,3.529,0,0,1-3.416-2.7l-22.939-93.005Z" transform="translate(-2139.716 -1293.95)" fill="#7d97f4"/>
            </g>
            <g id="Grupo_55487" data-name="Grupo 55487" transform="translate(309.173)">
              <path id="Trazado_101471" data-name="Trazado 101471" d="M2123.372,1285.109H2110.5v10.335a2.674,2.674,0,0,0,2.657,2.69h1.766v23.215a2.024,2.024,0,0,0,2.012,2.036h0a2.024,2.024,0,0,0,2.012-2.036v-23.215h.9a3.549,3.549,0,0,0,3.527-3.57Z" transform="translate(-2110.502 -1285.109)" fill="#7d97f4"/>
            </g>
          </g>
          <path id="Trazado_101472" data-name="Trazado 101472" d="M999.69,1276.448h361.375a2.207,2.207,0,0,1,2.133,1.672l1,3.934a2.223,2.223,0,0,1-2.145,2.786l-363.251-.429a2.224,2.224,0,0,1-2.123-2.774l.873-3.505A2.207,2.207,0,0,1,999.69,1276.448Z" transform="translate(-996.613 -1276.448)" fill="#392a8d"/>
        </g>
      </g>
    </g>
  </g>
</svg>
