<svg xmlns="http://www.w3.org/2000/svg" xmlns:xlink="http://www.w3.org/1999/xlink" width="500" height="317.835" viewBox="0 0 500 317.835">
  <defs>
    <linearGradient id="linear-gradient" x1="-1.737" y1="-4.037" x2="-0.47" y2="-1.466" gradientUnits="objectBoundingBox">
      <stop offset="0" stop-color="#ff928e"/>
      <stop offset="1" stop-color="#feb3b1"/>
    </linearGradient>
    <linearGradient id="linear-gradient-2" x1="-1.162" y1="-3.753" x2="-0.244" y2="-1.405" xlink:href="#linear-gradient"/>
    <linearGradient id="linear-gradient-3" x1="-1.17" y1="-3.591" x2="-0.254" y2="-1.348" xlink:href="#linear-gradient"/>
    <linearGradient id="linear-gradient-4" x1="-1.651" y1="-3.607" x2="-0.474" y2="-1.36" xlink:href="#linear-gradient"/>
    <linearGradient id="linear-gradient-5" x1="-1.359" y1="-3.341" x2="-0.343" y2="-1.242" xlink:href="#linear-gradient"/>
    <linearGradient id="linear-gradient-6" y1="0.5" x2="1" y2="0.5" gradientUnits="objectBoundingBox">
      <stop offset="0" stop-color="#dae3fe"/>
      <stop offset="1" stop-color="#e9effd"/>
    </linearGradient>
    <linearGradient id="linear-gradient-19" x1="0.5" y1="-16.086" x2="0.5" y2="-0.314" xlink:href="#linear-gradient"/>
    <linearGradient id="linear-gradient-20" x1="-3.758" y1="-22.715" x2="-1.564" y2="-10.75" xlink:href="#linear-gradient"/>
    <linearGradient id="linear-gradient-21" x1="4.873" y1="-1.058" x2="-10.04" y2="4.254" gradientUnits="objectBoundingBox">
      <stop offset="0" stop-color="#09005d"/>
      <stop offset="1" stop-color="#1a0f91"/>
    </linearGradient>
    <linearGradient id="linear-gradient-22" x1="1.168" y1="-33.944" x2="-0.581" y2="56.691" xlink:href="#linear-gradient-21"/>
    <linearGradient id="linear-gradient-23" x1="0.758" y1="-3" x2="-0.597" y2="15.393" xlink:href="#linear-gradient-21"/>
    <linearGradient id="linear-gradient-24" x1="0.51" y1="0.411" x2="0.539" y2="1.084" xlink:href="#linear-gradient"/>
    <linearGradient id="linear-gradient-25" x1="0.532" y1="0.006" x2="0.327" y2="3.202" gradientUnits="objectBoundingBox">
      <stop offset="0" stop-color="#cb236d"/>
      <stop offset="1" stop-color="#4c246d"/>
    </linearGradient>
    <linearGradient id="linear-gradient-26" x1="0" y1="0.5" x2="1" y2="0.5" xlink:href="#linear-gradient"/>
    <linearGradient id="linear-gradient-27" x1="0.311" y1="2.213" x2="0.471" y2="0.817" gradientUnits="objectBoundingBox">
      <stop offset="0" stop-color="#e1473d"/>
      <stop offset="1" stop-color="#e9605a"/>
    </linearGradient>
    <linearGradient id="linear-gradient-28" x1="0.554" y1="-2.158" x2="0.395" y2="6.275" xlink:href="#linear-gradient-25"/>
    <linearGradient id="linear-gradient-29" x1="0.486" y1="0.386" x2="0.757" y2="2.571" xlink:href="#linear-gradient"/>
    <linearGradient id="linear-gradient-30" x1="0.532" y1="0.118" x2="0.431" y2="1.151" xlink:href="#linear-gradient"/>
    <linearGradient id="linear-gradient-31" x1="-1.909" y1="9.651" x2="-3.505" y2="11.652" xlink:href="#linear-gradient-21"/>
    <linearGradient id="linear-gradient-32" x1="0.585" y1="-0.306" x2="0.151" y2="2.977" xlink:href="#linear-gradient"/>
    <linearGradient id="linear-gradient-33" x1="0.623" y1="0.5" x2="1.623" y2="0.5" xlink:href="#linear-gradient"/>
    <linearGradient id="linear-gradient-34" x1="-1.094" y1="8.927" x2="-2.029" y2="10.603" xlink:href="#linear-gradient-21"/>
    <linearGradient id="linear-gradient-35" x1="0" y1="0.5" x2="1" y2="0.5" xlink:href="#linear-gradient-21"/>
    <linearGradient id="linear-gradient-37" y1="0.5" x2="1" y2="0.5" gradientUnits="objectBoundingBox">
      <stop offset="0" stop-color="#4042e2"/>
      <stop offset="1" stop-color="#4f52ff"/>
    </linearGradient>
  </defs>
  <g id="Grupo_55560" data-name="Grupo 55560" transform="translate(-343.641 -126.942)">
    <path id="Trazado_101605" data-name="Trazado 101605" d="M458.737,429.176s-87.22,5.174-92.027-18.425,17.013-11.124,14.582-22.271-44.656-27.691-36.64-71.463,36.48-32.482,45.663-54.24-38.787-46.333-6.288-87.382,58.229-6.155,79.019-7.1,16.475-39.861,56-41.318,38.981,47.8,63.155,49.107,14.723-16.7,51.032-11.893,32.378,23.737,68.594,14.817,75.2-40.235,116.244-1.109-14.126,79.647-8.3,102.28,20.025,11.362,31.666,37.671-27.055,42.061-21.422,67.487-51.012,61.1-106.429,43.593S458.737,429.176,458.737,429.176Z" transform="translate(0 0)" fill="#f1eaff"/>
    <g id="Grupo_55539" data-name="Grupo 55539" transform="translate(582.354 170.643)">
      <g id="Grupo_55535" data-name="Grupo 55535" transform="translate(30.15 36.471)" opacity="0.8">
        <path id="Trazado_101650" data-name="Trazado 101650" d="M1558.8,488.632c6.763,2.469,23.149,6.768,44.807,1a3.181,3.181,0,0,1,3.673,1.641c2,3.991,5.983,12.235,7.832,17.966a2.973,2.973,0,0,1-2.2,3.83c-8.624,1.86-33.931,5.675-52.349-8.362a4.774,4.774,0,0,1-1.751-2.725l-2.562-11.1A1.935,1.935,0,0,1,1558.8,488.632Z" transform="translate(-1556.201 -488.512)" fill="#a397e3"/>
        <path id="Trazado_101651" data-name="Trazado 101651" d="M1657.945,535.266a.775.775,0,0,1-.729-.513l-5.6-15.6a.774.774,0,0,1,1.458-.523l5.6,15.6a.776.776,0,0,1-.729,1.036Z" transform="translate(-1630.423 -511.551)" fill="url(#linear-gradient)"/>
        <path id="Trazado_101652" data-name="Trazado 101652" d="M1685.942,536.405a.775.775,0,0,1-.7-.437l-8.334-17.229a.774.774,0,1,1,1.394-.674l8.334,17.229a.774.774,0,0,1-.7,1.112Z" transform="translate(-1650.085 -511.172)" fill="url(#linear-gradient-2)"/>
        <path id="Trazado_101653" data-name="Trazado 101653" d="M1711.593,532.679a.774.774,0,0,1-.7-.45l-8.356-18.112a.774.774,0,1,1,1.406-.648l8.355,18.112a.774.774,0,0,1-.7,1.1Z" transform="translate(-1670.032 -507.584)" fill="url(#linear-gradient-3)"/>
        <path id="Trazado_101654" data-name="Trazado 101654" d="M1739.5,528.331a.775.775,0,0,1-.733-.525l-6.155-18.078a.774.774,0,1,1,1.466-.5l6.155,18.078a.776.776,0,0,1-.733,1.024Z" transform="translate(-1693.466 -504.227)" fill="url(#linear-gradient-4)"/>
        <path id="Trazado_101655" data-name="Trazado 101655" d="M1763.643,521.735a.774.774,0,0,1-.724-.5l-7.377-19.456a.774.774,0,0,1,1.448-.549l7.377,19.456a.775.775,0,0,1-.724,1.049Z" transform="translate(-1711.302 -498.021)" fill="url(#linear-gradient-5)"/>
      </g>
      <g id="Grupo_55536" data-name="Grupo 55536" transform="translate(99.235 7.506)" opacity="0.7">
        <path id="Trazado_101656" data-name="Trazado 101656" d="M1868.1,392.783l6.648,13.563a2.674,2.674,0,0,0,2.732,1.476c6.488-.8,28.208-4.454,44.97-18.664a3.609,3.609,0,0,0,1.085-3.857l-8.09-25.161a3.239,3.239,0,0,0-4.04-2.11c-4.874,1.52-14.617,5.76-22.968,16.809-5.1,6.742-14.067,11.444-18.77,13.578A3.231,3.231,0,0,0,1868.1,392.783Z" transform="translate(-1867.773 -357.885)" fill="#91b3fa"/>
        <path id="Trazado_101657" data-name="Trazado 101657" d="M1943.775,491.807a.775.775,0,0,1-.689-.42l-8.907-17.295a.774.774,0,0,1,1.377-.709l8.908,17.295a.774.774,0,0,1-.688,1.129Z" transform="translate(-1919.387 -447.447)" fill="url(#linear-gradient-6)"/>
        <path id="Trazado_101658" data-name="Trazado 101658" d="M1963.4,477.842a.774.774,0,0,1-.676-.394l-10.954-19.46a.774.774,0,1,1,1.349-.76l10.954,19.46a.774.774,0,0,1-.674,1.154Z" transform="translate(-1933.069 -434.894)" fill="url(#linear-gradient-6)"/>
        <path id="Trazado_101659" data-name="Trazado 101659" d="M2007.115,494.07a.775.775,0,0,1-.714-.473l-4.826-11.424a.775.775,0,0,1,1.427-.6l4.826,11.424a.775.775,0,0,1-.713,1.076Z" transform="translate(-1971.859 -453.777)" fill="url(#linear-gradient-6)"/>
        <path id="Trazado_101660" data-name="Trazado 101660" d="M2019.147,428.406a.774.774,0,0,1-.721-.494l-9.705-24.967a.774.774,0,1,1,1.443-.561l9.705,24.967a.775.775,0,0,1-.722,1.055Z" transform="translate(-1977.427 -392.132)" fill="url(#linear-gradient-6)"/>
        <path id="Trazado_101661" data-name="Trazado 101661" d="M2042.949,408.412a.775.775,0,0,1-.743-.559l-7.9-27.258a.774.774,0,1,1,1.487-.431l7.9,27.258a.775.775,0,0,1-.744.99Z" transform="translate(-1997.357 -374.788)" fill="url(#linear-gradient-6)"/>
      </g>
      <g id="Grupo_55537" data-name="Grupo 55537" transform="translate(131.036 0)">
        <path id="Trazado_101662" data-name="Trazado 101662" d="M2011.387,361.721c1.877,3.223,5.858,10.485,6.184,14.631a1.437,1.437,0,0,0,1.327,1.329c6.546.48,35.111,1.373,47.708-18.162a1.43,1.43,0,0,0,.159-1.2c-1.161-3.743-7.34-23.107-14.114-33.635a1.439,1.439,0,0,0-2.38-.049c-4.682,6.558-22.347,30.093-38.065,34.988A1.436,1.436,0,0,0,2011.387,361.721Z" transform="translate(-2011.191 -324.031)" fill="#91b3fa"/>
        <path id="Trazado_101663" data-name="Trazado 101663" d="M2190.342,392.648a.774.774,0,0,1-.767-.681c-1.279-10.477-11.293-26.278-11.394-26.436a.774.774,0,1,1,1.306-.832c.42.659,10.3,16.254,11.625,27.081a.774.774,0,0,1-.675.862A.807.807,0,0,1,2190.342,392.648Z" transform="translate(-2141.059 -355.403)" fill="url(#linear-gradient-6)"/>
        <path id="Trazado_101664" data-name="Trazado 101664" d="M2173.714,410.264a.775.775,0,0,1-.756-.61c-1.637-7.572-10.238-23.973-10.324-24.138a.774.774,0,0,1,1.37-.721c.358.681,8.787,16.754,10.469,24.532a.775.775,0,0,1-.593.921A.792.792,0,0,1,2173.714,410.264Z" transform="translate(-2128.984 -370.999)" fill="url(#linear-gradient-6)"/>
        <path id="Trazado_101665" data-name="Trazado 101665" d="M2178.1,483.475a.774.774,0,0,1-.707-.459l-3.6-8.068a.774.774,0,1,1,1.414-.631l3.6,8.068a.775.775,0,0,1-.707,1.09Z" transform="translate(-2137.69 -440.636)" fill="url(#linear-gradient-6)"/>
        <path id="Trazado_101666" data-name="Trazado 101666" d="M2160.921,493.9a.774.774,0,0,1-.727-.509l-2.676-7.339a.774.774,0,1,1,1.455-.531l2.676,7.339a.775.775,0,0,1-.727,1.04Z" transform="translate(-2125.036 -449.32)" fill="url(#linear-gradient-6)"/>
      </g>
      <g id="Grupo_55538" data-name="Grupo 55538" transform="translate(0 14.49)" opacity="0.7">
        <path id="Trazado_101667" data-name="Trazado 101667" d="M1422.11,389.575c5.566,3.528,22.384,13.468,35.637,13.789a1.219,1.219,0,0,1,1.126.851l6.271,19.553a1.226,1.226,0,0,1-1.364,1.587c-7.36-1.2-33.351-6.292-43.308-19.458a1.229,1.229,0,0,1-.245-.742V390.613A1.226,1.226,0,0,1,1422.11,389.575Z" transform="translate(-1420.227 -389.382)" fill="#91b3fa"/>
        <path id="Trazado_101668" data-name="Trazado 101668" d="M1580.281,475.3a.774.774,0,0,1-.744-.561l-4.572-15.9a.774.774,0,1,1,1.488-.428l4.571,15.9a.776.776,0,0,1-.744.989Z" transform="translate(-1540.632 -442.667)" fill="url(#linear-gradient-6)"/>
        <path id="Trazado_101669" data-name="Trazado 101669" d="M1560.824,472.063a.774.774,0,0,1-.755-.6l-3.64-16.108a.774.774,0,1,1,1.511-.341l3.64,16.108a.775.775,0,0,1-.756.945Z" transform="translate(-1526.214 -439.988)" fill="url(#linear-gradient-6)"/>
        <path id="Trazado_101670" data-name="Trazado 101670" d="M1539.061,458.892a.774.774,0,0,1-.751-.59,71.144,71.144,0,0,1-1.69-8.036.774.774,0,0,1,1.544.118c.007.543.843,4.257,1.649,7.549a.774.774,0,0,1-.567.936A.785.785,0,0,1,1539.061,458.892Z" transform="translate(-1510.81 -436.218)" fill="url(#linear-gradient-6)"/>
        <path id="Trazado_101671" data-name="Trazado 101671" d="M1459.571,430.679a.774.774,0,0,1-.773-.752c-.391-13.855-.025-14.454.113-14.679a.774.774,0,0,1,1.374.7c-.191.9-.112,7.811.06,13.93a.774.774,0,0,1-.752.8Zm.662-14.624h0Z" transform="translate(-1450.109 -409.224)" fill="url(#linear-gradient-6)"/>
      </g>
    </g>
    <g id="Grupo_55540" data-name="Grupo 55540" transform="translate(418.838 196.333)">
      <path id="Trazado_101672" data-name="Trazado 101672" d="M1678.579,657.82,1744.308,531.9h-13.467a2.941,2.941,0,0,1-2.274-4.807l70.054-85.381a4.941,4.941,0,0,1,8.752,3.425l-4.924,83.492a8.343,8.343,0,0,1-9.277,7.8l-9.389-1.075-65.216,141.235a10.384,10.384,0,0,1-9.428,6.031h-22.6Z" transform="translate(-1457.778 -439.89)" fill="aqua"/>
      <path id="Trazado_101673" data-name="Trazado 101673" d="M1433.493,962l46.4,103.079a17.018,17.018,0,0,0,15.517,10.032h23.922a8.735,8.735,0,0,0,7.638-4.5l.851-1.534h0a6.84,6.84,0,0,1-6.092-3.73l-61.827-121.141Z" transform="translate(-1267.035 -832.384)" fill="aqua"/>
      <path id="Trazado_101674" data-name="Trazado 101674" d="M1142.346,914.418h0a10.148,10.148,0,0,0-14.737,2.341l-68.226,102.5a29.472,29.472,0,0,1-24.535,13.142h-9.6l-7.813-22.507s63.426-97.253,79.774-111.964c0,0,16.28-14.673,32.332-3.579a26.789,26.789,0,0,1,9.427,11.879Z" transform="translate(-943.231 -790.358)" fill="aqua"/>
      <path id="Trazado_101675" data-name="Trazado 101675" d="M682.777,1099.118s11.421-14.275,33.551-16.5c0,0,10.511,3.581,31.451,41.1s34.84,54.633,51.15,45.287l-1.35,2.242a24.6,24.6,0,0,1-21.071,11.907h-9.021a30.86,30.86,0,0,1-25.055-12.838C726.134,1147.668,692.789,1102.635,682.777,1099.118Z" transform="translate(-682.777 -940.108)" fill="aqua"/>
      <path id="Trazado_101676" data-name="Trazado 101676" d="M2221.218,563.522a.709.709,0,0,1-.083,0,.73.73,0,0,1-.643-.808l.462-4.077a.73.73,0,1,1,1.451.164l-.462,4.077A.73.73,0,0,1,2221.218,563.522Z" transform="translate(-1879.527 -531.799)" fill="url(#linear-gradient-19)"/>
      <path id="Trazado_101679" data-name="Trazado 101679" d="M1330.573,1207.286a.731.731,0,0,1-.6-1.139l1.918-2.844a.73.73,0,0,1,1.211.817l-1.918,2.844A.729.729,0,0,1,1330.573,1207.286Z" transform="translate(-1186.368 -1033.779)" fill="url(#linear-gradient-20)"/>
    </g>
    <g id="Grupo_55542" data-name="Grupo 55542" transform="translate(395.41 350.634)">
      <path id="Trazado_101682" data-name="Trazado 101682" d="M678.775,1223.53c1.459.585-9.356-14.245-11.507-28.079s-7.76-37.243-21.231-50.194-26.739-12.878-41.944,1.752c-12.671,12.192-20.708,18.516-25.648,20.05a1.917,1.917,0,0,0-.989,2.913c3.856,5.622,14.429,18.357,29.689,15.794,19.465-3.269,41.883-18.477,50.227-8.606s8.033,15.913,8.779,20.926S669.123,1219.659,678.775,1223.53Z" transform="translate(-577.119 -1135.78)" fill="#bdd0fb"/>
      <path id="Trazado_101683" data-name="Trazado 101683" d="M731.543,1215.492a44.1,44.1,0,0,1,6.5-6.184,36.714,36.714,0,0,1,7.73-4.712,25.759,25.759,0,0,1,4.362-1.479,19.228,19.228,0,0,1,4.646-.5c.394.022.788.018,1.181.064s.792.082,1.171.149l2.241.449,2.212.606,2.164.777a26.018,26.018,0,0,1,7.762,4.878,32.531,32.531,0,0,1,5.748,7.04l.6.961c.2.318.36.66.542.99.348.667.716,1.323,1.045,2,.623,1.364,1.274,2.714,1.783,4.119a74.762,74.762,0,0,1,2.729,8.5.365.365,0,0,1-.7.221l0-.011c-1-2.773-2-5.542-3.233-8.2-.577-1.347-1.27-2.633-1.927-3.934-.347-.64-.73-1.259-1.092-1.888s-.763-1.234-1.166-1.835a32.482,32.482,0,0,0-5.607-6.512,25.179,25.179,0,0,0-7.25-4.413l-2.014-.708-2.069-.553-2.11-.408c-.349-.061-.684-.09-1.027-.138s-.688-.041-1.032-.065a17.192,17.192,0,0,0-4.15.419,23.958,23.958,0,0,0-4.059,1.262,40.694,40.694,0,0,0-7.581,4.164A60.639,60.639,0,0,0,732.1,1216l-.012.011a.38.38,0,0,1-.547-.524Z" transform="translate(-697.232 -1187.79)" fill="#dce5fe"/>
    </g>
    <g id="Grupo_55549" data-name="Grupo 55549" transform="translate(650.634 328.997)">
      <g id="Grupo_55543" data-name="Grupo 55543" transform="translate(68.5 74.824)">
        <rect id="Rectángulo_5318" data-name="Rectángulo 5318" width="2.645" height="28.602" transform="translate(12.782 6.409)" fill="url(#linear-gradient-21)"/>
        <path id="Rectángulo_5319" data-name="Rectángulo 5319" d="M1.722,0H21.443a1.722,1.722,0,0,1,1.722,1.722v0a0,0,0,0,1,0,0H0a0,0,0,0,1,0,0v0A1.722,1.722,0,0,1,1.722,0Z" transform="translate(2.523 33.84)" fill="url(#linear-gradient-22)"/>
        <rect id="Rectángulo_5320" data-name="Rectángulo 5320" width="29.125" height="8.26" rx="4.13" fill="url(#linear-gradient-23)"/>
      </g>
      <g id="Grupo_55544" data-name="Grupo 55544" transform="translate(28.922 56.79)">
        <path id="Trazado_101684" data-name="Trazado 101684" d="M1979.871,1318.541a23.019,23.019,0,0,0-8.349,3.563,2.2,2.2,0,0,0-.972,2.1,93.374,93.374,0,0,0,9.878,31.005,3.337,3.337,0,0,1,.32,2.289l-1.246,5.8-2.311,2.167h5.953l3.964-10.727-1.695-.536a3.208,3.208,0,0,1-2.24-3l-.2-11.507a13.09,13.09,0,0,0-3.143-8.664l9.507-.463Z" transform="translate(-1945.713 -1313.169)" fill="url(#linear-gradient-24)"/>
        <path id="Trazado_101685" data-name="Trazado 101685" d="M1989.961,1491.608c-.542.71,5.835,1.646,9.057.094,0,0,4.466-7.771,4.466-11.772,0,0-.354-.816-2.977-.631,0,0-1.5,9.2-3.083,10.232s-4.43.1-4.43.1A9.325,9.325,0,0,0,1989.961,1491.608Z" transform="translate(-1960.808 -1438.261)" fill="url(#linear-gradient-25)"/>
        <path id="Trazado_101686" data-name="Trazado 101686" d="M1910.633,1336.388c-.051-.088-10.236-1.225-10.236-1.225a23.55,23.55,0,0,1-.708,7.36c-1.042,4.263-16,22.734-16,22.734l1.568,4.971a25.222,25.222,0,0,1-14.31.861l9.718-5.831s9.095-30.993,14.666-36.522l10.21-3.532Z" transform="translate(-1868.211 -1318.354)" fill="url(#linear-gradient-26)"/>
        <path id="Trazado_101687" data-name="Trazado 101687" d="M2019.42,1294.315s5.868,8.729,6.35,12.71-1.607,5.6-7.765,5.866-22.6.262-22.6.262l-14.03-11.99s10.224-3.648,12.882-4.68S2019.42,1294.315,2019.42,1294.315Z" transform="translate(-1954.155 -1294.315)" fill="url(#linear-gradient-27)"/>
        <path id="Trazado_101688" data-name="Trazado 101688" d="M1875.054,1520.715a2.871,2.871,0,0,1,.548,3.454s-13.373,2.371-17,1.3c0,0,.754-1.721,4.843-3.679l-.3.232a.488.488,0,0,0,.323.876C1866.155,1522.739,1871.73,1522.245,1875.054,1520.715Z" transform="translate(-1858.597 -1470.515)" fill="url(#linear-gradient-28)"/>
      </g>
      <g id="Grupo_55545" data-name="Grupo 55545" transform="translate(61.252)">
        <path id="Trazado_101689" data-name="Trazado 101689" d="M2038.8,1178.05a133.959,133.959,0,0,1-10.2-10.817,9.145,9.145,0,0,1-1.549-8.23,113.489,113.489,0,0,1,4.514-11.367c.381-1.278,8.044-1.225,8.044-1.225s15.078,9.786,21,26.363l-6.653,2.071a77.756,77.756,0,0,0-7.827-10.8s6.731,8.892,6.968,12.532Z" transform="translate(-2021.736 -1122.415)" fill="#392a8d"/>
        <path id="Trazado_101690" data-name="Trazado 101690" d="M2044.568,1116.089c.08.266,2.08,6.9,2.236,7.033s4.386.365,6.377-1l-3.377-7.07Z" transform="translate(-2035.662 -1098.015)" fill="url(#linear-gradient-29)"/>
        <path id="Trazado_101691" data-name="Trazado 101691" d="M2017.573,1076.185s-2.18,3.257-1.366,8.965,3.669,6.714,5.775,5.726a10.778,10.778,0,0,0,6.149-7.739C2029.324,1078.32,2020.5,1072.1,2017.573,1076.185Z" transform="translate(-2013.448 -1066.729)" fill="url(#linear-gradient-30)"/>
        <path id="Trazado_101692" data-name="Trazado 101692" d="M2015.51,1063.485s-1.916-7.875-7.621-4.233l-.719,1.8s-4.4-2.173-2.1-6.1a8.667,8.667,0,0,1,12.831-2.128c4.465,3.636,5.564,7.156,4.6,10.936s-3.6,1.944-3.6,1.944-.037-2.916-1.293-3.663-1.618,1.389-1.618,1.389Z" transform="translate(-2004.403 -1048.059)" fill="url(#linear-gradient-31)"/>
        <path id="Trazado_101693" data-name="Trazado 101693" d="M2058.722,1095.9s-1.009-4.042,1.387-3.743.747,3.855.025,5.131Z" transform="translate(-2046.514 -1080.177)" fill="url(#linear-gradient-32)"/>
        <path id="Trazado_101694" data-name="Trazado 101694" d="M2018.576,1271.065l5.021-4.839,6.946,2.934s6.914,1.071,10.871,0l3.957-1.071,8.942-2.784,1.4,3.969a2.39,2.39,0,0,1-.873,2.746,15.787,15.787,0,0,1-2.258,1.407c-1.178.515-29.029-.356-29.029-.356Z" transform="translate(-2015.434 -1214.948)" fill="url(#linear-gradient-33)"/>
        <path id="Trazado_101695" data-name="Trazado 101695" d="M2061.3,1043.977a1.548,1.548,0,0,1-.646-2.666c2.975-2.7,8.377-5.491,15.165.211,7.646,6.422,11.829,9.4,13.889,9.047a1.556,1.556,0,0,1,1.64,2.34,6.6,6.6,0,0,1-3.383,2.4C2073.978,1060.649,2068.425,1045.53,2061.3,1043.977Z" transform="translate(-2047.773 -1038.196)" fill="url(#linear-gradient-34)"/>
      </g>
      <g id="Grupo_55546" data-name="Grupo 55546" transform="translate(26.081 31.955)">
        <path id="Trazado_101696" data-name="Trazado 101696" d="M1997.234,1292.315l-.067,0-29.125-.032a1.3,1.3,0,1,1,0-2.607l29.125.032a1.3,1.3,0,0,1,.064,2.606Z" transform="translate(-1939.92 -1265.871)" fill="url(#linear-gradient-35)"/>
        <path id="Trazado_101697" data-name="Trazado 101697" d="M1847.725,1182.311h24.256a4.623,4.623,0,0,1,4.181,2.651l11.214,23.778h-30.144a2.81,2.81,0,0,1-2.613-1.777l-8.7-22A1.937,1.937,0,0,1,1847.725,1182.311Z" transform="translate(-1845.786 -1182.311)" fill="url(#linear-gradient-35)"/>
        <path id="Trazado_101698" data-name="Trazado 101698" d="M1918.007,1228.767c.525,1.633.137,3.219-.867,3.542s-2.245-.738-2.771-2.371-.137-3.219.867-3.542S1917.481,1227.134,1918.007,1228.767Z" transform="translate(-1898.979 -1216.575)" fill="#91b3fa"/>
      </g>
      <g id="Grupo_55548" data-name="Grupo 55548" transform="translate(0 58.122)">
        <path id="Trazado_101699" data-name="Trazado 101699" d="M1852.265,1301.666a1.076,1.076,0,0,0-.253-.931,1.235,1.235,0,0,0-.927-.409H1729.546a1.407,1.407,0,0,0-1.165.6,1.226,1.226,0,0,0-.09,1.242l1.317,2.672a1.856,1.856,0,0,0,1.674,1h118.97a1.376,1.376,0,0,0,1.371-1.06Z" transform="translate(-1728.162 -1300.325)" fill="url(#linear-gradient-37)"/>
        <g id="Grupo_55547" data-name="Grupo 55547" transform="translate(7.129 2.27)">
          <path id="Trazado_101700" data-name="Trazado 101700" d="M1761.38,1365.952a1.046,1.046,0,0,1-.421-.089,1.1,1.1,0,0,1-.558-1.434l22.369-53.205a1.058,1.058,0,0,1,1.4-.571,1.1,1.1,0,0,1,.558,1.434l-22.369,53.2A1.066,1.066,0,0,1,1761.38,1365.952Z" transform="translate(-1760.314 -1310.564)" fill="url(#linear-gradient-37)"/>
          <path id="Trazado_101701" data-name="Trazado 101701" d="M1796.512,1365.951a1.066,1.066,0,0,1-.98-.66l-22.369-53.205a1.1,1.1,0,0,1,.558-1.434,1.058,1.058,0,0,1,1.4.571l22.37,53.205a1.1,1.1,0,0,1-.558,1.434A1.045,1.045,0,0,1,1796.512,1365.951Z" transform="translate(-1770.246 -1310.563)" fill="url(#linear-gradient-37)"/>
          <path id="Trazado_101702" data-name="Trazado 101702" d="M2158.65,1365.952a1.046,1.046,0,0,1-.421-.089,1.1,1.1,0,0,1-.558-1.434l22.369-53.205a1.058,1.058,0,0,1,1.4-.571,1.1,1.1,0,0,1,.558,1.434l-22.369,53.2A1.066,1.066,0,0,1,2158.65,1365.952Z" transform="translate(-2069.496 -1310.564)" fill="url(#linear-gradient-37)"/>
          <path id="Trazado_101703" data-name="Trazado 101703" d="M2193.781,1365.951a1.066,1.066,0,0,1-.98-.66l-22.369-53.205a1.1,1.1,0,0,1,.558-1.434,1.058,1.058,0,0,1,1.4.571l22.369,53.205a1.1,1.1,0,0,1-.558,1.434A1.044,1.044,0,0,1,2193.781,1365.951Z" transform="translate(-2079.427 -1310.563)" fill="url(#linear-gradient-37)"/>
        </g>
      </g>
    </g>
    <g id="Grupo_55553" data-name="Grupo 55553" transform="translate(560.101 376.245)">
      <g id="Grupo_55552" data-name="Grupo 55552">
        <g id="Grupo_55550" data-name="Grupo 55550" transform="translate(16.271 6.324)">
          <path id="Trazado_101704" data-name="Trazado 101704" d="M1411.591,1316.309a1.242,1.242,0,0,1-1.116-.7l-1.194-2.456a15.133,15.133,0,0,1-3.7-1.033l-2.3,1.484a1.24,1.24,0,0,1-1.441-.066l-3.076-2.411a1.241,1.241,0,0,1-.407-1.385l.892-2.582a15.12,15.12,0,0,1-1.887-3.344l-2.671-.573a1.243,1.243,0,0,1-.972-1.064l-.471-3.882a1.241,1.241,0,0,1,.69-1.266l2.456-1.195a15.18,15.18,0,0,1,1.033-3.7l-1.484-2.3a1.243,1.243,0,0,1,.066-1.44l2.412-3.078a1.242,1.242,0,0,1,1.383-.408l2.583.893a15.121,15.121,0,0,1,3.344-1.887l.573-2.67a1.244,1.244,0,0,1,1.064-.972l3.882-.471a1.238,1.238,0,0,1,1.266.687l1.2,2.459a15.143,15.143,0,0,1,3.7,1.033l2.3-1.484a1.245,1.245,0,0,1,1.438.064l3.079,2.413a1.243,1.243,0,0,1,.408,1.381l-.893,2.585a15.143,15.143,0,0,1,1.886,3.344l2.671.573a1.242,1.242,0,0,1,.972,1.064l.471,3.881a1.241,1.241,0,0,1-.69,1.266l-2.456,1.195a15.187,15.187,0,0,1-1.033,3.7l1.484,2.3a1.244,1.244,0,0,1-.066,1.44l-2.412,3.078a1.243,1.243,0,0,1-1.381.408l-2.585-.893a15.143,15.143,0,0,1-3.344,1.887l-.573,2.671a1.243,1.243,0,0,1-1.064.972l-3.883.471A1.264,1.264,0,0,1,1411.591,1316.309Zm-6.173-6.4.488.226a13.2,13.2,0,0,0,4.127,1.152l.535.059,1.44,2.96,2.882-.349.691-3.219.5-.185a13.207,13.207,0,0,0,3.732-2.105l.419-.337,3.113,1.076,1.791-2.285-1.788-2.766.226-.488a13.2,13.2,0,0,0,1.153-4.127l.059-.534,2.96-1.439-.349-2.882-3.218-.691-.184-.5a13.23,13.23,0,0,0-2.106-3.732l-.336-.419,1.076-3.113-2.285-1.791-2.766,1.788-.488-.226a13.207,13.207,0,0,0-4.127-1.153l-.534-.059-1.44-2.96-2.882.349-.691,3.219-.5.185a13.215,13.215,0,0,0-3.732,2.105l-.419.337-3.113-1.076-1.791,2.285,1.788,2.766-.226.488a13.205,13.205,0,0,0-1.152,4.127l-.059.534-2.96,1.44.349,2.882,3.218.69.185.505a13.205,13.205,0,0,0,2.106,3.732l.336.419-1.076,3.113,2.285,1.791Zm-3.188,2.061h0Zm-2.026-1.59v0Zm-.234-.785h0Zm-.01-23.067v0Zm11.448,21.892a10.409,10.409,0,1,1,10.353-11.663,10.445,10.445,0,0,1,.033,2.215.974.974,0,1,1-1.939-.178,8.508,8.508,0,0,0-.027-1.8,8.456,8.456,0,1,0-3.213,7.7.974.974,0,1,1,1.2,1.538,10.394,10.394,0,0,1-5.129,2.109A10.614,10.614,0,0,1,1411.408,1308.42Z" transform="translate(-1393.245 -1279.803)" fill="#91b3fa"/>
          <path id="Trazado_101705" data-name="Trazado 101705" d="M1459.952,1350.96a4.447,4.447,0,1,1,4.149-6.047h0a4.451,4.451,0,0,1-4.149,6.047Zm0-6.947a2.5,2.5,0,1,0,2.33,1.6h0a2.5,2.5,0,0,0-2.33-1.6Z" transform="translate(-1441.7 -1328.258)" fill="#91b3fa"/>
        </g>
        <g id="Grupo_55551" data-name="Grupo 55551">
          <path id="Trazado_101706" data-name="Trazado 101706" d="M1326.579,1268.837a.859.859,0,0,1-.31-.058l-1.753-.68a.86.86,0,0,1-.548-.831l.045-1.179a7.541,7.541,0,0,1-1.184-1.13l-1.172.1a.855.855,0,0,1-.857-.507l-.76-1.723a.858.858,0,0,1,.2-.978l.862-.8a7.516,7.516,0,0,1-.036-1.636l-.9-.76a.862.862,0,0,1-.246-.967l.68-1.753a.873.873,0,0,1,.835-.548l1.176.045a7.542,7.542,0,0,1,1.13-1.183l-.1-1.172a.862.862,0,0,1,.511-.858l1.719-.759a.861.861,0,0,1,.98.205l.8.86a7.533,7.533,0,0,1,1.635-.037l.76-.9a.86.86,0,0,1,.968-.246l1.752.68a.858.858,0,0,1,.548.831l-.045,1.179a7.535,7.535,0,0,1,1.183,1.13l1.171-.1a.859.859,0,0,1,.861.513l.757,1.716a.858.858,0,0,1-.2.975l-.865.8a7.506,7.506,0,0,1,.036,1.635l.9.761a.859.859,0,0,1,.246.968l-.679,1.752a.863.863,0,0,1-.831.548l-1.179-.045a7.516,7.516,0,0,1-1.13,1.183l.1,1.173a.859.859,0,0,1-.508.857l-1.722.759a.858.858,0,0,1-.98-.2l-.8-.86a7.588,7.588,0,0,1-1.636.037l-.76.9A.857.857,0,0,1,1326.579,1268.837Zm-.459-1.249,0,0Zm5.378-.126,0,0Zm-.679-.137h0Zm-5.376-.433.953.37,1-1.177.4.056a6.052,6.052,0,0,0,1.976-.044l.4-.074,1.048,1.13.935-.412-.128-1.536.322-.243a6.089,6.089,0,0,0,1.365-1.429l.227-.332,1.541.059.37-.954-1.177-1,.056-.4a6.072,6.072,0,0,0-.044-1.975l-.074-.4,1.13-1.047-.413-.936-1.535.128-.243-.322a6.094,6.094,0,0,0-1.429-1.365l-.333-.228.059-1.54-.954-.37-1,1.177-.4-.056a6.113,6.113,0,0,0-1.976.044l-.4.074-1.048-1.13-.936.413.128,1.535-.322.242a6.1,6.1,0,0,0-1.365,1.43l-.227.332-1.541-.058-.37.953,1.177,1-.056.4a6.087,6.087,0,0,0,.044,1.975l.074.4-1.13,1.047.413.936,1.536-.128.243.322a6.079,6.079,0,0,0,1.429,1.365l.333.228Zm6.739.274v0Zm-10.946-4.246h0Zm.14-.685,0,0ZM1336,1261.9v0Zm-.092-4.022v0Zm-.156-1.363h0Zm-.6-.356,0,.007Zm.54-.371h0Zm-10.942-2.239h0Zm7.492-.17h0Zm-1.752-.68h0Zm-4.706-.05,0,0Zm2.824,12.666a5.266,5.266,0,1,1,5.16-6.328.731.731,0,0,1-1.431.294,3.806,3.806,0,1,0-.623,2.965.73.73,0,1,1,1.193.843,5.284,5.284,0,0,1-4.3,2.226Z" transform="translate(-1319.865 -1251.283)" fill="#91b3fa"/>
        </g>
      </g>
    </g>
    <g id="Grupo_55554" data-name="Grupo 55554" transform="translate(757.406 307.674)">
      <path id="Trazado_101707" data-name="Trazado 101707" d="M2245.709,1000.3c-9.076,0-18.966-.7-25.5-2.028-4.933-1-7.523-2.253-7.919-3.819-1.365-5.406-5.822-45.941,1.544-52.308a.48.48,0,0,1,.33-.116c6.1.217,59.713,2.243,62.993,6.55,3.552,4.663-6.206,44.261-9.56,48.687C2266.032,999.327,2256.44,1000.3,2245.709,1000.3Zm-31.39-57.309c-6.352,6.075-2.713,44.864-1.106,51.229.133.525,1.1,1.879,7.183,3.116,14.508,2.951,44.019,2.539,46.435-.648,1.576-2.079,4.736-12.608,7.2-23.971,2.73-12.613,3.659-21.86,2.365-23.559C2274.124,946.182,2238.106,943.845,2214.32,942.993Z" transform="translate(-2209.7 -942.031)" fill="#91b3fa"/>
      <path id="Trazado_101708" data-name="Trazado 101708" d="M2267.838,1103.856h-4.3a.956.956,0,0,1-.956-.956v-12.868a.956.956,0,0,1,.956-.956h4.3a.956.956,0,0,1,.956.956V1102.9A.956.956,0,0,1,2267.838,1103.856Zm-3.345-1.912h2.39v-10.957h-2.39Z" transform="translate(-2250.856 -1056.472)" fill="#91b3fa"/>
      <path id="Trazado_101709" data-name="Trazado 101709" d="M2300.536,1074.465h-5.879a.956.956,0,0,1-.956-.956v-21.242a.956.956,0,0,1,.956-.956h5.879a.956.956,0,0,1,.956.956v21.242A.956.956,0,0,1,2300.536,1074.465Zm-4.923-1.912h3.968v-19.33h-3.968Z" transform="translate(-2275.075 -1027.08)" fill="#91b3fa"/>
      <path id="Trazado_101710" data-name="Trazado 101710" d="M2342.5,1058.69h-8.16a.956.956,0,0,1-.956-.956V1032a.956.956,0,0,1,.956-.956h8.16a.956.956,0,0,1,.956.956v25.736A.956.956,0,0,1,2342.5,1058.69Zm-7.205-1.912h6.25v-23.825h-6.25Z" transform="translate(-2305.959 -1011.306)" fill="#91b3fa"/>
      <path id="Trazado_101711" data-name="Trazado 101711" d="M2403.463,1039.735h-9.772a.956.956,0,0,1-.956-.956v-31.136a.956.956,0,0,1,.956-.956h9.772a.956.956,0,0,1,.956.956v31.136A.956.956,0,0,1,2403.463,1039.735Zm-8.816-1.912h7.86V1008.6h-7.86Z" transform="translate(-2352.15 -992.351)" fill="#91b3fa"/>
    </g>
    <g id="Grupo_55559" data-name="Grupo 55559" transform="translate(456.203 193.442)">
      <g id="Grupo_55555" data-name="Grupo 55555" transform="translate(0 87.769)">
        <path id="Trazado_101712" data-name="Trazado 101712" d="M1808.249,1240.815l-.883.416a.253.253,0,1,1-.215-.458h0l0,0,.885-.4h0a.244.244,0,0,1,.2.443Z" transform="translate(-1595.092 -1147.741)" fill="#bdd0fb"/>
        <path id="Trazado_101713" data-name="Trazado 101713" d="M1783.752,1251.012l-.906.36a.309.309,0,0,1-.228-.574l0,0,0,0,.908-.341h0a.3.3,0,0,1,.216.558Z" transform="translate(-1575.961 -1155.589)" fill="#bdd0fb"/>
        <path id="Trazado_101714" data-name="Trazado 101714" d="M1758.786,1259.891l-.922.316a.357.357,0,0,1-.232-.676l.007,0,.922-.3a.35.35,0,0,1,.225.664Z" transform="translate(-1556.479 -1162.418)" fill="#bdd0fb"/>
        <path id="Trazado_101715" data-name="Trazado 101715" d="M1733.49,1267.757l-.934.282a.4.4,0,1,1-.231-.763l.007,0,.934-.268a.392.392,0,0,1,.224.751Z" transform="translate(-1536.751 -1168.474)" fill="#bdd0fb"/>
        <path id="Trazado_101716" data-name="Trazado 101716" d="M1707.951,1274.771l-.941.254a.441.441,0,1,1-.229-.851l.008,0,.941-.239a.433.433,0,0,1,.221.838Z" transform="translate(-1516.838 -1173.866)" fill="#bdd0fb"/>
        <path id="Trazado_101717" data-name="Trazado 101717" d="M1682.219,1281.056l-.948.229a.482.482,0,0,1-.226-.937l.009,0,.948-.215a.475.475,0,0,1,.218.925Z" transform="translate(-1496.774 -1178.692)" fill="#bdd0fb"/>
        <path id="Trazado_101718" data-name="Trazado 101718" d="M1656.344,1286.7l-.952.206a.524.524,0,1,1-.222-1.024l.009,0,.951-.192a.517.517,0,0,1,.214,1.011Z" transform="translate(-1476.603 -1183.018)" fill="#bdd0fb"/>
        <path id="Trazado_101719" data-name="Trazado 101719" d="M1630.381,1291.781l-.958.184a.556.556,0,0,1-.209-1.091h.007l.956-.175a.551.551,0,0,1,.2,1.083Z" transform="translate(-1456.372 -1186.918)" fill="#bdd0fb"/>
        <path id="Trazado_101720" data-name="Trazado 101720" d="M1604.332,1296.355l-.962.165a.581.581,0,0,1-.2-1.145h.007l.959-.156a.577.577,0,0,1,.192,1.138Z" transform="translate(-1436.081 -1190.436)" fill="#bdd0fb"/>
        <path id="Trazado_101721" data-name="Trazado 101721" d="M1578.2,1300.43l-.964.147a.606.606,0,1,1-.183-1.2h.007l.962-.138a.6.6,0,0,1,.178,1.191Z" transform="translate(-1415.73 -1193.567)" fill="#bdd0fb"/>
        <path id="Trazado_101722" data-name="Trazado 101722" d="M1552.01,1304.029l-.967.13a.632.632,0,0,1-.168-1.252h.007l.964-.121a.628.628,0,0,1,.163,1.245Z" transform="translate(-1395.328 -1196.328)" fill="#bdd0fb"/>
        <path id="Trazado_101723" data-name="Trazado 101723" d="M1525.758,1307.172l-.969.113a.657.657,0,1,1-.152-1.306h.007l.967-.1a.653.653,0,0,1,.148,1.3Z" transform="translate(-1374.881 -1198.734)" fill="#bdd0fb"/>
        <path id="Trazado_101724" data-name="Trazado 101724" d="M1499.455,1309.87l-.971.1a.683.683,0,0,1-.136-1.359h.008l.968-.088a.679.679,0,0,1,.131,1.351Z" transform="translate(-1354.396 -1200.793)" fill="#bdd0fb"/>
        <path id="Trazado_101725" data-name="Trazado 101725" d="M1473.11,1312.129l-.972.081a.708.708,0,1,1-.117-1.411h.008l.969-.072a.7.7,0,0,1,.112,1.4Z" transform="translate(-1333.879 -1202.51)" fill="#bdd0fb"/>
        <path id="Trazado_101726" data-name="Trazado 101726" d="M1446.73,1313.952l-.974.064a.734.734,0,0,1-.1-1.464h.008l.97-.056a.729.729,0,0,1,.093,1.456Z" transform="translate(-1313.335 -1203.889)" fill="#bdd0fb"/>
        <path id="Trazado_101727" data-name="Trazado 101727" d="M1420.36,1315.355l-.975.046a.749.749,0,1,1-.07-1.5h0l.971-.043a.748.748,0,0,1,.07,1.494Z" transform="translate(-1292.81 -1204.952)" fill="#bdd0fb"/>
        <path id="Trazado_101728" data-name="Trazado 101728" d="M1393.987,1316.34l-.976.029a.757.757,0,1,1-.045-1.514h0l.971-.026a.756.756,0,0,1,.045,1.512Z" transform="translate(-1272.287 -1205.705)" fill="#bdd0fb"/>
        <path id="Trazado_101729" data-name="Trazado 101729" d="M1367.6,1316.875l-.976.012a.766.766,0,1,1-.019-1.532h0l.972-.009a.765.765,0,0,1,.019,1.529Z" transform="translate(-1251.752 -1206.108)" fill="#bdd0fb"/>
        <path id="Trazado_101730" data-name="Trazado 101730" d="M1341.2,1316.915l-.976-.005a.774.774,0,1,1,.009-1.549h0l.972.008a.773.773,0,1,1-.009,1.546Z" transform="translate(-1231.212 -1206.12)" fill="#bdd0fb"/>
        <path id="Trazado_101731" data-name="Trazado 101731" d="M1314.8,1316.441l-.976-.023a.783.783,0,0,1,.038-1.565h0l.971.026h0a.781.781,0,0,1-.04,1.562Z" transform="translate(-1210.672 -1205.723)" fill="#bdd0fb"/>
        <path id="Trazado_101732" data-name="Trazado 101732" d="M1288.415,1315.462l-.975-.043a.791.791,0,1,1,.069-1.581h0l.97.045h0a.79.79,0,0,1-.071,1.578Z" transform="translate(-1190.142 -1204.934)" fill="#bdd0fb"/>
        <path id="Trazado_101733" data-name="Trazado 101733" d="M1262.048,1313.955l-.975-.063a.8.8,0,1,1,.1-1.6h.005l.969.066h0a.8.8,0,0,1-.1,1.593Z" transform="translate(-1169.629 -1203.733)" fill="#bdd0fb"/>
        <path id="Trazado_101734" data-name="Trazado 101734" d="M1235.727,1311.888l-.974-.084a.808.808,0,0,1,.139-1.61h.005l.967.087h0a.807.807,0,0,1-.141,1.607Z" transform="translate(-1149.153 -1202.095)" fill="#bdd0fb"/>
        <path id="Trazado_101735" data-name="Trazado 101735" d="M1209.456,1309.224l-.971-.107a.816.816,0,0,1,.179-1.623h.005l.965.109h0a.815.815,0,0,1-.181,1.62Z" transform="translate(-1128.717 -1199.993)" fill="#bdd0fb"/>
        <path id="Trazado_101736" data-name="Trazado 101736" d="M1183.257,1305.924l-.969-.132a.825.825,0,0,1,.222-1.635h.006l.961.133h0a.823.823,0,0,1-.224,1.632Z" transform="translate(-1108.339 -1197.394)" fill="#bdd0fb"/>
        <path id="Trazado_101737" data-name="Trazado 101737" d="M1157.15,1301.932l-.965-.158a.833.833,0,1,1,.269-1.645h.006l.957.16h0a.832.832,0,0,1-.271,1.642Z" transform="translate(-1088.036 -1194.256)" fill="#bdd0fb"/>
        <path id="Trazado_101738" data-name="Trazado 101738" d="M1131.208,1297.218l-.96-.19a.832.832,0,1,1,.323-1.633h0l.952.185h0a.834.834,0,0,1-.319,1.637Z" transform="translate(-1067.872 -1190.568)" fill="#bdd0fb"/>
        <path id="Trazado_101739" data-name="Trazado 101739" d="M1105.446,1291.7l-.953-.222a.824.824,0,1,1,.373-1.606h0l.945.217h0a.825.825,0,0,1-.369,1.609Z" transform="translate(-1047.853 -1186.264)" fill="#bdd0fb"/>
        <path id="Trazado_101740" data-name="Trazado 101740" d="M1079.883,1285.268l-.945-.257a.816.816,0,0,1,.428-1.575h0l.935.251h.005a.817.817,0,1,1-.424,1.578Z" transform="translate(-1027.992 -1181.251)" fill="#bdd0fb"/>
        <path id="Trazado_101741" data-name="Trazado 101741" d="M1054.6,1277.832l-.934-.3a.808.808,0,1,1,.488-1.54h0l.924.29.006,0a.809.809,0,1,1-.485,1.544Z" transform="translate(-1008.351 -1175.454)" fill="#bdd0fb"/>
        <path id="Trazado_101742" data-name="Trazado 101742" d="M1029.672,1269.274l-.919-.34a.8.8,0,1,1,.555-1.5l0,0,.908.333.006,0a.8.8,0,0,1-.552,1.5Z" transform="translate(-988.997 -1168.781)" fill="#bdd0fb"/>
        <path id="Trazado_101743" data-name="Trazado 101743" d="M1005.222,1259.453l-.9-.389a.791.791,0,1,1,.629-1.452l.005,0,.885.381.007,0a.793.793,0,0,1-.626,1.456Z" transform="translate(-970.02 -1161.124)" fill="#bdd0fb"/>
        <path id="Trazado_101744" data-name="Trazado 101744" d="M981.393,1248.207l-.875-.446a.783.783,0,1,1,.712-1.4l.006,0,.86.436.008,0a.784.784,0,1,1-.709,1.4Z" transform="translate(-951.531 -1152.356)" fill="#bdd0fb"/>
        <path id="Trazado_101745" data-name="Trazado 101745" d="M958.383,1235.348l-.84-.51a.775.775,0,1,1,.8-1.325l.007,0,.824.5.009.005a.776.776,0,0,1-.8,1.33Z" transform="translate(-933.693 -1142.333)" fill="#bdd0fb"/>
        <path id="Trazado_101746" data-name="Trazado 101746" d="M936.469,1220.677l-.8-.582a.767.767,0,1,1,.905-1.238l.008.005.777.566.01.007a.768.768,0,0,1-.9,1.243Z" transform="translate(-916.719 -1130.899)" fill="#bdd0fb"/>
        <path id="Trazado_101747" data-name="Trazado 101747" d="M916.033,1204.011l-.733-.659a.759.759,0,0,1,1.014-1.128l.009.008.715.639.01.009a.76.76,0,0,1-1.013,1.133Z" transform="translate(-900.911 -1117.917)" fill="#bdd0fb"/>
        <path id="Trazado_101748" data-name="Trazado 101748" d="M897.534,1185.2l-.654-.742a.75.75,0,1,1,1.126-.991l.009.01.635.717.01.011a.752.752,0,1,1-1.126,1Z" transform="translate(-886.626 -1103.274)" fill="#bdd0fb"/>
        <path id="Trazado_101749" data-name="Trazado 101749" d="M881.55,1164.247l-.548-.824a.738.738,0,0,1,1.224-.823l.01.015.536.791.01.014a.742.742,0,1,1-1.228.833Z" transform="translate(-874.317 -1086.979)" fill="#bdd0fb"/>
        <path id="Trazado_101750" data-name="Trazado 101750" d="M868.666,1141.317l-.426-.893a.713.713,0,0,1,1.284-.619l.008.016.418.859.007.015a.717.717,0,1,1-1.289.628Z" transform="translate(-864.428 -1069.178)" fill="#bdd0fb"/>
        <path id="Trazado_101751" data-name="Trazado 101751" d="M859.26,1116.746l-.29-.945a.688.688,0,0,1,1.313-.409l.005.016.288.911.005.016a.692.692,0,0,1-1.32.417Z" transform="translate(-857.244 -1050.115)" fill="#bdd0fb"/>
        <path id="Trazado_101752" data-name="Trazado 101752" d="M853.515,1091.07l-.153-.975a.663.663,0,0,1,1.309-.211l0,.015.156.944,0,.015a.667.667,0,0,1-1.317.218Z" transform="translate(-852.896 -1030.205)" fill="#bdd0fb"/>
        <path id="Trazado_101753" data-name="Trazado 101753" d="M851.316,1064.853l-.025-.985a.638.638,0,0,1,1.276-.038v.013l.033.959v.013a.643.643,0,0,1-1.284.044Z" transform="translate(-851.29 -1009.881)" fill="#bdd0fb"/>
        <path id="Trazado_101754" data-name="Trazado 101754" d="M852.023,1038.558l.088-.98a.613.613,0,0,1,1.222.1v.011l-.077.959v.011a.618.618,0,1,1-1.231-.1Z" transform="translate(-851.859 -989.495)" fill="#bdd0fb"/>
        <path id="Trazado_101755" data-name="Trazado 101755" d="M855.482,1012.512l.183-.965a.589.589,0,0,1,1.157.214l0,.009-.172.949,0,.009a.593.593,0,1,1-1.167-.211Z" transform="translate(-854.545 -969.298)" fill="#bdd0fb"/>
        <path id="Trazado_101756" data-name="Trazado 101756" d="M861.339,986.919l.263-.944a.564.564,0,0,1,1.088.3l0,.007-.251.932,0,.007a.568.568,0,0,1-1.1-.3Z" transform="translate(-859.094 -949.448)" fill="#bdd0fb"/>
        <path id="Trazado_101757" data-name="Trazado 101757" d="M869.189,961.871l.33-.922a.538.538,0,0,1,1.016.357l0,.006-.316.914,0,.005a.543.543,0,1,1-1.026-.355Z" transform="translate(-865.196 -930.014)" fill="#bdd0fb"/>
        <path id="Trazado_101758" data-name="Trazado 101758" d="M878.756,937.467l.386-.9a.5.5,0,0,1,.917.386l0,0-.37.9,0,0a.5.5,0,1,1-.932-.385Z" transform="translate(-872.634 -911.083)" fill="#bdd0fb"/>
        <path id="Trazado_101759" data-name="Trazado 101759" d="M889.714,913.636l.431-.876a.457.457,0,0,1,.823.4l0,0-.416.875,0,0a.464.464,0,0,1-.838-.4Z" transform="translate(-881.157 -892.59)" fill="#bdd0fb"/>
        <path id="Trazado_101760" data-name="Trazado 101760" d="M901.83,890.358l.47-.856a.416.416,0,0,1,.733.4l0,0-.455.857v0a.423.423,0,1,1-.747-.4Z" transform="translate(-890.583 -874.519)" fill="#bdd0fb"/>
        <path id="Trazado_101761" data-name="Trazado 101761" d="M914.923,867.608l.5-.836a.376.376,0,0,1,.645.385l-.489.839a.382.382,0,0,1-.663-.381Z" transform="translate(-900.771 -856.855)" fill="#bdd0fb"/>
        <path id="Trazado_101762" data-name="Trazado 101762" d="M928.857,845.35l.531-.817a.335.335,0,0,1,.563.362l-.517.822a.342.342,0,0,1-.581-.361Z" transform="translate(-911.615 -839.571)" fill="#bdd0fb"/>
        <path id="Trazado_101763" data-name="Trazado 101763" d="M943.557,823.608l.557-.8a.28.28,0,0,1,.462.317l-.541.808a.289.289,0,1,1-.482-.319Z" transform="translate(-923.058 -822.688)" fill="#bdd0fb"/>
      </g>
      <g id="Grupo_55556" data-name="Grupo 55556" transform="translate(93.918)">
        <path id="Trazado_101764" data-name="Trazado 101764" d="M1274.99,597.1l.682-.7a.481.481,0,0,1,.689.671l0,0,0,0-.683.689,0,0a.477.477,0,0,1-.68-.669Z" transform="translate(-1274.855 -558.695)" fill="#91b3fa"/>
        <path id="Trazado_101765" data-name="Trazado 101765" d="M1293.758,578.694l.716-.666a.505.505,0,1,1,.688.74l0,0,0,0-.716.654,0,0a.5.5,0,0,1-.679-.737Z" transform="translate(-1289.442 -544.403)" fill="#91b3fa"/>
        <path id="Trazado_101766" data-name="Trazado 101766" d="M1313.4,561.229l.748-.631a.53.53,0,0,1,.683.81l0,0,0,0-.746.619,0,0a.525.525,0,0,1-.674-.806Z" transform="translate(-1304.711 -530.846)" fill="#91b3fa"/>
        <path id="Trazado_101767" data-name="Trazado 101767" d="M1333.864,544.728l.776-.595a.554.554,0,1,1,.673.879l0,0,0,0-.775.583,0,0a.55.55,0,0,1-.665-.875Z" transform="translate(-1320.612 -518.04)" fill="#91b3fa"/>
        <path id="Trazado_101768" data-name="Trazado 101768" d="M1355.075,529.207l.8-.558a.578.578,0,1,1,.66.949l0,0,0,0-.8.547,0,0a.574.574,0,0,1-.651-.945Z" transform="translate(-1337.096 -505.997)" fill="#91b3fa"/>
        <path id="Trazado_101769" data-name="Trazado 101769" d="M1376.979,514.681l.828-.521a.6.6,0,1,1,.642,1.019l0,0,0,0-.824.51,0,0a.6.6,0,0,1-.633-1.015Z" transform="translate(-1354.118 -494.729)" fill="#91b3fa"/>
        <path id="Trazado_101770" data-name="Trazado 101770" d="M1399.52,501.165l.85-.484a.627.627,0,0,1,.62,1.089l0,0,0,0-.846.472,0,0a.622.622,0,0,1-.611-1.085Z" transform="translate(-1371.633 -484.248)" fill="#91b3fa"/>
        <path id="Trazado_101771" data-name="Trazado 101771" d="M1422.646,488.676l.871-.445a.651.651,0,0,1,.593,1.159l-.005,0,0,0-.866.434,0,0a.647.647,0,0,1-.584-1.154Z" transform="translate(-1389.601 -474.566)" fill="#91b3fa"/>
        <path id="Trazado_101772" data-name="Trazado 101772" d="M1446.306,477.23l.891-.407a.675.675,0,0,1,.561,1.228l-.005,0,0,0-.885.4,0,0a.671.671,0,0,1-.552-1.223Z" transform="translate(-1407.984 -465.696)" fill="#91b3fa"/>
        <path id="Trazado_101773" data-name="Trazado 101773" d="M1470.443,466.865l.909-.364a.7.7,0,0,1,.517,1.292h0l-.005,0-.9.358,0,0a.7.7,0,0,1-.515-1.291Z" transform="translate(-1426.734 -457.672)" fill="#91b3fa"/>
        <path id="Trazado_101774" data-name="Trazado 101774" d="M1495.1,457.659l.924-.323a.7.7,0,1,1,.463,1.325h0l0,0-.915.318,0,0a.7.7,0,0,1-.461-1.323Z" transform="translate(-1445.9 -450.546)" fill="#91b3fa"/>
        <path id="Trazado_101775" data-name="Trazado 101775" d="M1520.152,449.571l.938-.281a.707.707,0,0,1,.406,1.355h0l0,0-.928.276-.005,0a.706.706,0,0,1-.4-1.353Z" transform="translate(-1465.37 -444.292)" fill="#91b3fa"/>
        <path id="Trazado_101776" data-name="Trazado 101776" d="M1545.552,442.635l.95-.238a.712.712,0,1,1,.346,1.382h-.007l-.94.233h-.005a.711.711,0,0,1-.344-1.381Z" transform="translate(-1485.11 -438.935)" fill="#91b3fa"/>
        <path id="Trazado_101777" data-name="Trazado 101777" d="M1571.253,436.891l.96-.193a.718.718,0,1,1,.282,1.408h-.007l-.95.189h-.006a.717.717,0,0,1-.281-1.406Z" transform="translate(-1505.084 -434.505)" fill="#91b3fa"/>
        <path id="Trazado_101778" data-name="Trazado 101778" d="M1597.206,432.386l.969-.146a.723.723,0,0,1,.216,1.43h-.007l-.958.142h-.006a.722.722,0,0,1-.214-1.429Z" transform="translate(-1525.252 -431.04)" fill="#91b3fa"/>
        <path id="Trazado_101779" data-name="Trazado 101779" d="M1623.358,429.173l.975-.1a.729.729,0,0,1,.144,1.45h-.007l-.963.094h-.006a.728.728,0,0,1-.143-1.449Z" transform="translate(-1545.573 -428.581)" fill="#91b3fa"/>
        <path id="Trazado_101780" data-name="Trazado 101780" d="M1649.65,427.317l.979-.045a.734.734,0,1,1,.068,1.467h-.008l-.966.043h-.006a.733.733,0,0,1-.067-1.465Z" transform="translate(-1566.001 -427.178)" fill="#91b3fa"/>
        <path id="Trazado_101781" data-name="Trazado 101781" d="M1676.016,426.855l.981.009a.74.74,0,0,1-.013,1.479h-.009l-.967-.01H1676a.739.739,0,0,1,.015-1.477Z" transform="translate(-1586.486 -426.855)" fill="#91b3fa"/>
        <path id="Trazado_101782" data-name="Trazado 101782" d="M1702.374,427.73l.979.066a.745.745,0,1,1-.1,1.486h-.009l-.964-.067h-.008a.744.744,0,0,1,.1-1.484Z" transform="translate(-1606.961 -427.534)" fill="#91b3fa"/>
        <path id="Trazado_101783" data-name="Trazado 101783" d="M1728.636,430.178l.972.123a.749.749,0,0,1-.188,1.486h-.007l-.96-.122h-.006a.749.749,0,0,1,.188-1.485Z" transform="translate(-1627.363 -429.436)" fill="#91b3fa"/>
        <path id="Trazado_101784" data-name="Trazado 101784" d="M1754.732,434.04l.965.173a.751.751,0,0,1-.265,1.479h-.007l-.952-.171h-.006a.751.751,0,0,1,.265-1.479Z" transform="translate(-1647.64 -432.438)" fill="#91b3fa"/>
        <path id="Trazado_101785" data-name="Trazado 101785" d="M1780.591,439.256l.955.224a.754.754,0,0,1-.344,1.468h0l-.007,0-.942-.222-.006,0a.753.753,0,0,1,.344-1.467Z" transform="translate(-1667.733 -436.491)" fill="#91b3fa"/>
        <path id="Trazado_101786" data-name="Trazado 101786" d="M1806.134,445.85l.941.275a.756.756,0,0,1-.424,1.452h0l-.007,0-.928-.272-.007,0a.756.756,0,0,1,.425-1.451Z" transform="translate(-1687.579 -441.615)" fill="#91b3fa"/>
        <path id="Trazado_101787" data-name="Trazado 101787" d="M1831.281,453.827l.925.326a.759.759,0,1,1-.5,1.431h0l-.007,0-.912-.323-.007,0a.758.758,0,0,1,.505-1.43Z" transform="translate(-1707.116 -447.812)" fill="#91b3fa"/>
        <path id="Trazado_101788" data-name="Trazado 101788" d="M1855.953,463.171l.906.376a.761.761,0,0,1-.584,1.406h0l-.006,0-.893-.372-.006,0a.761.761,0,0,1,.584-1.4Z" transform="translate(-1726.286 -455.073)" fill="#91b3fa"/>
        <path id="Trazado_101789" data-name="Trazado 101789" d="M1880.08,473.845l.884.425a.763.763,0,1,1-.661,1.376h0l-.006,0-.872-.42-.006,0a.763.763,0,0,1,.661-1.376Z" transform="translate(-1745.031 -463.367)" fill="#91b3fa"/>
        <path id="Trazado_101790" data-name="Trazado 101790" d="M1903.6,485.793l.861.47a.766.766,0,0,1-.735,1.344h0l-.006,0-.848-.465-.006,0a.765.765,0,0,1,.735-1.343Z" transform="translate(-1763.305 -472.651)" fill="#91b3fa"/>
        <path id="Trazado_101791" data-name="Trazado 101791" d="M1926.467,498.945l.835.513a.768.768,0,1,1-.8,1.309h0l-.005,0-.824-.508-.005,0a.768.768,0,0,1,.8-1.308Z" transform="translate(-1781.073 -482.871)" fill="#91b3fa"/>
        <path id="Trazado_101792" data-name="Trazado 101792" d="M1948.653,513.213l.809.553a.771.771,0,0,1-.869,1.273h0l-.005,0-.8-.546-.005,0a.77.77,0,0,1,.87-1.272Z" transform="translate(-1798.312 -493.96)" fill="#91b3fa"/>
        <path id="Trazado_101793" data-name="Trazado 101793" d="M1970.142,528.505l.783.588a.773.773,0,1,1-.929,1.236h0l0,0-.773-.582,0,0a.773.773,0,0,1,.929-1.235Z" transform="translate(-1815.012 -505.845)" fill="#91b3fa"/>
        <path id="Trazado_101794" data-name="Trazado 101794" d="M1990.94,544.723l.757.62a.775.775,0,1,1-.983,1.2h0l0,0-.749-.614,0,0a.775.775,0,0,1,.983-1.2Z" transform="translate(-1831.175 -518.451)" fill="#91b3fa"/>
        <path id="Trazado_101795" data-name="Trazado 101795" d="M2011.064,561.767l.733.649a.778.778,0,0,1-1.031,1.165h0l0,0-.725-.643,0,0a.777.777,0,0,1,1.031-1.164Z" transform="translate(-1846.816 -531.701)" fill="#91b3fa"/>
        <path id="Trazado_101796" data-name="Trazado 101796" d="M2030.543,579.54l.709.673a.78.78,0,0,1-1.074,1.132h0l0,0-.7-.668,0,0a.78.78,0,0,1,1.074-1.131Z" transform="translate(-1861.958 -545.518)" fill="#91b3fa"/>
        <path id="Trazado_101797" data-name="Trazado 101797" d="M2049.421,597.947l.688.695a.783.783,0,1,1-1.113,1.1h0l0,0-.682-.69,0,0a.782.782,0,0,1,1.112-1.1Z" transform="translate(-1876.633 -559.829)" fill="#91b3fa"/>
        <path id="Trazado_101798" data-name="Trazado 101798" d="M2067.749,616.9l.668.713a.785.785,0,0,1-1.145,1.075h0l0,0-.664-.708,0,0a.785.785,0,0,1,1.145-1.073Z" transform="translate(-1890.882 -574.566)" fill="#91b3fa"/>
        <path id="Trazado_101799" data-name="Trazado 101799" d="M2085.586,636.305l.652.728a.788.788,0,0,1-1.173,1.051h0l0,0-.647-.724,0,0a.787.787,0,0,1,1.173-1.05Z" transform="translate(-1904.752 -589.659)" fill="#91b3fa"/>
        <path id="Trazado_101800" data-name="Trazado 101800" d="M2103,656.093l.637.74a.79.79,0,1,1-1.2,1.031l0,0-.634-.737a.79.79,0,1,1,1.2-1.032Z" transform="translate(-1918.295 -605.05)" fill="#91b3fa"/>
        <path id="Trazado_101801" data-name="Trazado 101801" d="M2120.069,676.174l.626.749a.793.793,0,0,1-1.216,1.017v0l-.623-.747a.792.792,0,1,1,1.214-1.017Z" transform="translate(-1931.569 -620.671)" fill="#91b3fa"/>
        <path id="Trazado_101802" data-name="Trazado 101802" d="M2136.87,696.475l.618.755a.795.795,0,1,1-1.23,1.007h0l-.616-.753a.794.794,0,1,1,1.229-1.007Z" transform="translate(-1944.636 -636.465)" fill="#91b3fa"/>
        <path id="Trazado_101803" data-name="Trazado 101803" d="M2153.492,716.918l.613.758a.8.8,0,1,1-1.24,1h0l-.611-.758a.8.8,0,1,1,1.239-1Z" transform="translate(-1957.568 -652.371)" fill="#91b3fa"/>
        <path id="Trazado_101804" data-name="Trazado 101804" d="M2170.034,737.42l.612.758a.8.8,0,0,1-1.244,1.005h0l-.612-.759a.8.8,0,0,1,1.244-1Z" transform="translate(-1970.438 -668.326)" fill="#91b3fa"/>
        <path id="Trazado_101805" data-name="Trazado 101805" d="M2186.607,757.891l.615.754a.8.8,0,1,1-1.241,1.016h0l-.616-.756a.8.8,0,1,1,1.243-1.012Z" transform="translate(-1983.335 -684.26)" fill="#91b3fa"/>
        <path id="Trazado_101806" data-name="Trazado 101806" d="M2203.335,778.23l.624.746a.8.8,0,1,1-1.232,1.035l0,0-.626-.75a.8.8,0,1,1,1.236-1.029Z" transform="translate(-1996.354 -700.093)" fill="#91b3fa"/>
        <path id="Trazado_101807" data-name="Trazado 101807" d="M2220.361,798.307l.637.732,0,0a.807.807,0,1,1-1.218,1.059h0l-.641-.738a.806.806,0,0,1,1.218-1.058Z" transform="translate(-2009.609 -715.726)" fill="#91b3fa"/>
        <path id="Trazado_101808" data-name="Trazado 101808" d="M2237.853,817.968l.657.712,0,0a.809.809,0,1,1-1.189,1.1h0l-.663-.72a.809.809,0,1,1,1.189-1.1Z" transform="translate(-2023.231 -731.04)" fill="#91b3fa"/>
        <path id="Trazado_101809" data-name="Trazado 101809" d="M2256,837l.686.683,0,0a.812.812,0,1,1-1.145,1.15h0l-.695-.693A.811.811,0,0,1,2256,837Z" transform="translate(-2037.372 -745.873)" fill="#91b3fa"/>
        <path id="Trazado_101810" data-name="Trazado 101810" d="M2275.047,855.131l.722.64.007.006A.814.814,0,1,1,2274.7,857h0l-.736-.653a.814.814,0,0,1,1.081-1.217Z" transform="translate(-2052.214 -760.004)" fill="#91b3fa"/>
        <path id="Trazado_101811" data-name="Trazado 101811" d="M2295.23,871.947l.768.579.01.008a.816.816,0,0,1-.984,1.3h0l-.787-.6a.816.816,0,1,1,.985-1.3Z" transform="translate(-2067.954 -773.121)" fill="#91b3fa"/>
        <path id="Trazado_101812" data-name="Trazado 101812" d="M2316.8,886.891l.82.495.014.008a.819.819,0,0,1-.845,1.4h0l-.847-.512a.818.818,0,0,1,.846-1.4Z" transform="translate(-2084.792 -784.788)" fill="#91b3fa"/>
        <path id="Trazado_101813" data-name="Trazado 101813" d="M2339.932,899.214l.875.379.019.008a.821.821,0,0,1-.652,1.507h0l-.912-.4a.821.821,0,0,1,.654-1.506Z" transform="translate(-2102.863 -794.418)" fill="#91b3fa"/>
        <path id="Trazado_101814" data-name="Trazado 101814" d="M2364.58,908.03l.921.232.023.006a.824.824,0,0,1-.4,1.6h0l-.967-.244a.823.823,0,0,1,.4-1.6Z" transform="translate(-2122.138 -801.314)" fill="#91b3fa"/>
        <path id="Trazado_101815" data-name="Trazado 101815" d="M2390.345,912.555l.947.066.024,0a.826.826,0,1,1-.115,1.648h0l-1-.07a.826.826,0,1,1,.116-1.647Z" transform="translate(-2142.299 -804.856)" fill="#91b3fa"/>
        <path id="Trazado_101816" data-name="Trazado 101816" d="M2416.3,910.995l.893-.214.054-.013a.828.828,0,1,1,.385,1.611h0l-1,.239a.828.828,0,0,1-.384-1.61Z" transform="translate(-2162.67 -803.452)" fill="#91b3fa"/>
        <path id="Trazado_101817" data-name="Trazado 101817" d="M2440.225,899.866l.765-.527.037-.025a.831.831,0,1,1,.943,1.368h0l-.84.578a.83.83,0,0,1-.941-1.368Z" transform="translate(-2181.516 -794.441)" fill="#91b3fa"/>
        <path id="Trazado_101818" data-name="Trazado 101818" d="M2459.646,881.8l.588-.731.022-.028a.833.833,0,0,1,1.3,1.045h0l-.634.786a.833.833,0,0,1-1.3-1.046Z" transform="translate(-2196.778 -780.091)" fill="#91b3fa"/>
        <path id="Trazado_101819" data-name="Trazado 101819" d="M2473.829,859.451l.4-.854.014-.03a.836.836,0,1,1,1.516.7h0l-.423.913a.836.836,0,0,1-1.516-.7Z" transform="translate(-2207.907 -762.466)" fill="#91b3fa"/>
        <path id="Trazado_101820" data-name="Trazado 101820" d="M2482.418,834.576l.18-.921.007-.035a.829.829,0,0,1,1.627.314l-.189.992a.831.831,0,0,1-1.633-.311v0Z" transform="translate(-2214.645 -742.906)" fill="#91b3fa"/>
        <path id="Trazado_101821" data-name="Trazado 101821" d="M2484.378,808.6l-.043-.953v-.019a.814.814,0,0,1,1.627-.078l.05.992a.816.816,0,1,1-1.631.082V808.6Z" transform="translate(-2216.153 -722.539)" fill="#91b3fa"/>
        <path id="Trazado_101822" data-name="Trazado 101822" d="M2481.652,782.655l-.139-.954v-.01a.78.78,0,0,1,1.542-.235l.155.971a.786.786,0,0,1-1.553.247v-.006Z" transform="translate(-2213.951 -702.318)" fill="#91b3fa"/>
        <path id="Trazado_101823" data-name="Trazado 101823" d="M2476.962,757.017l-.194-.947v-.007a.732.732,0,0,1,1.429-.312l.221.955a.744.744,0,1,1-1.45.337l0-.015Z" transform="translate(-2210.252 -682.383)" fill="#91b3fa"/>
        <path id="Trazado_101824" data-name="Trazado 101824" d="M2470.925,731.733l-.245-.937v-.006a.656.656,0,0,1,1.265-.348l.272.942a.669.669,0,1,1-1.285.372l0-.014Z" transform="translate(-2205.509 -662.758)" fill="#91b3fa"/>
        <path id="Trazado_101825" data-name="Trazado 101825" d="M2463.525,706.819l-.3-.922,0-.006a.581.581,0,0,1,1.1-.37l.324.925a.593.593,0,0,1-1.12.393l0-.012Z" transform="translate(-2199.704 -643.429)" fill="#91b3fa"/>
        <path id="Trazado_101826" data-name="Trazado 101826" d="M2454.708,682.581l-.355-.9,0-.007a.468.468,0,0,1,.862-.362l.4.9a.488.488,0,1,1-.891.4.168.168,0,0,1-.007-.017Z" transform="translate(-2192.792 -624.675)" fill="#91b3fa"/>
        <path id="Trazado_101827" data-name="Trazado 101827" d="M2443.51,659.505l-.471-.837-.007-.012a.332.332,0,0,1,.569-.341l.531.833a.359.359,0,0,1-.605.387l-.01-.016Z" transform="translate(-2183.976 -606.874)" fill="#91b3fa"/>
      </g>
      <g id="Grupo_55557" data-name="Grupo 55557" transform="translate(323.2 16.396)">
        <path id="Trazado_101828" data-name="Trazado 101828" d="M2417.073,609.825l-4.458,7.185-2.949-6.109Z" transform="translate(-2387.324 -585.651)" fill="#7d97f4"/>
        <path id="Trazado_101829" data-name="Trazado 101829" d="M2308.905,500.8l8.842,29.06a2.14,2.14,0,0,0,2.747,1.4l28.843-9.976a.858.858,0,0,0,.082-1.588Z" transform="translate(-2308.905 -500.802)" fill="#91b3fa"/>
        <path id="Trazado_101830" data-name="Trazado 101830" d="M2338.652,524.975,2308.9,500.8l25.1,25.8-1.152,2.045Z" transform="translate(-2308.905 -500.802)" fill="#7d97f4"/>
        <path id="Trazado_101831" data-name="Trazado 101831" d="M2409.625,618.09l2.958,4.619-.194-5.561Z" transform="translate(-2387.293 -591.351)" fill="#7d97f4"/>
      </g>
      <g id="Grupo_55558" data-name="Grupo 55558" transform="translate(15.468 71.753)">
        <path id="Trazado_101832" data-name="Trazado 101832" d="M948.49,782.47l.815,5.985,3.7-3.125Z" transform="translate(-942.406 -775.372)" fill="#7d97f4"/>
        <path id="Trazado_101833" data-name="Trazado 101833" d="M953.577,750.459l-14.232,16.376a1.529,1.529,0,0,1-2.2.112l-15.9-14.909a.613.613,0,0,1,.409-1.06Z" transform="translate(-921.049 -750.459)" fill="#91b3fa"/>
        <path id="Trazado_101834" data-name="Trazado 101834" d="M948.5,757.557l26.442-7.1-23.883,9.512.155,1.669Z" transform="translate(-942.413 -750.459)" fill="#7d97f4"/>
        <path id="Trazado_101835" data-name="Trazado 101835" d="M955.439,794.779l-3.275,2.15,1.747-3.57Z" transform="translate(-945.265 -783.847)" fill="#7d97f4"/>
      </g>
    </g>
  </g>
</svg>
