<svg xmlns="http://www.w3.org/2000/svg" xmlns:xlink="http://www.w3.org/1999/xlink" width="500" height="330.442" viewBox="0 0 500 330.442">
  <defs>
    <linearGradient id="linear-gradient" y1="0.5" x2="1" y2="0.5" gradientUnits="objectBoundingBox">
      <stop offset="0" stop-color="#dae3fe"/>
      <stop offset="1" stop-color="#e9effd"/>
    </linearGradient>
    <linearGradient id="linear-gradient-5" x1="0.691" y1="0.011" x2="-0.252" y2="3.129" gradientUnits="objectBoundingBox">
      <stop offset="0" stop-color="#09005d"/>
      <stop offset="1" stop-color="#1a0f91"/>
    </linearGradient>
    <linearGradient id="linear-gradient-6" x1="0.51" y1="-6.767" x2="0.499" y2="1.455" xlink:href="#linear-gradient-5"/>
    <linearGradient id="linear-gradient-22" x1="12.061" y1="21.079" x2="9.147" y2="24.635" xlink:href="#linear-gradient-5"/>
    <linearGradient id="linear-gradient-23" x1="-4.734" y1="123.76" x2="-5.812" y2="130.123" xlink:href="#linear-gradient-5"/>
    <linearGradient id="linear-gradient-24" x1="-2.704" y1="125.065" x2="-3.149" y2="131.277" xlink:href="#linear-gradient-5"/>
    <linearGradient id="linear-gradient-25" x1="130.739" y1="0.5" x2="131.739" y2="0.5" gradientUnits="objectBoundingBox">
      <stop offset="0" stop-color="#4042e2"/>
      <stop offset="1" stop-color="#4f52ff"/>
    </linearGradient>
    <linearGradient id="linear-gradient-26" x1="134.502" y1="0.5" x2="135.503" y2="0.5" xlink:href="#linear-gradient-5"/>
    <linearGradient id="linear-gradient-27" x1="462.243" y1="0.5" x2="463.243" y2="0.5" gradientUnits="objectBoundingBox">
      <stop offset="0" stop-color="#ff928e"/>
      <stop offset="1" stop-color="#feb3b1"/>
    </linearGradient>
    <linearGradient id="linear-gradient-28" x1="329.148" y1="0.5" x2="330.148" y2="0.5" xlink:href="#linear-gradient-25"/>
    <linearGradient id="linear-gradient-29" x1="224.577" y1="0.5" x2="225.577" y2="0.5" xlink:href="#linear-gradient-5"/>
    <linearGradient id="linear-gradient-30" x1="376.311" y1="0.5" x2="377.311" y2="0.5" xlink:href="#linear-gradient-27"/>
    <linearGradient id="linear-gradient-31" x1="1.233" y1="-1.326" x2="0.569" y2="0.334" xlink:href="#linear-gradient-25"/>
    <linearGradient id="linear-gradient-32" x1="-0.825" y1="-17.576" x2="0.293" y2="-2.32" xlink:href="#linear-gradient-5"/>
    <linearGradient id="linear-gradient-33" x1="0.23" y1="-0.241" x2="0.898" y2="1.483" gradientUnits="objectBoundingBox">
      <stop offset="0" stop-color="#ff928e"/>
      <stop offset="0.105" stop-color="#ff9592"/>
      <stop offset="1" stop-color="#feb3b1"/>
    </linearGradient>
    <linearGradient id="linear-gradient-34" x1="26.665" y1="0.5" x2="27.665" y2="0.5" xlink:href="#linear-gradient-5"/>
    <linearGradient id="linear-gradient-35" x1="31.019" y1="0.5" x2="32.019" y2="0.5" gradientUnits="objectBoundingBox">
      <stop offset="0" stop-color="#b37cff"/>
      <stop offset="1" stop-color="#f895e7"/>
    </linearGradient>
    <linearGradient id="linear-gradient-36" x1="27.877" y1="0.5" x2="28.877" y2="0.5" xlink:href="#linear-gradient-5"/>
    <linearGradient id="linear-gradient-37" x1="184.084" y1="-1.222" x2="182.391" y2="3.818" xlink:href="#linear-gradient-27"/>
    <linearGradient id="linear-gradient-38" x1="402.242" y1="0.5" x2="403.242" y2="0.5" xlink:href="#linear-gradient-27"/>
    <linearGradient id="linear-gradient-39" x1="83.247" y1="74.372" x2="84.032" y2="73.078" xlink:href="#linear-gradient-27"/>
    <linearGradient id="linear-gradient-40" x1="92.388" y1="0.154" x2="93.117" y2="1.105" xlink:href="#linear-gradient-5"/>
    <linearGradient id="linear-gradient-41" x1="336.448" y1="240.944" x2="339.659" y2="236.723" xlink:href="#linear-gradient-27"/>
    <linearGradient id="linear-gradient-42" x1="0.819" y1="-1.661" x2="0.593" y2="-0.128" xlink:href="#linear-gradient-5"/>
    <linearGradient id="linear-gradient-43" x1="0" y1="0.5" x2="1" y2="0.5" xlink:href="#linear-gradient-25"/>
    <linearGradient id="linear-gradient-53" x1="3.321" y1="-4.2" x2="0.92" y2="0.049" xlink:href="#linear-gradient-5"/>
    <linearGradient id="linear-gradient-54" x1="3.782" y1="-4.048" x2="0.486" y2="0.219" xlink:href="#linear-gradient-5"/>
    <linearGradient id="linear-gradient-55" x1="3.597" y1="-3.808" x2="0.301" y2="0.459" xlink:href="#linear-gradient-5"/>
    <linearGradient id="linear-gradient-56" x1="3.272" y1="-3.511" x2="0.323" y2="0.756" xlink:href="#linear-gradient-5"/>
    <linearGradient id="linear-gradient-57" x1="2.697" y1="-3.144" x2="0.198" y2="1.001" xlink:href="#linear-gradient-5"/>
    <linearGradient id="linear-gradient-58" x1="2.432" y1="-3.019" x2="-0.113" y2="1.248" xlink:href="#linear-gradient-5"/>
    <linearGradient id="linear-gradient-59" x1="3.525" y1="-2.739" x2="-0.461" y2="1.529" xlink:href="#linear-gradient-5"/>
    <linearGradient id="linear-gradient-60" x1="2.386" y1="-2.518" x2="-0.439" y2="1.75" xlink:href="#linear-gradient-5"/>
    <linearGradient id="linear-gradient-61" x1="-0.183" y1="-0.178" x2="1.099" y2="0.971" xlink:href="#linear-gradient-27"/>
    <linearGradient id="linear-gradient-62" x1="47.577" y1="5.607" x2="48.341" y2="4.248" xlink:href="#linear-gradient-27"/>
    <linearGradient id="linear-gradient-63" x1="123.005" y1="-5.594" x2="121.802" y2="0.571" xlink:href="#linear-gradient-5"/>
    <linearGradient id="linear-gradient-64" x1="88.119" y1="-14.746" x2="87.26" y2="-0.838" xlink:href="#linear-gradient-5"/>
    <linearGradient id="linear-gradient-65" x1="81.845" y1="5.836" x2="83.163" y2="4.383" xlink:href="#linear-gradient-27"/>
    <linearGradient id="linear-gradient-66" x1="140.883" y1="0.5" x2="141.883" y2="0.5" gradientUnits="objectBoundingBox">
      <stop offset="0" stop-color="#f9b776"/>
      <stop offset="1" stop-color="#f47960"/>
    </linearGradient>
    <linearGradient id="linear-gradient-67" x1="77.258" y1="0.479" x2="81.239" y2="0.754" xlink:href="#linear-gradient-27"/>
    <linearGradient id="linear-gradient-68" x1="40.313" y1="0.426" x2="39.591" y2="1.36" xlink:href="#linear-gradient-5"/>
    <linearGradient id="linear-gradient-69" x1="39.501" y1="-6.768" x2="40.229" y2="-5.719" xlink:href="#linear-gradient-27"/>
  </defs>
  <g id="Grupo_55528" data-name="Grupo 55528" transform="translate(-191.534 -134)">
    <path id="Trazado_101473" data-name="Trazado 101473" d="M319.531,446.633s-44.385-5.906-65.461-1.294-73.282-20.407-55.979-59.677,36.893-63.6,14.258-85.078-29.753-62.369-6.415-85.351,30.363.664,48.956-7.8-5.017-52.614,47.509-65.091,91.75,18.793,115.632,14.535S480.225,132.945,506,134.044s22.576,39.525,56.775,37.285,61.045-6.11,83.2,26.6,16.827,74.2-4.3,90.595-17,38.444,21.944,39.709,34.558,47,2.779,80.757-59.042,34.135-90.785,36.348S319.531,446.633,319.531,446.633Z" transform="translate(0 0)" fill="#f1eaff"/>
    <g id="Grupo_55493" data-name="Grupo 55493" transform="translate(206.412 267.981)">
      <path id="Trazado_101474" data-name="Trazado 101474" d="M372.518,887.738H261.75a6.4,6.4,0,0,1-6.4-6.4v-165.9a6.4,6.4,0,0,1,6.378-6.4l111.653-.3a6.4,6.4,0,0,1,6.412,6.43l-.886,166.2A6.4,6.4,0,0,1,372.518,887.738Z" transform="translate(-255.355 -708.744)" fill="#7d97f4"/>
      <path id="Trazado_101475" data-name="Trazado 101475" d="M387.624,743.861l-99.044.61a6.489,6.489,0,0,0-6.449,6.519l.691,148.9a6.489,6.489,0,0,0,6.371,6.458l96.233,1.756a6.489,6.489,0,0,0,6.607-6.4l2.119-151.27A6.489,6.489,0,0,0,387.624,743.861Z" transform="translate(-275.889 -735.674)" fill="#91b3fa"/>
      <rect id="Rectángulo_5317" data-name="Rectángulo 5317" width="80.195" height="4.566" rx="2.283" transform="translate(27.512 14.587)" fill="url(#linear-gradient)"/>
      <path id="Trazado_101476" data-name="Trazado 101476" d="M448.55,809.758h0a1.941,1.941,0,0,1-1.9,1.836l-66.74,1.216a1.941,1.941,0,0,1-1.977-1.941v-.158a1.941,1.941,0,0,1,1.911-1.941l66.739-1.058A1.941,1.941,0,0,1,448.55,809.758Z" transform="translate(-349.357 -784.641)" fill="url(#linear-gradient)"/>
      <path id="Trazado_101477" data-name="Trazado 101477" d="M394.868,983.813,304.6,982.729a5.531,5.531,0,0,1-5.464-5.636l2.322-122.456a5.532,5.532,0,0,1,5.638-5.426l90.111,1.754a5.539,5.539,0,0,1,5.423,5.629h0L400.464,978.38a5.545,5.545,0,0,1-5.53,5.433Zm-90.438-131.73a3.666,3.666,0,0,0-1.131,2.59l-2.323,122.456a3.69,3.69,0,0,0,3.645,3.761l90.268,1.083a3.685,3.685,0,0,0,3.734-3.625l2.166-121.785h0a3.7,3.7,0,0,0-3.618-3.755l-90.111-1.754h-.073A3.666,3.666,0,0,0,304.429,852.083Z" transform="translate(-288.929 -816.466)" fill="url(#linear-gradient)"/>
      <path id="Trazado_101478" data-name="Trazado 101478" d="M309.392,903.615H407.7a.92.92,0,1,0,0-1.841H309.392a.92.92,0,0,0,0,1.841Z" transform="translate(-296.09 -856.776)" fill="url(#linear-gradient)"/>
    </g>
    <g id="Grupo_55498" data-name="Grupo 55498" transform="translate(275.583 183.966)">
      <path id="Trazado_101485" data-name="Trazado 101485" d="M1229.007,1189.612l-6.695,60.045h77.675l-10.117-60.045Z" transform="translate(-1066.073 -993.501)" fill="url(#linear-gradient-5)"/>
      <path id="Trazado_101486" data-name="Trazado 101486" d="M552.083,366.759V531.938a25.058,25.058,0,0,0,24.412,25.051c60.331,1.555,271.342,5.328,328.773,4.481a18.438,18.438,0,0,0,18.152-17.913c1.108-38.373,2.906-130.648-3.75-173.488a18.974,18.974,0,0,0-18.142-16.06c-50.55-1.617-274.235-6.752-331.639-5.463A18.213,18.213,0,0,0,552.083,366.759Z" transform="translate(-552.083 -348.341)" fill="#392a8d"/>
      <path id="Trazado_101488" data-name="Trazado 101488" d="M635.515,410.693V557.987a13.723,13.723,0,0,0,13.617,13.625l304.937,3.714a13.363,13.363,0,0,0,13.654-13.211l.51-145.977a9.765,9.765,0,0,0-9.6-9.732l-312.2-6.217A10.59,10.59,0,0,0,635.515,410.693Z" transform="translate(-616.066 -388.099)" fill="#f1eaff"/>
      <path id="Trazado_101489" data-name="Trazado 101489" d="M946.237,1181.207h-.008l-351.31-5.986a.491.491,0,0,1,.016-.982l351.309,5.986a.491.491,0,0,1-.008.982Z" transform="translate(-584.563 -981.71)" fill="#7d97f4"/>
      <g id="Grupo_55497" data-name="Grupo 55497" transform="translate(185.338 198.515)">
        <path id="Trazado_101490" data-name="Trazado 101490" d="M1351.285,1208.213a4.146,4.146,0,1,1,4.146-4.146A4.151,4.151,0,0,1,1351.285,1208.213Zm0-7.31a3.164,3.164,0,1,0,3.164,3.164A3.168,3.168,0,0,0,1351.285,1200.9Z" transform="translate(-1347.139 -1199.92)" fill="#7d97f4"/>
      </g>
      <path id="Trazado_101491" data-name="Trazado 101491" d="M1237.168,1444.517H1123.486c-3.089,0-5.408-2.2-4.811-4.56l1.459-5.769c.439-1.735,2.347-3.009,4.615-3.079l109.594-3.42c2.369-.074,4.466,1.183,4.982,2.987l2.63,9.189C1242.637,1442.251,1240.307,1444.517,1237.168,1444.517Z" transform="translate(-986.523 -1176.076)" fill="url(#linear-gradient-6)"/>
      <path id="Trazado_101492" data-name="Trazado 101492" d="M1400.528,1446.134a.491.491,0,0,1-.007-.982l4.7-.069a.506.506,0,0,1,.5.484.491.491,0,0,1-.484.5l-4.7.068Z" transform="translate(-1202.367 -1189.417)" fill="#7d97f4"/>
      <path id="Trazado_101493" data-name="Trazado 101493" d="M1135.423,1455.366a.491.491,0,0,1-.485-.568l.67-4.2a4.8,4.8,0,0,1,4.679-4.051l49.811-.729a.491.491,0,1,1,.015.982l-49.811.728a3.82,3.82,0,0,0-3.724,3.223l-.67,4.2A.49.49,0,0,1,1135.423,1455.366Z" transform="translate(-999.061 -1189.985)" fill="#7d97f4"/>
    </g>
    <g id="Grupo_55499" data-name="Grupo 55499" transform="translate(298.469 230.109)">
      <path id="Trazado_101494" data-name="Trazado 101494" d="M775.164,928.794l-117.056,1.392c-4.508.053-8.061,2.972-7.841,6.44l1.949,30.654c.208,3.271,3.712,5.84,7.964,5.84H775.287c4.4,0,7.974-2.749,7.974-6.14V934.934C783.261,931.505,779.615,928.741,775.164,928.794Z" transform="translate(-650.257 -839.624)" fill="#91b3fa" opacity="0.52"/>
      <path id="Trazado_101495" data-name="Trazado 101495" d="M1395.15,892.214l-117.055,1.7a7.719,7.719,0,0,0-7.841,7.88l1.949,37.508a7.782,7.782,0,0,0,7.964,7.146h115.106a7.754,7.754,0,0,0,7.974-7.513V899.727A7.762,7.762,0,0,0,1395.15,892.214Z" transform="translate(-1125.716 -811.572)" fill="#91b3fa" opacity="0.52"/>
      <path id="Trazado_101496" data-name="Trazado 101496" d="M845.837,546.282H665.083A4.937,4.937,0,0,0,660,551.059V597.5a4.937,4.937,0,0,0,5.083,4.777H845.837a4.937,4.937,0,0,0,5.083-4.777V551.059A4.937,4.937,0,0,0,845.837,546.282Z" transform="translate(-657.729 -546.282)" fill="#91b3fa" opacity="0.52"/>
      <path id="Trazado_101497" data-name="Trazado 101497" d="M1761.191,557.04h-72.307a2.488,2.488,0,0,0-.63.06c-6.044,1.585-8.079-3.483-10.429,4.213-.094.309.122.635.122.958v45.985c0,2.638,4.756,4.777,10.623,4.777h72.622c5.867,0,10.623-2.139,10.623-4.777V561.817C1771.814,559.179,1767.058,557.04,1761.191,557.04Z" transform="translate(-1438.266 -554.428)" fill="#91b3fa" opacity="0.52"/>
    </g>
    <g id="Grupo_55500" data-name="Grupo 55500" transform="translate(245.226 357.478)">
      <path id="Trazado_101498" data-name="Trazado 101498" d="M429.139,1181.348H539.906c3.532,0,6.4-2.115,6.4-4.725V1097.61c0-2.6-2.853-4.718-6.378-4.725l-111.653-.221c-3.552-.007-6.432,2.126-6.412,4.75l.886,79.234C422.762,1179.248,425.62,1181.348,429.139,1181.348Z" transform="translate(-421.858 -1092.664)" fill="#7d97f4"/>
      <path id="Trazado_101499" data-name="Trazado 101499" d="M454.9,1118.607l99.044.45c3.58.016,6.466,2.172,6.449,4.816l-.691,66.454c-.017,2.605-2.845,4.724-6.371,4.771l-96.233,1.3c-3.594.048-6.557-2.071-6.607-4.726l-2.119-68.2C448.317,1120.783,451.261,1118.59,454.9,1118.607Z" transform="translate(-442.187 -1112.559)" fill="#91b3fa"/>
      <path id="Trazado_101500" data-name="Trazado 101500" d="M493.652,1140.326v.5c0,.792.869,1.434,1.941,1.434h76.313c1.072,0,1.941-.642,1.941-1.434v-.5c0-.792-.869-1.434-1.941-1.434H495.593C494.521,1138.892,493.652,1139.534,493.652,1140.326Z" transform="translate(-476.916 -1128.115)" fill="url(#linear-gradient)"/>
      <path id="Trazado_101501" data-name="Trazado 101501" d="M530.167,1167.29h0a1.773,1.773,0,0,0,1.9,1.356l66.739.9c1.086.015,1.977-.632,1.977-1.434v-.117c0-.783-.851-1.422-1.911-1.434l-66.739-.781C531.011,1165.765,530.107,1166.46,530.167,1167.29Z" transform="translate(-504.917 -1148.734)" fill="url(#linear-gradient)"/>
      <path id="Trazado_101502" data-name="Trazado 101502" d="M470.107,1247.551l-2.166-46.419c0-.007,0-.014,0-.021a3.76,3.76,0,0,1,1.107-2.692,6.108,6.108,0,0,1,4.321-1.717l90.111-1.3h.1c3,0,5.469,1.885,5.528,4.217l2.324,46.937a3.758,3.758,0,0,1-1.113,2.7,6.115,6.115,0,0,1-4.354,1.71l-90.268.8h-.066C472.586,1251.775,470.163,1249.92,470.107,1247.551Zm93.4-50.3-90.111,1.3a4.329,4.329,0,0,0-3.021,1.152,1.945,1.945,0,0,0-.593,1.363l2.166,46.429c.032,1.334,1.717,2.448,3.691,2.448h.047l90.268-.8a4.336,4.336,0,0,0,3.047-1.149,1.933,1.933,0,0,0,.6-1.356l-2.324-46.937c-.034-1.337-1.716-2.445-3.69-2.445Zm-94.649,3.842h0Z" transform="translate(-457.197 -1171.455)" fill="url(#linear-gradient)"/>
      <path id="Trazado_101503" data-name="Trazado 101503" d="M473.879,1236.08h98.309a.92.92,0,1,0,0-1.84H473.879a.92.92,0,1,0,0,1.84Z" transform="translate(-461.047 -1201.236)" fill="url(#linear-gradient)"/>
    </g>
    <g id="Grupo_55504" data-name="Grupo 55504" transform="translate(522.34 253.692)">
      <path id="Trazado_101508" data-name="Trazado 101508" d="M1624.656,746.864l107.559.888a11.143,11.143,0,0,1,11.041,10.668l6.652,156.006a8.218,8.218,0,0,1-8.129,8.567l-123.295,1.223a7.8,7.8,0,0,1-7.877-7.864l1.3-156.945A12.649,12.649,0,0,1,1624.656,746.864Z" transform="translate(-1610.607 -723.689)" fill="#392a8d"/>
      <path id="Trazado_101509" data-name="Trazado 101509" d="M1648.915,1398.26h0l-13.792-.292a8.564,8.564,0,0,1-8.35-8.6l.172-20.827a.351.351,0,0,1,.354-.348.356.356,0,0,1,.348.354l-.172,20.826a7.859,7.859,0,0,0,7.663,7.892l13.792.292a.351.351,0,0,1-.014.7Z" transform="translate(-1623.003 -1200.178)" fill="#fff" opacity="0.7"/>
      <path id="Trazado_101510" data-name="Trazado 101510" d="M1628.085,1330.127a.351.351,0,0,1-.345-.354l.028-3.373a.352.352,0,0,1,.354-.349h0a.352.352,0,0,1,.346.354l-.028,3.373a.351.351,0,0,1-.354.349Z" transform="translate(-1623.746 -1167.86)" fill="#fff" opacity="0.7"/>
      <g id="Grupo_55502" data-name="Grupo 55502" transform="translate(9.802 21.876)">
        <path id="Trazado_101511" data-name="Trazado 101511" d="M1657.243,741.329c14.672,2.113,65.13,8.691,106.916,5.83a3.4,3.4,0,0,1,3.632,3.234l7.031,156.7a3.91,3.91,0,0,1-3.707,4.081c-17.572.894-89.937,4.315-115.715,1.4a3.1,3.1,0,0,1-2.746-3.088l.391-164.531A3.674,3.674,0,0,1,1657.243,741.329Z" transform="translate(-1652.655 -741.291)" fill="#7d97f4"/>
        <path id="Trazado_101512" data-name="Trazado 101512" d="M1664.415,758.819c14.119,2.034,62.677,8.364,102.89,5.61a3.27,3.27,0,0,1,3.5,3.113l6.766,150.8a3.762,3.762,0,0,1-3.567,3.927c-16.91.861-86.551,4.153-111.357,1.347a2.981,2.981,0,0,1-2.643-2.972l.376-158.336A3.536,3.536,0,0,1,1664.415,758.819Z" transform="translate(-1658.288 -754.705)" fill="#bdd0fb"/>
        <path id="Trazado_101513" data-name="Trazado 101513" d="M1812.192,827.763a.864.864,0,0,0,.879-.923l-.018-.308a1.023,1.023,0,0,0-.986-.946l-91.53-1.478c-.513-.009-.674.315-.358.719l1.139,1.455a2.195,2.195,0,0,0,1.507.742Z" transform="translate(-1704.314 -804.802)" fill="url(#linear-gradient)"/>
        <path id="Trazado_101514" data-name="Trazado 101514" d="M1720.323,849.952c-.513-.008-.674.315-.358.719l1.139,1.455a2.194,2.194,0,0,0,1.507.742l89.366.738a.863.863,0,0,0,.878-.923l-.017-.308a1.023,1.023,0,0,0-.986-.946Z" transform="translate(-1704.15 -824.621)" fill="url(#linear-gradient)"/>
        <path id="Trazado_101515" data-name="Trazado 101515" d="M1732.6,1030.731h-.033l-12.1.176a3.282,3.282,0,0,1-3.416-2.712l-1.309-10.129a2.234,2.234,0,0,1,.488-1.694,2.685,2.685,0,0,1,1.849-.969h0c1.019-.094,2.422-.248,3.966-.417,3.362-.368,7.172-.786,9.413-.868l.049,0a3.405,3.405,0,0,1,3.425,2.311c.688,2.32.739,6.735.732,11.44A3.021,3.021,0,0,1,1732.6,1030.731Zm-14.434-14.343a1.692,1.692,0,0,0-1.169.6,1.254,1.254,0,0,0-.279.95l1.309,10.129a2.3,2.3,0,0,0,2.422,1.851l12.1-.176h.024a2.034,2.034,0,0,0,2.1-1.875c.006-4.629-.042-8.966-.692-11.159a2.445,2.445,0,0,0-2.491-1.6c-2.206.081-6.163.514-9.342.862-1.55.17-2.959.324-3.983.419Z" transform="translate(-1701.014 -950.518)" fill="#fff"/>
        <path id="Trazado_101516" data-name="Trazado 101516" d="M1726.878,1024.717c2.538-.235,8.05-.929,10.67-1.025a2.343,2.343,0,0,1,2.384,1.563c.551,1.858.574,5.587.569,9.03a2.014,2.014,0,0,1-2.084,1.893l-9.673.141a2.235,2.235,0,0,1-2.333-1.823l-1.046-8.094A1.571,1.571,0,0,1,1726.878,1024.717Z" transform="translate(-1708.407 -957.859)" fill="url(#linear-gradient)"/>
        <path id="Trazado_101517" data-name="Trazado 101517" d="M1830.017,1039.023a.664.664,0,0,0-.673.9l1.222,4.218a1.28,1.28,0,0,0,1.192.873l61.057-1.473a.911.911,0,0,0,.89-.954l-.122-2.649a.988.988,0,0,0-.975-.931Z" transform="translate(-1788.128 -969.602)" fill="url(#linear-gradient)"/>
        <path id="Trazado_101518" data-name="Trazado 101518" d="M1731.244,1005.449h0a1.858,1.858,0,0,1,2.579.635l2.49,4.221a.6.6,0,0,0,1.064-.072l5.6-13.323a.661.661,0,0,1,1.27.255,26.028,26.028,0,0,1-7.135,18.293s-3.583-1.294-6.594-7.5A1.949,1.949,0,0,1,1731.244,1005.449Z" transform="translate(-1712.219 -937.011)" fill="#392a8d"/>
        <path id="Trazado_101519" data-name="Trazado 101519" d="M1734.61,914.119h-.033l-12.1.176a3.282,3.282,0,0,1-3.416-2.712l-1.309-10.129a2.235,2.235,0,0,1,.488-1.694,2.685,2.685,0,0,1,1.849-.969h0c1.019-.094,2.422-.248,3.966-.417,3.362-.368,7.171-.786,9.413-.868l.049,0a3.4,3.4,0,0,1,3.426,2.311c.688,2.32.739,6.735.732,11.441A3.021,3.021,0,0,1,1734.61,914.119Zm-14.434-14.343a1.693,1.693,0,0,0-1.169.6,1.256,1.256,0,0,0-.279.95l1.309,10.128a2.3,2.3,0,0,0,2.422,1.851l12.1-.175h.024a2.034,2.034,0,0,0,2.1-1.875c.006-4.629-.042-8.966-.692-11.159a2.445,2.445,0,0,0-2.491-1.6c-2.206.081-6.163.514-9.342.862-1.55.17-2.959.324-3.982.419Z" transform="translate(-1702.559 -861.09)" fill="#fff"/>
        <path id="Trazado_101520" data-name="Trazado 101520" d="M1728.892,908.105c2.538-.235,8.05-.929,10.67-1.025a2.344,2.344,0,0,1,2.384,1.563c.551,1.858.574,5.587.569,9.03a2.014,2.014,0,0,1-2.084,1.893l-9.673.141a2.235,2.235,0,0,1-2.333-1.823l-1.046-8.094A1.571,1.571,0,0,1,1728.892,908.105Z" transform="translate(-1709.951 -868.431)" fill="url(#linear-gradient)"/>
        <path id="Trazado_101521" data-name="Trazado 101521" d="M1832.031,922.41a.664.664,0,0,0-.673.9l1.222,4.218a1.28,1.28,0,0,0,1.192.873l61.057-1.473a.911.911,0,0,0,.889-.954l-.122-2.649a.989.989,0,0,0-.975-.931Z" transform="translate(-1789.673 -880.173)" fill="url(#linear-gradient)"/>
        <path id="Trazado_101522" data-name="Trazado 101522" d="M1733.258,888.836h0a1.858,1.858,0,0,1,2.579.635l2.49,4.221a.6.6,0,0,0,1.064-.072l5.6-13.323a.661.661,0,0,1,1.271.255,26.028,26.028,0,0,1-7.135,18.293s-3.583-1.294-6.593-7.5A1.949,1.949,0,0,1,1733.258,888.836Z" transform="translate(-1713.764 -847.582)" fill="#392a8d"/>
        <path id="Trazado_101523" data-name="Trazado 101523" d="M1735.28,1142h-.033l-12.1.176a3.282,3.282,0,0,1-3.416-2.712l-1.309-10.128a2.236,2.236,0,0,1,.488-1.695,2.683,2.683,0,0,1,1.849-.969h0c1.019-.094,2.422-.248,3.966-.417,3.361-.368,7.171-.786,9.413-.868h.049a3.4,3.4,0,0,1,3.425,2.312c.688,2.319.739,6.735.732,11.44A3.021,3.021,0,0,1,1735.28,1142Zm-14.434-14.343a1.691,1.691,0,0,0-1.17.6,1.255,1.255,0,0,0-.279.95l1.309,10.128a2.3,2.3,0,0,0,2.422,1.851l12.1-.176h.024a2.034,2.034,0,0,0,2.1-1.875c.006-4.629-.042-8.966-.692-11.158a2.46,2.46,0,0,0-2.492-1.6c-2.206.081-6.163.514-9.342.862-1.55.17-2.959.324-3.982.419Z" transform="translate(-1703.073 -1035.844)" fill="#fff"/>
        <path id="Trazado_101524" data-name="Trazado 101524" d="M1729.562,1135.982c2.538-.235,8.05-.929,10.67-1.025a2.344,2.344,0,0,1,2.384,1.563c.551,1.858.574,5.587.569,9.03a2.014,2.014,0,0,1-2.084,1.893l-9.673.141a2.235,2.235,0,0,1-2.333-1.823l-1.046-8.093A1.571,1.571,0,0,1,1729.562,1135.982Z" transform="translate(-1710.465 -1043.186)" fill="#d8ffff"/>
        <path id="Trazado_101525" data-name="Trazado 101525" d="M1832.7,1150.287a.665.665,0,0,0-.673.9l1.222,4.218a1.279,1.279,0,0,0,1.192.873l61.057-1.472a.911.911,0,0,0,.89-.954l-.122-2.649a.989.989,0,0,0-.976-.931Z" transform="translate(-1790.187 -1054.929)" fill="url(#linear-gradient)"/>
        <path id="Trazado_101526" data-name="Trazado 101526" d="M1733.927,1116.713h0a1.858,1.858,0,0,1,2.579.635l2.49,4.221a.6.6,0,0,0,1.064-.072l5.6-13.323a.661.661,0,0,1,1.27.255,26.029,26.029,0,0,1-7.135,18.293s-3.583-1.294-6.594-7.5A1.948,1.948,0,0,1,1733.927,1116.713Z" transform="translate(-1714.277 -1022.337)" fill="#392a8d"/>
        <path id="Trazado_101527" data-name="Trazado 101527" d="M1733,1248.957h-.032l-12.1.175a3.281,3.281,0,0,1-3.416-2.712l-1.309-10.128a2.236,2.236,0,0,1,.487-1.694,2.688,2.688,0,0,1,1.849-.969h0c1.019-.094,2.42-.248,3.962-.416,3.2-.35,7.175-.786,9.418-.868a3.452,3.452,0,0,1,3.474,2.309c.688,2.32.739,6.735.732,11.44A3.022,3.022,0,0,1,1733,1248.957Zm-14.433-14.344a1.694,1.694,0,0,0-1.17.6,1.257,1.257,0,0,0-.279.95l1.309,10.128a2.3,2.3,0,0,0,2.422,1.851l12.1-.175a2.08,2.08,0,0,0,2.121-1.876c.006-4.629-.042-8.965-.692-11.159a2.474,2.474,0,0,0-2.491-1.6c-2.207.08-6.165.514-9.346.862-1.548.169-2.956.324-3.978.418Z" transform="translate(-1701.324 -1117.873)" fill="#fff"/>
        <path id="Trazado_101528" data-name="Trazado 101528" d="M1727.281,1242.939c2.538-.235,8.05-.929,10.67-1.025a2.343,2.343,0,0,1,2.384,1.563c.551,1.858.574,5.587.569,9.03a2.015,2.015,0,0,1-2.084,1.894l-9.673.14a2.235,2.235,0,0,1-2.333-1.823l-1.046-8.094A1.571,1.571,0,0,1,1727.281,1242.939Z" transform="translate(-1708.716 -1125.211)" fill="url(#linear-gradient)"/>
        <path id="Trazado_101529" data-name="Trazado 101529" d="M1830.42,1257.244a.664.664,0,0,0-.673.9l1.222,4.217a1.279,1.279,0,0,0,1.192.873l61.057-1.472a.911.911,0,0,0,.889-.954l-.122-2.649a.989.989,0,0,0-.975-.931Z" transform="translate(-1788.437 -1136.953)" fill="url(#linear-gradient)"/>
        <path id="Trazado_101530" data-name="Trazado 101530" d="M1731.647,1223.67h0a1.858,1.858,0,0,1,2.579.635l2.49,4.221a.6.6,0,0,0,1.063-.072l5.6-13.323a.661.661,0,0,1,1.271.255,26.031,26.031,0,0,1-7.136,18.293s-3.583-1.294-6.594-7.5A1.949,1.949,0,0,1,1731.647,1223.67Z" transform="translate(-1712.529 -1104.361)" fill="#392a8d"/>
        <path id="Trazado_101531" data-name="Trazado 101531" d="M1729.759,1359.283h-.033l-12.1.176a3.281,3.281,0,0,1-3.416-2.712l-1.309-10.128a2.235,2.235,0,0,1,.487-1.694,2.686,2.686,0,0,1,1.85-.969h0c1.019-.094,2.422-.248,3.966-.417,3.361-.368,7.171-.786,9.413-.868a3.443,3.443,0,0,1,3.475,2.309c.688,2.32.739,6.736.732,11.441A3.021,3.021,0,0,1,1729.759,1359.283Zm-14.434-14.343a1.692,1.692,0,0,0-1.17.6,1.255,1.255,0,0,0-.279.95l1.309,10.128a2.3,2.3,0,0,0,2.422,1.851l12.1-.176h.024a2.033,2.033,0,0,0,2.1-1.875c.007-4.629-.042-8.966-.692-11.159a2.49,2.49,0,0,0-2.491-1.6c-2.207.081-6.163.514-9.343.862-1.55.17-2.959.324-3.982.419Z" transform="translate(-1698.839 -1202.481)" fill="#fff"/>
        <path id="Trazado_101532" data-name="Trazado 101532" d="M1724.042,1353.26c2.538-.235,8.05-.929,10.67-1.025a2.343,2.343,0,0,1,2.384,1.563c.551,1.858.574,5.587.569,9.03a2.013,2.013,0,0,1-2.083,1.893l-9.673.141a2.236,2.236,0,0,1-2.333-1.823l-1.046-8.094A1.571,1.571,0,0,1,1724.042,1353.26Z" transform="translate(-1706.232 -1209.814)" fill="url(#linear-gradient)"/>
        <path id="Trazado_101533" data-name="Trazado 101533" d="M1827.181,1367.565a.664.664,0,0,0-.673.9l1.222,4.218a1.279,1.279,0,0,0,1.192.873l61.057-1.473a.91.91,0,0,0,.889-.954l-.121-2.649a.989.989,0,0,0-.975-.931Z" transform="translate(-1785.953 -1221.557)" fill="url(#linear-gradient)"/>
        <path id="Trazado_101534" data-name="Trazado 101534" d="M1728.408,1333.991h0a1.858,1.858,0,0,1,2.579.635l2.49,4.222a.6.6,0,0,0,1.063-.072l5.6-13.323a.661.661,0,0,1,1.271.255,26.031,26.031,0,0,1-7.135,18.293s-3.583-1.294-6.594-7.5A1.95,1.95,0,0,1,1728.408,1333.991Z" transform="translate(-1710.045 -1188.965)" fill="#392a8d"/>
      </g>
      <path id="Trazado_101535" data-name="Trazado 101535" d="M1888,649.862c-3.863-2.735-7.242-2.709-9.625-2.027a4.744,4.744,0,0,0-3.41,4.959l.933,11.2,12.2,1.184S1895.58,655.226,1888,649.862Zm-5.441,8.987a3.043,3.043,0,1,1,3.068-3.018A3.043,3.043,0,0,1,1882.563,658.849Z" transform="translate(-1813.329 -647.45)" fill="url(#linear-gradient-22)"/>
      <g id="Grupo_55503" data-name="Grupo 55503" transform="translate(62.81 1.338)">
        <path id="Trazado_101536" data-name="Trazado 101536" d="M1880.856,663.973a.6.6,0,0,1-.39-.516l-.148-1.784a.6.6,0,0,1,1.2-.1l.149,1.784a.605.605,0,0,1-.815.616Zm-.291-3.5a.6.6,0,0,1-.39-.516l-.113-1.355a4.839,4.839,0,0,1,3.473-5.048,9.434,9.434,0,0,1,4.612-.151.6.6,0,0,1-.253,1.183,8.233,8.233,0,0,0-4.027.131,3.626,3.626,0,0,0-2.6,3.785l.113,1.355a.6.6,0,0,1-.815.616Z" transform="translate(-1880.045 -653.191)" fill="#bdd0fb"/>
      </g>
      <path id="Trazado_101537" data-name="Trazado 101537" d="M1807.319,719.156l.047-5.628a3.435,3.435,0,0,1,3.58-3.4l38.792,1.65a3.34,3.34,0,0,1,3.194,3.165l.28,5.41Z" transform="translate(-1761.463 -695.512)" fill="url(#linear-gradient-23)"/>
      <path id="Trazado_101538" data-name="Trazado 101538" d="M1861.323,717.493a.351.351,0,0,1,.009-.7l1.669.014a.347.347,0,0,1,.348.354.351.351,0,0,1-.354.348l-1.669-.014Z" transform="translate(-1802.613 -700.626)" fill="#bdd0fb"/>
      <path id="Trazado_101539" data-name="Trazado 101539" d="M1814.2,721.744a.6.6,0,0,1-.392-.571l.019-2.277a3.5,3.5,0,0,1,3.529-3.471l6.135.051a.6.6,0,0,1-.01,1.209l-6.135-.051a2.294,2.294,0,0,0-2.31,2.273l-.019,2.277a.6.6,0,0,1-.61.6A.611.611,0,0,1,1814.2,721.744Z" transform="translate(-1766.441 -699.579)" fill="#bdd0fb"/>
      <path id="Trazado_101540" data-name="Trazado 101540" d="M1742.534,739.609l67.854.558a5.016,5.016,0,0,1,4.908,4.2l.055.332a4.307,4.307,0,0,1-4.286,5.007l-69.614-.575a2.8,2.8,0,0,1-2.773-2.958l.175-3.115A3.657,3.657,0,0,1,1742.534,739.609Z" transform="translate(-1708.819 -718.125)" fill="url(#linear-gradient-24)"/>
    </g>
    <g id="Grupo_55515" data-name="Grupo 55515" transform="translate(277.36 314.864)">
      <g id="Grupo_55514" data-name="Grupo 55514" transform="translate(0)">
        <g id="Grupo_55513" data-name="Grupo 55513">
          <g id="Grupo_55510" data-name="Grupo 55510" transform="translate(77.082 22.613)">
            <g id="Grupo_55505" data-name="Grupo 55505" transform="translate(31.498 114.406)">
              <path id="Trazado_101542" data-name="Trazado 101542" d="M1025.919,1536.989c2.653.23,7.257.6,10.886.762a10.483,10.483,0,0,0,4.161-.407c0,.082,0,.158-.007.23a.75.75,0,0,1-.713.709,127.506,127.506,0,0,1-14.254.014.534.534,0,0,1-.435-.8A4.389,4.389,0,0,1,1025.919,1536.989Z" transform="translate(-1025.482 -1527.815)" fill="url(#linear-gradient-25)"/>
              <path id="Trazado_101543" data-name="Trazado 101543" d="M1038.244,1520.129c-3.63-.16-8.234-.532-10.886-.762,2.608-3.2,10.886-5.357,10.886-5.357h2.338a9.8,9.8,0,0,1,1.823,5.711A10.481,10.481,0,0,1,1038.244,1520.129Z" transform="translate(-1026.921 -1510.194)" fill="url(#linear-gradient-26)"/>
              <path id="Trazado_101544" data-name="Trazado 101544" d="M1071.427,1497.637l-.219,4.33a.989.989,0,0,1-.844.93,3.843,3.843,0,0,1-1.756-.146,1.171,1.171,0,0,1-.786-.9l-.756-4.215Z" transform="translate(-1057.371 -1497.637)" fill="url(#linear-gradient-27)"/>
            </g>
            <g id="Grupo_55507" data-name="Grupo 55507" transform="translate(68.07 110.36)">
              <g id="Grupo_55506" data-name="Grupo 55506" transform="translate(1.03 4.018)">
                <path id="Trazado_101545" data-name="Trazado 101545" d="M1202.881,1535.521a2.1,2.1,0,0,0,1.889-1.4l0,.017a1.5,1.5,0,0,1-1.007,1.7,6.579,6.579,0,0,1-2.79.437,2.774,2.774,0,0,1-2.092-.965l-.006-.009A7.022,7.022,0,0,0,1202.881,1535.521Z" transform="translate(-1196.06 -1525.59)" fill="url(#linear-gradient-28)"/>
                <path id="Trazado_101546" data-name="Trazado 101546" d="M1188.183,1497.517h1.928c2.937-.06,4.781,6.135,5.385,8.534a2.1,2.1,0,0,1-1.889,1.4,7.022,7.022,0,0,1-4-.212,18.422,18.422,0,0,1-2.752-6.93A2.433,2.433,0,0,1,1188.183,1497.517Z" transform="translate(-1186.785 -1497.516)" fill="url(#linear-gradient-29)"/>
              </g>
              <path id="Trazado_101547" data-name="Trazado 101547" d="M1186.475,1480.279l1.07,4.259a1.156,1.156,0,0,1-.6,1.31,4.105,4.105,0,0,1-2.217.537.967.967,0,0,1-.788-.644l-1.572-4.48Z" transform="translate(-1182.367 -1480.279)" fill="url(#linear-gradient-30)"/>
            </g>
            <path id="Trazado_101548" data-name="Trazado 101548" d="M1070.063,1286.378c-1.332,1.182-5.665,1.338-5.665,1.338-15.607-37.459-21.991-42.78-21.991-42.78,2.254,14.139.364,45.44.364,45.44-2.575,1.136-5.9,0-5.9,0a241.274,241.274,0,0,0-7.97-59.247c10.548-.237,16.158-3.847,17.99-5.3C1055.687,1240.008,1070.063,1286.378,1070.063,1286.378Z" transform="translate(-996.609 -1174.787)" fill="url(#linear-gradient-31)"/>
            <path id="Trazado_101549" data-name="Trazado 101549" d="M997.652,1040.2c2,9.959,1.281,27.784.811,35.915-.132,2.285,1.463,5.453,2.753,7.615a.677.677,0,0,1-.274.953,47.014,47.014,0,0,1-17.948,4.976,1.209,1.209,0,0,1-1.216-.9c-6.287-23.476-13.59-38.478-13.59-38.478C976.25,1037.4,997.652,1040.2,997.652,1040.2Z" transform="translate(-950.046 -1032.228)" fill="#d7c8f2"/>
            <path id="Trazado_101550" data-name="Trazado 101550" d="M1060.944,1283.641a.5.5,0,0,0,.427-.76,15.68,15.68,0,0,0-6.188-5.372.5.5,0,1,0-.435.9,14.952,14.952,0,0,1,5.769,4.992A.5.5,0,0,0,1060.944,1283.641Z" transform="translate(-1016.211 -1214.38)" fill="url(#linear-gradient-32)"/>
            <g id="Grupo_55508" data-name="Grupo 55508" transform="translate(45.376 7.967)">
              <path id="Trazado_101551" data-name="Trazado 101551" d="M1122.754,1161.374a34.257,34.257,0,0,1-6.327,15.075l-1.441-1.175a44.493,44.493,0,0,0,.718-14.408A17.246,17.246,0,0,1,1122.754,1161.374Z" transform="translate(-1108 -1132.792)" fill="#d7c8f2"/>
              <path id="Trazado_101552" data-name="Trazado 101552" d="M1085.018,1053.328l2.23-12.288s14.9,11.39,12.524,28.583a17.252,17.252,0,0,0-7.05-.507C1092.041,1063.6,1090.006,1057.608,1085.018,1053.328Z" transform="translate(-1085.018 -1041.04)" fill="#d7c8f2"/>
            </g>
            <g id="Grupo_55509" data-name="Grupo 55509" transform="translate(0 18.045)">
              <path id="Trazado_101553" data-name="Trazado 101553" d="M950.229,1084.27l5.751,12.387c-.93,7.478-4.947,10.711-9.279,11.952a26.288,26.288,0,0,0-1.931-8.066C950.3,1094.828,950.229,1084.27,950.229,1084.27Z" transform="translate(-932.088 -1084.27)" fill="#d7c8f2"/>
              <path id="Trazado_101554" data-name="Trazado 101554" d="M903.048,1154.074a26.3,26.3,0,0,1,1.932,8.067c-11.557,4.484-14.614-4.212-14.614-4.212l2.136-.377C897.324,1158.06,900.693,1156.5,903.048,1154.074Z" transform="translate(-890.365 -1137.802)" fill="#d7c8f2"/>
            </g>
            <path id="Trazado_101555" data-name="Trazado 101555" d="M990.918,1009.616l2.777,10.207a1.986,1.986,0,0,0,2.656,1.321,40.343,40.343,0,0,0,4-1.828,2.676,2.676,0,0,0,.944-3.846l-5.773-8.607Z" transform="translate(-967.478 -1006.863)" fill="url(#linear-gradient-33)"/>
          </g>
          <path id="Trazado_101556" data-name="Trazado 101556" d="M861.749,1141.308l71.149,25.9a5.448,5.448,0,0,1,3.1,7.375l-.216.475a5.064,5.064,0,0,1-6.736,2.5l-69.085-31.959Z" transform="translate(-789.964 -1087.354)" fill="url(#linear-gradient-34)"/>
          <ellipse id="Elipse_1393" data-name="Elipse 1393" cx="35.123" cy="34.489" rx="35.123" ry="34.489" transform="translate(3.959 3.888)" opacity="0.2" fill="url(#linear-gradient-35)"/>
          <path id="Trazado_101557" data-name="Trazado 101557" d="M559.7,948.237c0,21.195,17.5,38.377,39.082,38.377s39.082-17.182,39.082-38.377-17.5-38.377-39.082-38.377S559.7,927.042,559.7,948.237Zm5.741,0c0-18.082,14.927-32.74,33.341-32.74s33.341,14.658,33.341,32.74-14.927,32.739-33.341,32.739S565.445,966.318,565.445,948.237Z" transform="translate(-559.704 -909.86)" fill="url(#linear-gradient-36)"/>
          <g id="Grupo_55511" data-name="Grupo 55511" transform="translate(19.424 2.525)">
            <path id="Trazado_101558" data-name="Trazado 101558" d="M698.8,961.149h-.015a.113.113,0,0,1-.1-.127c.115-.9.2-1.814.24-2.723a.106.106,0,0,1,.119-.107.113.113,0,0,1,.107.118c-.045.915-.127,1.836-.242,2.74A.113.113,0,0,1,698.8,961.149Zm-.268-10.731a.113.113,0,0,1-.111-.093,34.971,34.971,0,0,0-2.086-7.139,35.731,35.731,0,0,0-13.13-16.029,36.865,36.865,0,0,0-40-.67.113.113,0,1,1-.12-.192,37.091,37.091,0,0,1,40.245.674,35.957,35.957,0,0,1,13.213,16.13,35.187,35.187,0,0,1,2.1,7.185.113.113,0,0,1-.091.131Z" transform="translate(-643.03 -920.693)" fill="#91b3fa"/>
          </g>
          <path id="Trazado_101559" data-name="Trazado 101559" d="M1085.825,1220.6l-6.726-.548-2.913,2.685s.689.953,2.844.405a30.834,30.834,0,0,1,5.106-.682s2.974,1.341,3.01-1.168Z" transform="translate(-955.787 -1147.743)" fill="url(#linear-gradient-37)"/>
          <path id="Trazado_101560" data-name="Trazado 101560" d="M879.113,1160.682c-.582.455-2.574-.494-3.794-1.15a1.4,1.4,0,0,1-.678-1.658c.294-.925.783-2.12,1.385-2.271C877.025,1155.354,881.51,1158.81,879.113,1160.682Z" transform="translate(-801.174 -1098.308)" fill="url(#linear-gradient-38)"/>
          <path id="Trazado_101561" data-name="Trazado 101561" d="M1140.689,1255.839a.113.113,0,0,1-.037-.22c2.071-.716,3.156-1.885,3.226-3.473a3.858,3.858,0,0,0-2.521-3.712l-8.543-3.331a.113.113,0,0,1,.082-.211l8.543,3.331a4.082,4.082,0,0,1,2.665,3.932c-.073,1.69-1.21,2.927-3.377,3.677A.118.118,0,0,1,1140.689,1255.839Z" transform="translate(-999.159 -1166.786)" fill="#91b3fa"/>
          <path id="Trazado_101562" data-name="Trazado 101562" d="M1117.92,1239.287a.109.109,0,0,1-.041-.008l-1.107-.432a.113.113,0,1,1,.082-.211l1.107.432a.113.113,0,0,1-.041.218Z" transform="translate(-986.856 -1161.988)" fill="#91b3fa"/>
          <g id="Grupo_55512" data-name="Grupo 55512" transform="translate(96.944 9.579)">
            <path id="Trazado_101563" data-name="Trazado 101563" d="M979.8,975.685s-2.3,5.279-2.453,8.05-.751,4.569,2.453,5.127a6.811,6.811,0,0,0,7.365-3.8s2.291-4.253,1.777-5.995S979.8,975.685,979.8,975.685Z" transform="translate(-976.821 -969.919)" fill="url(#linear-gradient-39)"/>
            <path id="Trazado_101564" data-name="Trazado 101564" d="M984.819,964.111h-.4s1.669-3.423.2-4.025-7.275-1.786-8.528-3.847a3.833,3.833,0,0,1,1.481-5.272.216.216,0,0,1,.275.1l.133.253a.218.218,0,0,0,.4-.041h0a.217.217,0,0,1,.39-.06c.384.616,1.422,1.618,4.208,2.133,3.953.73,6.567,2.33,6.631,5.062a.218.218,0,0,0,.337.178c.292-.178.759-.261,1.383.264,1.086.913.641,3.28-1.738,5.228a.216.216,0,0,0,.01.349c.431.281,1.074.949-.592,1.84a4.441,4.441,0,0,1-3.094.715.218.218,0,0,1-.165-.225l.15-2.421a.218.218,0,0,0-.217-.231Z" transform="translate(-975.571 -950.95)" fill="url(#linear-gradient-40)"/>
            <path id="Trazado_101565" data-name="Trazado 101565" d="M1014.816,1001.045s.877-3.372,2.389-2.427-.785,3.778-2,3.9Z" transform="translate(-1005.667 -987.378)" fill="url(#linear-gradient-41)"/>
          </g>
        </g>
      </g>
      <path id="Trazado_101566" data-name="Trazado 101566" d="M631.3,1014.247l13.3,10.351,25.53-20.926,6.587,7.521L644.6,1044.8l-20.579-22.541Z" transform="translate(-609.027 -981.803)" fill="aqua"/>
    </g>
    <path id="Trazado_101567" data-name="Trazado 101567" d="M1622.962,432.739c-17.759-.476-105.605-3.276-123.635-3.851-1.779-.057-3.237,2.553-3.237,5.792v14.97c0,3.2,1.425,5.792,3.183,5.792h123.641c1.758,0,3.182-2.593,3.182-5.792V438.531C1626.1,435.365,1624.7,432.786,1622.962,432.739Z" transform="translate(-1000.446 -226.145)" fill="url(#linear-gradient-42)"/>
    <g id="Grupo_55516" data-name="Grupo 55516" transform="translate(499.635 205.768)">
      <path id="Trazado_101568" data-name="Trazado 101568" d="M1518.525,461.785l4.589-2.4a1.225,1.225,0,0,1,1.139,0l4.582,2.418a1.224,1.224,0,0,0,1.778-1.287l-.868-5.107a1.224,1.224,0,0,1,.354-1.083l3.715-3.61a1.224,1.224,0,0,0-.675-2.089l-5.125-.753a1.224,1.224,0,0,1-.92-.671l-2.286-4.649a1.224,1.224,0,0,0-2.2,0l-2.3,4.642a1.224,1.224,0,0,1-.923.668l-5.127.737a1.224,1.224,0,0,0-.682,2.087l3.7,3.622a1.224,1.224,0,0,1,.35,1.084l-.884,5.1A1.224,1.224,0,0,0,1518.525,461.785Z" transform="translate(-1513.21 -441.867)" fill="aqua"/>
    </g>
    <g id="Grupo_55517" data-name="Grupo 55517" transform="translate(523.313 206.444)">
      <path id="Trazado_101569" data-name="Trazado 101569" d="M1620.1,464.683l4.589-2.4a1.223,1.223,0,0,1,1.139,0l4.581,2.417a1.224,1.224,0,0,0,1.778-1.287l-.868-5.107a1.225,1.225,0,0,1,.353-1.083l3.715-3.61a1.224,1.224,0,0,0-.676-2.089l-5.125-.753a1.224,1.224,0,0,1-.921-.671l-2.286-4.649a1.224,1.224,0,0,0-2.2,0l-2.3,4.642a1.224,1.224,0,0,1-.923.668l-5.128.737a1.224,1.224,0,0,0-.682,2.087l3.7,3.622a1.224,1.224,0,0,1,.351,1.084l-.883,5.1A1.224,1.224,0,0,0,1620.1,464.683Z" transform="translate(-1614.781 -444.765)" fill="aqua"/>
    </g>
    <g id="Grupo_55518" data-name="Grupo 55518" transform="translate(547.197 206.577)">
      <path id="Trazado_101570" data-name="Trazado 101570" d="M1722.554,465.253l4.589-2.4a1.224,1.224,0,0,1,1.139,0l4.582,2.418a1.224,1.224,0,0,0,1.778-1.288l-.868-5.107a1.224,1.224,0,0,1,.353-1.083l3.715-3.61a1.224,1.224,0,0,0-.676-2.089l-5.125-.753a1.224,1.224,0,0,1-.921-.671l-2.286-4.649a1.224,1.224,0,0,0-2.2,0l-2.3,4.642a1.224,1.224,0,0,1-.923.668l-5.128.737a1.224,1.224,0,0,0-.682,2.087l3.7,3.621a1.225,1.225,0,0,1,.35,1.084l-.884,5.1A1.224,1.224,0,0,0,1722.554,465.253Z" transform="translate(-1717.24 -445.336)" fill="aqua"/>
    </g>
    <g id="Grupo_55520" data-name="Grupo 55520" transform="translate(599.533 341.257)">
      <path id="Trazado_101572" data-name="Trazado 101572" d="M1943.214,1146.267a1.427,1.427,0,0,0,1.442-1.09l22.777-120.569a1.331,1.331,0,0,0-1.2-1.507,1.456,1.456,0,0,0-1.687,1.072l-22.777,120.569a1.331,1.331,0,0,0,1.2,1.507A1.691,1.691,0,0,0,1943.214,1146.267Z" transform="translate(-1941.748 -1023.083)" fill="url(#linear-gradient-43)"/>
      <path id="Trazado_101573" data-name="Trazado 101573" d="M2184.519,1151.423a1.6,1.6,0,0,0,.291-.026,1.321,1.321,0,0,0,1.146-1.541l-26.85-119a1.464,1.464,0,0,0-1.725-1.024,1.32,1.32,0,0,0-1.146,1.54l26.85,119A1.435,1.435,0,0,0,2184.519,1151.423Z" transform="translate(-2106.213 -1028.239)" fill="url(#linear-gradient-43)"/>
      <path id="Trazado_101574" data-name="Trazado 101574" d="M2017.773,1148.838H2056.7a1.316,1.316,0,1,0,0-2.616h-38.923a1.316,1.316,0,1,0,0,2.616Z" transform="translate(-1998.928 -1117.517)" fill="url(#linear-gradient-43)"/>
      <path id="Trazado_101575" data-name="Trazado 101575" d="M2020.975,1148.838h37.51a1.312,1.312,0,1,0,0-2.616h-37.51a1.312,1.312,0,1,0,0,2.616Z" transform="translate(-2001.424 -1117.517)" fill="url(#linear-gradient-43)"/>
      <path id="Trazado_101576" data-name="Trazado 101576" d="M2017.773,1242.356H2056.7a1.316,1.316,0,1,0,0-2.616h-38.923a1.316,1.316,0,1,0,0,2.616Z" transform="translate(-1998.928 -1189.234)" fill="url(#linear-gradient-43)"/>
      <path id="Trazado_101577" data-name="Trazado 101577" d="M2002.612,1242.356H2049.8a1.316,1.316,0,1,0,0-2.616h-47.188a1.316,1.316,0,1,0,0,2.616Z" transform="translate(-1987.301 -1189.234)" fill="url(#linear-gradient-43)"/>
      <path id="Trazado_101578" data-name="Trazado 101578" d="M2017.773,1335.875H2056.7a1.316,1.316,0,1,0,0-2.616h-38.923a1.316,1.316,0,1,0,0,2.616Z" transform="translate(-1998.928 -1260.953)" fill="url(#linear-gradient-43)"/>
      <path id="Trazado_101579" data-name="Trazado 101579" d="M1983.277,1335.875h56.484a1.316,1.316,0,1,0,0-2.616h-56.484a1.316,1.316,0,1,0,0,2.616Z" transform="translate(-1972.473 -1260.953)" fill="url(#linear-gradient-43)"/>
      <path id="Trazado_101580" data-name="Trazado 101580" d="M2017.773,1429.394h52.984a1.316,1.316,0,1,0,0-2.616h-52.984a1.316,1.316,0,1,0,0,2.616Z" transform="translate(-1998.928 -1332.671)" fill="url(#linear-gradient-43)"/>
      <path id="Trazado_101581" data-name="Trazado 101581" d="M1967.637,1429.394h64.671a1.316,1.316,0,1,0,0-2.616h-64.671a1.316,1.316,0,1,0,0,2.616Z" transform="translate(-1960.479 -1332.671)" fill="url(#linear-gradient-43)"/>
    </g>
    <g id="Grupo_55521" data-name="Grupo 55521" transform="translate(313.916 243.124)">
      <path id="Trazado_101582" data-name="Trazado 101582" d="M732.911,632.873l-1.677-7.366h-7.605l-1.677,7.366h-5.429l7.226-29.3h7.366l7.246,29.3ZM730.217,620.7l-1.557-6.787q-.14-.618-.629-3.1t-.589-3.324q-.26,1.717-.659,3.783t-2.076,9.432Z" transform="translate(-716.523 -603.23)" fill="url(#linear-gradient-53)"/>
      <path id="Trazado_101583" data-name="Trazado 101583" d="M837.158,613.066q0,4.651-2.346,7.136t-6.777,2.485h-1.357v10.58h-5.429V604.083h7.406Q837.158,604.083,837.158,613.066Zm-10.48,4.911h1.038a3.781,3.781,0,0,0,2.975-1.1,7,7,0,0,0,.08-7A3.361,3.361,0,0,0,828,608.774h-1.318Z" transform="translate(-796.836 -603.624)" fill="url(#linear-gradient-54)"/>
      <path id="Trazado_101584" data-name="Trazado 101584" d="M921.161,613.066q0,4.651-2.345,7.136t-6.777,2.485h-1.357v10.58h-5.429V604.083h7.406Q921.161,604.083,921.161,613.066Zm-10.48,4.911h1.038a3.781,3.781,0,0,0,2.975-1.1,7,7,0,0,0,.08-7A3.362,3.362,0,0,0,912,608.774h-1.317Z" transform="translate(-861.257 -603.624)" fill="url(#linear-gradient-55)"/>
      <path id="Trazado_101585" data-name="Trazado 101585" d="M994.686,621.909v11.358h-5.43V604.083h7.106q4.511,0,6.657,2.136t2.146,6.527q0,5.529-3.733,7.725l5.609,12.8h-5.809l-4.611-11.358Zm0-4.671h1.4a3.263,3.263,0,0,0,2.755-1.088,5.263,5.263,0,0,0,.838-3.244,4.6,4.6,0,0,0-.889-3.184,3.594,3.594,0,0,0-2.745-.948h-1.357Z" transform="translate(-925.678 -603.624)" fill="url(#linear-gradient-56)"/>
      <path id="Trazado_101586" data-name="Trazado 101586" d="M1094.067,617.124q0,7.246-2.715,11.139a9.719,9.719,0,0,1-15.55.01q-2.715-3.882-2.715-11.188,0-7.246,2.715-11.109a8.977,8.977,0,0,1,7.825-3.863,8.855,8.855,0,0,1,7.745,3.882Q1094.067,609.878,1094.067,617.124Zm-15.43,0a18.1,18.1,0,0,0,1.258,7.605,3.977,3.977,0,0,0,3.693,2.615q4.911,0,4.911-10.22t-4.87-10.22a4,4,0,0,0-3.733,2.605A18.093,18.093,0,0,0,1078.636,617.124Z" transform="translate(-989.967 -602.113)" fill="url(#linear-gradient-57)"/>
      <path id="Trazado_101587" data-name="Trazado 101587" d="M1185.408,604.083h5.47l-6.867,29.184H1177.1l-6.827-29.184h5.469l3.813,17.826a65.936,65.936,0,0,1,1.018,6.527q.419-3.612,1.058-6.527Z" transform="translate(-1064.501 -603.624)" fill="url(#linear-gradient-58)"/>
      <path id="Trazado_101588" data-name="Trazado 101588" d="M1282.849,633.267h-13.155V604.083h13.155v4.691h-7.725v6.947h7.166v4.711h-7.166v8.084h7.725Z" transform="translate(-1140.742 -603.624)" fill="url(#linear-gradient-59)"/>
      <path id="Trazado_101589" data-name="Trazado 101589" d="M1362.928,618.4q0,7.227-2.945,11.049t-8.474,3.823h-7.146V604.083h7.8a9.354,9.354,0,0,1,7.925,3.763Q1362.928,611.609,1362.928,618.4Zm-5.57.16q0-9.781-5.39-9.781h-2.176v19.742h1.757a4.712,4.712,0,0,0,4.392-2.485Q1357.359,623.546,1357.359,618.555Z" transform="translate(-1198.006 -603.624)" fill="url(#linear-gradient-60)"/>
    </g>
    <g id="Grupo_55527" data-name="Grupo 55527" transform="translate(593.077 199.446)">
      <g id="Grupo_55525" data-name="Grupo 55525">
        <path id="Trazado_101593" data-name="Trazado 101593" d="M1926.522,455.427l8.825-5.511a2.456,2.456,0,0,1,2.281-.17l9.542,4.145a2.458,2.458,0,0,0,3.365-2.849l-2.514-10.095a2.46,2.46,0,0,1,.544-2.222l6.891-7.794a2.458,2.458,0,0,0-1.67-4.08l-10.378-.728a2.458,2.458,0,0,1-1.945-1.2l-5.283-8.962a2.458,2.458,0,0,0-4.4.327l-3.9,9.645a2.458,2.458,0,0,1-1.746,1.478l-10.156,2.255a2.458,2.458,0,0,0-1.048,4.283l7.967,6.689a2.458,2.458,0,0,1,.866,2.117l-.994,10.356A2.458,2.458,0,0,0,1926.522,455.427Z" transform="translate(-1914.054 -414.747)" fill="aqua"/>
      </g>
      <g id="Grupo_55526" data-name="Grupo 55526" transform="translate(1.356 26.435)">
        <path id="Trazado_101594" data-name="Trazado 101594" d="M2040.9,535.647s-14.47,18.527,2.039,37.37l6.207-.578c-.357.033-1.835-3.335-1.982-3.629a64.133,64.133,0,0,1-3.829-9.393,43.332,43.332,0,0,1-2.177-12.393,28.34,28.34,0,0,1,.625-6.46,3.24,3.24,0,0,1,1.92-2.642,6.127,6.127,0,0,0,3.148-2.7,4.75,4.75,0,0,0-2.245-6.53c-.389-.185-3.376-.877-3.376-.365a8.545,8.545,0,0,0,1.217,3.3C2043.348,533.652,2042.558,534.638,2040.9,535.647Z" transform="translate(-2008.188 -528.146)" fill="url(#linear-gradient-61)"/>
        <path id="Trazado_101595" data-name="Trazado 101595" d="M2094.2,933.346s11.724,25.553,17.875,36.137c0,0,1.221,6.659,0,8.754l-1.042.463,4.859-.145s.432-8.958.094-9.458a1.237,1.237,0,0,0-1.011-.468s-2.083-16.507-8.118-20.03l-5.848-20.141Z" transform="translate(-2053.561 -835.139)" fill="url(#linear-gradient-62)"/>
        <path id="Trazado_101596" data-name="Trazado 101596" d="M2157.511,1111.951c-.007.117,3.794.063,5.859.026a1.642,1.642,0,0,0,1.575-1.295l1.56-8.193a1.473,1.473,0,0,0-1.119-1.711l-.871-.2a4.663,4.663,0,0,0-.851,3.307c.391,1.6.739,5.758-.249,6.243a14.416,14.416,0,0,1-3.829.568S2157.576,1110.9,2157.511,1111.951Z" transform="translate(-2102.114 -967.136)" fill="url(#linear-gradient-63)"/>
        <path id="Trazado_101597" data-name="Trazado 101597" d="M2045.815,1135.952a.429.429,0,0,0,.217.8c3.456-.035,11.2-.144,11.888-.43.888-.37-.324-3.562-1.6-4.642l-7.044,2.3Z" transform="translate(-2016.289 -990.989)" fill="url(#linear-gradient-64)"/>
        <path id="Trazado_101598" data-name="Trazado 101598" d="M2037.151,942.438s7.577,36.652,9.719,43.8l-5.07,3.182s2.541-.432,4.425-.569,3.618-2.3,3.618-2.3l-.608-.969s-1.9-36.452-1.437-40.591Z" transform="translate(-2009.812 -845.861)" fill="url(#linear-gradient-65)"/>
        <path id="Trazado_101599" data-name="Trazado 101599" d="M2010.083,693.05c2.9.805,12.742,3.393,18.885,3.287l-3.771,21.28.3,3.471-12.295-.055s-3.461-8.038-6.192-12.046c-.788-1.157-.2-2.538.246-3.865l-.614-.409a1.672,1.672,0,0,1-.663-1.911l2.994-9.161A.914.914,0,0,1,2010.083,693.05Z" transform="translate(-1985.842 -654.583)" fill="#392a8d"/>
        <path id="Trazado_101600" data-name="Trazado 101600" d="M2030.075,804.011l.242,2.1s-3.475,10.406,1.737,34.709c0,0,11.288,3.2,20.565-4.454,0,0-2.617-22.939-3.332-24.007-3.561-5.322-5.932-6.479-5.932-6.479l-.107-2.3S2033.326,805.379,2030.075,804.011Z" transform="translate(-2003.701 -739.376)" fill="#392a8d"/>
        <path id="Trazado_101601" data-name="Trazado 101601" d="M2053.657,674.594c-.043-.057,2.566-7.88,2.566-7.88l3.739.339,1.46,8.875S2055.563,677.111,2053.657,674.594Z" transform="translate(-2022.469 -634.412)" fill="url(#linear-gradient-66)"/>
        <path id="Trazado_101602" data-name="Trazado 101602" d="M2055.287,612.536c-.249.155-7.989,3.354-6.326,11.389a1.507,1.507,0,0,0,.858,1.075,13.11,13.11,0,0,0,6.506,1.077c4.054-.412,6.711-7.487,6.6-9.546S2057.758,611,2055.287,612.536Z" transform="translate(-2018.689 -592.571)" fill="url(#linear-gradient-67)"/>
        <path id="Trazado_101603" data-name="Trazado 101603" d="M2061.52,599.778c-.2.027-4.473,1.514-2.355,4.607s2.911,4.915,1.91,6.273c-.912,1.238-2.934.532-2.757,3.107a1.443,1.443,0,0,1-.615,1.305c-1.9,1.289-6.551,5.257-1.947,10.916a1.441,1.441,0,0,1,.162,1.613c-1.348,2.418-4.18,9.5,6.073,13.432,10.131,3.883,13.79-2.74,14.812-5.387a1.413,1.413,0,0,1,1.4-.894c1.113.052,2.691-.133,2.618-1.621a3.719,3.719,0,0,0-1.275-2.363,1.411,1.411,0,0,1,.272-2.222,2.766,2.766,0,0,0,1.366-1.717c.614-2.275-.611-9.078-7.133-10.231a1.539,1.539,0,0,1-1.193-1.153c0-.008,0-.016,0-.024a1.409,1.409,0,0,1,.524-1.386,3.66,3.66,0,0,0,1.292-4.768,5.342,5.342,0,0,0-4.177-3.16,1.421,1.421,0,0,1-1.164-1.7C2069.788,602.231,2069.385,598.746,2061.52,599.778Z" transform="translate(-2022.566 -582.936)" fill="url(#linear-gradient-68)"/>
        <path id="Trazado_101604" data-name="Trazado 101604" d="M1928.4,540.13s-1.045,19.066,16.313,28.809l-4.179,9.531s-15.716-9.505-15.135-35.431a3.013,3.013,0,0,0-.738-2.03l-3.34-3.875a6,6,0,0,1-1.275-5.37l.44-1.757a.911.911,0,0,1,1.341-.567l.35.2a6.132,6.132,0,0,1,2.518,2.8l1.677,2.646c.613,1.37.756,1.944,2.25,1.815l2.78.031Z" transform="translate(-1919.872 -529.043)" fill="url(#linear-gradient-69)"/>
      </g>
    </g>
    <g id="Grupo_55524" data-name="Grupo 55524" transform="translate(451.902 318.187)">
      <g id="Grupo_55522" data-name="Grupo 55522" transform="translate(19.498 3.764)">
        <path id="Trazado_101590" data-name="Trazado 101590" d="M1074.031,853.383a1.327,1.327,0,0,1-1.271-.6l-1.573-2.457a16.153,16.153,0,0,1-4.052-.635l-2.25,1.861a1.324,1.324,0,0,1-1.537.109l-3.564-2.174a1.325,1.325,0,0,1-.605-1.418l.625-2.85a16.148,16.148,0,0,1-2.419-3.312l-2.9-.275a1.327,1.327,0,0,1-1.164-1.008l-.983-4.059a1.326,1.326,0,0,1,.574-1.429l2.456-1.574a16.211,16.211,0,0,1,.635-4.052l-1.861-2.25a1.327,1.327,0,0,1-.11-1.536l2.175-3.566a1.326,1.326,0,0,1,1.416-.6l2.852.625a16.165,16.165,0,0,1,3.312-2.419l.275-2.9a1.328,1.328,0,0,1,1.007-1.164l4.06-.984a1.323,1.323,0,0,1,1.428.57l1.575,2.46a16.158,16.158,0,0,1,4.052.635l2.25-1.861a1.329,1.329,0,0,1,1.534-.112l3.568,2.177a1.328,1.328,0,0,1,.605,1.414l-.625,2.854a16.162,16.162,0,0,1,2.418,3.312l2.905.275a1.327,1.327,0,0,1,1.164,1.008l.983,4.059a1.326,1.326,0,0,1-.574,1.429l-2.456,1.574a16.209,16.209,0,0,1-.634,4.052l1.861,2.25a1.329,1.329,0,0,1,.11,1.536l-2.175,3.566a1.327,1.327,0,0,1-1.415.605l-2.854-.625a16.193,16.193,0,0,1-3.312,2.419l-.275,2.9a1.329,1.329,0,0,1-1.007,1.164l-4.06.983A1.242,1.242,0,0,1,1074.031,853.383Zm-7.347-6.021.545.179a14.113,14.113,0,0,0,4.522.708l.574,0,1.9,2.961,3.014-.73.331-3.5.512-.259a14.109,14.109,0,0,0,3.7-2.7l.4-.409,3.437.753,1.615-2.648L1084.988,839l.179-.546a14.1,14.1,0,0,0,.708-4.522l0-.574,2.96-1.9-.73-3.014-3.5-.332-.259-.512a14.129,14.129,0,0,0-2.7-3.7l-.409-.4.753-3.437-2.647-1.615-2.711,2.242-.546-.179a14.1,14.1,0,0,0-4.522-.708l-.573,0-1.9-2.961-3.014.73-.331,3.5-.512.259a14.1,14.1,0,0,0-3.7,2.7l-.4.409-3.437-.753-1.615,2.647,2.242,2.711-.179.546a14.1,14.1,0,0,0-.708,4.522l0,.574-2.96,1.9.73,3.014,3.5.331.259.513a14.109,14.109,0,0,0,2.7,3.7l.409.4-.753,3.436,2.647,1.615Zm-3.125,2.584,0,0Zm-2.348-1.434v0Zm-.345-.8h0Zm-2.887-24.47v0Zm14.875,21.8a11.112,11.112,0,1,1,9.84-11.318,1.04,1.04,0,1,1-2.08.052,9.084,9.084,0,0,0-.253-1.908,9.034,9.034,0,1,0-2.448,8.573,1.04,1.04,0,0,1,1.46,1.482,11.1,11.1,0,0,1-5.178,2.876A11.3,11.3,0,0,1,1072.853,845.036Z" transform="translate(-1052.295 -814.668)" fill="#fff"/>
        <path id="Trazado_101591" data-name="Trazado 101591" d="M1120.275,886.817a4.75,4.75,0,1,1,3.648-6.932h0a4.755,4.755,0,0,1-3.648,6.932Zm-.864-7.37a2.669,2.669,0,1,0,2.671,1.408h0a2.673,2.673,0,0,0-2.671-1.408Z" transform="translate(-1100.36 -862.736)" fill="#fff"/>
      </g>
      <g id="Grupo_55523" data-name="Grupo 55523">
        <path id="Trazado_101592" data-name="Trazado 101592" d="M977.137,817.664a.918.918,0,0,1-.337-.023l-1.945-.5a.919.919,0,0,1-.686-.813l-.1-1.257a8.067,8.067,0,0,1-1.4-1.051l-1.231.25a.913.913,0,0,1-.972-.431l-1.021-1.733a.917.917,0,0,1,.094-1.063l.815-.955a8.07,8.07,0,0,1-.242-1.731l-1.049-.694a.921.921,0,0,1-.381-1l.5-1.944a.932.932,0,0,1,.817-.685l1.253-.1a8.062,8.062,0,0,1,1.051-1.4l-.25-1.232a.921.921,0,0,1,.435-.974l1.729-1.019a.92.92,0,0,1,1.065.1l.953.813a8.05,8.05,0,0,1,1.73-.243l.694-1.048a.92.92,0,0,1,1-.382l1.944.5a.916.916,0,0,1,.685.813l.1,1.257a8.063,8.063,0,0,1,1.4,1.051l1.23-.25a.918.918,0,0,1,.977.437l1.017,1.726a.918.918,0,0,1-.09,1.059l-.818.959a8.043,8.043,0,0,1,.242,1.731l1.049.695a.918.918,0,0,1,.381,1l-.5,1.943a.921.921,0,0,1-.814.685l-1.257.1a8.038,8.038,0,0,1-1.051,1.4l.25,1.232a.916.916,0,0,1-.432.972l-1.732,1.02a.917.917,0,0,1-1.065-.1l-.953-.813a8.091,8.091,0,0,1-1.731.243l-.695,1.049A.916.916,0,0,1,977.137,817.664Zm-.642-1.268,0,0Zm5.69-.8,0,0Zm-.738-.061h0Zm-5.757.211,1.057.273.91-1.373.43.01a6.477,6.477,0,0,0,2.091-.293l.411-.128,1.252,1.068.941-.554-.327-1.614.311-.3a6.514,6.514,0,0,0,1.27-1.686l.2-.381,1.642-.13.274-1.058-1.373-.91.009-.43a6.5,6.5,0,0,0-.293-2.09l-.128-.411,1.069-1.252-.554-.941-1.613.328-.3-.311a6.508,6.508,0,0,0-1.687-1.27l-.381-.2-.13-1.641-1.058-.274-.91,1.373-.431-.01a6.526,6.526,0,0,0-2.09.293l-.411.128-1.252-1.068-.941.554.328,1.613-.311.3a6.513,6.513,0,0,0-1.27,1.687l-.2.381-1.642.13-.274,1.058,1.373.909-.01.431a6.5,6.5,0,0,0,.293,2.09l.128.411-1.069,1.252.554.942,1.613-.328.3.311a6.5,6.5,0,0,0,1.686,1.27l.381.2Zm7.183-.55v0Zm-12.142-3.14h0Zm.062-.744,0,0Zm15.472-2.173v0Zm-.6-4.256v0Zm-.335-1.427h0Zm-.684-.3,0,.007Zm.526-.461h0Zm-11.887-1.011h0Zm7.927-1.115h0Zm-1.943-.5h0Zm-5,.534,0,0Zm4.575,13.085a5.625,5.625,0,1,1,4.685-7.357.78.78,0,0,1-1.482.49,4.064,4.064,0,1,0-.292,3.224.78.78,0,1,1,1.37.746,5.644,5.644,0,0,1-4.282,2.9Z" transform="translate(-968.655 -798.52)" fill="#fff"/>
      </g>
    </g>
  </g>
</svg>
