<svg xmlns="http://www.w3.org/2000/svg" width="144" height="151.149" viewBox="0 0 144 151.149">
  <g id="Grupo_56218" data-name="Grupo 56218" transform="translate(-254 -1517.851)">
    <circle id="Elipse_1394" data-name="Elipse 1394" cx="72" cy="72" r="72" transform="translate(254 1525)" fill="#f1eaff"/>
    <g id="Grupo_55681" data-name="Grupo 55681" transform="translate(269.721 1517.852)">
      <g id="Grupo_55669" data-name="Grupo 55669" transform="translate(53.467 8.177)">
        <path id="Trazado_102243" data-name="Trazado 102243" d="M406.947,133.7a6.977,6.977,0,0,1,6.751-1.339,21.328,21.328,0,0,1,5.236,3.916c.691.955.344,2.673.82,3.151s1.73,2.528,1.3,4.152-2.119,3.1-2.25,4.01,0,2.1-.648,2.719-1.6.43-2.036.859-.042,1.194-.517,1.481-1.166,0-1.558.285a2.667,2.667,0,0,0-.737,1.339c-.432-.191-1.124-2.628-2.682-3.151s-2.856,1.956-2.552,2.767c-.692.287-.736-.811-1.126-1a1.924,1.924,0,0,0-1.427.191c-.216-.237.345-1.192,0-1.67s-1.687-.285-2.206-.858-.305-1.528-.737-2.2-2.465-2.483-2.38-4.488a9.644,9.644,0,0,1,1.428-4.724c.822-1.481.606-3.533,1.689-4.488A4.02,4.02,0,0,1,406.947,133.7Z" transform="translate(-395.071 -131.984)" fill="#7f3323"/>
        <path id="Trazado_102244" data-name="Trazado 102244" d="M413.055,218.387h-3.24c-.564,0-1.589-1.027-1.653-2.758a11.627,11.627,0,0,1,.258-2.093,3.235,3.235,0,0,0,2.728,2.306,3.353,3.353,0,0,0,3.584-2.306,5.307,5.307,0,0,0,.1.552C415.251,215.843,414.466,218.387,413.055,218.387Z" transform="translate(-390.752 -87.759)" fill="#404040"/>
        <path id="Trazado_102245" data-name="Trazado 102245" d="M425.581,200.715c-.6-.284,1.539-3.973.9-4.294s-.833.964-.7,1.538-.578.834-.77-.128a16.233,16.233,0,0,1,.64-4.741c.256-.771-1.089-7.5-1.73-8.589a34.71,34.71,0,0,1-1.858-8.78,31.411,31.411,0,0,0-.065-6.023c-.255-1.346-1.343-4.744-1.28-7.178-.706,1.151-1.282,5.893-1.024,7.818a46.426,46.426,0,0,0,1.794,6.92c1.046,3.151,2.25,8.84,2.691,10.447,1.473,5.384-.833,16.729-1.346,19.869a21.3,21.3,0,0,0,.319,8.074c.514,2.949.194,13.3-.443,16.444s-2.762,11.371-2.378,12.716c.342,1.2.3,4.644.527,6.367a3.35,3.35,0,0,1-3.583,2.306,3.239,3.239,0,0,1-2.73-2.306c.5-2.748,1.573-6.934,1.573-8.041,0-1.476-.645-13-.837-14.988s.5-9.252.432-10.855-.25-10.165-1.149-13.689-1.024-11.988-1.024-13.2h-2.053c0,1.215-.128,9.676-1.024,13.2s-1.086,12.087-1.151,13.689.625,8.867.433,10.855-.837,13.512-.837,14.988c0,1.107,1.067,5.293,1.572,8.041a3.235,3.235,0,0,1-2.728,2.306,3.351,3.351,0,0,1-3.584-2.306c.224-1.723.185-5.168.527-6.367.382-1.345-1.735-9.576-2.378-12.716s-.958-13.495-.443-16.444a21.267,21.267,0,0,0,.318-8.074c-.514-3.14-2.818-14.485-1.345-19.869.441-1.607,1.647-7.3,2.691-10.447a46.627,46.627,0,0,0,1.794-6.92c.258-1.925-.319-6.667-1.024-7.818.063,2.434-1.027,5.831-1.28,7.178a31.421,31.421,0,0,0-.065,6.023,34.644,34.644,0,0,1-1.86,8.78c-.64,1.092-1.986,7.818-1.729,8.589a16.34,16.34,0,0,1,.64,4.741c-.191.962-.9.706-.77.128s-.063-1.857-.7-1.538,1.5,4.01.9,4.294c-1.089.514-3.078-3.461-2.435-7.115a10.664,10.664,0,0,0,.384-4.164c-.256-2.116-.065-12.178.449-13.844a68.069,68.069,0,0,0,1.089-8.843c.128-1.732.384-10.7.384-11.729a4.562,4.562,0,0,1,2.242-3.91c1.729-.9,6.411-2.691,7.309-3.075.383-.164.757-1.481,1.007-2.56.143-.612.245-1.146.284-1.349h4.722c.039.2.142.739.285,1.353.25,1.076.623,2.394,1.007,2.557.9.384,5.577,2.178,7.307,3.075a4.562,4.562,0,0,1,2.242,3.91c0,1.026.256,10,.384,11.729a68.048,68.048,0,0,0,1.089,8.843c.514,1.666.7,11.728.449,13.844a10.633,10.633,0,0,0,.384,4.164C428.659,197.255,426.67,201.229,425.581,200.715Z" transform="translate(-396.873 -125.4)" fill="#ffb67f"/>
        <path id="Trazado_102246" data-name="Trazado 102246" d="M421.923,201.709c.514,2.949.194,13.3-.446,16.445s-2.761,11.368-2.378,12.715c-1.5.8-4.209-.569-4.209-1.675,0-1.478-.646-13-.837-14.986s.5-9.254.43-10.855-.248-10.165-1.149-13.691-1.026-11.99-1.026-13.2h-2.051c0,1.214-.128,9.676-1.026,13.2s-1.084,12.088-1.149,13.691.626,8.865.432,10.855-.837,13.509-.837,14.986c0,1.106-2.491,2.522-4.212,1.675.383-1.346-1.734-9.576-2.377-12.715s-.959-13.5-.446-16.445a21.168,21.168,0,0,0,.319-8.072c-.514-3.143-2.819-14.487-1.345-19.869.191-.7.527-2.159.928-3.848,2.7,1.252,18.247,1.226,21.455-.088.41,1.726.754,3.226.948,3.936,1.473,5.383-.831,16.726-1.346,19.869A21.2,21.2,0,0,0,421.923,201.709Z" transform="translate(-395.648 -111.46)" fill="#2f79bb"/>
        <g id="Grupo_55665" data-name="Grupo 55665" transform="translate(7.817 58.372)">
          <path id="Trazado_102247" data-name="Trazado 102247" d="M408.135,173.741c0,1.214-.128,9.678-1.026,13.2s-1.086,12.09-1.147,13.692.625,8.864.43,10.853-1.285,12.841-1.285,14.319c0,.975-1.485,2.855-3.122,2.551a1.587,1.587,0,0,1-.045.39c1.721.847,4.212-.569,4.212-1.675,0-1.478.646-13,.837-14.986s-.5-9.254-.432-10.855.25-10.165,1.149-13.691,1.026-11.99,1.026-13.2h1.459C410.188,174.073,408.135,173.741,408.135,173.741Z" transform="translate(-401.941 -167.712)" fill="#225887"/>
          <path id="Trazado_102248" data-name="Trazado 102248" d="M416,193.637c.515-3.143,2.819-14.487,1.346-19.869-.194-.709-.538-2.21-.948-3.936-.122.051-.265.1-.423.145.332,1.407.606,2.588.773,3.193,1.474,5.383-.831,16.726-1.346,19.869a21.2,21.2,0,0,0,.321,8.072c.514,2.949.194,13.3-.446,16.444s-2.289,10.481-2.838,11.768c-.443,1.036-2.054,1.055-2.969.389.623.956,2.754,1.834,4.027,1.158-.383-1.346,1.735-9.576,2.378-12.715s.959-13.5.446-16.445A21.2,21.2,0,0,1,416,193.637Z" transform="translate(-397.86 -169.832)" fill="#225887"/>
        </g>
        <path id="Trazado_102249" data-name="Trazado 102249" d="M420.877,179.993c-3.834,1.1-17.051,1.127-20.538.093,1.471-3.038,4.2-10.372,4.656-28.7a6.9,6.9,0,0,0,3.336,1.089,29.29,29.29,0,0,0,4.594,0,6.9,6.9,0,0,0,3.338-1.089C416.717,169.526,419.393,176.9,420.877,179.993Z" transform="translate(-394.994 -121.462)" fill="#e6e6e6"/>
        <path id="Trazado_102250" data-name="Trazado 102250" d="M417.3,181.645c-.81-1.67-4.891-7.454-5.463-30.258a6.89,6.89,0,0,1-3.336,1.089,54.2,54.2,0,0,1,.844,12.551c-.29,4.857-.416,15.435-.555,16.88,2.451.935,7.644.358,8.635.259C417.381,182,417.341,181.827,417.3,181.645Z" transform="translate(-390.568 -121.462)" opacity="0.2"/>
        <path id="Trazado_102251" data-name="Trazado 102251" d="M421.756,183.8c-.009-3.785-.21-8.887-.566-10.048a71.216,71.216,0,0,1-1.08-8.791c-.125-1.7-.384-10.634-.384-11.711a4.814,4.814,0,0,0-2.369-4.115c-.973-.509-2.966-1.084-4.6-1.74a11.214,11.214,0,0,1-4.423,5.174,40.979,40.979,0,0,1,1.374,10.14c.034,1.164.034,2.312-.006,3.393-.009.293-.021.578-.04.859-.288,4.855-.415,15.435-.554,16.879,2.451.936,7.643.361,8.634.259-.052-.214-.1-.452-.163-.692s-1.656-6.3-1.656-6.3c-.164-.581-.278-1.2-.44-1.684-.31-.936-.768-2.421-1.149-3.893a26.285,26.285,0,0,1-.635-2.986,22.578,22.578,0,0,1,.5-6.161c.039-.16.074-.315.113-.458a31.9,31.9,0,0,0,.915,4.661c.143.56.261,1.049.329,1.386.251,1.326-.065,4.752.059,5.959.288,2.8,2.006,8.958,2.7,11.664.088.352.162.643.211.864.009.046.022.1.034.15a7.23,7.23,0,0,0,3.162.057c0-.022,0-.043,0-.062.008-.253.014-.532.023-.834.011-.511.014-1.083.014-1.7C421.759,183.979,421.759,183.892,421.756,183.8Z" transform="translate(-390.657 -123.627)" fill="#9fa24b"/>
        <path id="Trazado_102252" data-name="Trazado 102252" d="M417.258,170.7c-1.36.139-6.043.592-8.372-.262-.017.419-.032.731-.049.907,2.451.935,7.642.359,8.634.259-.052-.217-.106-.452-.163-.694C417.29,170.843,417.275,170.771,417.258,170.7Z" transform="translate(-390.385 -111.131)" fill="#858839"/>
        <path id="Trazado_102253" data-name="Trazado 102253" d="M418.236,172.335c-.008.3-.014.58-.023.834l0,.062a7.214,7.214,0,0,1-3.163-.059c-.012-.051-.022-.1-.034-.147-.048-.221-.122-.514-.21-.864a1.626,1.626,0,0,0,.244.086A8.309,8.309,0,0,0,418.236,172.335Z" transform="translate(-387.149 -110.196)" fill="#858839"/>
        <path id="Trazado_102254" data-name="Trazado 102254" d="M403.35,218.387h3.24c.564,0,1.589-1.027,1.653-2.758a11.633,11.633,0,0,0-.258-2.093,3.233,3.233,0,0,1-2.728,2.306,3.351,3.351,0,0,1-3.583-2.306c-.029.213-.062.4-.1.552C401.154,215.843,401.939,218.387,403.35,218.387Z" transform="translate(-394.384 -87.759)" fill="#404040"/>
        <path id="Trazado_102255" data-name="Trazado 102255" d="M410.587,145.479a4.835,4.835,0,0,1-5.292,0c.143-.612.245-1.146.284-1.349H410.3C410.34,144.33,410.443,144.865,410.587,145.479Z" transform="translate(-392.306 -125.4)" opacity="0.2"/>
        <path id="Trazado_102256" data-name="Trazado 102256" d="M414.533,138.3c-.077-1.926-3.314-4.084-5.549-4.084s-5.474,2.158-5.551,4.084-.221,7.258.615,9.482a5.285,5.285,0,0,0,9.867,0C414.754,145.561,414.61,140.231,414.533,138.3Z" transform="translate(-393.348 -130.772)" fill="#ffb67f"/>
        <path id="Trazado_102257" data-name="Trazado 102257" d="M408.659,152.476a6.9,6.9,0,0,1-3.338-1.089c-.571,22.846-4.668,28.611-5.463,30.267-.045.177-.083.347-.123.512.993.1,6.183.676,8.635-.259-.139-1.445-.267-12.024-.554-16.88A54.037,54.037,0,0,1,408.659,152.476Z" transform="translate(-395.321 -121.462)" opacity="0.2"/>
        <path id="Trazado_102258" data-name="Trazado 102258" d="M409.042,166.236c-.045-1.118-.045-2.315-.009-3.526a41,41,0,0,1,1.373-10.14,11.206,11.206,0,0,1-4.423-5.174c-1.632.655-3.624,1.231-4.6,1.74a4.812,4.812,0,0,0-2.367,4.115c0,1.077-.259,10.011-.384,11.711a71.545,71.545,0,0,1-1.08,8.791c-.358,1.161-.56,6.263-.569,10.048,0,.093,0,.18,0,.27,0,.614,0,1.186.014,1.7.009.3.015.581.025.834,0,.018,0,.04,0,.062a7.234,7.234,0,0,0,3.162-.057c.011-.054.02-.1.032-.15.049-.221.123-.512.213-.864.694-2.707,2.412-8.86,2.7-11.664.126-1.208-.19-4.633.062-5.959.065-.338.185-.827.329-1.386.225-.913.5-2.008.7-3.109.094-.523.171-1.047.214-1.552a22.513,22.513,0,0,1,.609,6.619c-.043.332-.108.7-.188,1.1v.006a57.706,57.706,0,0,1-1.6,5.773c-.16.484-.275,1.1-.436,1.684,0,0-1.6,6.057-1.658,6.3s-.111.478-.164.692c.99.1,6.185.677,8.635-.259-.139-1.444-.265-12.024-.555-16.879C409.062,166.726,409.051,166.481,409.042,166.236Z" transform="translate(-396.814 -123.627)" fill="#9fa24b"/>
        <path id="Trazado_102259" data-name="Trazado 102259" d="M399.8,170.7c1.359.139,6.043.592,8.368-.262.017.419.035.731.052.907-2.452.935-7.643.359-8.635.259.052-.217.106-.452.164-.694C399.765,170.843,399.782,170.771,399.8,170.7Z" transform="translate(-395.402 -111.131)" fill="#858839"/>
        <path id="Trazado_102260" data-name="Trazado 102260" d="M396.991,172.335c.006.3.014.58.023.834,0,.018,0,.04,0,.062a7.215,7.215,0,0,0,3.163-.059c.011-.051.02-.1.032-.147.048-.221.122-.514.21-.864a1.662,1.662,0,0,1-.242.086A8.317,8.317,0,0,1,396.991,172.335Z" transform="translate(-396.809 -110.196)" fill="#858839"/>
        <g id="Grupo_55666" data-name="Grupo 55666" transform="translate(13.949 17.076)">
          <path id="Trazado_102261" data-name="Trazado 102261" d="M408.068,143.345a.682.682,0,0,1-.984,0c-.241,0-.79.071-1.117.052.043.267.671.615.907.723a1.7,1.7,0,0,0,1.407,0c.234-.108.861-.457.905-.723C408.859,143.416,408.31,143.345,408.068,143.345Z" transform="translate(-405.89 -142.9)" fill="#f9437d"/>
          <path id="Trazado_102262" data-name="Trazado 102262" d="M408.581,143.213a1.106,1.106,0,0,0-.637-.151,3.345,3.345,0,0,1-.339.106,3.142,3.142,0,0,1-.341-.106,1.1,1.1,0,0,0-.635.151,2.648,2.648,0,0,1-.711.318,1.424,1.424,0,0,0,.521.128c.174,0,.423-.128.568-.12s.413.173.6.173.443-.165.6-.173.393.12.568.12a1.416,1.416,0,0,0,.521-.128A2.579,2.579,0,0,1,408.581,143.213Z" transform="translate(-405.917 -143.056)" fill="#e33364"/>
        </g>
        <path id="Trazado_102263" data-name="Trazado 102263" d="M407.4,142.213a2.062,2.062,0,0,0-1.012-.057,1.934,1.934,0,0,1,.947.327.109.109,0,0,0,.13,0,1.934,1.934,0,0,1,.948-.327A2.068,2.068,0,0,0,407.4,142.213Z" transform="translate(-391.712 -126.488)" fill="#ec8940"/>
        <path id="Trazado_102264" data-name="Trazado 102264" d="M415.651,171.2c-.165-.58-.278-1.2-.438-1.684a47.409,47.409,0,0,1-1.787-6.879,19.336,19.336,0,0,1,.187-4.365,8.222,8.222,0,0,0-.671,4.616c.264,1.977,3.672,12.15,2.861,14.146-.33.816-6.954.807-6.965.907,2.451.935,7.642.359,8.634.259-.052-.217-.106-.452-.163-.694S415.651,171.2,415.651,171.2Z" transform="translate(-390.385 -117.728)" fill="#858839" opacity="0.3"/>
        <path id="Trazado_102265" data-name="Trazado 102265" d="M407.619,139.293c-.048-.177.262-.282.9-.455a3.249,3.249,0,0,1,1.528-.151,1.718,1.718,0,0,1,1.052.557,4.386,4.386,0,0,0-1.368-.3c-.315.046-1.029.2-1.225.244S407.654,139.416,407.619,139.293Z" transform="translate(-391.048 -128.372)" fill="#60100e"/>
        <path id="Trazado_102266" data-name="Trazado 102266" d="M407.628,139.293c.049-.177-.262-.282-.9-.455a3.253,3.253,0,0,0-1.53-.151,1.724,1.724,0,0,0-1.052.557,4.4,4.4,0,0,1,1.37-.3c.315.046,1.027.2,1.225.244S407.594,139.416,407.628,139.293Z" transform="translate(-392.929 -128.372)" fill="#60100e"/>
        <g id="Grupo_55667" data-name="Grupo 55667" transform="translate(16.615 11.33)">
          <path id="Trazado_102267" data-name="Trazado 102267" d="M407.646,140.564a1.856,1.856,0,0,1,1.482-1.147,2.819,2.819,0,0,1,1.482.527,1.9,1.9,0,0,1-1.263,1.012A3.066,3.066,0,0,1,407.646,140.564Z" transform="translate(-407.646 -139.287)" fill="#fff"/>
          <path id="Trazado_102268" data-name="Trazado 102268" d="M409.656,140.185a.777.777,0,1,1-.776-.776A.777.777,0,0,1,409.656,140.185Z" transform="translate(-407.398 -139.287)" fill="#9fa24b"/>
          <path id="Trazado_102269" data-name="Trazado 102269" d="M409.1,140.04a.365.365,0,1,1-.366-.364A.365.365,0,0,1,409.1,140.04Z" transform="translate(-407.253 -139.143)"/>
          <path id="Trazado_102270" data-name="Trazado 102270" d="M408.459,139.818a.114.114,0,1,1,.114.114A.113.113,0,0,1,408.459,139.818Z" transform="translate(-407.205 -139.127)" fill="#fff"/>
          <path id="Trazado_102271" data-name="Trazado 102271" d="M410.61,139.748a3.715,3.715,0,0,1-.75-.275,1.918,1.918,0,0,0-.453-.13.963.963,0,0,0-.251-.009,2.2,2.2,0,0,0-.231.039,1.616,1.616,0,0,0-.82.449,2.426,2.426,0,0,0-.458.785,3.977,3.977,0,0,1,.577-.657,1.683,1.683,0,0,1,.753-.341,1.983,1.983,0,0,1,.207-.032,1.057,1.057,0,0,1,.194.008,2.211,2.211,0,0,1,.4.1,6.081,6.081,0,0,1,.794.356l.032.019.025-.009C410.916,139.936,410.9,139.8,410.61,139.748Z" transform="translate(-407.646 -139.33)" fill="#261113"/>
        </g>
        <g id="Grupo_55668" data-name="Grupo 55668" transform="translate(11.617 11.33)">
          <path id="Trazado_102272" data-name="Trazado 102272" d="M407.516,140.564a1.859,1.859,0,0,0-1.482-1.147,2.819,2.819,0,0,0-1.482.527,1.9,1.9,0,0,0,1.263,1.012A3.068,3.068,0,0,0,407.516,140.564Z" transform="translate(-404.325 -139.287)" fill="#fff"/>
          <path id="Trazado_102273" data-name="Trazado 102273" d="M405.009,140.185a.776.776,0,1,0,.777-.776A.778.778,0,0,0,405.009,140.185Z" transform="translate(-404.078 -139.287)" fill="#9fa24b"/>
          <path id="Trazado_102274" data-name="Trazado 102274" d="M405.276,140.04a.365.365,0,1,0,.366-.364A.365.365,0,0,0,405.276,140.04Z" transform="translate(-403.933 -139.143)"/>
          <ellipse id="Elipse_1398" data-name="Elipse 1398" cx="0.114" cy="0.114" rx="0.114" ry="0.114" transform="translate(1.708 0.577)" fill="#fff"/>
          <path id="Trazado_102275" data-name="Trazado 102275" d="M404.632,139.748a3.753,3.753,0,0,0,.75-.275,1.886,1.886,0,0,1,.452-.13.975.975,0,0,1,.253-.009,2.167,2.167,0,0,1,.23.039,1.621,1.621,0,0,1,.822.449,2.4,2.4,0,0,1,.458.785,4.049,4.049,0,0,0-.577-.657,1.682,1.682,0,0,0-.753-.341,1.95,1.95,0,0,0-.208-.032,1.019,1.019,0,0,0-.191.008,2.195,2.195,0,0,0-.406.1,6.073,6.073,0,0,0-.794.356l-.032.019-.025-.009C404.326,139.936,404.34,139.8,404.632,139.748Z" transform="translate(-404.405 -139.33)" fill="#261113"/>
        </g>
        <path id="Trazado_102276" data-name="Trazado 102276" d="M418.037,167.36a7.817,7.817,0,0,0-4.631-4.832,7.687,7.687,0,0,0-2.8-.481c-1.576,0-2.909-.361-4.018.023a7.268,7.268,0,0,0-4.189,3.41v-.006c.08-.4.145-.768.188-1.1a22.513,22.513,0,0,0-.609-6.619c-.126-.768-.244-1.433-.47-2.679,1.163,2.583,2.694,4.354,3.944,4.354h8.715c2.065,0,3.735-2.38,4.243-4.184a21.221,21.221,0,0,1-.51,2.967,22.581,22.581,0,0,0-.5,6.161A26.3,26.3,0,0,0,418.037,167.36Z" transform="translate(-394.36 -119.462)" fill="#404040" opacity="0.2"/>
        <path id="Trazado_102277" data-name="Trazado 102277" d="M410.641,137.392a9.028,9.028,0,0,0,3.185,3.206c.93.563,1.181,1.866,1.515,2.531,2.287-3.575-.791-8.3-3.745-9.13-2.468-.7-7.193.979-8.4,3.6s-.063,4.409.1,5.531c.874-1.121,1.269-2.09,1.519-2.256a3.651,3.651,0,0,0,.082,1.248,5.3,5.3,0,0,1,2.787-2.662C409.058,139.043,410.307,138.513,410.641,137.392Z" transform="translate(-393.74 -130.977)" fill="#7f3323"/>
      </g>
      <g id="Grupo_55680" data-name="Grupo 55680" transform="translate(20.823 -0.001)">
        <path id="Trazado_102278" data-name="Trazado 102278" d="M404.776,258.985c-.708.566-9.078-1.2-10.068-3.044s-.691-5.025-.41-7.011a26.5,26.5,0,0,0,0-7.5c-.423-2.833-1.558-12.886-1.275-14.584a22.427,22.427,0,0,0,0-8.214c-.709-3.114-.14-9.2-1.3-11.752s-1.388-11.325-1.388-11.325h-1.982s-.225,8.777-1.39,11.325-.592,8.638-1.3,11.752a22.5,22.5,0,0,0,0,8.214c.284,1.7-.848,11.751-1.272,14.584a26.276,26.276,0,0,0,0,7.5c.282,1.986.581,5.171-.413,7.011s-9.359,3.611-10.065,3.044.6-2.568,1.73-3.842,3.651-3.944,3.788-5.927-2.4-13.452-2.83-15.15.568-12.886.709-14.585-.284-5.242-.284-7.082-.426-18.546.568-23.079a103.52,103.52,0,0,0,2.121-14.868c0-2.688-1.84-13.874-1.983-16.282s-1.13-11.046-1.7-12.744c2.975-2.972,8.072-4.533,8.782-4.812.372-.154.671-1.178.845-2.256a10.054,10.054,0,0,0,.145-2.418h7.079a10.131,10.131,0,0,0,.145,2.418c.174,1.078.472,2.1.848,2.256.7.279,5.805,1.84,8.779,4.812-.569,1.7-1.558,10.335-1.7,12.744s-1.983,13.594-1.983,16.282A103.182,103.182,0,0,0,401.1,189.32c.989,4.533.568,21.24.568,23.079s-.426,5.384-.285,7.082,1.134,12.886.706,14.585-2.97,13.165-2.83,15.15,2.657,4.653,3.788,5.927S405.486,258.42,404.776,258.985Z" transform="translate(-369.79 -121.662)" fill="#ffb67f"/>
        <path id="Trazado_102279" data-name="Trazado 102279" d="M393.53,142.091c3.114,2.761,3.327,7.789,3.893,13.876a99.467,99.467,0,0,0,1.629,11.4c.282,1.274-.779,15.574-.992,17.061s.955,6.788.355,9.628c-.515,2.435-1.18,3.256-2.124,3.681s-2.761,0-2.124-.708,1.357-3.752,1.282-5.38-.646-1.63-.93-.709a6.761,6.761,0,0,0-.423,2.762c.14.708-1.2.071-1.063-1.841a15,15,0,0,1,.992-5.026c.566-1.063.564-1.912.211-3.681a100.239,100.239,0,0,1-1.151-11.977,17.1,17.1,0,0,0-.972-5.793c-.426-.919-1.206-6.231-1.488-9.274S390.557,142.162,393.53,142.091Z" transform="translate(-360.666 -118.326)" fill="#ffb67f"/>
        <path id="Trazado_102280" data-name="Trazado 102280" d="M377.175,142.091c-3.115,2.761-3.327,7.789-3.894,13.876a99.842,99.842,0,0,1-1.629,11.4c-.284,1.274.779,15.574.99,17.061s-.953,6.788-.353,9.628c.515,2.435,1.18,3.256,2.125,3.681s2.761,0,2.124-.708-1.36-3.752-1.282-5.38.645-1.63.927-.709a6.769,6.769,0,0,1,.426,2.762c-.142.708,1.2.071,1.061-1.841a14.958,14.958,0,0,0-.992-5.026c-.566-1.063-.566-1.912-.211-3.681a99.912,99.912,0,0,0,1.151-11.977,17.067,17.067,0,0,1,.973-5.793c.424-.919,1.2-6.231,1.487-9.274S380.148,142.162,377.175,142.091Z" transform="translate(-370.932 -118.326)" fill="#ffb67f"/>
        <g id="Grupo_55670" data-name="Grupo 55670" transform="translate(23.616 127.343)">
          <path id="Trazado_102281" data-name="Trazado 102281" d="M400.821,217.614c-.3.646-1.715,1.013-2.99,1.26s-4.2,0-5.227-.811-2.155-1.8-2.966-1.869a6.239,6.239,0,0,1-2.9-1.308c-.035-.423-.56-2.889.211-3.78.463.837,1.346,1.024,1.593.742s.776-1.589,1.164-1.977a3.06,3.06,0,0,1,2.118-.6,2.511,2.511,0,0,1,1.593,1.3,18.372,18.372,0,0,0,2.893,3.322c.882.706,4.027,3.284,4.382,3.564A.61.61,0,0,1,400.821,217.614Z" transform="translate(-386.452 -209.25)" fill="#7f3323"/>
          <path id="Trazado_102282" data-name="Trazado 102282" d="M400.9,217.21c-.176.569-1.518,1.345-2.829,1.487a13.841,13.841,0,0,1-5.086-.634c-.706-.423-2.753-2.053-3.284-2.088s-2.756-.635-3.032-1.058a2.277,2.277,0,0,1,.1-2.013,6.239,6.239,0,0,0,2.9,1.308c.811.069,1.942,1.058,2.966,1.869s3.956,1.058,5.227.811,2.688-.614,2.99-1.26A2.269,2.269,0,0,1,400.9,217.21Z" transform="translate(-386.48 -207.269)" fill="#60100e"/>
        </g>
        <path id="Trazado_102283" data-name="Trazado 102283" d="M388.826,138.358a4.522,4.522,0,0,1-7.369,0,10.054,10.054,0,0,0,.145-2.418h7.079A10.135,10.135,0,0,0,388.826,138.358Z" transform="translate(-365.589 -121.662)" opacity="0.2"/>
        <path id="Trazado_102284" data-name="Trazado 102284" d="M391.3,130.279c-.992-1.7-3.86-2.83-5.379-2.83s-4.391,1.132-5.383,2.83-.282,5.521,0,8.638,3.768,5.235,5.383,5.235,5.1-2.121,5.379-5.235S392.288,131.979,391.3,130.279Z" transform="translate(-366.364 -126.266)" fill="#ffb67f"/>
        <g id="Grupo_55671" data-name="Grupo 55671" transform="translate(0.957 127.343)">
          <path id="Trazado_102285" data-name="Trazado 102285" d="M371.9,217.614c.3.646,1.715,1.013,2.991,1.26s4.2,0,5.228-.811,2.153-1.8,2.964-1.869a6.246,6.246,0,0,0,2.9-1.308c.037-.423.561-2.889-.21-3.78-.464.837-1.346,1.024-1.595.742s-.776-1.589-1.163-1.977a3.064,3.064,0,0,0-2.119-.6,2.515,2.515,0,0,0-1.593,1.3A18.31,18.31,0,0,1,376.4,213.9c-.882.706-4.028,3.284-4.382,3.564A.612.612,0,0,0,371.9,217.614Z" transform="translate(-371.731 -209.25)" fill="#7f3323"/>
          <path id="Trazado_102286" data-name="Trazado 102286" d="M371.9,217.21c.176.569,1.518,1.345,2.827,1.487a13.854,13.854,0,0,0,5.088-.634c.706-.423,2.751-2.053,3.282-2.088s2.758-.635,3.035-1.058a2.277,2.277,0,0,0-.1-2.013,6.246,6.246,0,0,1-2.9,1.308c-.811.069-1.94,1.058-2.964,1.869s-3.957,1.058-5.228.811-2.687-.614-2.991-1.26A2.278,2.278,0,0,0,371.9,217.21Z" transform="translate(-371.789 -207.269)" fill="#60100e"/>
        </g>
        <path id="Trazado_102287" data-name="Trazado 102287" d="M401.164,201.211c.622-5.586.546-28.188-.788-32.366-4.375.037-19.32.037-23.7,0-1.333,4.178-1.408,26.78-.788,32.366.372,3.35-.976,12.591-.62,15.6s1.152,14.809,1.152,16.936c1.419.8,6.126,2.037,8.165-.179-.355-3.37.879-22.519.879-25.534s.709-16.314,1.508-18.885.56-11.447.56-11.447h1.983s-.236,8.876.56,11.447,1.508,15.87,1.508,18.885,1.235,22.164.879,25.534c2.04,2.216,6.746.976,8.165.179,0-2.127.8-13.921,1.154-16.936S400.792,204.561,401.164,201.211Z" transform="translate(-368.975 -103.818)" fill="#132835"/>
        <path id="Trazado_102288" data-name="Trazado 102288" d="M389.095,174.84c.008-.444.015-.709.015-.709h-3.061s.236,8.876-.563,11.447-1.507,15.872-1.507,18.885-.706,21.61-1.772,24.826c-.774,2.343-4.234,2.02-6.211,1.342,0,.094,0,.182,0,.254,1.419.8,6.126,2.037,8.165-.179-.355-3.37.879-22.519.879-25.534s.709-16.314,1.508-18.885.56-11.447.56-11.447Z" transform="translate(-368.55 -100.951)" opacity="0.3"/>
        <path id="Trazado_102289" data-name="Trazado 102289" d="M395.057,201.211c.622-5.586.546-28.188-.788-32.366l-.882.006c1.157,5.568,1.2,26.33.608,31.651-.373,3.35.975,12.591.62,15.6s-.8,14.826-1.879,16.663c-.688,1.177-3.962,1.92-6.263.915,2.093,2.06,6.66.853,8.052.068,0-2.127.8-13.921,1.154-16.936S394.686,204.561,395.057,201.211Z" transform="translate(-362.868 -103.818)" opacity="0.3"/>
        <g id="Grupo_55673" data-name="Grupo 55673" transform="translate(18.37 12.821)">
          <path id="Trazado_102290" data-name="Trazado 102290" d="M383.567,135.538l-.168-.056c-.028-.011-.054-.022-.082-.035s-.062-.014-.073-.071a.193.193,0,0,1,.176-.069.714.714,0,0,1,.18.032.839.839,0,0,1,.3.2.615.615,0,0,0,.27.174.585.585,0,0,0,.275-.174.851.851,0,0,1,.3-.2.69.69,0,0,1,.179-.032.2.2,0,0,1,.176.068c0,.039-.02.039-.031.051a.17.17,0,0,1-.04.022c-.028.014-.056.025-.082.035l-.17.056.163-.071a.708.708,0,0,0,.076-.04.214.214,0,0,0,.054-.042.177.177,0,0,0-.145-.037.757.757,0,0,0-.167.037.874.874,0,0,0-.273.2.627.627,0,0,1-.308.2A.314.314,0,0,1,384,135.7a1.7,1.7,0,0,1-.136-.119.925.925,0,0,0-.275-.2.7.7,0,0,0-.167-.037.184.184,0,0,0-.142.034c0,.008.028.032.051.046s.051.026.077.039Z" transform="translate(-382.988 -134.826)" fill="#d97e3b"/>
          <g id="Grupo_55672" data-name="Grupo 55672">
            <path id="Trazado_102291" data-name="Trazado 102291" d="M384.415,134.995a.41.41,0,0,1,.292.251.3.3,0,0,1-.006.211.342.342,0,0,1-.123.153.529.529,0,0,0,.028-.329A.97.97,0,0,0,384.415,134.995Z" transform="translate(-382.354 -134.995)" fill="#d97e3b"/>
            <path id="Trazado_102292" data-name="Trazado 102292" d="M383.386,134.995a1.071,1.071,0,0,0-.19.287.529.529,0,0,0,.028.329.339.339,0,0,1-.122-.153.293.293,0,0,1-.008-.211A.41.41,0,0,1,383.386,134.995Z" transform="translate(-383.079 -134.995)" fill="#d97e3b"/>
          </g>
        </g>
        <g id="Grupo_55674" data-name="Grupo 55674" transform="translate(20.796 8.937)">
          <path id="Trazado_102293" data-name="Trazado 102293" d="M384.652,133.256a1.509,1.509,0,0,1,1.292-.714,2.139,2.139,0,0,1,1.223.492,1.562,1.562,0,0,1-1.147.782A1.728,1.728,0,0,1,384.652,133.256Z" transform="translate(-384.652 -132.441)" fill="#fff"/>
          <path id="Trazado_102294" data-name="Trazado 102294" d="M386.258,133.153a.618.618,0,1,1-.617-.62A.618.618,0,0,1,386.258,133.153Z" transform="translate(-384.451 -132.446)" fill="#5c9ae1"/>
          <path id="Trazado_102295" data-name="Trazado 102295" d="M385.894,133.058a.348.348,0,1,1-.347-.35A.347.347,0,0,1,385.894,133.058Z" transform="translate(-384.356 -132.351)"/>
          <path id="Trazado_102296" data-name="Trazado 102296" d="M385.584,132.9a.2.2,0,0,1-.2.2.2.2,0,1,1,.2-.2Z" transform="translate(-384.362 -132.357)" fill="#fff" opacity="0.3"/>
          <path id="Trazado_102297" data-name="Trazado 102297" d="M384.652,133.291a1.031,1.031,0,0,1,.466-.569,1.665,1.665,0,0,1,.716-.241,1.584,1.584,0,0,1,.743.145,1.607,1.607,0,0,1,.614.423l.017.019-.011.015a1.289,1.289,0,0,1-.154.185c.035-.072.068-.142.1-.213l0,.035a2.1,2.1,0,0,0-.628-.3,1.777,1.777,0,0,0-.665-.111,2.212,2.212,0,0,0-.663.17A1.291,1.291,0,0,0,384.652,133.291Z" transform="translate(-384.652 -132.477)"/>
        </g>
        <g id="Grupo_55675" data-name="Grupo 55675" transform="translate(15.757 8.937)">
          <path id="Trazado_102298" data-name="Trazado 102298" d="M383.924,133.256a1.507,1.507,0,0,0-1.291-.714,2.134,2.134,0,0,0-1.223.492,1.557,1.557,0,0,0,1.146.782A1.725,1.725,0,0,0,383.924,133.256Z" transform="translate(-381.371 -132.441)" fill="#fff"/>
          <path id="Trazado_102299" data-name="Trazado 102299" d="M381.868,133.153a.618.618,0,1,0,.618-.62A.618.618,0,0,0,381.868,133.153Z" transform="translate(-381.123 -132.446)" fill="#5c9ae1"/>
          <path id="Trazado_102300" data-name="Trazado 102300" d="M382.043,133.058a.349.349,0,1,0,.349-.35A.347.347,0,0,0,382.043,133.058Z" transform="translate(-381.028 -132.351)"/>
          <path id="Trazado_102301" data-name="Trazado 102301" d="M382.248,132.9a.2.2,0,1,0,.2-.2A.2.2,0,0,0,382.248,132.9Z" transform="translate(-380.917 -132.357)" fill="#fff" opacity="0.3"/>
          <path id="Trazado_102302" data-name="Trazado 102302" d="M383.938,133.291a1.031,1.031,0,0,0-.466-.569,1.652,1.652,0,0,0-.716-.241,1.6,1.6,0,0,0-.745.145,1.625,1.625,0,0,0-.612.423l-.014.019.011.015a1.1,1.1,0,0,0,.151.185c-.034-.072-.068-.142-.1-.213l0,.035a2.082,2.082,0,0,1,.628-.3,1.77,1.77,0,0,1,.666-.111,2.2,2.2,0,0,1,.66.17A1.291,1.291,0,0,1,383.938,133.291Z" transform="translate(-381.385 -132.477)"/>
        </g>
        <g id="Grupo_55676" data-name="Grupo 55676" transform="translate(15.23 7.579)">
          <path id="Trazado_102303" data-name="Trazado 102303" d="M384.548,132.37c-.1-.316.062-.389.282-.494a12.762,12.762,0,0,1,1.985-.281,1.545,1.545,0,0,1,.99.774c-.236.014-.563-.177-.918-.211a7.6,7.6,0,0,0-1.874.353A.348.348,0,0,1,384.548,132.37Z" transform="translate(-379.159 -131.596)" fill="#261113"/>
          <path id="Trazado_102304" data-name="Trazado 102304" d="M384.3,132.37c.1-.316-.062-.389-.281-.494a12.792,12.792,0,0,0-1.985-.281c-.355,0-.868.5-.992.774.236.014.563-.177.919-.211a7.585,7.585,0,0,1,1.872.353A.347.347,0,0,0,384.3,132.37Z" transform="translate(-381.043 -131.596)" fill="#261113"/>
        </g>
        <path id="Trazado_102305" data-name="Trazado 102305" d="M408.88,162.793c-.068-1.951-.884-13.186-2.242-16.581a9.367,9.367,0,0,0-2.95-3.251,22.858,22.858,0,0,0-6.448-3.481,12.491,12.491,0,0,0-1.985-.509,4.544,4.544,0,0,1-9.066,0,12.55,12.55,0,0,0-1.986.509,22.9,22.9,0,0,0-6.448,3.481,9.383,9.383,0,0,0-2.95,3.251c-1.359,3.395-2.175,14.63-2.242,16.581s-1.393,7.181-1.393,9.487,1.373,13.566,1.393,15.162c1.356,1.331,3.839,1.064,4.459,0,.267-1.684.976-13.476,1.331-15.25s1.265-8.8,1.451-10.154c.086,2.209.48,5.083.6,7.051.441,7.027-.62,10.514-1.533,15.956a.429.429,0,0,0,.071.031c1.578.7,8.509,1.126,11.778,1.126s10.2-.43,11.777-1.126a.446.446,0,0,0,.073-.031c-.913-5.443-1.976-8.93-1.535-15.956.123-1.968.517-4.843.606-7.051.184,1.359,1.1,8.381,1.45,10.154s1.064,13.566,1.329,15.25c.622,1.064,3.1,1.331,4.459,0,.022-1.6,1.393-12.855,1.393-15.162S408.943,164.744,408.88,162.793Z" transform="translate(-371.168 -120.018)" fill="#dbdbdb"/>
        <path id="Trazado_102306" data-name="Trazado 102306" d="M398.834,161.694c-.148-4.744.279-6.771.1-7.767-1.86,6.578-.606,19.582-1.86,21.3-1.582,2.158-10.48,2.158-10.48,2.158a64.981,64.981,0,0,1-10.355-.686c-.026.091-.049.174-.076.239a.429.429,0,0,0,.071.031c2.511,1.214,11.778,1.126,11.778,1.126s9.266.088,11.777-1.126a.447.447,0,0,0,.073-.031,10.992,10.992,0,0,1-.39-2.367C399.148,171.282,399,166.865,398.834,161.694Z" transform="translate(-368.459 -111.907)" fill="#c4c4c4"/>
        <path id="Trazado_102307" data-name="Trazado 102307" d="M383.846,143.7a18.321,18.321,0,0,1,2.946,3.9,20.767,20.767,0,0,0,3.965-7.485,17.394,17.394,0,0,1-3.06-2.07C388.377,139.631,385.219,143.2,383.846,143.7Z" transform="translate(-364.293 -120.519)" opacity="0.2"/>
        <path id="Trazado_102308" data-name="Trazado 102308" d="M386.276,143.7a18.269,18.269,0,0,0-2.946,3.9,19.112,19.112,0,0,1-3.965-7.485,17.414,17.414,0,0,0,3.061-2.07C381.745,139.631,384.9,143.2,386.276,143.7Z" transform="translate(-366.723 -120.519)" opacity="0.2"/>
        <path id="Trazado_102309" data-name="Trazado 102309" d="M383.847,143.7c.93.887,2.412,1.863,2.944,2.926a24.516,24.516,0,0,0,3.965-6.508,16.276,16.276,0,0,1-3.06-2.07C388.377,139.471,385.218,143.256,383.847,143.7Z" transform="translate(-364.292 -120.519)" fill="#e6e6e6"/>
        <path id="Trazado_102310" data-name="Trazado 102310" d="M386.276,143.7c-.933.887-2.414,1.863-2.946,2.926a24.516,24.516,0,0,1-3.965-6.508,16.3,16.3,0,0,0,3.061-2.07C381.745,139.471,384.9,143.256,386.276,143.7Z" transform="translate(-366.723 -120.519)" fill="#e6e6e6"/>
        <path id="Trazado_102311" data-name="Trazado 102311" d="M380.939,128.9c.191-1.069,1.643-1.183,3.169-1.336s4.278-.8,5.08-.763,1.451-.119,1.911-.116c-.383.382-1.3.5-1.109.688s1.894.962,2.178,1.527c.726,1.453.5,4.419.418,5.156a17.991,17.991,0,0,1-.878,3.1c-.076-1.376-1.451-5.272-1.3-6.035a7.958,7.958,0,0,1-2.94.42c-1.032-.077-4.966.381-6.149-.228a4.124,4.124,0,0,1-.077,2.827,5.63,5.63,0,0,0-.686,3.017,9.492,9.492,0,0,1-.881-3.439,15.429,15.429,0,0,1,.066-3.49C380.012,129.379,380.6,128.82,380.939,128.9Z" transform="translate(-366.593 -126.682)" fill="#261113"/>
        <g id="Grupo_55677" data-name="Grupo 55677" transform="translate(17.459 14.408)">
          <path id="Trazado_102312" data-name="Trazado 102312" d="M382.82,136.436a.521.521,0,0,0,.183.116.84.84,0,0,0,.213.042,1.958,1.958,0,0,0,.435-.023c.073-.011.145-.025.217-.039l.108-.02.055-.008.015,0,.015,0h.034a.55.55,0,0,1,.12.026c.037.014.071.029.1.043a.656.656,0,0,0,.1.028.2.2,0,0,0,.088-.011,1,1,0,0,0,.1-.039.539.539,0,0,1,.119-.037.254.254,0,0,1,.069.006l.056.012.106.026a1.549,1.549,0,0,0,.427.045.83.83,0,0,0,.106-.012c.035-.006.071-.014.106-.022q.106-.028.208-.065a1.706,1.706,0,0,0,.389-.205,1.522,1.522,0,0,1-.37.247,1.661,1.661,0,0,1-.211.082.932.932,0,0,1-.108.029c-.039.008-.076.015-.114.02a1.494,1.494,0,0,1-.453-.032c-.035-.008-.073-.015-.108-.025-.018,0-.034-.009-.052-.012a.129.129,0,0,0-.042,0,.373.373,0,0,0-.091.031c-.035.012-.069.029-.108.042a.4.4,0,0,1-.062.014l-.015,0-.019,0-.034,0a.613.613,0,0,1-.117-.037.767.767,0,0,0-.2-.065.41.41,0,0,0-.1.009l-.108.017q-.111.018-.222.028a1.833,1.833,0,0,1-.45,0,.783.783,0,0,1-.214-.065A.486.486,0,0,1,382.82,136.436Z" transform="translate(-382.309 -135.877)" fill="#d97e3b"/>
          <path id="Trazado_102313" data-name="Trazado 102313" d="M383.3,137.029a2.9,2.9,0,0,0,.4.077,2.467,2.467,0,0,0,.4.017,2.651,2.651,0,0,0,.4-.048,2.342,2.342,0,0,0,.381-.113v0a.03.03,0,0,1,.04.018.026.026,0,0,1-.008.032,1.623,1.623,0,0,1-.25.176,1.869,1.869,0,0,1-.274.133,2.1,2.1,0,0,1-.288.094,1.935,1.935,0,0,1-.3.048,2.374,2.374,0,0,0,.292-.074,2.88,2.88,0,0,0,.278-.108,2.075,2.075,0,0,0,.5-.313l.031.051a1.839,1.839,0,0,1-.392.116,2.137,2.137,0,0,1-.409.042,2.084,2.084,0,0,1-.4-.037A2.023,2.023,0,0,1,383.3,137.029Z" transform="translate(-382.048 -135.518)" fill="#d97e3b"/>
          <path id="Trazado_102314" data-name="Trazado 102314" d="M384.864,136.156a.581.581,0,0,1,.147-.077,1.1,1.1,0,0,1,.159-.043.705.705,0,0,1,.171-.011.31.31,0,0,1,.086.022.147.147,0,0,1,.043.028l.011.009,0,0,0,0,0,0,.012.026a.14.14,0,0,1,0,.1.447.447,0,0,1-.032.079l-.077.145a.734.734,0,0,0-.089.3.581.581,0,0,1,.046-.325c.018-.051.046-.1.068-.148.009-.025.02-.049.028-.071a.1.1,0,0,0,0-.06l-.006-.011,0,0,0,0h0l0-.006-.025-.017a.208.208,0,0,0-.071-.017.586.586,0,0,0-.156,0,1.075,1.075,0,0,0-.157.023A.915.915,0,0,0,384.864,136.156Z" transform="translate(-381.2 -136.024)" fill="#d97e3b"/>
          <path id="Trazado_102315" data-name="Trazado 102315" d="M383.2,136.156c-.122-.014-.244-.025-.366-.031-.062,0-.123-.006-.182,0a.522.522,0,0,0-.088.008l-.014,0h0l0,0h0a.217.217,0,0,0-.006.04,1.4,1.4,0,0,0,0,.179c0,.062.009.122.014.184.012.122.022.244.04.367a1.955,1.955,0,0,1-.088-.361,1.878,1.878,0,0,1-.031-.373.223.223,0,0,1,.009-.052.1.1,0,0,1,.011-.022l0,0,0,0h0l0,0h0l.011-.006.028-.008a.453.453,0,0,1,.1-.008c.062,0,.125.008.187.015A2.066,2.066,0,0,1,383.2,136.156Z" transform="translate(-382.488 -136.005)" fill="#d97e3b"/>
          <path id="Trazado_102316" data-name="Trazado 102316" d="M383.719,136.318a.6.6,0,0,0,.083-.06.518.518,0,0,1,.089-.057.092.092,0,0,1,.031-.006l.018,0,0,0,.006,0,.006.008a.07.07,0,0,1,.008.062.106.106,0,0,1-.071.077.118.118,0,0,0,.046-.083.047.047,0,0,0-.006-.037l0,0h0l0,0,0,0-.02.006a1.013,1.013,0,0,0-.089.048A.228.228,0,0,1,383.719,136.318Z" transform="translate(-381.821 -135.932)" fill="#d97e3b"/>
          <path id="Trazado_102317" data-name="Trazado 102317" d="M384.782,136.3h.093c.029,0,.062,0,.091,0a1.819,1.819,0,0,1,.185-.008h0a.017.017,0,0,1,.016.015l0,.006a.184.184,0,0,1-.049.069q-.032.028-.065.051a.389.389,0,0,0-.062.048.081.081,0,0,0-.023.071.084.084,0,0,1,.012-.08.677.677,0,0,1,.057-.059.278.278,0,0,0,.1-.111l.012.02c-.06,0-.122,0-.183,0a.6.6,0,0,1-.091-.006A.609.609,0,0,1,384.782,136.3Z" transform="translate(-381.245 -135.881)" fill="#d97e3b"/>
          <path id="Trazado_102318" data-name="Trazado 102318" d="M383.01,136.426a.148.148,0,0,0-.043-.017.2.2,0,0,0-.043,0,.25.25,0,0,1-.048,0,.173.173,0,0,1-.049,0l.015-.006a.082.082,0,0,0-.006.046c0,.019,0,.035.006.056a.355.355,0,0,1,0,.114.881.881,0,0,0-.023-.109c0-.02-.008-.039-.009-.057a.112.112,0,0,1,.009-.066l.015-.006a.591.591,0,0,0,.092.008.128.128,0,0,1,.048.012A.106.106,0,0,1,383.01,136.426Z" transform="translate(-382.317 -135.833)" fill="#d97e3b"/>
        </g>
        <g id="Grupo_55679" data-name="Grupo 55679" transform="translate(14.875 8.794)">
          <path id="Trazado_102319" data-name="Trazado 102319" d="M384.307,133.013c-.063-.083-.2-.1-.46-.1v-.268a.834.834,0,0,1,.7.213Z" transform="translate(-379.167 -132.242)" fill="#404040"/>
          <g id="Grupo_55678" data-name="Grupo 55678">
            <path id="Trazado_102320" data-name="Trazado 102320" d="M387.641,134.465h-2.654c-.512,0-.672-.78-.834-1.245a.558.558,0,0,1,.122-.524.841.841,0,0,1,.668-.312h2.677a.7.7,0,0,1,.75.824C388.321,134.017,388.064,134.465,387.641,134.465Zm-2.7-1.812a.545.545,0,0,0-.433.2.317.317,0,0,0-.079.284c.256.733.369,1.06.557,1.06h2.654c.278,0,.409-.518.435-1.006a.534.534,0,0,0-.117-.432.472.472,0,0,0-.339-.108Z" transform="translate(-379.014 -132.384)" fill="#404040"/>
            <path id="Trazado_102321" data-name="Trazado 102321" d="M384.2,134.465h-2.656c-.421,0-.679-.447-.728-1.257a.694.694,0,0,1,.751-.824h2.676a.847.847,0,0,1,.669.312.562.562,0,0,1,.122.524C384.869,133.684,384.709,134.465,384.2,134.465Zm-2.633-1.812a.471.471,0,0,0-.341.108.534.534,0,0,0-.117.432c.026.487.157,1.006.435,1.006H384.2c.187,0,.3-.327.555-1.06a.313.313,0,0,0-.079-.284.545.545,0,0,0-.433-.2Z" transform="translate(-380.813 -132.384)" fill="#404040"/>
            <path id="Trazado_102322" data-name="Trazado 102322" d="M383.631,133.013l-.239-.154a.831.831,0,0,1,.7-.213v.268C383.836,132.914,383.694,132.93,383.631,133.013Z" transform="translate(-379.414 -132.242)" fill="#404040"/>
          </g>
        </g>
      </g>
    </g>
  </g>
</svg>
