<svg xmlns="http://www.w3.org/2000/svg" width="144" height="151.856" viewBox="0 0 144 151.856">
  <g id="Grupo_56220" data-name="Grupo 56220" transform="translate(-878 -1517.144)">
    <circle id="Elipse_1403" data-name="Elipse 1403" cx="72" cy="72" r="72" transform="translate(878 1525)" fill="#f1eaff"/>
    <g id="Grupo_55692" data-name="Grupo 55692" transform="translate(904.084 1517.549)">
      <g id="Grupo_55682" data-name="Grupo 55682" transform="translate(5.739 124.225)">
        <path id="Trazado_102323" data-name="Trazado 102323" d="M373.19,107.93l.771.134a11.65,11.65,0,0,0,1.81-.667,15.61,15.61,0,0,1,.243-1.835c-.824.413-1.643,1.025-2.062,1.255S373.19,107.93,373.19,107.93Z" transform="translate(-365.714 -101.104)" fill="#2e2e2e"/>
        <path id="Trazado_102324" data-name="Trazado 102324" d="M368.243,107.537a1.592,1.592,0,0,0,.239.625,38.014,38.014,0,0,0,4.741.821,8.263,8.263,0,0,0,2.241-.8,1.688,1.688,0,0,0,.15-.6,9.773,9.773,0,0,1-2.434.92A31.776,31.776,0,0,1,368.243,107.537Z" transform="translate(-368.203 -100.11)" fill="#2e2e2e"/>
        <path id="Trazado_102325" data-name="Trazado 102325" d="M368.256,110.023a31.773,31.773,0,0,0,4.938.968,9.774,9.774,0,0,0,2.434-.92c.047-.323.065-.649.065-.649s.346-.884.762-1.114,1.239-.842,2.062-1.255h0a1.6,1.6,0,0,1,.078-.218,8.236,8.236,0,0,0,.03-3.208l-5.939-1.031a9.03,9.03,0,0,1-1.405,3.305c-.553.583-2.337,1.935-2.706,2.324A2.476,2.476,0,0,0,368.256,110.023Z" transform="translate(-368.217 -102.596)" fill="#60100e"/>
      </g>
      <g id="Grupo_55683" data-name="Grupo 55683" transform="translate(23.138 124.225)">
        <path id="Trazado_102326" data-name="Trazado 102326" d="M382.784,107.93l-.77.134a11.65,11.65,0,0,1-1.81-.667,15.623,15.623,0,0,0-.243-1.835c.824.413,1.644,1.025,2.062,1.255S382.784,107.93,382.784,107.93Z" transform="translate(-379.707 -101.104)" fill="#2e2e2e"/>
        <path id="Trazado_102327" data-name="Trazado 102327" d="M389.254,107.537a1.593,1.593,0,0,1-.239.625,37.989,37.989,0,0,1-4.739.821,8.276,8.276,0,0,1-2.243-.8,1.688,1.688,0,0,1-.15-.6,9.772,9.772,0,0,0,2.434.92A31.745,31.745,0,0,0,389.254,107.537Z" transform="translate(-378.74 -100.11)" fill="#2e2e2e"/>
        <path id="Trazado_102328" data-name="Trazado 102328" d="M390.306,110.023a31.741,31.741,0,0,1-4.938.968,9.772,9.772,0,0,1-2.434-.92c-.047-.323-.066-.649-.066-.649s-.344-.884-.761-1.114-1.239-.842-2.062-1.255h0a1.608,1.608,0,0,0-.078-.218,8.2,8.2,0,0,1-.029-3.208l5.937-1.031a9.031,9.031,0,0,0,1.405,3.305c.555.583,2.337,1.935,2.706,2.324A2.475,2.475,0,0,1,390.306,110.023Z" transform="translate(-379.792 -102.596)" fill="#60100e"/>
      </g>
      <path id="Trazado_102329" data-name="Trazado 102329" d="M392.14,38.5v3.041H370.6V38.223c.487-.174.879-.3,1.136-.406,1.091-.437,4.248-2.566,4.754-2.856a5.174,5.174,0,0,0,.687-2.289c.028-.176.056-.347.078-.508l.014-.093c.071-.514.113-.887.113-.887h7.224s.042.373.113.887l.014.093c.024.161.05.332.08.508a5.133,5.133,0,0,0,.687,2.289c.506.29,3.661,2.419,4.751,2.856C390.631,37.971,391.3,38.175,392.14,38.5Z" transform="translate(-361.279 -14.3)" fill="#ffb67f"/>
      <path id="Trazado_102330" data-name="Trazado 102330" d="M387.441,66.5a2.274,2.274,0,0,0-.893,1.841,9.631,9.631,0,0,1-.335,3.078c-.222.437,0,1.219.615.717a4.322,4.322,0,0,0,1.06-2.512c0-.558.95-.893.894,0s-.419,2.734-1.326,3.236-1.493,1.284,0,1.06a6.926,6.926,0,0,0,3.11-1.506,4.826,4.826,0,0,0,1.841-4.3,14.877,14.877,0,0,0-.67-3.014h-3.849Z" transform="translate(-353.466 2.765)" fill="#ffb67f"/>
      <path id="Trazado_102331" data-name="Trazado 102331" d="M389.716,49.21c1.562-4.968-4.275-15.294-5.124-17.079a3.943,3.943,0,1,1-7.657,0c-.849,1.784-6.686,12.111-5.123,17.079s1.06,15.9-.755,20.286c.413.125,7.9,2.127,9.706,2.127s9.292-2,9.707-2.127C388.657,65.113,388.155,54.174,389.716,49.21Z" transform="translate(-361.048 -13.823)" fill="#e6e6e6"/>
      <path id="Trazado_102332" data-name="Trazado 102332" d="M392.821,56.622c-.559.52-9.71,2.679-11.185,2.679s-10.626-2.158-11.185-2.679c-.334,3.905-1.562,16.628-.966,22.32s1.19,13.133,1.19,13.8a33.9,33.9,0,0,0,.111,4.2,10.486,10.486,0,0,1-.038,3.272c-.147.782.224,18.675.3,20.052s.15,5.453.15,6.551c1.451.706,5.132,1.3,7.177.033a104.6,104.6,0,0,0,1.9-16.219c.072-1.637-.373-11.756-.409-13.318s.66-2.791.708-3.645c.337-6.133,1.064-17.932,1.064-18.972,0,1.04.727,12.84,1.066,18.972.047.854.744,2.083.706,3.645S382.927,109,383,110.637a104.317,104.317,0,0,0,1.9,16.219c2.044,1.266,5.725.673,7.176-.033,0-1.1.077-5.175.152-6.551s.445-19.27.3-20.052a10.485,10.485,0,0,1-.038-3.272,33.931,33.931,0,0,0,.113-4.2c0-.669.594-8.111,1.19-13.8S393.156,60.527,392.821,56.622Z" transform="translate(-361.92 -1.501)" fill="#2e2e2e"/>
      <g id="Grupo_55684" data-name="Grupo 55684" transform="translate(17.394 23.183)">
        <path id="Trazado_102333" data-name="Trazado 102333" d="M380.614,66.485l-2.269,1.74-2.374-1.74,1.54-29.813h1.546Z" transform="translate(-375.971 -34.721)" fill="#578cc3"/>
        <path id="Trazado_102334" data-name="Trazado 102334" d="M378.847,37.325h-1.559l-.876-1.951h3.316Z" transform="translate(-375.749 -35.375)" fill="#2f79bb"/>
      </g>
      <path id="Trazado_102335" data-name="Trazado 102335" d="M377.515,37.016c.945-.443,4.153-1.435,3.828-4.885a8.892,8.892,0,0,1-1.07,9.434C379.492,40,378.458,38.536,377.515,37.016Z" transform="translate(-357.799 -13.823)" opacity="0.2"/>
      <path id="Trazado_102336" data-name="Trazado 102336" d="M377.515,37.016c.945-.419,4.153-1.619,3.828-4.885a8.051,8.051,0,0,1-1.07,8.932C379.492,39.582,378.328,37.463,377.515,37.016Z" transform="translate(-357.799 -13.823)" fill="#f5f5f5"/>
      <path id="Trazado_102337" data-name="Trazado 102337" d="M369.708,66.5a2.27,2.27,0,0,1,.893,1.841,9.63,9.63,0,0,0,.335,3.078c.222.437,0,1.219-.615.717a4.322,4.322,0,0,1-1.06-2.512c0-.558-.948-.893-.893,0s.418,2.734,1.326,3.236,1.491,1.284,0,1.06a6.925,6.925,0,0,1-3.111-1.506,4.826,4.826,0,0,1-1.84-4.3,14.843,14.843,0,0,1,.669-3.014h3.849Z" transform="translate(-364.252 2.765)" fill="#ffb67f"/>
      <path id="Trazado_102338" data-name="Trazado 102338" d="M364.727,82.364a15.008,15.008,0,0,0,5.386-.725c.448-3.263,2.232-17.076,1.9-18.777s.75-7.8.807-8.091c.474,4.186-1.365,25.667-1.589,26.95,1.84,1.565,7.95,2.794,8.983,2.431s2.93-3.349,2.96-10.436c.017-4.845-.21-8.479-.421-10.577-.1-.97-.188-1.611-.25-1.9-.2-.891-3.266-11.547-3.459-14.284s.338-12.658.78-14.182a2.985,2.985,0,0,1-.248.233l-.013.012c-2.119,1.8-7.687,3.206-8.856,3.632-1.228.446-2.976,3.511-3.332,5.937C367.239,43.5,363.248,76.613,364.727,82.364Z" transform="translate(-364.399 -13.499)" fill="#404040"/>
      <path id="Trazado_102339" data-name="Trazado 102339" d="M371.058,40.039a61.266,61.266,0,0,0,4.857,17.021,38.557,38.557,0,0,0,3.486,6.077c-.1-.97-.188-1.611-.25-1.9-.2-.891-2.724-8.354-3.1-13.935-.247-3.626-.02-13.007.422-14.531l-.248.233-.014.012c-1.566,1.467-4.252,3.837-4.314,4.815.418.224,1.087.837,1.031,1.115S371.28,39.844,371.058,40.039Z" transform="translate(-361.048 -13.499)" fill="#2e2e2e"/>
      <path id="Trazado_102340" data-name="Trazado 102340" d="M379.093,37.016c-.945-.443-4.153-1.435-3.829-4.885a8.893,8.893,0,0,0,1.072,9.434C377.116,40,378.15,38.536,379.093,37.016Z" transform="translate(-359.377 -13.823)" opacity="0.2"/>
      <path id="Trazado_102341" data-name="Trazado 102341" d="M382.487,32.071a13.672,13.672,0,0,1-1.644,1.616,3.707,3.707,0,0,1-4.161,0,13.669,13.669,0,0,1-1.644-1.616c.071-.514.113-.887.113-.887h7.224S382.416,31.557,382.487,32.071Z" transform="translate(-359.046 -14.3)" opacity="0.2"/>
      <path id="Trazado_102342" data-name="Trazado 102342" d="M384.674,23.645c-.531-2.089-4.067-2.339-5.312-2.339s-4.781.25-5.312,2.339.113,9.527.224,10.612,2.452,3.287,3.008,3.677a3.835,3.835,0,0,0,4.161,0c.556-.389,2.9-2.59,3.008-3.677S385.2,25.734,384.674,23.645Z" transform="translate(-359.646 -19.27)" fill="#ffb67f"/>
      <path id="Trazado_102343" data-name="Trazado 102343" d="M379.093,37.016c-.945-.419-4.153-1.619-3.829-4.885a8.052,8.052,0,0,0,1.072,8.932C377.116,39.582,378.281,37.463,379.093,37.016Z" transform="translate(-359.377 -13.823)" fill="#f5f5f5"/>
      <path id="Trazado_102344" data-name="Trazado 102344" d="M396.587,82.364a15.008,15.008,0,0,1-5.386-.725c-.448-3.263-2.232-17.076-1.9-18.777s-.75-7.8-.807-8.091c-.473,4.186,1.365,25.667,1.589,26.95-1.84,1.565-7.95,2.794-8.983,2.431s-2.93-3.349-2.958-10.436c-.018-4.845.209-8.479.419-10.577.1-.97.188-1.611.25-1.9.2-.891,3.266-11.547,3.46-14.284s-.34-12.658-.782-14.182a2.971,2.971,0,0,0,.248.233l.014.012c2.119,1.8,7.687,3.206,8.856,3.632,1.228.446,2.976,3.511,3.332,5.937C394.075,43.5,398.066,76.613,396.587,82.364Z" transform="translate(-357.484 -13.499)" fill="#404040"/>
      <path id="Trazado_102345" data-name="Trazado 102345" d="M386.766,40.039c-.086,1.257-1.575,10.393-4.858,17.021a38.56,38.56,0,0,1-3.486,6.077c.1-.97.188-1.611.25-1.9.2-.891,2.724-8.354,3.1-13.935.247-3.626.02-13.007-.422-14.531l.248.233.014.012c1.566,1.467,4.252,3.837,4.314,4.815-.416.224-1.087.837-1.031,1.115S386.542,39.844,386.766,40.039Z" transform="translate(-357.343 -13.499)" fill="#2e2e2e"/>
      <g id="Grupo_55685" data-name="Grupo 55685" transform="translate(24.805 8.818)">
        <path id="Trazado_102346" data-name="Trazado 102346" d="M381.137,26.854c.021-.495.463-1.363.864-.908s.254,2.1.093,2.671-.9,1.856-1.194,1.829c.048-.6.108-1.623.156-2.174S381.118,27.27,381.137,26.854Z" transform="translate(-380.901 -25.818)" fill="#ffb67f"/>
        <path id="Trazado_102347" data-name="Trazado 102347" d="M381.28,27.394a1.885,1.885,0,0,1,0-.911c.027-.072.044-.173.171-.221a.194.194,0,0,1,.162.035.354.354,0,0,1,.1.1,1.035,1.035,0,0,1,.144.463,1.322,1.322,0,0,1-.047.472,2.047,2.047,0,0,1-.191.424,3.551,3.551,0,0,0-.358.818,2.888,2.888,0,0,1,.083-.448,2.752,2.752,0,0,1,.168-.425,2.929,2.929,0,0,0,.156-.406,1.243,1.243,0,0,0,.032-.421.89.89,0,0,0-.111-.394c-.033-.056-.078-.089-.1-.081s-.069.063-.092.125a1.792,1.792,0,0,0-.09.427A2.329,2.329,0,0,0,381.28,27.394Z" transform="translate(-380.74 -25.597)" fill="#ec8940"/>
      </g>
      <g id="Grupo_55686" data-name="Grupo 55686" transform="translate(13.261 8.695)">
        <path id="Trazado_102348" data-name="Trazado 102348" d="M374.344,26.772c-.024-.495-.466-1.362-.866-.909s-.253,2.1-.093,2.673.9,1.856,1.193,1.828c-.047-.6-.108-1.622-.158-2.172S374.362,27.188,374.344,26.772Z" transform="translate(-373.221 -25.736)" fill="#ffb67f"/>
        <path id="Trazado_102349" data-name="Trazado 102349" d="M373.959,27.312a2.337,2.337,0,0,0-.02-.446,1.727,1.727,0,0,0-.09-.427c-.022-.062-.069-.125-.09-.125s-.072.026-.107.081a.916.916,0,0,0-.11.394,1.2,1.2,0,0,0,.033.421,2.738,2.738,0,0,0,.155.406,3.083,3.083,0,0,1,.17.425,3.3,3.3,0,0,1,.081.446,3.567,3.567,0,0,0-.358-.816,2.134,2.134,0,0,1-.192-.424,1.318,1.318,0,0,1-.044-.472,1,1,0,0,1,.143-.463.407.407,0,0,1,.1-.1.2.2,0,0,1,.162-.033c.128.048.144.149.173.221A1.924,1.924,0,0,1,373.959,27.312Z" transform="translate(-373.139 -25.515)" fill="#ec8940"/>
      </g>
      <path id="Trazado_102350" data-name="Trazado 102350" d="M374.565,22.117c.186-1.043,1.6-1.156,3.1-1.3s4.182-.785,4.966-.747,1.417-.114,1.865-.114c-.373.376-1.267.489-1.081.675s1.85.939,2.127,1.491c.71,1.419.492,4.32.41,5.041a17.623,17.623,0,0,1-.858,3.023c-.074-1.344-1.421-5.151-1.27-5.9a7.794,7.794,0,0,1-2.874.412c-1.007-.075-4.854.371-6.011-.224a4.007,4.007,0,0,1-.075,2.761,5.526,5.526,0,0,0-.67,2.949,9.255,9.255,0,0,1-.858-3.359,15.124,15.124,0,0,1,.063-3.412C373.657,22.589,374.228,22.042,374.565,22.117Z" transform="translate(-359.939 -19.951)" fill="#fec842"/>
      <g id="Grupo_55687" data-name="Grupo 55687" transform="translate(17.739 15.809)">
        <path id="Trazado_102351" data-name="Trazado 102351" d="M376.214,30.522a2.607,2.607,0,0,0,.467.161,1.165,1.165,0,0,0,.233.035c.069,0,.15-.009.236-.017.337-.023.672-.032,1.01-.041.167-.006.335-.006.505-.017l.5-.03c.316-.035.651-.08.98-.144l.014.008,0,.012a1.834,1.834,0,0,1-.464.23,2.234,2.234,0,0,1-.505.122c-.186.009-.338,0-.511,0s-.337.018-.5.027c-.337.018-.673.042-1.009.047a1.674,1.674,0,0,1-.268-.012,1.293,1.293,0,0,1-.259-.08,1.572,1.572,0,0,1-.434-.284v-.017Z" transform="translate(-376.2 -30.469)" fill="#ec8940"/>
        <path id="Trazado_102352" data-name="Trazado 102352" d="M377.1,31.154a2.244,2.244,0,0,0,.323.08,1.985,1.985,0,0,0,.31.026,1.682,1.682,0,0,0,.628-.105.564.564,0,0,1-.266.25.809.809,0,0,1-.365.08.858.858,0,0,1-.361-.084A.583.583,0,0,1,377.1,31.154Z" transform="translate(-375.749 -30.124)" fill="#ec8940"/>
      </g>
      <g id="Grupo_55689" data-name="Grupo 55689" transform="translate(18.62 13.935)">
        <path id="Trazado_102353" data-name="Trazado 102353" d="M377.248,29.734c-.053-.014-.105-.027-.156-.045a.831.831,0,0,1-.08-.027c-.014-.006-.024-.014-.038-.021s-.035-.015-.036-.056c.015-.039.03-.035.039-.047a.18.18,0,0,1,.047-.021.276.276,0,0,1,.09-.012.627.627,0,0,1,.17.027.753.753,0,0,1,.287.185c.042.035.081.071.12.1a.261.261,0,0,0,.108.054c.077,0,.161-.086.241-.153a.8.8,0,0,1,.287-.186.744.744,0,0,1,.17-.026.192.192,0,0,1,.174.072c0,.056-.024.048-.035.063a.3.3,0,0,1-.038.021.832.832,0,0,1-.08.027c-.051.018-.1.032-.156.045l.146-.071a.523.523,0,0,0,.069-.041.143.143,0,0,0,.031-.021c.009,0,.011-.029.011,0a.158.158,0,0,0-.12-.024.55.55,0,0,0-.147.039.782.782,0,0,0-.242.18.588.588,0,0,1-.3.188.325.325,0,0,1-.185-.078c-.045-.036-.086-.072-.126-.11a.8.8,0,0,0-.242-.182.574.574,0,0,0-.147-.038.191.191,0,0,0-.117.018c-.009-.014.018.023.039.029a.638.638,0,0,0,.069.041Z" transform="translate(-376.709 -29.079)" fill="#ec8940"/>
        <g id="Grupo_55688" data-name="Grupo 55688">
          <path id="Trazado_102354" data-name="Trazado 102354" d="M378.052,29.222a.373.373,0,0,1,.275.231.269.269,0,0,1-.009.194.306.306,0,0,1-.116.141.5.5,0,0,0,.018-.3A1.033,1.033,0,0,0,378.052,29.222Z" transform="translate(-376.149 -29.222)" fill="#ec8940"/>
          <path id="Trazado_102355" data-name="Trazado 102355" d="M377.075,29.222a1.136,1.136,0,0,0-.17.266.517.517,0,0,0,.02.3.306.306,0,0,1-.116-.141.269.269,0,0,1-.009-.194A.371.371,0,0,1,377.075,29.222Z" transform="translate(-376.786 -29.222)" fill="#ec8940"/>
        </g>
      </g>
      <g id="Grupo_55690" data-name="Grupo 55690" transform="translate(20.9 9.508)">
        <path id="Trazado_102356" data-name="Trazado 102356" d="M378.3,27.1a1.584,1.584,0,0,1,1.356-.749,2.238,2.238,0,0,1,1.282.517,1.639,1.639,0,0,1-1.2.821A1.81,1.81,0,0,1,378.3,27.1Z" transform="translate(-378.303 -26.242)" fill="#fff"/>
        <path id="Trazado_102357" data-name="Trazado 102357" d="M380,26.987a.648.648,0,1,1-.648-.649A.648.648,0,0,1,380,26.987Z" transform="translate(-378.102 -26.246)" fill="#5c9ae1"/>
        <path id="Trazado_102358" data-name="Trazado 102358" d="M379.621,26.893a.365.365,0,1,1-.365-.367A.365.365,0,0,1,379.621,26.893Z" transform="translate(-378.008 -26.152)"/>
        <ellipse id="Elipse_1399" data-name="Elipse 1399" cx="0.208" cy="0.208" rx="0.208" ry="0.208" transform="translate(0.864 0.358)" fill="#fff" opacity="0.3"/>
        <path id="Trazado_102359" data-name="Trazado 102359" d="M378.3,27.131a1.089,1.089,0,0,1,.488-.6,1.744,1.744,0,0,1,.75-.251,1.653,1.653,0,0,1,.782.15,1.712,1.712,0,0,1,.642.443l.018.021-.012.017a1.254,1.254,0,0,1-.161.194c.038-.075.072-.149.1-.224l0,.039a2.136,2.136,0,0,0-.66-.314,1.868,1.868,0,0,0-.7-.116,2.221,2.221,0,0,0-.693.177A1.354,1.354,0,0,0,378.3,27.131Z" transform="translate(-378.303 -26.277)"/>
      </g>
      <path id="Trazado_102360" data-name="Trazado 102360" d="M378.142,26.1c-.11-.356.068-.437.3-.555a13.389,13.389,0,0,1,2.142-.317c.383,0,.938.568,1.07.872-.256.018-.609-.2-.992-.237a8,8,0,0,0-2.022.4A.364.364,0,0,1,378.142,26.1Z" transform="translate(-357.501 -17.298)" fill="#f49200"/>
      <g id="Grupo_55691" data-name="Grupo 55691" transform="translate(15.851 9.508)">
        <path id="Trazado_102361" data-name="Trazado 102361" d="M377.609,27.1a1.582,1.582,0,0,0-1.354-.749,2.23,2.23,0,0,0-1.282.517,1.634,1.634,0,0,0,1.2.821A1.812,1.812,0,0,0,377.609,27.1Z" transform="translate(-374.929 -26.242)" fill="#fff"/>
        <path id="Trazado_102362" data-name="Trazado 102362" d="M375.466,26.987a.648.648,0,1,0,.648-.649A.648.648,0,0,0,375.466,26.987Z" transform="translate(-374.681 -26.246)" fill="#5c9ae1"/>
        <path id="Trazado_102363" data-name="Trazado 102363" d="M375.654,26.893a.366.366,0,1,0,.365-.367A.366.366,0,0,0,375.654,26.893Z" transform="translate(-374.587 -26.152)"/>
        <path id="Trazado_102364" data-name="Trazado 102364" d="M375.875,26.724a.208.208,0,1,0,.209-.209A.207.207,0,0,0,375.875,26.724Z" transform="translate(-374.476 -26.157)" fill="#fff" opacity="0.3"/>
        <path id="Trazado_102365" data-name="Trazado 102365" d="M377.624,27.131a1.079,1.079,0,0,0-.49-.6,1.73,1.73,0,0,0-.749-.251,1.647,1.647,0,0,0-.78.15,1.716,1.716,0,0,0-.643.443l-.018.021.012.017a1.185,1.185,0,0,0,.162.194c-.039-.075-.072-.149-.1-.224l0,.039a2.137,2.137,0,0,1,.66-.314,1.871,1.871,0,0,1,.7-.116,2.223,2.223,0,0,1,.691.177A1.354,1.354,0,0,1,377.624,27.131Z" transform="translate(-374.944 -26.277)"/>
      </g>
      <path id="Trazado_102366" data-name="Trazado 102366" d="M378.076,26.1c.111-.356-.068-.437-.3-.555a13.389,13.389,0,0,0-2.142-.317c-.382,0-.938.568-1.07.872.256.018.609-.2.992-.237a7.973,7.973,0,0,1,2.022.4A.364.364,0,0,0,378.076,26.1Z" transform="translate(-359.286 -17.298)" fill="#f49200"/>
    </g>
    <path id="Trazado_102412" data-name="Trazado 102412" d="M-6768.286-10165.556l11.705,11.7-8.117,8.118,5.044,5.043-6.341,6.342" transform="translate(7711.801 11683.406)" fill="none" stroke="#5e448f" stroke-width="2"/>
    <g id="Grupo_55716" data-name="Grupo 55716" transform="translate(955.731 1521.029)">
      <path id="Trazado_102243" data-name="Trazado 102243" d="M406.947,133.7a6.977,6.977,0,0,1,6.751-1.339,21.328,21.328,0,0,1,5.236,3.916c.691.955.344,2.673.82,3.151s1.73,2.528,1.3,4.152-2.119,3.1-2.25,4.01,0,2.1-.648,2.719-1.6.43-2.036.859-.042,1.194-.517,1.481-1.166,0-1.558.285a2.667,2.667,0,0,0-.737,1.339c-.432-.191-1.124-2.628-2.682-3.151s-2.856,1.956-2.552,2.767c-.692.287-.736-.811-1.126-1a1.924,1.924,0,0,0-1.427.191c-.216-.237.345-1.192,0-1.67s-1.687-.285-2.206-.858-.305-1.528-.737-2.2-2.465-2.483-2.38-4.488a9.644,9.644,0,0,1,1.428-4.724c.822-1.481.606-3.533,1.689-4.488A4.02,4.02,0,0,1,406.947,133.7Z" transform="translate(-395.071 -131.984)" fill="#7f3323"/>
      <path id="Trazado_102244" data-name="Trazado 102244" d="M413.055,218.387h-3.24c-.564,0-1.589-1.027-1.653-2.758a11.627,11.627,0,0,1,.258-2.093,3.235,3.235,0,0,0,2.728,2.306,3.353,3.353,0,0,0,3.584-2.306,5.307,5.307,0,0,0,.1.552C415.251,215.843,414.466,218.387,413.055,218.387Z" transform="translate(-390.752 -87.759)" fill="#404040"/>
      <path id="Trazado_102245" data-name="Trazado 102245" d="M425.581,200.715c-.6-.284,1.539-3.973.9-4.294s-.833.964-.7,1.538-.578.834-.77-.128a16.233,16.233,0,0,1,.64-4.741c.256-.771-1.089-7.5-1.73-8.589a34.71,34.71,0,0,1-1.858-8.78,31.411,31.411,0,0,0-.065-6.023c-.255-1.346-1.343-4.744-1.28-7.178-.706,1.151-1.282,5.893-1.024,7.818a46.426,46.426,0,0,0,1.794,6.92c1.046,3.151,2.25,8.84,2.691,10.447,1.473,5.384-.833,16.729-1.346,19.869a21.3,21.3,0,0,0,.319,8.074c.514,2.949.194,13.3-.443,16.444s-2.762,11.371-2.378,12.716c.342,1.2.3,4.644.527,6.367a3.35,3.35,0,0,1-3.583,2.306,3.239,3.239,0,0,1-2.73-2.306c.5-2.748,1.573-6.934,1.573-8.041,0-1.476-.645-13-.837-14.988s.5-9.252.432-10.855-.25-10.165-1.149-13.689-1.024-11.988-1.024-13.2h-2.053c0,1.215-.128,9.676-1.024,13.2s-1.086,12.087-1.151,13.689.625,8.867.433,10.855-.837,13.512-.837,14.988c0,1.107,1.067,5.293,1.572,8.041a3.235,3.235,0,0,1-2.728,2.306,3.351,3.351,0,0,1-3.584-2.306c.224-1.723.185-5.168.527-6.367.382-1.345-1.735-9.576-2.378-12.716s-.958-13.495-.443-16.444a21.267,21.267,0,0,0,.318-8.074c-.514-3.14-2.818-14.485-1.345-19.869.441-1.607,1.647-7.3,2.691-10.447a46.627,46.627,0,0,0,1.794-6.92c.258-1.925-.319-6.667-1.024-7.818.063,2.434-1.027,5.831-1.28,7.178a31.421,31.421,0,0,0-.065,6.023,34.644,34.644,0,0,1-1.86,8.78c-.64,1.092-1.986,7.818-1.729,8.589a16.34,16.34,0,0,1,.64,4.741c-.191.962-.9.706-.77.128s-.063-1.857-.7-1.538,1.5,4.01.9,4.294c-1.089.514-3.078-3.461-2.435-7.115a10.664,10.664,0,0,0,.384-4.164c-.256-2.116-.065-12.178.449-13.844a68.069,68.069,0,0,0,1.089-8.843c.128-1.732.384-10.7.384-11.729a4.562,4.562,0,0,1,2.242-3.91c1.729-.9,6.411-2.691,7.309-3.075.383-.164.757-1.481,1.007-2.56.143-.612.245-1.146.284-1.349h4.722c.039.2.142.739.285,1.353.25,1.076.623,2.394,1.007,2.557.9.384,5.577,2.178,7.307,3.075a4.562,4.562,0,0,1,2.242,3.91c0,1.026.256,10,.384,11.729a68.048,68.048,0,0,0,1.089,8.843c.514,1.666.7,11.728.449,13.844a10.633,10.633,0,0,0,.384,4.164C428.659,197.255,426.67,201.229,425.581,200.715Z" transform="translate(-396.873 -125.4)" fill="#ffb67f"/>
      <path id="Trazado_102246" data-name="Trazado 102246" d="M421.923,201.709c.514,2.949.194,13.3-.446,16.445s-2.761,11.368-2.378,12.715c-1.5.8-4.209-.569-4.209-1.675,0-1.478-.646-13-.837-14.986s.5-9.254.43-10.855-.248-10.165-1.149-13.691-1.026-11.99-1.026-13.2h-2.051c0,1.214-.128,9.676-1.026,13.2s-1.084,12.088-1.149,13.691.626,8.865.432,10.855-.837,13.509-.837,14.986c0,1.106-2.491,2.522-4.212,1.675.383-1.346-1.734-9.576-2.377-12.715s-.959-13.5-.446-16.445a21.168,21.168,0,0,0,.319-8.072c-.514-3.143-2.819-14.487-1.345-19.869.191-.7.527-2.159.928-3.848,2.7,1.252,18.247,1.226,21.455-.088.41,1.726.754,3.226.948,3.936,1.473,5.383-.831,16.726-1.346,19.869A21.2,21.2,0,0,0,421.923,201.709Z" transform="translate(-395.648 -111.46)" fill="#2f79bb"/>
      <g id="Grupo_55665" data-name="Grupo 55665" transform="translate(7.817 58.372)">
        <path id="Trazado_102247" data-name="Trazado 102247" d="M408.135,173.741c0,1.214-.128,9.678-1.026,13.2s-1.086,12.09-1.147,13.692.625,8.864.43,10.853-1.285,12.841-1.285,14.319c0,.975-1.485,2.855-3.122,2.551a1.587,1.587,0,0,1-.045.39c1.721.847,4.212-.569,4.212-1.675,0-1.478.646-13,.837-14.986s-.5-9.254-.432-10.855.25-10.165,1.149-13.691,1.026-11.99,1.026-13.2h1.459C410.188,174.073,408.135,173.741,408.135,173.741Z" transform="translate(-401.941 -167.712)" fill="#225887"/>
        <path id="Trazado_102248" data-name="Trazado 102248" d="M416,193.637c.515-3.143,2.819-14.487,1.346-19.869-.194-.709-.538-2.21-.948-3.936-.122.051-.265.1-.423.145.332,1.407.606,2.588.773,3.193,1.474,5.383-.831,16.726-1.346,19.869a21.2,21.2,0,0,0,.321,8.072c.514,2.949.194,13.3-.446,16.444s-2.289,10.481-2.838,11.768c-.443,1.036-2.054,1.055-2.969.389.623.956,2.754,1.834,4.027,1.158-.383-1.346,1.735-9.576,2.378-12.715s.959-13.5.446-16.445A21.2,21.2,0,0,1,416,193.637Z" transform="translate(-397.86 -169.832)" fill="#225887"/>
      </g>
      <path id="Trazado_102249" data-name="Trazado 102249" d="M420.877,179.993c-3.834,1.1-17.051,1.127-20.538.093,1.471-3.038,4.2-10.372,4.656-28.7a6.9,6.9,0,0,0,3.336,1.089,29.29,29.29,0,0,0,4.594,0,6.9,6.9,0,0,0,3.338-1.089C416.717,169.526,419.393,176.9,420.877,179.993Z" transform="translate(-394.994 -121.462)" fill="#e6e6e6"/>
      <path id="Trazado_102250" data-name="Trazado 102250" d="M417.3,181.645c-.81-1.67-4.891-7.454-5.463-30.258a6.89,6.89,0,0,1-3.336,1.089,54.2,54.2,0,0,1,.844,12.551c-.29,4.857-.416,15.435-.555,16.88,2.451.935,7.644.358,8.635.259C417.381,182,417.341,181.827,417.3,181.645Z" transform="translate(-390.568 -121.462)" opacity="0.2"/>
      <path id="Trazado_102251" data-name="Trazado 102251" d="M421.756,183.8c-.009-3.785-.21-8.887-.566-10.048a71.216,71.216,0,0,1-1.08-8.791c-.125-1.7-.384-10.634-.384-11.711a4.814,4.814,0,0,0-2.369-4.115c-.973-.509-2.966-1.084-4.6-1.74a11.214,11.214,0,0,1-4.423,5.174,40.979,40.979,0,0,1,1.374,10.14c.034,1.164.034,2.312-.006,3.393-.009.293-.021.578-.04.859-.288,4.855-.415,15.435-.554,16.879,2.451.936,7.643.361,8.634.259-.052-.214-.1-.452-.163-.692s-1.656-6.3-1.656-6.3c-.164-.581-.278-1.2-.44-1.684-.31-.936-.768-2.421-1.149-3.893a26.285,26.285,0,0,1-.635-2.986,22.578,22.578,0,0,1,.5-6.161c.039-.16.074-.315.113-.458a31.9,31.9,0,0,0,.915,4.661c.143.56.261,1.049.329,1.386.251,1.326-.065,4.752.059,5.959.288,2.8,2.006,8.958,2.7,11.664.088.352.162.643.211.864.009.046.022.1.034.15a7.23,7.23,0,0,0,3.162.057c0-.022,0-.043,0-.062.008-.253.014-.532.023-.834.011-.511.014-1.083.014-1.7C421.759,183.979,421.759,183.892,421.756,183.8Z" transform="translate(-390.657 -123.627)" fill="#9fa24b"/>
      <path id="Trazado_102252" data-name="Trazado 102252" d="M417.258,170.7c-1.36.139-6.043.592-8.372-.262-.017.419-.032.731-.049.907,2.451.935,7.642.359,8.634.259-.052-.217-.106-.452-.163-.694C417.29,170.843,417.275,170.771,417.258,170.7Z" transform="translate(-390.385 -111.131)" fill="#858839"/>
      <path id="Trazado_102253" data-name="Trazado 102253" d="M418.236,172.335c-.008.3-.014.58-.023.834l0,.062a7.214,7.214,0,0,1-3.163-.059c-.012-.051-.022-.1-.034-.147-.048-.221-.122-.514-.21-.864a1.626,1.626,0,0,0,.244.086A8.309,8.309,0,0,0,418.236,172.335Z" transform="translate(-387.149 -110.196)" fill="#858839"/>
      <path id="Trazado_102254" data-name="Trazado 102254" d="M403.35,218.387h3.24c.564,0,1.589-1.027,1.653-2.758a11.633,11.633,0,0,0-.258-2.093,3.233,3.233,0,0,1-2.728,2.306,3.351,3.351,0,0,1-3.583-2.306c-.029.213-.062.4-.1.552C401.154,215.843,401.939,218.387,403.35,218.387Z" transform="translate(-394.384 -87.759)" fill="#404040"/>
      <path id="Trazado_102255" data-name="Trazado 102255" d="M410.587,145.479a4.835,4.835,0,0,1-5.292,0c.143-.612.245-1.146.284-1.349H410.3C410.34,144.33,410.443,144.865,410.587,145.479Z" transform="translate(-392.306 -125.4)" opacity="0.2"/>
      <path id="Trazado_102256" data-name="Trazado 102256" d="M414.533,138.3c-.077-1.926-3.314-4.084-5.549-4.084s-5.474,2.158-5.551,4.084-.221,7.258.615,9.482a5.285,5.285,0,0,0,9.867,0C414.754,145.561,414.61,140.231,414.533,138.3Z" transform="translate(-393.348 -130.772)" fill="#ffb67f"/>
      <path id="Trazado_102257" data-name="Trazado 102257" d="M408.659,152.476a6.9,6.9,0,0,1-3.338-1.089c-.571,22.846-4.668,28.611-5.463,30.267-.045.177-.083.347-.123.512.993.1,6.183.676,8.635-.259-.139-1.445-.267-12.024-.554-16.88A54.037,54.037,0,0,1,408.659,152.476Z" transform="translate(-395.321 -121.462)" opacity="0.2"/>
      <path id="Trazado_102258" data-name="Trazado 102258" d="M409.042,166.236c-.045-1.118-.045-2.315-.009-3.526a41,41,0,0,1,1.373-10.14,11.206,11.206,0,0,1-4.423-5.174c-1.632.655-3.624,1.231-4.6,1.74a4.812,4.812,0,0,0-2.367,4.115c0,1.077-.259,10.011-.384,11.711a71.545,71.545,0,0,1-1.08,8.791c-.358,1.161-.56,6.263-.569,10.048,0,.093,0,.18,0,.27,0,.614,0,1.186.014,1.7.009.3.015.581.025.834,0,.018,0,.04,0,.062a7.234,7.234,0,0,0,3.162-.057c.011-.054.02-.1.032-.15.049-.221.123-.512.213-.864.694-2.707,2.412-8.86,2.7-11.664.126-1.208-.19-4.633.062-5.959.065-.338.185-.827.329-1.386.225-.913.5-2.008.7-3.109.094-.523.171-1.047.214-1.552a22.513,22.513,0,0,1,.609,6.619c-.043.332-.108.7-.188,1.1v.006a57.706,57.706,0,0,1-1.6,5.773c-.16.484-.275,1.1-.436,1.684,0,0-1.6,6.057-1.658,6.3s-.111.478-.164.692c.99.1,6.185.677,8.635-.259-.139-1.444-.265-12.024-.555-16.879C409.062,166.726,409.051,166.481,409.042,166.236Z" transform="translate(-396.814 -123.627)" fill="#9fa24b"/>
      <path id="Trazado_102259" data-name="Trazado 102259" d="M399.8,170.7c1.359.139,6.043.592,8.368-.262.017.419.035.731.052.907-2.452.935-7.643.359-8.635.259.052-.217.106-.452.164-.694C399.765,170.843,399.782,170.771,399.8,170.7Z" transform="translate(-395.402 -111.131)" fill="#858839"/>
      <path id="Trazado_102260" data-name="Trazado 102260" d="M396.991,172.335c.006.3.014.58.023.834,0,.018,0,.04,0,.062a7.215,7.215,0,0,0,3.163-.059c.011-.051.02-.1.032-.147.048-.221.122-.514.21-.864a1.662,1.662,0,0,1-.242.086A8.317,8.317,0,0,1,396.991,172.335Z" transform="translate(-396.809 -110.196)" fill="#858839"/>
      <g id="Grupo_55666" data-name="Grupo 55666" transform="translate(13.949 17.076)">
        <path id="Trazado_102261" data-name="Trazado 102261" d="M408.068,143.345a.682.682,0,0,1-.984,0c-.241,0-.79.071-1.117.052.043.267.671.615.907.723a1.7,1.7,0,0,0,1.407,0c.234-.108.861-.457.905-.723C408.859,143.416,408.31,143.345,408.068,143.345Z" transform="translate(-405.89 -142.9)" fill="#f9437d"/>
        <path id="Trazado_102262" data-name="Trazado 102262" d="M408.581,143.213a1.106,1.106,0,0,0-.637-.151,3.345,3.345,0,0,1-.339.106,3.142,3.142,0,0,1-.341-.106,1.1,1.1,0,0,0-.635.151,2.648,2.648,0,0,1-.711.318,1.424,1.424,0,0,0,.521.128c.174,0,.423-.128.568-.12s.413.173.6.173.443-.165.6-.173.393.12.568.12a1.416,1.416,0,0,0,.521-.128A2.579,2.579,0,0,1,408.581,143.213Z" transform="translate(-405.917 -143.056)" fill="#e33364"/>
      </g>
      <path id="Trazado_102263" data-name="Trazado 102263" d="M407.4,142.213a2.062,2.062,0,0,0-1.012-.057,1.934,1.934,0,0,1,.947.327.109.109,0,0,0,.13,0,1.934,1.934,0,0,1,.948-.327A2.068,2.068,0,0,0,407.4,142.213Z" transform="translate(-391.712 -126.488)" fill="#ec8940"/>
      <path id="Trazado_102264" data-name="Trazado 102264" d="M415.651,171.2c-.165-.58-.278-1.2-.438-1.684a47.409,47.409,0,0,1-1.787-6.879,19.336,19.336,0,0,1,.187-4.365,8.222,8.222,0,0,0-.671,4.616c.264,1.977,3.672,12.15,2.861,14.146-.33.816-6.954.807-6.965.907,2.451.935,7.642.359,8.634.259-.052-.217-.106-.452-.163-.694S415.651,171.2,415.651,171.2Z" transform="translate(-390.385 -117.728)" fill="#858839" opacity="0.3"/>
      <path id="Trazado_102265" data-name="Trazado 102265" d="M407.619,139.293c-.048-.177.262-.282.9-.455a3.249,3.249,0,0,1,1.528-.151,1.718,1.718,0,0,1,1.052.557,4.386,4.386,0,0,0-1.368-.3c-.315.046-1.029.2-1.225.244S407.654,139.416,407.619,139.293Z" transform="translate(-391.048 -128.372)" fill="#60100e"/>
      <path id="Trazado_102266" data-name="Trazado 102266" d="M407.628,139.293c.049-.177-.262-.282-.9-.455a3.253,3.253,0,0,0-1.53-.151,1.724,1.724,0,0,0-1.052.557,4.4,4.4,0,0,1,1.37-.3c.315.046,1.027.2,1.225.244S407.594,139.416,407.628,139.293Z" transform="translate(-392.929 -128.372)" fill="#60100e"/>
      <g id="Grupo_55667" data-name="Grupo 55667" transform="translate(16.615 11.33)">
        <path id="Trazado_102267" data-name="Trazado 102267" d="M407.646,140.564a1.856,1.856,0,0,1,1.482-1.147,2.819,2.819,0,0,1,1.482.527,1.9,1.9,0,0,1-1.263,1.012A3.066,3.066,0,0,1,407.646,140.564Z" transform="translate(-407.646 -139.287)" fill="#fff"/>
        <path id="Trazado_102268" data-name="Trazado 102268" d="M409.656,140.185a.777.777,0,1,1-.776-.776A.777.777,0,0,1,409.656,140.185Z" transform="translate(-407.398 -139.287)" fill="#9fa24b"/>
        <path id="Trazado_102269" data-name="Trazado 102269" d="M409.1,140.04a.365.365,0,1,1-.366-.364A.365.365,0,0,1,409.1,140.04Z" transform="translate(-407.253 -139.143)"/>
        <path id="Trazado_102270" data-name="Trazado 102270" d="M408.459,139.818a.114.114,0,1,1,.114.114A.113.113,0,0,1,408.459,139.818Z" transform="translate(-407.205 -139.127)" fill="#fff"/>
        <path id="Trazado_102271" data-name="Trazado 102271" d="M410.61,139.748a3.715,3.715,0,0,1-.75-.275,1.918,1.918,0,0,0-.453-.13.963.963,0,0,0-.251-.009,2.2,2.2,0,0,0-.231.039,1.616,1.616,0,0,0-.82.449,2.426,2.426,0,0,0-.458.785,3.977,3.977,0,0,1,.577-.657,1.683,1.683,0,0,1,.753-.341,1.983,1.983,0,0,1,.207-.032,1.057,1.057,0,0,1,.194.008,2.211,2.211,0,0,1,.4.1,6.081,6.081,0,0,1,.794.356l.032.019.025-.009C410.916,139.936,410.9,139.8,410.61,139.748Z" transform="translate(-407.646 -139.33)" fill="#261113"/>
      </g>
      <g id="Grupo_55668" data-name="Grupo 55668" transform="translate(11.617 11.33)">
        <path id="Trazado_102272" data-name="Trazado 102272" d="M407.516,140.564a1.859,1.859,0,0,0-1.482-1.147,2.819,2.819,0,0,0-1.482.527,1.9,1.9,0,0,0,1.263,1.012A3.068,3.068,0,0,0,407.516,140.564Z" transform="translate(-404.325 -139.287)" fill="#fff"/>
        <path id="Trazado_102273" data-name="Trazado 102273" d="M405.009,140.185a.776.776,0,1,0,.777-.776A.778.778,0,0,0,405.009,140.185Z" transform="translate(-404.078 -139.287)" fill="#9fa24b"/>
        <path id="Trazado_102274" data-name="Trazado 102274" d="M405.276,140.04a.365.365,0,1,0,.366-.364A.365.365,0,0,0,405.276,140.04Z" transform="translate(-403.933 -139.143)"/>
        <ellipse id="Elipse_1398" data-name="Elipse 1398" cx="0.114" cy="0.114" rx="0.114" ry="0.114" transform="translate(1.708 0.577)" fill="#fff"/>
        <path id="Trazado_102275" data-name="Trazado 102275" d="M404.632,139.748a3.753,3.753,0,0,0,.75-.275,1.886,1.886,0,0,1,.452-.13.975.975,0,0,1,.253-.009,2.167,2.167,0,0,1,.23.039,1.621,1.621,0,0,1,.822.449,2.4,2.4,0,0,1,.458.785,4.049,4.049,0,0,0-.577-.657,1.682,1.682,0,0,0-.753-.341,1.95,1.95,0,0,0-.208-.032,1.019,1.019,0,0,0-.191.008,2.195,2.195,0,0,0-.406.1,6.073,6.073,0,0,0-.794.356l-.032.019-.025-.009C404.326,139.936,404.34,139.8,404.632,139.748Z" transform="translate(-404.405 -139.33)" fill="#261113"/>
      </g>
      <path id="Trazado_102276" data-name="Trazado 102276" d="M418.037,167.36a7.817,7.817,0,0,0-4.631-4.832,7.687,7.687,0,0,0-2.8-.481c-1.576,0-2.909-.361-4.018.023a7.268,7.268,0,0,0-4.189,3.41v-.006c.08-.4.145-.768.188-1.1a22.513,22.513,0,0,0-.609-6.619c-.126-.768-.244-1.433-.47-2.679,1.163,2.583,2.694,4.354,3.944,4.354h8.715c2.065,0,3.735-2.38,4.243-4.184a21.221,21.221,0,0,1-.51,2.967,22.581,22.581,0,0,0-.5,6.161A26.3,26.3,0,0,0,418.037,167.36Z" transform="translate(-394.36 -119.462)" fill="#404040" opacity="0.2"/>
      <path id="Trazado_102277" data-name="Trazado 102277" d="M410.641,137.392a9.028,9.028,0,0,0,3.185,3.206c.93.563,1.181,1.866,1.515,2.531,2.287-3.575-.791-8.3-3.745-9.13-2.468-.7-7.193.979-8.4,3.6s-.063,4.409.1,5.531c.874-1.121,1.269-2.09,1.519-2.256a3.651,3.651,0,0,0,.082,1.248,5.3,5.3,0,0,1,2.787-2.662C409.058,139.043,410.307,138.513,410.641,137.392Z" transform="translate(-393.74 -130.977)" fill="#7f3323"/>
    </g>
  </g>
</svg>
