<svg xmlns="http://www.w3.org/2000/svg" width="144" height="155.895" viewBox="0 0 144 155.895">
  <g id="Grupo_56221" data-name="Grupo 56221" transform="translate(-1190 -1513.105)">
    <circle id="Elipse_1404" data-name="Elipse 1404" cx="72" cy="72" r="72" transform="translate(1190 1525)" fill="#c5fcfc"/>
    <g id="Grupo_55708" data-name="Grupo 55708" transform="translate(1225.937 1513.104)">
      <path id="Trazado_102413" data-name="Trazado 102413" d="M412.761,244.028c1.779-.678,3.616-.083,5.064.384s2.537,1.9,3.424,4.894-.331,5.831.043,7.653,1.214,4.625,1.775,5.184c-.747.144-1.729-.98-2.056-1.308.56,1.031.84,1.635,1.076,2.011-4.743,2.415-8.527,3.046-13.222,2.195-3.227-.585-3.691-1.121-4.206-1.4a2.582,2.582,0,0,0,1.157-2.3,7.307,7.307,0,0,1-2.768,2.1,2.755,2.755,0,0,1-1.438-.665,8.8,8.8,0,0,0,4-5.254c.489-2.313.421-7.92,1.226-9.986S410.038,243.351,412.761,244.028Z" transform="translate(-397.537 -243.722)" fill="#fed756"/>
      <path id="Trazado_102414" data-name="Trazado 102414" d="M415.253,326.543h-3.4c-.593,0-1.669-1.079-1.737-2.9a12.437,12.437,0,0,1,.271-2.2,3.4,3.4,0,0,0,2.864,2.42,3.524,3.524,0,0,0,3.765-2.42,5.181,5.181,0,0,0,.1.581C417.561,323.871,416.736,326.543,415.253,326.543Z" transform="translate(-391.839 -191.627)" fill="#ea6cb5"/>
      <path id="Trazado_102415" data-name="Trazado 102415" d="M429.316,313.565c-.631-.291,1.618-4.162.939-4.5-.663-.339-.874,1-.728,1.62.13.6-.616.877-.81-.147a16.616,16.616,0,0,1,.665-4.971,20.008,20.008,0,0,0-.665-4.892c-.065-.356-.145-.695-.225-1.036a15.854,15.854,0,0,0-.924-3.093,7.314,7.314,0,0,1-.5-1.345,1.845,1.845,0,0,0-.082-.291c-.112-.469-.241-.957-.356-1.443q-.145-.609-.292-1.214a27.538,27.538,0,0,1-.728-4.922,31.922,31.922,0,0,0-.064-6.332c-.259-1.38-1.328-4.747-1.346-7.29v-.242a13.581,13.581,0,0,0-.97,4.309v.015a17.977,17.977,0,0,0-.1,3.888c.08.549.194,1.212.356,1.909,0,.017.017.017,0,.033.421,1.814,1.052,3.92,1.523,5.311.615,1.864,1.278,4.551,1.829,6.851.1.438.21.86.292,1.264h.017v.047c.047.2.1.406.145.6a2.543,2.543,0,0,1,.082.324c.194.825.354,1.492.469,1.9,1.538,5.652-.877,17.555-1.426,20.859a22.58,22.58,0,0,0,.339,8.486c.536,3.095.21,13.961-.469,17.265-.371,1.8-1.213,5.231-1.831,8.179-.08.436-.16.873-.241,1.278-.147.732-.259,1.395-.341,1.977-.048.291-.082.568-.1.808a2.59,2.59,0,0,0-.015.341,2.155,2.155,0,0,0,.032.76c.357,1.264.324,4.875.551,6.691a3.534,3.534,0,0,1-3.758,2.428,3.4,3.4,0,0,1-2.866-2.428c.534-2.883,1.652-7.289,1.652-8.438,0-1.555-.68-13.654-.875-15.743-.21-2.088.519-9.717.456-11.4s-.261-10.673-1.216-14.382c-.939-3.693-1.071-12.583-1.071-13.863h-2.153c0,1.279-.147,10.17-1.086,13.863-.94,3.71-1.134,12.7-1.2,14.382-.08,1.684.65,9.313.456,11.4-.21,2.089-.892,14.188-.892,15.743,0,1.149,1.134,5.555,1.652,8.438a3.378,3.378,0,0,1-2.849,2.428,3.542,3.542,0,0,1-3.775-2.428c.242-1.815.194-5.426.551-6.691a1.325,1.325,0,0,0,.048-.4c.049-2.218-1.911-9.894-2.542-12.939a59.01,59.01,0,0,1-.65-7.743,61.5,61.5,0,0,1,.18-9.522,22.244,22.244,0,0,0,.339-8.486c-.438-2.737-2.186-11.369-1.894-17.459a18.958,18.958,0,0,1,.242-2.332,9.529,9.529,0,0,1,.242-1.069c.114-.4.276-1.071.469-1.9a.448.448,0,0,1,.033-.145v-.032c.048-.227.114-.454.162-.7a.962.962,0,0,1,.033-.1c.063-.294.145-.6.21-.924v-.015c.015-.084.047-.147.063-.244.551-2.317,1.231-5.054,1.846-6.933.277-.827.618-1.911.924-3.045a36.613,36.613,0,0,0,.89-3.676c.033-.194.065-.371.082-.533.261-2.009-.339-6.983-1.086-8.2.065,2.559-1.069,6.106-1.343,7.516a17.117,17.117,0,0,0-.164,2.378,38.873,38.873,0,0,0,.1,3.953,27.379,27.379,0,0,1-.728,4.922c-.082.4-.2.808-.292,1.214-.05.292-.129.568-.194.828-.082.306-.162.615-.244.905-.017.048-.033.114-.048.145v.033c-.08.227-.145.453-.21.615-.1.244-.179.421-.242.551a15.617,15.617,0,0,0-.924,3.093c-.08.341-.162.7-.225,1.036a20.964,20.964,0,0,0-.666,4.892,17.114,17.114,0,0,1,.681,4.971c-.21,1.024-.94.745-.81.147.129-.616-.065-1.959-.745-1.62s1.587,4.212.939,4.5c-1.132.549-3.222-3.626-2.542-7.466a11.409,11.409,0,0,0,.387-4.373c-.032-.244-.047-.585-.063-1.005v-.015c-.017-.276-.032-.6-.032-.939-.082-3.84.129-11.16.581-12.585a61.968,61.968,0,0,0,1.054-8.261c.033-.4.063-.76.08-1.019s.048-.7.065-1.229c.145-3.16.341-10.172.341-11.1a3.1,3.1,0,0,1,.08-.728,4.555,4.555,0,0,1,2.283-3.369c.989-.516,2.915-1.311,4.617-2.006a.242.242,0,0,0,.1-.035c1.343-.549,2.525-1,2.946-1.181a.016.016,0,0,0,.017-.017c.4-.194.778-1.555,1.052-2.672.032-.145.065-.291.1-.438.1-.453.162-.825.2-.985h4.954a1.637,1.637,0,0,1,.05.224c.015.115.048.276.082.439a1.857,1.857,0,0,1,.064.322c.048.147.08.292.114.438a10.986,10.986,0,0,0,.68,2.171,1,1,0,0,0,.374.518c.4.177,1.6.631,2.946,1.181.209.082.438.164.665.261,1.538.631,3.173,1.329,4.065,1.78a4.79,4.79,0,0,1,2.348,4.1c0,1.087.274,10.512.4,12.326a74,74,0,0,0,1.149,9.28c.438,1.425.665,8.745.568,12.585,0,.356-.017.68-.032.954-.017.421-.033.762-.065,1.005a11.01,11.01,0,0,0,.4,4.373C432.554,309.939,430.465,314.115,429.316,313.565Z" transform="translate(-399.172 -236.735)" fill="#ffb67f"/>
      <path id="Trazado_102416" data-name="Trazado 102416" d="M425.292,312.551c.536,3.095.21,13.961-.469,17.265-.16.76-.387,1.8-.663,2.963-.21.875-.421,1.814-.631,2.771-.065.322-.147.631-.21.955-.21.954-.406,1.894-.566,2.768a13.43,13.43,0,0,0-.423,3.887,2.948,2.948,0,0,1-2.056.13,4.316,4.316,0,0,1-.454-.13.062.062,0,0,0-.048-.015c-.145-.063-.274-.114-.389-.177a2.121,2.121,0,0,1-.387-.212.016.016,0,0,1-.017-.017,2.972,2.972,0,0,1-.357-.24.421.421,0,0,1-.064-.048,1.822,1.822,0,0,1-.453-.5.9.9,0,0,1-.2-.533c0-1.555-.68-13.654-.875-15.743s.519-9.717.456-11.4-.26-10.673-1.216-14.382c-.939-3.693-1.071-12.583-1.071-13.863h-2.153c0,1.279-.147,10.17-1.086,13.863-.94,3.71-1.134,12.7-1.2,14.382-.08,1.684.65,9.313.456,11.4-.21,2.089-.892,14.188-.892,15.743,0,1.149-2.607,2.639-4.421,1.747a1.324,1.324,0,0,0,.048-.4c.049-2.218-1.911-9.894-2.542-12.939a59.021,59.021,0,0,1-.65-7.743,61.5,61.5,0,0,1,.18-9.522,22.244,22.244,0,0,0,.339-8.486c-.438-2.737-2.186-11.369-1.894-17.459a18.97,18.97,0,0,1,.242-2.332,9.528,9.528,0,0,1,.242-1.069c.114-.4.276-1.071.469-1.9a.448.448,0,0,1,.033-.145v-.032c.048-.227.114-.454.162-.7a.223.223,0,0,0,.015-.1h.018c.063-.294.145-.6.21-.924V279.4a1.747,1.747,0,0,0,.064-.244,2.793,2.793,0,0,0,.469.16v.017h.017c.048.017.114.033.177.048.406.114.907.194,1.492.294q.581.07,1.263.145c.227.015.469.048.7.064.307.032.65.05.989.08.939.05,1.959.1,3.011.129h.406c1.814.052,3.708.033,5.539-.013h.082a.388.388,0,0,1,.145-.018h.065c.646-.032,1.294-.047,1.926-.08.259-.017.519-.032.778-.065.339-.017.68-.047,1-.065.453-.047.89-.08,1.3-.145a19.071,19.071,0,0,0,2.317-.372c.129-.032.259-.065.371-.1.017,0,.033-.017.05-.017.16-.048.307-.1.436-.145.1.438.21.86.292,1.264a.057.057,0,0,1,.017.047c.08.326.162.633.227.924.194.825.354,1.492.469,1.9,1.538,5.652-.877,17.556-1.426,20.859A22.58,22.58,0,0,0,425.292,312.551Z" transform="translate(-397.708 -220.028)" fill="#132835"/>
      <g id="Grupo_55704" data-name="Grupo 55704" transform="translate(8.205 59.041)">
        <path id="Trazado_102417" data-name="Trazado 102417" d="M410.587,282.862c0,1.274-.135,10.162-1.077,13.864s-1.141,12.7-1.206,14.379.656,9.308.453,11.4-1.35,13.484-1.35,15.035c0,1.024-1.558,3-3.277,2.679a1.73,1.73,0,0,1-.045.409c1.8.889,4.419-.6,4.419-1.757,0-1.553.68-13.652.88-15.74s-.521-9.716-.453-11.4.262-10.674,1.206-14.377,1.077-12.59,1.077-13.864h1.532C412.743,283.209,410.587,282.862,410.587,282.862Z" transform="translate(-404.085 -276.53)" opacity="0.2"/>
        <path id="Trazado_102418" data-name="Trazado 102418" d="M418.239,304.069c.54-3.3,2.961-15.211,1.415-20.864-.2-.745-.566-2.322-1-4.134a4.384,4.384,0,0,1-.443.152c.349,1.478.636,2.717.812,3.354,1.548,5.654-.874,17.562-1.415,20.864a22.281,22.281,0,0,0,.336,8.476c.541,3.1.205,13.97-.468,17.268s-2.4,11.007-2.98,12.358c-.464,1.087-2.156,1.107-3.118.408.655,1,2.893,1.924,4.231,1.216-.4-1.413,1.82-10.055,2.5-13.352s1.009-14.172.468-17.27A22.283,22.283,0,0,1,418.239,304.069Z" transform="translate(-399.195 -279.071)" opacity="0.2"/>
      </g>
      <path id="Trazado_102419" data-name="Trazado 102419" d="M424.1,291.227c-4.025,1.154-17.9,1.182-21.568.1,1.547-3.19,4.409-10.89,4.89-30.137a7.208,7.208,0,0,0,3.5,1.144,30.578,30.578,0,0,0,4.824,0,7.2,7.2,0,0,0,3.5-1.144C419.729,280.235,422.54,287.977,424.1,291.227Z" transform="translate(-396.923 -232.018)" fill="#e6e6e6"/>
      <path id="Trazado_102420" data-name="Trazado 102420" d="M419.771,293.3a2.771,2.771,0,0,1-.082-.339c-.078-.164-.194-.356-.322-.6-.13-.261-.292-.534-.454-.905-.015,0-.015-.018-.015-.018v-.017l-.1-.194a6.461,6.461,0,0,1-.307-.665.925.925,0,0,1-.08-.177c0-.018-.017-.033-.017-.048-.177-.438-.388-.892-.583-1.458-.13-.339-.259-.712-.389-1.1-.227-.695-.469-1.488-.7-2.378-.063-.229-.112-.454-.177-.682-.389-1.538-.762-3.337-1.1-5.458-.1-.5-.179-1.019-.259-1.57-.048-.421-.112-.843-.164-1.279v-.048c-.03-.261-.078-.519-.1-.795-.033-.274-.082-.55-.1-.842-.063-.4-.112-.842-.145-1.279-.048-.422-.1-.857-.13-1.313-.047-.371-.08-.745-.112-1.134v-.015c-.017-.259-.033-.536-.048-.81-.032-.259-.048-.551-.065-.825v-.033q-.073-.727-.1-1.507c-.048-.5-.082-1.019-.1-1.553-.032-.536-.065-1.086-.082-1.637-.048-1.1-.08-2.25-.114-3.432a3.544,3.544,0,0,1-.4.259,6.223,6.223,0,0,1-.745.356,8.131,8.131,0,0,1-2.058.5c-.1.015-.194.015-.292.032a54.792,54.792,0,0,1,.94,9.393c.032,1.086.032,2.17-.033,3.173,0,.21,0,.422-.013.616-.26,4.373-.406,13.2-.519,16.553-.017.549-.049.954-.065,1.166,2.332.889,7,.468,8.65.322.177-.032.322-.032.421-.048C419.8,293.445,419.787,293.382,419.771,293.3Z" transform="translate(-391.62 -232.018)" opacity="0.2"/>
      <path id="Trazado_102421" data-name="Trazado 102421" d="M423.777,284.994c-.568-1.877-1.067-8.485-1.134-9.231-.13-1.782-.4-11.174-.4-12.293a5.059,5.059,0,0,0-2.479-4.324c-.89-.469-2.622-1-4.177-1.57-.227-.1-.456-.179-.665-.261a11.656,11.656,0,0,1-4.632,5.428,17.177,17.177,0,0,1,.549,2.153,54.237,54.237,0,0,1,.89,8.5c.017.307.017.616.017.922.017.909,0,1.8-.03,2.639,0,.21,0,.406-.018.616,0,.1-.015.2-.015.292-.276,4.469-.406,13.572-.534,16.761v.035c-.017.436-.033.745-.05.92a15.207,15.207,0,0,0,5.2.536c.306,0,.6-.017.873-.033a5.229,5.229,0,0,0,.534-.032c.681-.032,1.3-.08,1.749-.129.162-.017.307-.033.421-.033a.06.06,0,0,1,.033-.015.015.015,0,0,0,.017.015,1.8,1.8,0,0,1,.241-.032c-.063-.227-.112-.471-.177-.728a.951.951,0,0,0-.033-.114.45.45,0,0,0-.03-.115c-.065-.259-.18-.728-.326-1.294-.032-.114-.065-.244-.1-.372-.179-.663-.374-1.41-.568-2.121-.05-.2-.1-.391-.145-.585a.359.359,0,0,1-.033-.127c-.048-.149-.08-.277-.114-.423-.112-.421-.211-.793-.276-1.052-.015-.082-.033-.145-.047-.2a1.751,1.751,0,0,1-.065-.227c-.179-.615-.292-1.263-.471-1.764-.145-.438-.307-.972-.486-1.572-.082-.227-.145-.469-.21-.713-.177-.566-.341-1.182-.5-1.8v-.017c-.08-.274-.145-.551-.211-.827-.114-.421-.2-.842-.276-1.229a1.468,1.468,0,0,1-.065-.372,2.943,2.943,0,0,1-.065-.356l-.048-.342a19.809,19.809,0,0,1,.179-4.565c.1-.7.21-1.345.341-1.914a4.48,4.48,0,0,1,.112-.469,32.913,32.913,0,0,0,.955,4.894c.164.583.276,1.1.356,1.456.261,1.393-.08,4.987.05,6.252a39.476,39.476,0,0,0,.97,4.955q.148.606.292,1.214c.115.486.244.974.356,1.443a1.852,1.852,0,0,1,.082.291c.454,1.717.874,3.287,1.149,4.358.082.356.162.663.211.905a.458.458,0,0,1,.033.147c.082.017.162.048.259.064h.033a3.058,3.058,0,0,0,.566.1c.048,0,.114.017.177.017a5.523,5.523,0,0,0,.745.05,7.357,7.357,0,0,0,1.3-.115c.08-.015.16-.03.242-.048,0-.015.015-.047.015-.064,0-.276.017-.568.017-.877.017-.533.017-1.131.017-1.779v-.292C424.36,291.569,424.15,286.208,423.777,284.994Z" transform="translate(-391.723 -234.611)" fill="#ea6cb5"/>
      <path id="Trazado_102422" data-name="Trazado 102422" d="M419.614,279.936c-1.428.145-6.345.621-8.79-.277-.017.443-.035.77-.053.954,2.574.98,8.025.377,9.068.274-.055-.23-.11-.476-.172-.73C419.649,280.085,419.63,280.01,419.614,279.936Z" transform="translate(-391.399 -219.636)" fill="#c9388d"/>
      <path id="Trazado_102423" data-name="Trazado 102423" d="M420.16,281.513c-.007.316-.013.61-.025.875l0,.064a7.574,7.574,0,0,1-3.32-.058c-.013-.055-.023-.109-.035-.157-.052-.23-.129-.538-.22-.905a1.731,1.731,0,0,0,.255.09A8.759,8.759,0,0,0,420.16,281.513Z" transform="translate(-387.521 -218.516)" fill="#c9388d"/>
      <path id="Trazado_102424" data-name="Trazado 102424" d="M405.6,326.543h3.4c.591,0,1.669-1.079,1.735-2.9a12.226,12.226,0,0,0-.269-2.2,3.4,3.4,0,0,1-2.866,2.42,3.52,3.52,0,0,1-3.763-2.42,5.6,5.6,0,0,1-.1.581C403.3,323.871,404.121,326.543,405.6,326.543Z" transform="translate(-396.192 -191.627)" fill="#ea6cb5"/>
      <path id="Trazado_102425" data-name="Trazado 102425" d="M412.891,255.564a5.075,5.075,0,0,1-5.555,0c.15-.645.257-1.2.3-1.416h4.957C412.634,254.358,412.741,254.921,412.891,255.564Z" transform="translate(-393.701 -236.735)" opacity="0.2"/>
      <path id="Trazado_102426" data-name="Trazado 102426" d="M417.192,248.827c-.082-2.021-3.481-4.289-5.827-4.289s-5.747,2.268-5.829,4.289-.231,7.623.646,9.956a5.551,5.551,0,0,0,10.364,0C417.422,256.45,417.272,250.851,417.192,248.827Z" transform="translate(-394.95 -243.175)" fill="#ffb67f"/>
      <path id="Trazado_102427" data-name="Trazado 102427" d="M410.433,275.517c-.015-.356-.032-.712-.047-1.086-.033-.874-.033-1.78-.018-2.7a53.649,53.649,0,0,1,.94-9.393c-.1-.017-.194-.017-.291-.032a8.149,8.149,0,0,1-2.058-.5,4.536,4.536,0,0,1-.745-.356,3.539,3.539,0,0,1-.4-.259c-.033.939-.049,1.862-.082,2.753q-.048,1.117-.1,2.186c-.1,1.7-.21,3.287-.324,4.794-.114,1.395-.242,2.706-.387,3.918-.082.666-.164,1.314-.244,1.929-.017,0-.017,0,0,.015a4.022,4.022,0,0,1-.065.439c-.1.76-.194,1.49-.322,2.17-.1.68-.227,1.328-.341,1.926-.065.357-.129.7-.21,1.022-.1.436-.179.874-.276,1.278-.08.391-.179.762-.261,1.119a.062.062,0,0,0-.015.05c-.114.451-.227.889-.324,1.278,0,.032-.015.047-.032.08-.115.454-.244.875-.374,1.264a31.621,31.621,0,0,1-1.408,3.659c-.048.1-.08.179-.114.259h-.017c-.129.292-.259.536-.356.747-.065.112-.114.21-.162.291-.129.244-.244.454-.324.615a2.3,2.3,0,0,0-.08.324.146.146,0,0,0-.017.082.367.367,0,0,0-.033.129h.033c.2.017.5.048.922.082a36.553,36.553,0,0,0,5.021.162,10.541,10.541,0,0,0,3.095-.518c-.017-.212-.033-.6-.048-1.152C410.824,288.748,410.694,279.89,410.433,275.517Z" transform="translate(-397.313 -232.018)" opacity="0.2"/>
      <path id="Trazado_102428" data-name="Trazado 102428" d="M412.811,264.9a19.916,19.916,0,0,1,.566-2.153c-1.311-.65-4.032-3.305-4.647-5.428a.242.242,0,0,1-.1.035c-1.7.663-3.726,1.279-4.728,1.8a5.3,5.3,0,0,0-2.494,4.324c0,.924-.2,7.516-.326,10.771-.032.678-.065,1.214-.08,1.522,0,.145-.032.486-.065.972a63.619,63.619,0,0,1-1.069,8.259c-.372,1.214-.583,6.576-.6,10.544v.292c0,.648,0,1.246.017,1.779.017.309.017.6.033.877v.064a1.082,1.082,0,0,0,.242.033v.015a7.32,7.32,0,0,0,2.819-.048c.1-.015.177-.047.257-.064.017-.05.017-.1.033-.147.048-.242.129-.55.226-.905.21-.843.536-2.024.875-3.32.065-.276.147-.568.21-.858v-.033c.015-.032.032-.1.048-.145.082-.291.162-.6.244-.905.065-.26.144-.536.194-.828.1-.406.21-.81.292-1.214a39.828,39.828,0,0,0,.972-4.955c.065-.713,0-2.155-.017-3.529a15.03,15.03,0,0,1,.082-2.722c.064-.356.194-.874.339-1.456.242-.955.534-2.106.745-3.274a15.029,15.029,0,0,0,.21-1.62,23.769,23.769,0,0,1,.648,6.948c-.05.342-.115.747-.194,1.151v.018c-.18.855-.421,1.812-.681,2.751-.357,1.264-.728,2.479-1,3.305-.162.5-.292,1.149-.454,1.764,0,0-.825,3.095-1.343,5.054-.115.453-.21.858-.292,1.132-.017.082-.033.145-.05.21a1.854,1.854,0,0,0-.064.229c-.048.257-.114.5-.16.728a1.8,1.8,0,0,1,.24.032c.017-.015.017-.015.033,0h.017c.209.017.5.048.858.082a37.576,37.576,0,0,0,5.036.112,10.2,10.2,0,0,0,2.883-.5,7.823,7.823,0,0,1-.065-.907v-.048c-.112-3.188-.259-12.291-.518-16.761-.015-.259-.033-.519-.048-.76-.032-.892-.048-1.832-.015-2.788,0-.306,0-.615.015-.922A56.461,56.461,0,0,1,412.811,264.9Z" transform="translate(-399.106 -234.611)" fill="#ea6cb5"/>
      <path id="Trazado_102429" data-name="Trazado 102429" d="M410.871,280.611a10.2,10.2,0,0,1-2.883.5,37.587,37.587,0,0,1-5.036-.112c-.357-.033-.65-.065-.858-.082h-.017c-.017-.015-.017-.015-.033,0a1.8,1.8,0,0,0-.24-.032c.047-.227.112-.471.16-.728a1.873,1.873,0,0,1,.064-.229h.05a.535.535,0,0,0,.177.018h.018c.063.017.145.017.225.032a1.175,1.175,0,0,1,.226.032,39.02,39.02,0,0,0,5.037.147,11.2,11.2,0,0,0,2.9-.456h.017c.047-.013.08-.032.129-.048v.048A7.809,7.809,0,0,0,410.871,280.611Z" transform="translate(-397.409 -219.638)" fill="#c9388d"/>
      <path id="Trazado_102430" data-name="Trazado 102430" d="M402.892,281.335c-.1.356-.177.663-.225.905-.017.048-.017.1-.033.147-.08.017-.162.048-.257.063a7.318,7.318,0,0,1-2.819.048v-.015a1.083,1.083,0,0,1-.242-.034v-.063c-.017-.276-.017-.568-.033-.877a1.1,1.1,0,0,0,.244.035,8.581,8.581,0,0,0,3.077-.13h.032C402.747,281.382,402.827,281.35,402.892,281.335Z" transform="translate(-399.1 -218.513)" fill="#c9388d"/>
      <g id="Grupo_55705" data-name="Grupo 55705" transform="translate(14.642 15.677)">
        <path id="Trazado_102431" data-name="Trazado 102431" d="M410.2,253.388a.713.713,0,0,1-1.034,0c-.254,0-.83.073-1.174.055.048.279.7.648.954.758a1.759,1.759,0,0,0,1.475,0c.249-.11.907-.479.954-.758C411.025,253.461,410.449,253.388,410.2,253.388Z" transform="translate(-407.907 -252.921)" fill="#f9437d"/>
        <path id="Trazado_102432" data-name="Trazado 102432" d="M410.735,253.273a1.142,1.142,0,0,0-.666-.159,3.307,3.307,0,0,1-.357.112,3.458,3.458,0,0,1-.359-.112,1.142,1.142,0,0,0-.666.159,2.8,2.8,0,0,1-.747.332,1.48,1.48,0,0,0,.55.135c.182,0,.443-.135.595-.127s.434.184.628.184.464-.175.628-.184.413.127.595.127a1.479,1.479,0,0,0,.548-.135A2.776,2.776,0,0,1,410.735,253.273Z" transform="translate(-407.939 -253.108)" fill="#e33364"/>
      </g>
      <path id="Trazado_102433" data-name="Trazado 102433" d="M409.46,252.3a2.2,2.2,0,0,0-1.064-.06,2.015,2.015,0,0,1,1,.346.121.121,0,0,0,.135,0,2.016,2.016,0,0,1,1-.346A2.205,2.205,0,0,0,409.46,252.3Z" transform="translate(-392.99 -238.04)" fill="#ec8940"/>
      <path id="Trazado_102434" data-name="Trazado 102434" d="M417.927,281.439c-.174-.608-.291-1.259-.463-1.769a49.892,49.892,0,0,1-1.874-7.225,20.194,20.194,0,0,1,.194-4.581,8.622,8.622,0,0,0-.7,4.847c.276,2.076,3.853,12.76,3,14.853-.349.859-7.3.848-7.316.954,2.574.98,8.025.377,9.068.274-.055-.23-.11-.476-.172-.73S417.927,281.439,417.927,281.439Z" transform="translate(-391.399 -227.542)" fill="#c9388d" opacity="0.3"/>
      <path id="Trazado_102435" data-name="Trazado 102435" d="M409.59,249.512c-.05-.187.276-.3.947-.478a3.426,3.426,0,0,1,1.605-.16,1.815,1.815,0,0,1,1.1.586,4.582,4.582,0,0,0-1.436-.317c-.331.048-1.081.207-1.286.256S409.627,249.64,409.59,249.512Z" transform="translate(-392.194 -240.298)" fill="#f49200"/>
      <path id="Trazado_102436" data-name="Trazado 102436" d="M409.878,249.512c.05-.187-.276-.3-.945-.478a3.436,3.436,0,0,0-1.607-.16,1.827,1.827,0,0,0-1.1.586,4.573,4.573,0,0,1,1.436-.317c.331.048,1.079.207,1.286.256S409.843,249.64,409.878,249.512Z" transform="translate(-394.448 -240.298)" fill="#f49200"/>
      <g id="Grupo_55706" data-name="Grupo 55706" transform="translate(17.443 9.643)">
        <path id="Trazado_102437" data-name="Trazado 102437" d="M409.616,250.785a1.949,1.949,0,0,1,1.557-1.206,2.966,2.966,0,0,1,1.557.553A1.994,1.994,0,0,1,411.4,251.2,3.214,3.214,0,0,1,409.616,250.785Z" transform="translate(-409.616 -249.444)" fill="#fff"/>
        <path id="Trazado_102438" data-name="Trazado 102438" d="M411.69,250.388a.815.815,0,1,1-.815-.817A.816.816,0,0,1,411.69,250.388Z" transform="translate(-409.318 -249.444)" fill="#9fa24b"/>
        <path id="Trazado_102439" data-name="Trazado 102439" d="M411.084,250.214a.382.382,0,1,1-.383-.384A.384.384,0,0,1,411.084,250.214Z" transform="translate(-409.145 -249.271)"/>
        <path id="Trazado_102440" data-name="Trazado 102440" d="M410.4,249.979a.12.12,0,1,1,.12.119A.118.118,0,0,1,410.4,249.979Z" transform="translate(-409.088 -249.253)" fill="#fff"/>
        <path id="Trazado_102441" data-name="Trazado 102441" d="M412.729,249.933a3.941,3.941,0,0,1-.787-.287,2.137,2.137,0,0,0-.476-.137,1.08,1.08,0,0,0-.267-.008,2,2,0,0,0-.241.04,1.687,1.687,0,0,0-.862.473,2.48,2.48,0,0,0-.481.823,4.117,4.117,0,0,1,.6-.69,1.784,1.784,0,0,1,.79-.359,2.1,2.1,0,0,1,.217-.033,1.212,1.212,0,0,1,.2.007,2.127,2.127,0,0,1,.426.109,6.25,6.25,0,0,1,.833.371l.033.02.027-.01C413.048,250.13,413.033,249.993,412.729,249.933Z" transform="translate(-409.616 -249.495)" fill="#261113"/>
      </g>
      <g id="Grupo_55707" data-name="Grupo 55707" transform="translate(12.194 9.643)">
        <path id="Trazado_102442" data-name="Trazado 102442" d="M409.727,250.785a1.946,1.946,0,0,0-1.553-1.206,2.961,2.961,0,0,0-1.558.553,1.99,1.99,0,0,0,1.328,1.064A3.2,3.2,0,0,0,409.727,250.785Z" transform="translate(-406.378 -249.444)" fill="#fff"/>
        <path id="Trazado_102443" data-name="Trazado 102443" d="M407.059,250.388a.815.815,0,1,0,.817-.817A.817.817,0,0,0,407.059,250.388Z" transform="translate(-406.081 -249.444)" fill="#9fa24b"/>
        <path id="Trazado_102444" data-name="Trazado 102444" d="M407.317,250.214a.383.383,0,1,0,.386-.384A.385.385,0,0,0,407.317,250.214Z" transform="translate(-405.908 -249.271)"/>
        <path id="Trazado_102445" data-name="Trazado 102445" d="M407.785,249.979a.119.119,0,1,0-.119.119A.118.118,0,0,0,407.785,249.979Z" transform="translate(-405.753 -249.253)" fill="#fff"/>
        <path id="Trazado_102446" data-name="Trazado 102446" d="M406.71,249.933a4,4,0,0,0,.788-.287,2.073,2.073,0,0,1,.474-.137,1.073,1.073,0,0,1,.266-.008,1.923,1.923,0,0,1,.242.04,1.675,1.675,0,0,1,.86.473,2.425,2.425,0,0,1,.481.823,4.04,4.04,0,0,0-.6-.69,1.778,1.778,0,0,0-.788-.359,1.97,1.97,0,0,0-.217-.033,1.187,1.187,0,0,0-.2.007,2.139,2.139,0,0,0-.428.109,6.254,6.254,0,0,0-.833.371l-.035.02-.025-.01C406.391,250.13,406.406,249.993,406.71,249.933Z" transform="translate(-406.473 -249.495)" fill="#261113"/>
      </g>
      <path id="Trazado_102447" data-name="Trazado 102447" d="M421.022,277.661a8.211,8.211,0,0,0-4.864-5.074,8.117,8.117,0,0,0-2.94-.5c-1.655,0-3.055-.379-4.221.025a7.63,7.63,0,0,0-4.4,3.581v-.007c.082-.416.15-.807.2-1.157a23.728,23.728,0,0,0-.638-6.95c-.134-.807-.257-1.5-.5-2.811,1.221,2.711,2.829,4.571,4.142,4.571h9.151c2.168,0,3.923-2.5,4.456-4.394a22.358,22.358,0,0,1-.538,3.115,23.78,23.78,0,0,0-.521,6.469A27.789,27.789,0,0,0,421.022,277.661Z" transform="translate(-396.163 -229.619)" fill="#404040" opacity="0.2"/>
      <path id="Trazado_102448" data-name="Trazado 102448" d="M409.279,247.968c-1.63.668-3.384,4.09-3.173,8.992-2.387-2.721-1.593-7.531-.242-10.036.945-1.755,3.269-3.187,4.279-2.617S410.1,247.634,409.279,247.968Z" transform="translate(-395.551 -243.415)" fill="#fed756"/>
      <path id="Trazado_102449" data-name="Trazado 102449" d="M408.278,244.5a2.237,2.237,0,0,0-.392,3.568c1.473,1.244,4.421.768,5.363,1.612,2.317,2.059,2.624,6.612,2.834,7.307,1.017-1.471,1.324-5.056.917-7.77a5.766,5.766,0,0,0-4.859-4.9C409.575,244.065,409.154,244.028,408.278,244.5Z" transform="translate(-393.831 -243.445)" fill="#fed756"/>
    </g>
    <g id="Grupo_55717" data-name="Grupo 55717" transform="translate(1266.795 1519.867)">
      <path id="Trazado_102243" data-name="Trazado 102243" d="M406.947,133.7a6.977,6.977,0,0,1,6.751-1.339,21.328,21.328,0,0,1,5.236,3.916c.691.955.344,2.673.82,3.151s1.73,2.528,1.3,4.152-2.119,3.1-2.25,4.01,0,2.1-.648,2.719-1.6.43-2.036.859-.042,1.194-.517,1.481-1.166,0-1.558.285a2.667,2.667,0,0,0-.737,1.339c-.432-.191-1.124-2.628-2.682-3.151s-2.856,1.956-2.552,2.767c-.692.287-.736-.811-1.126-1a1.924,1.924,0,0,0-1.427.191c-.216-.237.345-1.192,0-1.67s-1.687-.285-2.206-.858-.305-1.528-.737-2.2-2.465-2.483-2.38-4.488a9.644,9.644,0,0,1,1.428-4.724c.822-1.481.606-3.533,1.689-4.488A4.02,4.02,0,0,1,406.947,133.7Z" transform="translate(-395.071 -131.984)" fill="#7f3323"/>
      <path id="Trazado_102244" data-name="Trazado 102244" d="M413.055,218.387h-3.24c-.564,0-1.589-1.027-1.653-2.758a11.627,11.627,0,0,1,.258-2.093,3.235,3.235,0,0,0,2.728,2.306,3.353,3.353,0,0,0,3.584-2.306,5.307,5.307,0,0,0,.1.552C415.251,215.843,414.466,218.387,413.055,218.387Z" transform="translate(-390.752 -87.759)" fill="#404040"/>
      <path id="Trazado_102245" data-name="Trazado 102245" d="M425.581,200.715c-.6-.284,1.539-3.973.9-4.294s-.833.964-.7,1.538-.578.834-.77-.128a16.233,16.233,0,0,1,.64-4.741c.256-.771-1.089-7.5-1.73-8.589a34.71,34.71,0,0,1-1.858-8.78,31.411,31.411,0,0,0-.065-6.023c-.255-1.346-1.343-4.744-1.28-7.178-.706,1.151-1.282,5.893-1.024,7.818a46.426,46.426,0,0,0,1.794,6.92c1.046,3.151,2.25,8.84,2.691,10.447,1.473,5.384-.833,16.729-1.346,19.869a21.3,21.3,0,0,0,.319,8.074c.514,2.949.194,13.3-.443,16.444s-2.762,11.371-2.378,12.716c.342,1.2.3,4.644.527,6.367a3.35,3.35,0,0,1-3.583,2.306,3.239,3.239,0,0,1-2.73-2.306c.5-2.748,1.573-6.934,1.573-8.041,0-1.476-.645-13-.837-14.988s.5-9.252.432-10.855-.25-10.165-1.149-13.689-1.024-11.988-1.024-13.2h-2.053c0,1.215-.128,9.676-1.024,13.2s-1.086,12.087-1.151,13.689.625,8.867.433,10.855-.837,13.512-.837,14.988c0,1.107,1.067,5.293,1.572,8.041a3.235,3.235,0,0,1-2.728,2.306,3.351,3.351,0,0,1-3.584-2.306c.224-1.723.185-5.168.527-6.367.382-1.345-1.735-9.576-2.378-12.716s-.958-13.495-.443-16.444a21.267,21.267,0,0,0,.318-8.074c-.514-3.14-2.818-14.485-1.345-19.869.441-1.607,1.647-7.3,2.691-10.447a46.627,46.627,0,0,0,1.794-6.92c.258-1.925-.319-6.667-1.024-7.818.063,2.434-1.027,5.831-1.28,7.178a31.421,31.421,0,0,0-.065,6.023,34.644,34.644,0,0,1-1.86,8.78c-.64,1.092-1.986,7.818-1.729,8.589a16.34,16.34,0,0,1,.64,4.741c-.191.962-.9.706-.77.128s-.063-1.857-.7-1.538,1.5,4.01.9,4.294c-1.089.514-3.078-3.461-2.435-7.115a10.664,10.664,0,0,0,.384-4.164c-.256-2.116-.065-12.178.449-13.844a68.069,68.069,0,0,0,1.089-8.843c.128-1.732.384-10.7.384-11.729a4.562,4.562,0,0,1,2.242-3.91c1.729-.9,6.411-2.691,7.309-3.075.383-.164.757-1.481,1.007-2.56.143-.612.245-1.146.284-1.349h4.722c.039.2.142.739.285,1.353.25,1.076.623,2.394,1.007,2.557.9.384,5.577,2.178,7.307,3.075a4.562,4.562,0,0,1,2.242,3.91c0,1.026.256,10,.384,11.729a68.048,68.048,0,0,0,1.089,8.843c.514,1.666.7,11.728.449,13.844a10.633,10.633,0,0,0,.384,4.164C428.659,197.255,426.67,201.229,425.581,200.715Z" transform="translate(-396.873 -125.4)" fill="#ffb67f"/>
      <path id="Trazado_102246" data-name="Trazado 102246" d="M421.923,201.709c.514,2.949.194,13.3-.446,16.445s-2.761,11.368-2.378,12.715c-1.5.8-4.209-.569-4.209-1.675,0-1.478-.646-13-.837-14.986s.5-9.254.43-10.855-.248-10.165-1.149-13.691-1.026-11.99-1.026-13.2h-2.051c0,1.214-.128,9.676-1.026,13.2s-1.084,12.088-1.149,13.691.626,8.865.432,10.855-.837,13.509-.837,14.986c0,1.106-2.491,2.522-4.212,1.675.383-1.346-1.734-9.576-2.377-12.715s-.959-13.5-.446-16.445a21.168,21.168,0,0,0,.319-8.072c-.514-3.143-2.819-14.487-1.345-19.869.191-.7.527-2.159.928-3.848,2.7,1.252,18.247,1.226,21.455-.088.41,1.726.754,3.226.948,3.936,1.473,5.383-.831,16.726-1.346,19.869A21.2,21.2,0,0,0,421.923,201.709Z" transform="translate(-395.648 -111.46)" fill="#2f79bb"/>
      <g id="Grupo_55665" data-name="Grupo 55665" transform="translate(7.817 58.372)">
        <path id="Trazado_102247" data-name="Trazado 102247" d="M408.135,173.741c0,1.214-.128,9.678-1.026,13.2s-1.086,12.09-1.147,13.692.625,8.864.43,10.853-1.285,12.841-1.285,14.319c0,.975-1.485,2.855-3.122,2.551a1.587,1.587,0,0,1-.045.39c1.721.847,4.212-.569,4.212-1.675,0-1.478.646-13,.837-14.986s-.5-9.254-.432-10.855.25-10.165,1.149-13.691,1.026-11.99,1.026-13.2h1.459C410.188,174.073,408.135,173.741,408.135,173.741Z" transform="translate(-401.941 -167.712)" fill="#225887"/>
        <path id="Trazado_102248" data-name="Trazado 102248" d="M416,193.637c.515-3.143,2.819-14.487,1.346-19.869-.194-.709-.538-2.21-.948-3.936-.122.051-.265.1-.423.145.332,1.407.606,2.588.773,3.193,1.474,5.383-.831,16.726-1.346,19.869a21.2,21.2,0,0,0,.321,8.072c.514,2.949.194,13.3-.446,16.444s-2.289,10.481-2.838,11.768c-.443,1.036-2.054,1.055-2.969.389.623.956,2.754,1.834,4.027,1.158-.383-1.346,1.735-9.576,2.378-12.715s.959-13.5.446-16.445A21.2,21.2,0,0,1,416,193.637Z" transform="translate(-397.86 -169.832)" fill="#225887"/>
      </g>
      <path id="Trazado_102249" data-name="Trazado 102249" d="M420.877,179.993c-3.834,1.1-17.051,1.127-20.538.093,1.471-3.038,4.2-10.372,4.656-28.7a6.9,6.9,0,0,0,3.336,1.089,29.29,29.29,0,0,0,4.594,0,6.9,6.9,0,0,0,3.338-1.089C416.717,169.526,419.393,176.9,420.877,179.993Z" transform="translate(-394.994 -121.462)" fill="#e6e6e6"/>
      <path id="Trazado_102250" data-name="Trazado 102250" d="M417.3,181.645c-.81-1.67-4.891-7.454-5.463-30.258a6.89,6.89,0,0,1-3.336,1.089,54.2,54.2,0,0,1,.844,12.551c-.29,4.857-.416,15.435-.555,16.88,2.451.935,7.644.358,8.635.259C417.381,182,417.341,181.827,417.3,181.645Z" transform="translate(-390.568 -121.462)" opacity="0.2"/>
      <path id="Trazado_102251" data-name="Trazado 102251" d="M421.756,183.8c-.009-3.785-.21-8.887-.566-10.048a71.216,71.216,0,0,1-1.08-8.791c-.125-1.7-.384-10.634-.384-11.711a4.814,4.814,0,0,0-2.369-4.115c-.973-.509-2.966-1.084-4.6-1.74a11.214,11.214,0,0,1-4.423,5.174,40.979,40.979,0,0,1,1.374,10.14c.034,1.164.034,2.312-.006,3.393-.009.293-.021.578-.04.859-.288,4.855-.415,15.435-.554,16.879,2.451.936,7.643.361,8.634.259-.052-.214-.1-.452-.163-.692s-1.656-6.3-1.656-6.3c-.164-.581-.278-1.2-.44-1.684-.31-.936-.768-2.421-1.149-3.893a26.285,26.285,0,0,1-.635-2.986,22.578,22.578,0,0,1,.5-6.161c.039-.16.074-.315.113-.458a31.9,31.9,0,0,0,.915,4.661c.143.56.261,1.049.329,1.386.251,1.326-.065,4.752.059,5.959.288,2.8,2.006,8.958,2.7,11.664.088.352.162.643.211.864.009.046.022.1.034.15a7.23,7.23,0,0,0,3.162.057c0-.022,0-.043,0-.062.008-.253.014-.532.023-.834.011-.511.014-1.083.014-1.7C421.759,183.979,421.759,183.892,421.756,183.8Z" transform="translate(-390.657 -123.627)" fill="#9fa24b"/>
      <path id="Trazado_102252" data-name="Trazado 102252" d="M417.258,170.7c-1.36.139-6.043.592-8.372-.262-.017.419-.032.731-.049.907,2.451.935,7.642.359,8.634.259-.052-.217-.106-.452-.163-.694C417.29,170.843,417.275,170.771,417.258,170.7Z" transform="translate(-390.385 -111.131)" fill="#858839"/>
      <path id="Trazado_102253" data-name="Trazado 102253" d="M418.236,172.335c-.008.3-.014.58-.023.834l0,.062a7.214,7.214,0,0,1-3.163-.059c-.012-.051-.022-.1-.034-.147-.048-.221-.122-.514-.21-.864a1.626,1.626,0,0,0,.244.086A8.309,8.309,0,0,0,418.236,172.335Z" transform="translate(-387.149 -110.196)" fill="#858839"/>
      <path id="Trazado_102254" data-name="Trazado 102254" d="M403.35,218.387h3.24c.564,0,1.589-1.027,1.653-2.758a11.633,11.633,0,0,0-.258-2.093,3.233,3.233,0,0,1-2.728,2.306,3.351,3.351,0,0,1-3.583-2.306c-.029.213-.062.4-.1.552C401.154,215.843,401.939,218.387,403.35,218.387Z" transform="translate(-394.384 -87.759)" fill="#404040"/>
      <path id="Trazado_102255" data-name="Trazado 102255" d="M410.587,145.479a4.835,4.835,0,0,1-5.292,0c.143-.612.245-1.146.284-1.349H410.3C410.34,144.33,410.443,144.865,410.587,145.479Z" transform="translate(-392.306 -125.4)" opacity="0.2"/>
      <path id="Trazado_102256" data-name="Trazado 102256" d="M414.533,138.3c-.077-1.926-3.314-4.084-5.549-4.084s-5.474,2.158-5.551,4.084-.221,7.258.615,9.482a5.285,5.285,0,0,0,9.867,0C414.754,145.561,414.61,140.231,414.533,138.3Z" transform="translate(-393.348 -130.772)" fill="#ffb67f"/>
      <path id="Trazado_102257" data-name="Trazado 102257" d="M408.659,152.476a6.9,6.9,0,0,1-3.338-1.089c-.571,22.846-4.668,28.611-5.463,30.267-.045.177-.083.347-.123.512.993.1,6.183.676,8.635-.259-.139-1.445-.267-12.024-.554-16.88A54.037,54.037,0,0,1,408.659,152.476Z" transform="translate(-395.321 -121.462)" opacity="0.2"/>
      <path id="Trazado_102258" data-name="Trazado 102258" d="M409.042,166.236c-.045-1.118-.045-2.315-.009-3.526a41,41,0,0,1,1.373-10.14,11.206,11.206,0,0,1-4.423-5.174c-1.632.655-3.624,1.231-4.6,1.74a4.812,4.812,0,0,0-2.367,4.115c0,1.077-.259,10.011-.384,11.711a71.545,71.545,0,0,1-1.08,8.791c-.358,1.161-.56,6.263-.569,10.048,0,.093,0,.18,0,.27,0,.614,0,1.186.014,1.7.009.3.015.581.025.834,0,.018,0,.04,0,.062a7.234,7.234,0,0,0,3.162-.057c.011-.054.02-.1.032-.15.049-.221.123-.512.213-.864.694-2.707,2.412-8.86,2.7-11.664.126-1.208-.19-4.633.062-5.959.065-.338.185-.827.329-1.386.225-.913.5-2.008.7-3.109.094-.523.171-1.047.214-1.552a22.513,22.513,0,0,1,.609,6.619c-.043.332-.108.7-.188,1.1v.006a57.706,57.706,0,0,1-1.6,5.773c-.16.484-.275,1.1-.436,1.684,0,0-1.6,6.057-1.658,6.3s-.111.478-.164.692c.99.1,6.185.677,8.635-.259-.139-1.444-.265-12.024-.555-16.879C409.062,166.726,409.051,166.481,409.042,166.236Z" transform="translate(-396.814 -123.627)" fill="#9fa24b"/>
      <path id="Trazado_102259" data-name="Trazado 102259" d="M399.8,170.7c1.359.139,6.043.592,8.368-.262.017.419.035.731.052.907-2.452.935-7.643.359-8.635.259.052-.217.106-.452.164-.694C399.765,170.843,399.782,170.771,399.8,170.7Z" transform="translate(-395.402 -111.131)" fill="#858839"/>
      <path id="Trazado_102260" data-name="Trazado 102260" d="M396.991,172.335c.006.3.014.58.023.834,0,.018,0,.04,0,.062a7.215,7.215,0,0,0,3.163-.059c.011-.051.02-.1.032-.147.048-.221.122-.514.21-.864a1.662,1.662,0,0,1-.242.086A8.317,8.317,0,0,1,396.991,172.335Z" transform="translate(-396.809 -110.196)" fill="#858839"/>
      <g id="Grupo_55666" data-name="Grupo 55666" transform="translate(13.949 17.076)">
        <path id="Trazado_102261" data-name="Trazado 102261" d="M408.068,143.345a.682.682,0,0,1-.984,0c-.241,0-.79.071-1.117.052.043.267.671.615.907.723a1.7,1.7,0,0,0,1.407,0c.234-.108.861-.457.905-.723C408.859,143.416,408.31,143.345,408.068,143.345Z" transform="translate(-405.89 -142.9)" fill="#f9437d"/>
        <path id="Trazado_102262" data-name="Trazado 102262" d="M408.581,143.213a1.106,1.106,0,0,0-.637-.151,3.345,3.345,0,0,1-.339.106,3.142,3.142,0,0,1-.341-.106,1.1,1.1,0,0,0-.635.151,2.648,2.648,0,0,1-.711.318,1.424,1.424,0,0,0,.521.128c.174,0,.423-.128.568-.12s.413.173.6.173.443-.165.6-.173.393.12.568.12a1.416,1.416,0,0,0,.521-.128A2.579,2.579,0,0,1,408.581,143.213Z" transform="translate(-405.917 -143.056)" fill="#e33364"/>
      </g>
      <path id="Trazado_102263" data-name="Trazado 102263" d="M407.4,142.213a2.062,2.062,0,0,0-1.012-.057,1.934,1.934,0,0,1,.947.327.109.109,0,0,0,.13,0,1.934,1.934,0,0,1,.948-.327A2.068,2.068,0,0,0,407.4,142.213Z" transform="translate(-391.712 -126.488)" fill="#ec8940"/>
      <path id="Trazado_102264" data-name="Trazado 102264" d="M415.651,171.2c-.165-.58-.278-1.2-.438-1.684a47.409,47.409,0,0,1-1.787-6.879,19.336,19.336,0,0,1,.187-4.365,8.222,8.222,0,0,0-.671,4.616c.264,1.977,3.672,12.15,2.861,14.146-.33.816-6.954.807-6.965.907,2.451.935,7.642.359,8.634.259-.052-.217-.106-.452-.163-.694S415.651,171.2,415.651,171.2Z" transform="translate(-390.385 -117.728)" fill="#858839" opacity="0.3"/>
      <path id="Trazado_102265" data-name="Trazado 102265" d="M407.619,139.293c-.048-.177.262-.282.9-.455a3.249,3.249,0,0,1,1.528-.151,1.718,1.718,0,0,1,1.052.557,4.386,4.386,0,0,0-1.368-.3c-.315.046-1.029.2-1.225.244S407.654,139.416,407.619,139.293Z" transform="translate(-391.048 -128.372)" fill="#60100e"/>
      <path id="Trazado_102266" data-name="Trazado 102266" d="M407.628,139.293c.049-.177-.262-.282-.9-.455a3.253,3.253,0,0,0-1.53-.151,1.724,1.724,0,0,0-1.052.557,4.4,4.4,0,0,1,1.37-.3c.315.046,1.027.2,1.225.244S407.594,139.416,407.628,139.293Z" transform="translate(-392.929 -128.372)" fill="#60100e"/>
      <g id="Grupo_55667" data-name="Grupo 55667" transform="translate(16.615 11.33)">
        <path id="Trazado_102267" data-name="Trazado 102267" d="M407.646,140.564a1.856,1.856,0,0,1,1.482-1.147,2.819,2.819,0,0,1,1.482.527,1.9,1.9,0,0,1-1.263,1.012A3.066,3.066,0,0,1,407.646,140.564Z" transform="translate(-407.646 -139.287)" fill="#fff"/>
        <path id="Trazado_102268" data-name="Trazado 102268" d="M409.656,140.185a.777.777,0,1,1-.776-.776A.777.777,0,0,1,409.656,140.185Z" transform="translate(-407.398 -139.287)" fill="#9fa24b"/>
        <path id="Trazado_102269" data-name="Trazado 102269" d="M409.1,140.04a.365.365,0,1,1-.366-.364A.365.365,0,0,1,409.1,140.04Z" transform="translate(-407.253 -139.143)"/>
        <path id="Trazado_102270" data-name="Trazado 102270" d="M408.459,139.818a.114.114,0,1,1,.114.114A.113.113,0,0,1,408.459,139.818Z" transform="translate(-407.205 -139.127)" fill="#fff"/>
        <path id="Trazado_102271" data-name="Trazado 102271" d="M410.61,139.748a3.715,3.715,0,0,1-.75-.275,1.918,1.918,0,0,0-.453-.13.963.963,0,0,0-.251-.009,2.2,2.2,0,0,0-.231.039,1.616,1.616,0,0,0-.82.449,2.426,2.426,0,0,0-.458.785,3.977,3.977,0,0,1,.577-.657,1.683,1.683,0,0,1,.753-.341,1.983,1.983,0,0,1,.207-.032,1.057,1.057,0,0,1,.194.008,2.211,2.211,0,0,1,.4.1,6.081,6.081,0,0,1,.794.356l.032.019.025-.009C410.916,139.936,410.9,139.8,410.61,139.748Z" transform="translate(-407.646 -139.33)" fill="#261113"/>
      </g>
      <g id="Grupo_55668" data-name="Grupo 55668" transform="translate(11.617 11.33)">
        <path id="Trazado_102272" data-name="Trazado 102272" d="M407.516,140.564a1.859,1.859,0,0,0-1.482-1.147,2.819,2.819,0,0,0-1.482.527,1.9,1.9,0,0,0,1.263,1.012A3.068,3.068,0,0,0,407.516,140.564Z" transform="translate(-404.325 -139.287)" fill="#fff"/>
        <path id="Trazado_102273" data-name="Trazado 102273" d="M405.009,140.185a.776.776,0,1,0,.777-.776A.778.778,0,0,0,405.009,140.185Z" transform="translate(-404.078 -139.287)" fill="#9fa24b"/>
        <path id="Trazado_102274" data-name="Trazado 102274" d="M405.276,140.04a.365.365,0,1,0,.366-.364A.365.365,0,0,0,405.276,140.04Z" transform="translate(-403.933 -139.143)"/>
        <ellipse id="Elipse_1398" data-name="Elipse 1398" cx="0.114" cy="0.114" rx="0.114" ry="0.114" transform="translate(1.708 0.577)" fill="#fff"/>
        <path id="Trazado_102275" data-name="Trazado 102275" d="M404.632,139.748a3.753,3.753,0,0,0,.75-.275,1.886,1.886,0,0,1,.452-.13.975.975,0,0,1,.253-.009,2.167,2.167,0,0,1,.23.039,1.621,1.621,0,0,1,.822.449,2.4,2.4,0,0,1,.458.785,4.049,4.049,0,0,0-.577-.657,1.682,1.682,0,0,0-.753-.341,1.95,1.95,0,0,0-.208-.032,1.019,1.019,0,0,0-.191.008,2.195,2.195,0,0,0-.406.1,6.073,6.073,0,0,0-.794.356l-.032.019-.025-.009C404.326,139.936,404.34,139.8,404.632,139.748Z" transform="translate(-404.405 -139.33)" fill="#261113"/>
      </g>
      <path id="Trazado_102276" data-name="Trazado 102276" d="M418.037,167.36a7.817,7.817,0,0,0-4.631-4.832,7.687,7.687,0,0,0-2.8-.481c-1.576,0-2.909-.361-4.018.023a7.268,7.268,0,0,0-4.189,3.41v-.006c.08-.4.145-.768.188-1.1a22.513,22.513,0,0,0-.609-6.619c-.126-.768-.244-1.433-.47-2.679,1.163,2.583,2.694,4.354,3.944,4.354h8.715c2.065,0,3.735-2.38,4.243-4.184a21.221,21.221,0,0,1-.51,2.967,22.581,22.581,0,0,0-.5,6.161A26.3,26.3,0,0,0,418.037,167.36Z" transform="translate(-394.36 -119.462)" fill="#404040" opacity="0.2"/>
      <path id="Trazado_102277" data-name="Trazado 102277" d="M410.641,137.392a9.028,9.028,0,0,0,3.185,3.206c.93.563,1.181,1.866,1.515,2.531,2.287-3.575-.791-8.3-3.745-9.13-2.468-.7-7.193.979-8.4,3.6s-.063,4.409.1,5.531c.874-1.121,1.269-2.09,1.519-2.256a3.651,3.651,0,0,0,.082,1.248,5.3,5.3,0,0,1,2.787-2.662C409.058,139.043,410.307,138.513,410.641,137.392Z" transform="translate(-393.74 -130.977)" fill="#7f3323"/>
    </g>
  </g>
</svg>
