<svg xmlns="http://www.w3.org/2000/svg" width="400" height="212.032" viewBox="0 0 400 212.032">
  <g id="Grupo_54930" data-name="Grupo 54930" transform="translate(-600 -1053)">
    <g id="Grupo_54352" data-name="Grupo 54352" transform="translate(-2628.629 -1817.256)">
      <circle id="Elipse_4069-3" data-name="Elipse 4069-3" cx="106.016" cy="106.016" r="106.016" transform="translate(3322.63 2870.256)" fill="#fff" opacity="0"/>
      <g id="Grupo_54351" data-name="Grupo 54351" transform="translate(0 -1)">
        <g id="Grupo_54263" data-name="Grupo 54263">
          <path id="Trazado_101346" data-name="Trazado 101346" d="M3349.815,2967.227a.863.863,0,0,1-.122-.01.787.787,0,0,1-.656-.9,81.373,81.373,0,0,1,1.89-8.828.786.786,0,1,1,1.517.415,79.936,79.936,0,0,0-1.853,8.656A.787.787,0,0,1,3349.815,2967.227ZM3354.52,2950a.787.787,0,0,1-.73-1.077,80.985,80.985,0,0,1,3.8-8.188.787.787,0,0,1,1.388.741,79.251,79.251,0,0,0-3.729,8.028A.786.786,0,0,1,3354.52,2950Zm8.415-15.743a.786.786,0,0,1-.647-1.232,80.82,80.82,0,0,1,5.528-7.136.786.786,0,1,1,1.187,1.031,79.4,79.4,0,0,0-5.42,7A.785.785,0,0,1,3362.935,2934.262Zm11.7-13.478a.786.786,0,0,1-.533-1.365q.4-.372.813-.739c1.963-1.76,4.034-3.442,6.155-5a.787.787,0,0,1,.931,1.268c-2.08,1.527-4.111,3.177-6.036,4.9q-.4.36-.8.725A.783.783,0,0,1,3374.637,2920.784Zm14.391-10.566a.787.787,0,0,1-.393-1.469,81,81,0,0,1,8.065-4.056.786.786,0,1,1,.627,1.442,79.516,79.516,0,0,0-7.908,3.978A.783.783,0,0,1,3389.028,2910.218Z" fill="#003887"/>
        </g>
        <g id="Grupo_54264" data-name="Grupo 54264">
          <path id="Trazado_101347" data-name="Trazado 101347" d="M3433.247,3059.543a.787.787,0,0,1-.041-1.572,79.119,79.119,0,0,0,8.8-.97.786.786,0,1,1,.26,1.551,80.575,80.575,0,0,1-8.974.99Zm-8.938-.02h-.046c-1.234-.071-2.481-.172-3.706-.3-1.759-.182-3.53-.423-5.266-.717a.786.786,0,0,1,.262-1.551c1.7.288,3.441.525,5.165.7,1.2.124,2.425.223,3.635.293a.786.786,0,0,1-.044,1.571Zm-17.606-2.981a.81.81,0,0,1-.217-.03,80.6,80.6,0,0,1-8.528-2.966.786.786,0,1,1,.6-1.454,79.3,79.3,0,0,0,8.36,2.907.787.787,0,0,1-.215,1.543Zm-16.5-6.806a.772.772,0,0,1-.379-.1,80.164,80.164,0,0,1-7.645-4.8.787.787,0,1,1,.911-1.283,78.354,78.354,0,0,0,7.494,4.707.787.787,0,0,1-.381,1.475Zm-14.554-10.329a.783.783,0,0,1-.524-.2,81.929,81.929,0,0,1-6.383-6.38.786.786,0,0,1,1.172-1.049,80.277,80.277,0,0,0,6.259,6.256.787.787,0,0,1-.524,1.373Zm-11.912-13.293a.787.787,0,0,1-.641-.328,81.827,81.827,0,0,1-4.84-7.621.787.787,0,0,1,1.373-.768,80.217,80.217,0,0,0,4.746,7.473.786.786,0,0,1-.638,1.244Z" fill="#003887"/>
        </g>
        <g id="Grupo_54265" data-name="Grupo 54265">
          <path id="Trazado_101348" data-name="Trazado 101348" d="M3497.239,3021.251a.786.786,0,0,1-.671-1.2,79.159,79.159,0,0,0,4.174-7.8.786.786,0,1,1,1.426.662,80.59,80.59,0,0,1-4.257,7.961A.784.784,0,0,1,3497.239,3021.251Zm7.523-16.189a.777.777,0,0,1-.25-.041.786.786,0,0,1-.5-1,79.637,79.637,0,0,0,2.335-8.539.786.786,0,1,1,1.538.329,81.26,81.26,0,0,1-2.381,8.709A.787.787,0,0,1,3504.762,3005.062Zm3.743-17.457a.728.728,0,0,1-.08,0,.787.787,0,0,1-.7-.861c.268-2.672.4-5.381.4-8.051,0-.265,0-.529,0-.794a.787.787,0,0,1,1.573-.015q0,.4,0,.809c0,2.722-.138,5.484-.412,8.208A.786.786,0,0,1,3508.5,2987.6Zm-.185-17.85a.787.787,0,0,1-.78-.691,78.615,78.615,0,0,0-1.567-8.71.786.786,0,1,1,1.53-.365,80.583,80.583,0,0,1,1.6,8.884.787.787,0,0,1-.685.876A.819.819,0,0,1,3508.32,2969.755Zm-4.148-17.36a.788.788,0,0,1-.74-.518,78.623,78.623,0,0,0-3.482-8.138.786.786,0,1,1,1.409-.7,80.229,80.229,0,0,1,3.552,8.3.786.786,0,0,1-.739,1.055Zm-7.933-15.993a.786.786,0,0,1-.662-.36,80.836,80.836,0,0,0-5.2-7.168.786.786,0,1,1,1.22-.992,82.191,82.191,0,0,1,5.3,7.308.786.786,0,0,1-.66,1.212Z" fill="#003887"/>
        </g>
        <circle id="Elipse_4079" data-name="Elipse 4079" cx="59.155" cy="59.155" r="59.155" transform="translate(3369.721 2919.685)" fill="#4fa3b1"/>
        <g id="Grupo_54266" data-name="Grupo 54266">
          <path id="Trazado_101349" data-name="Trazado 101349" d="M3395.039,2946.016h-28.578a4.72,4.72,0,0,0-4.716,4.725v59.277a4.72,4.72,0,0,0,4.716,4.725h28.578a4.72,4.72,0,0,0,4.716-4.725v-59.277A4.72,4.72,0,0,0,3395.039,2946.016Z" fill="#5d9af0"/>
          <path id="Trazado_101350" data-name="Trazado 101350" d="M3395.039,3015.53h-28.578a5.513,5.513,0,0,1-5.5-5.512v-59.277a5.513,5.513,0,0,1,5.5-5.512h28.578a5.514,5.514,0,0,1,5.5,5.512v59.277A5.514,5.514,0,0,1,3395.039,3015.53Zm-28.578-68.728a3.939,3.939,0,0,0-3.929,3.939v59.277a3.939,3.939,0,0,0,3.929,3.939h28.578a3.939,3.939,0,0,0,3.93-3.939v-59.277a3.939,3.939,0,0,0-3.93-3.939Z" fill="#003887"/>
        </g>
        <g id="Grupo_54267" data-name="Grupo 54267">
          <path id="Trazado_101351" data-name="Trazado 101351" d="M3367.406,2950.386a1.94,1.94,0,0,0-1.92,1.959v55.781a1.94,1.94,0,0,0,1.92,1.959h26.406a1.939,1.939,0,0,0,1.92-1.959v-55.781a1.94,1.94,0,0,0-1.92-1.959Z" fill="#fff"/>
          <path id="Trazado_101352" data-name="Trazado 101352" d="M3393.813,3010.871h-26.407a2.729,2.729,0,0,1-2.706-2.745v-55.781a2.748,2.748,0,0,1,.787-1.936,2.666,2.666,0,0,1,1.918-.809h26.407a2.667,2.667,0,0,1,1.919.81,2.745,2.745,0,0,1,.788,1.935v55.781A2.729,2.729,0,0,1,3393.813,3010.871Zm-26.408-59.7a1.108,1.108,0,0,0-.795.337,1.189,1.189,0,0,0-.337.835v55.781a1.154,1.154,0,0,0,1.133,1.172h26.407a1.155,1.155,0,0,0,1.133-1.172v-55.781a1.182,1.182,0,0,0-.338-.834,1.106,1.106,0,0,0-.8-.338h-26.407Z" fill="#003887"/>
        </g>
        <g id="Grupo_54274" data-name="Grupo 54274">
          <g id="Grupo_54273" data-name="Grupo 54273">
            <g id="Grupo_54272" data-name="Grupo 54272">
              <g id="Grupo_54270" data-name="Grupo 54270">
                <g id="Grupo_54268" data-name="Grupo 54268">
                  <path id="Trazado_101353" data-name="Trazado 101353" d="M3382.561,2981.435l0,22.541c0,1.01-.527,1.911-1.493,1.912l-35.155.03a1.418,1.418,0,0,1-1.536-1.576l.009-22.907Z" fill="#ffce3b"/>
                  <path id="Trazado_101354" data-name="Trazado 101354" d="M3345.914,3006.705a2.2,2.2,0,0,1-2.32-2.362l.008-22.908a.786.786,0,0,1,1.573,0l-.008,22.908c0,.654.3.789.746.789l35.157-.031c.559,0,.707-.707.707-1.125l0-22.541a.786.786,0,0,1,1.573,0l0,22.54a2.432,2.432,0,0,1-2.278,2.7l-35.155.031Z" fill="#003887"/>
                </g>
                <g id="Grupo_54269" data-name="Grupo 54269">
                  <path id="Trazado_101355" data-name="Trazado 101355" d="M3359.4,2992.425l-14.878-10.567a.5.5,0,0,1,.044-.73l16.539-13.706a2.986,2.986,0,0,1,1.824-.623l.837,0a2.969,2.969,0,0,1,1.835.632l16.785,13.663a.5.5,0,0,1,.04.73l-14.73,10.806Z" fill="#ffce3b"/>
                  <path id="Trazado_101356" data-name="Trazado 101356" d="M3367.694,2993.414a.786.786,0,0,1-.466-1.42l14.36-10.535-16.487-13.42a2.212,2.212,0,0,0-1.338-.456l-.835,0a2.22,2.22,0,0,0-1.295.416l-16.274,13.488,14.494,10.294a.786.786,0,0,1-.911,1.282l-14.879-10.567a.8.8,0,0,1-.111-.1,1.284,1.284,0,0,1,.113-1.884l16.535-13.7a3.724,3.724,0,0,1,2.326-.8l.834,0a3.74,3.74,0,0,1,2.372.841l16.747,13.631a1.283,1.283,0,0,1,.108,1.887.69.69,0,0,1-.1.087l-14.729,10.806A.783.783,0,0,1,3367.694,2993.414Z" fill="#003887"/>
                </g>
              </g>
              <g id="Grupo_54271" data-name="Grupo 54271">
                <path id="Trazado_101357" data-name="Trazado 101357" d="M3344.714,3005.417,3358,2993.625l2.909-2.489a3.971,3.971,0,0,1,5.27.094l2.57,2.365,13.218,11.517Z" fill="#ffce3b"/>
                <path id="Trazado_101358" data-name="Trazado 101358" d="M3344.714,3006.2a.787.787,0,0,1-.522-1.375l13.281-11.793,2.92-2.5a4.759,4.759,0,0,1,6.313.113l2.571,2.365,13.2,11.5a.786.786,0,1,1-1.033,1.186l-13.217-11.518-2.587-2.378a3.184,3.184,0,0,0-4.226-.076l-2.909,2.489L3345.236,3006A.785.785,0,0,1,3344.714,3006.2Z" fill="#003887"/>
              </g>
            </g>
          </g>
        </g>
        <g id="Grupo_54278" data-name="Grupo 54278">
          <g id="Grupo_54277" data-name="Grupo 54277">
            <g id="Grupo_54275" data-name="Grupo 54275">
              <path id="Trazado_101359" data-name="Trazado 101359" d="M3419.819,2968.084c0,8.53-15.444,28.623-15.444,28.623s-15.444-20.093-15.444-28.623a15.444,15.444,0,0,1,30.888,0Z" fill="#ffce3b"/>
              <path id="Trazado_101360" data-name="Trazado 101360" d="M3404.375,2997.493a.787.787,0,0,1-.624-.307c-.637-.829-15.606-20.405-15.606-29.1a16.23,16.23,0,0,1,32.46,0c0,8.7-14.969,28.273-15.606,29.1A.787.787,0,0,1,3404.375,2997.493Zm0-44.066a14.673,14.673,0,0,0-14.657,14.657c0,7.21,11.786,23.464,14.657,27.316,2.87-3.852,14.657-20.108,14.657-27.316A14.673,14.673,0,0,0,3404.375,2953.427Z" fill="#003887"/>
            </g>
            <g id="Grupo_54276" data-name="Grupo 54276">
              <circle id="Elipse_4080" data-name="Elipse 4080" cx="7.513" cy="7.513" r="7.513" transform="translate(3396.862 2961.647)" fill="#fff"/>
              <path id="Trazado_101361" data-name="Trazado 101361" d="M3404.375,2977.459a8.3,8.3,0,1,1,8.3-8.3A8.309,8.309,0,0,1,3404.375,2977.459Zm0-15.025a6.726,6.726,0,1,0,6.726,6.726A6.733,6.733,0,0,0,3404.375,2962.434Z" fill="#003887"/>
            </g>
          </g>
        </g>
        <g id="Grupo_54296" data-name="Grupo 54296">
          <g id="Grupo_54294" data-name="Grupo 54294">
            <g id="Grupo_54279" data-name="Grupo 54279">
              <path id="Trazado_101362" data-name="Trazado 101362" d="M3433.407,2939.454h-21.123a2.986,2.986,0,0,1-2.993-2.962v-30.551a2.986,2.986,0,0,1,2.993-2.962h42.247a2.986,2.986,0,0,1,2.993,2.962v29.936Z" fill="#fff"/>
              <path id="Trazado_101363" data-name="Trazado 101363" d="M3433.407,2940.241h-21.123a3.768,3.768,0,0,1-3.779-3.749v-30.551a3.767,3.767,0,0,1,3.779-3.748h42.247a3.767,3.767,0,0,1,3.779,3.748v29.936a.786.786,0,1,1-1.573,0v-29.936a2.193,2.193,0,0,0-2.206-2.175h-42.247a2.193,2.193,0,0,0-2.206,2.175v30.551a2.193,2.193,0,0,0,2.206,2.176h21.123a.786.786,0,1,1,0,1.573Z" fill="#003887"/>
            </g>
            <g id="Grupo_54280" data-name="Grupo 54280">
              <path id="Trazado_101364" data-name="Trazado 101364" d="M3417.923,2918.829a.783.783,0,0,1-.55-.224l-2.024-1.981a.786.786,0,1,1,1.1-1.124l1.468,1.436,2.566-2.569a.786.786,0,1,1,1.113,1.111l-3.116,3.121A.788.788,0,0,1,3417.923,2918.829Z" fill="#003887"/>
            </g>
            <g id="Grupo_54281" data-name="Grupo 54281">
              <path id="Trazado_101365" data-name="Trazado 101365" d="M3432.851,2918.8a.785.785,0,0,1-.55-.225l-2.024-1.98a.786.786,0,1,1,1.1-1.125l1.469,1.437,2.565-2.57a.787.787,0,0,1,1.114,1.112l-3.116,3.12A.784.784,0,0,1,3432.851,2918.8Z" fill="#003887"/>
            </g>
            <g id="Grupo_54282" data-name="Grupo 54282">
              <path id="Trazado_101366" data-name="Trazado 101366" d="M3417.934,2926.619a.788.788,0,0,1-.55-.224l-2.024-1.981a.786.786,0,1,1,1.1-1.124l1.469,1.436,2.566-2.569a.786.786,0,1,1,1.113,1.111l-3.116,3.12A.784.784,0,0,1,3417.934,2926.619Z" fill="#003887"/>
            </g>
            <g id="Grupo_54283" data-name="Grupo 54283">
              <path id="Trazado_101367" data-name="Trazado 101367" d="M3432.862,2926.586a.783.783,0,0,1-.55-.225l-2.025-1.98a.787.787,0,1,1,1.1-1.125l1.468,1.436,2.566-2.569a.787.787,0,1,1,1.113,1.112l-3.116,3.12A.786.786,0,0,1,3432.862,2926.586Z" fill="#003887"/>
            </g>
            <g id="Grupo_54284" data-name="Grupo 54284">
              <path id="Trazado_101368" data-name="Trazado 101368" d="M3417.934,2934.476a.783.783,0,0,1-.55-.224l-2.024-1.981a.786.786,0,1,1,1.1-1.124l1.469,1.436,2.566-2.569a.786.786,0,1,1,1.113,1.111l-3.116,3.121A.788.788,0,0,1,3417.934,2934.476Z" fill="#003887"/>
            </g>
            <g id="Grupo_54285" data-name="Grupo 54285">
              <path id="Trazado_101369" data-name="Trazado 101369" d="M3432.862,2934.443a.783.783,0,0,1-.55-.225l-2.025-1.98a.787.787,0,0,1,1.1-1.125l1.468,1.437,2.566-2.57a.787.787,0,0,1,1.113,1.112l-3.116,3.12A.782.782,0,0,1,3432.862,2934.443Z" fill="#003887"/>
            </g>
            <g id="Grupo_54286" data-name="Grupo 54286">
              <path id="Trazado_101370" data-name="Trazado 101370" d="M3447.219,2918.829a.782.782,0,0,1-.55-.224l-2.025-1.981a.786.786,0,0,1,1.1-1.124l1.468,1.436,2.566-2.569a.786.786,0,1,1,1.113,1.111l-3.116,3.121A.786.786,0,0,1,3447.219,2918.829Z" fill="#003887"/>
            </g>
            <g id="Grupo_54287" data-name="Grupo 54287">
              <path id="Trazado_101371" data-name="Trazado 101371" d="M3457.524,2910.835h-47.975a.786.786,0,1,1,0-1.573h47.975a.786.786,0,0,1,0,1.573Z" fill="#003887"/>
            </g>
            <g id="Grupo_54290" data-name="Grupo 54290">
              <g id="Grupo_54288" data-name="Grupo 54288">
                <path id="Trazado_101372" data-name="Trazado 101372" d="M3419.915,2907.668a.787.787,0,0,1-.787-.787v-4.436a3.876,3.876,0,1,1,7.736,0v.546a.786.786,0,1,1-1.573,0v-.546a2.308,2.308,0,1,0-4.59,0v4.436A.787.787,0,0,1,3419.915,2907.668Z" fill="#003887"/>
              </g>
              <g id="Grupo_54289" data-name="Grupo 54289">
                <path id="Trazado_101373" data-name="Trazado 101373" d="M3423,2907.668h-6.174a.786.786,0,1,1,0-1.573H3423a.786.786,0,0,1,0,1.573Z" fill="#003887"/>
              </g>
            </g>
            <g id="Grupo_54293" data-name="Grupo 54293">
              <g id="Grupo_54291" data-name="Grupo 54291">
                <path id="Trazado_101374" data-name="Trazado 101374" d="M3445.709,2907.668a.787.787,0,0,1-.787-.787v-4.436a3.876,3.876,0,1,1,7.736,0v.546a.786.786,0,1,1-1.573,0v-.546a2.308,2.308,0,1,0-4.59,0v4.436A.787.787,0,0,1,3445.709,2907.668Z" fill="#003887"/>
              </g>
              <g id="Grupo_54292" data-name="Grupo 54292">
                <path id="Trazado_101375" data-name="Trazado 101375" d="M3448.795,2907.668h-6.173a.786.786,0,1,1,0-1.573h6.173a.786.786,0,1,1,0,1.573Z" fill="#003887"/>
              </g>
            </g>
          </g>
          <g id="Grupo_54295" data-name="Grupo 54295">
            <ellipse id="Elipse_4081" data-name="Elipse 4081" cx="2.73" cy="2.702" rx="2.73" ry="2.702" transform="translate(3445.034 2921.571)" fill="#5d9af0"/>
            <path id="Trazado_101376" data-name="Trazado 101376" d="M3447.766,2927.761a3.67,3.67,0,0,1-.508-.036,3.5,3.5,0,0,1-2.321-1.378,3.445,3.445,0,0,1-.652-2.579,3.527,3.527,0,0,1,6.307-1.57,3.451,3.451,0,0,1,.652,2.579A3.513,3.513,0,0,1,3447.766,2927.761Zm0-5.4a1.937,1.937,0,0,0-1.922,1.641,1.883,1.883,0,0,0,.357,1.409,1.953,1.953,0,0,0,3.49-.859,1.882,1.882,0,0,0-.358-1.41,1.934,1.934,0,0,0-1.284-.761A2.1,2.1,0,0,0,3447.763,2922.357Z" fill="#003887"/>
          </g>
        </g>
        <g id="Grupo_54327" data-name="Grupo 54327">
          <g id="Salary">
            <g id="Grupo_54315" data-name="Grupo 54315">
              <g id="Grupo_54310" data-name="Grupo 54310">
                <g id="Grupo_54309" data-name="Grupo 54309">
                  <g id="Grupo_54297" data-name="Grupo 54297">
                    <path id="Trazado_101377" data-name="Trazado 101377" d="M3485.658,2964.944l.173-23.55v-4.887a.383.383,0,0,0-.384-.381h-48.57a.671.671,0,0,0-.674.667l-.1,28.623Z" fill="#fff"/>
                    <path id="Trazado_101378" data-name="Trazado 101378" d="M3436.1,2966.2a.786.786,0,0,1-.786-.789l.1-28.623a1.458,1.458,0,0,1,1.46-1.45h48.57a1.17,1.17,0,0,1,1.171,1.167v4.887l-.173,23.555a.775.775,0,0,1-.793.781.786.786,0,0,1-.78-.792l.173-23.55v-4.475h-48.056l-.1,28.506A.787.787,0,0,1,3436.1,2966.2Z" fill="#003887"/>
                  </g>
                  <circle id="Elipse_4082" data-name="Elipse 4082" cx="10.856" cy="10.856" r="10.856" transform="translate(3450.259 2937.568)" fill="#5d9af0"/>
                  <g id="Grupo_54298" data-name="Grupo 54298">
                    <path id="Trazado_101379" data-name="Trazado 101379" d="M3453.542,2956.726a.785.785,0,0,1-.548-.222,11.289,11.289,0,0,1,2.033-17.788.787.787,0,0,1,.818,1.344,9.715,9.715,0,0,0-1.755,15.315.787.787,0,0,1-.548,1.351Z" fill="#003887"/>
                  </g>
                  <g id="Grupo_54299" data-name="Grupo 54299">
                    <path id="Trazado_101380" data-name="Trazado 101380" d="M3469.961,2954.954a.787.787,0,0,1-.656-1.22,9.716,9.716,0,0,0-3.11-13.671.786.786,0,0,1,.819-1.343,11.289,11.289,0,0,1,3.6,15.88A.786.786,0,0,1,3469.961,2954.954Z" fill="#003887"/>
                  </g>
                  <g id="Grupo_54300" data-name="Grupo 54300">
                    <path id="Trazado_101381" data-name="Trazado 101381" d="M3485.831,2946.123a10.056,10.056,0,0,1-10.092-10,.786.786,0,0,1,1.573,0,8.481,8.481,0,0,0,8.519,8.424.786.786,0,1,1,0,1.573Z" fill="#003887"/>
                  </g>
                  <g id="Grupo_54301" data-name="Grupo 54301">
                    <path id="Trazado_101382" data-name="Trazado 101382" d="M3479.734,2954.237a.786.786,0,0,1-.576-1.321,1.3,1.3,0,0,1,.51-.4,10.078,10.078,0,0,1,6.163-2.08.786.786,0,1,1,0,1.573,8.5,8.5,0,0,0-5.193,1.745,1.933,1.933,0,0,1-.273.176l-.054.059A.785.785,0,0,1,3479.734,2954.237Zm.577-1.659a.815.815,0,0,1,.184.144A.78.78,0,0,0,3480.311,2952.578Z" fill="#003887"/>
                  </g>
                  <g id="Grupo_54302" data-name="Grupo 54302">
                    <path id="Trazado_101383" data-name="Trazado 101383" d="M3444.644,2958.486a.786.786,0,0,1-.722-.476c-1.524-3.535-4.7-6-7.719-6a.786.786,0,0,1,0-1.573c4.26,0,7.672,3.493,9.163,6.955a.785.785,0,0,1-.411,1.033A.776.776,0,0,1,3444.644,2958.486Z" fill="#003887"/>
                  </g>
                  <g id="Grupo_54307" data-name="Grupo 54307">
                    <g id="Grupo_54305" data-name="Grupo 54305">
                      <g id="Grupo_54303" data-name="Grupo 54303">
                        <path id="Trazado_101384" data-name="Trazado 101384" d="M3462.635,2949.064H3459.4a3.215,3.215,0,0,1,0-6.423h3.235a3.148,3.148,0,0,1,3.072,3.212.786.786,0,0,1-1.573,0,1.575,1.575,0,0,0-1.5-1.639H3459.4a1.645,1.645,0,0,0,0,3.277h3.235a.786.786,0,0,1,0,1.573Z" fill="#003887"/>
                      </g>
                      <g id="Grupo_54304" data-name="Grupo 54304">
                        <path id="Trazado_101385" data-name="Trazado 101385" d="M3462.635,2953.914H3459.4a3.148,3.148,0,0,1-3.073-3.211.786.786,0,1,1,1.573,0,1.576,1.576,0,0,0,1.5,1.638h3.235a1.645,1.645,0,0,0,0-3.277H3459.4a.786.786,0,1,1,0-1.573h3.235a3.215,3.215,0,0,1,0,6.423Z" fill="#003887"/>
                      </g>
                    </g>
                    <g id="Grupo_54306" data-name="Grupo 54306">
                      <path id="Trazado_101386" data-name="Trazado 101386" d="M3461.017,2942.295v0Z" fill="#5d9af0"/>
                      <path id="Trazado_101387" data-name="Trazado 101387" d="M3461.017,2955.285a.786.786,0,0,1-.786-.786v-12.2a.786.786,0,1,1,1.573,0v12.2A.786.786,0,0,1,3461.017,2955.285Z" fill="#003887"/>
                    </g>
                  </g>
                  <g id="Grupo_54308" data-name="Grupo 54308">
                    <path id="Trazado_101388" data-name="Trazado 101388" d="M3436.2,2946.123a.786.786,0,0,1,0-1.573,8.482,8.482,0,0,0,8.52-8.424.786.786,0,0,1,1.573,0A10.056,10.056,0,0,1,3436.2,2946.123Z" fill="#003887"/>
                  </g>
                </g>
              </g>
              <g id="Grupo_54314" data-name="Grupo 54314">
                <g id="Grupo_54312" data-name="Grupo 54312">
                  <g id="Grupo_54311" data-name="Grupo 54311">
                    <path id="Trazado_101389" data-name="Trazado 101389" d="M3484.861,2966.512l-.63-4.69a7.409,7.409,0,0,0-6.684-5.587q-.353-.024-.712-.014c-.7.019-3.13.167-3.714.237l-19.308,2.307a5.406,5.406,0,0,0-4.683,5.379c.015.124.039.245.064.366l-3.4-2.285-8.293-5.564c-3.487-2.34-6.024,1.738-6.024,1.738s-2.749,3.935,1.289,6.644l16.418,11.017a4.839,4.839,0,0,0,3.118,1.025l38.95,0a1.435,1.435,0,0,0,1.442-1.427v-12.694a1.329,1.329,0,0,0-1.336-1.322h-7.123Z" fill="#ffce3b"/>
                    <path id="Trazado_101390" data-name="Trazado 101390" d="M3452.146,2977.874a5.637,5.637,0,0,1-3.426-1.176l-16.4-11a5.343,5.343,0,0,1-2.468-3.46,6.212,6.212,0,0,1,.973-4.287,6.493,6.493,0,0,1,3.63-2.706,4.42,4.42,0,0,1,3.478.765l10.488,7.038a6.235,6.235,0,0,1,5.3-5.061l19.307-2.308c.627-.075,3.086-.223,3.786-.243.262-.007.527,0,.787.016a8.259,8.259,0,0,1,7.162,5.408h6.592a2.118,2.118,0,0,1,2.122,2.108v12.694a2.224,2.224,0,0,1-2.228,2.214l-38.95,0Zm.13-1.575,38.972,0a.649.649,0,0,0,.655-.641v-12.694a.543.543,0,0,0-.549-.535h-6.248l.535,3.976a.787.787,0,0,1-1.559.21l-.625-4.648a6.654,6.654,0,0,0-5.963-4.95c-.21-.014-.422-.018-.637-.012-.706.019-3.113.168-3.643.232l-19.307,2.307a4.6,4.6,0,0,0-3.992,4.538c.013.091.031.18.05.269a.787.787,0,0,1-1.209.81l-11.7-7.849a2.866,2.866,0,0,0-2.27-.533,5.008,5.008,0,0,0-2.648,2.033,4.678,4.678,0,0,0-.737,3.144,3.836,3.836,0,0,0,1.8,2.432l16.418,11.017a.382.382,0,0,1,.045.033A4.064,4.064,0,0,0,3452.276,2976.3Z" fill="#003887"/>
                  </g>
                </g>
                <g id="Grupo_54313" data-name="Grupo 54313">
                  <path id="Trazado_101391" data-name="Trazado 101391" d="M3454.009,2969.154a5.625,5.625,0,0,1-5.6-4.9,5.481,5.481,0,0,1,1.146-4.072,5.644,5.644,0,0,1,3.8-2.132.787.787,0,0,1,.187,1.562,4.076,4.076,0,0,0-2.745,1.541,3.919,3.919,0,0,0-.823,2.91,4.059,4.059,0,0,0,4.54,3.486l12.543-1.5a.787.787,0,0,1,.187,1.562l-12.543,1.5A5.913,5.913,0,0,1,3454.009,2969.154Z" fill="#003887"/>
                </g>
              </g>
            </g>
          </g>
          <g id="Grupo_54326" data-name="Grupo 54326">
            <g id="Grupo_54316" data-name="Grupo 54316">
              <path id="Trazado_101392" data-name="Trazado 101392" d="M3462.049,2936.907h19.338V2931.3h-19.338v5.607Z" fill="#ffce3b"/>
              <path id="Trazado_101393" data-name="Trazado 101393" d="M3481.387,2937.694h-19.338a.786.786,0,0,1-.786-.786V2931.3a.787.787,0,0,1,.786-.787h19.338a.787.787,0,0,1,.786.787v5.608A.786.786,0,0,1,3481.387,2937.694Zm-18.551-1.573H3480.6v-4.035h-17.764Z" fill="#003887"/>
            </g>
            <g id="Grupo_54317" data-name="Grupo 54317">
              <rect id="Rectángulo_5487" data-name="Rectángulo 5487" width="19.338" height="5.608" transform="translate(3481.387 2931.293) rotate(180)" fill="#ffce3b"/>
              <path id="Trazado_101394" data-name="Trazado 101394" d="M3481.387,2932.08h-19.338a.786.786,0,0,1-.786-.787v-5.607a.786.786,0,0,1,.786-.787h19.338a.786.786,0,0,1,.786.787v5.607A.786.786,0,0,1,3481.387,2932.08Zm-18.551-1.573H3480.6v-4.035h-17.764Z" fill="#003887"/>
            </g>
            <g id="Grupo_54318" data-name="Grupo 54318">
              <path id="Rectángulo_5488" data-name="Rectángulo 5488" d="M0,0H19.338a0,0,0,0,1,0,0V4.494a1.114,1.114,0,0,1-1.114,1.114H1.114A1.114,1.114,0,0,1,0,4.494V0A0,0,0,0,1,0,0Z" transform="translate(3481.387 2925.711) rotate(180)" fill="#ffce3b"/>
              <path id="Trazado_101395" data-name="Trazado 101395" d="M3481.387,2926.5h-19.338a.786.786,0,0,1-.786-.786v-4.494a1.9,1.9,0,0,1,1.9-1.9h17.11a1.9,1.9,0,0,1,1.9,1.9v4.494A.786.786,0,0,1,3481.387,2926.5Zm-18.551-1.573H3480.6v-3.707a.328.328,0,0,0-.327-.328h-17.11a.327.327,0,0,0-.327.328Z" fill="#003887"/>
            </g>
            <g id="Grupo_54325" data-name="Grupo 54325">
              <g id="Grupo_54319" data-name="Grupo 54319">
                <ellipse id="Elipse_4083" data-name="Elipse 4083" cx="9.669" cy="9.569" rx="9.669" ry="9.569" transform="translate(3462.049 2895.895)" fill="#fff"/>
                <path id="Trazado_101396" data-name="Trazado 101396" d="M3471.718,2915.82a10.357,10.357,0,1,1,10.455-10.356A10.418,10.418,0,0,1,3471.718,2915.82Zm0-19.139a8.784,8.784,0,1,0,8.882,8.783A8.843,8.843,0,0,0,3471.718,2896.681Z" fill="#003887"/>
              </g>
              <g id="Grupo_54324" data-name="Grupo 54324">
                <g id="Grupo_54322" data-name="Grupo 54322">
                  <g id="Grupo_54320" data-name="Grupo 54320">
                    <path id="Trazado_101397" data-name="Trazado 101397" d="M3473.343,2905.749h-3.25a2.441,2.441,0,0,1,0-4.874h3.25a2.377,2.377,0,0,1,2.3,2.437Z" fill="#fff"/>
                    <path id="Trazado_101398" data-name="Trazado 101398" d="M3473.343,2906.535h-3.25a3.226,3.226,0,0,1,0-6.446h3.25a3.159,3.159,0,0,1,3.084,3.223.786.786,0,0,1-1.573,0,1.587,1.587,0,0,0-1.511-1.65h-3.25a1.656,1.656,0,0,0,0,3.3h3.25a.786.786,0,1,1,0,1.573Z" fill="#003887"/>
                  </g>
                  <g id="Grupo_54321" data-name="Grupo 54321">
                    <path id="Trazado_101399" data-name="Trazado 101399" d="M3470.093,2905.749h3.25a2.441,2.441,0,0,1,0,4.873h-3.25a2.377,2.377,0,0,1-2.3-2.437Z" fill="#fff"/>
                    <path id="Trazado_101400" data-name="Trazado 101400" d="M3473.343,2911.409h-3.25a3.159,3.159,0,0,1-3.084-3.224.786.786,0,0,1,1.573,0,1.588,1.588,0,0,0,1.511,1.651h3.25a1.657,1.657,0,0,0,0-3.3h-3.25a.786.786,0,1,1,0-1.573h3.25a3.227,3.227,0,0,1,0,6.447Z" fill="#003887"/>
                  </g>
                </g>
                <g id="Grupo_54323" data-name="Grupo 54323">
                  <path id="Trazado_101401" data-name="Trazado 101401" d="M3471.718,2899.736v0Z" fill="#fff"/>
                  <path id="Trazado_101402" data-name="Trazado 101402" d="M3471.718,2912.786a.786.786,0,0,1-.787-.786v-12.264a.786.786,0,0,1,1.573,0V2912A.786.786,0,0,1,3471.718,2912.786Z" fill="#003887"/>
                </g>
              </g>
            </g>
          </g>
        </g>
        <g id="Grupo_54335" data-name="Grupo 54335">
          <g id="Grupo_54330" data-name="Grupo 54330">
            <g id="Grupo_54328" data-name="Grupo 54328">
              <path id="Trazado_101403" data-name="Trazado 101403" d="M3427.951,3002.6a11.145,11.145,0,1,1,13.184-10.969,11.291,11.291,0,0,1-.088,1.407Z" fill="#fff"/>
              <path id="Trazado_101404" data-name="Trazado 101404" d="M3427.952,3003.387a.759.759,0,0,1-.134-.012,11.941,11.941,0,1,1,14.009-10.238.786.786,0,1,1-1.56-.2,10.538,10.538,0,0,0,.082-1.307,10.463,10.463,0,1,0-12.265,10.194.787.787,0,0,1-.132,1.562Z" fill="#003887"/>
            </g>
            <g id="Grupo_54329" data-name="Grupo 54329">
              <path id="Trazado_101405" data-name="Trazado 101405" d="M3434.54,2991.631h-4.653v-7.171Z" fill="#fff"/>
              <path id="Trazado_101406" data-name="Trazado 101406" d="M3434.54,2992.418h-4.653a.786.786,0,0,1-.787-.787v-7.171a.786.786,0,0,1,1.573,0v6.385h3.867a.786.786,0,0,1,0,1.573Z" fill="#003887"/>
            </g>
          </g>
          <g id="Grupo_54334" data-name="Grupo 54334">
            <path id="Trazado_101407" data-name="Trazado 101407" d="M3429.233,3016.707a17.055,17.055,0,0,1-.572-3.444l-3.645-1.257.633-4.834,3.866-.32a17.131,17.131,0,0,1,3.407-5.886l-1.7-3.426,3.886-3,2.964,2.454a17.444,17.444,0,0,1,6.952-1.833l1.295-3.582,4.879.67.288,3.805a17.389,17.389,0,0,1,1.97.8l4.489,1.548,9.291,25.5-4.68,7.077-30.347-1.217-3.11-4.735Z" fill="#5d9af0"/>
            <circle id="Elipse_4084" data-name="Elipse 4084" cx="9.779" cy="9.779" r="9.779" transform="translate(3436.484 3002.689)" fill="#fff"/>
            <g id="Grupo_54331" data-name="Grupo 54331">
              <path id="Trazado_101408" data-name="Trazado 101408" d="M3429.233,3017.494a.786.786,0,0,1-.758-.579,17.824,17.824,0,0,1-.558-3.077l-3.157-1.088a.786.786,0,0,1-.524-.846l.633-4.834a.789.789,0,0,1,.715-.682l3.358-.278a17.79,17.79,0,0,1,3.044-5.261l-1.465-2.96a.787.787,0,0,1,.225-.972l3.886-2.995a.785.785,0,0,1,.981.017l2.575,2.132a18.241,18.241,0,0,1,6.275-1.656l1.121-3.1a.789.789,0,0,1,.846-.512l4.879.669a.787.787,0,0,1,.677.72l.25,3.295c.517.192,1.027.409,1.524.647l4.446,1.532a.787.787,0,0,1-.513,1.487l-4.489-1.547a.836.836,0,0,1-.086-.035,16.567,16.567,0,0,0-1.88-.769.786.786,0,0,1-.532-.686l-.24-3.172-3.619-.5-1.08,2.983a.785.785,0,0,1-.7.518,16.675,16.675,0,0,0-6.639,1.751.787.787,0,0,1-.854-.1l-2.48-2.054-2.878,2.218,1.41,2.848a.786.786,0,0,1-.116.87,16.243,16.243,0,0,0-3.251,5.616.788.788,0,0,1-.68.533l-3.233.267-.468,3.569,3.039,1.047a.786.786,0,0,1,.528.7,16.257,16.257,0,0,0,.546,3.286.786.786,0,0,1-.759.994Z" fill="#003887"/>
            </g>
            <g id="Grupo_54332" data-name="Grupo 54332">
              <path id="Trazado_101409" data-name="Trazado 101409" d="M3436.463,3016.459a.787.787,0,0,1-.737-.513,10.665,10.665,0,0,1-.573-5.088,10.884,10.884,0,0,1,13.459-9.021.787.787,0,0,1-.387,1.525,9.307,9.307,0,0,0-11.513,7.7,8.967,8.967,0,0,0,.489,4.336.786.786,0,0,1-.463,1.011A.777.777,0,0,1,3436.463,3016.459Z" fill="#003887"/>
            </g>
            <g id="Grupo_54333" data-name="Grupo 54333">
              <path id="Trazado_101410" data-name="Trazado 101410" d="M3450.275,3021.994a.786.786,0,0,1-.324-1.5,8.536,8.536,0,0,0,3.754-3.286.787.787,0,0,1,1.318.859,10.168,10.168,0,0,1-4.425,3.86A.776.776,0,0,1,3450.275,3021.994Z" fill="#003887"/>
            </g>
          </g>
        </g>
        <g id="presentation_skills" data-name="presentation skills">
          <g id="Grupo_54342" data-name="Grupo 54342">
            <g id="Grupo_54341" data-name="Grupo 54341">
              <g id="Grupo_54336" data-name="Grupo 54336">
                <path id="Trazado_101411" data-name="Trazado 101411" d="M3461.64,3051.615h25.92a3.317,3.317,0,0,0,3.334-3.3v-8.579c0-7.944-6.783-14.444-15.072-14.444,0,0-18.468-1.161-22.126,1.49s-1.377,24.61-1.377,24.61Z" fill="#5d9af0"/>
                <path id="Trazado_101412" data-name="Trazado 101412" d="M3487.56,3052.4h-25.92l-9.34-.224a.787.787,0,0,1-.763-.705c-.389-3.743-2.134-22.552,1.7-25.328,3.778-2.737,20.717-1.758,22.636-1.638,8.7,0,15.809,6.832,15.809,15.229v8.579A4.108,4.108,0,0,1,3487.56,3052.4Zm-25.911-1.573h25.911a2.533,2.533,0,0,0,2.547-2.514v-8.579c0-7.531-6.408-13.657-14.285-13.657-5.108-.32-18.852-.7-21.665,1.339-2.331,1.69-1.943,14.835-1.125,23.2Z" fill="#003887"/>
              </g>
              <g id="Grupo_54337" data-name="Grupo 54337">
                <path id="Trazado_101413" data-name="Trazado 101413" d="M3475.822,3023.053v2.649c0,2.239-2.728,4.072-6.062,4.072s-6.063-1.833-6.063-4.072v-2.649Z" fill="#fff"/>
                <path id="Trazado_101414" data-name="Trazado 101414" d="M3469.76,3030.56c-3.777,0-6.849-2.179-6.849-4.858v-2.649a.786.786,0,1,1,1.573,0v2.649c0,1.781,2.416,3.285,5.276,3.285s5.275-1.5,5.275-3.285v-2.649a.786.786,0,1,1,1.573,0v2.649C3476.608,3028.381,3473.536,3030.56,3469.76,3030.56Z" fill="#003887"/>
              </g>
              <g id="Grupo_54338" data-name="Grupo 54338">
                <path id="Trazado_101415" data-name="Trazado 101415" d="M3469.76,2988.99a14.56,14.56,0,0,0-14.6,12.957l-.065,0a4.51,4.51,0,1,0,0,9.016c.022,0,.043,0,.065,0a14.7,14.7,0,0,0,29.193,0c.022,0,.043,0,.065,0a4.51,4.51,0,1,0,0-9.016l-.065,0Z" fill="#fff"/>
                <path id="Trazado_101416" data-name="Trazado 101416" d="M3469.76,3024.7a15.447,15.447,0,0,1-15.3-12.99,5.282,5.282,0,0,1,0-10.516,15.447,15.447,0,0,1,15.3-12.99.786.786,0,0,1,0,1.573,13.829,13.829,0,0,0-13.814,12.244.794.794,0,0,1-.8.713l-.075,0a3.723,3.723,0,1,0,.022,7.443l.053,0a.783.783,0,0,1,.8.712,13.914,13.914,0,0,0,27.628,0,.786.786,0,0,1,.782-.712c.021,0,.068,0,.087,0a3.723,3.723,0,1,0-.022-7.443l-.053,0a.787.787,0,0,1-.023-1.573c.016,0,.046,0,.076,0a5.289,5.289,0,0,1,.638,10.552A15.447,15.447,0,0,1,3469.76,3024.7Z" fill="#003887"/>
              </g>
              <g id="Grupo_54339" data-name="Grupo 54339">
                <rect id="Rectángulo_5489" data-name="Rectángulo 5489" width="5.039" height="14.613" rx="2.5" transform="translate(3467.24 3032.811)" fill="#fff"/>
                <path id="Trazado_101417" data-name="Trazado 101417" d="M3469.779,3048.21h-.039a3.29,3.29,0,0,1-3.287-3.286v-9.613a3.307,3.307,0,0,1,6.613,0v9.613A3.29,3.29,0,0,1,3469.779,3048.21Zm0-14.613a1.725,1.725,0,0,0-1.753,1.714v9.613a1.716,1.716,0,0,0,1.714,1.713h.039a1.716,1.716,0,0,0,1.714-1.713v-9.613A1.716,1.716,0,0,0,3469.779,3033.6Z" fill="#003887"/>
              </g>
              <g id="Grupo_54340" data-name="Grupo 54340">
                <path id="Trazado_101418" data-name="Trazado 101418" d="M3478.5,2996.256v8.693a2.912,2.912,0,0,0,3.356,2.852,2.967,2.967,0,0,0,2.472-2.959v-12.4a3.471,3.471,0,0,0-3.489-3.453h-11.081c-13.332.947-14.568,12.91-14.573,12.957v3a2.913,2.913,0,0,0,3.356,2.852,2.967,2.967,0,0,0,2.473-2.959v-4.578a22.2,22.2,0,0,0,17.486-2.615Z" fill="#ffce3b"/>
                <path id="Trazado_101419" data-name="Trazado 101419" d="M3481.423,3008.619a3.722,3.722,0,0,1-2.431-.9,3.658,3.658,0,0,1-1.276-2.769v-5.91a22.953,22.953,0,0,1-15.913,2.242v3.561a3.7,3.7,0,0,1-6.125,2.876,3.658,3.658,0,0,1-1.276-2.769v-3a.769.769,0,0,1,0-.082,15.924,15.924,0,0,1,15.3-13.66.568.568,0,0,1,.058,0h11.081a4.262,4.262,0,0,1,4.276,4.239v12.4a3.761,3.761,0,0,1-3.144,3.737A3.816,3.816,0,0,1,3481.423,3008.619Zm-25.448-6.629v2.959a2.088,2.088,0,0,0,.73,1.578,2.131,2.131,0,0,0,1.725.5,2.179,2.179,0,0,0,1.8-2.181v-4.579a.788.788,0,0,1,1.026-.749,21.63,21.63,0,0,0,16.46-2.3v-.959a.786.786,0,1,1,1.573,0v8.693a2.086,2.086,0,0,0,.731,1.578,2.128,2.128,0,0,0,1.724.5,2.179,2.179,0,0,0,1.8-2.181v-12.4a2.688,2.688,0,0,0-2.7-2.666h-11.055C3457.53,2990.668,3456.071,3001.151,3455.975,3001.99Z" fill="#003887"/>
              </g>
            </g>
          </g>
        </g>
        <g id="Grupo_54350" data-name="Grupo 54350">
          <g id="Grupo_54343" data-name="Grupo 54343">
            <path id="Rectángulo_5490" data-name="Rectángulo 5490" d="M2.436,0H36.887a2.436,2.436,0,0,1,2.436,2.436V22.843a2.436,2.436,0,0,1-2.436,2.436H2.435A2.435,2.435,0,0,1,0,22.843V2.436A2.436,2.436,0,0,1,2.436,0Z" transform="matrix(1, 0.008, -0.008, 1, 3418.703, 3025.853)" fill="#fff"/>
            <path id="Trazado_101420" data-name="Trazado 101420" d="M3455.414,3052.2l-34.474-.261a3.228,3.228,0,0,1-3.2-3.247l.158-20.407a3.226,3.226,0,0,1,3.221-3.2l34.475.261a3.23,3.23,0,0,1,3.2,3.247l-.158,20.407A3.226,3.226,0,0,1,3455.414,3052.2Zm-.013-1.573a1.657,1.657,0,0,0,1.662-1.636l.158-20.407a1.656,1.656,0,0,0-1.637-1.662l-34.45-.261a1.654,1.654,0,0,0-1.661,1.637l-.158,20.406a1.656,1.656,0,0,0,1.636,1.662Z" fill="#003887"/>
          </g>
          <g id="Grupo_54344" data-name="Grupo 54344">
            <path id="Trazado_101421" data-name="Trazado 101421" d="M3457.949,3036.874l-8.512-.064a.787.787,0,0,1,.006-1.573l8.512.064a.787.787,0,0,1-.006,1.573Z" fill="#003887"/>
          </g>
          <g id="Grupo_54345" data-name="Grupo 54345">
            <path id="Trazado_101422" data-name="Trazado 101422" d="M3427.09,3036.641l-8.467-.065a.787.787,0,0,1,0-1.573l8.467.065a.787.787,0,0,1,0,1.573Z" fill="#003887"/>
          </g>
          <g id="Grupo_54346" data-name="Grupo 54346">
            <path id="Trazado_101423" data-name="Trazado 101423" d="M3447.415,3026.784a.79.79,0,0,1-.787-.793l.024-3.069a2.706,2.706,0,0,0-.9-2.006,3.33,3.33,0,0,0-2.259-.882l-10.391-.079a3.029,3.029,0,0,0-3.2,2.84l-.023,3.069a.807.807,0,0,1-.793.781.786.786,0,0,1-.78-.793l.023-3.069a4.605,4.605,0,0,1,4.745-4.4h.039l10.391.079a4.9,4.9,0,0,1,3.323,1.306,4.267,4.267,0,0,1,1.393,3.167L3448.2,3026A.786.786,0,0,1,3447.415,3026.784Z" fill="#003887"/>
          </g>
          <g id="Grupo_54347" data-name="Grupo 54347">
            <path id="Rectángulo_5491" data-name="Rectángulo 5491" d="M1.674,0H1.7A1.674,1.674,0,0,1,3.375,1.674V8A1.674,1.674,0,0,1,1.7,9.678H1.675A1.675,1.675,0,0,1,0,8V1.674A1.674,1.674,0,0,1,1.674,0Z" transform="matrix(1, 0.008, -0.008, 1, 3427.172, 3031.015)" fill="#ffce3b"/>
            <path id="Trazado_101424" data-name="Trazado 101424" d="M3428.811,3041.493h-.045a2.467,2.467,0,0,1-2.442-2.48l.049-6.33a2.478,2.478,0,0,1,4.239-1.706,2.445,2.445,0,0,1,.709,1.744l-.049,6.33A2.465,2.465,0,0,1,3428.811,3041.493Zm.048-9.678a.894.894,0,0,0-.913.88l-.049,6.33a.893.893,0,0,0,.881.9h.026a.875.875,0,0,0,.9-.881l.049-6.33a.886.886,0,0,0-.257-.628.875.875,0,0,0-.624-.266Z" fill="#003887"/>
          </g>
          <g id="Grupo_54348" data-name="Grupo 54348">
            <rect id="Rectángulo_5492" data-name="Rectángulo 5492" width="3.375" height="9.678" rx="1.674" transform="matrix(1, 0.007, -0.007, 1, 3446.103, 3031.159)" fill="#ffce3b"/>
            <path id="Trazado_101425" data-name="Trazado 101425" d="M3447.745,3041.636h-.046a2.465,2.465,0,0,1-2.442-2.48l.049-6.329a2.477,2.477,0,0,1,4.239-1.706,2.441,2.441,0,0,1,.709,1.744l-.049,6.33A2.464,2.464,0,0,1,3447.745,3041.636Zm.047-9.678a.9.9,0,0,0-.913.881l-.049,6.33a.892.892,0,0,0,.881.894h.026a.89.89,0,0,0,.9-.88l.049-6.33a.893.893,0,0,0-.881-.9Z" fill="#003887"/>
          </g>
          <g id="Grupo_54349" data-name="Grupo 54349">
            <path id="Trazado_101426" data-name="Trazado 101426" d="M3446.068,3036.784l-15.564-.118a.787.787,0,0,1,.005-1.573l15.565.118a.787.787,0,0,1-.006,1.573Z" fill="#003887"/>
          </g>
        </g>
      </g>
    </g>
    <rect id="Rectángulo_6005" data-name="Rectángulo 6005" width="400" height="212" transform="translate(600 1053)" fill="none"/>
  </g>
</svg>
