<svg xmlns="http://www.w3.org/2000/svg" width="400" height="212.033" viewBox="0 0 400 212.033">
  <g id="Grupo_54929" data-name="Grupo 54929" transform="translate(-180 -1053)">
    <g id="Grupo_54397" data-name="Grupo 54397" transform="translate(-2630.778 -1822.657)">
      <circle id="Elipse_4069-3" data-name="Elipse 4069-3" cx="106.016" cy="106.016" r="106.016" transform="translate(2911.778 2875.657)" fill="#fff" opacity="0"/>
      <g id="Grupo_54396" data-name="Grupo 54396" transform="translate(0 1)">
        <g id="Grupo_54353" data-name="Grupo 54353">
          <path id="Trazado_101427" data-name="Trazado 101427" d="M3040.474,3064.451a.826.826,0,0,1-.165-1.636,80.607,80.607,0,0,0,8.968-2.388.826.826,0,0,1,.516,1.57,82.444,82.444,0,0,1-9.152,2.437A.871.871,0,0,1,3040.474,3064.451Zm17.783-5.853a.826.826,0,0,1-.347-1.576,81.114,81.114,0,0,0,8.184-4.376.826.826,0,0,1,.862,1.41,82.6,82.6,0,0,1-8.352,4.466A.827.827,0,0,1,3058.257,3058.6Zm15.976-9.761a.826.826,0,0,1-.509-1.477c1.443-1.128,2.866-2.319,4.229-3.541.931-.835,1.856-1.7,2.748-2.581a.827.827,0,1,1,1.16,1.178c-.911.9-1.855,1.782-2.8,2.633-1.392,1.247-2.843,2.463-4.316,3.613A.82.82,0,0,1,3074.233,3048.837Zm13.343-13.132a.826.826,0,0,1-.643-1.345,81.037,81.037,0,0,0,5.4-7.549.826.826,0,0,1,1.4.883,82.259,82.259,0,0,1-5.511,7.7A.822.822,0,0,1,3087.576,3035.705Z" fill="#003887"/>
        </g>
        <g id="Grupo_54354" data-name="Grupo 54354">
          <path id="Trazado_101428" data-name="Trazado 101428" d="M3086.571,2932.233a.822.822,0,0,1-.634-.3,81.745,81.745,0,0,0-6.352-6.768.827.827,0,0,1,1.139-1.2,83.457,83.457,0,0,1,6.48,6.906.826.826,0,0,1-.633,1.357Zm-13.571-12.9a.817.817,0,0,1-.5-.167,81.075,81.075,0,0,0-7.722-5.148.826.826,0,0,1,.836-1.426,82.525,82.525,0,0,1,7.88,5.255.826.826,0,0,1-.5,1.486Zm-16.15-9.469a.83.83,0,0,1-.332-.07,80.267,80.267,0,0,0-8.7-3.239.826.826,0,1,1,.486-1.58,82.064,82.064,0,0,1,8.876,3.306.826.826,0,0,1-.333,1.583Z" fill="#003887"/>
        </g>
        <g id="Grupo_54355" data-name="Grupo 54355">
          <path id="Trazado_101429" data-name="Trazado 101429" d="M2959.083,3033.792a.827.827,0,0,1-.659-.327,83.315,83.315,0,0,1-5.283-7.86.826.826,0,1,1,1.421-.842,81.729,81.729,0,0,0,5.179,7.7.826.826,0,0,1-.658,1.326Zm-9.54-16.108a.826.826,0,0,1-.755-.489,82.617,82.617,0,0,1-3.359-8.855.826.826,0,1,1,1.576-.5,80.686,80.686,0,0,0,3.292,8.676.827.827,0,0,1-.754,1.164Zm-5.619-17.856a.826.826,0,0,1-.81-.671,82.083,82.083,0,0,1-1.237-9.389.826.826,0,0,1,1.648-.121,80.329,80.329,0,0,0,1.212,9.2.827.827,0,0,1-.656.967A.841.841,0,0,1,2943.924,2999.828Zm-1.366-18.669h-.035a.826.826,0,0,1-.791-.86c.071-1.68.2-3.382.369-5.06.15-1.453.342-2.922.569-4.365a.826.826,0,1,1,1.632.257c-.222,1.415-.41,2.854-.557,4.278-.171,1.645-.292,3.313-.362,4.96A.825.825,0,0,1,2942.558,2981.159Zm2.915-18.495a.845.845,0,0,1-.221-.03.827.827,0,0,1-.575-1.018,82.7,82.7,0,0,1,3.056-8.965.826.826,0,0,1,1.531.623,80.918,80.918,0,0,0-2.995,8.785A.826.826,0,0,1,2945.473,2962.664Zm7.052-17.341a.813.813,0,0,1-.4-.1.826.826,0,0,1-.327-1.121,82.337,82.337,0,0,1,5.026-8.027.826.826,0,0,1,1.348.956,80.73,80.73,0,0,0-4.925,7.865A.826.826,0,0,1,2952.525,2945.323Zm10.831-15.267a.826.826,0,0,1-.614-1.379,83.405,83.405,0,0,1,6.3-6.288l.427-.38a.826.826,0,0,1,1.095,1.238l-.419.373a81.473,81.473,0,0,0-6.172,6.162A.821.821,0,0,1,2963.356,2930.056Zm14.026-12.4a.827.827,0,0,1-.474-1.5,82.888,82.888,0,0,1,8.063-4.969.826.826,0,1,1,.785,1.454,81.112,81.112,0,0,0-7.9,4.87A.82.82,0,0,1,2977.382,2917.654Z" fill="#003887"/>
        </g>
        <circle id="Elipse_4085" data-name="Elipse 4085" cx="59.883" cy="59.883" r="59.883" transform="translate(2964.165 2923.836)" fill="#e77c20"/>
        <g id="Grupo_54368" data-name="Grupo 54368">
          <g id="Grupo_54357" data-name="Grupo 54357">
            <g id="Grupo_54356" data-name="Grupo 54356">
              <path id="Trazado_101430" data-name="Trazado 101430" d="M2995.09,2926.8a26.63,26.63,0,1,0,31.617-20.483A26.661,26.661,0,0,0,2995.09,2926.8Z" fill="#ffce3b"/>
              <path id="Trazado_101431" data-name="Trazado 101431" d="M3021.166,2959.839a27.486,27.486,0,0,1-26.884-33.21,27.435,27.435,0,1,1,26.884,33.21Zm-.059-53.289a25.827,25.827,0,1,0,5.427.577A25.945,25.945,0,0,0,3021.107,2906.55Z" fill="#003887"/>
            </g>
          </g>
          <g id="Grupo_54367" data-name="Grupo 54367">
            <g id="Grupo_54366" data-name="Grupo 54366">
              <g id="Grupo_54360" data-name="Grupo 54360">
                <g id="Grupo_54358" data-name="Grupo 54358">
                  <rect id="Rectángulo_5493" data-name="Rectángulo 5493" width="7.646" height="31.367" rx="1.677" transform="translate(2970.677 2972.995) rotate(-122.919)" fill="#ffce3b"/>
                  <path id="Trazado_101432" data-name="Trazado 101432" d="M2971.178,2973.18a2.505,2.505,0,0,1-2.106-1.144l-2.333-3.6a2.505,2.505,0,0,1,.741-3.462L2991,2949.748a2.506,2.506,0,0,1,3.461.741l2.333,3.6a2.507,2.507,0,0,1-.741,3.462l-23.515,15.223A2.488,2.488,0,0,1,2971.178,2973.18ZM2992.355,2951a.844.844,0,0,0-.461.136l-23.516,15.224a.852.852,0,0,0-.251,1.177l2.332,3.6a.849.849,0,0,0,1.176.252l23.516-15.223a.854.854,0,0,0,.252-1.177l-2.333-3.6A.85.85,0,0,0,2992.355,2951Z" fill="#003887"/>
                </g>
                <g id="Grupo_54359" data-name="Grupo 54359">
                  <path id="Trazado_101433" data-name="Trazado 101433" d="M2994.93,2953.565a.826.826,0,0,1-.45-1.519l4.694-3.039a.826.826,0,1,1,.9,1.387l-4.693,3.039A.823.823,0,0,1,2994.93,2953.565Z" fill="#003887"/>
                </g>
              </g>
              <g id="Grupo_54361" data-name="Grupo 54361">
                <circle id="Elipse_4086" data-name="Elipse 4086" cx="21.397" cy="21.397" r="21.397" transform="translate(2999.733 2910.979)" fill="#fff"/>
                <path id="Trazado_101434" data-name="Trazado 101434" d="M3021.174,2954.606a22.379,22.379,0,0,1-4.7-.5,22.106,22.106,0,1,1,4.7.5Zm-20.159-26.536a20.57,20.57,0,1,0,24.42-15.809,20.438,20.438,0,0,0-24.42,15.809Z" fill="#003887"/>
              </g>
              <g id="Grupo_54365" data-name="Grupo 54365">
                <g id="Grupo_54364" data-name="Grupo 54364">
                  <g id="Grupo_54362" data-name="Grupo 54362">
                    <path id="Trazado_101435" data-name="Trazado 101435" d="M3004.269,2932.573a24.977,24.977,0,0,0,6.926,5.871,22.08,22.08,0,0,0,4.931,2.141c5.857,1.584,13.339.747,21.376-8.012v-.164a29.156,29.156,0,0,0-7.391-6.1,14.265,14.265,0,0,0-4.677-1.975c-12.248-3.286-21.165,8.076-21.165,8.076Z" fill="#fff"/>
                    <path id="Trazado_101436" data-name="Trazado 101436" d="M3020.9,2942.063a19.074,19.074,0,0,1-4.993-.68,22.5,22.5,0,0,1-5.123-2.221,25.617,25.617,0,0,1-7.177-6.09.825.825,0,0,1-.167-.5v-.164a.828.828,0,0,1,.176-.51c.092-.118,9.4-11.752,22.029-8.364a14.105,14.105,0,0,1,4.285,1.715c.185.111.367.221.571.331a29.759,29.759,0,0,1,7.607,6.27.822.822,0,0,1,.217.558v.164a.828.828,0,0,1-.217.559C3032.659,2939.074,3026.889,2942.063,3020.9,2942.063Zm-15.627-9.565a24.857,24.857,0,0,0,6.328,5.228,20.888,20.888,0,0,0,4.737,2.061c6.972,1.887,13.735-.569,20.108-7.3a27.274,27.274,0,0,0-6.73-5.456c-.227-.123-.431-.245-.638-.369a12.563,12.563,0,0,0-3.861-1.534C3014.96,2922.378,3007.02,2930.521,3005.276,2932.5Z" fill="#003887"/>
                  </g>
                  <g id="Grupo_54363" data-name="Grupo 54363">
                    <circle id="Elipse_4087" data-name="Elipse 4087" cx="8.525" cy="8.525" r="8.525" transform="translate(3008.991 2932.588) rotate(-45)" fill="#5d9af0"/>
                    <path id="Trazado_101437" data-name="Trazado 101437" d="M3021.047,2941.939a9.351,9.351,0,1,1,9.351-9.351A9.362,9.362,0,0,1,3021.047,2941.939Zm0-17.05a7.7,7.7,0,1,0,7.7,7.7A7.708,7.708,0,0,0,3021.047,2924.889Z" fill="#003887"/>
                  </g>
                </g>
              </g>
            </g>
          </g>
        </g>
        <g id="Grupo_54382" data-name="Grupo 54382">
          <g id="Grupo_54369" data-name="Grupo 54369">
            <path id="Trazado_101438" data-name="Trazado 101438" d="M3030.9,3052.427v-5.144a6.966,6.966,0,0,0,5.492-2.944l5.761-8.162a14.58,14.58,0,0,0,2.651-8.383v-18.687a3.145,3.145,0,0,0-6.29,0v-4.36l-7.388.571s.122,10.982-4.515,17.815a37.532,37.532,0,0,1-14.3,12.132v3.172a11.45,11.45,0,0,0,4.336,8.293q.243.192.5.372v5.325Z" fill="#fff"/>
            <path id="Trazado_101439" data-name="Trazado 101439" d="M3030.9,3053.253a.826.826,0,0,1-.827-.826v-5.144a.826.826,0,0,1,.8-.826,6.165,6.165,0,0,0,4.841-2.595l5.761-8.162a13.679,13.679,0,0,0,2.5-7.906v-18.687a2.319,2.319,0,0,0-4.638,0v11.176a.827.827,0,0,1-1.653,0v-14.644l-5.743.444c-.064,2.67-.588,11.529-4.649,17.514a38.187,38.187,0,0,1-14.157,12.193v2.619a10.584,10.584,0,0,0,4.022,7.673c.151.118.3.235.464.347a.829.829,0,0,1,.346.673v5.325a.826.826,0,0,1-1.652,0v-4.908c-.061-.046-.121-.093-.181-.14a12.213,12.213,0,0,1-4.649-8.887.514.514,0,0,1,0-.055v-3.172a.827.827,0,0,1,.494-.757,37,37,0,0,0,13.947-11.839c4.434-6.534,4.374-17.235,4.373-17.342a.827.827,0,0,1,.762-.833l7.388-.571a.825.825,0,0,1,.89.824v1.138a3.97,3.97,0,0,1,6.29,3.222v18.69a15.328,15.328,0,0,1-2.8,8.855l-5.762,8.163a7.836,7.836,0,0,1-5.341,3.229v4.383A.826.826,0,0,1,3030.9,3053.253Z" fill="#003887"/>
          </g>
          <g id="Grupo_54370" data-name="Grupo 54370">
            <path id="Trazado_101440" data-name="Trazado 101440" d="M2991.3,3052.481v-5.325q.253-.18.495-.372a11.446,11.446,0,0,0,4.336-8.294v-3.051s-8.188-1.333-15.794-13.284c-3.632-5.709-4.437-14.883-4.437-14.883v-2.792a2.824,2.824,0,0,0-2.825-2.824,3.145,3.145,0,0,0-3.145,3.145v2.417a3.145,3.145,0,0,0-6.29,0v20.63a14.58,14.58,0,0,0,2.651,8.383l5.761,8.162a6.959,6.959,0,0,0,5.491,2.943v5.145Z" fill="#fff"/>
            <path id="Trazado_101441" data-name="Trazado 101441" d="M2991.3,3053.307a.826.826,0,0,1-.827-.826v-5.325a.826.826,0,0,1,.349-.674q.235-.168.461-.346a10.58,10.58,0,0,0,4.022-7.674v-2.368c-2.192-.6-9.136-3.236-15.665-13.495-3.7-5.812-4.53-14.872-4.563-15.255a.593.593,0,0,1,0-.072v-2.792a2,2,0,0,0-2-2,2.321,2.321,0,0,0-2.319,2.319v15.536a.826.826,0,1,1-1.652,0v-13.119a2.319,2.319,0,1,0-4.638,0v20.63a13.685,13.685,0,0,0,2.5,7.908l5.76,8.16a6.162,6.162,0,0,0,4.84,2.594.827.827,0,0,1,.8.826v5.145a.826.826,0,0,1-1.653,0V3048.1a7.833,7.833,0,0,1-5.34-3.229l-5.761-8.162a15.325,15.325,0,0,1-2.8-8.859v-20.63a26.754,26.754,0,0,0,10.262-6.389,3.655,3.655,0,0,1,3.65,3.651v2.754c.059.611.937,9.18,4.308,14.477,7.283,11.445,15.154,12.9,15.233,12.913a.829.829,0,0,1,.69.815v3.051c0,.019,0,.037,0,.055a12.218,12.218,0,0,1-4.649,8.888c-.059.047-.12.094-.181.141v4.907A.826.826,0,0,1,2991.3,3053.307Z" fill="#003887"/>
          </g>
          <g id="Grupo_54371" data-name="Grupo 54371">
            <path id="Trazado_101442" data-name="Trazado 101442" d="M2980.741,2995.743v12.186c0,13.017,9.354,23.569,22.372,23.569h.372a23.571,23.571,0,0,0,23.57-23.556l4.947.065a28.7,28.7,0,0,1-28.7,28.7c-15.852,0-27.506-12.851-27.506-28.7v-12.922Z" fill="#5d9af0"/>
            <path id="Trazado_101443" data-name="Trazado 101443" d="M3003.3,3037.536c-15.887,0-28.332-12.971-28.332-29.529v-12.922a.826.826,0,0,1,1.652,0v12.922c0,15.632,11.719,27.877,26.68,27.877a27.911,27.911,0,0,0,27.865-27.062l-3.3-.043a24.43,24.43,0,0,1-24.382,23.546h-.372c-13.225,0-23.2-10.488-23.2-24.4v-12.186a.826.826,0,0,1,1.653,0v12.186c0,12.966,9.263,22.743,21.546,22.743h.372a22.773,22.773,0,0,0,22.744-22.73.822.822,0,0,1,.246-.588.8.8,0,0,1,.591-.238l4.947.064a.827.827,0,0,1,.816.827A29.563,29.563,0,0,1,3003.3,3037.536Z" fill="#003887"/>
          </g>
          <g id="Grupo_54372" data-name="Grupo 54372">
            <path id="Trazado_101444" data-name="Trazado 101444" d="M2979.988,2995.4a6.439,6.439,0,1,1,4.442-8.856Z" fill="#5d9af0"/>
            <path id="Trazado_101445" data-name="Trazado 101445" d="M2978.531,2996.4a7.265,7.265,0,1,1,6.656-10.179.826.826,0,0,1-1.514.663,5.607,5.607,0,1,0-3.872,7.719.826.826,0,0,1,.375,1.609A7.237,7.237,0,0,1,2978.531,2996.4Z" fill="#003887"/>
          </g>
          <g id="Grupo_54373" data-name="Grupo 54373">
            <path id="Trazado_101446" data-name="Trazado 101446" d="M3019.793,2986.093a12.2,12.2,0,0,1,2.958,2.266,13.044,13.044,0,0,1,3.416,11.043c-.408,2.594-2.388,5.8-5.09,8.761l-12.311,13.054a7.289,7.289,0,0,1-10.606,0l-13.985-14.829a12.7,12.7,0,0,1-2.678-4.211,13.384,13.384,0,0,1-.318-8.686,12.748,12.748,0,0,1,3-5.132,12.335,12.335,0,0,1,1.366-1.227,11.924,11.924,0,0,1,15.946,1.227l1.975,2.057,1.976-2.057a11.968,11.968,0,0,1,8.481-3.718Z" fill="#ffce3b"/>
            <path id="Trazado_101447" data-name="Trazado 101447" d="M3003.463,3024.332a8.037,8.037,0,0,1-5.9-2.548l-13.985-14.829a13.468,13.468,0,0,1-2.847-4.48,14.2,14.2,0,0,1-.338-9.224,13.665,13.665,0,0,1,3.19-5.465,13.278,13.278,0,0,1,1.458-1.308,12.778,12.778,0,0,1,17.046,1.308l1.379,1.437,1.38-1.437a12.762,12.762,0,0,1,9.064-3.971.827.827,0,1,1,.025,1.653,11.115,11.115,0,0,0-7.9,3.463l-1.976,2.057a.827.827,0,0,1-1.192,0l-1.975-2.057a11.129,11.129,0,0,0-14.845-1.145,11.7,11.7,0,0,0-1.275,1.145,11.989,11.989,0,0,0-2.8,4.8,12.537,12.537,0,0,0,.3,8.146,11.828,11.828,0,0,0,2.5,3.938l13.99,14.835a6.465,6.465,0,0,0,9.4,0l12.31-13.055c2.735-2.994,4.515-6.031,4.876-8.322a12.247,12.247,0,0,0-3.2-10.343,11.4,11.4,0,0,0-2.758-2.113.826.826,0,0,1,.791-1.451,13.057,13.057,0,0,1,3.159,2.419,13.911,13.911,0,0,1,3.636,11.745c-.415,2.641-2.3,5.905-5.3,9.189l-12.32,13.064A8.038,8.038,0,0,1,3003.463,3024.332Z" fill="#003887"/>
          </g>
          <g id="Grupo_54374" data-name="Grupo 54374">
            <path id="Trazado_101448" data-name="Trazado 101448" d="M3039.821,2995.781a2.03,2.03,0,0,1,2,2.4,12.371,12.371,0,0,1-24.277,0,2.037,2.037,0,0,1,4-.772,8.3,8.3,0,0,0,16.278,0A2.031,2.031,0,0,1,3039.821,2995.781Z" fill="#5d9af0"/>
            <path id="Trazado_101449" data-name="Trazado 101449" d="M3029.68,3008.989a13.234,13.234,0,0,1-12.949-10.649,2.805,2.805,0,0,1,.587-2.327,2.867,2.867,0,0,1,5.033,1.231,7.476,7.476,0,0,0,14.658,0,2.867,2.867,0,0,1,5.033-1.232,2.807,2.807,0,0,1,.587,2.327A13.234,13.234,0,0,1,3029.68,3008.989Zm-10.131-12.382a1.227,1.227,0,0,0-.951.452,1.141,1.141,0,0,0-.246.961,11.545,11.545,0,0,0,22.656,0,1.147,1.147,0,0,0-.246-.96,1.226,1.226,0,0,0-.945-.452,1.209,1.209,0,0,0-1.188.965,9.129,9.129,0,0,1-17.9,0A1.208,1.208,0,0,0,3019.549,2996.607Z" fill="#003887"/>
          </g>
          <g id="Grupo_54375" data-name="Grupo 54375">
            <path id="Trazado_101450" data-name="Trazado 101450" d="M3018.4,2996.964a.826.826,0,0,1-.8-.607,88.465,88.465,0,0,1-2.151-14.246,7.831,7.831,0,0,1,7.8-8.519.827.827,0,0,1,0,1.653,6.179,6.179,0,0,0-6.153,6.721,88.454,88.454,0,0,0,2.1,13.951.827.827,0,0,1-.576,1.017A.845.845,0,0,1,3018.4,2996.964Z" fill="#003887"/>
          </g>
          <g id="Grupo_54376" data-name="Grupo 54376">
            <path id="Trazado_101451" data-name="Trazado 101451" d="M3040.963,2996.964a.844.844,0,0,1-.22-.03.827.827,0,0,1-.577-1.016,88.877,88.877,0,0,0,2.1-13.952,6.1,6.1,0,0,0-1.6-4.714,6.189,6.189,0,0,0-4.556-2.007.827.827,0,0,1,0-1.653,7.831,7.831,0,0,1,7.8,8.519,88.347,88.347,0,0,1-2.151,14.246A.826.826,0,0,1,3040.963,2996.964Z" fill="#003887"/>
          </g>
          <g id="Grupo_54377" data-name="Grupo 54377">
            <path id="Trazado_101452" data-name="Trazado 101452" d="M3027.6,2974.418a2.176,2.176,0,1,1-2.176-2.175A2.176,2.176,0,0,1,3027.6,2974.418Z" fill="#fff"/>
            <path id="Trazado_101453" data-name="Trazado 101453" d="M3025.424,2977.42a3,3,0,1,1,3-3A3,3,0,0,1,3025.424,2977.42Zm0-4.351a1.349,1.349,0,1,0,1.349,1.349A1.351,1.351,0,0,0,3025.424,2973.069Z" fill="#003887"/>
          </g>
          <g id="Grupo_54378" data-name="Grupo 54378">
            <path id="Trazado_101454" data-name="Trazado 101454" d="M3036.111,2974.418a2.176,2.176,0,1,1-2.176-2.175A2.176,2.176,0,0,1,3036.111,2974.418Z" fill="#fff"/>
            <path id="Trazado_101455" data-name="Trazado 101455" d="M3033.935,2977.42a3,3,0,1,1,3-3A3,3,0,0,1,3033.935,2977.42Zm0-4.351a1.349,1.349,0,1,0,1.35,1.349A1.35,1.35,0,0,0,3033.935,2973.069Z" fill="#003887"/>
          </g>
          <g id="Grupo_54379" data-name="Grupo 54379">
            <path id="Trazado_101456" data-name="Trazado 101456" d="M2984.79,3040.857a.827.827,0,0,1-.822-.752,6.734,6.734,0,0,0-2.54-5.072c-3.088-2.289-7.963-1.311-8.012-1.3a.827.827,0,0,1-.844-.332,11.676,11.676,0,0,1-2.146-6.766v-3.317a3.057,3.057,0,0,0-2.781-3.1,2.981,2.981,0,0,0-3.18,2.973v4.663a.826.826,0,1,1-1.652,0v-4.663a4.65,4.65,0,0,1,1.465-3.38,4.6,4.6,0,0,1,3.474-1.242,4.71,4.71,0,0,1,4.326,4.754v3.317a10.024,10.024,0,0,0,1.558,5.385c1.51-.219,5.724-.571,8.769,1.681a8.311,8.311,0,0,1,3.209,6.256.828.828,0,0,1-.748.9Z" fill="#003887"/>
          </g>
          <g id="Grupo_54380" data-name="Grupo 54380">
            <path id="Trazado_101457" data-name="Trazado 101457" d="M3023.657,3040.8l-.076,0a.828.828,0,0,1-.748-.9,8.314,8.314,0,0,1,3.209-6.257c3.045-2.251,7.259-1.9,8.769-1.68a10.032,10.032,0,0,0,1.558-5.385v-3.317a4.711,4.711,0,0,1,4.326-4.754,4.592,4.592,0,0,1,3.474,1.242,4.651,4.651,0,0,1,1.465,3.381v4.662a.827.827,0,1,1-1.653,0v-4.662a2.98,2.98,0,0,0-3.18-2.974,3.056,3.056,0,0,0-2.78,3.1v3.317a11.671,11.671,0,0,1-2.146,6.765.828.828,0,0,1-.844.333c-.049-.01-4.924-.988-8.012,1.3a6.733,6.733,0,0,0-2.54,5.072A.827.827,0,0,1,3023.657,3040.8Z" fill="#003887"/>
          </g>
          <g id="Grupo_54381" data-name="Grupo 54381">
            <path id="Trazado_101458" data-name="Trazado 101458" d="M2998.473,3007.11l-.054,0a.828.828,0,0,1-.753-.643l-1.542-6.853-.487,1.361a.826.826,0,0,1-.778.548H2986.4a.826.826,0,1,1,0-1.652h7.874l1.25-3.495a.826.826,0,0,1,1.584.1l1.551,6.893,1.082-2.953a.836.836,0,0,1,.788-.542l3.966.061,1.951-4.537a.826.826,0,0,1,1.565.145l1.461,6.489.43-1.492a.826.826,0,0,1,.794-.6h4.817a.826.826,0,1,1,0,1.652h-4.2l-1.15,3.989a.834.834,0,0,1-.819.6.825.825,0,0,1-.781-.644l-1.609-7.147-1.163,2.705a.814.814,0,0,1-.772.5l-3.932-.06-1.846,5.038A.827.827,0,0,1,2998.473,3007.11Z" fill="#003887"/>
          </g>
        </g>
        <g id="Grupo_54395" data-name="Grupo 54395">
          <g id="Grupo_54394" data-name="Grupo 54394">
            <g id="Grupo_54383" data-name="Grupo 54383">
              <ellipse id="Elipse_4088" data-name="Elipse 4088" cx="8.234" cy="8.264" rx="8.234" ry="8.264" transform="translate(3063.265 2932.431)" fill="#fff"/>
              <path id="Trazado_101459" data-name="Trazado 101459" d="M3071.5,2949.786a9.091,9.091,0,1,1,9.06-9.09A9.086,9.086,0,0,1,3071.5,2949.786Zm0-16.528a7.438,7.438,0,1,0,7.408,7.438A7.431,7.431,0,0,0,3071.5,2933.258Z" fill="#003887"/>
            </g>
            <g id="Grupo_54389" data-name="Grupo 54389">
              <g id="Grupo_54385" data-name="Grupo 54385">
                <g id="Grupo_54384" data-name="Grupo 54384">
                  <path id="Trazado_101460" data-name="Trazado 101460" d="M3087.364,2961.663c-.151-5.262-5.114-9.467-10.661-9.129-.044,0-.088,0-.133,0l-11.777-.054h-.075l-.139,0c-5.781.128-10.443,4.643-10.392,10.064l.222,24.015a3.874,3.874,0,0,0,4.023,3.668,4.049,4.049,0,0,0,3.366-1.773v32.876a4.575,4.575,0,0,0,4.692,4.788c3.893.023,4.536-4.023,4.536-4.023s.693,3.6,4.208,4.034c2.85.354,5.333-1.476,5.333-4.144v-32.818a4.115,4.115,0,0,0,2.962,1.228,3.853,3.853,0,0,0,3.988-3.721Z" fill="#fff"/>
                  <path id="Trazado_101461" data-name="Trazado 101461" d="M3075.936,3027a6.392,6.392,0,0,1-.8-.05,5.539,5.539,0,0,1-4.064-2.63,5.087,5.087,0,0,1-4.582,2.625,5.4,5.4,0,0,1-5.514-5.614v-30.977a5.007,5.007,0,0,1-2.534.7,4.693,4.693,0,0,1-4.855-4.486l-.222-24.015c-.055-5.871,4.969-10.76,11.2-10.9l.143,0h.093l11.778.053h.055a11.252,11.252,0,0,1,8.246,2.909,9.874,9.874,0,0,1,3.315,7.021c0,.019.154,25.034.154,25.034a4.364,4.364,0,0,1-1.413,3.23,4.949,4.949,0,0,1-3.375,1.323,5.112,5.112,0,0,1-2.163-.475v31.238a4.779,4.779,0,0,1-1.639,3.629A5.737,5.737,0,0,1,3075.936,3027Zm-4.91-5.728a.825.825,0,0,1,.811.668,4.289,4.289,0,0,0,3.5,3.37,4.213,4.213,0,0,0,3.324-.933,3.15,3.15,0,0,0,1.08-2.391v-32.818a.826.826,0,0,1,1.42-.575,3.372,3.372,0,0,0,4.64.1,2.724,2.724,0,0,0,.891-2.015l-.153-25.006a8.241,8.241,0,0,0-2.778-5.839,9.577,9.577,0,0,0-7.007-2.479c-.049,0-.1,0-.15,0l-11.814-.054-.071-.826.015.826-.139,0c-5.328.118-9.627,4.259-9.581,9.231l.222,24.015a3.036,3.036,0,0,0,3.163,2.849h.027a3.214,3.214,0,0,0,2.683-1.4.826.826,0,0,1,1.516.455v32.876a3.762,3.762,0,0,0,3.871,3.962h.027c3.1,0,3.666-3.193,3.689-3.329a.827.827,0,0,1,.805-.692Z" fill="#003887"/>
                </g>
              </g>
              <g id="Grupo_54386" data-name="Grupo 54386">
                <path id="Trazado_101462" data-name="Trazado 101462" d="M3061.8,2989.284a.826.826,0,0,1-.826-.827l.03-23.992a.826.826,0,1,1,1.652,0l-.03,23.992A.825.825,0,0,1,3061.8,2989.284Z" fill="#003887"/>
              </g>
              <g id="Grupo_54387" data-name="Grupo 54387">
                <path id="Trazado_101463" data-name="Trazado 101463" d="M3080.567,2990a.827.827,0,0,1-.827-.826v-24.7a.827.827,0,0,1,1.653,0v24.7A.826.826,0,0,1,3080.567,2990Z" fill="#003887"/>
              </g>
              <g id="Grupo_54388" data-name="Grupo 54388">
                <path id="Trazado_101464" data-name="Trazado 101464" d="M3071.026,3022.926a.826.826,0,0,1-.826-.826v-34.022a.826.826,0,0,1,1.652,0V3022.1A.826.826,0,0,1,3071.026,3022.926Z" fill="#003887"/>
              </g>
            </g>
            <g id="Grupo_54393" data-name="Grupo 54393">
              <g id="Grupo_54390" data-name="Grupo 54390">
                <rect id="Rectángulo_5494" data-name="Rectángulo 5494" width="17.558" height="13.504" rx="0.539" transform="translate(3075.346 2990.575)" fill="#5d9af0"/>
                <path id="Trazado_101465" data-name="Trazado 101465" d="M3092.364,3004.906h-16.478a1.367,1.367,0,0,1-1.366-1.366v-12.425a1.367,1.367,0,0,1,1.366-1.366h16.478a1.367,1.367,0,0,1,1.366,1.366v12.425A1.367,1.367,0,0,1,3092.364,3004.906Zm-16.192-1.653h15.906V2991.4h-15.906Z" fill="#003887"/>
              </g>
              <g id="Grupo_54391" data-name="Grupo 54391">
                <path id="Trazado_101466" data-name="Trazado 101466" d="M3092.9,2992.758l-1.807,3.732-.353.769a3.221,3.221,0,0,1-2.917,1.914h-7.4a3.219,3.219,0,0,1-2.909-1.9l-.369-.8-1.8-3.715Z" fill="#5d9af0"/>
                <path id="Trazado_101467" data-name="Trazado 101467" d="M3087.827,3000h-7.4a4.06,4.06,0,0,1-3.658-2.376l-.371-.8-1.792-3.7a.827.827,0,0,1,1.488-.72l2.175,4.534a2.407,2.407,0,0,0,2.158,1.415h7.4a2.4,2.4,0,0,0,2.165-1.431l.354-.771,1.814-3.747a.827.827,0,1,1,1.488.72l-2.154,4.486A4.058,4.058,0,0,1,3087.827,3000Z" fill="#003887"/>
              </g>
              <g id="Grupo_54392" data-name="Grupo 54392">
                <path id="Rectángulo_5495" data-name="Rectángulo 5495" d="M.519,0H6.454a.519.519,0,0,1,.519.519V3.572a0,0,0,0,1,0,0H0a0,0,0,0,1,0,0V.519A.519.519,0,0,1,.519,0Z" transform="translate(3080.544 2987.004)" fill="#fff"/>
                <path id="Trazado_101468" data-name="Trazado 101468" d="M3087.518,2991.4h-6.974a.826.826,0,0,1-.826-.826v-3.053a1.347,1.347,0,0,1,1.346-1.345H3087a1.347,1.347,0,0,1,1.345,1.345v3.053A.826.826,0,0,1,3087.518,2991.4Zm-6.147-1.652h5.32v-1.92h-5.32Z" fill="#003887"/>
              </g>
            </g>
          </g>
        </g>
      </g>
    </g>
    <rect id="Rectángulo_6004" data-name="Rectángulo 6004" width="400" height="212" transform="translate(180 1053)" fill="none"/>
  </g>
</svg>
