<svg xmlns="http://www.w3.org/2000/svg" width="190" height="90" viewBox="0 0 190 90">
  <g id="Grupo_54933" data-name="Grupo 54933" transform="translate(-1125 -1199)">
    <g id="Grupo_54492" data-name="Grupo 54492" transform="translate(1181 1200)">
      <g id="Grupo_54892" data-name="Grupo 54892" transform="translate(1.714 55.982)">
        <g id="Grupo_54891" data-name="Grupo 54891">
          <path id="Trazado_110793" data-name="Trazado 110793" d="M306.95,450.105a2.227,2.227,0,0,1,0-3.1l1.314-1.357a2.227,2.227,0,0,0,.33-2.665l-2-3.47a2.228,2.228,0,0,0-2.474-1.046l-1.831.46a2.229,2.229,0,0,1-2.687-1.551l-.517-1.817a2.227,2.227,0,0,0-2.143-1.619h-4.006a2.229,2.229,0,0,0-2.143,1.619l-.517,1.817a2.229,2.229,0,0,1-2.687,1.551l-1.83-.46a2.224,2.224,0,0,0-2.473,1.046l-2,3.47a2.226,2.226,0,0,0,.33,2.665L282.924,447a2.227,2.227,0,0,1,0,3.1l-1.315,1.357a2.226,2.226,0,0,0-.33,2.665l2,3.47a2.225,2.225,0,0,0,2.473,1.046l1.83-.46a2.229,2.229,0,0,1,2.687,1.551l.517,1.817a2.225,2.225,0,0,0,2.143,1.617h4.006a2.226,2.226,0,0,0,2.143-1.617l.517-1.817a2.229,2.229,0,0,1,2.687-1.551l1.831.46a2.228,2.228,0,0,0,2.474-1.046l2-3.47a2.227,2.227,0,0,0-.33-2.665Zm-12.013,2.881a4.432,4.432,0,1,1,4.43-4.432A4.432,4.432,0,0,1,294.937,452.986Z" transform="translate(-280.98 -433.94)" fill="#bdd3dd"/>
        </g>
      </g>
      <g id="Grupo_54893" data-name="Grupo 54893" transform="translate(57.225 56.957)">
        <path id="Trazado_110794" data-name="Trazado 110794" d="M629.124,466.9H608.391a4.119,4.119,0,0,1-4.12-4.12V443.742a4.119,4.119,0,0,1,4.12-4.12h20.732a4.12,4.12,0,0,1,4.12,4.12V462.78a4.12,4.12,0,0,1-4.12,4.12Z" transform="translate(-604.272 -439.622)" fill="#eaf0f0"/>
      </g>
      <g id="Grupo_54896" data-name="Grupo 54896" transform="translate(1.83 1.663)">
        <g id="Grupo_54894" data-name="Grupo 54894" transform="translate(7.356)">
          <path id="Trazado_110795" data-name="Trazado 110795" d="M330.983,132.249a6.484,6.484,0,0,1-6.484-6.484v-1.686a6.484,6.484,0,1,1,12.967,0v1.686A6.484,6.484,0,0,1,330.983,132.249Z" transform="translate(-324.499 -117.595)" fill="#ffdad5"/>
        </g>
        <g id="Grupo_54895" data-name="Grupo 54895" transform="translate(0 14.654)">
          <path id="Trazado_110796" data-name="Trazado 110796" d="M290.721,202.938h9.553A9.064,9.064,0,0,1,309.338,212v5.141h-27.68V212A9.063,9.063,0,0,1,290.721,202.938Z" transform="translate(-281.658 -202.938)" fill="#ffce62"/>
        </g>
      </g>
      <g id="Grupo_54897" data-name="Grupo 54897" transform="translate(57.932 1.664)">
        <ellipse id="Elipse_4147" data-name="Elipse 4147" cx="14.132" cy="14.132" rx="14.132" ry="14.132" fill="#e77c20"/>
      </g>
      <g id="Grupo_54898" data-name="Grupo 54898" transform="translate(0 0)">
        <path id="Trazado_110797" data-name="Trazado 110797" d="M332.6,483.242a6.156,6.156,0,0,0-6.149,6.149c.309,8.146,11.988,8.145,12.3,0A6.155,6.155,0,0,0,332.6,483.242Zm0,8.864a2.714,2.714,0,1,1,2.713-2.715A2.718,2.718,0,0,1,332.6,492.106Z" transform="translate(-316.931 -418.795)"/>
        <path id="Trazado_110798" data-name="Trazado 110798" d="M301.229,438.561a3.958,3.958,0,0,0,.585-4.719l-2-3.471a3.959,3.959,0,0,0-4.38-1.852l-1.831.46a.51.51,0,0,1-.617-.355l-.516-1.815a3.959,3.959,0,0,0-3.8-2.868h-4.006a3.963,3.963,0,0,0-3.794,2.866l-.517,1.816a.509.509,0,0,1-.617.355l-1.829-.46a3.956,3.956,0,0,0-4.38,1.852l-2,3.47a3.959,3.959,0,0,0,.584,4.719l1.316,1.357a.507.507,0,0,1,0,.71l-1.314,1.355a3.959,3.959,0,0,0-.585,4.72l2,3.468a3.956,3.956,0,0,0,4.379,1.854l1.831-.46a.509.509,0,0,1,.617.355l.516,1.815a3.958,3.958,0,0,0,3.8,2.867h4.006a3.957,3.957,0,0,0,3.794-2.865l.517-1.816a.509.509,0,0,1,.617-.356l1.829.46a3.961,3.961,0,0,0,4.382-1.853l2-3.469a3.958,3.958,0,0,0-.583-4.718l-1.314-1.356h0a.508.508,0,0,1,0-.711Zm-3.779,4.456,1.315,1.358a.512.512,0,0,1,.074.611l-2,3.469a.514.514,0,0,1-.569.239l-1.83-.46a3.929,3.929,0,0,0-4.758,2.746l-.518,1.819a.511.511,0,0,1-.491.368h-4.006a.511.511,0,0,1-.491-.37l-.517-1.817a3.969,3.969,0,0,0-4.757-2.745l-1.832.461a.51.51,0,0,1-.566-.24l-2-3.471a.512.512,0,0,1,.076-.611l1.315-1.356a3.925,3.925,0,0,0,0-5.492l-1.316-1.357a.511.511,0,0,1-.075-.61l2-3.472a.509.509,0,0,1,.566-.237l1.83.46a3.928,3.928,0,0,0,4.758-2.746l.517-1.816a.514.514,0,0,1,.492-.373h4.006a.512.512,0,0,1,.491.372l.517,1.817a3.928,3.928,0,0,0,4.758,2.745l1.832-.461a.513.513,0,0,1,.567.239l2,3.471a.512.512,0,0,1-.076.612l-1.312,1.355a3.926,3.926,0,0,0,0,5.491Z" transform="translate(-271 -369.676)"/>
        <path id="Trazado_110799" data-name="Trazado 110799" d="M494.424,489.112a1.734,1.734,0,0,0-.136-2.272l-4.709-4.709a1.717,1.717,0,0,0-2.428,2.429l1.778,1.778H480.3a1.717,1.717,0,1,0,0,3.434h8.633l-1.778,1.778a1.717,1.717,0,1,0,2.428,2.428l4.709-4.709A1.707,1.707,0,0,0,494.424,489.112Z" transform="translate(-442.936 -417.458)"/>
        <path id="Trazado_110800" data-name="Trazado 110800" d="M494.765,169.175a1.725,1.725,0,0,0-.476-.92l-4.709-4.709a1.717,1.717,0,1,0-2.428,2.429l1.778,1.778H480.3a1.717,1.717,0,0,0,0,3.434h8.633l-1.778,1.778a1.717,1.717,0,0,0,2.428,2.428l4.709-4.709a1.729,1.729,0,0,0,.476-1.509Z" transform="translate(-442.937 -153.576)"/>
        <path id="Trazado_110801" data-name="Trazado 110801" d="M332.731,317.334a1.717,1.717,0,0,0-1.717,1.717v7.127l-1.778-1.778a1.717,1.717,0,0,0-2.429,2.429l4.709,4.709a1.737,1.737,0,0,0,2.428,0l4.709-4.709a1.717,1.717,0,1,0-2.428-2.429l-1.778,1.778v-7.127a1.717,1.717,0,0,0-1.717-1.717Z" transform="translate(-316.808 -281.374)"/>
        <path id="Trazado_110802" data-name="Trazado 110802" d="M657.068,317.334a1.717,1.717,0,0,0-1.717,1.717v7.127l-1.778-1.778a1.717,1.717,0,1,0-2.428,2.429l4.709,4.709a1.737,1.737,0,0,0,2.428,0l4.709-4.709a1.717,1.717,0,0,0-2.428-2.429l-1.778,1.778v-7.127a1.717,1.717,0,0,0-1.717-1.717Z" transform="translate(-585.456 -281.374)"/>
        <path id="Trazado_110803" data-name="Trazado 110803" d="M620.84,429.621H600.108a5.843,5.843,0,0,0-5.837,5.837V454.5a5.843,5.843,0,0,0,5.837,5.837h15.311a1.717,1.717,0,0,0,0-3.434H600.108a2.4,2.4,0,0,1-2.4-2.4V435.458a2.4,2.4,0,0,1,2.4-2.4H620.84a2.4,2.4,0,0,1,2.4,2.4v13.734a1.717,1.717,0,0,0,3.434,0V435.458a5.843,5.843,0,0,0-5.837-5.837Z" transform="translate(-538.764 -374.381)"/>
        <path id="Trazado_110804" data-name="Trazado 110804" d="M273.374,140.146h27.68a1.717,1.717,0,0,0,1.717-1.717v-5.141a10.8,10.8,0,0,0-9-10.63,8.157,8.157,0,0,0,1.642-4.917v-1.686c-.414-10.867-15.992-10.859-16.4,0v1.686a8.159,8.159,0,0,0,1.642,4.917,10.8,10.8,0,0,0-9,10.63v5.141a1.717,1.717,0,0,0,1.717,1.717Zm9.073-24.092a4.767,4.767,0,0,1,9.533,0v1.686a4.767,4.767,0,0,1-9.533,0Zm-7.356,17.233a7.355,7.355,0,0,1,7.346-7.346h9.553a7.355,7.355,0,0,1,7.346,7.346v3.424h-3.455V133a1.717,1.717,0,0,0-3.434,0v3.709H282.027V133a1.717,1.717,0,0,0-3.434,0v3.709h-3.5Z" transform="translate(-271.544 -107.907)"/>
        <path id="Trazado_110805" data-name="Trazado 110805" d="M614.244,139.793a15.867,15.867,0,0,0,15.849-15.849c-.8-21-30.9-20.991-31.7,0a15.867,15.867,0,0,0,15.849,15.849Zm0-28.263a12.429,12.429,0,0,1,12.414,12.415c-.624,16.447-24.208,16.442-24.829,0a12.429,12.429,0,0,1,12.415-12.414Z" transform="translate(-542.18 -108.149)"/>
        <path id="Trazado_110806" data-name="Trazado 110806" d="M652.877,178.831a1.718,1.718,0,0,0,2.429,0l7.321-7.321a1.717,1.717,0,0,0-2.429-2.428l-6.107,6.107-2.328-2.328a1.717,1.717,0,1,0-2.428,2.428Z" transform="translate(-583.956 -158.161)"/>
        <path id="Trazado_110807" data-name="Trazado 110807" d="M655.982,482.762h-12a1.717,1.717,0,0,0,0,3.434h12A1.717,1.717,0,0,0,655.982,482.762Z" transform="translate(-578.526 -418.397)"/>
        <path id="Trazado_110808" data-name="Trazado 110808" d="M643.982,533.726a1.717,1.717,0,0,0,0,3.434h6.254a1.717,1.717,0,0,0,0-3.434Z" transform="translate(-578.526 -460.611)"/>
        <path id="Trazado_110809" data-name="Trazado 110809" d="M758.862,583.028a1.716,1.716,0,1,0-.741,2.15A1.73,1.73,0,0,0,758.862,583.028Z" transform="translate(-672.358 -500.589)"/>
      </g>
    </g>
    <rect id="Rectángulo_6008" data-name="Rectángulo 6008" width="190" height="90" transform="translate(1125 1199)" fill="none"/>
  </g>
</svg>
