<svg xmlns="http://www.w3.org/2000/svg" width="400" height="321" viewBox="0 0 400 321">
  <g id="Grupo_54491" data-name="Grupo 54491" transform="translate(-180 -558)">
    <rect id="Rectángulo_5503" data-name="Rectángulo 5503" width="400" height="321" transform="translate(180 558)" fill="#fff"/>
    <g id="Grupo_54490" data-name="Grupo 54490" transform="translate(143.063 2470.302)">
      <rect id="Rectángulo_5504" data-name="Rectángulo 5504" width="378.932" height="12.061" rx="6.03" transform="translate(47.766 -1622.186)" fill="#004968" opacity="0.1"/>
      <g id="Grupo_54401" data-name="Grupo 54401" transform="translate(166.721 -1907.517)">
        <g id="Grupo_54398" data-name="Grupo 54398" transform="translate(0 10.081)">
          <path id="Trazado_101469" data-name="Trazado 101469" d="M1247.514-1763.538a63.944,63.944,0,0,1-21.552,47.943q-.46.408-.929.808a63.842,63.842,0,0,1-41.617,15.347,64.1,64.1,0,0,1-64.1-64.1,64.1,64.1,0,0,1,64.1-64.1A64.1,64.1,0,0,1,1247.514-1763.538Z" transform="translate(-1117.704 1829.25)" fill="#030504" opacity="0.1"/>
          <path id="Trazado_101470" data-name="Trazado 101470" d="M1234.6-1775.532a63.03,63.03,0,0,1-21.244,47.258q-.453.4-.915.8a62.929,62.929,0,0,1-41.022,15.128,63.181,63.181,0,0,1-63.181-63.181,63.181,63.181,0,0,1,63.181-63.181A63.181,63.181,0,0,1,1234.6-1775.532Z" transform="translate(-1108.241 1838.713)" fill="#fff"/>
          <circle id="Elipse_4089" data-name="Elipse 4089" cx="51.854" cy="51.854" r="51.854" transform="translate(11.328 11.328)" fill="#ea4654"/>
          <circle id="Elipse_4090" data-name="Elipse 4090" cx="39.413" cy="39.413" r="39.413" transform="translate(23.768 23.768)" fill="#fff"/>
          <circle id="Elipse_4091" data-name="Elipse 4091" cx="26.376" cy="26.376" r="26.376" transform="translate(25.881 63.181) rotate(-45)" fill="#ea454c"/>
          <circle id="Elipse_4092" data-name="Elipse 4092" cx="13.294" cy="13.294" r="13.294" transform="translate(44.381 63.181) rotate(-45)" fill="#fff"/>
        </g>
        <g id="Grupo_54400" data-name="Grupo 54400" transform="translate(63.412)">
          <g id="Grupo_54399" data-name="Grupo 54399" transform="translate(0 5.958)">
            <path id="Trazado_101471" data-name="Trazado 101471" d="M1543.494-1463.112l4.94-10.173.442,5.5Z" transform="translate(-1543.494 1530.648)" fill="#404040"/>
            <path id="Trazado_101472" data-name="Trazado 101472" d="M1543.494-1430.871l10.764-3.468-5.383-1.207Z" transform="translate(-1543.494 1498.406)" fill="#404040"/>
            <rect id="Rectángulo_5505" data-name="Rectángulo 5505" width="95.242" height="1.213" transform="translate(4.858 62.46) rotate(-40.981)" fill="#404040"/>
          </g>
          <path id="Trazado_101473" data-name="Trazado 101473" d="M2002.134-1892.227l.422-6.607,10.31-9.071-.417,6.529Z" transform="translate(-1935.315 1907.905)" fill="#404040"/>
          <path id="Trazado_101474" data-name="Trazado 101474" d="M2019.052-1862.131l-6.607-.422-10.31,9.071,6.528.417Z" transform="translate(-1935.315 1869.161)" fill="#404040"/>
        </g>
        <path id="Trazado_101475" data-name="Trazado 101475" d="M1577.77-1364.986l-8.159-9.392-8.552-9.845-8.584-9.882-3.506-4.037,4.7-.378-10.173-4.94,3.468,10.764,1.052-4.694h0l3.548,4.084,8.583,9.88,8.552,9.844,8.158,9.391,7.43,8.553q.462-.394.916-.8Z" transform="translate(-1480.082 1476.952)" fill="#404040" opacity="0.1"/>
      </g>
      <g id="Grupo_54402" data-name="Grupo 54402" transform="translate(209.67 -1730.01)">
        <g id="Monitor" transform="translate(0 0)">
          <rect id="Rectángulo_5506" data-name="Rectángulo 5506" width="5.977" height="23.909" transform="translate(21.618 18.462)" fill="#aeaeae"/>
          <rect id="Rectángulo_5507" data-name="Rectángulo 5507" width="49.214" height="33.5" rx="2.231" fill="#cdcdcc"/>
          <rect id="Rectángulo_5508" data-name="Rectángulo 5508" width="48.152" height="31.111" transform="translate(0.531 0.465)" fill="#1c1824"/>
          <path id="Rectángulo_5509" data-name="Rectángulo 5509" d="M1.162,0H21a1.162,1.162,0,0,1,1.162,1.162v0a0,0,0,0,1,0,0H0a0,0,0,0,1,0,0v0A1.162,1.162,0,0,1,1.162,0Z" transform="translate(13.524 42.371)" fill="#cdcdcc"/>
        </g>
      </g>
      <g id="Grupo_54404" data-name="Grupo 54404" transform="translate(107.289 -1763.574)">
        <g id="Grupo_54403" data-name="Grupo 54403" transform="translate(0 0)">
          <path id="Trazado_101476" data-name="Trazado 101476" d="M1042.136-203.982s5.263,1.5,8.354-.962c0,0,4.77,5,9.881,5.379,0,0,.883.946,0,1.136s-10.916.568-12.809-.82c0,0-3.016,1.241-5.427-.252C1040.813-200.321,1042.136-203.982,1042.136-203.982Z" transform="translate(-1003.784 344.318)" fill="#171616"/>
          <path id="Trazado_101477" data-name="Trazado 101477" d="M863.425-205.539s-5.127,1.461-8.139-.937c0,0-4.647,4.871-9.626,5.24,0,0-.86.922,0,1.106s10.634.553,12.479-.8c0,0,2.938,1.209,5.286-.246C864.713-201.973,863.425-205.539,863.425-205.539Z" transform="translate(-840.211 345.594)" fill="#171616"/>
          <path id="Trazado_101478" data-name="Trazado 101478" d="M904.954-619.81l-2.845,69.223s5.7,2.668,8.706.613l1.868-29.05,5.934-26.4L928.625-579.5l-2.845,29.843s7.079,1.493,9.168-1.041l3.383-30.756a7.068,7.068,0,0,0-.15-2.39l-7.94-33.494S912.111-614.277,904.954-619.81Z" transform="translate(-887.574 690.069)" fill="#5b050d"/>
          <path id="Trazado_101479" data-name="Trazado 101479" d="M977.735-925.061a4.953,4.953,0,0,0,3.052-1.148l-.325,8.313h-7.9l-1.042-9.762A8.12,8.12,0,0,0,977.735-925.061Z" transform="translate(-945.419 946.631)" fill="#f0d8c2"/>
          <path id="Trazado_101480" data-name="Trazado 101480" d="M978.126-960.091l-.225,5.751a4.1,4.1,0,0,1-3.283,1.49c-3.295,0-5.2-2.186-6.3-4.767l-.3-2.84Z" transform="translate(-942.502 973.966)" fill="#f3dfc3"/>
          <path id="Trazado_101481" data-name="Trazado 101481" d="M971.921-1005.135a4.1,4.1,0,0,1-3.283,1.49c-3.295,0-5.2-2.186-6.3-4.766a23.2,23.2,0,0,1-1.5-8.258l1.363-1.293,2.536-2.407,8.436-1.035a46.8,46.8,0,0,1,.758,7.729C973.958-1010.458,973.531-1007.034,971.921-1005.135Z" transform="translate(-936.523 1024.76)" fill="#f0d8c2"/>
          <path id="Trazado_101482" data-name="Trazado 101482" d="M979.418-940.133l-.031.8a4.952,4.952,0,0,1-3.052,1.148,8.119,8.119,0,0,1-6.218-2.6l-.28-2.624c1.1,2.581,3,4.767,6.3,4.767A4.1,4.1,0,0,0,979.418-940.133Z" transform="translate(-944.019 959.759)" fill="#ddc1ac"/>
          <path id="Trazado_101483" data-name="Trazado 101483" d="M971.921-987.914a4.1,4.1,0,0,1-3.283,1.49c-3.295,0-5.2-2.186-6.3-4.767a23.2,23.2,0,0,1-1.5-8.258l1.363-1.293,11.73,4.286C973.958-993.237,973.531-989.814,971.921-987.914Z" transform="translate(-936.523 1007.54)" fill="#f0d8c2"/>
          <path id="Trazado_101484" data-name="Trazado 101484" d="M952.32-1034.7s9.94,2.758,13.926-4.124c0,0-6.495-2.723-10.085-2.723s-5.652,3.872-5.652,3.872-4.934,2.988,1.873,13.354Z" transform="translate(-926.471 1041.546)" fill="#2c2c2c"/>
          <path id="Trazado_101485" data-name="Trazado 101485" d="M958.149-985.2c.711,1.01.785,2.183.163,2.621s-1.7-.026-2.413-1.035-.785-2.183-.164-2.621S957.437-986.208,958.149-985.2Z" transform="translate(-931.915 995.586)" fill="#f0d8c2"/>
          <path id="Trazado_101486" data-name="Trazado 101486" d="M928.3-905.579l-1.892,2.187-7.218,2v45.9s13.892,4.358,25.286,0v-45.67l-5.992-1.771-1.306-2.088-4.5,4.313Z" transform="translate(-901.808 928.23)" fill="#e77c20"/>
          <path id="Trazado_101487" data-name="Trazado 101487" d="M1087.411-855.574l-4.934,3.869s-1.279.913-2.194,0-9.313-12.928-9.313-12.928V-879.1s1.3.808,4.761,6.492,7.079,11.4,7.079,11.4l1.751-1A15.965,15.965,0,0,0,1087.411-855.574Z" transform="translate(-1028.304 906.163)" fill="#e77c20"/>
          <path id="Trazado_101488" data-name="Trazado 101488" d="M832.244-880.457v13.435s-9.594,7.222-9.764,12.4a6.251,6.251,0,0,0,.74,2.854,17.331,17.331,0,0,0-5.328,3.671l-.076-.1c-4.606-6.028-2.446-11.089-2.446-11.089C819.636-869.524,832.244-880.457,832.244-880.457Z" transform="translate(-814.864 907.293)" fill="#e77c20"/>
          <path id="Trazado_101489" data-name="Trazado 101489" d="M1173.164-868.989s.714,4.338-1.562,6.614a10.47,10.47,0,0,1-3.423.865L1155.4-851.488a15.967,15.967,0,0,1-2.85-6.635l11.808-6.743s1.728-7.212,6.679-5.418c0,0,6.6-4.47,7.212-3.855S1173.164-868.989,1173.164-868.989Z" transform="translate(-1096.293 902.077)" fill="#f0d8c2"/>
          <path id="Trazado_101490" data-name="Trazado 101490" d="M850.761-689.114c-2.9.578-5.346-3.744-5.346-3.744s-7.762-5.739-12.378-11.731a17.327,17.327,0,0,1,5.328-3.671c2.38,4.9,9.667,10.624,9.667,10.624l3.7,1.763C855.425-694.11,853.664-689.692,850.761-689.114Z" transform="translate(-830.009 763.784)" fill="#f0d8c2"/>
        </g>
        <path id="Trazado_101491" data-name="Trazado 101491" d="M968.438-901.1l-3.128,3.021-2.794-5.315,1.892-2.187Z" transform="translate(-937.918 928.23)" fill="#dae4ee"/>
        <path id="Trazado_101492" data-name="Trazado 101492" d="M1002.206-898.277l2.724,3.293,2.739-5.187-1.306-2.088Z" transform="translate(-970.996 925.464)" fill="#dae4ee"/>
      </g>
      <g id="Grupo_54421" data-name="Grupo 54421" transform="translate(324.177 -1711.205)">
        <path id="Trazado_101508" data-name="Trazado 101508" d="M2350.975-585.968h-18.534a.656.656,0,0,1-.654-.654h0a.656.656,0,0,1,.654-.654h18.534a.656.656,0,0,1,.654.654h0A.656.656,0,0,1,2350.975-585.968Z" transform="translate(-2311.833 610.586)" fill="#cdcdcd"/>
        <path id="Trazado_101509" data-name="Trazado 101509" d="M2234.011-704.9l-4.058-21.606a.852.852,0,0,0-.837-.695H2215.1a.852.852,0,0,0-.838,1.007l4.005,21.606a.851.851,0,0,0,.838.7h14.07A.852.852,0,0,0,2234.011-704.9Z" transform="translate(-2213.874 727.196)" fill="#cdcdcd"/>
        <path id="Trazado_101510" data-name="Trazado 101510" d="M2231.775-704.9l-4.058-21.606a.852.852,0,0,0-.837-.695h-14.017a.852.852,0,0,0-.838,1.007l4.005,21.606a.852.852,0,0,0,.838.7h14.07A.852.852,0,0,0,2231.775-704.9Z" transform="translate(-2212.011 727.196)" fill="#e3e3e2"/>
        <rect id="Rectángulo_5511" data-name="Rectángulo 5511" width="16.525" height="1.308" rx="0.654" transform="translate(4.149 23.31)" fill="#e3e3e2"/>
        <path id="Trazado_101511" data-name="Trazado 101511" d="M2342.265-584.679h-1.639a.305.305,0,0,1-.3-.3h0a.305.305,0,0,1,.3-.3h1.639a.305.305,0,0,1,.3.3h0A.305.305,0,0,1,2342.265-584.679Z" transform="translate(-2318.946 608.929)" fill="#a8a9a9"/>
        <path id="Trazado_101512" data-name="Trazado 101512" d="M2359.016-584.679h-1.639a.305.305,0,0,1-.3-.3h0a.305.305,0,0,1,.3-.3h1.639a.305.305,0,0,1,.3.3h0A.305.305,0,0,1,2359.016-584.679Z" transform="translate(-2332.906 608.929)" fill="#a8a9a9"/>
      </g>
      <g id="Grupo_54426" data-name="Grupo 54426" transform="translate(322.889 -1738.534)">
        <g id="Grupo_54422" data-name="Grupo 54422" transform="translate(0 92.705)">
          <path id="Trazado_101513" data-name="Trazado 101513" d="M2270.028-334.766s-3.784,4.739-8.275,4.208a2.773,2.773,0,0,0,2.546,3.183,29.954,29.954,0,0,0,7.25,0l4-5.658Z" transform="translate(-2252.157 334.766)" fill="#e5ccb4"/>
          <path id="Trazado_101514" data-name="Trazado 101514" d="M2213.877-315.176s-7.532-.318-9.053-1.132c0,0-1.485-.141.46,2.051s8.582,6.083,15.042,5.057l-.578,3.006,1.013.5,3.026-6.456A10.588,10.588,0,0,1,2213.877-315.176Z" transform="translate(-2204.281 319.384)" fill="#7d0c15"/>
        </g>
        <g id="Grupo_54423" data-name="Grupo 54423" transform="translate(49.992 0)">
          <path id="Trazado_101515" data-name="Trazado 101515" d="M2504.845-884.367s-2.52-5.386,3.955-6.657,9.622,3.389,10.59,7.02c0,0,7.806-2.057,8.593,7.564,0,0,15.31,5.749,1.392,19.183l-10.772-3.229-5.991-18.8-5.81-4.054Z" transform="translate(-2504.363 891.238)" fill="#995222"/>
          <path id="Trazado_101516" data-name="Trazado 101516" d="M2507.421-878.081s-1.371,8.419,3.291,14.543c0,0,3.382-1.1,4.3,0a17.042,17.042,0,0,1,1.8,3.485s-1.055.446-1.04.574a4.549,4.549,0,0,0,.115.875l7.9-1.609s-3.748-6.89-4.2-11.46-1.828-8.5-5.942-7.907A27.078,27.078,0,0,0,2507.421-878.081Z" transform="translate(-2506.755 881.571)" fill="#e5ccb4"/>
          <path id="Trazado_101517" data-name="Trazado 101517" d="M2542.493-871s6.572,5.5,8.8,11.036l2.728-4.671-5.766-6.117-5.353-2.769Z" transform="translate(-2536.14 876.475)" fill="#995222"/>
          <path id="Trazado_101518" data-name="Trazado 101518" d="M2508.362-882.333s.686,7.661,13.091,9.509l-.487-8.026-3.308-3.162-3.611-.73-3.759.632Z" transform="translate(-2507.696 885.823)" fill="#995222"/>
        </g>
        <g id="Grupo_54424" data-name="Grupo 54424" transform="translate(63.768 54.921)">
          <path id="Trazado_101519" data-name="Trazado 101519" d="M2603.5-527.365h-16.45v-2.256h16.428c.46-.012,9.247-.386,9.247-10.756,0-5.433-1.686-7.547-3.471-9.785-1.973-2.473-4.014-5.031-4.014-11.41h2.256c0,5.59,1.71,7.734,3.521,10,1.948,2.443,3.964,4.969,3.964,11.192,0,6.584-3.122,9.783-5.741,11.307a12.932,12.932,0,0,1-5.729,1.7Z" transform="translate(-2587.054 561.572)" fill="#262626"/>
        </g>
        <path id="Trazado_101520" data-name="Trazado 101520" d="M2468.183-294.725s5.462,10.985,3.121,13c-2.453,2.107-6.778.588-6.778.588s1.11-4.245-1.567-12.409Z" transform="translate(-2419.865 394.101)" fill="#e5ccb4"/>
        <path id="Trazado_101521" data-name="Trazado 101521" d="M2416.109-531.707l-19.378,14.492s10.135,24.805,10.313,29.517c0,0,5.066-.356,7.734-2.4l-7.112-22.4,27.119-4.211-.98-11.17-5.868-4.534Z" transform="translate(-2364.67 592.195)" fill="#7f2d16"/>
        <path id="Trazado_101522" data-name="Trazado 101522" d="M2383.916-610.549s-.953,1.537-4.749,1.045c0,0-3.343.421-4.41,1.47,0,0-.314-.013.442-.993s3.119-4.358,7.457-3.477l1.875.7Z" transform="translate(-2346.303 659.061)" fill="#e5ccb4"/>
        <path id="Trazado_101523" data-name="Trazado 101523" d="M2423.551-646.646a2.442,2.442,0,0,1,.953,2.1s11.729,2.827,12.911,2.641,7.813-7.711,7.813-7.711l-5.3-4.076s-1.852,7.354-3.565,7.689S2423.551-646.646,2423.551-646.646Z" transform="translate(-2387.021 693.268)" fill="#7d0c15"/>
        <path id="Trazado_101524" data-name="Trazado 101524" d="M2521.689-766.732s-.412,2.433,6.451-.932l5.108,8.194s-1.634,18.853-.908,22.589,2.542,11.058,2.542,11.058-18.7,2.239-21.786-1.271l2.663-14.839L2515.4-756.2l2.118-6.475Z" transform="translate(-2461.649 788.251)" fill="#0b3954"/>
        <path id="Trazado_101525" data-name="Trazado 101525" d="M2514.984-762.07s-5.809,5.42-5.144,22.468-3.873,17.9-3.873,17.9l-.908-.424s3.691-13.155,2.965-20.193S2506.452-758.863,2514.984-762.07Z" transform="translate(-2454.952 783.589)" fill="#ab1c1b"/>
        <path id="Trazado_101526" data-name="Trazado 101526" d="M2442.8-597.83s-2.086,1.527-6.854-1.155c0,0-4.656-1.229-6.631-.41,0,0-.41-.186,1.117-1.08s6.465-4.108,11.744-.62l2.113,1.924Z" transform="translate(-2391.788 650.755)" fill="#e5ccb4"/>
        <path id="Trazado_101527" data-name="Trazado 101527" d="M2355.613-516.515l-41.571.691a1.177,1.177,0,0,0-1.055.694c-1.974,4.379-12.885,28.409-14.986,29.217l7.379,5.157,11.264-24.78s31.411,4.954,37.1,1.575C2361-508.267,2355.613-516.515,2355.613-516.515Z" transform="translate(-2282.388 578.942)" fill="#8e3619"/>
        <path id="Trazado_101528" data-name="Trazado 101528" d="M2441.8-229.4s-3.4,6.607-6.213,8.305c0,0-.587.98,1.763.392s11.718-6.6,11.718-6.6l1.65,3.245.8-.473-2.537-7.082S2448.393-229.336,2441.8-229.4Z" transform="translate(-2396.995 341.501)" fill="#7d0c15"/>
        <path id="Trazado_101529" data-name="Trazado 101529" d="M2557.288-768.292s-7.824,3.032-7.824,20.264-1.48,26.536-1.48,26.536,11.4-6.414,17.893-2.678c0,0-3.374-8.669-2.387-16.352s3.576-19.518.116-23.169A17.513,17.513,0,0,0,2557.288-768.292Z" transform="translate(-2490.725 788.774)" fill="#ab1c1b"/>
        <path id="Trazado_101530" data-name="Trazado 101530" d="M2527.792-745.569s9.522,2.276-2.156,33c0,0-4.132,1.437-18.625-4.073,0,0,.958-2.156-.24-3.533l12.7,1.8s4.731-8.564,2.4-22.039C2521.864-740.419,2524.2-745.449,2527.792-745.569Z" transform="translate(-2456.378 769.837)" fill="#7d0c15"/>
        <g id="Grupo_54425" data-name="Grupo 54425" transform="translate(45.807 76.116)">
          <path id="Trazado_101531" data-name="Trazado 101531" d="M2563.188-375.573c0,1.312-2.756,3.054-6.049,3.054s-5.876-1.742-5.876-3.054,2.583-1.7,5.876-1.7S2563.188-376.885,2563.188-375.573Z" transform="translate(-2539.264 386.778)" fill="#262626"/>
          <path id="Trazado_101532" data-name="Trazado 101532" d="M2511.864-425.153h-26.082a4.609,4.609,0,0,1-4.6-4.6h0a4.609,4.609,0,0,1,4.6-4.6h26.082a4.61,4.61,0,0,1,4.6,4.6h0A4.61,4.61,0,0,1,2511.864-425.153Z" transform="translate(-2480.862 434.345)" fill="#008fc1"/>
          <rect id="Rectángulo_5512" data-name="Rectángulo 5512" width="28.005" height="2.013" rx="1.007" transform="translate(4.301 9.192)" fill="#262626"/>
          <path id="Trazado_101533" data-name="Trazado 101533" d="M2579.928-338.963v-.171a1.5,1.5,0,0,1-1.492-1.492v-18.949a1.5,1.5,0,0,1,1.492-1.492h0a1.5,1.5,0,0,1,1.492,1.492v18.949A1.653,1.653,0,0,1,2579.928-338.963Z" transform="translate(-2561.91 373.275)" fill="#262626"/>
          <path id="Trazado_101534" data-name="Trazado 101534" d="M2594.558-234.731l-11.68-6.743a1.407,1.407,0,0,1-.513-1.916h0a1.407,1.407,0,0,1,1.916-.513l11.679,6.743a1.407,1.407,0,0,1,.514,1.916h0A1.408,1.408,0,0,1,2594.558-234.731Z" transform="translate(-2565.03 275.786)" fill="#262626"/>
          <path id="Trazado_101535" data-name="Trazado 101535" d="M2507.581-234.731l11.679-6.743a1.407,1.407,0,0,0,.514-1.916h0a1.407,1.407,0,0,0-1.917-.513l-11.68,6.743a1.407,1.407,0,0,0-.513,1.916h0A1.407,1.407,0,0,0,2507.581-234.731Z" transform="translate(-2501.107 275.786)" fill="#262626"/>
          <circle id="Elipse_4093" data-name="Elipse 4093" cx="4.005" cy="4.005" r="4.005" transform="translate(26.472 40.941) rotate(-45)" fill="#262626"/>
          <circle id="Elipse_4094" data-name="Elipse 4094" cx="2.265" cy="2.265" r="2.265" transform="translate(28.934 40.941) rotate(-45)" fill="#4d4e4e"/>
          <circle id="Elipse_4095" data-name="Elipse 4095" cx="4.005" cy="4.005" r="4.005" transform="translate(0 43.919) rotate(-76.717)" fill="#262626"/>
          <circle id="Elipse_4096" data-name="Elipse 4096" cx="2.265" cy="2.265" r="2.265" transform="translate(2.094 42.625) rotate(-76.717)" fill="#4d4e4e"/>
        </g>
        <path id="Trazado_101536" data-name="Trazado 101536" d="M2688.764-666.732c-1.092,3.267-3.749,13.022-.116,21.9a.861.861,0,0,1-.8,1.186h-9.88a.857.857,0,0,1-.736-.414c-.877-1.463-3.232-7.187.144-23.127a.863.863,0,0,1,.843-.685h9.725A.862.862,0,0,1,2688.764-666.732Z" transform="translate(-2597.094 705.08)" fill="#007596"/>
        <path id="Trazado_101537" data-name="Trazado 101537" d="M2676.665-666.547c-1.116,3.411-3.583,12.851-.137,21.515a1.011,1.011,0,0,1-.935,1.39h-9.575a1,1,0,0,1-.872-.5c-.91-1.591-3.106-7.371.17-22.922a1.01,1.01,0,0,1,.988-.8h9.4A1.008,1.008,0,0,1,2676.665-666.547Z" transform="translate(-2587.062 705.08)" fill="#008fc1"/>
      </g>
      <g id="Grupo_54427" data-name="Grupo 54427" transform="translate(113.412 -1686.588)">
        <rect id="Rectángulo_5513" data-name="Rectángulo 5513" width="252.175" height="2.752" transform="translate(0 0)" fill="#8d561b"/>
        <rect id="Rectángulo_5514" data-name="Rectángulo 5514" width="252.175" height="1.376" transform="translate(0 1.376)" fill="#6c4213"/>
        <rect id="Rectángulo_5515" data-name="Rectángulo 5515" width="2.186" height="66.185" transform="translate(17.32 2.752)" fill="#774719"/>
        <rect id="Rectángulo_5516" data-name="Rectángulo 5516" width="2.186" height="66.185" transform="translate(231.619 2.752)" fill="#774719"/>
        <rect id="Rectángulo_5517" data-name="Rectángulo 5517" width="2.186" height="66.185" transform="translate(126.373 2.752)" fill="#774719"/>
      </g>
      <g id="Grupo_54429" data-name="Grupo 54429" transform="translate(39.766 -1696.532)">
        <g id="Grupo_54428" data-name="Grupo 54428" transform="translate(0 0)">
          <path id="Trazado_101538" data-name="Trazado 101538" d="M2998.545-436.389c-.017.979-2,11.061-19.267,17.637,0,0,2.267-3.9,8.569-8.343,6.16-4.342,10.2-7.992,10.63-9.214a.667.667,0,0,0,.024-.081C2998.528-436.5,2998.547-436.491,2998.545-436.389Z" transform="translate(-2956.208 480.793)" fill="#7cb83b"/>
          <path id="Trazado_101539" data-name="Trazado 101539" d="M2841.156-417.436h0c-.167-.081-10.914-5.23-13.01-7.48-2.184-2.346-4.162-6-5.861-8.6a10.038,10.038,0,0,0-2.394-2.841c-.04-.027-.082-.051-.122-.073C2820.187-436.207,2833.7-429.04,2841.156-417.436Z" transform="translate(-2817.534 480.759)" fill="#7cb83b"/>
          <path id="Trazado_101540" data-name="Trazado 101540" d="M2999.914-501.409s-3.144,2.415-3.764,3.582c-1.179,2.221-5.137,4.82-9.657,6.846-2.794,1.251-4.248,2.266-8.794,8.022a.069.069,0,0,0,.007-.013c.218-.425,4.952-9.53,11.373-12.407,6.574-2.947,5.667-4.807,7.163-5.531A8.061,8.061,0,0,1,2999.914-501.409Z" transform="translate(-2954.834 537.28)" fill="#7cb83b"/>
          <path id="Trazado_101541" data-name="Trazado 101541" d="M2827.835-465.03c-2.675-3.854-8.387-6.8-9.975-7.8s-3.627-3.446-5.349-6.3-7.754-3.99-7.754-3.99c5.668-1.451,10.383,1.586,11.517,3.4a26.055,26.055,0,0,0,6.574,6.574C2826.066-470.787,2827.835-465.03,2827.835-465.03Z" transform="translate(-2804.485 521.681)" fill="#7cb83b"/>
          <path id="Trazado_101542" data-name="Trazado 101542" d="M3003-603.233c-.136,3.083-3.037,9.929-9.067,12.785-5.936,2.811-11.872,8.611-12.056,8.791a.016.016,0,0,1,.005-.007c.064-.075.129-.16.2-.255,1.306-1.85,3.264-7.179,10.5-10.751A22.812,22.812,0,0,0,3003-603.233Z" transform="translate(-2958.469 625.773)" fill="#7cb83b"/>
          <path id="Trazado_101543" data-name="Trazado 101543" d="M2802.909-567.2c-.153-.017-.235-.023-.235-.023A.967.967,0,0,1,2802.909-567.2Z" transform="translate(-2802.674 594.471)" fill="#7cb83b"/>
          <path id="Trazado_101544" data-name="Trazado 101544" d="M2827.892-548.116s-2.538,1.354-11.72-9.011c-6.154-6.947-9.441-9.043-10.915-9.673l-.011-.006a3.8,3.8,0,0,0-.736-.24c1.485.166,9.526,1.357,13.589,8.048,4.484,7.383,8.109,9.88,9.789,10.88Z" transform="translate(-2804.269 594.314)" fill="#7cb83b"/>
          <path id="Trazado_101545" data-name="Trazado 101545" d="M3003.1-630.212s0,0,0,0l-.007.014c-.18.408-3.108,6.975-5.612,10.182-2.563,3.285-10.708,8.085-10.835,8.159.052-.1,3.166-5.692,7.571-8.658S3003.03-630.108,3003.1-630.212Z" transform="translate(-2962.61 649.228)" fill="#7cb83b"/>
          <path id="Trazado_101546" data-name="Trazado 101546" d="M2844.156-634.068h-.006a23.616,23.616,0,0,1-13.913-9.276c-5.849-7.98-2.993-8.615-7.754-13.511l0,0c.18.1,5.957,3.453,10.152,12.6C2832.639-644.251,2835.632-638.439,2844.156-634.068Z" transform="translate(-2819.895 672.391)" fill="#7cb83b"/>
          <path id="Trazado_101547" data-name="Trazado 101547" d="M2998.711-687.147c-1.929,1.949-7.058,7.043-7.922,7.9h0l0,0-.12.12s0-.037.016-.106a16.97,16.97,0,0,1,6.2-10.435,24.237,24.237,0,0,0,7.571-10.536.008.008,0,0,0,0,0C3004.584-694.855,3000.82-689.278,2998.711-687.147Z" transform="translate(-2966.106 710.077)" fill="#7cb83b"/>
          <path id="Trazado_101548" data-name="Trazado 101548" d="M2879.676-668.2l-.01,0c-.323-.136-7.229-3.095-10.462-9.426-3.308-6.48-4.442-9.563-6.344-11.106h0a25.383,25.383,0,0,1,9.562,11.785s1.4,2.986,7.235,8.732Z" transform="translate(-2854.997 700.109)" fill="#7cb83b"/>
          <path id="Trazado_101549" data-name="Trazado 101549" d="M2913.1-714.41a31.112,31.112,0,0,1-7.2-10.017c-2.853-6.34-3.807-8.474-4.938-8.93a4.776,4.776,0,0,1,.7.22l.039.016c1.584.622,5.328,2.739,7.331,9.238,1.833,5.948,3.141,8.248,3.747,9.082A2.973,2.973,0,0,0,2913.1-714.41Z" transform="translate(-2888.12 738.899)" fill="#7cb83b"/>
          <path id="Trazado_101550" data-name="Trazado 101550" d="M2994.254-587.975h0s0,0,0,0Z" transform="translate(-2969.226 612.509)" fill="#7cb83b"/>
          <path id="Trazado_101551" data-name="Trazado 101551" d="M3049.5-742.909l.007.016Z" transform="translate(-3017.255 747.203)" fill="#7cb83b"/>
          <path id="Trazado_101552" data-name="Trazado 101552" d="M2998.665-731.738c-4.464,5.892-5.193,6.884-5.213,6.913v0a36.3,36.3,0,0,1,3.717-8.543c2.56-4.3,3.875-8.3,3.646-9.313,0-.009-.006-.018-.008-.028a.417.417,0,0,0-.025-.074C3000.923-742.472,3003.052-737.529,2998.665-731.738Z" transform="translate(-2968.53 747.095)" fill="#7cb83b"/>
          <path id="Trazado_101553" data-name="Trazado 101553" d="M2977.932-602.756a2.6,2.6,0,0,1-.146-.258c-.044-.079-.071-.151-.1-.225l-.1-.222c-.029-.073-.054-.146-.081-.219-.05-.146-.11-.293-.152-.438l-.128-.438-.065-.219c-.021-.073-.036-.146-.054-.219l-.1-.439c-.033-.146-.073-.292-.1-.439l-.082-.44-.082-.44c-.028-.146-.056-.293-.074-.44l-.125-.881-.062-.44-.045-.441-.09-.882-.045-.441-.03-.441-.059-.882c-.018-.294-.041-.588-.055-.882l-.03-.882-.031-.882c-.009-.294-.023-.588-.021-.881l-.009-1.762c0-4.7.307-9.378.73-14.042.2-2.335.443-4.657.652-6.986s.419-4.657.583-6.988c.039-.583.088-1.166.118-1.749l.1-1.75c.042-1.166.09-2.335.04-3.5,0-.292-.03-.582-.054-.872s-.064-.578-.1-.867-.1-.575-.15-.862-.111-.574-.162-.863a29.58,29.58,0,0,1-.371-3.489,29.527,29.527,0,0,0,.442,3.475c.056.286.117.572.179.858s.12.573.169.862.1.579.12.872.063.584.072.877c.075,1.172.05,2.343.033,3.514l-.06,1.755c-.018.585-.056,1.169-.083,1.754-.117,2.338-.276,4.672-.439,7.006s-.361,4.667-.509,7c-.327,4.659-.532,9.329-.44,13.988l.044,1.746c0,.291.024.581.039.871l.048.87.048.87c.02.29.049.578.073.867l.075.867.039.433.053.431.106.861.053.43.07.427.139.853c.021.143.051.283.081.423l.087.421.087.421c.028.141.069.276.1.414l.106.412c.019.068.035.138.055.205l.064.2.126.4c.042.134.1.258.144.387.025.063.048.129.074.191l.082.179c.028.058.054.123.083.171s.064.118.069.123a.578.578,0,0,1-.066.814.578.578,0,0,1-.814-.067.452.452,0,0,1-.039-.051Z" transform="translate(-2953.409 674.131)" fill="#834919"/>
          <path id="Trazado_101554" data-name="Trazado 101554" d="M2970.5-764.811c-.776,6.034-.4,8.79-.366,9.048l0,.02s-2.221-3.219-2.041-10.7c.157-6.419-.856-8.7-1.146-9.217-.009-.015-.017-.028-.024-.04a.3.3,0,0,0-.017-.028.39.39,0,0,0-.026-.042l-.006-.009C2967.031-775.618,2971.3-771.045,2970.5-764.811Z" transform="translate(-2945.426 775.779)" fill="#7cb83b"/>
          <path id="Trazado_101555" data-name="Trazado 101555" d="M2998.545-435.872c-.017.979-2,11.061-19.267,17.637,0,0,16.968-10.107,19.2-17.556.01-.027.017-.054.024-.081Z" transform="translate(-2956.208 480.275)" fill="#030504" opacity="0.1"/>
          <path id="Trazado_101556" data-name="Trazado 101556" d="M2857.9-398.046c-.167-.081-10.914-5.23-13.01-7.48-2.184-2.346-4.162-6-5.861-8.6A94.836,94.836,0,0,0,2857.9-398.046Z" transform="translate(-2834.279 461.368)" fill="#030504" opacity="0.1"/>
          <path id="Trazado_101557" data-name="Trazado 101557" d="M2999.905-501.313s-3.144,2.415-3.764,3.582c-1.178,2.221-5.137,4.821-9.657,6.846-2.794,1.251-4.248,2.266-8.794,8.022a.1.1,0,0,0,.007-.013c.236-.38,5.126-8.2,9.834-9.961a20.185,20.185,0,0,0,7.964-5.769A10.044,10.044,0,0,1,2999.905-501.313Z" transform="translate(-2954.827 537.168)" fill="#030504" opacity="0.1"/>
          <path id="Trazado_101558" data-name="Trazado 101558" d="M2827.835-462.5c-2.675-3.854-8.387-6.8-9.975-7.8s-3.627-3.446-5.349-6.3-7.754-3.99-7.754-3.99,6.143.177,7.416,2.339,5.151,6.187,8.171,7.579S2827.3-463.5,2827.835-462.5Z" transform="translate(-2804.485 519.149)" fill="#030504" opacity="0.1"/>
          <path id="Trazado_101559" data-name="Trazado 101559" d="M3003-603.233c-.136,3.083-3.037,9.929-9.067,12.785-5.936,2.811-11.872,8.611-12.056,8.791a.016.016,0,0,1,.005-.007c.022-.031.09-.119.2-.255,1.047-1.344,5.95-7.407,10.634-9.29C2997.99-593.329,3002.785-600.486,3003-603.233Z" transform="translate(-2958.469 625.773)" fill="#030504" opacity="0.1"/>
          <path id="Trazado_101560" data-name="Trazado 101560" d="M3003.09-630.071c-.18.408-3.108,6.975-5.612,10.182-2.563,3.285-10.708,8.085-10.835,8.159.095-.1,4.193-4.334,6.787-6.421C2996.049-620.257,3001.254-626.158,3003.09-630.071Z" transform="translate(-2962.61 649.106)" fill="#030504" opacity="0.1"/>
          <path id="Trazado_101561" data-name="Trazado 101561" d="M2832.867-546.483s-2.538,1.354-11.721-9.011c-6.154-6.947-9.441-9.043-10.914-9.673,5.955,2.28,8.179,4.358,9.948,6.8,7.424,10.238,12.489,11.809,12.683,11.885Z" transform="translate(-2809.245 592.68)" fill="#030504" opacity="0.1"/>
          <path id="Trazado_101562" data-name="Trazado 101562" d="M2990.68-539.726l.1-.014-.12.12S2990.669-539.657,2990.68-539.726Z" transform="translate(-2966.106 570.575)" fill="#7cb83b"/>
          <path id="Trazado_101563" data-name="Trazado 101563" d="M2999.538-687.147c-1.929,1.949-7.058,7.043-7.922,7.9.1-.19,3.344-6.306,6.77-8.559,3.479-2.287,6.07-7.772,6.889-12.394a.008.008,0,0,0,0,0C3005.412-694.855,3001.647-689.278,2999.538-687.147Z" transform="translate(-2966.934 710.077)" fill="#030504" opacity="0.1"/>
          <path id="Trazado_101564" data-name="Trazado 101564" d="M2998.665-731.846c-4.464,5.892-5.193,6.884-5.213,6.913v0a73.633,73.633,0,0,1,5.3-8.984c2.362-3.134,2.591-7.227,2.058-8.871,0-.009-.006-.018-.008-.028-.01-.031-.022-.061-.033-.09l.007.016C3000.923-742.58,3003.052-737.637,2998.665-731.846Z" transform="translate(-2968.53 747.203)" fill="#030504" opacity="0.1"/>
          <path id="Trazado_101565" data-name="Trazado 101565" d="M2970.5-764.811c-.776,6.034-.4,8.79-.366,9.048a28.4,28.4,0,0,1-.15-11.718c.351-2.588-2.52-7.353-3.034-8.179-.009-.015-.017-.028-.024-.04a.292.292,0,0,1-.017-.028l-.026-.042-.006-.009C2967.031-775.618,2971.3-771.045,2970.5-764.811Z" transform="translate(-2945.426 775.779)" fill="#030504" opacity="0.1"/>
          <path id="Trazado_101566" data-name="Trazado 101566" d="M2844.15-634.069a23.616,23.616,0,0,1-13.913-9.276c-5.849-7.98-2.993-8.615-7.754-13.511l0,0c.159.128,4.8,3.868,9.992,14.141C2832.479-642.712,2836.832-636.332,2844.15-634.069Z" transform="translate(-2819.895 672.391)" fill="#030504" opacity="0.1"/>
          <path id="Trazado_101567" data-name="Trazado 101567" d="M2879.665-668.208c-.323-.136-7.229-3.095-10.462-9.426-3.308-6.48-4.442-9.563-6.344-11.106h0a25.676,25.676,0,0,1,7.839,10.748,18.116,18.116,0,0,0,8.958,9.769Z" transform="translate(-2854.997 700.109)" fill="#030504" opacity="0.1"/>
          <path id="Trazado_101568" data-name="Trazado 101568" d="M2913.125-714.373h0s0,0,0,0,0,0,0,0l0,0,0,0-.005,0-.011-.009-.012-.01a.089.089,0,0,1-.014-.014,31.121,31.121,0,0,1-7.2-10.017c-2.853-6.34-3.806-8.474-4.938-8.93h0a2.9,2.9,0,0,1,.7.221l.04.016c1.16.515,3.416,2.1,4.809,6.912a33.664,33.664,0,0,0,6.268,11.408C2912.967-714.548,2913.1-714.4,2913.125-714.373Z" transform="translate(-2888.097 738.907)" fill="#030504" opacity="0.1"/>
        </g>
        <path id="Trazado_101569" data-name="Trazado 101569" d="M2924.006-271.817h-14.017a1.713,1.713,0,0,1-1.7-1.528l-1.356-12.439a1.714,1.714,0,0,1,1.7-1.9h16.728a1.713,1.713,0,0,1,1.7,1.9l-1.355,12.439A1.715,1.715,0,0,1,2924.006-271.817Z" transform="translate(-2893.302 351.445)" fill="#d17d18"/>
        <rect id="Rectángulo_5518" data-name="Rectángulo 5518" width="23.978" height="4.262" rx="2.131" transform="translate(11.811 63.762)" fill="#ff9d00"/>
      </g>
      <g id="Grupo_54431" data-name="Grupo 54431" transform="translate(174.841 -1738.172)">
        <path id="Trazado_101570" data-name="Trazado 101570" d="M1527.312-704.1s-.237-6.047,1.429-7.073c3.353-2.066,6.884.116,3.233,7.073Z" transform="translate(-1476.164 741.428)" fill="#e5ccb4"/>
        <path id="Trazado_101571" data-name="Trazado 101571" d="M1527.683-209.15l-1.316,6.088a.569.569,0,0,0,.556.689h16.483a.568.568,0,0,0,.23-1.089c-2.668-1.172-9.185-3.179-10.584-5.474a.568.568,0,0,0-.434-.272l-4.327-.39A.569.569,0,0,0,1527.683-209.15Z" transform="translate(-1475.375 322.794)" fill="#121212"/>
        <path id="Trazado_101572" data-name="Trazado 101572" d="M1420.217-248.282l-4.1,4.694a.568.568,0,0,0,.154.871l14.43,7.968a.568.568,0,0,0,.727-.842c-1.769-2.315-6.5-7.222-6.62-9.908a.569.569,0,0,0-.249-.448l-3.6-2.433A.568.568,0,0,0,1420.217-248.282Z" transform="translate(-1383.39 355.195)" fill="#121212"/>
        <path id="Trazado_101573" data-name="Trazado 101573" d="M1267.671-480.276s-.632,15.569,37.852,20.166l-11.057,20.03,8.59,3.526,12.184-25.711.747-5.319Z" transform="translate(-1259.787 548.378)" fill="#052a3c"/>
        <path id="Trazado_101574" data-name="Trazado 101574" d="M1289.886-492.619l26.922,7.778a6.417,6.417,0,0,1,4.593,6.9l-3.86,33.306s-4.784,1.534-7.325-.728l2.541-29.633s-43.9,5.538-45.913-15.962Z" transform="translate(-1259.099 558.665)" fill="#0b3954"/>
        <path id="Trazado_101575" data-name="Trazado 101575" d="M1353.418-866.862s2.276,10-2.425,13.756a5.968,5.968,0,0,1-3.245-.594l-1.011,4.75-7.67-.594,1.88-15.439,3.711-5.245h5.641Z" transform="translate(-1319.29 873.365)" fill="#e5ccb4"/>
        <path id="Trazado_101576" data-name="Trazado 101576" d="M1346.306-880.285s2.375-2.672,0-4.9c0,0,.544-5.2-8.066-3.563,0,0-4.256-.594-5.839,2.375,0,0-4.6,6.828,0,15.884,0,0,8.412,1.633,9.253-5,0,0-.1-3.6,2.276-4.2A2.2,2.2,0,0,0,1346.306-880.285Z" transform="translate(-1312.029 889.064)" fill="#693514"/>
        <g id="Grupo_54430" data-name="Grupo 54430" transform="translate(7.252 80.869)">
          <path id="Trazado_101577" data-name="Trazado 101577" d="M1330.427-350.319c0,1.19,2.5,2.771,5.489,2.771s5.331-1.581,5.331-2.771-2.343-1.539-5.331-1.539S1330.427-351.509,1330.427-350.319Z" transform="translate(-1319.341 360.485)" fill="#262626"/>
          <rect id="Rectángulo_5519" data-name="Rectángulo 5519" width="32.005" height="8.34" rx="4.17" transform="translate(32.498 8.34) rotate(180)" fill="#008fc1"/>
          <rect id="Rectángulo_5520" data-name="Rectángulo 5520" width="25.409" height="1.827" rx="0.913" transform="translate(28.89 10.167) rotate(180)" fill="#262626"/>
          <path id="Trazado_101578" data-name="Trazado 101578" d="M1355.818-318.362h0a1.358,1.358,0,0,0,1.354-1.354V-335.8a1.358,1.358,0,0,0-1.354-1.354h0a1.358,1.358,0,0,0-1.354,1.354v16.087A1.358,1.358,0,0,0,1355.818-318.362Z" transform="translate(-1339.374 348.233)" fill="#262626"/>
          <path id="Trazado_101579" data-name="Trazado 101579" d="M1290.352-229.9l10.6-6.118a1.277,1.277,0,0,0,.466-1.739h0a1.276,1.276,0,0,0-1.739-.466l-10.6,6.118a1.277,1.277,0,0,0-.466,1.739h0A1.277,1.277,0,0,0,1290.352-229.9Z" transform="translate(-1284.352 265.925)" fill="#262626"/>
          <path id="Trazado_101580" data-name="Trazado 101580" d="M1369.268-229.9l-10.6-6.118a1.277,1.277,0,0,1-.466-1.739h0a1.277,1.277,0,0,1,1.739-.466l10.6,6.118a1.277,1.277,0,0,1,.466,1.739h0A1.276,1.276,0,0,1,1369.268-229.9Z" transform="translate(-1342.35 265.925)" fill="#262626"/>
          <circle id="Elipse_4097" data-name="Elipse 4097" cx="3.634" cy="3.634" r="3.634" transform="translate(0 32.284)" fill="#262626"/>
          <circle id="Elipse_4098" data-name="Elipse 4098" cx="2.055" cy="2.055" r="2.055" transform="translate(1.497 33.945)" fill="#4d4e4e"/>
          <circle id="Elipse_4099" data-name="Elipse 4099" cx="3.634" cy="3.634" r="3.634" transform="translate(23.94 33.324) rotate(-13.282)" fill="#262626"/>
          <circle id="Elipse_4100" data-name="Elipse 4100" cx="2.055" cy="2.055" r="2.055" transform="translate(25.627 37.138) rotate(-67.5)" fill="#4d4e4e"/>
        </g>
        <path id="Trazado_101581" data-name="Trazado 101581" d="M1280.266-757.654l-.346-2.032a18.4,18.4,0,0,0-10.778-1.136l-.865,2.058s-16.325.97-9.327,44.358c0,0,12.736,6.858,24.913-1.82,0,0,3.079-31.2,3.639-37.994Z" transform="translate(-1251.067 782.507)" fill="#4fa3b1"/>
        <path id="Trazado_101582" data-name="Trazado 101582" d="M1421.7-719.261s13.542,19.655,10.793,25.892c0,0-1.546,2.96-5.213,1.268S1412.7-710.27,1421.7-719.261Z" transform="translate(-1385.262 747.549)" fill="#4fa3b1"/>
        <rect id="Rectángulo_5521" data-name="Rectángulo 5521" width="25.051" height="25.05" rx="12.525" transform="translate(26.074 57.515) rotate(180)" fill="#008fc1"/>
        <rect id="Rectángulo_5522" data-name="Rectángulo 5522" width="25.051" height="25.05" rx="12.525" transform="translate(25.051 57.515) rotate(180)" fill="#007596"/>
        <circle id="Elipse_4101" data-name="Elipse 4101" cx="5.495" cy="5.495" r="5.495" transform="translate(6.044 40.033)" fill="#262626"/>
        <path id="Trazado_101583" data-name="Trazado 101583" d="M1301.823-570.27s-12.209-6.379-12.209-45.507Z" transform="translate(-1278.075 661.305)" fill="none" stroke="#262626" stroke-miterlimit="10" stroke-width="2"/>
        <path id="Trazado_101584" data-name="Trazado 101584" d="M1465.6-657.747l9.479-18.063s-1.488-2.712-4.132-1.637l-11.986,12.916Z" transform="translate(-1419.206 712.912)" fill="#4fa3b1"/>
      </g>
      <g id="Grupo_54433" data-name="Grupo 54433" transform="translate(331.514 -1769.019)">
        <g id="Grupo_54432" data-name="Grupo 54432" transform="translate(0 0)">
          <rect id="Rectángulo_5523" data-name="Rectángulo 5523" width="53.5" height="25.747" rx="12.873" fill="#ab1c1b"/>
          <path id="Trazado_101585" data-name="Trazado 101585" d="M2348.076-919.678l7.48,5.843a.517.517,0,0,0,.8-.608l-2.194-5.235Z" transform="translate(-2316.875 945.425)" fill="#ab1c1b"/>
        </g>
        <circle id="Elipse_4102" data-name="Elipse 4102" cx="3.655" cy="3.655" r="3.655" transform="translate(34.37 9.343) rotate(-9.217)" fill="#fff"/>
        <circle id="Elipse_4103" data-name="Elipse 4103" cx="3.655" cy="3.655" r="3.655" transform="translate(23.402 9.218)" fill="#fff"/>
        <circle id="Elipse_4104" data-name="Elipse 4104" cx="3.655" cy="3.655" r="3.655" transform="translate(11.896 9.725)" fill="#fff"/>
      </g>
      <g id="Grupo_54437" data-name="Grupo 54437" transform="translate(77.31 -1741.913)">
        <path id="Trazado_101586" data-name="Trazado 101586" d="M756.91-757.037l3.934,9.44s5.367,4.876,9.832,8.447c2.374,1.9,4.493,3.426,5.418,3.658,2.664.665,17.793-5.326,19.366-6.069s2.24-.044,5.023,0,7.142-5.187,7.384-6.519-8.11-.121-8.11-.121,1.694-3.026.726-3.806-5.083,4.291-6.839,5.8-15.25,2.784-16.763,2.965c-.261.031-.932-.469-1.867-1.318-4.49-4.079-15.032-16.222-15.032-16.222Z" transform="translate(-730.586 785.892)" fill="#e5ccb4"/>
        <path id="Trazado_101587" data-name="Trazado 101587" d="M756.91-757.037l3.934,9.44s5.367,4.876,9.832,8.447a21.056,21.056,0,0,1,4.338-5.407c-4.49-4.079-15.032-16.222-15.032-16.222Z" transform="translate(-730.586 785.892)" fill="#ab1c1b"/>
        <path id="Trazado_101588" data-name="Trazado 101588" d="M945.658-202.892s-.511,4.876.525,5.089,17.495-1,18.359-2.17-1.067-1.816-1.067-1.816l-10.913-4.738Z" transform="translate(-887.784 323.976)" fill="#121212"/>
        <path id="Trazado_101589" data-name="Trazado 101589" d="M863.249-216.773s-2.492,2.842-1.934,3.437,11.456,7.159,12.523,6.8.137-1.618.137-1.618l-4.761-7.839Z" transform="translate(-817.53 332.515)" fill="#121212"/>
        <path id="Trazado_101590" data-name="Trazado 101590" d="M736.731-523.98s25.469,11.022,24.658,19.353c-.8,8.248-6.284,34.366-6.284,34.366s-5.031,1.173-7.948-2.829c0,0,3.4-25.162,2.84-26.828S723.3-514.93,723.3-514.93l-.711-7.739Z" transform="translate(-701.986 588.543)" fill="#062f43"/>
        <g id="Grupo_54436" data-name="Grupo 54436" transform="translate(0 39.345)">
          <g id="Grupo_54434" data-name="Grupo 54434" transform="translate(0.017 18.145)">
            <path id="Trazado_101591" data-name="Trazado 101591" d="M610.764-531.39h16.855V-533.7H610.787c-.471-.013-9.474-.4-9.474-11.021,0-5.568,1.728-7.733,3.557-10.026,2.022-2.534,4.112-5.155,4.112-11.691H606.67c0,5.728-1.752,7.924-3.608,10.25-2,2.5-4.062,5.091-4.062,11.468,0,6.746,3.2,10.024,5.883,11.586a13.252,13.252,0,0,0,5.87,1.746Z" transform="translate(-599.001 566.44)" fill="#262626"/>
          </g>
          <g id="Grupo_54435" data-name="Grupo 54435" transform="translate(9.402 39.862)">
            <path id="Trazado_101592" data-name="Trazado 101592" d="M734.114-375.858c0,1.344,2.824,3.129,6.2,3.129s6.021-1.785,6.021-3.129-2.646-1.739-6.021-1.739S734.114-377.2,734.114-375.858Z" transform="translate(-720.99 387.34)" fill="#262626"/>
            <path id="Trazado_101593" data-name="Trazado 101593" d="M667.019-426.66h26.725a4.723,4.723,0,0,0,4.709-4.709h0a4.723,4.723,0,0,0-4.709-4.709H667.019a4.723,4.723,0,0,0-4.709,4.709h0A4.723,4.723,0,0,0,667.019-426.66Z" transform="translate(-661.148 436.078)" fill="#008fc1"/>
            <rect id="Rectángulo_5524" data-name="Rectángulo 5524" width="28.695" height="2.063" rx="1.031" transform="translate(33.23 11.481) rotate(180)" fill="#262626"/>
            <path id="Trazado_101594" data-name="Trazado 101594" d="M762.788-339.769h0a1.534,1.534,0,0,0,1.529-1.529v-18.167a1.534,1.534,0,0,0-1.529-1.529h0a1.534,1.534,0,0,0-1.529,1.529V-341.3A1.534,1.534,0,0,0,762.788-339.769Z" transform="translate(-743.613 373.503)" fill="#262626"/>
            <path id="Trazado_101595" data-name="Trazado 101595" d="M688.858-239.872l11.967-6.91a1.442,1.442,0,0,0,.526-1.964h0a1.442,1.442,0,0,0-1.963-.526l-11.968,6.91a1.442,1.442,0,0,0-.526,1.964h0A1.442,1.442,0,0,0,688.858-239.872Z" transform="translate(-681.477 280.552)" fill="#262626"/>
            <path id="Trazado_101596" data-name="Trazado 101596" d="M777.977-239.872l-11.967-6.91a1.441,1.441,0,0,1-.526-1.964h0a1.442,1.442,0,0,1,1.964-.526l11.968,6.91a1.442,1.442,0,0,1,.526,1.964h0A1.442,1.442,0,0,1,777.977-239.872Z" transform="translate(-746.974 280.552)" fill="#262626"/>
            <circle id="Elipse_4105" data-name="Elipse 4105" cx="4.104" cy="4.104" r="4.104" transform="translate(0 37.169) rotate(-9.217)" fill="#262626"/>
            <circle id="Elipse_4106" data-name="Elipse 4106" cx="2.321" cy="2.321" r="2.321" transform="matrix(0.383, -0.924, 0.924, 0.383, 1.676, 41.819)" fill="#4d4e4e"/>
            <circle id="Elipse_4107" data-name="Elipse 4107" cx="4.104" cy="4.104" r="4.104" transform="translate(26.896 40.563) rotate(-45)" fill="#262626"/>
            <circle id="Elipse_4108" data-name="Elipse 4108" cx="2.321" cy="2.321" r="2.321" transform="translate(29.418 40.563) rotate(-45)" fill="#4d4e4e"/>
          </g>
          <path id="Trazado_101597" data-name="Trazado 101597" d="M598.944-674.191c1.119,3.348,3.841,13.343.119,22.443a.882.882,0,0,0,.817,1.216H610a.878.878,0,0,0,.755-.424c.9-1.5,3.311-7.364-.147-23.7a.884.884,0,0,0-.864-.7h-9.965A.883.883,0,0,0,598.944-674.191Z" transform="translate(-598.898 675.355)" fill="#007596"/>
          <path id="Trazado_101598" data-name="Trazado 101598" d="M611.627-674c1.144,3.495,3.671,13.167.14,22.045a1.036,1.036,0,0,0,.958,1.424h9.811a1.028,1.028,0,0,0,.893-.513c.932-1.63,3.183-7.552-.174-23.487a1.035,1.035,0,0,0-1.012-.822H612.61A1.033,1.033,0,0,0,611.627-674Z" transform="translate(-609.463 675.355)" fill="#008fc1"/>
        </g>
        <path id="Trazado_101599" data-name="Trazado 101599" d="M662.986-526.356s-5.156,15.917,17.179,17.389c0,0,19.591,2.074,19.859,4.885s8.676,34.428,8.676,34.428,2.019.652,5.125-1.1a42.171,42.171,0,0,0,3.52-2.408s-5.544-36.021-8.02-38.154-27.7-13.911-27.7-13.911Z" transform="translate(-651.88 590.523)" fill="#0b3954"/>
        <path id="Trazado_101600" data-name="Trazado 101600" d="M724.082-904.981s6.515-4.278,1.086-5.5c-3.865-.867-4.071.882-5.7,0s-3.461-1.832-5.768,0-3.121,1.192-3.528,2.224a10.678,10.678,0,0,0,0,7s-.862,4.114,1.581,5.335l6.9-4.318Z" transform="translate(-691.146 911.524)" fill="#121212"/>
        <path id="Trazado_101601" data-name="Trazado 101601" d="M730.9-878.7s1.778,12.223-1.835,12.907c0,0-4.851-.084-5.039,1.223A23.424,23.424,0,0,1,722.6-860.5s-4.3-.692-6.073-2.383l.379-2.914S718.325-881.7,730.9-878.7Z" transform="translate(-696.934 884.483)" fill="#e5ccb4"/>
        <path id="Trazado_101602" data-name="Trazado 101602" d="M731.576-889.667s-4.962,8.62-8.983,11.072l.912-9.689,3.613-2.46Z" transform="translate(-701.986 894.205)" fill="#121212"/>
        <ellipse id="Elipse_4109" data-name="Elipse 4109" cx="1.976" cy="2.332" rx="1.976" ry="2.332" transform="matrix(0.866, -0.5, 0.5, 0.866, 22.548, 8.571)" fill="#e5ccb4"/>
        <path id="Trazado_101603" data-name="Trazado 101603" d="M671.869-780.305a16.2,16.2,0,0,1-6.428-1.545s-5.587,1.771-7.143,4.107-5.226,8.808-1.348,38.458c0,0,14.213,6.234,23.64.4,0,0-1.995-34.15-3.222-36.583A9.307,9.307,0,0,0,671.869-780.305Z" transform="translate(-645.844 803.453)" fill="#ab1c1b"/>
        <path id="Trazado_101604" data-name="Trazado 101604" d="M664.016-727.084c.028.113.057.227.086.341,0,0,.971,6.43,2.528,8.153s12.065,8.784,13.845,11.483,3.428,6.187,5.339,5.914c3.215-.459,6.316-2.7,4.766-5.512s-5.685-1.492-7.465-3.215-10.219-11.311-10.793-13.607a50.738,50.738,0,0,1-.51-5.8c-.338-6.1-.581-14.64-.581-14.64s-.536-5.738-7.128-5.453C664.1-749.419,659.5-744.942,664.016-727.084Z" transform="translate(-651.513 776.434)" fill="#e5ccb4"/>
        <path id="Trazado_101605" data-name="Trazado 101605" d="M662.64-733.713a20.433,20.433,0,0,1,8.218-2.363c-.356-6.434-.613-15.433-.613-15.433s-.565-6.049-7.514-5.748C662.731-757.257,657.88-752.537,662.64-733.713Z" transform="translate(-650.277 782.966)" fill="#ab1c1b"/>
      </g>
      <g id="Grupo_54438" data-name="Grupo 54438" transform="translate(118.971 -1711.263)">
        <path id="Trazado_101606" data-name="Trazado 101606" d="M885.636-586.316H904.17a.656.656,0,0,0,.654-.654h0a.656.656,0,0,0-.654-.654H885.636a.656.656,0,0,0-.654.654h0A.656.656,0,0,0,885.636-586.316Z" transform="translate(-884.982 610.934)" fill="#cdcdcd"/>
        <path id="Trazado_101607" data-name="Trazado 101607" d="M1002.913-705.244l4.058-21.606a.852.852,0,0,1,.837-.695h14.017a.852.852,0,0,1,.838,1.007l-4.005,21.607a.852.852,0,0,1-.838.7h-14.07A.852.852,0,0,1,1002.913-705.244Z" transform="translate(-983.254 727.545)" fill="#cdcdcd"/>
        <path id="Trazado_101608" data-name="Trazado 101608" d="M1005.148-705.244l4.058-21.606a.852.852,0,0,1,.837-.695h14.018a.852.852,0,0,1,.838,1.007l-4.005,21.607a.852.852,0,0,1-.837.7h-14.07A.852.852,0,0,1,1005.148-705.244Z" transform="translate(-985.117 727.545)" fill="#e3e3e2"/>
        <rect id="Rectángulo_5525" data-name="Rectángulo 5525" width="16.525" height="1.308" rx="0.654" transform="translate(35.647 24.618) rotate(180)" fill="#e3e3e2"/>
        <path id="Trazado_101609" data-name="Trazado 101609" d="M982.363-585.028H984a.305.305,0,0,0,.3-.3h0a.305.305,0,0,0-.3-.3h-1.639a.305.305,0,0,0-.3.3h0A.305.305,0,0,0,982.363-585.028Z" transform="translate(-965.886 609.278)" fill="#a8a9a9"/>
        <path id="Trazado_101610" data-name="Trazado 101610" d="M965.612-585.028h1.639a.305.305,0,0,0,.3-.3h0a.305.305,0,0,0-.3-.3h-1.639a.305.305,0,0,0-.3.3h0A.305.305,0,0,0,965.612-585.028Z" transform="translate(-951.926 609.278)" fill="#a8a9a9"/>
      </g>
      <g id="Grupo_54442" data-name="Grupo 54442" transform="translate(323.498 -1699.34)">
        <g id="Grupo_54440" data-name="Grupo 54440" transform="translate(0 0)">
          <g id="Grupo_54439" data-name="Grupo 54439" transform="translate(0.229 1.637)">
            <path id="Trazado_101611" data-name="Trazado 101611" d="M2216.939-646.149l-.01.123-.274,3.289-.345,4.153-.263,3.165a.375.375,0,0,1-.374.347h-5.092a.375.375,0,0,1-.374-.347l-.263-3.165-.345-4.153-.274-3.289-.01-.123Z" transform="translate(-2209.316 646.149)" fill="#ff9d00"/>
          </g>
          <path id="Trazado_101612" data-name="Trazado 101612" d="M2216.022-650.266h-8.083l.23-.823h7.624Z" transform="translate(-2207.939 651.903)" fill="#f2ddbe"/>
          <path id="Trazado_101613" data-name="Trazado 101613" d="M2219.406-655.16h-6.3l.035-.123.034-.119.161-.572h5.84l.161.572.033.119Z" transform="translate(-2212.247 655.974)" fill="#f9e9d6"/>
          <path id="Trazado_101614" data-name="Trazado 101614" d="M2217.83-625.572l-.33,3.975a.089.089,0,0,1-.089.082h-6.34a.09.09,0,0,1-.089-.082l-.33-3.975a.089.089,0,0,1,.089-.1h7A.089.089,0,0,1,2217.83-625.572Z" transform="translate(-2210.2 630.717)" fill="#f6750e"/>
          <path id="Trazado_101615" data-name="Trazado 101615" d="M2219.406-651.7h-6.3l.035-.123h6.229Z" transform="translate(-2212.247 652.517)" fill="#030504" opacity="0.1"/>
          <path id="Trazado_101616" data-name="Trazado 101616" d="M2216.94-646.149l-.01.123h-7.6l-.01-.123Z" transform="translate(-2209.087 647.786)" fill="#030504" opacity="0.1"/>
        </g>
        <g id="Grupo_54441" data-name="Grupo 54441" transform="translate(2.329 5.443)">
          <circle id="Elipse_4110" data-name="Elipse 4110" cx="1.682" cy="1.682" r="1.682" fill="#f7b77d"/>
          <circle id="Elipse_4111" data-name="Elipse 4111" cx="1.209" cy="1.209" r="1.209" transform="translate(0.473 0.473)" fill="#d66718"/>
        </g>
      </g>
      <g id="Grupo_54444" data-name="Grupo 54444" transform="translate(252.9 -1778.715)">
        <g id="Grupo_54443" data-name="Grupo 54443" transform="translate(0 0)">
          <path id="Trazado_101617" data-name="Trazado 101617" d="M2201.938-264.121s3.614,2.487,3.088,4.221-6.711,9.128-8.487,10.1-5.2,1.764-6.119,1.237,4.928-5.486,7-12.872Z" transform="translate(-2130.439 408.777)" fill="#753716"/>
          <path id="Trazado_101618" data-name="Trazado 101618" d="M2042.458-680.965s3.3,9.021,3.822,13.709,3.646,22.6,3.646,22.6,6.077,5.179,6.945,9.52,6.077,18.752,9.2,23.613c0,0-2.6,3.12-4.514,2.689,0,0-18.751-30.284-20.488-33.328s-13.772-36.828-13.772-36.828Z" transform="translate(-1994.574 756.177)" fill="#313130"/>
          <path id="Trazado_101619" data-name="Trazado 101619" d="M1969.332-207.586s1.457,5.224.445,6.95c0,0-3.749-.357-5.3.416s-12.793,1.9-14.162.714c0,0,.476-1.131,3.094-1.726s8.736-4.8,9.158-6.355Z" transform="translate(-1930.42 361.66)" fill="#753716"/>
          <path id="Trazado_101620" data-name="Trazado 101620" d="M1985.427-675.713s2.015,32.267,2.431,40.924,3.973,35.747,3.973,35.747a13.7,13.7,0,0,0,6.76,0s-.949-14.874,0-17.483,1.66-14.706-.83-18.738c0,0,10.223-32.008,5.841-42.03Z" transform="translate(-1959.678 753.115)" fill="#3a3a39"/>
          <path id="Trazado_101621" data-name="Trazado 101621" d="M1833.466-1127.814s-3.091,4.768,3.467,7.209c0,0,10.957,13.31,12.037,14.059.44.3,1.958,1.884,3.763,3.764,1.116-3.453,2.882-4.978,4-5.625a30.582,30.582,0,0,1-2.846-2.623c-1.687-2.074-14.147-10.6-14.429-11.63s.375-3.561-1.874-4.779-6.09-5.339-6.652-4.965S1833.466-1127.814,1833.466-1127.814Z" transform="translate(-1830.868 1132.429)" fill="#ffd5ab"/>
          <path id="Trazado_101622" data-name="Trazado 101622" d="M1962.111-982.612a90.339,90.339,0,0,0,7.249,7.105c2.342,1.687,5.735.375,6.99-1.687,1-1.641-6.018-7.422-10.234-11.044C1964.993-987.589,1963.227-986.065,1962.111-982.612Z" transform="translate(-1940.247 1012.259)" fill="#e86a6d"/>
          <path id="Trazado_101623" data-name="Trazado 101623" d="M2016.855-984.331l.516,2.045.507,2.009.584,2.313,6.842-.952-.322-3.285-.522-3.244Z" transform="translate(-1985.871 1009.932)" fill="#ffd5ab"/>
          <path id="Trazado_101624" data-name="Trazado 101624" d="M1989.425-949.373c-2.86.514-10.288.928-12.442,16.044s.743,30.789.743,30.789,11.662,1,22.135-2.191c0,0-1.3-18.31-.594-24.624S1997.075-950.747,1989.425-949.373Z" transform="translate(-1951.977 979.943)" fill="#e94146"/>
          <path id="Trazado_101625" data-name="Trazado 101625" d="M1992.46-796.41c.064,1.869,1.933,5.285,2.77,5.349s4.509-2.126,2.738-7.41c0,0,12.856-12.115,12.856-15.466a18.171,18.171,0,0,0-1.364-5.39c-1.75.717-4.715,2.06-5.982,3.393,0,0-6.293,13.146-7.883,13.919S1992.4-798.278,1992.46-796.41Z" transform="translate(-1965.538 871.488)" fill="#ffd5ab"/>
          <path id="Trazado_101626" data-name="Trazado 101626" d="M2014.133-906.51c1.8,3.287,5.864,9.538,5.864,9.538,1.268-1.333,4.232-2.676,5.982-3.393a85.32,85.32,0,0,0-5.144-10.977c-2.514-4.447-3.674-6.444-6.7-4.447C2011.07-913.769,2012.329-909.8,2014.133-906.51Z" transform="translate(-1982.056 952.526)" fill="#e86a6d"/>
          <path id="Trazado_101627" data-name="Trazado 101627" d="M2019.951-970.844l.507,2.009c.966-.406,3.316-1.532,3.4-2.88Z" transform="translate(-1988.451 998.49)" fill="#030504" opacity="0.1"/>
          <path id="Trazado_101628" data-name="Trazado 101628" d="M2007.992-1049.2c-3.712-.722-5.073.2-6.021,2.165s-2.5,11.094-1.759,12.244,9,.473,10.214-3.991S2012.862-1048.25,2007.992-1049.2Z" transform="translate(-1971.838 1063.267)" fill="#ffd5ab"/>
          <path id="Trazado_101629" data-name="Trazado 101629" d="M2015.164-1052.191a9.241,9.241,0,0,1-.609-5.219s-3.729.159-3.213-4.046c0,0,6.069.833,9.4.317s5.633,6.228,2.459,10.591-2.856,5-2.856,5S2015.1-1045.584,2015.164-1052.191Z" transform="translate(-1981.235 1073.28)" fill="#703014"/>
          <path id="Trazado_101630" data-name="Trazado 101630" d="M2028.254-1016.387s1.269-2.063,2.42-.833-.793,3.491-2.42,3.53Z" transform="translate(-1995.37 1036.739)" fill="#ffd5ab"/>
        </g>
      </g>
      <g id="Grupo_54445" data-name="Grupo 54445" transform="translate(52.848 -1806.329)">
        <path id="Trazado_101631" data-name="Trazado 101631" d="M30.237-1440.223H12.555a1.182,1.182,0,0,1-1.179-1.179h0a1.182,1.182,0,0,1,1.179-1.179H30.237a1.182,1.182,0,0,1,1.179,1.179h0A1.182,1.182,0,0,1,30.237-1440.223Z" transform="translate(-6.447 1444.526)" fill="#85aac1"/>
        <path id="Trazado_101632" data-name="Trazado 101632" d="M321.728-1440.223H304.046a1.182,1.182,0,0,1-1.179-1.179h0a1.182,1.182,0,0,1,1.179-1.179h17.682a1.182,1.182,0,0,1,1.179,1.179h0A1.182,1.182,0,0,1,321.728-1440.223Z" transform="translate(-266.384 1444.526)" fill="#85aac1"/>
        <path id="Trazado_101633" data-name="Trazado 101633" d="M620.24-1440.223H602.558a1.182,1.182,0,0,1-1.179-1.179h0a1.182,1.182,0,0,1,1.179-1.179H620.24a1.182,1.182,0,0,1,1.179,1.179h0A1.182,1.182,0,0,1,620.24-1440.223Z" transform="translate(-532.581 1444.526)" fill="#85aac1"/>
        <rect id="Rectángulo_5526" data-name="Rectángulo 5526" width="0.305" height="45.637" transform="translate(29.942 0)" fill="#85aac1"/>
        <rect id="Rectángulo_5527" data-name="Rectángulo 5527" width="0.305" height="45.637" transform="translate(62.353 0)" fill="#85aac1"/>
        <rect id="Rectángulo_5528" data-name="Rectángulo 5528" width="0.305" height="95.75" transform="translate(0 7.868) rotate(-90)" fill="#85aac1"/>
        <rect id="Rectángulo_5529" data-name="Rectángulo 5529" width="5.041" height="5.041" transform="translate(10.14 10.636)" fill="#fc8f06"/>
        <rect id="Rectángulo_5530" data-name="Rectángulo 5530" width="5.041" height="5.041" transform="translate(2.229 17.546)" fill="#fc8f06"/>
        <rect id="Rectángulo_5531" data-name="Rectángulo 5531" width="5.041" height="5.041" transform="translate(10.14 17.546)" fill="#e94146"/>
        <rect id="Rectángulo_5532" data-name="Rectángulo 5532" width="5.041" height="5.041" transform="translate(2.408 25.123)" fill="#f5711c"/>
        <rect id="Rectángulo_5533" data-name="Rectángulo 5533" width="5.041" height="5.041" transform="translate(10.14 25.123)" fill="#e86aa5"/>
        <rect id="Rectángulo_5534" data-name="Rectángulo 5534" width="5.041" height="5.041" transform="translate(2.408 32.701)" fill="#e94146"/>
        <rect id="Rectángulo_5535" data-name="Rectángulo 5535" width="5.041" height="5.041" transform="translate(17.701 25.123)" fill="#f5711c"/>
        <rect id="Rectángulo_5536" data-name="Rectángulo 5536" width="5.041" height="5.041" transform="translate(20.222 36.364)" fill="#e94146"/>
        <rect id="Rectángulo_5537" data-name="Rectángulo 5537" width="5.041" height="5.041" transform="translate(17.701 17.546)" fill="#e86aa5"/>
        <rect id="Rectángulo_5538" data-name="Rectángulo 5538" width="5.041" height="5.041" transform="translate(66.215 10.636)" fill="#e86aa5"/>
        <rect id="Rectángulo_5539" data-name="Rectángulo 5539" width="5.041" height="5.041" transform="translate(66.215 17.546)" fill="#f5711c"/>
        <rect id="Rectángulo_5540" data-name="Rectángulo 5540" width="5.041" height="5.041" transform="translate(66.215 25.123)" fill="#fc8f06"/>
        <rect id="Rectángulo_5541" data-name="Rectángulo 5541" width="5.041" height="5.041" transform="translate(73.777 25.123)" fill="#f5711c"/>
        <rect id="Rectángulo_5542" data-name="Rectángulo 5542" width="5.041" height="5.041" transform="translate(73.777 17.546)" fill="#e94146"/>
        <rect id="Rectángulo_5543" data-name="Rectángulo 5543" width="5.041" height="5.041" transform="translate(43.92 10.636)" fill="#e94146"/>
        <rect id="Rectángulo_5544" data-name="Rectángulo 5544" width="5.041" height="5.041" transform="translate(36.01 10.636)" fill="#f5711c"/>
        <rect id="Rectángulo_5545" data-name="Rectángulo 5545" width="5.041" height="5.041" transform="translate(36.01 17.546)" fill="#e94146"/>
        <rect id="Rectángulo_5546" data-name="Rectángulo 5546" width="5.041" height="5.041" transform="translate(43.92 17.546)" fill="#e86aa5"/>
        <rect id="Rectángulo_5547" data-name="Rectángulo 5547" width="5.041" height="5.041" transform="translate(36.01 25.167)" fill="#f5711c"/>
        <rect id="Rectángulo_5548" data-name="Rectángulo 5548" width="5.041" height="5.041" transform="translate(89.193 10.636)" fill="#fc8f06"/>
        <rect id="Rectángulo_5549" data-name="Rectángulo 5549" width="5.041" height="5.041" transform="translate(81.282 10.636)" fill="#e94146"/>
        <rect id="Rectángulo_5550" data-name="Rectángulo 5550" width="5.041" height="5.041" transform="translate(81.282 17.546)" fill="#e86aa5"/>
        <rect id="Rectángulo_5551" data-name="Rectángulo 5551" width="5.041" height="5.041" transform="translate(43.92 25.123)" fill="#fc8f06"/>
        <rect id="Rectángulo_5552" data-name="Rectángulo 5552" width="5.041" height="5.041" transform="translate(51.482 25.123)" fill="#fc8f06"/>
        <rect id="Rectángulo_5553" data-name="Rectángulo 5553" width="5.041" height="5.041" transform="translate(43.983 32.701)" fill="#e86aa5"/>
      </g>
      <g id="Grupo_54453" data-name="Grupo 54453" transform="translate(302.368 -1878.613)">
        <g id="Grupo_54452" data-name="Grupo 54452" transform="translate(0 0)">
          <path id="Trazado_101634" data-name="Trazado 101634" d="M2103.241-1665.424a15.154,15.154,0,0,0-15.154,15.154,15.154,15.154,0,0,0,15.154,15.154,15.154,15.154,0,0,0,15.154-15.154A15.154,15.154,0,0,0,2103.241-1665.424Zm0,23.876a8.722,8.722,0,0,1-8.722-8.722,8.722,8.722,0,0,1,8.722-8.722,8.722,8.722,0,0,1,8.722,8.722A8.722,8.722,0,0,1,2103.241-1641.547Z" transform="translate(-2082.72 1670.713)" fill="#f5904b"/>
          <g id="Grupo_54446" data-name="Grupo 54446" transform="translate(17.867)">
            <path id="Trazado_101635" data-name="Trazado 101635" d="M2189.244-1700.17h-5.307l.374-5.456a.383.383,0,0,1,.381-.356h3.8a.382.382,0,0,1,.381.356Z" transform="translate(-2183.937 1705.982)" fill="#f5904b"/>
            <path id="Trazado_101636" data-name="Trazado 101636" d="M2189.244-1435.859h-5.307l.374,5.456a.382.382,0,0,0,.381.356h3.8a.382.382,0,0,0,.381-.356Z" transform="translate(-2183.937 1471.088)" fill="#f5904b"/>
          </g>
          <g id="Grupo_54447" data-name="Grupo 54447" transform="translate(0 17.867)">
            <path id="Trazado_101637" data-name="Trazado 101637" d="M2052.749-1568.982v5.307l-5.456-.374a.382.382,0,0,1-.356-.381v-3.8a.382.382,0,0,1,.356-.381Z" transform="translate(-2046.937 1568.982)" fill="#f5904b"/>
            <path id="Trazado_101638" data-name="Trazado 101638" d="M2317.059-1568.982v5.307l5.457-.374a.382.382,0,0,0,.356-.381v-3.8a.382.382,0,0,0-.356-.381Z" transform="translate(-2281.83 1568.982)" fill="#f5904b"/>
          </g>
          <g id="Grupo_54448" data-name="Grupo 54448" transform="translate(1.647 8.628)">
            <path id="Trazado_101639" data-name="Trazado 101639" d="M2066.911-1637.442l-2.6,4.628-4.576-3a.382.382,0,0,1-.124-.507l1.858-3.311a.382.382,0,0,1,.5-.158Z" transform="translate(-2059.566 1639.823)" fill="#f5904b"/>
            <path id="Trazado_101640" data-name="Trazado 101640" d="M2295.275-1511.192l-2.6,4.628,4.941,2.344a.383.383,0,0,0,.5-.158l1.858-3.311a.382.382,0,0,0-.124-.506Z" transform="translate(-2262.276 1527.968)" fill="#f5904b"/>
          </g>
          <g id="Grupo_54449" data-name="Grupo 54449" transform="translate(7.709 2.139)">
            <path id="Trazado_101641" data-name="Trazado 101641" d="M2108.713-1464.492l4.474,2.854-3.25,4.4a.382.382,0,0,1-.512.1l-3.2-2.042a.383.383,0,0,1-.13-.505Z" transform="translate(-2106.047 1493.848)" fill="#f5904b"/>
            <path id="Trazado_101642" data-name="Trazado 101642" d="M2247.772-1685.029l4.474,2.854,2.619-4.8a.382.382,0,0,0-.13-.505l-3.2-2.041a.383.383,0,0,0-.513.095Z" transform="translate(-2229.288 1689.583)" fill="#f5904b"/>
          </g>
          <g id="Grupo_54450" data-name="Grupo 54450" transform="translate(1.462 9.016)">
            <path id="Trazado_101643" data-name="Trazado 101643" d="M2062.974-1513.706l2.489,4.687-4.994,2.229a.382.382,0,0,1-.493-.17l-1.781-3.353a.383.383,0,0,1,.136-.5Z" transform="translate(-2058.151 1529.766)" fill="#f5904b"/>
            <path id="Trazado_101644" data-name="Trazado 101644" d="M2294.34-1634.589l2.489,4.687,4.644-2.89a.382.382,0,0,0,.135-.5l-1.781-3.353a.382.382,0,0,0-.493-.17Z" transform="translate(-2263.536 1636.851)" fill="#f5904b"/>
          </g>
          <g id="Grupo_54451" data-name="Grupo 54451" transform="translate(8.169 1.883)">
            <path id="Trazado_101645" data-name="Trazado 101645" d="M2244.734-1459.585l4.554-2.725,2.481,4.874a.383.383,0,0,1-.144.5l-3.258,1.949a.382.382,0,0,1-.51-.11Z" transform="translate(-2227.106 1492.206)" fill="#f5904b"/>
            <path id="Trazado_101646" data-name="Trazado 101646" d="M2112.093-1684.164l4.553-2.725-3.123-4.49a.382.382,0,0,0-.51-.11l-3.258,1.949a.383.383,0,0,0-.145.5Z" transform="translate(-2109.57 1691.543)" fill="#f5904b"/>
          </g>
        </g>
      </g>
      <g id="Grupo_54489" data-name="Grupo 54489" transform="translate(341.007 -1833.838)">
        <g id="Grupo_54454" data-name="Grupo 54454" transform="translate(0 11.974)">
          <path id="Rectángulo_5554" data-name="Rectángulo 5554" d="M0,0H70.935a0,0,0,0,1,0,0V24.968A13.385,13.385,0,0,1,57.549,38.353H13.385A13.385,13.385,0,0,1,0,24.968V0A0,0,0,0,1,0,0Z" fill="#eff0f0"/>
        </g>
        <g id="Grupo_54455" data-name="Grupo 54455" transform="translate(5.271 16.644)">
          <path id="Trazado_101647" data-name="Trazado 101647" d="M2660.5-1297.127h-5.333a.469.469,0,0,1-.467-.467h0a.469.469,0,0,1,.467-.467h5.333a.468.468,0,0,1,.467.467h0A.469.469,0,0,1,2660.5-1297.127Z" transform="translate(-2654.704 1298.061)" fill="#004a91"/>
        </g>
        <g id="Grupo_54456" data-name="Grupo 54456" transform="translate(13.793 16.644)">
          <path id="Trazado_101648" data-name="Trazado 101648" d="M2719.249-1297.127h-5.333a.469.469,0,0,1-.467-.467h0a.469.469,0,0,1,.467-.467h5.333a.468.468,0,0,1,.467.467h0A.468.468,0,0,1,2719.249-1297.127Z" transform="translate(-2713.449 1298.061)" fill="#004a91"/>
        </g>
        <g id="Grupo_54457" data-name="Grupo 54457" transform="translate(22.993 16.644)">
          <path id="Trazado_101649" data-name="Trazado 101649" d="M2782.668-1297.127h-5.333a.468.468,0,0,1-.467-.467h0a.468.468,0,0,1,.467-.467h5.333a.469.469,0,0,1,.467.467h0A.469.469,0,0,1,2782.668-1297.127Z" transform="translate(-2776.868 1298.061)" fill="#004a91"/>
        </g>
        <g id="Grupo_54458" data-name="Grupo 54458" transform="translate(31.917 16.644)">
          <path id="Trazado_101650" data-name="Trazado 101650" d="M2844.185-1297.127h-5.333a.468.468,0,0,1-.467-.467h0a.468.468,0,0,1,.467-.467h5.333a.468.468,0,0,1,.467.467h0A.468.468,0,0,1,2844.185-1297.127Z" transform="translate(-2838.385 1298.061)" fill="#004a91"/>
        </g>
        <g id="Grupo_54459" data-name="Grupo 54459" transform="translate(40.715 16.644)">
          <path id="Trazado_101651" data-name="Trazado 101651" d="M2904.832-1297.127H2899.5a.469.469,0,0,1-.467-.467h0a.468.468,0,0,1,.467-.467h5.333a.468.468,0,0,1,.467.467h0A.469.469,0,0,1,2904.832-1297.127Z" transform="translate(-2899.032 1298.061)" fill="#004a91"/>
        </g>
        <g id="Grupo_54460" data-name="Grupo 54460" transform="translate(50.041 16.644)">
          <path id="Trazado_101652" data-name="Trazado 101652" d="M2969.122-1297.127h-5.333a.469.469,0,0,1-.467-.467h0a.469.469,0,0,1,.467-.467h5.333a.468.468,0,0,1,.467.467h0A.469.469,0,0,1,2969.122-1297.127Z" transform="translate(-2963.322 1298.061)" fill="#004a91"/>
        </g>
        <g id="Grupo_54461" data-name="Grupo 54461" transform="translate(59.115 16.644)">
          <path id="Trazado_101653" data-name="Trazado 101653" d="M3031.67-1297.127h-5.333a.469.469,0,0,1-.467-.467h0a.469.469,0,0,1,.467-.467h5.333a.468.468,0,0,1,.467.467h0A.469.469,0,0,1,3031.67-1297.127Z" transform="translate(-3025.87 1298.061)" fill="#004a91"/>
        </g>
        <g id="Grupo_54462" data-name="Grupo 54462" transform="translate(4.092 20.193)">
          <rect id="Rectángulo_5555" data-name="Rectángulo 5555" width="63.074" height="0.075" fill="#898888"/>
        </g>
        <g id="Grupo_54463" data-name="Grupo 54463" transform="translate(4.092 26.721)">
          <rect id="Rectángulo_5556" data-name="Rectángulo 5556" width="63.074" height="0.075" fill="#898888"/>
        </g>
        <g id="Grupo_54464" data-name="Grupo 54464" transform="translate(4.092 33.249)">
          <rect id="Rectángulo_5557" data-name="Rectángulo 5557" width="63.074" height="0.075" fill="#898888"/>
        </g>
        <g id="Grupo_54465" data-name="Grupo 54465" transform="translate(4.092 39.777)">
          <rect id="Rectángulo_5558" data-name="Rectángulo 5558" width="63.074" height="0.075" fill="#898888"/>
        </g>
        <g id="Grupo_54466" data-name="Grupo 54466" transform="translate(4.092 46.305)">
          <rect id="Rectángulo_5559" data-name="Rectángulo 5559" width="63.074" height="0.075" fill="#898888"/>
        </g>
        <g id="Grupo_54467" data-name="Grupo 54467" transform="translate(4.054 20.193)">
          <rect id="Rectángulo_5560" data-name="Rectángulo 5560" width="0.075" height="26.187" fill="#898888"/>
        </g>
        <g id="Grupo_54468" data-name="Grupo 54468" transform="translate(12.697 20.193)">
          <rect id="Rectángulo_5561" data-name="Rectángulo 5561" width="0.075" height="26.187" fill="#898888"/>
        </g>
        <g id="Grupo_54469" data-name="Grupo 54469" transform="translate(30.465 20.193)">
          <rect id="Rectángulo_5562" data-name="Rectángulo 5562" width="0.075" height="26.187" fill="#898888"/>
        </g>
        <g id="Grupo_54470" data-name="Grupo 54470" transform="translate(21.202 20.193)">
          <rect id="Rectángulo_5563" data-name="Rectángulo 5563" width="0.075" height="26.187" fill="#898888"/>
        </g>
        <g id="Grupo_54471" data-name="Grupo 54471" transform="translate(39.522 20.193)">
          <rect id="Rectángulo_5564" data-name="Rectángulo 5564" width="0.075" height="26.187" fill="#898888"/>
        </g>
        <g id="Grupo_54472" data-name="Grupo 54472" transform="translate(48.796 20.193)">
          <rect id="Rectángulo_5565" data-name="Rectángulo 5565" width="0.075" height="26.187" fill="#898888"/>
        </g>
        <g id="Grupo_54473" data-name="Grupo 54473" transform="translate(57.841 20.193)">
          <rect id="Rectángulo_5566" data-name="Rectángulo 5566" width="0.075" height="26.187" fill="#898888"/>
        </g>
        <g id="Grupo_54474" data-name="Grupo 54474" transform="translate(67.128 20.193)">
          <rect id="Rectángulo_5567" data-name="Rectángulo 5567" width="0.075" height="26.187" fill="#898888"/>
        </g>
        <g id="Grupo_54477" data-name="Grupo 54477" transform="translate(32.354 27.177)">
          <g id="Grupo_54475" data-name="Grupo 54475">
            <path id="Trazado_101654" data-name="Trazado 101654" d="M2846.4-1220.063a.391.391,0,0,1-.278-.115l-4.609-4.608a.393.393,0,0,1,0-.555.393.393,0,0,1,.555,0l4.608,4.608a.393.393,0,0,1,0,.555A.39.39,0,0,1,2846.4-1220.063Z" transform="translate(-2841.397 1225.456)" fill="#f57526"/>
          </g>
          <g id="Grupo_54476" data-name="Grupo 54476">
            <path id="Trazado_101655" data-name="Trazado 101655" d="M2841.79-1220.063a.391.391,0,0,1-.278-.115.393.393,0,0,1,0-.555l4.609-4.608a.392.392,0,0,1,.555,0,.393.393,0,0,1,0,.555l-4.608,4.608A.392.392,0,0,1,2841.79-1220.063Z" transform="translate(-2841.397 1225.456)" fill="#f57526"/>
          </g>
        </g>
        <g id="Grupo_54478" data-name="Grupo 54478" transform="translate(50.166 34.003)">
          <path id="Trazado_101656" data-name="Trazado 101656" d="M2966.178-1173.953l-1.9-2.317a.393.393,0,0,1,.054-.552.392.392,0,0,1,.552.054l1.355,1.649,3.167-3.166a.392.392,0,0,1,.554,0,.392.392,0,0,1,0,.555Z" transform="translate(-2964.185 1178.4)" fill="#48b187"/>
        </g>
        <g id="Grupo_54479" data-name="Grupo 54479" transform="translate(15.574 35.138)">
          <path id="Trazado_101657" data-name="Trazado 101657" d="M2736.619-1169.7h-10.459a.437.437,0,0,1-.436-.435h0a.437.437,0,0,1,.436-.435h10.459a.437.437,0,0,1,.436.435h0A.437.437,0,0,1,2736.619-1169.7Z" transform="translate(-2725.724 1170.572)" fill="#84b6b3"/>
        </g>
        <g id="Grupo_54480" data-name="Grupo 54480" transform="translate(15.574 36.539)">
          <path id="Trazado_101658" data-name="Trazado 101658" d="M2736.619-1160.047h-10.459a.437.437,0,0,1-.436-.436h0a.437.437,0,0,1,.436-.435h10.459a.437.437,0,0,1,.436.435h0A.437.437,0,0,1,2736.619-1160.047Z" transform="translate(-2725.724 1160.918)" fill="#84b6b3"/>
        </g>
        <g id="Grupo_54481" data-name="Grupo 54481" transform="translate(15.574 37.939)">
          <path id="Trazado_101659" data-name="Trazado 101659" d="M2736.619-1150.394h-10.459a.437.437,0,0,1-.436-.435h0a.437.437,0,0,1,.436-.435h10.459a.437.437,0,0,1,.436.435h0A.437.437,0,0,1,2736.619-1150.394Z" transform="translate(-2725.724 1151.265)" fill="#84b6b3"/>
        </g>
        <g id="Grupo_54482" data-name="Grupo 54482" transform="translate(58.867 42.219)">
          <path id="Trazado_101660" data-name="Trazado 101660" d="M3030.476-1120.893h-5.88a.437.437,0,0,1-.435-.435h0a.437.437,0,0,1,.435-.435h5.88a.437.437,0,0,1,.436.435h0A.437.437,0,0,1,3030.476-1120.893Z" transform="translate(-3024.161 1121.764)" fill="#84b6b3"/>
        </g>
        <g id="Grupo_54483" data-name="Grupo 54483" transform="translate(58.867 43.619)">
          <path id="Trazado_101661" data-name="Trazado 101661" d="M3030.476-1111.24h-5.88a.437.437,0,0,1-.435-.435h0a.437.437,0,0,1,.435-.435h5.88a.437.437,0,0,1,.436.435h0A.437.437,0,0,1,3030.476-1111.24Z" transform="translate(-3024.161 1112.111)" fill="#84b6b3"/>
        </g>
        <g id="Grupo_54484" data-name="Grupo 54484" transform="translate(49.605 21.773)">
          <rect id="Rectángulo_5568" data-name="Rectángulo 5568" width="7.598" height="4.088" rx="2.044" fill="#139795"/>
        </g>
        <g id="Grupo_54485" data-name="Grupo 54485" transform="translate(8.973 41.046)">
          <rect id="Rectángulo_5569" data-name="Rectángulo 5569" width="7.598" height="4.088" rx="2.044" fill="#f57526"/>
        </g>
        <path id="Trazado_101662" data-name="Trazado 101662" d="M2685.948-1384.4H2621.72a3.353,3.353,0,0,0-3.353,3.353v4.5H2689.3v-4.5A3.353,3.353,0,0,0,2685.948-1384.4Zm-56.237,6.4a2.461,2.461,0,0,1-2.461-2.461,2.46,2.46,0,0,1,2.461-2.46,2.46,2.46,0,0,1,2.46,2.46A2.46,2.46,0,0,1,2629.712-1378Zm23.705,0a2.461,2.461,0,0,1-2.46-2.461,2.46,2.46,0,0,1,2.46-2.46,2.46,2.46,0,0,1,2.461,2.46A2.461,2.461,0,0,1,2653.417-1378Zm23.706,0a2.461,2.461,0,0,1-2.461-2.461,2.461,2.461,0,0,1,2.461-2.46,2.46,2.46,0,0,1,2.461,2.46A2.461,2.461,0,0,1,2677.123-1378Z" transform="translate(-2618.367 1388.52)" fill="#f57526"/>
        <rect id="Rectángulo_5570" data-name="Rectángulo 5570" width="70.935" height="0.372" transform="translate(0 11.974)" fill="#b86e3e"/>
        <g id="Grupo_54486" data-name="Grupo 54486" transform="translate(9.958 0)">
          <rect id="Rectángulo_5571" data-name="Rectángulo 5571" width="2.739" height="8.623" rx="1.37" fill="#001931"/>
        </g>
        <g id="Grupo_54487" data-name="Grupo 54487" transform="translate(33.664 0)">
          <path id="Trazado_101663" data-name="Trazado 101663" d="M2851.793-1404.175h0a1.373,1.373,0,0,1-1.37-1.37v-5.884a1.373,1.373,0,0,1,1.37-1.37h0a1.374,1.374,0,0,1,1.37,1.37v5.884A1.374,1.374,0,0,1,2851.793-1404.175Z" transform="translate(-2850.424 1412.798)" fill="#001931"/>
        </g>
        <g id="Grupo_54488" data-name="Grupo 54488" transform="translate(57.37 0)">
          <path id="Trazado_101664" data-name="Trazado 101664" d="M3015.211-1404.175h0a1.373,1.373,0,0,1-1.37-1.37v-5.884a1.373,1.373,0,0,1,1.37-1.37h0a1.373,1.373,0,0,1,1.369,1.37v5.884A1.373,1.373,0,0,1,3015.211-1404.175Z" transform="translate(-3013.841 1412.798)" fill="#001931"/>
        </g>
      </g>
    </g>
  </g>
</svg>
