<svg xmlns="http://www.w3.org/2000/svg" width="190" height="90" viewBox="0 0 190 90">
  <g id="Grupo_54932" data-name="Grupo 54932" transform="translate(-1125 -1002)">
    <g id="files-document-protection-insurance-pen" transform="translate(1183 1003)">
      <path id="Trazado_110770" data-name="Trazado 110770" d="M424,184h5.495v41.209H424Z" transform="translate(-353.944 -155.153)" fill="#ff3051"/>
      <path id="Trazado_110771" data-name="Trazado 110771" d="M429.495,138.747v5.495H424v-5.495a2.747,2.747,0,0,1,5.495,0Z" transform="translate(-353.944 -115.395)" fill="#898890"/>
      <path id="Trazado_110772" data-name="Trazado 110772" d="M429.495,424l-2.747,10.989L424,424Z" transform="translate(-353.944 -353.944)" fill="#898890"/>
      <path id="Trazado_110773" data-name="Trazado 110773" d="M440,184h2.747v41.209H440Z" transform="translate(-367.197 -155.153)" fill="#cd2a00"/>
      <path id="Trazado_110774" data-name="Trazado 110774" d="M442.747,138.747v5.495H440V136A2.768,2.768,0,0,1,442.747,138.747Z" transform="translate(-367.197 -115.395)" fill="#57565c"/>
      <path id="Trazado_110775" data-name="Trazado 110775" d="M442.747,424,440,434.989V424Z" transform="translate(-367.197 -353.944)" fill="#57565c"/>
      <rect id="Rect치ngulo_5976" data-name="Rect치ngulo 5976" width="49.634" height="79.811" rx="16" transform="translate(15.035 1.191)" fill="#fee9ab"/>
      <path id="Trazado_110776" data-name="Trazado 110776" d="M200.726,61.495V70.3a11,11,0,0,1-3.7,8.214l-8.668,7.706L179.7,78.514A11,11,0,0,1,176,70.3V61.495L188.363,56Z" transform="translate(-148.527 -49.132)" fill="#ffd422"/>
      <path id="Trazado_110777" data-name="Trazado 110777" d="M51.473,220.121a4.121,4.121,0,0,1-4.121,4.121H37.736v16.484h-9.6L24,237.978V218.747L30.868,216H47.352A4.121,4.121,0,0,1,51.473,220.121Z" transform="translate(-22.626 -181.659)" fill="#ffc477"/>
      <path id="Trazado_110778" data-name="Trazado 110778" d="M51.473,220.121a4.157,4.157,0,0,1-.549,2.06,4.529,4.529,0,0,0-.659-.852,4.111,4.111,0,0,0-2.912-1.209H30.868L24,222.868v-4.121L30.868,216H47.352A4.121,4.121,0,0,1,51.473,220.121Z" transform="translate(-22.626 -181.659)" fill="#ffa733"/>
      <path id="Trazado_110779" data-name="Trazado 110779" d="M247.11,61.495V70.3a11,11,0,0,1-3.7,8.214l-8.668,7.706L232,83.775l5.92-5.261a11,11,0,0,0,3.7-8.214V61.495L232,57.223,234.747,56Z" transform="translate(-194.912 -49.132)" fill="#ebbf00"/>
      <path id="Trazado_110780" data-name="Trazado 110780" d="M352.242,26.747v74.177a2.755,2.755,0,0,1-2.747,2.747H344a2.755,2.755,0,0,0,2.747-2.747V26.747A2.755,2.755,0,0,0,344,24h5.495A2.755,2.755,0,0,1,352.242,26.747Z" transform="translate(-287.681 -22.626)" fill="#ffde55"/>
      <path id="Trazado_110781" data-name="Trazado 110781" d="M77.814,16H33.857a4.133,4.133,0,0,0-4.121,4.121V48.967H24.242a1.286,1.286,0,0,0-.508.1l-6.868,2.747A1.374,1.374,0,0,0,16,53.088V72.319a1.374,1.374,0,0,0,.618,1.14l4.135,2.747a1.327,1.327,0,0,0,.756.234h8.228V94.3a4.133,4.133,0,0,0,4.121,4.121H77.814A4.133,4.133,0,0,0,81.935,94.3V20.121A4.133,4.133,0,0,0,77.814,16ZM29.6,59.957h.137V73.693H21.92l-3.173-2.115V54.022L24.5,51.715H40.726a2.747,2.747,0,0,1,0,5.495H28.363a1.374,1.374,0,0,0-1.374,1.374A4.133,4.133,0,0,1,22.868,62.7v2.747A6.881,6.881,0,0,0,29.6,59.957ZM79.188,94.3a1.374,1.374,0,0,1-1.374,1.374H33.857A1.374,1.374,0,0,1,32.484,94.3V59.957h8.242a5.495,5.495,0,0,0,0-10.989H32.484V20.121a1.374,1.374,0,0,1,1.374-1.374H77.814a1.374,1.374,0,0,1,1.374,1.374Z" transform="translate(-16 -16)"/>
      <path id="Trazado_110782" data-name="Trazado 110782" d="M224.569,111.2a1.374,1.374,0,0,0,.971-.4l7.771-7.771-1.942-1.942-6.8,6.8-2.915-2.915-1.942,1.942L223.6,110.8a1.374,1.374,0,0,0,.971.4Z" transform="translate(-184.734 -86.478)"/>
      <path id="Trazado_110783" data-name="Trazado 110783" d="M194.662,53.618,182.3,48.124a1.345,1.345,0,0,0-1.126,0L168.81,53.618a1.356,1.356,0,0,0-.81,1.25v8.805a12.334,12.334,0,0,0,4.148,9.231l8.681,7.72a1.374,1.374,0,0,0,1.813,0l8.681-7.72a12.334,12.334,0,0,0,4.148-9.231V54.868a1.356,1.356,0,0,0-.81-1.25Zm-1.937,10.055a9.635,9.635,0,0,1-3.228,7.184l-7.761,6.9-7.761-6.9a9.635,9.635,0,0,1-3.228-7.184V55.761l10.989-4.89,10.989,4.89Z" transform="translate(-141.901 -42.505)"/>
      <path id="Trazado_110784" data-name="Trazado 110784" d="M428.363,136.242h-4.121v-4.121a4.121,4.121,0,1,0-8.242,0v46.7a1.358,1.358,0,0,0,.041.33l2.747,10.989a1.374,1.374,0,0,0,2.665,0l2.747-10.989a1.359,1.359,0,0,0,.041-.33V138.989h2.747v12.363h2.747V137.616a1.374,1.374,0,0,0-1.374-1.374Zm-8.242,47.913-.989-3.956h1.978Zm1.374-6.7h-2.747V138.989h2.747Zm0-41.209h-2.747v-4.121a1.374,1.374,0,1,1,2.747,0Z" transform="translate(-347.318 -108.769)"/>
      <path id="Trazado_110785" data-name="Trazado 110785" d="M144,304h5.495v2.747H144Z" transform="translate(-122.022 -254.549)"/>
      <path id="Trazado_110786" data-name="Trazado 110786" d="M192,304h27.473v2.747H192Z" transform="translate(-161.78 -254.549)"/>
      <path id="Trazado_110787" data-name="Trazado 110787" d="M144,352h5.495v2.747H144Z" transform="translate(-122.022 -294.307)"/>
      <path id="Trazado_110788" data-name="Trazado 110788" d="M192,352h27.473v2.747H192Z" transform="translate(-161.78 -294.307)"/>
      <path id="Trazado_110789" data-name="Trazado 110789" d="M144,400h5.495v2.747H144Z" transform="translate(-122.022 -334.065)"/>
      <path id="Trazado_110790" data-name="Trazado 110790" d="M192,400h27.473v2.747H192Z" transform="translate(-161.78 -334.065)"/>
      <path id="Trazado_110791" data-name="Trazado 110791" d="M144,448h5.495v2.747H144Z" transform="translate(-122.022 -373.823)"/>
      <path id="Trazado_110792" data-name="Trazado 110792" d="M192,448h27.473v2.747H192Z" transform="translate(-161.78 -373.823)"/>
    </g>
    <rect id="Rect치ngulo_6007" data-name="Rect치ngulo 6007" width="190" height="90" transform="translate(1125 1002)" fill="none"/>
  </g>
</svg>
