<svg xmlns="http://www.w3.org/2000/svg" width="190" height="90" viewBox="0 0 190 90">
  <g id="Grupo_54934" data-name="Grupo 54934" transform="translate(-1125 -1400)">
    <g id="Grupo_54494" data-name="Grupo 54494" transform="translate(1182 1400)">
      <path id="Trazado_110872" data-name="Trazado 110872" d="M327.757,145.857v1.374H298.43a19.178,19.178,0,0,0-5.549-6.909l.069-.082a17.859,17.859,0,0,1,34.808,5.618Z" transform="translate(-243.965 -107.395)" fill="#4fa3b1"/>
      <ellipse id="Elipse_4148" data-name="Elipse 4148" cx="9.53" cy="9.728" rx="9.53" ry="9.728" transform="translate(56.384 1.277)" fill="#f0d0b4"/>
      <path id="Trazado_110873" data-name="Trazado 110873" d="M272,292.124a19.267,19.267,0,0,0,10.866-15.179l.8-.343a16.524,16.524,0,0,1,2.582-1.085L287.11,272h8.242l.865,3.517A16.524,16.524,0,0,1,298.8,276.6l3.118-1.882,5.824,5.824-1.882,3.118a16.524,16.524,0,0,1,1.085,2.582l3.517.865v8.242l-3.517.865a16.524,16.524,0,0,1-1.085,2.582l1.882,3.118-5.824,5.824L298.8,305.86a16.521,16.521,0,0,1-2.582,1.085l-.865,3.517H287.11l-.865-3.517a16.521,16.521,0,0,1-2.582-1.085l-3.118,1.882-5.824-5.824L276.6,298.8a16.527,16.527,0,0,1-1.085-2.582L272,295.352Zm19.231-10.508a9.616,9.616,0,1,0,9.615,9.616A9.608,9.608,0,0,0,291.231,281.616Z" transform="translate(-226.67 -226.67)" fill="#ffc729"/>
      <path id="Trazado_110874" data-name="Trazado 110874" d="M337.615,328A9.616,9.616,0,1,1,328,337.616,9.608,9.608,0,0,1,337.615,328Zm4.121,9.616a4.121,4.121,0,1,0-4.121,4.121A4.115,4.115,0,0,0,341.736,337.616Z" transform="translate(-273.054 -273.054)" fill="#fcd770"/>
      <path id="Trazado_110875" data-name="Trazado 110875" d="M31.11,369.374l5.495,5.495,1.374,1.374L25.945,388.275a5.828,5.828,0,0,1-8.242-8.242L29.736,368Z" transform="translate(-14.626 -306.186)" fill="#cf9e76"/>
      <path id="Trazado_110876" data-name="Trazado 110876" d="M114.041,355.015l-4.547,4.547L104,354.067l4.547-4.547A18.7,18.7,0,0,0,114.041,355.015Z" transform="translate(-87.516 -290.879)" fill="#ccd1d9"/>
      <path id="Trazado_110877" data-name="Trazado 110877" d="M150.338,197.429a19.217,19.217,0,0,1-29.671,13.86,18.7,18.7,0,0,1-5.495-5.495,19.219,19.219,0,1,1,35.165-8.365Z" transform="translate(-94.143 -147.153)" fill="#e6e9ed"/>
      <ellipse id="Elipse_4149" data-name="Elipse 4149" cx="13.699" cy="13.699" rx="13.699" ry="13.699" transform="translate(23.427 34.234)" fill="#69d6f4"/>
      <path id="Trazado_110878" data-name="Trazado 110878" d="M21.495,37.978A5.493,5.493,0,0,1,16,32.484V21.495A5.493,5.493,0,0,1,21.495,16H43.473a5.493,5.493,0,0,1,5.495,5.495V32.484a5.493,5.493,0,0,1-5.495,5.495H35.231v6.374a1.873,1.873,0,0,1-3.31,1.2l-6.305-7.569Z" transform="translate(-14.626 -14.626)" fill="#ffeaa7"/>
      <path id="Trazado_110879" data-name="Trazado 110879" d="M109.736,49.374v8.242a1.378,1.378,0,0,1-1.374,1.374H97.374A1.378,1.378,0,0,1,96,57.616V49.374A1.378,1.378,0,0,1,97.374,48h10.989A1.378,1.378,0,0,1,109.736,49.374Z" transform="translate(-80.89 -41.132)" fill="#ff826e"/>
      <path id="Trazado_110880" data-name="Trazado 110880" d="M151.11,200a15.11,15.11,0,1,0,15.11,15.11A15.128,15.128,0,0,0,151.11,200Zm0,27.473a12.363,12.363,0,1,1,12.363-12.363A12.376,12.376,0,0,1,151.11,227.473Z" transform="translate(-114.022 -167.033)"/>
      <path id="Trazado_110881" data-name="Trazado 110881" d="M14.868,32.726h3.477l5.9,7.074a3.245,3.245,0,0,0,5.738-2.077v-5h6.868a6.876,6.876,0,0,0,6.868-6.868V14.868A6.876,6.876,0,0,0,36.846,8H14.868A6.876,6.876,0,0,0,8,14.868V25.857A6.876,6.876,0,0,0,14.868,32.726ZM10.747,14.868a4.126,4.126,0,0,1,4.121-4.121H36.846a4.126,4.126,0,0,1,4.121,4.121V25.857a4.126,4.126,0,0,1-4.121,4.121H27.231v7.745a.516.516,0,0,1-.879.317l-6.718-8.062H14.868a4.126,4.126,0,0,1-4.121-4.121Z" transform="translate(-8 -8)"/>
      <path id="Trazado_110882" data-name="Trazado 110882" d="M90.747,53.736h10.989a2.75,2.75,0,0,0,2.747-2.747V42.747A2.75,2.75,0,0,0,101.736,40H90.747A2.75,2.75,0,0,0,88,42.747v8.242A2.75,2.75,0,0,0,90.747,53.736Zm0-10.989h10.989v8.242H90.747Z" transform="translate(-74.264 -34.505)"/>
      <path id="Trazado_110883" data-name="Trazado 110883" d="M40,40h5.495v2.747H40Z" transform="translate(-34.505 -34.505)"/>
      <path id="Trazado_110884" data-name="Trazado 110884" d="M40,72h5.495v2.747H40Z" transform="translate(-34.505 -61.011)"/>
      <path id="Trazado_110885" data-name="Trazado 110885" d="M40,104h5.495v2.747H40Z" transform="translate(-34.505 -87.516)"/>
      <path id="Trazado_110886" data-name="Trazado 110886" d="M264,280h2.747v2.747H264Z" transform="translate(-220.043 -233.296)"/>
      <path id="Trazado_110887" data-name="Trazado 110887" d="M232,280h2.747v2.747H232Z" transform="translate(-193.538 -233.296)"/>
      <path id="Trazado_110888" data-name="Trazado 110888" d="M200,280h2.747v2.747H200Z" transform="translate(-167.033 -233.296)"/>
      <path id="Trazado_110889" data-name="Trazado 110889" d="M168,280h2.747v2.747H168Z" transform="translate(-140.527 -233.296)"/>
      <path id="Trazado_110890" data-name="Trazado 110890" d="M64.352,426.874l1.942-1.942,1.942,1.942-1.942,1.942Z" transform="translate(-54.676 -353.342)"/>
      <path id="Trazado_110891" data-name="Trazado 110891" d="M42.3,449.408l1.844-1.844,1.942,1.942-1.844,1.844Z" transform="translate(-36.407 -372.088)"/>
      <path id="Trazado_110892" data-name="Trazado 110892" d="M86.976,404.252l1.942-1.942,1.942,1.942-1.942,1.942Z" transform="translate(-73.415 -334.605)"/>
      <path id="Trazado_110893" data-name="Trazado 110893" d="M357.495,362.989A5.495,5.495,0,1,0,352,357.495,5.5,5.5,0,0,0,357.495,362.989Zm0-8.242a2.747,2.747,0,1,1-2.747,2.747A2.75,2.75,0,0,1,357.495,354.747Z" transform="translate(-292.933 -292.933)"/>
      <path id="Trazado_110894" data-name="Trazado 110894" d="M330.989,341.978A10.989,10.989,0,1,0,320,330.989,11,11,0,0,0,330.989,341.978Zm0-19.231a8.242,8.242,0,1,1-8.242,8.242A8.25,8.25,0,0,1,330.989,322.747Z" transform="translate(-266.428 -266.428)"/>
      <path id="Trazado_110895" data-name="Trazado 110895" d="M93.166,46.462A19.255,19.255,0,0,0,79.916,28.2a10.989,10.989,0,1,0-11.98-.011A19.187,19.187,0,0,0,56.293,38.809,20.57,20.57,0,0,0,27.3,66.428l-2.817,2.817L23.11,67.872l-13,13A7.2,7.2,0,0,0,20.293,91.057l13-13-1.374-1.374,2.817-2.817A20.344,20.344,0,0,0,51.957,75.48v2.279l3.838.944c.169.456.36.913.571,1.367l-2.049,3.386,7.352,7.352,3.386-2.049q.682.317,1.367.571l.942,3.837h10.4l.944-3.838q.684-.253,1.367-.571l3.386,2.049,7.352-7.352-2.049-3.386q.317-.682.571-1.367l3.837-.942v-10.4l-3.838-.944q-.253-.684-.571-1.367l2.049-3.386-7.352-7.352-3.386,2.049q-.682-.317-1.367-.571l-.942-3.837h-10.4l-.944,3.838c-.251.093-.482.218-.729.323a.388.388,0,0,0,0-.04,20.484,20.484,0,0,0-1.2-6.868H93.166ZM65.693,18.989a8.242,8.242,0,1,1,8.242,8.242A8.25,8.25,0,0,1,65.693,18.989ZM18.35,89.115a4.454,4.454,0,0,1-6.3-6.3L23.11,71.756l6.3,6.3ZM29.978,74.74l-3.552-3.552,2.444-2.444A20.747,20.747,0,0,0,32.422,72.3ZM27.231,56.078A17.857,17.857,0,1,1,45.088,73.935,17.878,17.878,0,0,1,27.231,56.078ZM65.619,59.15a14.965,14.965,0,0,1,2.37-.992l.736-.232.793-3.223h6.088l.793,3.224.736.232a15.072,15.072,0,0,1,2.37.992l.684.356,2.849-1.724,4.3,4.3-1.724,2.849.356.684a14.965,14.965,0,0,1,.992,2.37l.232.736,3.223.791v6.088l-3.224.793-.232.736a15.072,15.072,0,0,1-.992,2.37l-.356.684,1.724,2.849-4.3,4.3-2.849-1.724-.684.356a14.965,14.965,0,0,1-2.37.992L76.4,87.2l-.791,3.223H69.517l-.793-3.224-.736-.232a15.073,15.073,0,0,1-2.37-.992l-.684-.356-2.849,1.724-4.3-4.3,1.724-2.849L59.15,79.5a14.915,14.915,0,0,1-.993-2.372l-.234-.734-3.22-.791V74.288A20.635,20.635,0,0,0,65.425,59.237ZM63.3,46.462a20.716,20.716,0,0,0-4.734-5.936,16.48,16.48,0,0,1,31.855,5.936Z" transform="translate(-8 -8)"/>
    </g>
    <rect id="Rectángulo_6009" data-name="Rectángulo 6009" width="190" height="90" transform="translate(1125 1400)" fill="none"/>
  </g>
</svg>
