<svg xmlns="http://www.w3.org/2000/svg" width="400" height="216.032" viewBox="0 0 400 216.032">
  <g id="Grupo_54931" data-name="Grupo 54931" transform="translate(-1020 -1049)">
    <g id="Grupo_54262" data-name="Grupo 54262" transform="translate(-2630.067 -1817.256)">
      <circle id="Elipse_4069-3" data-name="Elipse 4069-3" cx="106.016" cy="106.016" r="106.016" transform="translate(3736.068 2870.256)" fill="#fff" opacity="0"/>
      <g id="Grupo_54261" data-name="Grupo 54261" transform="translate(0 -7)">
        <g id="Grupo_54249" data-name="Grupo 54249">
          <g id="Grupo_54199" data-name="Grupo 54199">
            <path id="Trazado_101295" data-name="Trazado 101295" d="M3841.316,3067.815c-2.516-.026-5.054-.171-7.551-.429q-.736-.077-1.47-.166a.827.827,0,1,1,.2-1.641q.719.088,1.44.163c2.447.253,4.933.4,7.39.421a.826.826,0,0,1-.009,1.652Zm8.927-.405a.826.826,0,0,1-.082-1.648,78.991,78.991,0,0,0,8.734-1.387.826.826,0,0,1,.351,1.615,80.705,80.705,0,0,1-8.918,1.416A.821.821,0,0,1,3850.243,3067.41Zm-26.649-1.748a.814.814,0,0,1-.19-.022,80.977,80.977,0,0,1-8.662-2.557.826.826,0,1,1,.556-1.556,79.469,79.469,0,0,0,8.484,2.5.827.827,0,0,1-.188,1.631Zm44.091-2.034a.826.826,0,0,1-.265-1.609,79.362,79.362,0,0,0,8.208-3.3.827.827,0,1,1,.7,1.5,80.943,80.943,0,0,1-8.38,3.366A.811.811,0,0,1,3867.685,3063.628Zm-60.9-3.974a.816.816,0,0,1-.363-.085,79.922,79.922,0,0,1-7.87-4.43.826.826,0,0,1,.891-1.392,78.406,78.406,0,0,0,7.706,4.339.826.826,0,0,1-.364,1.568Zm77.063-3.6a.826.826,0,0,1-.433-1.531,79.56,79.56,0,0,0,7.274-5.036.826.826,0,0,1,1.014,1.3,81.615,81.615,0,0,1-7.424,5.14A.82.82,0,0,1,3883.849,3056.058Zm-92.094-6.023a.817.817,0,0,1-.52-.185c-2.092-1.7-4.127-3.529-6.046-5.437a.826.826,0,1,1,1.165-1.172,79.45,79.45,0,0,0,5.923,5.326.827.827,0,0,1-.522,1.468Z" fill="#003887"/>
          </g>
          <g id="Grupo_54200" data-name="Grupo 54200">
            <path id="Trazado_101296" data-name="Trazado 101296" d="M3920.36,3004.4a.849.849,0,0,1-.172-.018.826.826,0,0,1-.638-.979,79.985,79.985,0,0,0,1.3-8.275l.047-.469a.826.826,0,0,1,1.645.161l-.048.478a81.6,81.6,0,0,1-1.326,8.447A.825.825,0,0,1,3920.36,3004.4Zm1.739-17.764a.826.826,0,0,1-.826-.816,79.338,79.338,0,0,0-.6-8.823.826.826,0,1,1,1.64-.205,81.045,81.045,0,0,1,.617,9.007.826.826,0,0,1-.816.837Zm-2.218-17.706a.828.828,0,0,1-.8-.632,78.435,78.435,0,0,0-2.562-8.465.826.826,0,0,1,1.552-.567,80,80,0,0,1,2.616,8.643.826.826,0,0,1-.609,1A.8.8,0,0,1,3919.881,2968.932Zm-6.127-16.761a.825.825,0,0,1-.739-.458,79.673,79.673,0,0,0-4.391-7.679.826.826,0,0,1,1.387-.9,81.005,81.005,0,0,1,4.482,7.84.827.827,0,0,1-.739,1.2Zm-9.7-14.983a.825.825,0,0,1-.641-.3,80.881,80.881,0,0,0-5.963-6.535.826.826,0,0,1,1.157-1.18,82.661,82.661,0,0,1,6.086,6.67.827.827,0,0,1-.639,1.349Zm-12.743-12.5a.823.823,0,0,1-.509-.175,78.53,78.53,0,0,0-7.259-5.051.826.826,0,0,1,.865-1.408,80.355,80.355,0,0,1,7.413,5.158.825.825,0,0,1-.51,1.476Zm-15.2-9.347a.822.822,0,0,1-.35-.078,78.708,78.708,0,0,0-8.208-3.295.826.826,0,1,1,.528-1.566,80.425,80.425,0,0,1,8.381,3.364.826.826,0,0,1-.351,1.575Z" fill="#003887"/>
          </g>
          <g id="Grupo_54201" data-name="Grupo 54201">
            <path id="Trazado_101297" data-name="Trazado 101297" d="M3766.526,3014.241a.828.828,0,0,1-.78-.553,79.932,79.932,0,0,1-2.5-8.678.826.826,0,1,1,1.611-.367,78.2,78.2,0,0,0,2.449,8.5.826.826,0,0,1-.507,1.053A.814.814,0,0,1,3766.526,3014.241Zm-3.966-17.4a.826.826,0,0,1-.82-.735,81.331,81.331,0,0,1-.5-8.975l.826-.041h.827a79.715,79.715,0,0,0,.488,8.833.828.828,0,0,1-.73.913A.7.7,0,0,1,3762.56,2996.84Zm.006-17.85a.711.711,0,0,1-.092,0,.827.827,0,0,1-.731-.912,81.786,81.786,0,0,1,1.491-8.907.826.826,0,1,1,1.612.363,79.968,79.968,0,0,0-1.46,8.726A.827.827,0,0,1,3762.566,2978.99Zm3.923-17.413a.827.827,0,0,1-.781-1.1,80.8,80.8,0,0,1,3.429-8.354.826.826,0,0,1,1.491.712,79.332,79.332,0,0,0-3.359,8.183A.825.825,0,0,1,3766.489,2961.577Zm7.69-16.1a.826.826,0,0,1-.7-1.263,80.877,80.877,0,0,1,5.2-7.381.827.827,0,0,1,1.3,1.026,79.249,79.249,0,0,0-5.094,7.229A.824.824,0,0,1,3774.179,2945.472Zm11.078-13.989a.827.827,0,0,1-.586-1.408c1.11-1.119,2.268-2.22,3.442-3.272,1.058-.949,2.156-1.882,3.264-2.775a.826.826,0,1,1,1.037,1.286c-1.085.875-2.161,1.79-3.2,2.719-1.15,1.031-2.285,2.11-3.372,3.206A.821.821,0,0,1,3785.257,2931.483Zm13.9-11.2a.826.826,0,0,1-.444-1.523,81.072,81.072,0,0,1,7.876-4.418.826.826,0,1,1,.726,1.484,79.572,79.572,0,0,0-7.715,4.328A.826.826,0,0,1,3799.156,2920.284Z" fill="#003887"/>
          </g>
          <circle id="Elipse_4076" data-name="Elipse 4076" cx="59.142" cy="59.142" r="59.142" transform="translate(3782.945 2927.838)" fill="#fad369"/>
          <g id="Grupo_54224" data-name="Grupo 54224">
            <g id="Grupo_54205" data-name="Grupo 54205">
              <g id="Grupo_54202" data-name="Grupo 54202">
                <rect id="Rectángulo_5471" data-name="Rectángulo 5471" width="53.76" height="66.105" rx="4.651" transform="translate(3853.576 2981.061)" fill="#5d9af0"/>
                <path id="Trazado_101298" data-name="Trazado 101298" d="M3902.685,3047.992h-44.458a5.483,5.483,0,0,1-5.477-5.477v-56.8a5.483,5.483,0,0,1,5.477-5.477h44.458a5.483,5.483,0,0,1,5.477,5.477v56.8A5.483,5.483,0,0,1,3902.685,3047.992Zm-44.458-66.1a3.829,3.829,0,0,0-3.825,3.825v56.8a3.829,3.829,0,0,0,3.825,3.825h44.458a3.83,3.83,0,0,0,3.825-3.825v-56.8a3.83,3.83,0,0,0-3.825-3.825Z" fill="#003887"/>
              </g>
              <g id="Grupo_54203" data-name="Grupo 54203">
                <rect id="Rectángulo_5472" data-name="Rectángulo 5472" width="44.39" height="56.032" transform="translate(3858.261 2986.137)" fill="#fff"/>
                <path id="Trazado_101299" data-name="Trazado 101299" d="M3902.651,3043h-44.39a.826.826,0,0,1-.826-.827v-56.032a.826.826,0,0,1,.826-.826h44.39a.826.826,0,0,1,.827.826v56.032A.827.827,0,0,1,3902.651,3043Zm-43.564-1.653h42.738v-54.38h-42.738Z" fill="#003887"/>
              </g>
              <g id="Grupo_54204" data-name="Grupo 54204">
                <path id="Trazado_101300" data-name="Trazado 101300" d="M3892.668,2980.681a1.547,1.547,0,0,0-1.547-1.547h-3.578a2,2,0,0,1-1.979-2.036c-.168-3.089-2.2-4.884-4.9-4.844a4.513,4.513,0,0,0-4.751,4.613c0,.1-.006.194,0,.29a1.966,1.966,0,0,1-1.977,1.977h-3.581a1.547,1.547,0,0,0-1.547,1.547l-1.025,7.453h25.917Z" fill="#ffce3b"/>
                <path id="Trazado_101301" data-name="Trazado 101301" d="M3893.694,2988.96h-25.917a.826.826,0,0,1-.819-.939l1.018-7.4a2.378,2.378,0,0,1,2.373-2.312h3.581a1.154,1.154,0,0,0,.83-.347,1.092,1.092,0,0,0,.32-.79c0-.085,0-.171,0-.257l0-.064a5.33,5.33,0,0,1,5.564-5.421c3.243-.055,5.554,2.206,5.74,5.61a.592.592,0,0,1,0,.078,1.216,1.216,0,0,0,.352.859,1.127,1.127,0,0,0,.8.332h3.578a2.377,2.377,0,0,1,2.373,2.312l1.018,7.4a.826.826,0,0,1-.818.939Zm-24.97-1.652h24.022l-.9-6.514a.824.824,0,0,1-.008-.113.721.721,0,0,0-.721-.721h-3.578a2.763,2.763,0,0,1-1.972-.82,2.864,2.864,0,0,1-.833-2.046c-.138-2.5-1.694-4.049-4.064-4.013a3.69,3.69,0,0,0-3.937,3.8l0,.07c0,.064,0,.127,0,.189a2.74,2.74,0,0,1-.795,1.976,2.8,2.8,0,0,1-2.008.84h-3.581a.722.722,0,0,0-.721.721.723.723,0,0,1-.008.113Z" fill="#003887"/>
              </g>
            </g>
            <g id="Grupo_54209" data-name="Grupo 54209">
              <g id="Grupo_54206" data-name="Grupo 54206">
                <rect id="Rectángulo_5473" data-name="Rectángulo 5473" width="18.535" height="1.653" transform="translate(3875.159 3002.87)" fill="#003887"/>
              </g>
              <g id="Grupo_54208" data-name="Grupo 54208">
                <g id="Grupo_54207" data-name="Grupo 54207">
                  <path id="Trazado_101302" data-name="Trazado 101302" d="M3868.791,3005.551a1.143,1.143,0,0,1-.83-.357l-2.272-2.4a.826.826,0,1,1,1.2-1.135l1.861,1.968,3.94-4.976a.827.827,0,1,1,1.3,1.026l-4.461,5.608A1.137,1.137,0,0,1,3868.791,3005.551Z" fill="#003887"/>
                </g>
              </g>
            </g>
            <g id="Grupo_54213" data-name="Grupo 54213">
              <g id="Grupo_54210" data-name="Grupo 54210">
                <rect id="Rectángulo_5474" data-name="Rectángulo 5474" width="18.535" height="1.653" transform="translate(3875.159 3012.728)" fill="#003887"/>
              </g>
              <g id="Grupo_54212" data-name="Grupo 54212">
                <g id="Grupo_54211" data-name="Grupo 54211">
                  <path id="Trazado_101303" data-name="Trazado 101303" d="M3868.791,3015.409a1.142,1.142,0,0,1-.83-.357l-2.272-2.4a.826.826,0,1,1,1.2-1.135l1.861,1.968,3.94-4.976a.826.826,0,0,1,1.3,1.025l-4.461,5.609A1.136,1.136,0,0,1,3868.791,3015.409Z" fill="#003887"/>
                </g>
              </g>
            </g>
            <g id="Grupo_54217" data-name="Grupo 54217">
              <g id="Grupo_54214" data-name="Grupo 54214">
                <rect id="Rectángulo_5475" data-name="Rectángulo 5475" width="18.535" height="1.653" transform="translate(3875.159 3022.586)" fill="#003887"/>
              </g>
              <g id="Grupo_54216" data-name="Grupo 54216">
                <g id="Grupo_54215" data-name="Grupo 54215">
                  <path id="Trazado_101304" data-name="Trazado 101304" d="M3868.79,3025.267a1.142,1.142,0,0,1-.829-.357l-2.272-2.4a.826.826,0,1,1,1.2-1.135l1.861,1.968,3.94-4.976a.826.826,0,0,1,1.3,1.025l-4.461,5.608A1.135,1.135,0,0,1,3868.79,3025.267Z" fill="#003887"/>
                </g>
              </g>
            </g>
            <g id="Grupo_54223" data-name="Grupo 54223">
              <g id="Grupo_54222" data-name="Grupo 54222">
                <g id="Grupo_54221" data-name="Grupo 54221">
                  <g id="Grupo_54218" data-name="Grupo 54218">
                    <circle id="Elipse_4077" data-name="Elipse 4077" cx="15.369" cy="15.369" r="15.369" transform="translate(3889.357 3017.163)" fill="#ffce3b"/>
                    <path id="Trazado_101305" data-name="Trazado 101305" d="M3904.726,3048.728a16.2,16.2,0,1,1,16.2-16.2A16.214,16.214,0,0,1,3904.726,3048.728Zm0-30.739a14.543,14.543,0,1,0,14.543,14.543A14.559,14.559,0,0,0,3904.726,3017.989Z" fill="#003887"/>
                  </g>
                  <g id="Grupo_54219" data-name="Grupo 54219">
                    <path id="Trazado_101306" data-name="Trazado 101306" d="M3904.726,3042.068a9.536,9.536,0,1,1,9.536-9.536A9.546,9.546,0,0,1,3904.726,3042.068Z" fill="#fff"/>
                    <path id="Trazado_101307" data-name="Trazado 101307" d="M3904.726,3042.894a10.362,10.362,0,1,1,10.362-10.362A10.373,10.373,0,0,1,3904.726,3042.894Zm0-19.071a8.709,8.709,0,1,0,8.709,8.709A8.719,8.719,0,0,0,3904.726,3023.823Z" fill="#003887"/>
                  </g>
                  <g id="Grupo_54220" data-name="Grupo 54220">
                    <path id="Trazado_101308" data-name="Trazado 101308" d="M3904.726,3027.526v5.067l3.483,3.13Z" fill="#fff"/>
                    <path id="Trazado_101309" data-name="Trazado 101309" d="M3908.209,3036.548a.828.828,0,0,1-.552-.211l-3.757-3.376v-5.435a.826.826,0,1,1,1.652,0v4.7l3.21,2.884a.826.826,0,0,1-.553,1.44Z" fill="#003887"/>
                  </g>
                </g>
              </g>
            </g>
          </g>
          <g id="Grupo_54248" data-name="Grupo 54248">
            <g id="Grupo_54243" data-name="Grupo 54243">
              <g id="Grupo_54225" data-name="Grupo 54225">
                <path id="Trazado_101310" data-name="Trazado 101310" d="M3834.051,2999.967v-6.876h-10.3v3.479Z" fill="#fff"/>
                <path id="Trazado_101311" data-name="Trazado 101311" d="M3834.051,3000.793a.825.825,0,0,1-.826-.826v-6.049h-8.646v2.652a.826.826,0,0,1-1.652,0v-3.478a.827.827,0,0,1,.826-.827h10.3a.826.826,0,0,1,.826.827v6.875A.826.826,0,0,1,3834.051,3000.793Z" fill="#003887"/>
              </g>
              <g id="Grupo_54226" data-name="Grupo 54226">
                <rect id="Rectángulo_5476" data-name="Rectángulo 5476" width="29.327" height="55.138" transform="translate(3790.236 2982.509)" fill="#fff"/>
                <path id="Trazado_101312" data-name="Trazado 101312" d="M3819.563,3038.473h-29.327a.826.826,0,0,1-.826-.826v-55.138a.826.826,0,0,1,.826-.826h29.327a.826.826,0,0,1,.826.826v55.138A.826.826,0,0,1,3819.563,3038.473Zm-28.5-1.653h27.674v-53.485h-27.674Z" fill="#003887"/>
              </g>
              <g id="Grupo_54227" data-name="Grupo 54227">
                <rect id="Rectángulo_5477" data-name="Rectángulo 5477" width="21.3" height="4.245" transform="translate(3794.25 2988.659)" fill="#5d9af0"/>
                <path id="Trazado_101313" data-name="Trazado 101313" d="M3815.549,2993.73h-21.3a.826.826,0,0,1-.826-.826v-4.245a.826.826,0,0,1,.826-.826h21.3a.826.826,0,0,1,.827.826v4.245A.826.826,0,0,1,3815.549,2993.73Zm-20.473-1.653h19.647v-2.592h-19.647Z" fill="#003887"/>
              </g>
              <g id="Grupo_54228" data-name="Grupo 54228">
                <rect id="Rectángulo_5478" data-name="Rectángulo 5478" width="21.3" height="4.245" transform="translate(3794.25 3027.402)" fill="#5d9af0"/>
                <path id="Trazado_101314" data-name="Trazado 101314" d="M3815.549,3032.473h-21.3a.826.826,0,0,1-.826-.827V3027.4a.826.826,0,0,1,.826-.826h21.3a.826.826,0,0,1,.827.826v4.244A.826.826,0,0,1,3815.549,3032.473Zm-20.473-1.653h19.647v-2.592h-19.647Z" fill="#003887"/>
              </g>
              <g id="Grupo_54229" data-name="Grupo 54229">
                <path id="Trazado_101315" data-name="Trazado 101315" d="M3837.981,3037.647h-18.418V2995.2l18.418,6.235Z" fill="#fff"/>
                <path id="Trazado_101316" data-name="Trazado 101316" d="M3837.981,3038.473h-18.418a.826.826,0,0,1-.827-.826V2995.2a.827.827,0,0,1,1.092-.782l18.418,6.235a.824.824,0,0,1,.561.783v36.208A.825.825,0,0,1,3837.981,3038.473Zm-17.592-1.653h16.766v-34.789l-16.766-5.676Z" fill="#003887"/>
              </g>
              <g id="Grupo_54230" data-name="Grupo 54230">
                <path id="Trazado_101317" data-name="Trazado 101317" d="M3828.9,2989.882v0Z" fill="#5d9af0"/>
                <path id="Trazado_101318" data-name="Trazado 101318" d="M3828.9,2993.918a.826.826,0,0,1-.826-.826v-3.21a.826.826,0,1,1,1.652,0v3.21A.826.826,0,0,1,3828.9,2993.918Z" fill="#003887"/>
              </g>
              <g id="Grupo_54231" data-name="Grupo 54231">
                <rect id="Rectángulo_5479" data-name="Rectángulo 5479" width="18.418" height="34.732" transform="translate(3771.782 3002.915)" fill="#fff"/>
                <path id="Trazado_101319" data-name="Trazado 101319" d="M3790.2,3038.473h-18.419a.826.826,0,0,1-.826-.826v-34.733a.826.826,0,0,1,.826-.826H3790.2a.826.826,0,0,1,.826.826v34.733A.826.826,0,0,1,3790.2,3038.473Zm-17.592-1.653h16.766v-33.079h-16.766Z" fill="#003887"/>
              </g>
              <g id="Grupo_54234" data-name="Grupo 54234">
                <g id="Grupo_54233" data-name="Grupo 54233">
                  <g id="Grupo_54232" data-name="Grupo 54232">
                    <rect id="Rectángulo_5480" data-name="Rectángulo 5480" width="5.525" height="3.888" transform="translate(3826.009 3020.75)" fill="#5d9af0"/>
                    <path id="Trazado_101320" data-name="Trazado 101320" d="M3831.534,3025.464h-5.525a.826.826,0,0,1-.826-.826v-3.888a.826.826,0,0,1,.826-.826h5.525a.826.826,0,0,1,.827.826v3.888A.827.827,0,0,1,3831.534,3025.464Zm-4.7-1.652h3.873v-2.236h-3.873Z" fill="#003887"/>
                  </g>
                </g>
              </g>
              <g id="Grupo_54237" data-name="Grupo 54237">
                <g id="Grupo_54236" data-name="Grupo 54236">
                  <g id="Grupo_54235" data-name="Grupo 54235">
                    <rect id="Rectángulo_5481" data-name="Rectángulo 5481" width="5.525" height="3.888" transform="translate(3826.009 3011.613)" fill="#5d9af0"/>
                    <path id="Trazado_101321" data-name="Trazado 101321" d="M3831.534,3016.327h-5.525a.826.826,0,0,1-.826-.826v-3.888a.826.826,0,0,1,.826-.826h5.525a.826.826,0,0,1,.827.826v3.888A.826.826,0,0,1,3831.534,3016.327Zm-4.7-1.652h3.873v-2.236h-3.873Z" fill="#003887"/>
                  </g>
                </g>
              </g>
              <g id="Grupo_54238" data-name="Grupo 54238">
                <rect id="Rectángulo_5482" data-name="Rectángulo 5482" width="10.866" height="4.224" transform="translate(3771.782 3011.394)" fill="#5d9af0"/>
                <path id="Trazado_101322" data-name="Trazado 101322" d="M3782.648,3016.444h-10.866a.826.826,0,0,1-.826-.826v-4.224a.826.826,0,0,1,.826-.827h10.866a.826.826,0,0,1,.826.827v4.224A.826.826,0,0,1,3782.648,3016.444Zm-10.039-1.653h9.213v-2.571h-9.213Z" fill="#003887"/>
              </g>
              <g id="Grupo_54239" data-name="Grupo 54239">
                <rect id="Rectángulo_5483" data-name="Rectángulo 5483" width="10.866" height="4.224" transform="translate(3771.782 3025.184)" fill="#5d9af0"/>
                <path id="Trazado_101323" data-name="Trazado 101323" d="M3782.648,3030.235h-10.866a.826.826,0,0,1-.826-.827v-4.224a.826.826,0,0,1,.826-.826h10.866a.826.826,0,0,1,.826.826v4.224A.826.826,0,0,1,3782.648,3030.235Zm-10.039-1.653h9.213v-2.571h-9.213Z" fill="#003887"/>
              </g>
              <g id="Grupo_54240" data-name="Grupo 54240">
                <path id="Trazado_101324" data-name="Trazado 101324" d="M3780.992,2999.558v0Z" fill="#5d9af0"/>
                <path id="Trazado_101325" data-name="Trazado 101325" d="M3780.992,3000.384a.826.826,0,0,1-.827-.826v-4.916a.827.827,0,0,1,1.653,0v4.916A.826.826,0,0,1,3780.992,3000.384Z" fill="#003887"/>
              </g>
              <g id="Grupo_54241" data-name="Grupo 54241">
                <rect id="Rectángulo_5484" data-name="Rectángulo 5484" width="9.687" height="3.357" transform="translate(3776.148 2999.558)" fill="#fff"/>
                <path id="Trazado_101326" data-name="Trazado 101326" d="M3785.835,3003.741h-9.687a.826.826,0,0,1-.826-.827v-3.356a.826.826,0,0,1,.826-.827h9.687a.827.827,0,0,1,.827.827v3.356A.827.827,0,0,1,3785.835,3003.741Zm-8.861-1.653h8.035v-1.7h-8.035Z" fill="#003887"/>
              </g>
              <g id="Grupo_54242" data-name="Grupo 54242">
                <path id="Trazado_101327" data-name="Trazado 101327" d="M3766.756,3037.647h0Z" fill="#5d9af0"/>
                <path id="Trazado_101328" data-name="Trazado 101328" d="M3841.306,3038.473h-74.55a.826.826,0,0,1,0-1.653h74.55a.826.826,0,0,1,0,1.653Z" fill="#003887"/>
              </g>
            </g>
            <g id="Grupo_54247" data-name="Grupo 54247">
              <g id="Grupo_54244" data-name="Grupo 54244">
                <rect id="Rectángulo_5485" data-name="Rectángulo 5485" width="19.975" height="13.778" rx="0.581" transform="translate(3795.334 3004.932)" fill="#ffce3b"/>
                <path id="Trazado_101329" data-name="Trazado 101329" d="M3814.728,3019.536h-18.813a1.409,1.409,0,0,1-1.407-1.408v-12.615a1.409,1.409,0,0,1,1.407-1.408h18.813a1.409,1.409,0,0,1,1.407,1.408v12.615A1.409,1.409,0,0,1,3814.728,3019.536Zm-18.568-1.653h18.323v-12.125H3796.16Z" fill="#003887"/>
              </g>
              <g id="Grupo_54245" data-name="Grupo 54245">
                <path id="Trazado_101330" data-name="Trazado 101330" d="M3815.309,3007.158l-2.056,3.808-.4.785a3.7,3.7,0,0,1-3.318,1.952h-8.423a3.7,3.7,0,0,1-3.309-1.935l-.42-.819-2.047-3.791Z" fill="#ffce3b"/>
                <path id="Trazado_101331" data-name="Trazado 101331" d="M3809.533,3014.53h-8.423a4.554,4.554,0,0,1-4.044-2.383l-.421-.821-2.038-3.775a.826.826,0,1,1,1.454-.785l2.475,4.626a2.889,2.889,0,0,0,2.574,1.485h8.423a2.884,2.884,0,0,0,2.582-1.5l.4-.786,2.065-3.824a.826.826,0,1,1,1.454.785l-2.449,4.576A4.548,4.548,0,0,1,3809.533,3014.53Z" fill="#003887"/>
              </g>
              <g id="Grupo_54246" data-name="Grupo 54246">
                <path id="Rectángulo_5486" data-name="Rectángulo 5486" d="M.559,0H7.374a.559.559,0,0,1,.559.559V3.644a0,0,0,0,1,0,0H0a0,0,0,0,1,0,0V.559A.559.559,0,0,1,.559,0Z" transform="translate(3801.248 3001.288)" fill="#fff"/>
                <path id="Trazado_101332" data-name="Trazado 101332" d="M3809.181,3005.758h-7.933a.826.826,0,0,1-.826-.826v-3.085a1.386,1.386,0,0,1,1.385-1.385h6.815a1.386,1.386,0,0,1,1.385,1.385v3.085A.826.826,0,0,1,3809.181,3005.758Zm-7.107-1.652h6.281v-1.992h-6.281Z" fill="#003887"/>
              </g>
            </g>
          </g>
        </g>
        <g id="Grupo_54260" data-name="Grupo 54260">
          <g id="Grupo_54259" data-name="Grupo 54259">
            <g id="Grupo_54250" data-name="Grupo 54250">
              <circle id="Elipse_4078" data-name="Elipse 4078" cx="17.811" cy="17.811" r="17.811" transform="translate(3828.129 2887.934)" fill="#fff"/>
              <path id="Trazado_101333" data-name="Trazado 101333" d="M3845.94,2924.382a18.637,18.637,0,1,1,18.637-18.637A18.658,18.658,0,0,1,3845.94,2924.382Zm0-35.621a16.984,16.984,0,1,0,16.985,16.984A17,17,0,0,0,3845.94,2888.761Z" fill="#003887"/>
            </g>
            <g id="Grupo_54251" data-name="Grupo 54251">
              <path id="Trazado_101334" data-name="Trazado 101334" d="M3811.114,2944.132v-.957c0-8.585,7.651-15.545,17.088-15.545h34.469c9.437,0,17.088,6.96,17.088,15.545v.957Z" fill="#5d9af0"/>
              <path id="Trazado_101335" data-name="Trazado 101335" d="M3879.759,2944.958a.827.827,0,0,1-.827-.826v-.957c0-8.116-7.295-14.719-16.262-14.719H3828.2c-8.967,0-16.262,6.6-16.262,14.719v.957a.826.826,0,0,1-1.652,0v-.957c0-9.027,8.036-16.372,17.914-16.372h34.468c9.878,0,17.915,7.345,17.915,16.372v.957A.826.826,0,0,1,3879.759,2944.958Z" fill="#003887"/>
            </g>
            <g id="Grupo_54252" data-name="Grupo 54252">
              <path id="Trazado_101336" data-name="Trazado 101336" d="M3865.77,2895.18a9.661,9.661,0,0,1-3.713,3.011,17.694,17.694,0,0,1,1.694,7.554c0,.493-.026.979-.065,1.461a19.337,19.337,0,0,0,2.124-12.028Z" fill="#ffce3b"/>
              <path id="Trazado_101337" data-name="Trazado 101337" d="M3863.686,2908.032a.852.852,0,0,1-.243-.036.827.827,0,0,1-.58-.857c.041-.512.062-.968.062-1.394a16.8,16.8,0,0,0-1.616-7.2.828.828,0,0,1,.4-1.1,8.863,8.863,0,0,0,3.4-2.756.826.826,0,0,1,.621-.331l.041,0a.825.825,0,0,1,.859.709,20.076,20.076,0,0,1-2.223,12.551A.828.828,0,0,1,3863.686,2908.032Zm-.556-9.463a18.459,18.459,0,0,1,1.3,4.8,18.9,18.9,0,0,0,.734-6.275A10.559,10.559,0,0,1,3863.13,2898.569Z" fill="#003887"/>
            </g>
            <g id="Grupo_54253" data-name="Grupo 54253">
              <path id="Trazado_101338" data-name="Trazado 101338" d="M3827.75,2903.089a9.951,9.951,0,0,1,3.292-4.9c7.838-5.547,14.443,1.634,25.8,1.171,12.922-.526,11.331-13.993,11.331-13.993a8.632,8.632,0,0,1-8.438-.044,32.931,32.931,0,0,0-21.721-3.1,17.652,17.652,0,0,0-12.439,10.177l-.029.071a16.291,16.291,0,0,0-1.149,5.424Z" fill="#ffce3b"/>
              <path id="Trazado_101339" data-name="Trazado 101339" d="M3827.751,2903.916a.814.814,0,0,1-.243-.037.826.826,0,0,1-.548-1.032,10.688,10.688,0,0,1,3.6-5.331c4.969-3.516,9.427-2.262,14.589-.811a36.147,36.147,0,0,0,11.659,1.831c3.462-.141,6.126-1.275,7.918-3.371,2.366-2.766,2.685-6.588,2.679-8.5a9.614,9.614,0,0,1-8.064-.609,31.947,31.947,0,0,0-21.142-3.019,16.769,16.769,0,0,0-11.861,9.688l-.026.065a15.46,15.46,0,0,0-1.089,5.143.827.827,0,1,1-1.652-.061,17.191,17.191,0,0,1,1.21-5.7l.031-.075a18.424,18.424,0,0,1,13.017-10.666,33.7,33.7,0,0,1,22.3,3.177,7.861,7.861,0,0,0,7.614.065.826.826,0,0,1,1.251.608c.032.267.729,6.583-3,10.958-2.1,2.465-5.169,3.8-9.115,3.957a37.461,37.461,0,0,1-12.173-1.891c-4.952-1.392-8.862-2.491-13.187.569a9.078,9.078,0,0,0-2.979,4.467A.827.827,0,0,1,3827.751,2903.916Z" fill="#003887"/>
            </g>
            <g id="Grupo_54254" data-name="Grupo 54254">
              <path id="Trazado_101340" data-name="Trazado 101340" d="M3840.714,2913.961a.826.826,0,0,1-.218-1.623,18.936,18.936,0,0,1,9.777-.053.826.826,0,1,1-.422,1.6,17.271,17.271,0,0,0-8.917.048A.832.832,0,0,1,3840.714,2913.961Z" fill="#003887"/>
            </g>
            <g id="Grupo_54255" data-name="Grupo 54255">
              <path id="Trazado_101341" data-name="Trazado 101341" d="M3838.548,2933.381c1.839.87,4.229,1.972,6.479,1.972a10.818,10.818,0,0,0,10.556-7.723h-21.321C3834.965,2929.286,3836.518,2932.419,3838.548,2933.381Z" fill="#fff"/>
              <path id="Trazado_101342" data-name="Trazado 101342" d="M3845.027,2936.18c-2.5,0-5.106-1.235-6.832-2.052-2.143-1.015-3.735-3.919-4.694-6.175a.828.828,0,0,1,.761-1.15h21.321a.826.826,0,0,1,.8,1.033A11.664,11.664,0,0,1,3845.027,2936.18Zm-6.125-3.546c1.592.754,4,1.893,6.125,1.893a10.134,10.134,0,0,0,9.417-6.071h-18.9c1.06,2.16,2.254,3.657,3.355,4.178Z" fill="#003887"/>
            </g>
            <g id="Grupo_54257" data-name="Grupo 54257">
              <g id="Grupo_54256" data-name="Grupo 54256">
                <path id="Trazado_101343" data-name="Trazado 101343" d="M3822.173,2918.875v-15.5a2.8,2.8,0,0,0-5.578,0v5.638a2.8,2.8,0,0,0-5.578,0v21.423c0,7.007,6.244,12.686,13.945,12.686s13.944-5.678,13.945-12.684l0-10.139a2.8,2.8,0,0,0-5.577,0l0,7.354v-22.584a2.8,2.8,0,0,0-5.578,0v-4.511a2.8,2.8,0,0,0-5.577,0Z" fill="#fff"/>
                <path id="Trazado_101344" data-name="Trazado 101344" d="M3824.962,2943.945c-8.144,0-14.771-6.062-14.771-13.513v-21.423a3.5,3.5,0,0,1,3.615-3.363,3.788,3.788,0,0,1,1.963.54v-2.815a3.5,3.5,0,0,1,3.615-3.363,3.781,3.781,0,0,1,1.962.54,3.625,3.625,0,0,1,7.231,0v1.687a3.791,3.791,0,0,1,1.962-.54,3.5,3.5,0,0,1,3.615,3.364v12.411a3.732,3.732,0,0,1,1.981-.542,3.5,3.5,0,0,1,3.6,3.363v10.139C3839.732,2937.884,3833.106,2943.945,3824.962,2943.945Zm-11.156-36.647a1.852,1.852,0,0,0-1.962,1.711v21.423c0,6.54,5.885,11.86,13.118,11.86s13.118-5.319,13.119-11.858l0-10.139a1.852,1.852,0,0,0-1.954-1.71,2.1,2.1,0,0,0-1.484.585,1.588,1.588,0,0,0-.486,1.124l0,7.354a.826.826,0,1,1-1.652,0v-22.584a1.981,1.981,0,0,0-3.925,0v13.812a.826.826,0,1,1-1.653,0v-18.323a1.981,1.981,0,0,0-3.925,0v18.323a.827.827,0,1,1-1.653,0v-15.5a1.981,1.981,0,0,0-3.925,0v15.5a.826.826,0,1,1-1.652,0v-9.866A1.853,1.853,0,0,0,3813.806,2907.3Z" fill="#003887"/>
              </g>
            </g>
            <g id="Grupo_54258" data-name="Grupo 54258">
              <path id="Trazado_101345" data-name="Trazado 101345" d="M3823.411,2937.743a.827.827,0,0,1-.823-.762c-.657-8.374,8.163-12.485,8.539-12.656a.826.826,0,0,1,.685,1.5c-.082.037-8.142,3.812-7.576,11.023a.825.825,0,0,1-.759.888Z" fill="#003887"/>
            </g>
          </g>
        </g>
      </g>
    </g>
    <rect id="Rectángulo_6006" data-name="Rectángulo 6006" width="400" height="212" transform="translate(1020 1049)" fill="none"/>
  </g>
</svg>
