<svg xmlns="http://www.w3.org/2000/svg" width="400" height="258" viewBox="0 0 400 258">
  <g id="Grupo_54926" data-name="Grupo 54926" transform="translate(0 -0.511)">
    <rect id="Rectángulo_5997" data-name="Rectángulo 5997" width="400" height="258" transform="translate(0 0.511)" fill="#fff"/>
    <g id="Grupo_54908" data-name="Grupo 54908" transform="translate(32.142 57.269)">
      <path id="Trazado_110910" data-name="Trazado 110910" d="M583.442,623.087c-2.518-42.828-44.2-45.036-58.174-46.866s-11.492-61.016-52-59.8h0a41.452,41.452,0,0,0-23.937,7.307c-4.671,3.317-10.977-.143-10.977-6.056V490.168c0-27.009-20.332-49.106-45.183-49.106h0c-24.851,0-45.183,22.1-45.183,49.106h0c0,16.167-13.532,28.756-28.828,26.665a44.709,44.709,0,0,0-6.055-.41h0c-19.931,0-36.238,13.112-36.238,29.138v5.193a2.6,2.6,0,0,1-2.538,2.659H274.3c-13.86,0-25.2,8.7-25.2,19.337v50.314l260.4.023Z" transform="translate(-249.102 -441.062)" fill="#fff2ce" opacity="0.2"/>
    </g>
    <rect id="Rectángulo_5998" data-name="Rectángulo 5998" width="140.205" height="204.554" transform="translate(122.897 34.793)" fill="#387d89"/>
    <rect id="Rectángulo_5999" data-name="Rectángulo 5999" width="122.362" height="183.042" transform="translate(131.818 44.353)" fill="#fff"/>
    <rect id="Rectángulo_6000" data-name="Rectángulo 6000" width="67.289" height="12.115" transform="translate(159.355 34.793)" fill="#e77c20"/>
    <g id="Grupo_54911" data-name="Grupo 54911" transform="translate(141.155 104.247)">
      <g id="Grupo_54909" data-name="Grupo 54909" transform="translate(0 4.491)">
        <path id="Trazado_110911" data-name="Trazado 110911" d="M1113.986,859.977h-20.031V839.945h20.031Zm-18.348-1.684H1112.3V841.629h-16.664Z" transform="translate(-1093.955 -839.945)" fill="#cbd0e6"/>
      </g>
      <g id="Grupo_54910" data-name="Grupo 54910" transform="translate(33.542 9.015)">
        <path id="Rectángulo_6001" data-name="Rectángulo 6001" d="M1.227,0H69.5a1.227,1.227,0,0,1,1.227,1.227v0A1.227,1.227,0,0,1,69.5,2.453H1.227A1.227,1.227,0,0,1,0,1.227v0A1.227,1.227,0,0,1,1.227,0Z" fill="#cbd0e6"/>
        <path id="Trazado_110912" data-name="Trazado 110912" d="M1423.4,910.515h-68.27a1.23,1.23,0,0,1-1.227-1.226h0a1.23,1.23,0,0,1,1.227-1.227h68.27a1.23,1.23,0,0,1,1.227,1.227h0A1.23,1.23,0,0,1,1423.4,910.515Z" transform="translate(-1353.902 -903.797)" fill="#cbd0e6"/>
        <path id="Trazado_110913" data-name="Trazado 110913" d="M1400.355,943.565h-45.227a1.23,1.23,0,0,1-1.227-1.227h0a1.23,1.23,0,0,1,1.227-1.227h45.227a1.23,1.23,0,0,1,1.227,1.227h0A1.23,1.23,0,0,1,1400.355,943.565Z" transform="translate(-1353.902 -932.583)" fill="#cbd0e6"/>
      </g>
      <path id="Trazado_110914" data-name="Trazado 110914" d="M1128.954,813.461a114.948,114.948,0,0,1,4.593,11.68s5.516-15.915,10.923-20c0,0-9.239,7.17-11.229,11.992Z" transform="translate(-1124.438 -805.143)" fill="#e77c20"/>
    </g>
    <g id="Grupo_54914" data-name="Grupo 54914" transform="translate(141.155 61.873)">
      <g id="Grupo_54912" data-name="Grupo 54912" transform="translate(0 4.491)">
        <path id="Trazado_110915" data-name="Trazado 110915" d="M1113.986,531.581h-20.031V511.549h20.031Zm-18.348-1.684H1112.3V513.233h-16.664Z" transform="translate(-1093.955 -511.549)" fill="#cbd0e6"/>
      </g>
      <g id="Grupo_54913" data-name="Grupo 54913" transform="translate(33.542 9.015)">
        <path id="Rectángulo_6002" data-name="Rectángulo 6002" d="M1.227,0H69.5a1.227,1.227,0,0,1,1.227,1.227v0A1.227,1.227,0,0,1,69.5,2.453H1.227A1.227,1.227,0,0,1,0,1.227v0A1.227,1.227,0,0,1,1.227,0Z" fill="#cbd0e6"/>
        <path id="Trazado_110916" data-name="Trazado 110916" d="M1423.4,582.119h-68.27a1.23,1.23,0,0,1-1.227-1.226h0a1.23,1.23,0,0,1,1.227-1.227h68.27a1.23,1.23,0,0,1,1.227,1.227h0A1.23,1.23,0,0,1,1423.4,582.119Z" transform="translate(-1353.902 -575.401)" fill="#cbd0e6"/>
        <path id="Trazado_110917" data-name="Trazado 110917" d="M1400.355,615.169h-45.227a1.23,1.23,0,0,1-1.227-1.227h0a1.23,1.23,0,0,1,1.227-1.227h45.227a1.23,1.23,0,0,1,1.227,1.227h0A1.23,1.23,0,0,1,1400.355,615.169Z" transform="translate(-1353.902 -604.187)" fill="#cbd0e6"/>
      </g>
      <path id="Trazado_110918" data-name="Trazado 110918" d="M1128.954,485.065a114.945,114.945,0,0,1,4.593,11.68s5.516-15.915,10.923-20c0,0-9.239,7.17-11.229,11.992Z" transform="translate(-1124.438 -476.747)" fill="#e77c20"/>
    </g>
    <g id="Grupo_54918" data-name="Grupo 54918" transform="translate(141.155 146.841)">
      <g id="Grupo_54915" data-name="Grupo 54915" transform="translate(33.542 5.734)">
        <path id="Trazado_110919" data-name="Trazado 110919" d="M1423.4,1182.138h-68.27a1.23,1.23,0,0,1-1.227-1.227h0a1.23,1.23,0,0,1,1.227-1.227h68.27a1.23,1.23,0,0,1,1.227,1.227h0A1.23,1.23,0,0,1,1423.4,1182.138Z" transform="translate(-1353.902 -1179.685)" fill="#cbd0e6"/>
        <path id="Trazado_110920" data-name="Trazado 110920" d="M1423.4,1215.189h-68.27a1.23,1.23,0,0,1-1.227-1.226h0a1.23,1.23,0,0,1,1.227-1.227h68.27a1.23,1.23,0,0,1,1.227,1.227h0A1.23,1.23,0,0,1,1423.4,1215.189Z" transform="translate(-1353.902 -1208.471)" fill="#cbd0e6"/>
        <path id="Trazado_110921" data-name="Trazado 110921" d="M1400.355,1248.239h-45.227a1.23,1.23,0,0,1-1.227-1.227h0a1.23,1.23,0,0,1,1.227-1.227h45.227a1.23,1.23,0,0,1,1.227,1.227h0A1.23,1.23,0,0,1,1400.355,1248.239Z" transform="translate(-1353.902 -1237.257)" fill="#cbd0e6"/>
      </g>
      <g id="Grupo_54917" data-name="Grupo 54917">
        <g id="Grupo_54916" data-name="Grupo 54916" transform="translate(0 4.05)">
          <path id="Trazado_110922" data-name="Trazado 110922" d="M1113.986,1186.667h-20.031v-20.031h20.031Zm-18.348-1.684H1112.3v-16.664h-16.664Z" transform="translate(-1093.955 -1166.635)" fill="#cbd0e6"/>
        </g>
        <path id="Trazado_110923" data-name="Trazado 110923" d="M1128.954,1143.564a114.939,114.939,0,0,1,4.593,11.68s5.516-15.915,10.923-20c0,0-9.239,7.17-11.229,11.992Z" transform="translate(-1124.438 -1135.246)" fill="#e77c20"/>
      </g>
    </g>
    <g id="Grupo_54921" data-name="Grupo 54921" transform="translate(141.155 189.215)">
      <g id="Grupo_54919" data-name="Grupo 54919" transform="translate(0 4.05)">
        <path id="Trazado_110924" data-name="Trazado 110924" d="M1113.986,1515.063h-20.031v-20.031h20.031Zm-18.348-1.684H1112.3v-16.664h-16.664Z" transform="translate(-1093.955 -1495.031)" fill="#cbd0e6"/>
      </g>
      <g id="Grupo_54920" data-name="Grupo 54920" transform="translate(33.542 5.734)">
        <path id="Rectángulo_6003" data-name="Rectángulo 6003" d="M1.227,0H69.5a1.226,1.226,0,0,1,1.226,1.226v0A1.226,1.226,0,0,1,69.5,2.453H1.226A1.226,1.226,0,0,1,0,1.227v0A1.227,1.227,0,0,1,1.227,0Z" fill="#cbd0e6"/>
        <path id="Trazado_110925" data-name="Trazado 110925" d="M1423.4,1543.585h-68.27a1.23,1.23,0,0,1-1.227-1.227h0a1.23,1.23,0,0,1,1.227-1.227h68.27a1.23,1.23,0,0,1,1.227,1.227h0A1.23,1.23,0,0,1,1423.4,1543.585Z" transform="translate(-1353.902 -1536.867)" fill="#cbd0e6"/>
        <path id="Trazado_110926" data-name="Trazado 110926" d="M1400.355,1576.636h-45.227a1.23,1.23,0,0,1-1.227-1.226h0a1.23,1.23,0,0,1,1.227-1.227h45.227a1.23,1.23,0,0,1,1.227,1.227h0A1.23,1.23,0,0,1,1400.355,1576.636Z" transform="translate(-1353.902 -1565.654)" fill="#cbd0e6"/>
      </g>
      <path id="Trazado_110927" data-name="Trazado 110927" d="M1128.954,1471.96a114.964,114.964,0,0,1,4.593,11.68s5.516-15.915,10.923-20c0,0-9.239,7.17-11.229,11.992Z" transform="translate(-1124.438 -1463.642)" fill="#e77c20"/>
    </g>
    <path id="Trazado_110928" data-name="Trazado 110928" d="M454.461,1852.335H80.992a1,1,0,0,0-.989,1.013h0a1,1,0,0,0,.989,1.013H454.461a1.013,1.013,0,0,0,0-2.026Z" transform="translate(-69.68 -1612.967)" fill="#515151"/>
    <g id="Grupo_54922" data-name="Grupo 54922" transform="translate(222.013 61.011)">
      <path id="Trazado_110929" data-name="Trazado 110929" d="M1721.7,474.486s56.034-10.028,96.62.114c0,0,10.951,90.874-48.234,115.984C1770.086,590.584,1711.947,569.1,1721.7,474.486Z" transform="translate(-1720.597 -470.063)" fill="#fff"/>
      <path id="Trazado_110930" data-name="Trazado 110930" d="M1777.487,529.5s51.389-6.594,82.768,0c0,0,10.478,73.806-40.254,101.09C1820,630.588,1773.531,617.419,1777.487,529.5Z" transform="translate(-1769.938 -519.276)" fill="#e77c20"/>
      <path id="Trazado_110931" data-name="Trazado 110931" d="M1975.468,694.7h-15.4V679.685h-14.1V694.7h-14.638v14.1h14.638v15.018h14.1V708.807h15.4Z" transform="translate(-1904.137 -652.637)" fill="#fff"/>
    </g>
    <g id="scientist_2" data-name="scientist 2" transform="translate(297.356 105.745)">
      <path id="Trazado_110932" data-name="Trazado 110932" d="M2513.172,845.61c2.456-2.436,2.14-21.367,2.168-22.524.082-3.344,1.345-4.74,1.345-4.74,4.235-2.507,11.205-2.672,13.853,4.084,1.7,4.335,6.044,12.763,6.044,12.763,17.759,24.641,10.7,36.8,10.7,36.8l-.759-.084a4.014,4.014,0,0,0,.2-2.431l-.723,2.413-13.119-1.687a39.816,39.816,0,0,0-1.112-6.452l-.062,6.672-1.76.093c.7-14.07-2.292-20.978-3.177-22.691.759,7.822-3.026,20.578-3.026,20.578l-.542-.122,1.229-6.377-1.573,6.3-1.524-.346q.364-1.274.669-2.485c-.419,1.558-.669,2.485-.669,2.485-3.268-3.556-9.255-3.242-9.255-3.242C2508.827,860.042,2513.172,845.61,2513.172,845.61Z" transform="translate(-2484.245 -816.752)" fill="#994616"/>
      <path id="Trazado_110933" data-name="Trazado 110933" d="M2470.708,1767.087l-3.827,7.639-3.117-1.2.716-7.8Z" transform="translate(-2443.215 -1643.279)" fill="#dcabb0"/>
      <path id="Trazado_110934" data-name="Trazado 110934" d="M2421.478,1824.089l-1.043,3.45h-10.35S2412.733,1822.885,2421.478,1824.089Z" transform="translate(-2396.462 -1693.937)" fill="#c4541c"/>
      <path id="Trazado_110935" data-name="Trazado 110935" d="M2465.054,1257.261l-8.176,66.973h8.67s11.313-28.964,12.936-59.147C2479.1,1253.554,2465.054,1257.261,2465.054,1257.261Z" transform="translate(-2437.218 -1199.927)" fill="#114c6a"/>
      <path id="Trazado_110936" data-name="Trazado 110936" d="M2642.758,1756.011l-1.774,6.229-3.316-.4-.734-9.521Z" transform="translate(-2594.04 -1631.6)" fill="#dcabb0"/>
      <path id="Trazado_110937" data-name="Trazado 110937" d="M2593.817,1824.089l-1.043,3.45h-10.35S2585.072,1822.885,2593.817,1824.089Z" transform="translate(-2546.564 -1693.937)" fill="#c4541c"/>
      <path id="Trazado_110938" data-name="Trazado 110938" d="M2576.367,1261.638h6.421l6.89-.964s4.408,9.629,2.138,38.164a184.649,184.649,0,0,1-5.444,29.926l-8.888-.183-3.838-53.22c-.114-1.458-1.811-1.982-1.811-1.982l.247-11.906Z" transform="translate(-2537.342 -1203.394)" fill="#186a94"/>
      <g id="Grupo_54923" data-name="Grupo 54923" transform="translate(45.713 58.577)">
        <path id="Trazado_110939" data-name="Trazado 110939" d="M2658.875,1336.248c1.2-6.435,2.248-14.069,2.926-22.031.1-1.217.2-2.469.294-3.722.1-1.382.194-2.781.276-4.159a5.9,5.9,0,0,0-.212-1.547,5.692,5.692,0,0,1-.2-1.407c.276-5.239.29-10.035.3-14.266q0-1.665.014-3.261c.069-9.621.143-15.073.147-15.127h0c0,.054-.4,5.481-.469,15.116q-.011,1.6-.014,3.262c-.013,4.227-.027,9.019-.3,14.249a5.936,5.936,0,0,0,.21,1.5,5.686,5.686,0,0,1,.2,1.449c-.083,1.377-.176,2.774-.276,4.154-.091,1.251-.19,2.5-.293,3.718-.677,7.95-1.5,15.651-2.7,22.075Z" transform="translate(-2658.783 -1270.727)" fill="#114c6a"/>
      </g>
      <path id="Trazado_110940" data-name="Trazado 110940" d="M2569.1,914.247s1.018,5.913-2.664,8.7c0,0,1.583,3.432,2.649,3.969,1.189.6,4.305.6,5.321-.261,1.049-.89,1.983-5.133,1.983-5.133a42.064,42.064,0,0,1-.639-9.3Z" transform="translate(-2532.641 -899.903)" fill="#cb7f83"/>
      <path id="Trazado_110941" data-name="Trazado 110941" d="M2560.556,849.122s8.112.371,8.265-4.685,1.3-8.412-3.87-8.863-6.238,1.448-6.7,3.123S2558.45,848.9,2560.556,849.122Z" transform="translate(-2525.39 -833.088)" fill="#dcabb0"/>
      <path id="Trazado_110942" data-name="Trazado 110942" d="M2520.242,1016.74s1.076.887,11.823,1.42q1.05.052,1.993.073a38.408,38.408,0,0,0,8.157-.515,7.367,7.367,0,0,0,3-1.032s-3.354-8.094-3.354-11.94c0-2.657-6-24.2-6-24.2a5.37,5.37,0,0,1-4.678,3.609c-5.445.04-3.321-3.617-3.321-3.617L2521.725,983a11.523,11.523,0,0,1,.476,4.48,5.539,5.539,0,0,1-.465,1.656c-.053.114-.112.226-.177.335-1.483,2.534-.467,6.927.618,12.018S2520.242,1016.74,2520.242,1016.74Z" transform="translate(-2492.406 -959.406)" fill="#007dbd"/>
      <path id="Trazado_110943" data-name="Trazado 110943" d="M2333.829,999.638s-6.469,10.872-9.658,19.086c0,0-7.818-3.246-12.287-5.128l-.685-.289-1.456-.618a4.425,4.425,0,0,0-4.053-3.821s-1.536-.061-1.1,1,.417.607,1,2.109a4.157,4.157,0,0,0,2.93,2.8s.5.388,1.328,1.008h0c.246.184.522.39.823.612,3.72,2.743,11.174,7.985,13.5,7.725,3.146-.352,12.064-13.143,12.064-13.143Z" transform="translate(-2304.51 -976.04)" fill="#dcabb0"/>
      <path id="Trazado_110944" data-name="Trazado 110944" d="M2414.571,1016.864s4.244,2.131,5.086,2.131,3.128-1.109,5.534-3.977c1.049-1.251,2.585-3.208,3.98-5.029,1.806-2.355,3.376-4.481,3.354-4.547-.039-.117-.88-11.892-.88-11.892a19.239,19.239,0,0,0-2.151.685c-.137.137-8.038,14.3-9.446,18.482l-4.7-1.413Z" transform="translate(-2400.37 -970.737)" fill="#dce1f1"/>
      <path id="Trazado_110945" data-name="Trazado 110945" d="M2503.865,1002.57l-1.009,45.294H2491.29s2.527-25.7,3.736-33.736c1.385-9.209,1.288-27.928,1.288-27.928s4.749-1.934,5.11-1.875S2503.865,1002.57,2503.865,1002.57Z" transform="translate(-2467.189 -962.701)" fill="#dce1f1"/>
      <path id="Trazado_110946" data-name="Trazado 110946" d="M2563.236,980.54s1.927,15.02,1.223,18.735l-3.031-10.134.684-1.21-1.251-.391.782-6.376A2.1,2.1,0,0,1,2563.236,980.54Z" transform="translate(-2527.783 -959.406)" fill="#cdd2ea"/>
      <path id="Trazado_110947" data-name="Trazado 110947" d="M2597.364,1003.051v44.826s7.354-.133,13.035-.317a50.025,50.025,0,0,0,6.484-.387c0-.318-2.017-18.658-5.7-31.924a25.5,25.5,0,0,1-.838-9.075,57.288,57.288,0,0,1,1.121-8.126c0-.014.01-.028.013-.042s6.952,5.6,6.776,5.867-1.9,4.929-1.9,4.929,3.264,2.367,3.93,2.7c0,0,6.062-8.174,5.222-9.476,0,0-10.565-17.965-12.967-17.212-.68.214-7.784-.474-7.784-.474Z" transform="translate(-2559.576 -962.714)" fill="#dce1f1"/>
      <path id="Trazado_110948" data-name="Trazado 110948" d="M2603.329,982.874c-.3.3-5.962,18.714-5.962,18.714s5.2-8.879,5.594-9.075l-.581-1.1,1.245-.626,1.134-7.918S2603.816,982.387,2603.329,982.874Z" transform="translate(-2559.579 -961.25)" fill="#cdd2ea"/>
      <path id="Trazado_110949" data-name="Trazado 110949" d="M2559.774,828.1s9.95,7.668,9.071,13.332c-.826,5.321.74,5.794,1.9,6.3,3,1.31,7.905-1.288,9.465-1.211,1.111.055-2.706-1.078-4.52-3.5-4.827-6.447-4.357-15.158-5.321-15.785C2563.81,822.967,2559.774,828.1,2559.774,828.1Z" transform="translate(-2526.837 -824.407)" fill="#994616"/>
      <path id="Trazado_110950" data-name="Trazado 110950" d="M2405.216,1126.207a58.5,58.5,0,0,1-1.251,6.275l1.467.75s.88-5.58.646-6.6Z" transform="translate(-2391.131 -1086.277)" fill="#cdd2ea"/>
      <path id="Trazado_110951" data-name="Trazado 110951" d="M2671.579,1110.74c.776,2.939,2.542,18.776,3.292,25.706a50.025,50.025,0,0,0,6.484-.387c0-.318-2.017-18.658-5.7-31.924a25.494,25.494,0,0,1-.838-9.075,57.255,57.255,0,0,1,1.121-8.126c-.509-.445-1.1-.706-1.432-.423C2673.763,1087.136,2670.582,1106.953,2671.579,1110.74Z" transform="translate(-2624.048 -1051.599)" fill="#cdd2ea"/>
      <path id="Trazado_110952" data-name="Trazado 110952" d="M2672.926,1173.929c-.105.584-3.247,6.171-3.836,7.214-.06.108-.094.167-.094.167l-.558.431a4.424,4.424,0,0,0-5.569-.014s-1.163,1.007-.121,1.482.718.157,2.17.857a4.162,4.162,0,0,0,4.053.038l1.019-.783c.175-.135.493-.421.9-.8,1.957-1.838,5.967-5.888,5.967-5.888Z" transform="translate(-2616.146 -1127.842)" fill="#dcabb0"/>
      <path id="Trazado_110953" data-name="Trazado 110953" d="M2414.571,1113.7s4.244,2.131,5.086,2.131,3.128-1.109,5.534-3.977c1.049-1.251,2.585-3.208,3.98-5.029.195-.962.269-2.027-.385-2.092-1.173-.117-7.51,9.5-9.094,9.446S2414.571,1113.7,2414.571,1113.7Z" transform="translate(-2400.37 -1067.57)" fill="#cdd2ea"/>
      <path id="Trazado_110954" data-name="Trazado 110954" d="M2744.18,1171.9l4.51,2.813a5.927,5.927,0,0,1-.608.607c-.02-.039-4.068-2.955-4.068-2.955Z" transform="translate(-2687.304 -1126.075)" fill="#cdd2ea"/>
    </g>
    <g id="Grupo_54925" data-name="Grupo 54925" transform="translate(48.935 87.824)">
      <path id="Trazado_110955" data-name="Trazado 110955" d="M631.5,1819.1l1.123,4.08h11.147S640.917,1817.676,631.5,1819.1Z" transform="translate(-598.949 -1671.639)" fill="#272253"/>
      <path id="Trazado_110956" data-name="Trazado 110956" d="M449.324,1819.1l1.123,4.08h11.147S458.743,1817.676,449.324,1819.1Z" transform="translate(-440.281 -1671.639)" fill="#272253"/>
      <path id="Trazado_110957" data-name="Trazado 110957" d="M445.393,1253.908s-7.473,53.1-5.123,74.062h9.807l10.264-69.188Z" transform="translate(-431.997 -1179.58)" fill="#114c6a"/>
      <path id="Trazado_110958" data-name="Trazado 110958" d="M498.549,1258.38l9.228,69.59h-10.4s-23.393-64.469-18.631-74.062Z" transform="translate(-465.347 -1179.58)" fill="#186a94"/>
      <g id="Grupo_54924" data-name="Grupo 54924">
        <path id="Trazado_110959" data-name="Trazado 110959" d="M1015.63,696.332a38.158,38.158,0,0,0-11.461,68.092l44.445-62.027A38.089,38.089,0,0,0,1015.63,696.332Z" transform="translate(-909.238 -692.709)" fill="#cdd2ea" opacity="0.2"/>
        <path id="Trazado_110960" data-name="Trazado 110960" d="M536.05,707.574A40.665,40.665,0,0,0,457.033,726.6l-76.856,21.531a1.283,1.283,0,0,0-.887,1.577l.684,2.44a1.283,1.283,0,0,0,1.577.887l76.8-21.515a40.665,40.665,0,0,0,77.7-23.946Zm-29.134,46.341A36.764,36.764,0,1,1,532.4,708.6,36.764,36.764,0,0,1,506.915,753.915Z" transform="translate(-379.244 -677.868)" fill="#424242"/>
      </g>
      <path id="Trazado_110961" data-name="Trazado 110961" d="M565.352,1300.527a7.94,7.94,0,0,0,7.022-3.831,8.288,8.288,0,0,1-7.2,3.56l0,.269Z" transform="translate(-541.179 -1216.847)" fill="#114c6a"/>
      <path id="Trazado_110962" data-name="Trazado 110962" d="M581.868,1400.377a207.762,207.762,0,0,1-6.13-20.341c-.28-1.13-.56-2.293-.832-3.457-.3-1.284-.6-2.586-.877-3.869a5.119,5.119,0,0,1-.006-1.472,4.937,4.937,0,0,0,0-1.34c-1.031-4.881-1.734-9.374-2.353-13.339q-.244-1.56-.482-3.055c-1.45-9.01-2.307-14.112-2.318-14.162h0c.012.05,1.192,5.1,2.644,14.118q.241,1.5.482,3.056c.619,3.961,1.321,8.45,2.35,13.323a5.138,5.138,0,0,1,0,1.43,4.92,4.92,0,0,0,0,1.38c.281,1.281.576,2.582.876,3.865.272,1.163.552,2.325.831,3.453a212.42,212.42,0,0,0,5.9,20.406Z" transform="translate(-544.404 -1253.991)" fill="#114c6a"/>
      <path id="Trazado_110963" data-name="Trazado 110963" d="M622.338,840.533a16.9,16.9,0,0,1-1.235,5.893s-4.407-1.177-5.726-1.745a13.069,13.069,0,0,1-2.092-1.62,19.506,19.506,0,0,0,2.478-6.91C616.331,832.24,622.338,840.533,622.338,840.533Z" transform="translate(-583.085 -814.814)" fill="#945c2e"/>
      <path id="Trazado_110964" data-name="Trazado 110964" d="M635.64,779.091s-9.164.419-9.338-5.292-1.472-9.5,4.372-10.012,7.047,1.636,7.569,3.528S638.019,778.835,635.64,779.091Z" transform="translate(-594.213 -752.634)" fill="#a36d3c"/>
      <path id="Trazado_110965" data-name="Trazado 110965" d="M460.233,893.824s-12.044,12.574-16.876,22.407c0,0,2.416,7.7,13.307,19.327,0,0,.155-.982.609-3.744.09-.543-4.053-10.039-7.748-15.323,0,0,8.575-5.418,10.839-9.858S460.233,893.824,460.233,893.824Z" transform="translate(-435.084 -865.959)" fill="#945c2e"/>
      <path id="Trazado_110966" data-name="Trazado 110966" d="M615.923,765.825s4.342-7.748,11.577-8.225c0,0,3.187-1.276,3.187-3,0,0-10.293-3.036-14.038,0C611.03,759.156,615.923,765.825,615.923,765.825Z" transform="translate(-583.664 -743.526)" fill="#424242"/>
      <path id="Trazado_110967" data-name="Trazado 110967" d="M690.781,947.982c-1.383.273-.832.358-2.787.7s-3.663,1.516-4.081,2.877l-14.421.4c1.132-5.138,1.045-24.466.261-26.033s-8.287-3.077-8.287-3.077l-1.839,9.064s2.291,22.852,4.467,25.007,22.05-3.386,22.05-3.386a5.45,5.45,0,0,0,5.581-3.991S692.164,947.709,690.781,947.982Z" transform="translate(-623.448 -891.246)" fill="#945c2e"/>
      <path id="Trazado_110968" data-name="Trazado 110968" d="M451.043,893.824s-13.494,17.858-14.539,22.364c0,0,.451,1.229,3.376,5.215l5.068-2.765s-.841-1.712-1.017-1.992c0,0-.1-.1.473-.408S447.816,914,447.816,914Z" transform="translate(-429.116 -865.959)" fill="#d1872b"/>
      <path id="Trazado_110969" data-name="Trazado 110969" d="M451.043,893.824s-13.494,17.858-14.539,22.364a35.249,35.249,0,0,0,3.376,5.215l5.068-2.765s-.841-1.712-1.017-1.992c0,0-.1-.1.473-.408S447.816,914,447.816,914Z" transform="translate(-429.116 -865.959)" fill="#c36c3a"/>
      <path id="Trazado_110970" data-name="Trazado 110970" d="M479.223,939.511c1.713,3.46,20.5,5.022,21.678,4.369s.354-5.025.522-6.856c.373-4.04,2.375-8.691,2.85-10.2.056-.183.089-.283.089-.283.033,1.894,2.383,5.14,2.383,5.14,4.473.44,12.612-1.647,12.612-1.647-.026-.179-.046-.357-.06-.531a10.012,10.012,0,0,1,.474-3.906c-.692-.051-5.421-.016-6.7-.005a.3.3,0,0,1-.306-.317l.73-7.089c1.591-14.215-1.189-19.32-1.189-19.32-2.176-1.741-8.14-3.09-8.14-3.09a18.873,18.873,0,0,1-8.14-2.351s-7.052-.784-8.272-.381-3.5,14.659-4.035,20.262-3.762,19.43-4.5,21.472C478.086,937.942,478.962,938.983,479.223,939.511Z" transform="translate(-465.827 -865.183)" fill="#e77c20"/>
      <path id="Trazado_110971" data-name="Trazado 110971" d="M674.394,1035.082c.033,1.894,2.383,5.14,2.383,5.14,4.473.44,12.613-1.647,12.613-1.647-.026-.179-.046-.357-.06-.531-1.5.162-10.4,1.094-11.442.466,0,0-3.574-3.258-4.01-20.96Z" transform="translate(-635.86 -973.72)" fill="#a1431f" opacity="0.2"/>
    </g>
  </g>
</svg>
